<?xml version="1.0" encoding="UTF-8" standalone="no"?>
<!DOCTYPE svg PUBLIC "-//W3C//DTD SVG 1.1//EN"
 "http://www.w3.org/Graphics/SVG/1.1/DTD/svg11.dtd">
<!-- Generated by graphviz version 14.0.0 (20250921.2048)
 -->
<!-- Title: get_mpi_local_size_idx Pages: 1 -->
<!--zoomable 179 -->

<svg id="main" version="1.1" xmlns="http://www.w3.org/2000/svg" xmlns:xlink="http://www.w3.org/1999/xlink" xml:space="preserve" onload="init(evt)">

<style type="text/css"><![CDATA[
.node, .edge {opacity: 0.7;}
.node.selected, .edge.selected {opacity: 1;}
.edge:hover path { stroke: red; }
.edge:hover polygon { stroke: red; fill: red; }
]]></style>

<defs>
  <circle id="rim" cx="0" cy="0" r="7"/>
  <circle id="rim2" cx="0" cy="0" r="3.5"/>
  <g id="zoomPlus">
    <use xlink:href="#rim" fill="#404040"><set attributeName="fill" to="#808080" begin="zoomplus.mouseover" end="zoomplus.mouseout"/></use>
    <path d="M-4,0h8M0,-4v8" fill="none" stroke="white" stroke-width="1.5" pointer-events="none"/>
  </g>
  <g id="zoomMin">
    <use xlink:href="#rim" fill="#404040"><set attributeName="fill" to="#808080" begin="zoomminus.mouseover" end="zoomminus.mouseout"/></use>
    <path d="M-4,0h8" fill="none" stroke="white" stroke-width="1.5" pointer-events="none"/>
  </g>
  <g id="arrowUp" transform="translate(30 24)">
    <use xlink:href="#rim"/>
    <path pointer-events="none" fill="none" stroke="white" stroke-width="1.5" d="M0,-3.0v7 M-2.5,-0.5L0,-3.0L2.5,-0.5"/>
  </g>
  <g id="arrowRight" transform="rotate(90) translate(36 -43)">
    <use xlink:href="#rim"/>
    <path pointer-events="none" fill="none" stroke="white" stroke-width="1.5" d="M0,-3.0v7 M-2.5,-0.5L0,-3.0L2.5,-0.5"/>
  </g>
  <g id="arrowDown" transform="rotate(180) translate(-30 -48)">
    <use xlink:href="#rim"/>
    <path pointer-events="none" fill="none" stroke="white" stroke-width="1.5" d="M0,-3.0v7 M-2.5,-0.5L0,-3.0L2.5,-0.5"/>
  </g>
  <g id="arrowLeft" transform="rotate(270) translate(-36 17)">
    <use xlink:href="#rim"/>
    <path pointer-events="none" fill="none" stroke="white" stroke-width="1.5" d="M0,-3.0v7 M-2.5,-0.5L0,-3.0L2.5,-0.5"/>
  </g>
  <g id="resetDef">
    <use xlink:href="#rim2" fill="#404040"><set attributeName="fill" to="#808080" begin="reset.mouseover" end="reset.mouseout"/></use>
  </g>
</defs>
<script type="application/ecmascript">
var viewWidth = 799;
var viewHeight = 179;
var sectionId = 'dynsection-4';
</script>
<script type="application/ecmascript" xlink:href="../../svg.min.js"/>
<svg id="graph" class="graph">
<g id="viewport">
<title>get_mpi_local_size_idx</title>
<!-- Node1 -->
<g id="Node000001" class="node">
<title>Node1</title>
<g id="a_Node000001"><a xlink:title=" ">
<polygon fill="#999999" stroke="#666666" points="790.5,-94.73 673.25,-94.73 673.25,-75.48 790.5,-75.48 790.5,-94.73"/>
<text xml:space="preserve" text-anchor="middle" x="731.88" y="-81.23" font-family="Helvetica,sans-Serif" font-size="10.00">get_mpi_local_size_idx</text>
</a>
</g>
</g>
<!-- Node2 -->
<g id="Node000002" class="node">
<title>Node2</title>
<g id="a_Node000002"><a xlink:href="../../d9/db9/vlocg__table_8c.html#ab6914a7f3451d3d4c5e01f8c5cecd7a8" target="_top" xlink:title=" ">
<polygon fill="white" stroke="#666666" points="637.25,-151.73 539.5,-151.73 539.5,-132.48 637.25,-132.48 637.25,-151.73"/>
<text xml:space="preserve" text-anchor="middle" x="588.38" y="-138.23" font-family="Helvetica,sans-Serif" font-size="10.00">create_vlocg_table</text>
</a>
</g>
</g>
<!-- Node1&#45;&gt;Node2 -->
<g id="edge1_Node000001_Node000002" class="edge">
<title>Node1&#45;&gt;Node2</title>
<g id="a_edge1_Node000001_Node000002"><a xlink:title=" ">
<path fill="none" stroke="#63b8ff" d="M695.25,-99.46C669.92,-109.66 636.55,-123.11 614.1,-132.15"/>
<polygon fill="#63b8ff" stroke="#63b8ff" points="696.53,-102.72 704.5,-95.73 693.92,-96.22 696.53,-102.72"/>
</a>
</g>
</g>
<!-- Node3 -->
<g id="Node000003" class="node">
<title>Node3</title>
<g id="a_Node000003"><a xlink:href="../../da/d77/get__save__data_8c.html#ab497305a989dd1713ba4c2b4d0f95bd0" target="_top" xlink:title=" ">
<polygon fill="white" stroke="#666666" points="503.5,-151.73 372,-151.73 372,-132.48 503.5,-132.48 503.5,-151.73"/>
<text xml:space="preserve" text-anchor="middle" x="437.75" y="-138.23" font-family="Helvetica,sans-Serif" font-size="10.00">read_and_alloc_save_data</text>
</a>
</g>
</g>
<!-- Node1&#45;&gt;Node3 -->
<g id="edge10_Node000001_Node000003" class="edge">
<title>Node1&#45;&gt;Node3</title>
<g id="a_edge10_Node000001_Node000003"><a xlink:title=" ">
<path fill="none" stroke="#63b8ff" d="M715.37,-103.55C698.41,-122.16 669.32,-149.73 637.25,-161.11 579.34,-181.66 506.31,-164.58 466.96,-152.17"/>
<polygon fill="#63b8ff" stroke="#63b8ff" points="717.91,-105.96 721.89,-96.14 712.66,-101.34 717.91,-105.96"/>
</a>
</g>
</g>
<!-- Node6 -->
<g id="Node000006" class="node">
<title>Node6</title>
<g id="a_Node000006"><a xlink:href="../../d1/d94/d_vpot__add__long__range_8c.html#a0923c770a93d2648a5d75b70fbb9c61c" target="_top" xlink:title=" ">
<polygon fill="white" stroke="#666666" points="485.88,-37.73 389.62,-37.73 389.62,-18.48 485.88,-18.48 485.88,-37.73"/>
<text xml:space="preserve" text-anchor="middle" x="437.75" y="-24.23" font-family="Helvetica,sans-Serif" font-size="10.00">dV_add_longrange</text>
</a>
</g>
</g>
<!-- Node1&#45;&gt;Node6 -->
<g id="edge5_Node000001_Node000006" class="edge">
<title>Node1&#45;&gt;Node6</title>
<g id="a_edge5_Node000001_Node000006"><a xlink:title=" ">
<path fill="none" stroke="#63b8ff" d="M715.05,-66.61C698.01,-48.25 669.02,-21.26 637.25,-10.11 579.79,10.07 507.51,-6.01 467.95,-18.02"/>
<polygon fill="#63b8ff" stroke="#63b8ff" points="712.34,-68.83 721.61,-73.94 717.55,-64.15 712.34,-68.83"/>
</a>
</g>
</g>
<!-- Node8 -->
<g id="Node000008" class="node">
<title>Node8</title>
<g id="a_Node000008"><a xlink:href="../../d9/d90/d_vbare__loc_8c.html#a30f21b6035a8a10369610419e98fbe67" target="_top" xlink:title=" ">
<polygon fill="white" stroke="#666666" points="460.75,-113.73 414.75,-113.73 414.75,-94.48 460.75,-94.48 460.75,-113.73"/>
<text xml:space="preserve" text-anchor="middle" x="437.75" y="-100.23" font-family="Helvetica,sans-Serif" font-size="10.00">dVlocq</text>
</a>
</g>
</g>
<!-- Node1&#45;&gt;Node8 -->
<g id="edge8_Node000001_Node000008" class="edge">
<title>Node1&#45;&gt;Node8</title>
<g id="a_edge8_Node000001_Node000008"><a xlink:title=" ">
<path fill="none" stroke="#63b8ff" d="M661.45,-89.62C596.56,-93.84 503.54,-99.89 461.23,-102.65"/>
<polygon fill="#63b8ff" stroke="#63b8ff" points="661.55,-93.12 671.3,-88.98 661.09,-86.14 661.55,-93.12"/>
</a>
</g>
</g>
<!-- Node9 -->
<g id="Node000009" class="node">
<title>Node9</title>
<g id="a_Node000009"><a xlink:href="../../d8/dfb/sortpw_8c.html#a2fcaf6a94fa8abd8c1cff8aa13328266" target="_top" xlink:title=" ">
<polygon fill="white" stroke="#666666" points="614.38,-38.73 562.38,-38.73 562.38,-19.48 614.38,-19.48 614.38,-38.73"/>
<text xml:space="preserve" text-anchor="middle" x="588.38" y="-25.23" font-family="Helvetica,sans-Serif" font-size="10.00">Sort_pw</text>
</a>
</g>
</g>
<!-- Node1&#45;&gt;Node9 -->
<g id="edge11_Node000001_Node000009" class="edge">
<title>Node1&#45;&gt;Node9</title>
<g id="a_edge11_Node000001_Node000009"><a xlink:title=" ">
<path fill="none" stroke="#63b8ff" d="M696.06,-70.73C678.48,-63.53 656.78,-54.74 637.25,-47.11 629.97,-44.26 622.04,-41.25 614.76,-38.51"/>
<polygon fill="#63b8ff" stroke="#63b8ff" points="694.72,-73.96 705.3,-74.52 697.37,-67.48 694.72,-73.96"/>
</a>
</g>
</g>
<!-- Node12 -->
<g id="Node000012" class="node">
<title>Node12</title>
<g id="a_Node000012"><a xlink:href="../../d7/d1a/planner_8c.html#a08f76b4b182067a8a93997877decdb27" target="_top" xlink:title=" ">
<polygon fill="white" stroke="#666666" points="615.88,-75.73 560.88,-75.73 560.88,-56.48 615.88,-56.48 615.88,-75.73"/>
<text xml:space="preserve" text-anchor="middle" x="588.38" y="-62.23" font-family="Helvetica,sans-Serif" font-size="10.00">wfc_plan</text>
</a>
</g>
</g>
<!-- Node1&#45;&gt;Node12 -->
<g id="edge15_Node000001_Node000012" class="edge">
<title>Node1&#45;&gt;Node12</title>
<g id="a_edge15_Node000001_Node000012"><a xlink:title=" ">
<path fill="none" stroke="#63b8ff" d="M661.73,-75.82C645.5,-73.64 629.15,-71.45 616.12,-69.7"/>
<polygon fill="#63b8ff" stroke="#63b8ff" points="661.04,-79.26 671.41,-77.12 661.97,-72.32 661.04,-79.26"/>
</a>
</g>
</g>
<!-- Node2&#45;&gt;Node3 -->
<g id="edge2_Node000002_Node000003" class="edge">
<title>Node2&#45;&gt;Node3</title>
<g id="a_edge2_Node000002_Node000003"><a xlink:title=" ">
<path fill="none" stroke="#63b8ff" d="M527.77,-142.11C519.88,-142.11 511.76,-142.11 503.79,-142.11"/>
<polygon fill="#63b8ff" stroke="#63b8ff" points="527.61,-145.61 537.61,-142.11 527.61,-138.61 527.61,-145.61"/>
</a>
</g>
</g>
<!-- Node4 -->
<g id="Node000004" class="node">
<title>Node4</title>
<g id="a_Node000004"><a xlink:href="../../da/d2e/elph__driver_8c.html#ad9f405d41cf090d652dbe1307700665f" target="_top" xlink:title=" ">
<polygon fill="white" stroke="#666666" points="153.5,-94.73 90.25,-94.73 90.25,-75.48 153.5,-75.48 153.5,-94.73"/>
<text xml:space="preserve" text-anchor="middle" x="121.88" y="-81.23" font-family="Helvetica,sans-Serif" font-size="10.00">elph_driver</text>
</a>
</g>
</g>
<!-- Node3&#45;&gt;Node4 -->
<g id="edge3_Node000003_Node000004" class="edge">
<title>Node3&#45;&gt;Node4</title>
<g id="a_edge3_Node000003_Node000004"><a xlink:title=" ">
<path fill="none" stroke="#63b8ff" d="M360.79,-133.23C315.77,-127.38 257.73,-118.83 206.75,-108.11 189.02,-104.38 169.48,-99.09 153.73,-94.53"/>
<polygon fill="#63b8ff" stroke="#63b8ff" points="360.07,-136.66 370.44,-134.46 360.96,-129.72 360.07,-136.66"/>
</a>
</g>
</g>
<!-- Node5 -->
<g id="Node000005" class="node">
<title>Node5</title>
<g id="a_Node000005"><a xlink:href="../../d3/dd5/main__elph_c_8c.html#a0ddf1224851353fc92bfbff6f499fa97" target="_top" xlink:title="Main program entry point.">
<polygon fill="white" stroke="#666666" points="37,-75.73 0,-75.73 0,-56.48 37,-56.48 37,-75.73"/>
<text xml:space="preserve" text-anchor="middle" x="18.5" y="-62.23" font-family="Helvetica,sans-Serif" font-size="10.00">main</text>
</a>
</g>
</g>
<!-- Node4&#45;&gt;Node5 -->
<g id="edge4_Node000004_Node000005" class="edge">
<title>Node4&#45;&gt;Node5</title>
<g id="a_edge4_Node000004_Node000005"><a xlink:title=" ">
<path fill="none" stroke="#63b8ff" d="M78.61,-77.19C64.16,-74.48 48.77,-71.59 37.32,-69.45"/>
<polygon fill="#63b8ff" stroke="#63b8ff" points="77.95,-80.62 88.42,-79.03 79.24,-73.74 77.95,-80.62"/>
</a>
</g>
</g>
<!-- Node7 -->
<g id="Node000007" class="node">
<title>Node7</title>
<g id="a_Node000007"><a xlink:href="../../da/dc2/interpolation__driver_8c.html#aecc42ae41d168b486807b337fcf5b3de" target="_top" xlink:title=" ">
<polygon fill="white" stroke="#666666" points="170.75,-57.73 73,-57.73 73,-38.48 170.75,-38.48 170.75,-57.73"/>
<text xml:space="preserve" text-anchor="middle" x="121.88" y="-44.23" font-family="Helvetica,sans-Serif" font-size="10.00">interpolation_driver</text>
</a>
</g>
</g>
<!-- Node6&#45;&gt;Node7 -->
<g id="edge6_Node000006_Node000007" class="edge">
<title>Node6&#45;&gt;Node7</title>
<g id="a_edge6_Node000006_Node000007"><a xlink:title=" ">
<path fill="none" stroke="#63b8ff" d="M378.28,-31.83C318.54,-35.64 226.84,-41.48 171.11,-45.04"/>
<polygon fill="#63b8ff" stroke="#63b8ff" points="378.15,-35.35 387.91,-31.22 377.71,-28.36 378.15,-35.35"/>
</a>
</g>
</g>
<!-- Node7&#45;&gt;Node5 -->
<g id="edge7_Node000007_Node000005" class="edge">
<title>Node7&#45;&gt;Node5</title>
<g id="a_edge7_Node000007_Node000005"><a xlink:title=" ">
<path fill="none" stroke="#63b8ff" d="M61.33,-58.68C52.55,-60.24 44.14,-61.73 37.19,-62.97"/>
<polygon fill="#63b8ff" stroke="#63b8ff" points="61.84,-62.15 71.07,-56.95 60.61,-55.25 61.84,-62.15"/>
</a>
</g>
</g>
<!-- Node8&#45;&gt;Node4 -->
<g id="edge9_Node000008_Node000004" class="edge">
<title>Node8&#45;&gt;Node4</title>
<g id="a_edge9_Node000008_Node000004"><a xlink:title=" ">
<path fill="none" stroke="#63b8ff" d="M403.41,-102.09C342.33,-98.39 213.31,-90.58 153.95,-86.99"/>
<polygon fill="#63b8ff" stroke="#63b8ff" points="402.97,-105.57 413.17,-102.68 403.4,-98.58 402.97,-105.57"/>
</a>
</g>
</g>
<!-- Node10 -->
<g id="Node000010" class="node">
<title>Node10</title>
<g id="a_Node000010"><a xlink:href="../../d1/d8e/compute___vbare__loc_8c.html#a5f1d51340a8457749225b05b612e4abe" target="_top" xlink:title=" ">
<polygon fill="white" stroke="#666666" points="466.38,-75.73 409.12,-75.73 409.12,-56.48 466.38,-56.48 466.38,-75.73"/>
<text xml:space="preserve" text-anchor="middle" x="437.75" y="-62.23" font-family="Helvetica,sans-Serif" font-size="10.00">elphLocal</text>
</a>
</g>
</g>
<!-- Node9&#45;&gt;Node10 -->
<g id="edge12_Node000009_Node000010" class="edge">
<title>Node9&#45;&gt;Node10</title>
<g id="a_edge12_Node000009_Node000010"><a xlink:title=" ">
<path fill="none" stroke="#63b8ff" d="M551.22,-38.11C525.17,-44.59 490.54,-53.22 466.62,-59.17"/>
<polygon fill="#63b8ff" stroke="#63b8ff" points="551.84,-41.56 560.69,-35.75 550.14,-34.77 551.84,-41.56"/>
</a>
</g>
</g>
<!-- Node11 -->
<g id="Node000011" class="node">
<title>Node11</title>
<g id="a_Node000011"><a xlink:href="../../d5/dd2/compute__elph__matq_8c.html#ad32ab6f17a3745b7f82151d7f5b927f2" target="_top" xlink:title=" ">
<polygon fill="white" stroke="#666666" points="336,-75.73 206.75,-75.73 206.75,-56.48 336,-56.48 336,-75.73"/>
<text xml:space="preserve" text-anchor="middle" x="271.38" y="-62.23" font-family="Helvetica,sans-Serif" font-size="10.00">compute_and_write_elphq</text>
</a>
</g>
</g>
<!-- Node10&#45;&gt;Node11 -->
<g id="edge13_Node000010_Node000011" class="edge">
<title>Node10&#45;&gt;Node11</title>
<g id="a_edge13_Node000010_Node000011"><a xlink:title=" ">
<path fill="none" stroke="#63b8ff" d="M397.47,-66.11C379.17,-66.11 356.93,-66.11 336.3,-66.11"/>
<polygon fill="#63b8ff" stroke="#63b8ff" points="397.35,-69.61 407.35,-66.11 397.35,-62.61 397.35,-69.61"/>
</a>
</g>
</g>
<!-- Node11&#45;&gt;Node4 -->
<g id="edge14_Node000011_Node000004" class="edge">
<title>Node11&#45;&gt;Node4</title>
<g id="a_edge14_Node000011_Node000004"><a xlink:title=" ">
<path fill="none" stroke="#63b8ff" d="M195.37,-75.77C180.74,-77.66 166.17,-79.53 153.97,-81.1"/>
<polygon fill="#63b8ff" stroke="#63b8ff" points="195.57,-79.27 205.04,-74.53 194.67,-72.33 195.57,-79.27"/>
</a>
</g>
</g>
<!-- Node12&#45;&gt;Node6 -->
<g id="edge16_Node000012_Node000006" class="edge">
<title>Node12&#45;&gt;Node6</title>
<g id="a_edge16_Node000012_Node000006"><a xlink:title=" ">
<path fill="none" stroke="#63b8ff" d="M549.33,-56.38C527.58,-50.82 500.34,-43.86 478.34,-38.23"/>
<polygon fill="#63b8ff" stroke="#63b8ff" points="548.44,-59.77 558.99,-58.85 550.17,-52.98 548.44,-59.77"/>
</a>
</g>
</g>
<!-- Node12&#45;&gt;Node8 -->
<g id="edge17_Node000012_Node000008" class="edge">
<title>Node12&#45;&gt;Node8</title>
<g id="a_edge17_Node000012_Node000008"><a xlink:title=" ">
<path fill="none" stroke="#63b8ff" d="M549.49,-75.8C521.54,-82.94 484.46,-92.42 461.1,-98.39"/>
<polygon fill="#63b8ff" stroke="#63b8ff" points="550.17,-79.23 558.99,-73.36 548.44,-72.45 550.17,-79.23"/>
</a>
</g>
</g>
<!-- Node12&#45;&gt;Node10 -->
<g id="edge18_Node000012_Node000010" class="edge">
<title>Node12&#45;&gt;Node10</title>
<g id="a_edge18_Node000012_Node000010"><a xlink:title=" ">
<path fill="none" stroke="#63b8ff" d="M549.23,-66.11C523.47,-66.11 490.04,-66.11 466.73,-66.11"/>
<polygon fill="#63b8ff" stroke="#63b8ff" points="548.95,-69.61 558.95,-66.11 548.95,-62.61 548.95,-69.61"/>
</a>
</g>
</g>
</g>
</svg>

<g id="navigator" transform="translate(0 0)" fill="#404254">
  <rect fill="#f2f5e9" fill-opacity="0.5" stroke="#606060" stroke-width=".5" x="0" y="0" width="60" height="60"/>
  <use id="zoomplus" xlink:href="#zoomPlus" x="17" y="9" onmousedown="handleZoom(evt,'in')"/>
  <use id="zoomminus" xlink:href="#zoomMin" x="42" y="9" onmousedown="handleZoom(evt,'out')"/>
  <use id="reset" xlink:href="#resetDef" x="30" y="36" onmousedown="handleReset()"/>
   <use id="arrowup" xlink:href="#arrowUp" x="0" y="0" onmousedown="handlePan(0,-1)"/>
  <use id="arrowright" xlink:href="#arrowRight" x="0" y="0" onmousedown="handlePan(1,0)"/>
  <use id="arrowdown" xlink:href="#arrowDown" x="0" y="0" onmousedown="handlePan(0,1)"/>
  <use id="arrowleft" xlink:href="#arrowLeft" x="0" y="0" onmousedown="handlePan(-1,0)"/>
</g>
<svg viewBox="0 0 15 15" width="100%" height="30px" preserveAspectRatio="xMaxYMin meet">
 <g id="arrow_out" transform="scale(0.3 0.3)">
  <a xlink:href="parallel_8c_a772905c8b6c33d03f3c8eb15bafdb129_icgraph_org.svg" target="_base">
   <rect id="button" ry="5" rx="5" y="6" x="6" height="38" width="38"
        fill="#f2f5e9" fill-opacity="0.5" stroke="#606060" stroke-width="1.0"/>
   <path id="arrow"
     d="M 11.500037,31.436501 C 11.940474,20.09759 22.043105,11.32322 32.158766,21.979434 L 37.068811,17.246167 C 37.068811,17.246167 37.088388,32 37.088388,32 L 22.160133,31.978069 C 22.160133,31.978069 26.997745,27.140456 26.997745,27.140456 C 18.528582,18.264221 13.291696,25.230495 11.500037,31.436501 z"
     style="fill:#404040;"/>
  </a>
 </g>
</svg>

<style type='text/css'>
<![CDATA[
[data-mouse-over-selected='false'] { opacity: 0.7; }
[data-mouse-over-selected='true']  { opacity: 1.0; }
]]>
</style>
<script type="application/ecmascript"><![CDATA[
document.addEventListener('DOMContentLoaded', (event) => {
  highlightEdges();
  highlightAdjacentNodes();
});
]]></script>
</svg>
