<?xml version="1.0" encoding="UTF-8" standalone="no"?>
<!DOCTYPE svg PUBLIC "-//W3C//DTD SVG 1.1//EN"
 "http://www.w3.org/Graphics/SVG/1.1/DTD/svg11.dtd">
<!-- Generated by graphviz version 14.0.0 (20250921.2048)
 -->
<!-- Title: src/wfc/gsort.h Pages: 1 -->
<svg width="317pt" height="94pt"
 viewBox="0.00 0.00 317.00 94.00" xmlns="http://www.w3.org/2000/svg" xmlns:xlink="http://www.w3.org/1999/xlink">
<g id="graph0" class="graph" transform="scale(1 1) rotate(0) translate(4 89.75)">
<title>src/wfc/gsort.h</title>
<!-- Node1 -->
<g id="Node000001" class="node">
<title>Node1</title>
<g id="a_Node000001"><a xlink:title=" ">
<polygon fill="#999999" stroke="#666666" points="203.88,-85.75 122.62,-85.75 122.62,-66.5 203.88,-66.5 203.88,-85.75"/>
<text xml:space="preserve" text-anchor="middle" x="163.25" y="-72.25" font-family="Helvetica,sans-Serif" font-size="10.00">src/wfc/gsort.h</text>
</a>
</g>
</g>
<!-- Node2 -->
<g id="Node000002" class="node">
<title>Node2</title>
<g id="a_Node000002"><a xlink:href="../../dd/de7/elec__reps_8c.html" target="_top" xlink:title=" ">
<polygon fill="white" stroke="#666666" points="104.5,-30.5 0,-30.5 0,0 104.5,0 104.5,-30.5"/>
<text xml:space="preserve" text-anchor="start" x="8" y="-17" font-family="Helvetica,sans-Serif" font-size="10.00">src/symmetries/elec</text>
<text xml:space="preserve" text-anchor="middle" x="52.25" y="-5.75" font-family="Helvetica,sans-Serif" font-size="10.00">_reps.c</text>
</a>
</g>
</g>
<!-- Node1&#45;&gt;Node2 -->
<g id="edge1_Node000001_Node000002" class="edge">
<title>Node1&#45;&gt;Node2</title>
<g id="a_edge1_Node000001_Node000002"><a xlink:title=" ">
<path fill="none" stroke="#63b8ff" d="M136.43,-60.9C119.23,-51.77 96.96,-39.96 79.65,-30.78"/>
<polygon fill="#63b8ff" stroke="#63b8ff" points="134.58,-63.88 145.05,-65.47 137.86,-57.7 134.58,-63.88"/>
</a>
</g>
</g>
<!-- Node3 -->
<g id="Node000003" class="node">
<title>Node3</title>
<g id="a_Node000003"><a xlink:href="../../da/d8e/gsort_8c.html" target="_top" xlink:title=" ">
<polygon fill="white" stroke="#666666" points="203.88,-24.88 122.62,-24.88 122.62,-5.63 203.88,-5.63 203.88,-24.88"/>
<text xml:space="preserve" text-anchor="middle" x="163.25" y="-11.38" font-family="Helvetica,sans-Serif" font-size="10.00">src/wfc/gsort.c</text>
</a>
</g>
</g>
<!-- Node1&#45;&gt;Node3 -->
<g id="edge2_Node000001_Node000003" class="edge">
<title>Node1&#45;&gt;Node3</title>
<g id="a_edge2_Node000001_Node000003"><a xlink:title=" ">
<path fill="none" stroke="#63b8ff" d="M163.25,-54.7C163.25,-44.67 163.25,-33.08 163.25,-25.28"/>
<polygon fill="#63b8ff" stroke="#63b8ff" points="159.75,-54.67 163.25,-64.67 166.75,-54.67 159.75,-54.67"/>
</a>
</g>
</g>
<!-- Node4 -->
<g id="Node000004" class="node">
<title>Node4</title>
<g id="a_Node000004"><a xlink:href="../../d8/dfb/sortpw_8c.html" target="_top" xlink:title=" ">
<polygon fill="white" stroke="#666666" points="308.88,-24.88 221.62,-24.88 221.62,-5.63 308.88,-5.63 308.88,-24.88"/>
<text xml:space="preserve" text-anchor="middle" x="265.25" y="-11.38" font-family="Helvetica,sans-Serif" font-size="10.00">src/wfc/sortpw.c</text>
</a>
</g>
</g>
<!-- Node1&#45;&gt;Node4 -->
<g id="edge3_Node000001_Node000004" class="edge">
<title>Node1&#45;&gt;Node4</title>
<g id="a_edge3_Node000001_Node000004"><a xlink:title=" ">
<path fill="none" stroke="#63b8ff" d="M188.6,-60.49C207.73,-49.45 233.38,-34.65 249.61,-25.28"/>
<polygon fill="#63b8ff" stroke="#63b8ff" points="186.96,-57.4 180.05,-65.43 190.46,-63.46 186.96,-57.4"/>
</a>
</g>
</g>
</g>
</svg>
