<?xml version="1.0" encoding="UTF-8" standalone="no"?>
<!DOCTYPE svg PUBLIC "-//W3C//DTD SVG 1.1//EN"
 "http://www.w3.org/Graphics/SVG/1.1/DTD/svg11.dtd">
<!-- Generated by graphviz version 14.0.0 (20250921.2048)
 -->
<!-- Title: src/symmetries/elec_reps.c Pages: 1 -->
<svg width="945pt" height="204pt"
 viewBox="0.00 0.00 945.00 204.00" xmlns="http://www.w3.org/2000/svg" xmlns:xlink="http://www.w3.org/1999/xlink">
<g id="graph0" class="graph" transform="scale(1 1) rotate(0) translate(4 200.25)">
<title>src/symmetries/elec_reps.c</title>
<!-- Node1 -->
<g id="Node000001" class="node">
<title>Node1</title>
<g id="a_Node000001"><a xlink:title=" ">
<polygon fill="#999999" stroke="#666666" points="433.34,-196.25 328.84,-196.25 328.84,-165.75 433.34,-165.75 433.34,-196.25"/>
<text xml:space="preserve" text-anchor="start" x="336.84" y="-182.75" font-family="Helvetica,sans-Serif" font-size="10.00">src/symmetries/elec</text>
<text xml:space="preserve" text-anchor="middle" x="381.09" y="-171.5" font-family="Helvetica,sans-Serif" font-size="10.00">_reps.c</text>
</a>
</g>
</g>
<!-- Node2 -->
<g id="Node000002" class="node">
<title>Node2</title>
<g id="a_Node000002"><a xlink:title=" ">
<polygon fill="#e0e0e0" stroke="#999999" points="326.09,-19.25 286.09,-19.25 286.09,0 326.09,0 326.09,-19.25"/>
<text xml:space="preserve" text-anchor="middle" x="306.09" y="-5.75" font-family="Helvetica,sans-Serif" font-size="10.00">mpi.h</text>
</a>
</g>
</g>
<!-- Node1&#45;&gt;Node2 -->
<g id="edge1_Node000001_Node000002" class="edge">
<title>Node1&#45;&gt;Node2</title>
<g id="a_edge1_Node000001_Node000002"><a xlink:title=" ">
<path fill="none" stroke="#63b8ff" d="M328.56,-180.7C238.66,-180.64 61.17,-174.68 22.09,-129.75 -51.47,-45.18 185.9,-19.23 274.28,-12.61"/>
<polygon fill="#63b8ff" stroke="#63b8ff" points="274.48,-16.1 284.21,-11.91 273.98,-9.12 274.48,-16.1"/>
</a>
</g>
</g>
<!-- Node3 -->
<g id="Node000003" class="node">
<title>Node3</title>
<g id="a_Node000003"><a xlink:title=" ">
<polygon fill="#e0e0e0" stroke="#999999" points="446.96,-19.25 391.21,-19.25 391.21,0 446.96,0 446.96,-19.25"/>
<text xml:space="preserve" text-anchor="middle" x="419.09" y="-5.75" font-family="Helvetica,sans-Serif" font-size="10.00">stdbool.h</text>
</a>
</g>
</g>
<!-- Node1&#45;&gt;Node3 -->
<g id="edge2_Node000001_Node000003" class="edge">
<title>Node1&#45;&gt;Node3</title>
<g id="a_edge2_Node000001_Node000003"><a xlink:title=" ">
<path fill="none" stroke="#63b8ff" d="M400.38,-165.54C410.72,-156.53 422.47,-143.97 428.09,-129.75 441.06,-96.89 432.79,-55.03 425.8,-30.69"/>
<polygon fill="#63b8ff" stroke="#63b8ff" points="429.14,-29.65 422.83,-21.14 422.45,-31.73 429.14,-29.65"/>
</a>
</g>
</g>
<!-- Node4 -->
<g id="Node000004" class="node">
<title>Node4</title>
<g id="a_Node000004"><a xlink:title=" ">
<polygon fill="#e0e0e0" stroke="#999999" points="78.84,-129.75 31.34,-129.75 31.34,-110.5 78.84,-110.5 78.84,-129.75"/>
<text xml:space="preserve" text-anchor="middle" x="55.09" y="-116.25" font-family="Helvetica,sans-Serif" font-size="10.00">stdlib.h</text>
</a>
</g>
</g>
<!-- Node1&#45;&gt;Node4 -->
<g id="edge3_Node000001_Node000004" class="edge">
<title>Node1&#45;&gt;Node4</title>
<g id="a_edge3_Node000001_Node000004"><a xlink:title=" ">
<path fill="none" stroke="#63b8ff" d="M328.43,-172.36C271.93,-163.86 179.36,-149.03 90.3,-130.07"/>
<polygon fill="#63b8ff" stroke="#63b8ff" points="91.17,-126.68 80.66,-128 89.7,-133.52 91.17,-126.68"/>
</a>
</g>
</g>
<!-- Node5 -->
<g id="Node000005" class="node">
<title>Node5</title>
<g id="a_Node000005"><a xlink:title=" ">
<polygon fill="#e0e0e0" stroke="#999999" points="145.21,-129.75 96.96,-129.75 96.96,-110.5 145.21,-110.5 145.21,-129.75"/>
<text xml:space="preserve" text-anchor="middle" x="121.09" y="-116.25" font-family="Helvetica,sans-Serif" font-size="10.00">string.h</text>
</a>
</g>
</g>
<!-- Node1&#45;&gt;Node5 -->
<g id="edge4_Node000001_Node000005" class="edge">
<title>Node1&#45;&gt;Node5</title>
<g id="a_edge4_Node000001_Node000005"><a xlink:title=" ">
<path fill="none" stroke="#63b8ff" d="M328.66,-168.98C285.09,-159.69 221.19,-145.77 156.75,-130.33"/>
<polygon fill="#63b8ff" stroke="#63b8ff" points="157.58,-126.93 147.04,-127.99 155.94,-133.73 157.58,-126.93"/>
</a>
</g>
</g>
<!-- Node6 -->
<g id="Node000006" class="node">
<title>Node6</title>
<g id="a_Node000006"><a xlink:href="../../de/d83/_e_l_p_h__timers_8h.html" target="_top" xlink:title=" ">
<polygon fill="white" stroke="#666666" points="286.71,-129.75 163.46,-129.75 163.46,-110.5 286.71,-110.5 286.71,-129.75"/>
<text xml:space="preserve" text-anchor="middle" x="225.09" y="-116.25" font-family="Helvetica,sans-Serif" font-size="10.00">common/ELPH_timers.h</text>
</a>
</g>
</g>
<!-- Node1&#45;&gt;Node6 -->
<g id="edge5_Node000001_Node000006" class="edge">
<title>Node1&#45;&gt;Node6</title>
<g id="a_edge5_Node000001_Node000006"><a xlink:title=" ">
<path fill="none" stroke="#63b8ff" d="M342.12,-165.3C316.77,-155.73 283.99,-143.36 259.58,-134.14"/>
<polygon fill="#63b8ff" stroke="#63b8ff" points="261.02,-130.94 250.43,-130.69 258.55,-137.49 261.02,-130.94"/>
</a>
</g>
</g>
<!-- Node7 -->
<g id="Node000007" class="node">
<title>Node7</title>
<g id="a_Node000007"><a xlink:href="../../d2/d6f/constants_8h.html" target="_top" xlink:title=" ">
<polygon fill="white" stroke="#666666" points="816.84,-74.5 709.34,-74.5 709.34,-55.25 816.84,-55.25 816.84,-74.5"/>
<text xml:space="preserve" text-anchor="middle" x="763.09" y="-61" font-family="Helvetica,sans-Serif" font-size="10.00">common/constants.h</text>
</a>
</g>
</g>
<!-- Node1&#45;&gt;Node7 -->
<g id="edge6_Node000001_Node000007" class="edge">
<title>Node1&#45;&gt;Node7</title>
<g id="a_edge6_Node000001_Node000007"><a xlink:title=" ">
<path fill="none" stroke="#63b8ff" d="M430.24,-165.31C506.37,-142.57 651.37,-99.25 722.16,-78.1"/>
<polygon fill="#63b8ff" stroke="#63b8ff" points="722.83,-81.55 731.41,-75.34 720.83,-74.85 722.83,-81.55"/>
</a>
</g>
</g>
<!-- Node8 -->
<g id="Node000008" class="node">
<title>Node8</title>
<g id="a_Node000008"><a xlink:href="../../d4/d0a/elph_c_8h.html" target="_top" xlink:title="Core type definitions and configuration for LetzElPhC.">
<polygon fill="white" stroke="#666666" points="650.96,-19.25 601.21,-19.25 601.21,0 650.96,0 650.96,-19.25"/>
<text xml:space="preserve" text-anchor="middle" x="626.09" y="-5.75" font-family="Helvetica,sans-Serif" font-size="10.00">elphC.h</text>
</a>
</g>
</g>
<!-- Node1&#45;&gt;Node8 -->
<g id="edge17_Node000001_Node000008" class="edge">
<title>Node1&#45;&gt;Node8</title>
<g id="a_edge17_Node000001_Node000008"><a xlink:title=" ">
<path fill="none" stroke="#63b8ff" d="M433.8,-175.52C540.87,-165.22 777.76,-135.87 826.09,-74.5 870,-18.73 731.38,-10.85 662.51,-10.27"/>
<polygon fill="#63b8ff" stroke="#63b8ff" points="662.83,-6.77 652.82,-10.24 662.81,-13.77 662.83,-6.77"/>
</a>
</g>
</g>
<!-- Node9 -->
<g id="Node000009" class="node">
<title>Node9</title>
<g id="a_Node000009"><a xlink:href="../../d2/d02/dtypes_8h.html" target="_top" xlink:title=" ">
<polygon fill="white" stroke="#666666" points="353.09,-74.5 259.09,-74.5 259.09,-55.25 353.09,-55.25 353.09,-74.5"/>
<text xml:space="preserve" text-anchor="middle" x="306.09" y="-61" font-family="Helvetica,sans-Serif" font-size="10.00">common/dtypes.h</text>
</a>
</g>
</g>
<!-- Node1&#45;&gt;Node9 -->
<g id="edge8_Node000001_Node000009" class="edge">
<title>Node1&#45;&gt;Node9</title>
<g id="a_edge8_Node000001_Node000009"><a xlink:title=" ">
<path fill="none" stroke="#63b8ff" d="M364.79,-165.32C354.99,-155.87 342.76,-142.92 334.09,-129.75 324.91,-115.82 317.5,-98.37 312.61,-85.24"/>
<polygon fill="#63b8ff" stroke="#63b8ff" points="315.99,-84.3 309.36,-76.04 309.39,-86.63 315.99,-84.3"/>
</a>
</g>
</g>
<!-- Node10 -->
<g id="Node000010" class="node">
<title>Node10</title>
<g id="a_Node000010"><a xlink:href="../../da/d41/error_8h.html" target="_top" xlink:title=" ">
<polygon fill="white" stroke="#666666" points="127.59,-19.25 84.59,-19.25 84.59,0 127.59,0 127.59,-19.25"/>
<text xml:space="preserve" text-anchor="middle" x="106.09" y="-5.75" font-family="Helvetica,sans-Serif" font-size="10.00">error.h</text>
</a>
</g>
</g>
<!-- Node1&#45;&gt;Node10 -->
<g id="edge13_Node000001_Node000010" class="edge">
<title>Node1&#45;&gt;Node10</title>
<g id="a_edge13_Node000001_Node000010"><a xlink:title=" ">
<path fill="none" stroke="#63b8ff" d="M328.45,-176.72C230.42,-170.06 27.92,-153.57 7.09,-129.75 -5.5,-115.36 -0.06,-80.15 19.09,-55.25 32.6,-37.67 54.98,-26.41 73.65,-19.6"/>
<polygon fill="#63b8ff" stroke="#63b8ff" points="74.59,-22.98 82.97,-16.48 72.37,-16.34 74.59,-22.98"/>
</a>
</g>
</g>
<!-- Node11 -->
<g id="Node000011" class="node">
<title>Node11</title>
<g id="a_Node000011"><a xlink:href="../../df/def/numerical__func_8h.html" target="_top" xlink:title=" ">
<polygon fill="white" stroke="#666666" points="691.46,-74.5 560.71,-74.5 560.71,-55.25 691.46,-55.25 691.46,-74.5"/>
<text xml:space="preserve" text-anchor="middle" x="626.09" y="-61" font-family="Helvetica,sans-Serif" font-size="10.00">common/numerical_func.h</text>
</a>
</g>
</g>
<!-- Node1&#45;&gt;Node11 -->
<g id="edge14_Node000001_Node000011" class="edge">
<title>Node1&#45;&gt;Node11</title>
<g id="a_edge14_Node000001_Node000011"><a xlink:title=" ">
<path fill="none" stroke="#63b8ff" d="M412.61,-165.31C460.23,-143.13 549.87,-101.38 596.39,-79.71"/>
<polygon fill="#63b8ff" stroke="#63b8ff" points="597.74,-82.94 605.33,-75.54 594.79,-76.59 597.74,-82.94"/>
</a>
</g>
</g>
<!-- Node12 -->
<g id="Node000012" class="node">
<title>Node12</title>
<g id="a_Node000012"><a xlink:href="../../dc/dec/symmetries_8h.html" target="_top" xlink:title=" ">
<polygon fill="white" stroke="#666666" points="418.71,-129.75 343.46,-129.75 343.46,-110.5 418.71,-110.5 418.71,-129.75"/>
<text xml:space="preserve" text-anchor="middle" x="381.09" y="-116.25" font-family="Helvetica,sans-Serif" font-size="10.00">symmetries.h</text>
</a>
</g>
</g>
<!-- Node1&#45;&gt;Node12 -->
<g id="edge18_Node000001_Node000012" class="edge">
<title>Node1&#45;&gt;Node12</title>
<g id="a_edge18_Node000001_Node000012"><a xlink:title=" ">
<path fill="none" stroke="#63b8ff" d="M381.09,-165.45C381.09,-158.21 381.09,-149.34 381.09,-141.44"/>
<polygon fill="#63b8ff" stroke="#63b8ff" points="384.59,-141.71 381.09,-131.71 377.59,-141.71 384.59,-141.71"/>
</a>
</g>
</g>
<!-- Node13 -->
<g id="Node000013" class="node">
<title>Node13</title>
<g id="a_Node000013"><a xlink:href="../../dc/d7d/gsort_8h.html" target="_top" xlink:title=" ">
<polygon fill="white" stroke="#666666" points="937.46,-74.5 872.71,-74.5 872.71,-55.25 937.46,-55.25 937.46,-74.5"/>
<text xml:space="preserve" text-anchor="middle" x="905.09" y="-61" font-family="Helvetica,sans-Serif" font-size="10.00">wfc/gsort.h</text>
</a>
</g>
</g>
<!-- Node1&#45;&gt;Node13 -->
<g id="edge22_Node000001_Node000013" class="edge">
<title>Node1&#45;&gt;Node13</title>
<g id="a_edge22_Node000001_Node000013"><a xlink:title=" ">
<path fill="none" stroke="#63b8ff" d="M433.81,-179.8C542.63,-178.54 787.9,-171.05 859.09,-129.75 876.61,-119.59 889.26,-99.78 896.81,-84.9"/>
<polygon fill="#63b8ff" stroke="#63b8ff" points="899.86,-86.64 900.94,-76.1 893.52,-83.67 899.86,-86.64"/>
</a>
</g>
</g>
<!-- Node14 -->
<g id="Node000014" class="node">
<title>Node14</title>
<g id="a_Node000014"><a xlink:href="../../d1/dea/wfc_8h.html" target="_top" xlink:title=" ">
<polygon fill="white" stroke="#666666" points="505.46,-74.5 446.71,-74.5 446.71,-55.25 505.46,-55.25 505.46,-74.5"/>
<text xml:space="preserve" text-anchor="middle" x="476.09" y="-61" font-family="Helvetica,sans-Serif" font-size="10.00">wfc/wfc.h</text>
</a>
</g>
</g>
<!-- Node1&#45;&gt;Node14 -->
<g id="edge24_Node000001_Node000014" class="edge">
<title>Node1&#45;&gt;Node14</title>
<g id="a_edge24_Node000001_Node000014"><a xlink:title=" ">
<path fill="none" stroke="#63b8ff" d="M416.36,-165.45C432.26,-157.2 449.93,-145.36 461.09,-129.75 470.22,-116.97 473.86,-99.42 475.28,-85.95"/>
<polygon fill="#63b8ff" stroke="#63b8ff" points="478.77,-86.3 475.97,-76.08 471.79,-85.82 478.77,-86.3"/>
</a>
</g>
</g>
<!-- Node7&#45;&gt;Node8 -->
<g id="edge7_Node000007_Node000008" class="edge">
<title>Node7&#45;&gt;Node8</title>
<g id="a_edge7_Node000007_Node000008"><a xlink:title=" ">
<path fill="none" stroke="#63b8ff" d="M739.85,-54.84C717.9,-46.31 684.74,-33.42 659.87,-23.76"/>
<polygon fill="#63b8ff" stroke="#63b8ff" points="661.44,-20.61 650.85,-20.25 658.9,-27.14 661.44,-20.61"/>
</a>
</g>
</g>
<!-- Node9&#45;&gt;Node2 -->
<g id="edge9_Node000009_Node000002" class="edge">
<title>Node9&#45;&gt;Node2</title>
<g id="a_edge9_Node000009_Node000002"><a xlink:title=" ">
<path fill="none" stroke="#63b8ff" d="M306.09,-55.08C306.09,-48.57 306.09,-39.42 306.09,-31.12"/>
<polygon fill="#63b8ff" stroke="#63b8ff" points="309.59,-31.12 306.09,-21.12 302.59,-31.12 309.59,-31.12"/>
</a>
</g>
</g>
<!-- Node9&#45;&gt;Node3 -->
<g id="edge10_Node000009_Node000003" class="edge">
<title>Node9&#45;&gt;Node3</title>
<g id="a_edge10_Node000009_Node000003"><a xlink:title=" ">
<path fill="none" stroke="#63b8ff" d="M325.25,-54.84C342.87,-46.54 369.24,-34.11 389.55,-24.54"/>
<polygon fill="#63b8ff" stroke="#63b8ff" points="390.9,-27.78 398.45,-20.35 387.92,-21.44 390.9,-27.78"/>
</a>
</g>
</g>
<!-- Node9&#45;&gt;Node8 -->
<g id="edge11_Node000009_Node000008" class="edge">
<title>Node9&#45;&gt;Node8</title>
<g id="a_edge11_Node000009_Node000008"><a xlink:title=" ">
<path fill="none" stroke="#63b8ff" d="M353.3,-56.02C417.71,-45.3 531.73,-26.33 589.85,-16.66"/>
<polygon fill="#63b8ff" stroke="#63b8ff" points="590.24,-20.14 599.53,-15.04 589.09,-13.23 590.24,-20.14"/>
</a>
</g>
</g>
<!-- Node9&#45;&gt;Node10 -->
<g id="edge12_Node000009_Node000010" class="edge">
<title>Node9&#45;&gt;Node10</title>
<g id="a_edge12_Node000009_Node000010"><a xlink:title=" ">
<path fill="none" stroke="#63b8ff" d="M272.16,-54.84C234.95,-44.94 175.65,-29.15 138.89,-19.36"/>
<polygon fill="#63b8ff" stroke="#63b8ff" points="139.83,-15.99 129.27,-16.8 138.03,-22.75 139.83,-15.99"/>
</a>
</g>
</g>
<!-- Node11&#45;&gt;Node3 -->
<g id="edge15_Node000011_Node000003" class="edge">
<title>Node11&#45;&gt;Node3</title>
<g id="a_edge15_Node000011_Node000003"><a xlink:title=" ">
<path fill="none" stroke="#63b8ff" d="M590.97,-54.84C554.12,-45.36 496.34,-30.5 458.09,-20.66"/>
<polygon fill="#63b8ff" stroke="#63b8ff" points="459.4,-17.38 448.84,-18.28 457.65,-24.16 459.4,-17.38"/>
</a>
</g>
</g>
<!-- Node11&#45;&gt;Node8 -->
<g id="edge16_Node000011_Node000008" class="edge">
<title>Node11&#45;&gt;Node8</title>
<g id="a_edge16_Node000011_Node000008"><a xlink:title=" ">
<path fill="none" stroke="#63b8ff" d="M626.09,-55.08C626.09,-48.57 626.09,-39.42 626.09,-31.12"/>
<polygon fill="#63b8ff" stroke="#63b8ff" points="629.59,-31.12 626.09,-21.12 622.59,-31.12 629.59,-31.12"/>
</a>
</g>
</g>
<!-- Node12&#45;&gt;Node3 -->
<g id="edge19_Node000012_Node000003" class="edge">
<title>Node12&#45;&gt;Node3</title>
<g id="a_edge19_Node000012_Node000003"><a xlink:title=" ">
<path fill="none" stroke="#63b8ff" d="M384.2,-110.25C390.26,-92.92 403.81,-54.23 412.13,-30.49"/>
<polygon fill="#63b8ff" stroke="#63b8ff" points="415.43,-31.65 415.43,-21.06 408.82,-29.34 415.43,-31.65"/>
</a>
</g>
</g>
<!-- Node12&#45;&gt;Node8 -->
<g id="edge21_Node000012_Node000008" class="edge">
<title>Node12&#45;&gt;Node8</title>
<g id="a_edge21_Node000012_Node000008"><a xlink:title=" ">
<path fill="none" stroke="#63b8ff" d="M414.01,-110.03C441.34,-102.01 480.97,-89.33 514.09,-74.5 531.21,-66.83 573.91,-41.83 601.36,-25.47"/>
<polygon fill="#63b8ff" stroke="#63b8ff" points="602.97,-28.59 609.75,-20.46 599.38,-22.59 602.97,-28.59"/>
</a>
</g>
</g>
<!-- Node12&#45;&gt;Node9 -->
<g id="edge20_Node000012_Node000009" class="edge">
<title>Node12&#45;&gt;Node9</title>
<g id="a_edge20_Node000012_Node000009"><a xlink:title=" ">
<path fill="none" stroke="#63b8ff" d="M368.36,-110.09C357.37,-102.29 341.24,-90.84 328.15,-81.54"/>
<polygon fill="#63b8ff" stroke="#63b8ff" points="330.29,-78.76 320.11,-75.83 326.23,-84.47 330.29,-78.76"/>
</a>
</g>
</g>
<!-- Node13&#45;&gt;Node8 -->
<g id="edge23_Node000013_Node000008" class="edge">
<title>Node13&#45;&gt;Node8</title>
<g id="a_edge23_Node000013_Node000008"><a xlink:title=" ">
<path fill="none" stroke="#63b8ff" d="M872.26,-57.61C819.79,-47.6 717.37,-28.05 662.64,-17.6"/>
<polygon fill="#63b8ff" stroke="#63b8ff" points="663.36,-14.18 652.88,-15.74 662.05,-21.05 663.36,-14.18"/>
</a>
</g>
</g>
<!-- Node14&#45;&gt;Node2 -->
<g id="edge25_Node000014_Node000002" class="edge">
<title>Node14&#45;&gt;Node2</title>
<g id="a_edge25_Node000014_Node000002"><a xlink:title=" ">
<path fill="none" stroke="#63b8ff" d="M447.25,-54.84C416.71,-45.28 368.66,-30.22 337.26,-20.39"/>
<polygon fill="#63b8ff" stroke="#63b8ff" points="338.54,-17.12 327.95,-17.47 336.45,-23.8 338.54,-17.12"/>
</a>
</g>
</g>
<!-- Node14&#45;&gt;Node3 -->
<g id="edge26_Node000014_Node000003" class="edge">
<title>Node14&#45;&gt;Node3</title>
<g id="a_edge26_Node000014_Node000003"><a xlink:title=" ">
<path fill="none" stroke="#63b8ff" d="M466.42,-54.84C458.34,-47.3 446.62,-36.35 436.86,-27.23"/>
<polygon fill="#63b8ff" stroke="#63b8ff" points="439.42,-24.83 429.72,-20.56 434.64,-29.94 439.42,-24.83"/>
</a>
</g>
</g>
<!-- Node14&#45;&gt;Node8 -->
<g id="edge27_Node000014_Node000008" class="edge">
<title>Node14&#45;&gt;Node8</title>
<g id="a_edge27_Node000014_Node000008"><a xlink:title=" ">
<path fill="none" stroke="#63b8ff" d="M501.53,-54.84C525.85,-46.21 562.74,-33.11 590.07,-23.41"/>
<polygon fill="#63b8ff" stroke="#63b8ff" points="591.09,-26.76 599.34,-20.12 588.75,-20.17 591.09,-26.76"/>
</a>
</g>
</g>
</g>
</svg>
