<?xml version="1.0" encoding="UTF-8" standalone="no"?>
<!DOCTYPE svg PUBLIC "-//W3C//DTD SVG 1.1//EN"
 "http://www.w3.org/Graphics/SVG/1.1/DTD/svg11.dtd">
<!-- Generated by graphviz version 14.0.0 (20250921.2048)
 -->
<!-- Title: dVscf_change_basis Pages: 1 -->
<svg width="345pt" height="27pt"
 viewBox="0.00 0.00 345.00 27.00" xmlns="http://www.w3.org/2000/svg" xmlns:xlink="http://www.w3.org/1999/xlink">
<g id="graph0" class="graph" transform="scale(1 1) rotate(0) translate(4 23.25)">
<title>dVscf_change_basis</title>
<!-- Node1 -->
<g id="Node000001" class="node">
<title>Node1</title>
<g id="a_Node000001"><a xlink:title=" ">
<polygon fill="#999999" stroke="#666666" points="106.75,-19.25 0,-19.25 0,0 106.75,0 106.75,-19.25"/>
<text xml:space="preserve" text-anchor="middle" x="53.38" y="-5.75" font-family="Helvetica,sans-Serif" font-size="10.00">dVscf_change_basis</text>
</a>
</g>
</g>
<!-- Node2 -->
<g id="Node000002" class="node">
<title>Node2</title>
<g id="a_Node000002"><a xlink:href="../../dc/d50/blas_8c.html#a93d327b9e3c8bd925ff76d32df39809c" target="_top" xlink:title=" ">
<polygon fill="white" stroke="#666666" points="222.5,-19.25 142.75,-19.25 142.75,0 222.5,0 222.5,-19.25"/>
<text xml:space="preserve" text-anchor="middle" x="182.62" y="-5.75" font-family="Helvetica,sans-Serif" font-size="10.00">matmul_cmplx</text>
</a>
</g>
</g>
<!-- Node1&#45;&gt;Node2 -->
<g id="edge1_Node000001_Node000002" class="edge">
<title>Node1&#45;&gt;Node2</title>
<g id="a_edge1_Node000001_Node000002"><a xlink:title=" ">
<path fill="none" stroke="#63b8ff" d="M107.23,-9.62C115.03,-9.62 123.06,-9.62 130.81,-9.62"/>
<polygon fill="#63b8ff" stroke="#63b8ff" points="130.8,-13.13 140.8,-9.63 130.8,-6.13 130.8,-13.13"/>
</a>
</g>
</g>
<!-- Node3 -->
<g id="Node000003" class="node">
<title>Node3</title>
<g id="a_Node000003"><a xlink:href="../../dc/d50/blas_8c.html#a913bafabc05e83b2aeed88da231a461f" target="_top" xlink:title=" ">
<polygon fill="white" stroke="#666666" points="336.75,-19.25 258.5,-19.25 258.5,0 336.75,0 336.75,-19.25"/>
<text xml:space="preserve" text-anchor="middle" x="297.62" y="-5.75" font-family="Helvetica,sans-Serif" font-size="10.00">get_gemmn_T</text>
</a>
</g>
</g>
<!-- Node2&#45;&gt;Node3 -->
<g id="edge2_Node000002_Node000003" class="edge">
<title>Node2&#45;&gt;Node3</title>
<g id="a_edge2_Node000002_Node000003"><a xlink:title=" ">
<path fill="none" stroke="#63b8ff" d="M222.83,-9.62C230.63,-9.62 238.91,-9.62 247.01,-9.62"/>
<polygon fill="#63b8ff" stroke="#63b8ff" points="246.74,-13.13 256.74,-9.63 246.74,-6.13 246.74,-13.13"/>
</a>
</g>
</g>
</g>
</svg>
