<?xml version="1.0" encoding="UTF-8" standalone="no"?>
<!DOCTYPE svg PUBLIC "-//W3C//DTD SVG 1.1//EN"
 "http://www.w3.org/Graphics/SVG/1.1/DTD/svg11.dtd">
<!-- Generated by graphviz version 14.0.0 (20250921.2048)
 -->
<!-- Title: src/dvloc/dVlong_range_kernel.c Pages: 1 -->
<svg width="691pt" height="204pt"
 viewBox="0.00 0.00 691.00 204.00" xmlns="http://www.w3.org/2000/svg" xmlns:xlink="http://www.w3.org/1999/xlink">
<g id="graph0" class="graph" transform="scale(1 1) rotate(0) translate(4 200.25)">
<title>src/dvloc/dVlong_range_kernel.c</title>
<!-- Node1 -->
<g id="Node000001" class="node">
<title>Node1</title>
<g id="a_Node000001"><a xlink:title=" ">
<polygon fill="#999999" stroke="#666666" points="335.5,-196.25 217.5,-196.25 217.5,-165.75 335.5,-165.75 335.5,-196.25"/>
<text xml:space="preserve" text-anchor="start" x="225.5" y="-182.75" font-family="Helvetica,sans-Serif" font-size="10.00">src/dvloc/dVlong_range</text>
<text xml:space="preserve" text-anchor="middle" x="276.5" y="-171.5" font-family="Helvetica,sans-Serif" font-size="10.00">_kernel.c</text>
</a>
</g>
</g>
<!-- Node2 -->
<g id="Node000002" class="node">
<title>Node2</title>
<g id="a_Node000002"><a xlink:title=" ">
<polygon fill="#e0e0e0" stroke="#999999" points="61,-129.75 0,-129.75 0,-110.5 61,-110.5 61,-129.75"/>
<text xml:space="preserve" text-anchor="middle" x="30.5" y="-116.25" font-family="Helvetica,sans-Serif" font-size="10.00">complex.h</text>
</a>
</g>
</g>
<!-- Node1&#45;&gt;Node2 -->
<g id="edge1_Node000001_Node000002" class="edge">
<title>Node1&#45;&gt;Node2</title>
<g id="a_edge1_Node000001_Node000002"><a xlink:title=" ">
<path fill="none" stroke="#63b8ff" d="M217.26,-165.82C172.62,-155.14 112.49,-140.75 72.66,-131.22"/>
<polygon fill="#63b8ff" stroke="#63b8ff" points="73.5,-127.82 62.96,-128.89 71.87,-134.63 73.5,-127.82"/>
</a>
</g>
</g>
<!-- Node3 -->
<g id="Node000003" class="node">
<title>Node3</title>
<g id="a_Node000003"><a xlink:title=" ">
<polygon fill="#e0e0e0" stroke="#999999" points="125.5,-129.75 79.5,-129.75 79.5,-110.5 125.5,-110.5 125.5,-129.75"/>
<text xml:space="preserve" text-anchor="middle" x="102.5" y="-116.25" font-family="Helvetica,sans-Serif" font-size="10.00">math.h</text>
</a>
</g>
</g>
<!-- Node1&#45;&gt;Node3 -->
<g id="edge2_Node000001_Node000003" class="edge">
<title>Node1&#45;&gt;Node3</title>
<g id="a_edge2_Node000001_Node000003"><a xlink:title=" ">
<path fill="none" stroke="#63b8ff" d="M233.04,-165.3C203.14,-155.18 163.99,-141.93 136.39,-132.59"/>
<polygon fill="#63b8ff" stroke="#63b8ff" points="137.72,-129.35 127.13,-129.46 135.48,-135.98 137.72,-129.35"/>
</a>
</g>
</g>
<!-- Node4 -->
<g id="Node000004" class="node">
<title>Node4</title>
<g id="a_Node000004"><a xlink:title=" ">
<polygon fill="#e0e0e0" stroke="#999999" points="191.62,-129.75 143.38,-129.75 143.38,-110.5 191.62,-110.5 191.62,-129.75"/>
<text xml:space="preserve" text-anchor="middle" x="167.5" y="-116.25" font-family="Helvetica,sans-Serif" font-size="10.00">string.h</text>
</a>
</g>
</g>
<!-- Node1&#45;&gt;Node4 -->
<g id="edge3_Node000001_Node000004" class="edge">
<title>Node1&#45;&gt;Node4</title>
<g id="a_edge3_Node000001_Node000004"><a xlink:title=" ">
<path fill="none" stroke="#63b8ff" d="M249.28,-165.3C232.36,-156.16 210.71,-144.47 193.94,-135.41"/>
<polygon fill="#63b8ff" stroke="#63b8ff" points="196.01,-132.55 185.55,-130.87 192.68,-138.71 196.01,-132.55"/>
</a>
</g>
</g>
<!-- Node5 -->
<g id="Node000005" class="node">
<title>Node5</title>
<g id="a_Node000005"><a xlink:href="../../d2/d6f/constants_8h.html" target="_top" xlink:title=" ">
<polygon fill="white" stroke="#666666" points="267.25,-74.5 159.75,-74.5 159.75,-55.25 267.25,-55.25 267.25,-74.5"/>
<text xml:space="preserve" text-anchor="middle" x="213.5" y="-61" font-family="Helvetica,sans-Serif" font-size="10.00">common/constants.h</text>
</a>
</g>
</g>
<!-- Node1&#45;&gt;Node5 -->
<g id="edge4_Node000001_Node000005" class="edge">
<title>Node1&#45;&gt;Node5</title>
<g id="a_edge4_Node000001_Node000005"><a xlink:title=" ">
<path fill="none" stroke="#63b8ff" d="M268.52,-165.55C257.2,-145.03 236.45,-107.45 223.92,-84.75"/>
<polygon fill="#63b8ff" stroke="#63b8ff" points="227.14,-83.34 219.24,-76.27 221.01,-86.72 227.14,-83.34"/>
</a>
</g>
</g>
<!-- Node6 -->
<g id="Node000006" class="node">
<title>Node6</title>
<g id="a_Node000006"><a xlink:href="../../d4/d0a/elph_c_8h.html" target="_top" xlink:title="Core type definitions and configuration for LetzElPhC.">
<polygon fill="white" stroke="#666666" points="367.38,-19.25 317.62,-19.25 317.62,0 367.38,0 367.38,-19.25"/>
<text xml:space="preserve" text-anchor="middle" x="342.5" y="-5.75" font-family="Helvetica,sans-Serif" font-size="10.00">elphC.h</text>
</a>
</g>
</g>
<!-- Node1&#45;&gt;Node6 -->
<g id="edge21_Node000001_Node000006" class="edge">
<title>Node1&#45;&gt;Node6</title>
<g id="a_edge21_Node000001_Node000006"><a xlink:title=" ">
<path fill="none" stroke="#63b8ff" d="M279.64,-165.33C285.01,-141.54 297.11,-93.36 314.5,-55.25 318.67,-46.11 324.42,-36.59 329.62,-28.71"/>
<polygon fill="#63b8ff" stroke="#63b8ff" points="332.34,-30.93 335.11,-20.71 326.57,-26.97 332.34,-30.93"/>
</a>
</g>
</g>
<!-- Node7 -->
<g id="Node000007" class="node">
<title>Node7</title>
<g id="a_Node000007"><a xlink:href="../../d2/d02/dtypes_8h.html" target="_top" xlink:title=" ">
<polygon fill="white" stroke="#666666" points="641.5,-74.5 547.5,-74.5 547.5,-55.25 641.5,-55.25 641.5,-74.5"/>
<text xml:space="preserve" text-anchor="middle" x="594.5" y="-61" font-family="Helvetica,sans-Serif" font-size="10.00">common/dtypes.h</text>
</a>
</g>
</g>
<!-- Node1&#45;&gt;Node7 -->
<g id="edge6_Node000001_Node000007" class="edge">
<title>Node1&#45;&gt;Node7</title>
<g id="a_edge6_Node000001_Node000007"><a xlink:title=" ">
<path fill="none" stroke="#63b8ff" d="M335.95,-177.78C389.36,-173.62 468.53,-161.98 529.5,-129.75 550.61,-118.59 569.42,-98.38 581.31,-83.68"/>
<polygon fill="#63b8ff" stroke="#63b8ff" points="583.78,-86.2 587.15,-76.16 578.25,-81.91 583.78,-86.2"/>
</a>
</g>
</g>
<!-- Node10 -->
<g id="Node000010" class="node">
<title>Node10</title>
<g id="a_Node000010"><a xlink:href="../../da/d41/error_8h.html" target="_top" xlink:title=" ">
<polygon fill="white" stroke="#666666" points="683,-19.25 640,-19.25 640,0 683,0 683,-19.25"/>
<text xml:space="preserve" text-anchor="middle" x="661.5" y="-5.75" font-family="Helvetica,sans-Serif" font-size="10.00">error.h</text>
</a>
</g>
</g>
<!-- Node1&#45;&gt;Node10 -->
<g id="edge11_Node000001_Node000010" class="edge">
<title>Node1&#45;&gt;Node10</title>
<g id="a_edge11_Node000001_Node000010"><a xlink:title=" ">
<path fill="none" stroke="#63b8ff" d="M335.74,-175.48C393.53,-169.67 483.2,-156.88 556.5,-129.75 601.95,-112.93 622.94,-114.36 650.5,-74.5 659.33,-61.73 661.84,-44.18 662.27,-30.71"/>
<polygon fill="#63b8ff" stroke="#63b8ff" points="665.77,-30.82 662.2,-20.84 658.77,-30.87 665.77,-30.82"/>
</a>
</g>
</g>
<!-- Node11 -->
<g id="Node000011" class="node">
<title>Node11</title>
<g id="a_Node000011"><a xlink:href="../../df/def/numerical__func_8h.html" target="_top" xlink:title=" ">
<polygon fill="white" stroke="#666666" points="453.88,-74.5 323.12,-74.5 323.12,-55.25 453.88,-55.25 453.88,-74.5"/>
<text xml:space="preserve" text-anchor="middle" x="388.5" y="-61" font-family="Helvetica,sans-Serif" font-size="10.00">common/numerical_func.h</text>
</a>
</g>
</g>
<!-- Node1&#45;&gt;Node11 -->
<g id="edge12_Node000001_Node000011" class="edge">
<title>Node1&#45;&gt;Node11</title>
<g id="a_edge12_Node000001_Node000011"><a xlink:title=" ">
<path fill="none" stroke="#63b8ff" d="M290.68,-165.55C311.37,-144.47 349.73,-105.38 371.76,-82.93"/>
<polygon fill="#63b8ff" stroke="#63b8ff" points="374.03,-85.62 378.54,-76.03 369.03,-80.71 374.03,-85.62"/>
</a>
</g>
</g>
<!-- Node12 -->
<g id="Node000012" class="node">
<title>Node12</title>
<g id="a_Node000012"><a xlink:href="../../d2/d8d/omp__pragma__def_8h.html" target="_top" xlink:title=" ">
<polygon fill="white" stroke="#666666" points="141.38,-74.5 1.62,-74.5 1.62,-55.25 141.38,-55.25 141.38,-74.5"/>
<text xml:space="preserve" text-anchor="middle" x="71.5" y="-61" font-family="Helvetica,sans-Serif" font-size="10.00">common/omp_pragma_def.h</text>
</a>
</g>
</g>
<!-- Node1&#45;&gt;Node12 -->
<g id="edge15_Node000001_Node000012" class="edge">
<title>Node1&#45;&gt;Node12</title>
<g id="a_edge15_Node000001_Node000012"><a xlink:title=" ">
<path fill="none" stroke="#63b8ff" d="M263.87,-165.33C249.8,-149.8 225.7,-125.5 200.5,-110.5 176.22,-96.05 146.57,-85.38 121.82,-78.1"/>
<polygon fill="#63b8ff" stroke="#63b8ff" points="122.87,-74.76 112.29,-75.41 120.96,-81.49 122.87,-74.76"/>
</a>
</g>
</g>
<!-- Node13 -->
<g id="Node000013" class="node">
<title>Node13</title>
<g id="a_Node000013"><a xlink:href="../../d8/dc9/dvloc_8h.html" target="_top" xlink:title=" ">
<polygon fill="white" stroke="#666666" points="520.25,-129.75 472.75,-129.75 472.75,-110.5 520.25,-110.5 520.25,-129.75"/>
<text xml:space="preserve" text-anchor="middle" x="496.5" y="-116.25" font-family="Helvetica,sans-Serif" font-size="10.00">dvloc.h</text>
</a>
</g>
</g>
<!-- Node1&#45;&gt;Node13 -->
<g id="edge17_Node000001_Node000013" class="edge">
<title>Node1&#45;&gt;Node13</title>
<g id="a_edge17_Node000001_Node000013"><a xlink:title=" ">
<path fill="none" stroke="#63b8ff" d="M331.45,-165.3C372.15,-154.4 426.41,-139.88 461.41,-130.52"/>
<polygon fill="#63b8ff" stroke="#63b8ff" points="462.27,-133.91 471.03,-127.94 460.46,-127.15 462.27,-133.91"/>
</a>
</g>
</g>
<!-- Node5&#45;&gt;Node6 -->
<g id="edge5_Node000005_Node000006" class="edge">
<title>Node5&#45;&gt;Node6</title>
<g id="a_edge5_Node000005_Node000006"><a xlink:title=" ">
<path fill="none" stroke="#63b8ff" d="M235.38,-54.84C255.86,-46.39 286.71,-33.65 310.06,-24.02"/>
<polygon fill="#63b8ff" stroke="#63b8ff" points="311.2,-27.33 319.11,-20.28 308.53,-20.86 311.2,-27.33"/>
</a>
</g>
</g>
<!-- Node7&#45;&gt;Node6 -->
<g id="edge9_Node000007_Node000006" class="edge">
<title>Node7&#45;&gt;Node6</title>
<g id="a_edge9_Node000007_Node000006"><a xlink:title=" ">
<path fill="none" stroke="#63b8ff" d="M551.47,-54.78C502.84,-44.51 424.55,-27.96 378.86,-18.31"/>
<polygon fill="#63b8ff" stroke="#63b8ff" points="379.7,-14.91 369.19,-16.27 378.25,-21.76 379.7,-14.91"/>
</a>
</g>
</g>
<!-- Node8 -->
<g id="Node000008" class="node">
<title>Node8</title>
<g id="a_Node000008"><a xlink:title=" ">
<polygon fill="#e0e0e0" stroke="#999999" points="614.5,-19.25 574.5,-19.25 574.5,0 614.5,0 614.5,-19.25"/>
<text xml:space="preserve" text-anchor="middle" x="594.5" y="-5.75" font-family="Helvetica,sans-Serif" font-size="10.00">mpi.h</text>
</a>
</g>
</g>
<!-- Node7&#45;&gt;Node8 -->
<g id="edge7_Node000007_Node000008" class="edge">
<title>Node7&#45;&gt;Node8</title>
<g id="a_edge7_Node000007_Node000008"><a xlink:title=" ">
<path fill="none" stroke="#63b8ff" d="M594.5,-55.08C594.5,-48.57 594.5,-39.42 594.5,-31.12"/>
<polygon fill="#63b8ff" stroke="#63b8ff" points="598,-31.12 594.5,-21.12 591,-31.12 598,-31.12"/>
</a>
</g>
</g>
<!-- Node9 -->
<g id="Node000009" class="node">
<title>Node9</title>
<g id="a_Node000009"><a xlink:title=" ">
<polygon fill="#e0e0e0" stroke="#999999" points="547.38,-19.25 491.62,-19.25 491.62,0 547.38,0 547.38,-19.25"/>
<text xml:space="preserve" text-anchor="middle" x="519.5" y="-5.75" font-family="Helvetica,sans-Serif" font-size="10.00">stdbool.h</text>
</a>
</g>
</g>
<!-- Node7&#45;&gt;Node9 -->
<g id="edge8_Node000007_Node000009" class="edge">
<title>Node7&#45;&gt;Node9</title>
<g id="a_edge8_Node000007_Node000009"><a xlink:title=" ">
<path fill="none" stroke="#63b8ff" d="M581.78,-54.84C570.79,-47.04 554.66,-35.59 541.57,-26.29"/>
<polygon fill="#63b8ff" stroke="#63b8ff" points="543.7,-23.51 533.52,-20.58 539.65,-29.22 543.7,-23.51"/>
</a>
</g>
</g>
<!-- Node7&#45;&gt;Node10 -->
<g id="edge10_Node000007_Node000010" class="edge">
<title>Node7&#45;&gt;Node10</title>
<g id="a_edge10_Node000007_Node000010"><a xlink:title=" ">
<path fill="none" stroke="#63b8ff" d="M605.87,-54.84C615.55,-47.15 629.7,-35.9 641.31,-26.68"/>
<polygon fill="#63b8ff" stroke="#63b8ff" points="643.47,-29.43 649.12,-20.47 639.11,-23.95 643.47,-29.43"/>
</a>
</g>
</g>
<!-- Node11&#45;&gt;Node6 -->
<g id="edge14_Node000011_Node000006" class="edge">
<title>Node11&#45;&gt;Node6</title>
<g id="a_edge14_Node000011_Node000006"><a xlink:title=" ">
<path fill="none" stroke="#63b8ff" d="M380.9,-55.08C374.62,-47.8 365.49,-37.23 357.7,-28.23"/>
<polygon fill="#63b8ff" stroke="#63b8ff" points="360.44,-26.03 351.25,-20.75 355.14,-30.61 360.44,-26.03"/>
</a>
</g>
</g>
<!-- Node11&#45;&gt;Node9 -->
<g id="edge13_Node000011_Node000009" class="edge">
<title>Node11&#45;&gt;Node9</title>
<g id="a_edge13_Node000011_Node000009"><a xlink:title=" ">
<path fill="none" stroke="#63b8ff" d="M410.72,-54.84C431.52,-46.39 462.85,-33.65 486.55,-24.02"/>
<polygon fill="#63b8ff" stroke="#63b8ff" points="487.82,-27.28 495.77,-20.27 485.18,-20.8 487.82,-27.28"/>
</a>
</g>
</g>
<!-- Node12&#45;&gt;Node6 -->
<g id="edge16_Node000012_Node000006" class="edge">
<title>Node12&#45;&gt;Node6</title>
<g id="a_edge16_Node000012_Node000006"><a xlink:title=" ">
<path fill="none" stroke="#63b8ff" d="M117.78,-54.78C170.99,-44.33 257.24,-27.38 305.96,-17.8"/>
<polygon fill="#63b8ff" stroke="#63b8ff" points="306.58,-21.25 315.72,-15.89 305.23,-14.38 306.58,-21.25"/>
</a>
</g>
</g>
<!-- Node13&#45;&gt;Node6 -->
<g id="edge20_Node000013_Node000006" class="edge">
<title>Node13&#45;&gt;Node6</title>
<g id="a_edge20_Node000013_Node000006"><a xlink:title=" ">
<path fill="none" stroke="#63b8ff" d="M494.07,-110.42C489.85,-96.81 479.9,-70.47 462.5,-55.25 438.86,-34.56 404.74,-23.11 378.92,-17.01"/>
<polygon fill="#63b8ff" stroke="#63b8ff" points="379.7,-13.6 369.19,-14.89 378.21,-20.44 379.7,-13.6"/>
</a>
</g>
</g>
<!-- Node13&#45;&gt;Node7 -->
<g id="edge19_Node000013_Node000007" class="edge">
<title>Node13&#45;&gt;Node7</title>
<g id="a_edge19_Node000013_Node000007"><a xlink:title=" ">
<path fill="none" stroke="#63b8ff" d="M513.12,-110.09C528.19,-101.91 550.64,-89.71 568.15,-80.19"/>
<polygon fill="#63b8ff" stroke="#63b8ff" points="569.35,-83.52 576.46,-75.68 566.01,-77.37 569.35,-83.52"/>
</a>
</g>
</g>
<!-- Node13&#45;&gt;Node9 -->
<g id="edge18_Node000013_Node000009" class="edge">
<title>Node13&#45;&gt;Node9</title>
<g id="a_edge18_Node000013_Node000009"><a xlink:title=" ">
<path fill="none" stroke="#63b8ff" d="M498.38,-110.25C502.04,-93 510.18,-54.58 515.22,-30.81"/>
<polygon fill="#63b8ff" stroke="#63b8ff" points="518.63,-31.62 517.28,-21.11 511.78,-30.16 518.63,-31.62"/>
</a>
</g>
</g>
</g>
</svg>
