<?xml version="1.0" encoding="UTF-8" standalone="no"?>
<!DOCTYPE svg PUBLIC "-//W3C//DTD SVG 1.1//EN"
 "http://www.w3.org/Graphics/SVG/1.1/DTD/svg11.dtd">
<!-- Generated by graphviz version 14.0.0 (20250921.2048)
 -->
<!-- Title: find_nqpools Pages: 1 -->
<svg width="289pt" height="39pt"
 viewBox="0.00 0.00 289.00 39.00" xmlns="http://www.w3.org/2000/svg" xmlns:xlink="http://www.w3.org/1999/xlink">
<g id="graph0" class="graph" transform="scale(1 1) rotate(0) translate(4 34.5)">
<title>find_nqpools</title>
<!-- Node1 -->
<g id="Node000001" class="node">
<title>Node1</title>
<g id="a_Node000001"><a xlink:title=" ">
<polygon fill="#999999" stroke="#666666" points="280.5,-24.88 209.75,-24.88 209.75,-5.63 280.5,-5.63 280.5,-24.88"/>
<text xml:space="preserve" text-anchor="middle" x="245.12" y="-11.38" font-family="Helvetica,sans-Serif" font-size="10.00">find_nqpools</text>
</a>
</g>
</g>
<!-- Node2 -->
<g id="Node000002" class="node">
<title>Node2</title>
<g id="a_Node000002"><a xlink:href="../../d5/d0a/pp__ph__save_8c.html#ae34b6c1d13daf4f125bf37b51efdc457" target="_top" xlink:title=" ">
<polygon fill="white" stroke="#666666" points="173.75,-30.5 73,-30.5 73,0 173.75,0 173.75,-30.5"/>
<text xml:space="preserve" text-anchor="start" x="81" y="-17" font-family="Helvetica,sans-Serif" font-size="10.00">create_ph_save_dir</text>
<text xml:space="preserve" text-anchor="middle" x="123.38" y="-5.75" font-family="Helvetica,sans-Serif" font-size="10.00">_pp_qe</text>
</a>
</g>
</g>
<!-- Node1&#45;&gt;Node2 -->
<g id="edge1_Node000001_Node000002" class="edge">
<title>Node1&#45;&gt;Node2</title>
<g id="a_edge1_Node000001_Node000002"><a xlink:title=" ">
<path fill="none" stroke="#63b8ff" d="M198.22,-15.25C190.32,-15.25 182.07,-15.25 174.08,-15.25"/>
<polygon fill="#63b8ff" stroke="#63b8ff" points="197.97,-18.75 207.97,-15.25 197.97,-11.75 197.97,-18.75"/>
</a>
</g>
</g>
<!-- Node3 -->
<g id="Node000003" class="node">
<title>Node3</title>
<g id="a_Node000003"><a xlink:href="../../d3/dd5/main__elph_c_8c.html#a0ddf1224851353fc92bfbff6f499fa97" target="_top" xlink:title="Main program entry point.">
<polygon fill="white" stroke="#666666" points="37,-24.88 0,-24.88 0,-5.63 37,-5.63 37,-24.88"/>
<text xml:space="preserve" text-anchor="middle" x="18.5" y="-11.38" font-family="Helvetica,sans-Serif" font-size="10.00">main</text>
</a>
</g>
</g>
<!-- Node2&#45;&gt;Node3 -->
<g id="edge2_Node000002_Node000003" class="edge">
<title>Node2&#45;&gt;Node3</title>
<g id="a_edge2_Node000002_Node000003"><a xlink:title=" ">
<path fill="none" stroke="#63b8ff" d="M61.44,-15.25C52.61,-15.25 44.17,-15.25 37.21,-15.25"/>
<polygon fill="#63b8ff" stroke="#63b8ff" points="61.23,-18.75 71.23,-15.25 61.23,-11.75 61.23,-18.75"/>
</a>
</g>
</g>
</g>
</svg>
