<?xml version="1.0" encoding="UTF-8" standalone="no"?>
<!DOCTYPE svg PUBLIC "-//W3C//DTD SVG 1.1//EN"
 "http://www.w3.org/Graphics/SVG/1.1/DTD/svg11.dtd">
<!-- Generated by graphviz version 14.0.0 (20250921.2048)
 -->
<!-- Title: src/symmetries/rotate_eig_vecs.c Pages: 1 -->
<svg width="729pt" height="204pt"
 viewBox="0.00 0.00 729.00 204.00" xmlns="http://www.w3.org/2000/svg" xmlns:xlink="http://www.w3.org/1999/xlink">
<g id="graph0" class="graph" transform="scale(1 1) rotate(0) translate(4 200.25)">
<title>src/symmetries/rotate_eig_vecs.c</title>
<!-- Node1 -->
<g id="Node000001" class="node">
<title>Node1</title>
<g id="a_Node000001"><a xlink:title=" ">
<polygon fill="#999999" stroke="#666666" points="389.12,-196.25 277.88,-196.25 277.88,-165.75 389.12,-165.75 389.12,-196.25"/>
<text xml:space="preserve" text-anchor="start" x="285.88" y="-182.75" font-family="Helvetica,sans-Serif" font-size="10.00">src/symmetries/rotate</text>
<text xml:space="preserve" text-anchor="middle" x="333.5" y="-171.5" font-family="Helvetica,sans-Serif" font-size="10.00">_eig_vecs.c</text>
</a>
</g>
</g>
<!-- Node2 -->
<g id="Node000002" class="node">
<title>Node2</title>
<g id="a_Node000002"><a xlink:title=" ">
<polygon fill="#e0e0e0" stroke="#999999" points="61,-129.75 0,-129.75 0,-110.5 61,-110.5 61,-129.75"/>
<text xml:space="preserve" text-anchor="middle" x="30.5" y="-116.25" font-family="Helvetica,sans-Serif" font-size="10.00">complex.h</text>
</a>
</g>
</g>
<!-- Node1&#45;&gt;Node2 -->
<g id="edge1_Node000001_Node000002" class="edge">
<title>Node1&#45;&gt;Node2</title>
<g id="a_edge1_Node000001_Node000002"><a xlink:title=" ">
<path fill="none" stroke="#63b8ff" d="M277.53,-169.84C226.53,-160.48 148.84,-145.93 72.4,-130.3"/>
<polygon fill="#63b8ff" stroke="#63b8ff" points="73.12,-126.88 62.62,-128.29 71.71,-133.73 73.12,-126.88"/>
</a>
</g>
</g>
<!-- Node3 -->
<g id="Node000003" class="node">
<title>Node3</title>
<g id="a_Node000003"><a xlink:title=" ">
<polygon fill="#e0e0e0" stroke="#999999" points="126.25,-129.75 78.75,-129.75 78.75,-110.5 126.25,-110.5 126.25,-129.75"/>
<text xml:space="preserve" text-anchor="middle" x="102.5" y="-116.25" font-family="Helvetica,sans-Serif" font-size="10.00">stdlib.h</text>
</a>
</g>
</g>
<!-- Node1&#45;&gt;Node3 -->
<g id="edge2_Node000001_Node000003" class="edge">
<title>Node1&#45;&gt;Node3</title>
<g id="a_edge2_Node000001_Node000003"><a xlink:title=" ">
<path fill="none" stroke="#63b8ff" d="M277.68,-166.16C240.33,-156.84 189.8,-144.12 137.44,-130.49"/>
<polygon fill="#63b8ff" stroke="#63b8ff" points="138.63,-127.18 128.07,-128.05 136.86,-133.96 138.63,-127.18"/>
</a>
</g>
</g>
<!-- Node4 -->
<g id="Node000004" class="node">
<title>Node4</title>
<g id="a_Node000004"><a xlink:href="../../de/d83/_e_l_p_h__timers_8h.html" target="_top" xlink:title=" ">
<polygon fill="white" stroke="#666666" points="267.12,-129.75 143.88,-129.75 143.88,-110.5 267.12,-110.5 267.12,-129.75"/>
<text xml:space="preserve" text-anchor="middle" x="205.5" y="-116.25" font-family="Helvetica,sans-Serif" font-size="10.00">common/ELPH_timers.h</text>
</a>
</g>
</g>
<!-- Node1&#45;&gt;Node4 -->
<g id="edge3_Node000001_Node000004" class="edge">
<title>Node1&#45;&gt;Node4</title>
<g id="a_edge3_Node000001_Node000004"><a xlink:title=" ">
<path fill="none" stroke="#63b8ff" d="M301.53,-165.3C281.29,-155.98 255.28,-144.02 235.44,-134.9"/>
<polygon fill="#63b8ff" stroke="#63b8ff" points="237.05,-131.79 226.51,-130.79 234.13,-138.15 237.05,-131.79"/>
</a>
</g>
</g>
<!-- Node5 -->
<g id="Node000005" class="node">
<title>Node5</title>
<g id="a_Node000005"><a xlink:href="../../d2/d6f/constants_8h.html" target="_top" xlink:title=" ">
<polygon fill="white" stroke="#666666" points="305.25,-74.5 197.75,-74.5 197.75,-55.25 305.25,-55.25 305.25,-74.5"/>
<text xml:space="preserve" text-anchor="middle" x="251.5" y="-61" font-family="Helvetica,sans-Serif" font-size="10.00">common/constants.h</text>
</a>
</g>
</g>
<!-- Node1&#45;&gt;Node5 -->
<g id="edge4_Node000001_Node000005" class="edge">
<title>Node1&#45;&gt;Node5</title>
<g id="a_edge4_Node000001_Node000005"><a xlink:title=" ">
<path fill="none" stroke="#63b8ff" d="M323.11,-165.55C308.24,-144.84 280.88,-106.76 264.62,-84.14"/>
<polygon fill="#63b8ff" stroke="#63b8ff" points="267.58,-82.26 258.9,-76.18 261.89,-86.34 267.58,-82.26"/>
</a>
</g>
</g>
<!-- Node6 -->
<g id="Node000006" class="node">
<title>Node6</title>
<g id="a_Node000006"><a xlink:href="../../d4/d0a/elph_c_8h.html" target="_top" xlink:title="Core type definitions and configuration for LetzElPhC.">
<polygon fill="white" stroke="#666666" points="451.38,-19.25 401.62,-19.25 401.62,0 451.38,0 451.38,-19.25"/>
<text xml:space="preserve" text-anchor="middle" x="426.5" y="-5.75" font-family="Helvetica,sans-Serif" font-size="10.00">elphC.h</text>
</a>
</g>
</g>
<!-- Node1&#45;&gt;Node6 -->
<g id="edge15_Node000001_Node000006" class="edge">
<title>Node1&#45;&gt;Node6</title>
<g id="a_edge15_Node000001_Node000006"><a xlink:title=" ">
<path fill="none" stroke="#63b8ff" d="M331.96,-165.52C330.09,-140.71 329.6,-89.48 352.5,-55.25 361.76,-41.4 376.91,-31.17 391.1,-24.03"/>
<polygon fill="#63b8ff" stroke="#63b8ff" points="392.19,-27.38 399.79,-20 389.25,-21.03 392.19,-27.38"/>
</a>
</g>
</g>
<!-- Node7 -->
<g id="Node000007" class="node">
<title>Node7</title>
<g id="a_Node000007"><a xlink:href="../../d2/d02/dtypes_8h.html" target="_top" xlink:title=" ">
<polygon fill="white" stroke="#666666" points="679.5,-74.5 585.5,-74.5 585.5,-55.25 679.5,-55.25 679.5,-74.5"/>
<text xml:space="preserve" text-anchor="middle" x="632.5" y="-61" font-family="Helvetica,sans-Serif" font-size="10.00">common/dtypes.h</text>
</a>
</g>
</g>
<!-- Node1&#45;&gt;Node7 -->
<g id="edge6_Node000001_Node000007" class="edge">
<title>Node1&#45;&gt;Node7</title>
<g id="a_edge6_Node000001_Node000007"><a xlink:title=" ">
<path fill="none" stroke="#63b8ff" d="M389.61,-180.19C443.72,-177.89 525.94,-167.65 585.5,-129.75 602.53,-118.91 615.47,-99.54 623.42,-84.96"/>
<polygon fill="#63b8ff" stroke="#63b8ff" points="626.4,-86.81 627.82,-76.31 620.17,-83.63 626.4,-86.81"/>
</a>
</g>
</g>
<!-- Node10 -->
<g id="Node000010" class="node">
<title>Node10</title>
<g id="a_Node000010"><a xlink:href="../../da/d41/error_8h.html" target="_top" xlink:title=" ">
<polygon fill="white" stroke="#666666" points="721,-19.25 678,-19.25 678,0 721,0 721,-19.25"/>
<text xml:space="preserve" text-anchor="middle" x="699.5" y="-5.75" font-family="Helvetica,sans-Serif" font-size="10.00">error.h</text>
</a>
</g>
</g>
<!-- Node1&#45;&gt;Node10 -->
<g id="edge11_Node000001_Node000010" class="edge">
<title>Node1&#45;&gt;Node10</title>
<g id="a_edge11_Node000001_Node000010"><a xlink:title=" ">
<path fill="none" stroke="#63b8ff" d="M389.42,-176.85C446.62,-172.03 537.13,-159.94 609.5,-129.75 649.04,-113.25 665.54,-110.68 688.5,-74.5 696.72,-61.54 699.31,-44.26 699.93,-30.94"/>
<polygon fill="#63b8ff" stroke="#63b8ff" points="703.42,-31.2 700.02,-21.16 696.42,-31.13 703.42,-31.2"/>
</a>
</g>
</g>
<!-- Node11 -->
<g id="Node000011" class="node">
<title>Node11</title>
<g id="a_Node000011"><a xlink:href="../../df/def/numerical__func_8h.html" target="_top" xlink:title=" ">
<polygon fill="white" stroke="#666666" points="491.88,-74.5 361.12,-74.5 361.12,-55.25 491.88,-55.25 491.88,-74.5"/>
<text xml:space="preserve" text-anchor="middle" x="426.5" y="-61" font-family="Helvetica,sans-Serif" font-size="10.00">common/numerical_func.h</text>
</a>
</g>
</g>
<!-- Node1&#45;&gt;Node11 -->
<g id="edge12_Node000001_Node000011" class="edge">
<title>Node1&#45;&gt;Node11</title>
<g id="a_edge12_Node000001_Node000011"><a xlink:title=" ">
<path fill="none" stroke="#63b8ff" d="M345.28,-165.55C362.22,-144.75 393.46,-106.42 411.87,-83.83"/>
<polygon fill="#63b8ff" stroke="#63b8ff" points="414.55,-86.08 418.15,-76.12 409.12,-81.66 414.55,-86.08"/>
</a>
</g>
</g>
<!-- Node12 -->
<g id="Node000012" class="node">
<title>Node12</title>
<g id="a_Node000012"><a xlink:href="../../dc/dec/symmetries_8h.html" target="_top" xlink:title=" ">
<polygon fill="white" stroke="#666666" points="576.12,-129.75 500.88,-129.75 500.88,-110.5 576.12,-110.5 576.12,-129.75"/>
<text xml:space="preserve" text-anchor="middle" x="538.5" y="-116.25" font-family="Helvetica,sans-Serif" font-size="10.00">symmetries.h</text>
</a>
</g>
</g>
<!-- Node1&#45;&gt;Node12 -->
<g id="edge16_Node000001_Node000012" class="edge">
<title>Node1&#45;&gt;Node12</title>
<g id="a_edge16_Node000001_Node000012"><a xlink:title=" ">
<path fill="none" stroke="#63b8ff" d="M384.7,-165.3C418.97,-155.45 463.54,-142.65 495.87,-133.37"/>
<polygon fill="#63b8ff" stroke="#63b8ff" points="496.66,-136.78 505.3,-130.66 494.73,-130.05 496.66,-136.78"/>
</a>
</g>
</g>
<!-- Node5&#45;&gt;Node6 -->
<g id="edge5_Node000005_Node000006" class="edge">
<title>Node5&#45;&gt;Node6</title>
<g id="a_edge5_Node000005_Node000006"><a xlink:title=" ">
<path fill="none" stroke="#63b8ff" d="M281.19,-54.84C311.37,-45.66 358.16,-31.42 390.45,-21.59"/>
<polygon fill="#63b8ff" stroke="#63b8ff" points="391.22,-25.02 399.77,-18.76 389.19,-18.32 391.22,-25.02"/>
</a>
</g>
</g>
<!-- Node7&#45;&gt;Node6 -->
<g id="edge9_Node000007_Node000006" class="edge">
<title>Node7&#45;&gt;Node6</title>
<g id="a_edge9_Node000007_Node000006"><a xlink:title=" ">
<path fill="none" stroke="#63b8ff" d="M597.55,-54.84C560.1,-45.16 500.93,-29.86 462.92,-20.04"/>
<polygon fill="#63b8ff" stroke="#63b8ff" points="463.87,-16.67 453.32,-17.56 462.12,-23.45 463.87,-16.67"/>
</a>
</g>
</g>
<!-- Node8 -->
<g id="Node000008" class="node">
<title>Node8</title>
<g id="a_Node000008"><a xlink:title=" ">
<polygon fill="#e0e0e0" stroke="#999999" points="652.5,-19.25 612.5,-19.25 612.5,0 652.5,0 652.5,-19.25"/>
<text xml:space="preserve" text-anchor="middle" x="632.5" y="-5.75" font-family="Helvetica,sans-Serif" font-size="10.00">mpi.h</text>
</a>
</g>
</g>
<!-- Node7&#45;&gt;Node8 -->
<g id="edge7_Node000007_Node000008" class="edge">
<title>Node7&#45;&gt;Node8</title>
<g id="a_edge7_Node000007_Node000008"><a xlink:title=" ">
<path fill="none" stroke="#63b8ff" d="M632.5,-55.08C632.5,-48.57 632.5,-39.42 632.5,-31.12"/>
<polygon fill="#63b8ff" stroke="#63b8ff" points="636,-31.12 632.5,-21.12 629,-31.12 636,-31.12"/>
</a>
</g>
</g>
<!-- Node9 -->
<g id="Node000009" class="node">
<title>Node9</title>
<g id="a_Node000009"><a xlink:title=" ">
<polygon fill="#e0e0e0" stroke="#999999" points="585.38,-19.25 529.62,-19.25 529.62,0 585.38,0 585.38,-19.25"/>
<text xml:space="preserve" text-anchor="middle" x="557.5" y="-5.75" font-family="Helvetica,sans-Serif" font-size="10.00">stdbool.h</text>
</a>
</g>
</g>
<!-- Node7&#45;&gt;Node9 -->
<g id="edge8_Node000007_Node000009" class="edge">
<title>Node7&#45;&gt;Node9</title>
<g id="a_edge8_Node000007_Node000009"><a xlink:title=" ">
<path fill="none" stroke="#63b8ff" d="M619.78,-54.84C608.79,-47.04 592.66,-35.59 579.57,-26.29"/>
<polygon fill="#63b8ff" stroke="#63b8ff" points="581.7,-23.51 571.52,-20.58 577.65,-29.22 581.7,-23.51"/>
</a>
</g>
</g>
<!-- Node7&#45;&gt;Node10 -->
<g id="edge10_Node000007_Node000010" class="edge">
<title>Node7&#45;&gt;Node10</title>
<g id="a_edge10_Node000007_Node000010"><a xlink:title=" ">
<path fill="none" stroke="#63b8ff" d="M643.87,-54.84C653.55,-47.15 667.7,-35.9 679.31,-26.68"/>
<polygon fill="#63b8ff" stroke="#63b8ff" points="681.47,-29.43 687.12,-20.47 677.11,-23.95 681.47,-29.43"/>
</a>
</g>
</g>
<!-- Node11&#45;&gt;Node6 -->
<g id="edge14_Node000011_Node000006" class="edge">
<title>Node11&#45;&gt;Node6</title>
<g id="a_edge14_Node000011_Node000006"><a xlink:title=" ">
<path fill="none" stroke="#63b8ff" d="M426.5,-55.08C426.5,-48.57 426.5,-39.42 426.5,-31.12"/>
<polygon fill="#63b8ff" stroke="#63b8ff" points="430,-31.12 426.5,-21.12 423,-31.12 430,-31.12"/>
</a>
</g>
</g>
<!-- Node11&#45;&gt;Node9 -->
<g id="edge13_Node000011_Node000009" class="edge">
<title>Node11&#45;&gt;Node9</title>
<g id="a_edge13_Node000011_Node000009"><a xlink:title=" ">
<path fill="none" stroke="#63b8ff" d="M448.72,-54.84C469.52,-46.39 500.85,-33.65 524.55,-24.02"/>
<polygon fill="#63b8ff" stroke="#63b8ff" points="525.82,-27.28 533.77,-20.27 523.18,-20.8 525.82,-27.28"/>
</a>
</g>
</g>
<!-- Node12&#45;&gt;Node6 -->
<g id="edge19_Node000012_Node000006" class="edge">
<title>Node12&#45;&gt;Node6</title>
<g id="a_edge19_Node000012_Node000006"><a xlink:title=" ">
<path fill="none" stroke="#63b8ff" d="M534.96,-110.37C529.28,-97.16 517.06,-71.91 500.5,-55.25 488.07,-42.75 471.47,-32.32 457.14,-24.7"/>
<polygon fill="#63b8ff" stroke="#63b8ff" points="459.04,-21.75 448.54,-20.34 455.88,-27.99 459.04,-21.75"/>
</a>
</g>
</g>
<!-- Node12&#45;&gt;Node7 -->
<g id="edge18_Node000012_Node000007" class="edge">
<title>Node12&#45;&gt;Node7</title>
<g id="a_edge18_Node000012_Node000007"><a xlink:title=" ">
<path fill="none" stroke="#63b8ff" d="M554.45,-110.09C568.76,-101.98 590.03,-89.93 606.75,-80.46"/>
<polygon fill="#63b8ff" stroke="#63b8ff" points="608.18,-83.67 615.16,-75.7 604.73,-77.58 608.18,-83.67"/>
</a>
</g>
</g>
<!-- Node12&#45;&gt;Node9 -->
<g id="edge17_Node000012_Node000009" class="edge">
<title>Node12&#45;&gt;Node9</title>
<g id="a_edge17_Node000012_Node000009"><a xlink:title=" ">
<path fill="none" stroke="#63b8ff" d="M540.05,-110.25C543.07,-93 549.8,-54.58 553.96,-30.81"/>
<polygon fill="#63b8ff" stroke="#63b8ff" points="557.39,-31.57 555.66,-21.12 550.49,-30.36 557.39,-31.57"/>
</a>
</g>
</g>
</g>
</svg>
