<?xml version="1.0" encoding="UTF-8" standalone="no"?>
<!DOCTYPE svg PUBLIC "-//W3C//DTD SVG 1.1//EN"
 "http://www.w3.org/Graphics/SVG/1.1/DTD/svg11.dtd">
<!-- Generated by graphviz version 14.0.0 (20250921.2048)
 -->
<!-- Title: long_range_2D_kernel Pages: 1 -->
<svg width="603pt" height="27pt"
 viewBox="0.00 0.00 603.00 27.00" xmlns="http://www.w3.org/2000/svg" xmlns:xlink="http://www.w3.org/1999/xlink">
<g id="graph0" class="graph" transform="scale(1 1) rotate(0) translate(4 23.25)">
<title>long_range_2D_kernel</title>
<!-- Node1 -->
<g id="Node000001" class="node">
<title>Node1</title>
<g id="a_Node000001"><a xlink:title=" ">
<polygon fill="#999999" stroke="#666666" points="594.5,-19.25 481.75,-19.25 481.75,0 594.5,0 594.5,-19.25"/>
<text xml:space="preserve" text-anchor="middle" x="538.12" y="-5.75" font-family="Helvetica,sans-Serif" font-size="10.00">long_range_2D_kernel</text>
</a>
</g>
</g>
<!-- Node2 -->
<g id="Node000002" class="node">
<title>Node2</title>
<g id="a_Node000002"><a xlink:href="../../d9/def/d_vlong__range__kernel_8c.html#a3d05ed4699169237a06a20f305c67c8d" target="_top" xlink:title=" ">
<polygon fill="white" stroke="#666666" points="445.75,-19.25 339,-19.25 339,0 445.75,0 445.75,-19.25"/>
<text xml:space="preserve" text-anchor="middle" x="392.38" y="-5.75" font-family="Helvetica,sans-Serif" font-size="10.00">dVlong_range_kernel</text>
</a>
</g>
</g>
<!-- Node1&#45;&gt;Node2 -->
<g id="edge1_Node000001_Node000002" class="edge">
<title>Node1&#45;&gt;Node2</title>
<g id="a_edge1_Node000001_Node000002"><a xlink:title=" ">
<path fill="none" stroke="#63b8ff" d="M470.17,-9.62C462.05,-9.62 453.85,-9.62 445.97,-9.62"/>
<polygon fill="#63b8ff" stroke="#63b8ff" points="470.03,-13.13 480.03,-9.63 470.03,-6.13 470.03,-13.13"/>
</a>
</g>
</g>
<!-- Node3 -->
<g id="Node000003" class="node">
<title>Node3</title>
<g id="a_Node000003"><a xlink:href="../../d1/d94/d_vpot__add__long__range_8c.html#a0923c770a93d2648a5d75b70fbb9c61c" target="_top" xlink:title=" ">
<polygon fill="white" stroke="#666666" points="303,-19.25 206.75,-19.25 206.75,0 303,0 303,-19.25"/>
<text xml:space="preserve" text-anchor="middle" x="254.88" y="-5.75" font-family="Helvetica,sans-Serif" font-size="10.00">dV_add_longrange</text>
</a>
</g>
</g>
<!-- Node2&#45;&gt;Node3 -->
<g id="edge2_Node000002_Node000003" class="edge">
<title>Node2&#45;&gt;Node3</title>
<g id="a_edge2_Node000002_Node000003"><a xlink:title=" ">
<path fill="none" stroke="#63b8ff" d="M327.32,-9.62C319.27,-9.62 311.16,-9.62 303.43,-9.62"/>
<polygon fill="#63b8ff" stroke="#63b8ff" points="327.09,-13.13 337.09,-9.63 327.09,-6.13 327.09,-13.13"/>
</a>
</g>
</g>
<!-- Node4 -->
<g id="Node000004" class="node">
<title>Node4</title>
<g id="a_Node000004"><a xlink:href="../../da/dc2/interpolation__driver_8c.html#aecc42ae41d168b486807b337fcf5b3de" target="_top" xlink:title=" ">
<polygon fill="white" stroke="#666666" points="170.75,-19.25 73,-19.25 73,0 170.75,0 170.75,-19.25"/>
<text xml:space="preserve" text-anchor="middle" x="121.88" y="-5.75" font-family="Helvetica,sans-Serif" font-size="10.00">interpolation_driver</text>
</a>
</g>
</g>
<!-- Node3&#45;&gt;Node4 -->
<g id="edge3_Node000003_Node000004" class="edge">
<title>Node3&#45;&gt;Node4</title>
<g id="a_edge3_Node000003_Node000004"><a xlink:title=" ">
<path fill="none" stroke="#63b8ff" d="M195.25,-9.62C187.14,-9.62 178.88,-9.62 170.98,-9.62"/>
<polygon fill="#63b8ff" stroke="#63b8ff" points="195.07,-13.13 205.07,-9.63 195.07,-6.13 195.07,-13.13"/>
</a>
</g>
</g>
<!-- Node5 -->
<g id="Node000005" class="node">
<title>Node5</title>
<g id="a_Node000005"><a xlink:href="../../d3/dd5/main__elph_c_8c.html#a0ddf1224851353fc92bfbff6f499fa97" target="_top" xlink:title="Main program entry point.">
<polygon fill="white" stroke="#666666" points="37,-19.25 0,-19.25 0,0 37,0 37,-19.25"/>
<text xml:space="preserve" text-anchor="middle" x="18.5" y="-5.75" font-family="Helvetica,sans-Serif" font-size="10.00">main</text>
</a>
</g>
</g>
<!-- Node4&#45;&gt;Node5 -->
<g id="edge4_Node000004_Node000005" class="edge">
<title>Node4&#45;&gt;Node5</title>
<g id="a_edge4_Node000004_Node000005"><a xlink:title=" ">
<path fill="none" stroke="#63b8ff" d="M61.33,-9.62C52.55,-9.62 44.14,-9.62 37.19,-9.62"/>
<polygon fill="#63b8ff" stroke="#63b8ff" points="61.05,-13.13 71.05,-9.63 61.05,-6.13 61.05,-13.13"/>
</a>
</g>
</g>
</g>
</svg>
