<?xml version="1.0" encoding="UTF-8" standalone="no"?>
<!DOCTYPE svg PUBLIC "-//W3C//DTD SVG 1.1//EN"
 "http://www.w3.org/Graphics/SVG/1.1/DTD/svg11.dtd">
<!-- Generated by graphviz version 14.0.0 (20250921.2048)
 -->
<!-- Title: src/io/io.h Pages: 1 -->
<!--zoomable 94 -->

<svg id="main" version="1.1" xmlns="http://www.w3.org/2000/svg" xmlns:xlink="http://www.w3.org/1999/xlink" xml:space="preserve" onload="init(evt)">

<style type="text/css"><![CDATA[
.node, .edge {opacity: 0.7;}
.node.selected, .edge.selected {opacity: 1;}
.edge:hover path { stroke: red; }
.edge:hover polygon { stroke: red; fill: red; }
]]></style>

<defs>
  <circle id="rim" cx="0" cy="0" r="7"/>
  <circle id="rim2" cx="0" cy="0" r="3.5"/>
  <g id="zoomPlus">
    <use xlink:href="#rim" fill="#404040"><set attributeName="fill" to="#808080" begin="zoomplus.mouseover" end="zoomplus.mouseout"/></use>
    <path d="M-4,0h8M0,-4v8" fill="none" stroke="white" stroke-width="1.5" pointer-events="none"/>
  </g>
  <g id="zoomMin">
    <use xlink:href="#rim" fill="#404040"><set attributeName="fill" to="#808080" begin="zoomminus.mouseover" end="zoomminus.mouseout"/></use>
    <path d="M-4,0h8" fill="none" stroke="white" stroke-width="1.5" pointer-events="none"/>
  </g>
  <g id="arrowUp" transform="translate(30 24)">
    <use xlink:href="#rim"/>
    <path pointer-events="none" fill="none" stroke="white" stroke-width="1.5" d="M0,-3.0v7 M-2.5,-0.5L0,-3.0L2.5,-0.5"/>
  </g>
  <g id="arrowRight" transform="rotate(90) translate(36 -43)">
    <use xlink:href="#rim"/>
    <path pointer-events="none" fill="none" stroke="white" stroke-width="1.5" d="M0,-3.0v7 M-2.5,-0.5L0,-3.0L2.5,-0.5"/>
  </g>
  <g id="arrowDown" transform="rotate(180) translate(-30 -48)">
    <use xlink:href="#rim"/>
    <path pointer-events="none" fill="none" stroke="white" stroke-width="1.5" d="M0,-3.0v7 M-2.5,-0.5L0,-3.0L2.5,-0.5"/>
  </g>
  <g id="arrowLeft" transform="rotate(270) translate(-36 17)">
    <use xlink:href="#rim"/>
    <path pointer-events="none" fill="none" stroke="white" stroke-width="1.5" d="M0,-3.0v7 M-2.5,-0.5L0,-3.0L2.5,-0.5"/>
  </g>
  <g id="resetDef">
    <use xlink:href="#rim2" fill="#404040"><set attributeName="fill" to="#808080" begin="reset.mouseover" end="reset.mouseout"/></use>
  </g>
</defs>
<script type="application/ecmascript">
var viewWidth = 1023;
var viewHeight = 94;
var sectionId = 'dynsection-1';
</script>
<script type="application/ecmascript" xlink:href="../../svg.min.js"/>
<svg id="graph" class="graph">
<g id="viewport">
<title>src/io/io.h</title>
<!-- Node1 -->
<g id="Node000001" class="node">
<title>Node1</title>
<g id="a_Node000001"><a xlink:title=" ">
<polygon fill="#999999" stroke="#666666" points="584.12,-85.75 525.38,-85.75 525.38,-66.5 584.12,-66.5 584.12,-85.75"/>
<text xml:space="preserve" text-anchor="middle" x="554.75" y="-72.25" font-family="Helvetica,sans-Serif" font-size="10.00">src/io/io.h</text>
</a>
</g>
</g>
<!-- Node2 -->
<g id="Node000002" class="node">
<title>Node2</title>
<g id="a_Node000002"><a xlink:href="../../d5/d9f/compute__dmats_8c.html" target="_top" xlink:title=" ">
<polygon fill="white" stroke="#666666" points="131.5,-24.88 0,-24.88 0,-5.63 131.5,-5.63 131.5,-24.88"/>
<text xml:space="preserve" text-anchor="middle" x="65.75" y="-11.38" font-family="Helvetica,sans-Serif" font-size="10.00">src/elph/compute_dmats.c</text>
</a>
</g>
</g>
<!-- Node1&#45;&gt;Node2 -->
<g id="edge1_Node000001_Node000002" class="edge">
<title>Node1&#45;&gt;Node2</title>
<g id="a_edge1_Node000001_Node000002"><a xlink:title=" ">
<path fill="none" stroke="#63b8ff" d="M513.85,-71.81C439.4,-65.54 276.84,-50.73 140.75,-30.5 130.92,-29.04 120.41,-27.21 110.46,-25.36"/>
<polygon fill="#63b8ff" stroke="#63b8ff" points="513.26,-75.28 523.52,-72.62 513.84,-68.3 513.26,-75.28"/>
</a>
</g>
</g>
<!-- Node3 -->
<g id="Node000003" class="node">
<title>Node3</title>
<g id="a_Node000003"><a xlink:href="../../da/d2e/elph__driver_8c.html" target="_top" xlink:title=" ">
<polygon fill="white" stroke="#666666" points="257.88,-24.88 149.62,-24.88 149.62,-5.63 257.88,-5.63 257.88,-24.88"/>
<text xml:space="preserve" text-anchor="middle" x="203.75" y="-11.38" font-family="Helvetica,sans-Serif" font-size="10.00">src/elph/elph_driver.c</text>
</a>
</g>
</g>
<!-- Node1&#45;&gt;Node3 -->
<g id="edge2_Node000001_Node000003" class="edge">
<title>Node1&#45;&gt;Node3</title>
<g id="a_edge2_Node000001_Node000003"><a xlink:title=" ">
<path fill="none" stroke="#63b8ff" d="M514.01,-69.71C458.08,-62.07 354.45,-47.19 266.75,-30.5 258.71,-28.97 250.13,-27.15 241.98,-25.34"/>
<polygon fill="#63b8ff" stroke="#63b8ff" points="513.32,-73.15 523.7,-71.03 514.26,-66.21 513.32,-73.15"/>
</a>
</g>
</g>
<!-- Node4 -->
<g id="Node000004" class="node">
<title>Node4</title>
<g id="a_Node000004"><a xlink:href="../../da/dc2/interpolation__driver_8c.html" target="_top" xlink:title=" ">
<polygon fill="white" stroke="#666666" points="416,-30.5 275.5,-30.5 275.5,0 416,0 416,-30.5"/>
<text xml:space="preserve" text-anchor="start" x="283.5" y="-17" font-family="Helvetica,sans-Serif" font-size="10.00">src/interpolation/interpolation</text>
<text xml:space="preserve" text-anchor="middle" x="345.75" y="-5.75" font-family="Helvetica,sans-Serif" font-size="10.00">_driver.c</text>
</a>
</g>
</g>
<!-- Node1&#45;&gt;Node4 -->
<g id="edge3_Node000001_Node000004" class="edge">
<title>Node1&#45;&gt;Node4</title>
<g id="a_edge3_Node000001_Node000004"><a xlink:title=" ">
<path fill="none" stroke="#63b8ff" d="M514.59,-63.81C481.45,-54.48 434.18,-41.16 398.08,-30.99"/>
<polygon fill="#63b8ff" stroke="#63b8ff" points="513.22,-67.06 523.79,-66.4 515.12,-60.32 513.22,-67.06"/>
</a>
</g>
</g>
<!-- Node5 -->
<g id="Node000005" class="node">
<title>Node5</title>
<g id="a_Node000005"><a xlink:href="../../da/d77/get__save__data_8c.html" target="_top" xlink:title=" ">
<polygon fill="white" stroke="#666666" points="549.25,-24.88 434.25,-24.88 434.25,-5.63 549.25,-5.63 549.25,-24.88"/>
<text xml:space="preserve" text-anchor="middle" x="491.75" y="-11.38" font-family="Helvetica,sans-Serif" font-size="10.00">src/io/get_save_data.c</text>
</a>
</g>
</g>
<!-- Node1&#45;&gt;Node5 -->
<g id="edge4_Node000001_Node000005" class="edge">
<title>Node1&#45;&gt;Node5</title>
<g id="a_edge4_Node000001_Node000005"><a xlink:title=" ">
<path fill="none" stroke="#63b8ff" d="M537.09,-58.62C525.53,-47.82 510.88,-34.12 501.41,-25.28"/>
<polygon fill="#63b8ff" stroke="#63b8ff" points="534.38,-60.88 544.08,-65.15 539.16,-55.76 534.38,-60.88"/>
</a>
</g>
</g>
<!-- Node6 -->
<g id="Node000006" class="node">
<title>Node6</title>
<g id="a_Node000006"><a xlink:href="../../dc/de1/input__parser_8c.html" target="_top" xlink:title=" ">
<polygon fill="white" stroke="#666666" points="670.62,-24.88 566.88,-24.88 566.88,-5.63 670.62,-5.63 670.62,-24.88"/>
<text xml:space="preserve" text-anchor="middle" x="618.75" y="-11.38" font-family="Helvetica,sans-Serif" font-size="10.00">src/io/input_parser.c</text>
</a>
</g>
</g>
<!-- Node1&#45;&gt;Node6 -->
<g id="edge5_Node000001_Node000006" class="edge">
<title>Node1&#45;&gt;Node6</title>
<g id="a_edge5_Node000001_Node000006"><a xlink:title=" ">
<path fill="none" stroke="#63b8ff" d="M572.69,-58.62C584.43,-47.82 599.32,-34.12 608.94,-25.28"/>
<polygon fill="#63b8ff" stroke="#63b8ff" points="570.57,-55.81 565.58,-65.16 575.31,-60.96 570.57,-55.81"/>
</a>
</g>
</g>
<!-- Node7 -->
<g id="Node000007" class="node">
<title>Node7</title>
<g id="a_Node000007"><a xlink:href="../../d2/df3/nc4__def__var_8c.html" target="_top" xlink:title=" ">
<polygon fill="white" stroke="#666666" points="792.62,-24.88 688.88,-24.88 688.88,-5.63 792.62,-5.63 792.62,-24.88"/>
<text xml:space="preserve" text-anchor="middle" x="740.75" y="-11.38" font-family="Helvetica,sans-Serif" font-size="10.00">src/io/nc4_def_var.c</text>
</a>
</g>
</g>
<!-- Node1&#45;&gt;Node7 -->
<g id="edge6_Node000001_Node000007" class="edge">
<title>Node1&#45;&gt;Node7</title>
<g id="a_edge6_Node000001_Node000007"><a xlink:title=" ">
<path fill="none" stroke="#63b8ff" d="M594.28,-62.61C629.6,-51.43 680.51,-35.32 712.06,-25.33"/>
<polygon fill="#63b8ff" stroke="#63b8ff" points="593.33,-59.24 584.85,-65.6 595.44,-65.92 593.33,-59.24"/>
</a>
</g>
</g>
<!-- Node8 -->
<g id="Node000008" class="node">
<title>Node8</title>
<g id="a_Node000008"><a xlink:href="../../de/d8e/parse__upf_8c.html" target="_top" xlink:title=" ">
<polygon fill="white" stroke="#666666" points="904.75,-24.88 810.75,-24.88 810.75,-5.63 904.75,-5.63 904.75,-24.88"/>
<text xml:space="preserve" text-anchor="middle" x="857.75" y="-11.38" font-family="Helvetica,sans-Serif" font-size="10.00">src/io/parse_upf.c</text>
</a>
</g>
</g>
<!-- Node1&#45;&gt;Node8 -->
<g id="edge7_Node000001_Node000008" class="edge">
<title>Node1&#45;&gt;Node8</title>
<g id="a_edge7_Node000001_Node000008"><a xlink:title=" ">
<path fill="none" stroke="#63b8ff" d="M595.64,-68.64C644.77,-60.65 729.61,-46.18 801.75,-30.5 808.91,-28.95 816.54,-27.12 823.78,-25.3"/>
<polygon fill="#63b8ff" stroke="#63b8ff" points="595.35,-65.15 586.03,-70.2 596.46,-72.06 595.35,-65.15"/>
</a>
</g>
</g>
<!-- Node9 -->
<g id="Node000009" class="node">
<title>Node9</title>
<g id="a_Node000009"><a xlink:href="../../d0/d2a/write__basic__data_8c.html" target="_top" xlink:title=" ">
<polygon fill="white" stroke="#666666" points="1015,-30.5 922.5,-30.5 922.5,0 1015,0 1015,-30.5"/>
<text xml:space="preserve" text-anchor="start" x="930.5" y="-17" font-family="Helvetica,sans-Serif" font-size="10.00">src/io/write_basic</text>
<text xml:space="preserve" text-anchor="middle" x="968.75" y="-5.75" font-family="Helvetica,sans-Serif" font-size="10.00">_data.c</text>
</a>
</g>
</g>
<!-- Node1&#45;&gt;Node9 -->
<g id="edge8_Node000001_Node000009" class="edge">
<title>Node1&#45;&gt;Node9</title>
<g id="a_edge8_Node000001_Node000009"><a xlink:title=" ">
<path fill="none" stroke="#63b8ff" d="M595.54,-71.79C662.41,-65.94 799.39,-52.33 913.75,-30.5 916.46,-29.98 919.24,-29.41 922.04,-28.79"/>
<polygon fill="#63b8ff" stroke="#63b8ff" points="595.44,-68.29 585.78,-72.63 596.04,-75.26 595.44,-68.29"/>
</a>
</g>
</g>
</g>
</svg>

<g id="navigator" transform="translate(0 0)" fill="#404254">
  <rect fill="#f2f5e9" fill-opacity="0.5" stroke="#606060" stroke-width=".5" x="0" y="0" width="60" height="60"/>
  <use id="zoomplus" xlink:href="#zoomPlus" x="17" y="9" onmousedown="handleZoom(evt,'in')"/>
  <use id="zoomminus" xlink:href="#zoomMin" x="42" y="9" onmousedown="handleZoom(evt,'out')"/>
  <use id="reset" xlink:href="#resetDef" x="30" y="36" onmousedown="handleReset()"/>
   <use id="arrowup" xlink:href="#arrowUp" x="0" y="0" onmousedown="handlePan(0,-1)"/>
  <use id="arrowright" xlink:href="#arrowRight" x="0" y="0" onmousedown="handlePan(1,0)"/>
  <use id="arrowdown" xlink:href="#arrowDown" x="0" y="0" onmousedown="handlePan(0,1)"/>
  <use id="arrowleft" xlink:href="#arrowLeft" x="0" y="0" onmousedown="handlePan(-1,0)"/>
</g>
<svg viewBox="0 0 15 15" width="100%" height="30px" preserveAspectRatio="xMaxYMin meet">
 <g id="arrow_out" transform="scale(0.3 0.3)">
  <a xlink:href="io_8h__dep__incl_org.svg" target="_base">
   <rect id="button" ry="5" rx="5" y="6" x="6" height="38" width="38"
        fill="#f2f5e9" fill-opacity="0.5" stroke="#606060" stroke-width="1.0"/>
   <path id="arrow"
     d="M 11.500037,31.436501 C 11.940474,20.09759 22.043105,11.32322 32.158766,21.979434 L 37.068811,17.246167 C 37.068811,17.246167 37.088388,32 37.088388,32 L 22.160133,31.978069 C 22.160133,31.978069 26.997745,27.140456 26.997745,27.140456 C 18.528582,18.264221 13.291696,25.230495 11.500037,31.436501 z"
     style="fill:#404040;"/>
  </a>
 </g>
</svg>

<style type='text/css'>
<![CDATA[
[data-mouse-over-selected='false'] { opacity: 0.7; }
[data-mouse-over-selected='true']  { opacity: 1.0; }
]]>
</style>
<script type="application/ecmascript"><![CDATA[
document.addEventListener('DOMContentLoaded', (event) => {
  highlightEdges();
  highlightAdjacentNodes();
});
]]></script>
</svg>
