<?xml version="1.0" encoding="UTF-8" standalone="no"?>
<!DOCTYPE svg PUBLIC "-//W3C//DTD SVG 1.1//EN"
 "http://www.w3.org/Graphics/SVG/1.1/DTD/svg11.dtd">
<!-- Generated by graphviz version 14.0.0 (20250921.2048)
 -->
<!-- Title: src/io/io.h Pages: 1 -->
<svg width="1023pt" height="94pt"
 viewBox="0.00 0.00 1023.00 94.00" xmlns="http://www.w3.org/2000/svg" xmlns:xlink="http://www.w3.org/1999/xlink">
<g id="graph0" class="graph" transform="scale(1 1) rotate(0) translate(4 89.75)">
<title>src/io/io.h</title>
<!-- Node1 -->
<g id="Node000001" class="node">
<title>Node1</title>
<g id="a_Node000001"><a xlink:title=" ">
<polygon fill="#999999" stroke="#666666" points="584.12,-85.75 525.38,-85.75 525.38,-66.5 584.12,-66.5 584.12,-85.75"/>
<text xml:space="preserve" text-anchor="middle" x="554.75" y="-72.25" font-family="Helvetica,sans-Serif" font-size="10.00">src/io/io.h</text>
</a>
</g>
</g>
<!-- Node2 -->
<g id="Node000002" class="node">
<title>Node2</title>
<g id="a_Node000002"><a xlink:href="../../d5/d9f/compute__dmats_8c.html" target="_top" xlink:title=" ">
<polygon fill="white" stroke="#666666" points="131.5,-24.88 0,-24.88 0,-5.63 131.5,-5.63 131.5,-24.88"/>
<text xml:space="preserve" text-anchor="middle" x="65.75" y="-11.38" font-family="Helvetica,sans-Serif" font-size="10.00">src/elph/compute_dmats.c</text>
</a>
</g>
</g>
<!-- Node1&#45;&gt;Node2 -->
<g id="edge1_Node000001_Node000002" class="edge">
<title>Node1&#45;&gt;Node2</title>
<g id="a_edge1_Node000001_Node000002"><a xlink:title=" ">
<path fill="none" stroke="#63b8ff" d="M513.85,-71.81C439.4,-65.54 276.84,-50.73 140.75,-30.5 130.92,-29.04 120.41,-27.21 110.46,-25.36"/>
<polygon fill="#63b8ff" stroke="#63b8ff" points="513.26,-75.28 523.52,-72.62 513.84,-68.3 513.26,-75.28"/>
</a>
</g>
</g>
<!-- Node3 -->
<g id="Node000003" class="node">
<title>Node3</title>
<g id="a_Node000003"><a xlink:href="../../da/d2e/elph__driver_8c.html" target="_top" xlink:title=" ">
<polygon fill="white" stroke="#666666" points="257.88,-24.88 149.62,-24.88 149.62,-5.63 257.88,-5.63 257.88,-24.88"/>
<text xml:space="preserve" text-anchor="middle" x="203.75" y="-11.38" font-family="Helvetica,sans-Serif" font-size="10.00">src/elph/elph_driver.c</text>
</a>
</g>
</g>
<!-- Node1&#45;&gt;Node3 -->
<g id="edge2_Node000001_Node000003" class="edge">
<title>Node1&#45;&gt;Node3</title>
<g id="a_edge2_Node000001_Node000003"><a xlink:title=" ">
<path fill="none" stroke="#63b8ff" d="M514.01,-69.71C458.08,-62.07 354.45,-47.19 266.75,-30.5 258.71,-28.97 250.13,-27.15 241.98,-25.34"/>
<polygon fill="#63b8ff" stroke="#63b8ff" points="513.32,-73.15 523.7,-71.03 514.26,-66.21 513.32,-73.15"/>
</a>
</g>
</g>
<!-- Node4 -->
<g id="Node000004" class="node">
<title>Node4</title>
<g id="a_Node000004"><a xlink:href="../../da/dc2/interpolation__driver_8c.html" target="_top" xlink:title=" ">
<polygon fill="white" stroke="#666666" points="416,-30.5 275.5,-30.5 275.5,0 416,0 416,-30.5"/>
<text xml:space="preserve" text-anchor="start" x="283.5" y="-17" font-family="Helvetica,sans-Serif" font-size="10.00">src/interpolation/interpolation</text>
<text xml:space="preserve" text-anchor="middle" x="345.75" y="-5.75" font-family="Helvetica,sans-Serif" font-size="10.00">_driver.c</text>
</a>
</g>
</g>
<!-- Node1&#45;&gt;Node4 -->
<g id="edge3_Node000001_Node000004" class="edge">
<title>Node1&#45;&gt;Node4</title>
<g id="a_edge3_Node000001_Node000004"><a xlink:title=" ">
<path fill="none" stroke="#63b8ff" d="M514.59,-63.81C481.45,-54.48 434.18,-41.16 398.08,-30.99"/>
<polygon fill="#63b8ff" stroke="#63b8ff" points="513.22,-67.06 523.79,-66.4 515.12,-60.32 513.22,-67.06"/>
</a>
</g>
</g>
<!-- Node5 -->
<g id="Node000005" class="node">
<title>Node5</title>
<g id="a_Node000005"><a xlink:href="../../da/d77/get__save__data_8c.html" target="_top" xlink:title=" ">
<polygon fill="white" stroke="#666666" points="549.25,-24.88 434.25,-24.88 434.25,-5.63 549.25,-5.63 549.25,-24.88"/>
<text xml:space="preserve" text-anchor="middle" x="491.75" y="-11.38" font-family="Helvetica,sans-Serif" font-size="10.00">src/io/get_save_data.c</text>
</a>
</g>
</g>
<!-- Node1&#45;&gt;Node5 -->
<g id="edge4_Node000001_Node000005" class="edge">
<title>Node1&#45;&gt;Node5</title>
<g id="a_edge4_Node000001_Node000005"><a xlink:title=" ">
<path fill="none" stroke="#63b8ff" d="M537.09,-58.62C525.53,-47.82 510.88,-34.12 501.41,-25.28"/>
<polygon fill="#63b8ff" stroke="#63b8ff" points="534.38,-60.88 544.08,-65.15 539.16,-55.76 534.38,-60.88"/>
</a>
</g>
</g>
<!-- Node6 -->
<g id="Node000006" class="node">
<title>Node6</title>
<g id="a_Node000006"><a xlink:href="../../dc/de1/input__parser_8c.html" target="_top" xlink:title=" ">
<polygon fill="white" stroke="#666666" points="670.62,-24.88 566.88,-24.88 566.88,-5.63 670.62,-5.63 670.62,-24.88"/>
<text xml:space="preserve" text-anchor="middle" x="618.75" y="-11.38" font-family="Helvetica,sans-Serif" font-size="10.00">src/io/input_parser.c</text>
</a>
</g>
</g>
<!-- Node1&#45;&gt;Node6 -->
<g id="edge5_Node000001_Node000006" class="edge">
<title>Node1&#45;&gt;Node6</title>
<g id="a_edge5_Node000001_Node000006"><a xlink:title=" ">
<path fill="none" stroke="#63b8ff" d="M572.69,-58.62C584.43,-47.82 599.32,-34.12 608.94,-25.28"/>
<polygon fill="#63b8ff" stroke="#63b8ff" points="570.57,-55.81 565.58,-65.16 575.31,-60.96 570.57,-55.81"/>
</a>
</g>
</g>
<!-- Node7 -->
<g id="Node000007" class="node">
<title>Node7</title>
<g id="a_Node000007"><a xlink:href="../../d2/df3/nc4__def__var_8c.html" target="_top" xlink:title=" ">
<polygon fill="white" stroke="#666666" points="792.62,-24.88 688.88,-24.88 688.88,-5.63 792.62,-5.63 792.62,-24.88"/>
<text xml:space="preserve" text-anchor="middle" x="740.75" y="-11.38" font-family="Helvetica,sans-Serif" font-size="10.00">src/io/nc4_def_var.c</text>
</a>
</g>
</g>
<!-- Node1&#45;&gt;Node7 -->
<g id="edge6_Node000001_Node000007" class="edge">
<title>Node1&#45;&gt;Node7</title>
<g id="a_edge6_Node000001_Node000007"><a xlink:title=" ">
<path fill="none" stroke="#63b8ff" d="M594.28,-62.61C629.6,-51.43 680.51,-35.32 712.06,-25.33"/>
<polygon fill="#63b8ff" stroke="#63b8ff" points="593.33,-59.24 584.85,-65.6 595.44,-65.92 593.33,-59.24"/>
</a>
</g>
</g>
<!-- Node8 -->
<g id="Node000008" class="node">
<title>Node8</title>
<g id="a_Node000008"><a xlink:href="../../de/d8e/parse__upf_8c.html" target="_top" xlink:title=" ">
<polygon fill="white" stroke="#666666" points="904.75,-24.88 810.75,-24.88 810.75,-5.63 904.75,-5.63 904.75,-24.88"/>
<text xml:space="preserve" text-anchor="middle" x="857.75" y="-11.38" font-family="Helvetica,sans-Serif" font-size="10.00">src/io/parse_upf.c</text>
</a>
</g>
</g>
<!-- Node1&#45;&gt;Node8 -->
<g id="edge7_Node000001_Node000008" class="edge">
<title>Node1&#45;&gt;Node8</title>
<g id="a_edge7_Node000001_Node000008"><a xlink:title=" ">
<path fill="none" stroke="#63b8ff" d="M595.64,-68.64C644.77,-60.65 729.61,-46.18 801.75,-30.5 808.91,-28.95 816.54,-27.12 823.78,-25.3"/>
<polygon fill="#63b8ff" stroke="#63b8ff" points="595.35,-65.15 586.03,-70.2 596.46,-72.06 595.35,-65.15"/>
</a>
</g>
</g>
<!-- Node9 -->
<g id="Node000009" class="node">
<title>Node9</title>
<g id="a_Node000009"><a xlink:href="../../d0/d2a/write__basic__data_8c.html" target="_top" xlink:title=" ">
<polygon fill="white" stroke="#666666" points="1015,-30.5 922.5,-30.5 922.5,0 1015,0 1015,-30.5"/>
<text xml:space="preserve" text-anchor="start" x="930.5" y="-17" font-family="Helvetica,sans-Serif" font-size="10.00">src/io/write_basic</text>
<text xml:space="preserve" text-anchor="middle" x="968.75" y="-5.75" font-family="Helvetica,sans-Serif" font-size="10.00">_data.c</text>
</a>
</g>
</g>
<!-- Node1&#45;&gt;Node9 -->
<g id="edge8_Node000001_Node000009" class="edge">
<title>Node1&#45;&gt;Node9</title>
<g id="a_edge8_Node000001_Node000009"><a xlink:title=" ">
<path fill="none" stroke="#63b8ff" d="M595.54,-71.79C662.41,-65.94 799.39,-52.33 913.75,-30.5 916.46,-29.98 919.24,-29.41 922.04,-28.79"/>
<polygon fill="#63b8ff" stroke="#63b8ff" points="595.44,-68.29 585.78,-72.63 596.04,-75.26 595.44,-68.29"/>
</a>
</g>
</g>
</g>
</svg>
