<?xml version="1.0" encoding="UTF-8" standalone="no"?>
<!DOCTYPE svg PUBLIC "-//W3C//DTD SVG 1.1//EN"
 "http://www.w3.org/Graphics/SVG/1.1/DTD/svg11.dtd">
<!-- Generated by graphviz version 14.0.0 (20250921.2048)
 -->
<!-- Title: src/elph/elph_driver.c Pages: 1 -->
<!--zoomable 193 -->

<svg id="main" version="1.1" xmlns="http://www.w3.org/2000/svg" xmlns:xlink="http://www.w3.org/1999/xlink" xml:space="preserve" onload="init(evt)">

<style type="text/css"><![CDATA[
.node, .edge {opacity: 0.7;}
.node.selected, .edge.selected {opacity: 1;}
.edge:hover path { stroke: red; }
.edge:hover polygon { stroke: red; fill: red; }
]]></style>

<defs>
  <circle id="rim" cx="0" cy="0" r="7"/>
  <circle id="rim2" cx="0" cy="0" r="3.5"/>
  <g id="zoomPlus">
    <use xlink:href="#rim" fill="#404040"><set attributeName="fill" to="#808080" begin="zoomplus.mouseover" end="zoomplus.mouseout"/></use>
    <path d="M-4,0h8M0,-4v8" fill="none" stroke="white" stroke-width="1.5" pointer-events="none"/>
  </g>
  <g id="zoomMin">
    <use xlink:href="#rim" fill="#404040"><set attributeName="fill" to="#808080" begin="zoomminus.mouseover" end="zoomminus.mouseout"/></use>
    <path d="M-4,0h8" fill="none" stroke="white" stroke-width="1.5" pointer-events="none"/>
  </g>
  <g id="arrowUp" transform="translate(30 24)">
    <use xlink:href="#rim"/>
    <path pointer-events="none" fill="none" stroke="white" stroke-width="1.5" d="M0,-3.0v7 M-2.5,-0.5L0,-3.0L2.5,-0.5"/>
  </g>
  <g id="arrowRight" transform="rotate(90) translate(36 -43)">
    <use xlink:href="#rim"/>
    <path pointer-events="none" fill="none" stroke="white" stroke-width="1.5" d="M0,-3.0v7 M-2.5,-0.5L0,-3.0L2.5,-0.5"/>
  </g>
  <g id="arrowDown" transform="rotate(180) translate(-30 -48)">
    <use xlink:href="#rim"/>
    <path pointer-events="none" fill="none" stroke="white" stroke-width="1.5" d="M0,-3.0v7 M-2.5,-0.5L0,-3.0L2.5,-0.5"/>
  </g>
  <g id="arrowLeft" transform="rotate(270) translate(-36 17)">
    <use xlink:href="#rim"/>
    <path pointer-events="none" fill="none" stroke="white" stroke-width="1.5" d="M0,-3.0v7 M-2.5,-0.5L0,-3.0L2.5,-0.5"/>
  </g>
  <g id="resetDef">
    <use xlink:href="#rim2" fill="#404040"><set attributeName="fill" to="#808080" begin="reset.mouseover" end="reset.mouseout"/></use>
  </g>
</defs>
<script type="application/ecmascript">
var viewWidth = 1620;
var viewHeight = 193;
var sectionId = 'dynsection-0';
</script>
<script type="application/ecmascript" xlink:href="../../svg.min.js"/>
<svg id="graph" class="graph">
<g id="viewport">
<title>src/elph/elph_driver.c</title>
<!-- Node1 -->
<g id="Node000001" class="node">
<title>Node1</title>
<g id="a_Node000001"><a xlink:title=" ">
<polygon fill="#999999" stroke="#666666" points="984.62,-185 876.38,-185 876.38,-165.75 984.62,-165.75 984.62,-185"/>
<text xml:space="preserve" text-anchor="middle" x="930.5" y="-171.5" font-family="Helvetica,sans-Serif" font-size="10.00">src/elph/elph_driver.c</text>
</a>
</g>
</g>
<!-- Node2 -->
<g id="Node000002" class="node">
<title>Node2</title>
<g id="a_Node000002"><a xlink:title=" ">
<polygon fill="#e0e0e0" stroke="#999999" points="61,-74.5 0,-74.5 0,-55.25 61,-55.25 61,-74.5"/>
<text xml:space="preserve" text-anchor="middle" x="30.5" y="-61" font-family="Helvetica,sans-Serif" font-size="10.00">complex.h</text>
</a>
</g>
</g>
<!-- Node1&#45;&gt;Node2 -->
<g id="edge1_Node000001_Node000002" class="edge">
<title>Node1&#45;&gt;Node2</title>
<g id="a_edge1_Node000001_Node000002"><a xlink:title=" ">
<path fill="none" stroke="#63b8ff" d="M875.98,-173.03C706.52,-168.61 196.16,-153.45 125.5,-129.75 95.66,-119.74 66.37,-97.66 48.38,-82.29"/>
<polygon fill="#63b8ff" stroke="#63b8ff" points="51.02,-79.94 41.2,-75.95 46.39,-85.19 51.02,-79.94"/>
</a>
</g>
</g>
<!-- Node3 -->
<g id="Node000003" class="node">
<title>Node3</title>
<g id="a_Node000003"><a xlink:title=" ">
<polygon fill="#e0e0e0" stroke="#999999" points="125.5,-74.5 79.5,-74.5 79.5,-55.25 125.5,-55.25 125.5,-74.5"/>
<text xml:space="preserve" text-anchor="middle" x="102.5" y="-61" font-family="Helvetica,sans-Serif" font-size="10.00">fftw3.h</text>
</a>
</g>
</g>
<!-- Node1&#45;&gt;Node3 -->
<g id="edge2_Node000001_Node000003" class="edge">
<title>Node1&#45;&gt;Node3</title>
<g id="a_edge2_Node000001_Node000003"><a xlink:title=" ">
<path fill="none" stroke="#63b8ff" d="M876.09,-173.89C709.53,-172.06 214.02,-163.77 150.5,-129.75 132.38,-120.04 119.15,-100.16 111.22,-85.15"/>
<polygon fill="#63b8ff" stroke="#63b8ff" points="114.4,-83.67 106.87,-76.22 108.11,-86.74 114.4,-83.67"/>
</a>
</g>
</g>
<!-- Node4 -->
<g id="Node000004" class="node">
<title>Node4</title>
<g id="a_Node000004"><a xlink:title=" ">
<polygon fill="#e0e0e0" stroke="#999999" points="1086.12,-74.5 1034.88,-74.5 1034.88,-55.25 1086.12,-55.25 1086.12,-74.5"/>
<text xml:space="preserve" text-anchor="middle" x="1060.5" y="-61" font-family="Helvetica,sans-Serif" font-size="10.00">netcdf.h</text>
</a>
</g>
</g>
<!-- Node1&#45;&gt;Node4 -->
<g id="edge3_Node000001_Node000004" class="edge">
<title>Node1&#45;&gt;Node4</title>
<g id="a_edge3_Node000001_Node000004"><a xlink:title=" ">
<path fill="none" stroke="#63b8ff" d="M985.09,-166.2C1025.89,-158.85 1076.73,-146.6 1089.5,-129.75 1100.26,-115.56 1089.26,-96.73 1077.85,-83.2"/>
<polygon fill="#63b8ff" stroke="#63b8ff" points="1080.51,-80.92 1071.17,-75.92 1075.35,-85.65 1080.51,-80.92"/>
</a>
</g>
</g>
<!-- Node5 -->
<g id="Node000005" class="node">
<title>Node5</title>
<g id="a_Node000005"><a xlink:title=" ">
<polygon fill="#e0e0e0" stroke="#999999" points="1173.12,-74.5 1103.88,-74.5 1103.88,-55.25 1173.12,-55.25 1173.12,-74.5"/>
<text xml:space="preserve" text-anchor="middle" x="1138.5" y="-61" font-family="Helvetica,sans-Serif" font-size="10.00">netcdf_par.h</text>
</a>
</g>
</g>
<!-- Node1&#45;&gt;Node5 -->
<g id="edge4_Node000001_Node000005" class="edge">
<title>Node1&#45;&gt;Node5</title>
<g id="a_edge4_Node000001_Node000005"><a xlink:title=" ">
<path fill="none" stroke="#63b8ff" d="M984.97,-171.97C1022.38,-167.78 1071.27,-156.97 1105.5,-129.75 1119.54,-118.58 1128.22,-99.82 1133.13,-85.51"/>
<polygon fill="#63b8ff" stroke="#63b8ff" points="1136.38,-86.83 1135.96,-76.25 1129.69,-84.79 1136.38,-86.83"/>
</a>
</g>
</g>
<!-- Node6 -->
<g id="Node000006" class="node">
<title>Node6</title>
<g id="a_Node000006"><a xlink:title=" ">
<polygon fill="#e0e0e0" stroke="#999999" points="390.38,-19.25 334.62,-19.25 334.62,0 390.38,0 390.38,-19.25"/>
<text xml:space="preserve" text-anchor="middle" x="362.5" y="-5.75" font-family="Helvetica,sans-Serif" font-size="10.00">stdbool.h</text>
</a>
</g>
</g>
<!-- Node1&#45;&gt;Node6 -->
<g id="edge5_Node000001_Node000006" class="edge">
<title>Node1&#45;&gt;Node6</title>
<g id="a_edge5_Node000001_Node000006"><a xlink:title=" ">
<path fill="none" stroke="#63b8ff" d="M875.88,-174.74C727.83,-175.17 327.24,-172.35 287.5,-129.75 256.98,-97.04 308.46,-50.2 340.27,-26.16"/>
<polygon fill="#63b8ff" stroke="#63b8ff" points="342.18,-29.1 348.18,-20.37 338.04,-23.45 342.18,-29.1"/>
</a>
</g>
</g>
<!-- Node7 -->
<g id="Node000007" class="node">
<title>Node7</title>
<g id="a_Node000007"><a xlink:title=" ">
<polygon fill="#e0e0e0" stroke="#999999" points="871.12,-74.5 825.88,-74.5 825.88,-55.25 871.12,-55.25 871.12,-74.5"/>
<text xml:space="preserve" text-anchor="middle" x="848.5" y="-61" font-family="Helvetica,sans-Serif" font-size="10.00">stdio.h</text>
</a>
</g>
</g>
<!-- Node1&#45;&gt;Node7 -->
<g id="edge6_Node000001_Node000007" class="edge">
<title>Node1&#45;&gt;Node7</title>
<g id="a_edge6_Node000001_Node000007"><a xlink:title=" ">
<path fill="none" stroke="#63b8ff" d="M950.54,-165.32C973.83,-153.53 1007.22,-131.87 991.5,-110.5 988.15,-105.95 923.53,-87.04 882.32,-75.34"/>
<polygon fill="#63b8ff" stroke="#63b8ff" points="883.42,-72.01 872.84,-72.66 881.51,-78.75 883.42,-72.01"/>
</a>
</g>
</g>
<!-- Node8 -->
<g id="Node000008" class="node">
<title>Node8</title>
<g id="a_Node000008"><a xlink:title=" ">
<polygon fill="#e0e0e0" stroke="#999999" points="1315.25,-129.75 1267.75,-129.75 1267.75,-110.5 1315.25,-110.5 1315.25,-129.75"/>
<text xml:space="preserve" text-anchor="middle" x="1291.5" y="-116.25" font-family="Helvetica,sans-Serif" font-size="10.00">stdlib.h</text>
</a>
</g>
</g>
<!-- Node1&#45;&gt;Node8 -->
<g id="edge7_Node000001_Node000008" class="edge">
<title>Node1&#45;&gt;Node8</title>
<g id="a_edge7_Node000001_Node000008"><a xlink:title=" ">
<path fill="none" stroke="#63b8ff" d="M985.02,-168.29C1049.42,-160.77 1159.66,-146.85 1253.5,-129.75 1254.49,-129.57 1255.49,-129.38 1256.5,-129.19"/>
<polygon fill="#63b8ff" stroke="#63b8ff" points="1256.88,-132.68 1265.96,-127.22 1255.46,-125.83 1256.88,-132.68"/>
</a>
</g>
</g>
<!-- Node9 -->
<g id="Node000009" class="node">
<title>Node9</title>
<g id="a_Node000009"><a xlink:title=" ">
<polygon fill="#e0e0e0" stroke="#999999" points="1381.62,-129.75 1333.38,-129.75 1333.38,-110.5 1381.62,-110.5 1381.62,-129.75"/>
<text xml:space="preserve" text-anchor="middle" x="1357.5" y="-116.25" font-family="Helvetica,sans-Serif" font-size="10.00">string.h</text>
</a>
</g>
</g>
<!-- Node1&#45;&gt;Node9 -->
<g id="edge8_Node000001_Node000009" class="edge">
<title>Node1&#45;&gt;Node9</title>
<g id="a_edge8_Node000001_Node000009"><a xlink:title=" ">
<path fill="none" stroke="#63b8ff" d="M985.04,-170.67C1059.25,-165.09 1196.33,-152.85 1322.11,-129.95"/>
<polygon fill="#63b8ff" stroke="#63b8ff" points="1322.39,-133.46 1331.59,-128.2 1321.12,-126.58 1322.39,-133.46"/>
</a>
</g>
</g>
<!-- Node10 -->
<g id="Node000010" class="node">
<title>Node10</title>
<g id="a_Node000010"><a xlink:href="../../de/d83/_e_l_p_h__timers_8h.html" target="_top" xlink:title=" ">
<polygon fill="white" stroke="#666666" points="1523.12,-129.75 1399.88,-129.75 1399.88,-110.5 1523.12,-110.5 1523.12,-129.75"/>
<text xml:space="preserve" text-anchor="middle" x="1461.5" y="-116.25" font-family="Helvetica,sans-Serif" font-size="10.00">common/ELPH_timers.h</text>
</a>
</g>
</g>
<!-- Node1&#45;&gt;Node10 -->
<g id="edge9_Node000001_Node000010" class="edge">
<title>Node1&#45;&gt;Node10</title>
<g id="a_edge9_Node000001_Node000010"><a xlink:title=" ">
<path fill="none" stroke="#63b8ff" d="M985.07,-169.51C1069.15,-161.92 1235.75,-146.51 1388.14,-129.98"/>
<polygon fill="#63b8ff" stroke="#63b8ff" points="1388.49,-133.47 1398.05,-128.9 1387.73,-126.51 1388.49,-133.47"/>
</a>
</g>
</g>
<!-- Node11 -->
<g id="Node000011" class="node">
<title>Node11</title>
<g id="a_Node000011"><a xlink:href="../../d2/d02/dtypes_8h.html" target="_top" xlink:title=" ">
<polygon fill="white" stroke="#666666" points="655.5,-74.5 561.5,-74.5 561.5,-55.25 655.5,-55.25 655.5,-74.5"/>
<text xml:space="preserve" text-anchor="middle" x="608.5" y="-61" font-family="Helvetica,sans-Serif" font-size="10.00">common/dtypes.h</text>
</a>
</g>
</g>
<!-- Node1&#45;&gt;Node11 -->
<g id="edge10_Node000001_Node000011" class="edge">
<title>Node1&#45;&gt;Node11</title>
<g id="a_edge10_Node000001_Node000011"><a xlink:title=" ">
<path fill="none" stroke="#63b8ff" d="M875.97,-173.41C798.39,-170.89 661.55,-161.89 625.5,-129.75 613.31,-118.88 609.42,-100.36 608.37,-86.05"/>
<polygon fill="#63b8ff" stroke="#63b8ff" points="611.88,-86.26 608.08,-76.37 604.88,-86.47 611.88,-86.26"/>
</a>
</g>
</g>
<!-- Node13 -->
<g id="Node000013" class="node">
<title>Node13</title>
<g id="a_Node000013"><a xlink:href="../../d4/d0a/elph_c_8h.html" target="_top" xlink:title="Core type definitions and configuration for LetzElPhC.">
<polygon fill="white" stroke="#666666" points="721.38,-19.25 671.62,-19.25 671.62,0 721.38,0 721.38,-19.25"/>
<text xml:space="preserve" text-anchor="middle" x="696.5" y="-5.75" font-family="Helvetica,sans-Serif" font-size="10.00">elphC.h</text>
</a>
</g>
</g>
<!-- Node1&#45;&gt;Node13 -->
<g id="edge36_Node000001_Node000013" class="edge">
<title>Node1&#45;&gt;Node13</title>
<g id="a_edge36_Node000001_Node000013"><a xlink:title=" ">
<path fill="none" stroke="#63b8ff" d="M984.83,-168.2C1076.09,-155.81 1244.39,-123.08 1182.5,-55.25 1152.33,-22.18 840.79,-13.3 732.98,-11.21"/>
<polygon fill="#63b8ff" stroke="#63b8ff" points="733.31,-7.71 723.25,-11.03 733.18,-14.71 733.31,-7.71"/>
</a>
</g>
</g>
<!-- Node14 -->
<g id="Node000014" class="node">
<title>Node14</title>
<g id="a_Node000014"><a xlink:href="../../da/d41/error_8h.html" target="_top" xlink:title=" ">
<polygon fill="white" stroke="#666666" points="1021,-19.25 978,-19.25 978,0 1021,0 1021,-19.25"/>
<text xml:space="preserve" text-anchor="middle" x="999.5" y="-5.75" font-family="Helvetica,sans-Serif" font-size="10.00">error.h</text>
</a>
</g>
</g>
<!-- Node1&#45;&gt;Node14 -->
<g id="edge15_Node000001_Node000014" class="edge">
<title>Node1&#45;&gt;Node14</title>
<g id="a_edge15_Node000001_Node000014"><a xlink:title=" ">
<path fill="none" stroke="#63b8ff" d="M985.05,-173.92C1059.34,-172.01 1186.44,-163.71 1215.5,-129.75 1237.03,-104.59 1236.41,-80.92 1215.5,-55.25 1192.8,-27.38 1087.24,-16.39 1032.55,-12.51"/>
<polygon fill="#63b8ff" stroke="#63b8ff" points="1033.11,-9.04 1022.9,-11.86 1032.64,-16.02 1033.11,-9.04"/>
</a>
</g>
</g>
<!-- Node15 -->
<g id="Node000015" class="node">
<title>Node15</title>
<g id="a_Node000015"><a xlink:href="../../df/ded/init__dtypes_8h.html" target="_top" xlink:title=" ">
<polygon fill="white" stroke="#666666" points="860.5,-129.75 748.5,-129.75 748.5,-110.5 860.5,-110.5 860.5,-129.75"/>
<text xml:space="preserve" text-anchor="middle" x="804.5" y="-116.25" font-family="Helvetica,sans-Serif" font-size="10.00">common/init_dtypes.h</text>
</a>
</g>
</g>
<!-- Node1&#45;&gt;Node15 -->
<g id="edge16_Node000001_Node000015" class="edge">
<title>Node1&#45;&gt;Node15</title>
<g id="a_edge16_Node000001_Node000015"><a xlink:title=" ">
<path fill="none" stroke="#63b8ff" d="M909.13,-165.34C889.21,-156.93 859.26,-144.27 836.5,-134.65"/>
<polygon fill="#63b8ff" stroke="#63b8ff" points="837.95,-131.46 827.37,-130.79 835.22,-137.91 837.95,-131.46"/>
</a>
</g>
</g>
<!-- Node16 -->
<g id="Node000016" class="node">
<title>Node16</title>
<g id="a_Node000016"><a xlink:href="../../df/d5c/parallel_8h.html" target="_top" xlink:title=" ">
<polygon fill="white" stroke="#666666" points="730.25,-129.75 634.75,-129.75 634.75,-110.5 730.25,-110.5 730.25,-129.75"/>
<text xml:space="preserve" text-anchor="middle" x="682.5" y="-116.25" font-family="Helvetica,sans-Serif" font-size="10.00">common/parallel.h</text>
</a>
</g>
</g>
<!-- Node1&#45;&gt;Node16 -->
<g id="edge19_Node000001_Node000016" class="edge">
<title>Node1&#45;&gt;Node16</title>
<g id="a_edge19_Node000001_Node000016"><a xlink:title=" ">
<path fill="none" stroke="#63b8ff" d="M888.15,-165.28C846.06,-156.24 781.39,-142.36 735.82,-132.57"/>
<polygon fill="#63b8ff" stroke="#63b8ff" points="736.67,-129.18 726.16,-130.5 735.2,-136.02 736.67,-129.18"/>
</a>
</g>
</g>
<!-- Node17 -->
<g id="Node000017" class="node">
<title>Node17</title>
<g id="a_Node000017"><a xlink:href="../../dd/de4/print__info_8h.html" target="_top" xlink:title=" ">
<polygon fill="white" stroke="#666666" points="982.75,-129.75 878.25,-129.75 878.25,-110.5 982.75,-110.5 982.75,-129.75"/>
<text xml:space="preserve" text-anchor="middle" x="930.5" y="-116.25" font-family="Helvetica,sans-Serif" font-size="10.00">common/print_info.h</text>
</a>
</g>
</g>
<!-- Node1&#45;&gt;Node17 -->
<g id="edge23_Node000001_Node000017" class="edge">
<title>Node1&#45;&gt;Node17</title>
<g id="a_edge23_Node000001_Node000017"><a xlink:title=" ">
<path fill="none" stroke="#63b8ff" d="M930.5,-165.58C930.5,-159.07 930.5,-149.92 930.5,-141.62"/>
<polygon fill="#63b8ff" stroke="#63b8ff" points="934,-141.62 930.5,-131.62 927,-141.62 934,-141.62"/>
</a>
</g>
</g>
<!-- Node18 -->
<g id="Node000018" class="node">
<title>Node18</title>
<g id="a_Node000018"><a xlink:href="../../d8/dc9/dvloc_8h.html" target="_top" xlink:title=" ">
<polygon fill="white" stroke="#666666" points="430.38,-129.75 356.62,-129.75 356.62,-110.5 430.38,-110.5 430.38,-129.75"/>
<text xml:space="preserve" text-anchor="middle" x="393.5" y="-116.25" font-family="Helvetica,sans-Serif" font-size="10.00">dvloc/dvloc.h</text>
</a>
</g>
</g>
<!-- Node1&#45;&gt;Node18 -->
<g id="edge27_Node000001_Node000018" class="edge">
<title>Node1&#45;&gt;Node18</title>
<g id="a_edge27_Node000001_Node000018"><a xlink:title=" ">
<path fill="none" stroke="#63b8ff" d="M876.18,-171.13C787.48,-165.45 605.8,-152.29 442.11,-129.99"/>
<polygon fill="#63b8ff" stroke="#63b8ff" points="442.74,-126.54 432.36,-128.64 441.79,-133.48 442.74,-126.54"/>
</a>
</g>
</g>
<!-- Node19 -->
<g id="Node000019" class="node">
<title>Node19</title>
<g id="a_Node000019"><a xlink:href="../../dc/d69/elph_8h.html" target="_top" xlink:title=" ">
<polygon fill="white" stroke="#666666" points="338.62,-129.75 296.38,-129.75 296.38,-110.5 338.62,-110.5 338.62,-129.75"/>
<text xml:space="preserve" text-anchor="middle" x="317.5" y="-116.25" font-family="Helvetica,sans-Serif" font-size="10.00">elph.h</text>
</a>
</g>
</g>
<!-- Node1&#45;&gt;Node19 -->
<g id="edge31_Node000001_Node000019" class="edge">
<title>Node1&#45;&gt;Node19</title>
<g id="a_edge31_Node000001_Node000019"><a xlink:title=" ">
<path fill="none" stroke="#63b8ff" d="M876.18,-173.89C774.48,-172.2 548.41,-164.67 350.22,-129.88"/>
<polygon fill="#63b8ff" stroke="#63b8ff" points="350.96,-126.45 340.5,-128.14 349.72,-133.35 350.96,-126.45"/>
</a>
</g>
</g>
<!-- Node20 -->
<g id="Node000020" class="node">
<title>Node20</title>
<g id="a_Node000020"><a xlink:href="../../d7/d76/fft_8h.html" target="_top" xlink:title=" ">
<polygon fill="white" stroke="#666666" points="205.12,-129.75 159.88,-129.75 159.88,-110.5 205.12,-110.5 205.12,-129.75"/>
<text xml:space="preserve" text-anchor="middle" x="182.5" y="-116.25" font-family="Helvetica,sans-Serif" font-size="10.00">fft/fft.h</text>
</a>
</g>
</g>
<!-- Node1&#45;&gt;Node20 -->
<g id="edge37_Node000001_Node000020" class="edge">
<title>Node1&#45;&gt;Node20</title>
<g id="a_edge37_Node000001_Node000020"><a xlink:title=" ">
<path fill="none" stroke="#63b8ff" d="M876.01,-171.8C760.9,-166.15 484.54,-151.38 253.5,-129.75 241.45,-128.62 228.28,-127.1 216.59,-125.65"/>
<polygon fill="#63b8ff" stroke="#63b8ff" points="217.35,-122.22 206.99,-124.43 216.47,-129.17 217.35,-122.22"/>
</a>
</g>
</g>
<!-- Node21 -->
<g id="Node000021" class="node">
<title>Node21</title>
<g id="a_Node000021"><a xlink:href="../../dc/dac/io_8h.html" target="_top" xlink:title=" ">
<polygon fill="white" stroke="#666666" points="1080.62,-129.75 1038.38,-129.75 1038.38,-110.5 1080.62,-110.5 1080.62,-129.75"/>
<text xml:space="preserve" text-anchor="middle" x="1059.5" y="-116.25" font-family="Helvetica,sans-Serif" font-size="10.00">io/io.h</text>
</a>
</g>
</g>
<!-- Node1&#45;&gt;Node21 -->
<g id="edge43_Node000001_Node000021" class="edge">
<title>Node1&#45;&gt;Node21</title>
<g id="a_edge43_Node000001_Node000021"><a xlink:title=" ">
<path fill="none" stroke="#63b8ff" d="M952.38,-165.34C972.99,-156.84 1004.09,-144 1027.48,-134.34"/>
<polygon fill="#63b8ff" stroke="#63b8ff" points="1028.63,-137.65 1036.54,-130.6 1025.96,-131.18 1028.63,-137.65"/>
</a>
</g>
</g>
<!-- Node23 -->
<g id="Node000023" class="node">
<title>Node23</title>
<g id="a_Node000023"><a xlink:title=" ">
<polygon fill="#e0e0e0" stroke="#999999" points="1612.25,-129.75 1540.75,-129.75 1540.75,-110.5 1612.25,-110.5 1612.25,-129.75"/>
<text xml:space="preserve" text-anchor="middle" x="1576.5" y="-116.25" font-family="Helvetica,sans-Serif" font-size="10.00">io/qe/qe_io.h</text>
</a>
</g>
</g>
<!-- Node1&#45;&gt;Node23 -->
<g id="edge50_Node000001_Node000023" class="edge">
<title>Node1&#45;&gt;Node23</title>
<g id="a_edge50_Node000001_Node000023"><a xlink:title=" ">
<path fill="none" stroke="#63b8ff" d="M985.1,-172.51C1089.14,-168.5 1323.13,-157.18 1529.2,-130.05"/>
<polygon fill="#63b8ff" stroke="#63b8ff" points="1529.59,-133.53 1539.04,-128.74 1528.66,-126.59 1529.59,-133.53"/>
</a>
</g>
</g>
<!-- Node24 -->
<g id="Node000024" class="node">
<title>Node24</title>
<g id="a_Node000024"><a xlink:href="../../dc/dec/symmetries_8h.html" target="_top" xlink:title=" ">
<polygon fill="white" stroke="#666666" points="578.12,-129.75 448.88,-129.75 448.88,-110.5 578.12,-110.5 578.12,-129.75"/>
<text xml:space="preserve" text-anchor="middle" x="513.5" y="-116.25" font-family="Helvetica,sans-Serif" font-size="10.00">symmetries/symmetries.h</text>
</a>
</g>
</g>
<!-- Node1&#45;&gt;Node24 -->
<g id="edge51_Node000001_Node000024" class="edge">
<title>Node1&#45;&gt;Node24</title>
<g id="a_edge51_Node000001_Node000024"><a xlink:title=" ">
<path fill="none" stroke="#63b8ff" d="M875.98,-167.41C802.82,-158.07 672.5,-141.43 589.67,-130.85"/>
<polygon fill="#63b8ff" stroke="#63b8ff" points="590.17,-127.39 579.81,-129.59 589.28,-134.33 590.17,-127.39"/>
</a>
</g>
</g>
<!-- Node11&#45;&gt;Node6 -->
<g id="edge12_Node000011_Node000006" class="edge">
<title>Node11&#45;&gt;Node6</title>
<g id="a_edge12_Node000011_Node000006"><a xlink:title=" ">
<path fill="none" stroke="#63b8ff" d="M566.49,-54.78C520.29,-44.78 446.64,-28.84 401.62,-19.09"/>
<polygon fill="#63b8ff" stroke="#63b8ff" points="402.54,-15.71 392.03,-17.02 401.06,-22.55 402.54,-15.71"/>
</a>
</g>
</g>
<!-- Node12 -->
<g id="Node000012" class="node">
<title>Node12</title>
<g id="a_Node000012"><a xlink:title=" ">
<polygon fill="#e0e0e0" stroke="#999999" points="628.5,-19.25 588.5,-19.25 588.5,0 628.5,0 628.5,-19.25"/>
<text xml:space="preserve" text-anchor="middle" x="608.5" y="-5.75" font-family="Helvetica,sans-Serif" font-size="10.00">mpi.h</text>
</a>
</g>
</g>
<!-- Node11&#45;&gt;Node12 -->
<g id="edge11_Node000011_Node000012" class="edge">
<title>Node11&#45;&gt;Node12</title>
<g id="a_edge11_Node000011_Node000012"><a xlink:title=" ">
<path fill="none" stroke="#63b8ff" d="M608.5,-55.08C608.5,-48.57 608.5,-39.42 608.5,-31.12"/>
<polygon fill="#63b8ff" stroke="#63b8ff" points="612,-31.12 608.5,-21.12 605,-31.12 612,-31.12"/>
</a>
</g>
</g>
<!-- Node11&#45;&gt;Node13 -->
<g id="edge13_Node000011_Node000013" class="edge">
<title>Node11&#45;&gt;Node13</title>
<g id="a_edge13_Node000011_Node000013"><a xlink:title=" ">
<path fill="none" stroke="#63b8ff" d="M623.43,-54.84C636.7,-46.81 656.37,-34.91 671.95,-25.48"/>
<polygon fill="#63b8ff" stroke="#63b8ff" points="673.46,-28.66 680.2,-20.49 669.84,-22.67 673.46,-28.66"/>
</a>
</g>
</g>
<!-- Node11&#45;&gt;Node14 -->
<g id="edge14_Node000011_Node000014" class="edge">
<title>Node11&#45;&gt;Node14</title>
<g id="a_edge14_Node000011_Node000014"><a xlink:title=" ">
<path fill="none" stroke="#63b8ff" d="M655.66,-57.45C735.92,-46.52 897.09,-24.57 966.48,-15.12"/>
<polygon fill="#63b8ff" stroke="#63b8ff" points="966.64,-18.63 976.07,-13.82 965.69,-11.7 966.64,-18.63"/>
</a>
</g>
</g>
<!-- Node15&#45;&gt;Node11 -->
<g id="edge17_Node000015_Node000011" class="edge">
<title>Node15&#45;&gt;Node11</title>
<g id="a_edge17_Node000015_Node000011"><a xlink:title=" ">
<path fill="none" stroke="#63b8ff" d="M771.25,-110.09C738.59,-101.22 688.56,-87.62 652.59,-77.85"/>
<polygon fill="#63b8ff" stroke="#63b8ff" points="653.94,-74.59 643.37,-75.35 652.1,-81.35 653.94,-74.59"/>
</a>
</g>
</g>
<!-- Node15&#45;&gt;Node13 -->
<g id="edge18_Node000015_Node000013" class="edge">
<title>Node15&#45;&gt;Node13</title>
<g id="a_edge18_Node000015_Node000013"><a xlink:title=" ">
<path fill="none" stroke="#63b8ff" d="M795.66,-110.25C777.7,-92.21 736.69,-51 713.42,-27.63"/>
<polygon fill="#63b8ff" stroke="#63b8ff" points="716.06,-25.32 706.53,-20.7 711.1,-30.26 716.06,-25.32"/>
</a>
</g>
</g>
<!-- Node16&#45;&gt;Node11 -->
<g id="edge21_Node000016_Node000011" class="edge">
<title>Node16&#45;&gt;Node11</title>
<g id="a_edge21_Node000016_Node000011"><a xlink:title=" ">
<path fill="none" stroke="#63b8ff" d="M669.95,-110.09C659.04,-102.24 643,-90.7 630.04,-81.37"/>
<polygon fill="#63b8ff" stroke="#63b8ff" points="632.26,-78.66 622.1,-75.66 628.17,-84.34 632.26,-78.66"/>
</a>
</g>
</g>
<!-- Node16&#45;&gt;Node12 -->
<g id="edge20_Node000016_Node000012" class="edge">
<title>Node16&#45;&gt;Node12</title>
<g id="a_edge20_Node000016_Node000012"><a xlink:title=" ">
<path fill="none" stroke="#63b8ff" d="M681.72,-110.15C680.21,-97.09 675.97,-72.52 664.5,-55.25 656.76,-43.6 645,-33.56 634.25,-25.98"/>
<polygon fill="#63b8ff" stroke="#63b8ff" points="636.34,-23.17 626.07,-20.56 632.48,-29 636.34,-23.17"/>
</a>
</g>
</g>
<!-- Node16&#45;&gt;Node13 -->
<g id="edge22_Node000016_Node000013" class="edge">
<title>Node16&#45;&gt;Node13</title>
<g id="a_edge22_Node000016_Node000013"><a xlink:title=" ">
<path fill="none" stroke="#63b8ff" d="M686.5,-110.12C690.19,-101.26 695.42,-87.24 697.5,-74.5 699.89,-59.89 699.52,-43.15 698.61,-30.47"/>
<polygon fill="#63b8ff" stroke="#63b8ff" points="702.13,-30.53 697.75,-20.88 695.16,-31.16 702.13,-30.53"/>
</a>
</g>
</g>
<!-- Node17&#45;&gt;Node7 -->
<g id="edge24_Node000017_Node000007" class="edge">
<title>Node17&#45;&gt;Node7</title>
<g id="a_edge24_Node000017_Node000007"><a xlink:title=" ">
<path fill="none" stroke="#63b8ff" d="M916.59,-110.09C904.34,-102.14 886.25,-90.39 871.79,-81"/>
<polygon fill="#63b8ff" stroke="#63b8ff" points="874.04,-78.29 863.75,-75.78 870.23,-84.16 874.04,-78.29"/>
</a>
</g>
</g>
<!-- Node17&#45;&gt;Node11 -->
<g id="edge25_Node000017_Node000011" class="edge">
<title>Node17&#45;&gt;Node11</title>
<g id="a_edge25_Node000017_Node000011"><a xlink:title=" ">
<path fill="none" stroke="#63b8ff" d="M878.05,-110.45C820.21,-100.89 727.37,-85.53 667.16,-75.58"/>
<polygon fill="#63b8ff" stroke="#63b8ff" points="667.87,-72.15 657.44,-73.97 666.73,-79.05 667.87,-72.15"/>
</a>
</g>
</g>
<!-- Node17&#45;&gt;Node13 -->
<g id="edge26_Node000017_Node000013" class="edge">
<title>Node17&#45;&gt;Node13</title>
<g id="a_edge26_Node000017_Node000013"><a xlink:title=" ">
<path fill="none" stroke="#63b8ff" d="M904.79,-110.03C881.45,-101.55 846.24,-88.18 816.5,-74.5 783.07,-59.12 745.84,-38.78 721.85,-25.23"/>
<polygon fill="#63b8ff" stroke="#63b8ff" points="723.86,-22.34 713.44,-20.44 720.4,-28.43 723.86,-22.34"/>
</a>
</g>
</g>
<!-- Node18&#45;&gt;Node6 -->
<g id="edge28_Node000018_Node000006" class="edge">
<title>Node18&#45;&gt;Node6</title>
<g id="a_edge28_Node000018_Node000006"><a xlink:title=" ">
<path fill="none" stroke="#63b8ff" d="M390.96,-110.25C386.01,-92.92 374.96,-54.23 368.17,-30.49"/>
<polygon fill="#63b8ff" stroke="#63b8ff" points="371.6,-29.74 365.49,-21.08 364.87,-31.66 371.6,-29.74"/>
</a>
</g>
</g>
<!-- Node18&#45;&gt;Node11 -->
<g id="edge29_Node000018_Node000011" class="edge">
<title>Node18&#45;&gt;Node11</title>
<g id="a_edge29_Node000018_Node000011"><a xlink:title=" ">
<path fill="none" stroke="#63b8ff" d="M429.97,-110.09C466.03,-101.16 521.4,-87.45 560.9,-77.66"/>
<polygon fill="#63b8ff" stroke="#63b8ff" points="561.51,-81.12 570.38,-75.32 559.83,-74.32 561.51,-81.12"/>
</a>
</g>
</g>
<!-- Node18&#45;&gt;Node13 -->
<g id="edge30_Node000018_Node000013" class="edge">
<title>Node18&#45;&gt;Node13</title>
<g id="a_edge30_Node000018_Node000013"><a xlink:title=" ">
<path fill="none" stroke="#63b8ff" d="M410.53,-110.1C436.2,-96.75 486.59,-71.58 531.5,-55.25 574.78,-39.51 626.23,-26.45 660.03,-18.61"/>
<polygon fill="#63b8ff" stroke="#63b8ff" points="660.77,-22.03 669.74,-16.4 659.21,-15.21 660.77,-22.03"/>
</a>
</g>
</g>
<!-- Node19&#45;&gt;Node6 -->
<g id="edge33_Node000019_Node000006" class="edge">
<title>Node19&#45;&gt;Node6</title>
<g id="a_edge33_Node000019_Node000006"><a xlink:title=" ">
<path fill="none" stroke="#63b8ff" d="M317.93,-110.08C318.81,-97.35 321.47,-73.66 329.5,-55.25 333.72,-45.56 340.39,-35.98 346.62,-28.2"/>
<polygon fill="#63b8ff" stroke="#63b8ff" points="349.29,-30.47 353.1,-20.58 343.96,-25.93 349.29,-30.47"/>
</a>
</g>
</g>
<!-- Node19&#45;&gt;Node11 -->
<g id="edge34_Node000019_Node000011" class="edge">
<title>Node19&#45;&gt;Node11</title>
<g id="a_edge34_Node000019_Node000011"><a xlink:title=" ">
<path fill="none" stroke="#63b8ff" d="M339.06,-112.62C341.88,-111.86 344.75,-111.13 347.5,-110.5 416.39,-94.76 496.65,-81.83 549.79,-74.01"/>
<polygon fill="#63b8ff" stroke="#63b8ff" points="550.15,-77.5 559.54,-72.6 549.14,-70.57 550.15,-77.5"/>
</a>
</g>
</g>
<!-- Node19&#45;&gt;Node12 -->
<g id="edge32_Node000019_Node000012" class="edge">
<title>Node19&#45;&gt;Node12</title>
<g id="a_edge32_Node000019_Node000012"><a xlink:title=" ">
<path fill="none" stroke="#63b8ff" d="M321.65,-110.45C328.85,-96.39 345.1,-68.83 367.5,-55.25 402.32,-34.15 519.78,-19.65 576.85,-13.68"/>
<polygon fill="#63b8ff" stroke="#63b8ff" points="576.96,-17.19 586.55,-12.69 576.25,-10.23 576.96,-17.19"/>
</a>
</g>
</g>
<!-- Node19&#45;&gt;Node13 -->
<g id="edge35_Node000019_Node000013" class="edge">
<title>Node19&#45;&gt;Node13</title>
<g id="a_edge35_Node000019_Node000013"><a xlink:title=" ">
<path fill="none" stroke="#63b8ff" d="M337.57,-110.05C368.12,-96.53 428.33,-71 481.5,-55.25 543.14,-36.99 616.87,-23.42 660.01,-16.29"/>
<polygon fill="#63b8ff" stroke="#63b8ff" points="660.53,-19.75 669.84,-14.69 659.41,-12.84 660.53,-19.75"/>
</a>
</g>
</g>
<!-- Node20&#45;&gt;Node2 -->
<g id="edge39_Node000020_Node000002" class="edge">
<title>Node20&#45;&gt;Node2</title>
<g id="a_edge39_Node000020_Node000002"><a xlink:title=" ">
<path fill="none" stroke="#63b8ff" d="M159.41,-111.04C134.93,-102.46 95.89,-88.78 67.18,-78.73"/>
<polygon fill="#63b8ff" stroke="#63b8ff" points="68.38,-75.44 57.78,-75.43 66.06,-82.04 68.38,-75.44"/>
</a>
</g>
</g>
<!-- Node20&#45;&gt;Node3 -->
<g id="edge40_Node000020_Node000003" class="edge">
<title>Node20&#45;&gt;Node3</title>
<g id="a_edge40_Node000020_Node000003"><a xlink:title=" ">
<path fill="none" stroke="#63b8ff" d="M168.93,-110.09C157.09,-102.21 139.66,-90.61 125.63,-81.27"/>
<polygon fill="#63b8ff" stroke="#63b8ff" points="127.66,-78.42 117.4,-75.79 123.78,-84.25 127.66,-78.42"/>
</a>
</g>
</g>
<!-- Node20&#45;&gt;Node6 -->
<g id="edge42_Node000020_Node000006" class="edge">
<title>Node20&#45;&gt;Node6</title>
<g id="a_edge42_Node000020_Node000006"><a xlink:title=" ">
<path fill="none" stroke="#63b8ff" d="M178.35,-110.19C172.79,-96.73 164.98,-71.16 177.5,-55.25 195.25,-32.71 274.07,-20.21 322.92,-14.51"/>
<polygon fill="#63b8ff" stroke="#63b8ff" points="323.29,-17.99 332.84,-13.4 322.51,-11.03 323.29,-17.99"/>
</a>
</g>
</g>
<!-- Node20&#45;&gt;Node12 -->
<g id="edge41_Node000020_Node000012" class="edge">
<title>Node20&#45;&gt;Node12</title>
<g id="a_edge41_Node000020_Node000012"><a xlink:title=" ">
<path fill="none" stroke="#63b8ff" d="M184.27,-110.36C187.63,-96.17 196.38,-68.43 215.5,-55.25 245.06,-34.87 488.67,-18 576.82,-12.51"/>
<polygon fill="#63b8ff" stroke="#63b8ff" points="576.91,-16.01 586.67,-11.91 576.48,-9.03 576.91,-16.01"/>
</a>
</g>
</g>
<!-- Node20&#45;&gt;Node13 -->
<g id="edge38_Node000020_Node000013" class="edge">
<title>Node20&#45;&gt;Node13</title>
<g id="a_edge38_Node000020_Node000013"><a xlink:title=" ">
<path fill="none" stroke="#63b8ff" d="M205.49,-112.19C248.01,-99.56 341.97,-72.48 422.5,-55.25 467.31,-45.66 596.74,-25.69 660.35,-16.06"/>
<polygon fill="#63b8ff" stroke="#63b8ff" points="660.56,-19.57 669.93,-14.61 659.52,-12.64 660.56,-19.57"/>
</a>
</g>
</g>
<!-- Node21&#45;&gt;Node4 -->
<g id="edge45_Node000021_Node000004" class="edge">
<title>Node21&#45;&gt;Node4</title>
<g id="a_edge45_Node000021_Node000004"><a xlink:title=" ">
<path fill="none" stroke="#63b8ff" d="M1059.67,-110.33C1059.79,-103.82 1059.96,-94.67 1060.12,-86.37"/>
<polygon fill="#63b8ff" stroke="#63b8ff" points="1063.61,-86.44 1060.3,-76.37 1056.62,-86.3 1063.61,-86.44"/>
</a>
</g>
</g>
<!-- Node21&#45;&gt;Node5 -->
<g id="edge46_Node000021_Node000005" class="edge">
<title>Node21&#45;&gt;Node5</title>
<g id="a_edge46_Node000021_Node000005"><a xlink:title=" ">
<path fill="none" stroke="#63b8ff" d="M1072.9,-110.09C1084.59,-102.21 1101.8,-90.61 1115.66,-81.27"/>
<polygon fill="#63b8ff" stroke="#63b8ff" points="1117.44,-84.29 1123.78,-75.8 1113.53,-78.49 1117.44,-84.29"/>
</a>
</g>
</g>
<!-- Node21&#45;&gt;Node11 -->
<g id="edge48_Node000021_Node000011" class="edge">
<title>Node21&#45;&gt;Node11</title>
<g id="a_edge48_Node000021_Node000011"><a xlink:title=" ">
<path fill="none" stroke="#63b8ff" d="M1038.07,-116.35C1024.69,-114.63 1007.09,-112.4 991.5,-110.5 876.62,-96.52 742.24,-81.07 667.08,-72.51"/>
<polygon fill="#63b8ff" stroke="#63b8ff" points="667.82,-69.07 657.49,-71.42 667.03,-76.03 667.82,-69.07"/>
</a>
</g>
</g>
<!-- Node21&#45;&gt;Node12 -->
<g id="edge44_Node000021_Node000012" class="edge">
<title>Node21&#45;&gt;Node12</title>
<g id="a_edge44_Node000021_Node000012"><a xlink:title=" ">
<path fill="none" stroke="#63b8ff" d="M1043.86,-110.08C1028.3,-101.07 1003.74,-86.85 982.5,-74.5 967.82,-65.97 965.58,-60.69 949.5,-55.25 827.73,-14.03 789.77,-37.39 662.5,-19.25 655.31,-18.22 647.59,-17.04 640.31,-15.89"/>
<polygon fill="#63b8ff" stroke="#63b8ff" points="640.91,-12.44 630.48,-14.3 639.8,-19.35 640.91,-12.44"/>
</a>
</g>
</g>
<!-- Node21&#45;&gt;Node13 -->
<g id="edge49_Node000021_Node000013" class="edge">
<title>Node21&#45;&gt;Node13</title>
<g id="a_edge49_Node000021_Node000013"><a xlink:title=" ">
<path fill="none" stroke="#63b8ff" d="M1051.98,-110.39C1039.25,-96.23 1011.95,-68.53 982.5,-55.25 899.06,-17.62 789.58,-10.95 733.35,-10.23"/>
<polygon fill="#63b8ff" stroke="#63b8ff" points="733.4,-6.73 723.38,-10.17 733.36,-13.73 733.4,-6.73"/>
</a>
</g>
</g>
<!-- Node22 -->
<g id="Node000022" class="node">
<title>Node22</title>
<g id="a_Node000022"><a xlink:title=" ">
<polygon fill="#e0e0e0" stroke="#999999" points="940.12,-74.5 888.88,-74.5 888.88,-55.25 940.12,-55.25 940.12,-74.5"/>
<text xml:space="preserve" text-anchor="middle" x="914.5" y="-61" font-family="Helvetica,sans-Serif" font-size="10.00">stddef.h</text>
</a>
</g>
</g>
<!-- Node21&#45;&gt;Node22 -->
<g id="edge47_Node000021_Node000022" class="edge">
<title>Node21&#45;&gt;Node22</title>
<g id="a_edge47_Node000021_Node000022"><a xlink:title=" ">
<path fill="none" stroke="#63b8ff" d="M1038.1,-111.27C1014.91,-102.75 977.52,-89.02 949.92,-78.88"/>
<polygon fill="#63b8ff" stroke="#63b8ff" points="951.16,-75.61 940.56,-75.45 948.74,-82.18 951.16,-75.61"/>
</a>
</g>
</g>
<!-- Node24&#45;&gt;Node6 -->
<g id="edge52_Node000024_Node000006" class="edge">
<title>Node24&#45;&gt;Node6</title>
<g id="a_edge52_Node000024_Node000006"><a xlink:title=" ">
<path fill="none" stroke="#63b8ff" d="M500.89,-110.06C475.06,-91.51 415.92,-49.01 383.95,-26.04"/>
<polygon fill="#63b8ff" stroke="#63b8ff" points="386.36,-23.46 376.2,-20.47 382.28,-29.15 386.36,-23.46"/>
</a>
</g>
</g>
<!-- Node24&#45;&gt;Node11 -->
<g id="edge53_Node000024_Node000011" class="edge">
<title>Node24&#45;&gt;Node11</title>
<g id="a_edge53_Node000024_Node000011"><a xlink:title=" ">
<path fill="none" stroke="#63b8ff" d="M529.62,-110.09C544.08,-101.98 565.58,-89.93 582.48,-80.46"/>
<polygon fill="#63b8ff" stroke="#63b8ff" points="583.97,-83.64 590.99,-75.69 580.55,-77.53 583.97,-83.64"/>
</a>
</g>
</g>
<!-- Node24&#45;&gt;Node13 -->
<g id="edge54_Node000024_Node000013" class="edge">
<title>Node24&#45;&gt;Node13</title>
<g id="a_edge54_Node000024_Node000013"><a xlink:title=" ">
<path fill="none" stroke="#63b8ff" d="M516.54,-110.29C521.74,-96.51 533.64,-69.94 552.5,-55.25 569.39,-42.1 623.49,-27.53 660.35,-18.73"/>
<polygon fill="#63b8ff" stroke="#63b8ff" points="660.77,-22.23 669.7,-16.54 659.17,-15.41 660.77,-22.23"/>
</a>
</g>
</g>
</g>
</svg>

<g id="navigator" transform="translate(0 0)" fill="#404254">
  <rect fill="#f2f5e9" fill-opacity="0.5" stroke="#606060" stroke-width=".5" x="0" y="0" width="60" height="60"/>
  <use id="zoomplus" xlink:href="#zoomPlus" x="17" y="9" onmousedown="handleZoom(evt,'in')"/>
  <use id="zoomminus" xlink:href="#zoomMin" x="42" y="9" onmousedown="handleZoom(evt,'out')"/>
  <use id="reset" xlink:href="#resetDef" x="30" y="36" onmousedown="handleReset()"/>
   <use id="arrowup" xlink:href="#arrowUp" x="0" y="0" onmousedown="handlePan(0,-1)"/>
  <use id="arrowright" xlink:href="#arrowRight" x="0" y="0" onmousedown="handlePan(1,0)"/>
  <use id="arrowdown" xlink:href="#arrowDown" x="0" y="0" onmousedown="handlePan(0,1)"/>
  <use id="arrowleft" xlink:href="#arrowLeft" x="0" y="0" onmousedown="handlePan(-1,0)"/>
</g>
<svg viewBox="0 0 15 15" width="100%" height="30px" preserveAspectRatio="xMaxYMin meet">
 <g id="arrow_out" transform="scale(0.3 0.3)">
  <a xlink:href="elph__driver_8c__incl_org.svg" target="_base">
   <rect id="button" ry="5" rx="5" y="6" x="6" height="38" width="38"
        fill="#f2f5e9" fill-opacity="0.5" stroke="#606060" stroke-width="1.0"/>
   <path id="arrow"
     d="M 11.500037,31.436501 C 11.940474,20.09759 22.043105,11.32322 32.158766,21.979434 L 37.068811,17.246167 C 37.068811,17.246167 37.088388,32 37.088388,32 L 22.160133,31.978069 C 22.160133,31.978069 26.997745,27.140456 26.997745,27.140456 C 18.528582,18.264221 13.291696,25.230495 11.500037,31.436501 z"
     style="fill:#404040;"/>
  </a>
 </g>
</svg>

<style type='text/css'>
<![CDATA[
[data-mouse-over-selected='false'] { opacity: 0.7; }
[data-mouse-over-selected='true']  { opacity: 1.0; }
]]>
</style>
<script type="application/ecmascript"><![CDATA[
document.addEventListener('DOMContentLoaded', (event) => {
  highlightEdges();
  highlightAdjacentNodes();
});
]]></script>
</svg>
