<?xml version="1.0" encoding="UTF-8" standalone="no"?>
<!DOCTYPE svg PUBLIC "-//W3C//DTD SVG 1.1//EN"
 "http://www.w3.org/Graphics/SVG/1.1/DTD/svg11.dtd">
<!-- Generated by graphviz version 14.0.0 (20250921.2048)
 -->
<!-- Title: def_ncVar Pages: 1 -->
<svg width="409pt" height="103pt"
 viewBox="0.00 0.00 409.00 103.00" xmlns="http://www.w3.org/2000/svg" xmlns:xlink="http://www.w3.org/1999/xlink">
<g id="graph0" class="graph" transform="scale(1 1) rotate(0) translate(4 99.25)">
<title>def_ncVar</title>
<!-- Node1 -->
<g id="Node000001" class="node">
<title>Node1</title>
<g id="a_Node000001"><a xlink:title=" ">
<polygon fill="#999999" stroke="#666666" points="400.75,-57.25 341.25,-57.25 341.25,-38 400.75,-38 400.75,-57.25"/>
<text xml:space="preserve" text-anchor="middle" x="371" y="-43.75" font-family="Helvetica,sans-Serif" font-size="10.00">def_ncVar</text>
</a>
</g>
</g>
<!-- Node2 -->
<g id="Node000002" class="node">
<title>Node2</title>
<g id="a_Node000002"><a xlink:href="../../d5/d9f/compute__dmats_8c.html#aceeb11551c1d6413e6d4b5cae9704493" target="_top" xlink:title=" ">
<polygon fill="white" stroke="#666666" points="305.25,-95.25 172.25,-95.25 172.25,-76 305.25,-76 305.25,-95.25"/>
<text xml:space="preserve" text-anchor="middle" x="238.75" y="-81.75" font-family="Helvetica,sans-Serif" font-size="10.00">compute_and_write_dmats</text>
</a>
</g>
</g>
<!-- Node1&#45;&gt;Node2 -->
<g id="edge1_Node000001_Node000002" class="edge">
<title>Node1&#45;&gt;Node2</title>
<g id="a_edge1_Node000001_Node000002"><a xlink:title=" ">
<path fill="none" stroke="#63b8ff" d="M329.88,-59.33C312.14,-64.5 291.49,-70.53 274.43,-75.51"/>
<polygon fill="#63b8ff" stroke="#63b8ff" points="330.7,-62.74 339.32,-56.58 328.74,-56.02 330.7,-62.74"/>
</a>
</g>
</g>
<!-- Node3 -->
<g id="Node000003" class="node">
<title>Node3</title>
<g id="a_Node000003"><a xlink:href="../../da/d2e/elph__driver_8c.html#ad9f405d41cf090d652dbe1307700665f" target="_top" xlink:title=" ">
<polygon fill="white" stroke="#666666" points="136.25,-57.25 73,-57.25 73,-38 136.25,-38 136.25,-57.25"/>
<text xml:space="preserve" text-anchor="middle" x="104.62" y="-43.75" font-family="Helvetica,sans-Serif" font-size="10.00">elph_driver</text>
</a>
</g>
</g>
<!-- Node1&#45;&gt;Node3 -->
<g id="edge4_Node000001_Node000003" class="edge">
<title>Node1&#45;&gt;Node3</title>
<g id="a_edge4_Node000001_Node000003"><a xlink:title=" ">
<path fill="none" stroke="#63b8ff" d="M329.6,-47.62C276.44,-47.62 184.18,-47.62 136.35,-47.62"/>
<polygon fill="#63b8ff" stroke="#63b8ff" points="329.44,-51.13 339.44,-47.63 329.44,-44.13 329.44,-51.13"/>
</a>
</g>
</g>
<!-- Node5 -->
<g id="Node000005" class="node">
<title>Node5</title>
<g id="a_Node000005"><a xlink:href="../../d0/d2a/write__basic__data_8c.html#ad52e04a4c805d946a49b26671b9013fd" target="_top" xlink:title=" ">
<polygon fill="white" stroke="#666666" points="283.5,-19.25 194,-19.25 194,0 283.5,0 283.5,-19.25"/>
<text xml:space="preserve" text-anchor="middle" x="238.75" y="-5.75" font-family="Helvetica,sans-Serif" font-size="10.00">write_basic_data</text>
</a>
</g>
</g>
<!-- Node1&#45;&gt;Node5 -->
<g id="edge5_Node000001_Node000005" class="edge">
<title>Node1&#45;&gt;Node5</title>
<g id="a_edge5_Node000001_Node000005"><a xlink:title=" ">
<path fill="none" stroke="#63b8ff" d="M329.88,-35.92C312.14,-30.75 291.49,-24.72 274.43,-19.74"/>
<polygon fill="#63b8ff" stroke="#63b8ff" points="328.74,-39.23 339.32,-38.67 330.7,-32.51 328.74,-39.23"/>
</a>
</g>
</g>
<!-- Node2&#45;&gt;Node3 -->
<g id="edge2_Node000002_Node000003" class="edge">
<title>Node2&#45;&gt;Node3</title>
<g id="a_edge2_Node000002_Node000003"><a xlink:title=" ">
<path fill="none" stroke="#63b8ff" d="M191.64,-72.36C173.34,-67.1 152.77,-61.19 136.35,-56.46"/>
<polygon fill="#63b8ff" stroke="#63b8ff" points="190.66,-75.72 201.24,-75.12 192.59,-69 190.66,-75.72"/>
</a>
</g>
</g>
<!-- Node4 -->
<g id="Node000004" class="node">
<title>Node4</title>
<g id="a_Node000004"><a xlink:href="../../d3/dd5/main__elph_c_8c.html#a0ddf1224851353fc92bfbff6f499fa97" target="_top" xlink:title="Main program entry point.">
<polygon fill="white" stroke="#666666" points="37,-57.25 0,-57.25 0,-38 37,-38 37,-57.25"/>
<text xml:space="preserve" text-anchor="middle" x="18.5" y="-43.75" font-family="Helvetica,sans-Serif" font-size="10.00">main</text>
</a>
</g>
</g>
<!-- Node3&#45;&gt;Node4 -->
<g id="edge3_Node000003_Node000004" class="edge">
<title>Node3&#45;&gt;Node4</title>
<g id="a_edge3_Node000003_Node000004"><a xlink:title=" ">
<path fill="none" stroke="#63b8ff" d="M61.27,-47.62C52.74,-47.62 44.23,-47.62 37.14,-47.62"/>
<polygon fill="#63b8ff" stroke="#63b8ff" points="61.26,-51.13 71.26,-47.63 61.26,-44.13 61.26,-51.13"/>
</a>
</g>
</g>
<!-- Node5&#45;&gt;Node3 -->
<g id="edge6_Node000005_Node000003" class="edge">
<title>Node5&#45;&gt;Node3</title>
<g id="a_edge6_Node000005_Node000003"><a xlink:title=" ">
<path fill="none" stroke="#63b8ff" d="M191.64,-22.89C173.34,-28.15 152.77,-34.06 136.35,-38.79"/>
<polygon fill="#63b8ff" stroke="#63b8ff" points="192.59,-26.25 201.24,-20.13 190.66,-19.53 192.59,-26.25"/>
</a>
</g>
</g>
</g>
</svg>
