<?xml version="1.0" encoding="UTF-8" standalone="no"?>
<!DOCTYPE svg PUBLIC "-//W3C//DTD SVG 1.1//EN"
 "http://www.w3.org/Graphics/SVG/1.1/DTD/svg11.dtd">
<!-- Generated by graphviz version 14.0.0 (20250921.2048)
 -->
<!-- Title: src/common/string_func.h Pages: 1 -->
<svg width="744pt" height="94pt"
 viewBox="0.00 0.00 744.00 94.00" xmlns="http://www.w3.org/2000/svg" xmlns:xlink="http://www.w3.org/1999/xlink">
<g id="graph0" class="graph" transform="scale(1 1) rotate(0) translate(4 89.75)">
<title>src/common/string_func.h</title>
<!-- Node1 -->
<g id="Node000001" class="node">
<title>Node1</title>
<g id="a_Node000001"><a xlink:title=" ">
<polygon fill="#999999" stroke="#666666" points="446.25,-85.75 317,-85.75 317,-66.5 446.25,-66.5 446.25,-85.75"/>
<text xml:space="preserve" text-anchor="middle" x="381.62" y="-72.25" font-family="Helvetica,sans-Serif" font-size="10.00">src/common/string_func.h</text>
</a>
</g>
</g>
<!-- Node2 -->
<g id="Node000002" class="node">
<title>Node2</title>
<g id="a_Node000002"><a xlink:href="../../d5/d6c/string__func_8c.html" target="_top" xlink:title=" ">
<polygon fill="white" stroke="#666666" points="129.25,-24.88 0,-24.88 0,-5.63 129.25,-5.63 129.25,-24.88"/>
<text xml:space="preserve" text-anchor="middle" x="64.62" y="-11.38" font-family="Helvetica,sans-Serif" font-size="10.00">src/common/string_func.c</text>
</a>
</g>
</g>
<!-- Node1&#45;&gt;Node2 -->
<g id="edge1_Node000001_Node000002" class="edge">
<title>Node1&#45;&gt;Node2</title>
<g id="a_edge1_Node000001_Node000002"><a xlink:title=" ">
<path fill="none" stroke="#63b8ff" d="M320.26,-64.01C271.11,-55.07 200.41,-42.12 138.62,-30.5 129.88,-28.86 120.56,-27.08 111.59,-25.36"/>
<polygon fill="#63b8ff" stroke="#63b8ff" points="319.38,-67.4 329.85,-65.75 320.64,-60.52 319.38,-67.4"/>
</a>
</g>
</g>
<!-- Node3 -->
<g id="Node000003" class="node">
<title>Node3</title>
<g id="a_Node000003"><a xlink:href="../../d9/d5a/set__kernel_8c.html" target="_top" xlink:title=" ">
<polygon fill="white" stroke="#666666" points="254,-24.88 147.25,-24.88 147.25,-5.63 254,-5.63 254,-24.88"/>
<text xml:space="preserve" text-anchor="middle" x="200.62" y="-11.38" font-family="Helvetica,sans-Serif" font-size="10.00">src/elph/set_kernel.c</text>
</a>
</g>
</g>
<!-- Node1&#45;&gt;Node3 -->
<g id="edge2_Node000001_Node000003" class="edge">
<title>Node1&#45;&gt;Node3</title>
<g id="a_edge2_Node000001_Node000003"><a xlink:title=" ">
<path fill="none" stroke="#63b8ff" d="M343.16,-62.61C308.78,-51.43 259.25,-35.32 228.54,-25.33"/>
<polygon fill="#63b8ff" stroke="#63b8ff" points="341.71,-65.82 352.3,-65.59 343.87,-59.16 341.71,-65.82"/>
</a>
</g>
</g>
<!-- Node4 -->
<g id="Node000004" class="node">
<title>Node4</title>
<g id="a_Node000004"><a xlink:href="../../dc/de1/input__parser_8c.html" target="_top" xlink:title=" ">
<polygon fill="white" stroke="#666666" points="375.5,-24.88 271.75,-24.88 271.75,-5.63 375.5,-5.63 375.5,-24.88"/>
<text xml:space="preserve" text-anchor="middle" x="323.62" y="-11.38" font-family="Helvetica,sans-Serif" font-size="10.00">src/io/input_parser.c</text>
</a>
</g>
</g>
<!-- Node1&#45;&gt;Node4 -->
<g id="edge3_Node000001_Node000004" class="edge">
<title>Node1&#45;&gt;Node4</title>
<g id="a_edge3_Node000001_Node000004"><a xlink:title=" ">
<path fill="none" stroke="#63b8ff" d="M365.05,-58.3C354.46,-47.55 341.15,-34.04 332.52,-25.28"/>
<polygon fill="#63b8ff" stroke="#63b8ff" points="362.24,-60.44 371.75,-65.1 367.23,-55.52 362.24,-60.44"/>
</a>
</g>
</g>
<!-- Node5 -->
<g id="Node000005" class="node">
<title>Node5</title>
<g id="a_Node000005"><a xlink:href="../../de/d8e/parse__upf_8c.html" target="_top" xlink:title=" ">
<polygon fill="white" stroke="#666666" points="487.62,-24.88 393.62,-24.88 393.62,-5.63 487.62,-5.63 487.62,-24.88"/>
<text xml:space="preserve" text-anchor="middle" x="440.62" y="-11.38" font-family="Helvetica,sans-Serif" font-size="10.00">src/io/parse_upf.c</text>
</a>
</g>
</g>
<!-- Node1&#45;&gt;Node5 -->
<g id="edge4_Node000001_Node000005" class="edge">
<title>Node1&#45;&gt;Node5</title>
<g id="a_edge4_Node000001_Node000005"><a xlink:title=" ">
<path fill="none" stroke="#63b8ff" d="M398.49,-58.3C409.26,-47.55 422.8,-34.04 431.58,-25.28"/>
<polygon fill="#63b8ff" stroke="#63b8ff" points="396.26,-55.57 391.66,-65.11 401.21,-60.53 396.26,-55.57"/>
</a>
</g>
</g>
<!-- Node6 -->
<g id="Node000006" class="node">
<title>Node6</title>
<g id="a_Node000006"><a xlink:href="../../dd/def/cli_8c.html" target="_top" xlink:title=" ">
<polygon fill="white" stroke="#666666" points="615.5,-24.88 505.75,-24.88 505.75,-5.63 615.5,-5.63 615.5,-24.88"/>
<text xml:space="preserve" text-anchor="middle" x="560.62" y="-11.38" font-family="Helvetica,sans-Serif" font-size="10.00">src/preprocessor/cli.c</text>
</a>
</g>
</g>
<!-- Node1&#45;&gt;Node6 -->
<g id="edge5_Node000001_Node000006" class="edge">
<title>Node1&#45;&gt;Node6</title>
<g id="a_edge5_Node000001_Node000006"><a xlink:title=" ">
<path fill="none" stroke="#63b8ff" d="M420.11,-62.47C454.08,-51.29 502.78,-35.27 533.02,-25.33"/>
<polygon fill="#63b8ff" stroke="#63b8ff" points="419.05,-59.13 410.64,-65.58 421.23,-65.78 419.05,-59.13"/>
</a>
</g>
</g>
<!-- Node7 -->
<g id="Node000007" class="node">
<title>Node7</title>
<g id="a_Node000007"><a xlink:href="../../d5/d0a/pp__ph__save_8c.html" target="_top" xlink:title=" ">
<polygon fill="white" stroke="#666666" points="735.75,-30.5 633.5,-30.5 633.5,0 735.75,0 735.75,-30.5"/>
<text xml:space="preserve" text-anchor="start" x="641.5" y="-17" font-family="Helvetica,sans-Serif" font-size="10.00">src/preprocessor/pp</text>
<text xml:space="preserve" text-anchor="middle" x="684.62" y="-5.75" font-family="Helvetica,sans-Serif" font-size="10.00">_ph_save.c</text>
</a>
</g>
</g>
<!-- Node1&#45;&gt;Node7 -->
<g id="edge6_Node000001_Node000007" class="edge">
<title>Node1&#45;&gt;Node7</title>
<g id="a_edge6_Node000001_Node000007"><a xlink:title=" ">
<path fill="none" stroke="#63b8ff" d="M446.44,-64.16C495.49,-55.63 564.46,-43.16 624.62,-30.5 627.45,-29.9 630.35,-29.28 633.28,-28.63"/>
<polygon fill="#63b8ff" stroke="#63b8ff" points="446.1,-60.67 436.84,-65.82 447.29,-67.56 446.1,-60.67"/>
</a>
</g>
</g>
</g>
</svg>
