<?xml version="1.0" encoding="UTF-8" standalone="no"?>
<!DOCTYPE svg PUBLIC "-//W3C//DTD SVG 1.1//EN"
 "http://www.w3.org/Graphics/SVG/1.1/DTD/svg11.dtd">
<!-- Generated by graphviz version 14.0.0 (20250921.2048)
 -->
<!-- Title: src/symmetries/BZ_expand.c Pages: 1 -->
<svg width="444pt" height="193pt"
 viewBox="0.00 0.00 444.00 193.00" xmlns="http://www.w3.org/2000/svg" xmlns:xlink="http://www.w3.org/1999/xlink">
<g id="graph0" class="graph" transform="scale(1 1) rotate(0) translate(4 189)">
<title>src/symmetries/BZ_expand.c</title>
<!-- Node1 -->
<g id="Node000001" class="node">
<title>Node1</title>
<g id="a_Node000001"><a xlink:title=" ">
<polygon fill="#999999" stroke="#666666" points="308.59,-185 164.34,-185 164.34,-165.75 308.59,-165.75 308.59,-185"/>
<text xml:space="preserve" text-anchor="middle" x="236.46" y="-171.5" font-family="Helvetica,sans-Serif" font-size="10.00">src/symmetries/BZ_expand.c</text>
</a>
</g>
</g>
<!-- Node2 -->
<g id="Node000002" class="node">
<title>Node2</title>
<g id="a_Node000002"><a xlink:title=" ">
<polygon fill="#e0e0e0" stroke="#999999" points="130.34,-19.25 74.59,-19.25 74.59,0 130.34,0 130.34,-19.25"/>
<text xml:space="preserve" text-anchor="middle" x="102.46" y="-5.75" font-family="Helvetica,sans-Serif" font-size="10.00">stdbool.h</text>
</a>
</g>
</g>
<!-- Node1&#45;&gt;Node2 -->
<g id="edge1_Node000001_Node000002" class="edge">
<title>Node1&#45;&gt;Node2</title>
<g id="a_edge1_Node000001_Node000002"><a xlink:title=" ">
<path fill="none" stroke="#63b8ff" d="M167.86,-165.28C113.33,-154.04 40.45,-129.17 4.46,-74.5 -13.32,-47.48 28.95,-29.36 63.44,-19.52"/>
<polygon fill="#63b8ff" stroke="#63b8ff" points="64.06,-22.98 72.82,-17.01 62.25,-16.22 64.06,-22.98"/>
</a>
</g>
</g>
<!-- Node3 -->
<g id="Node000003" class="node">
<title>Node3</title>
<g id="a_Node000003"><a xlink:title=" ">
<polygon fill="#e0e0e0" stroke="#999999" points="435.59,-129.75 387.34,-129.75 387.34,-110.5 435.59,-110.5 435.59,-129.75"/>
<text xml:space="preserve" text-anchor="middle" x="411.46" y="-116.25" font-family="Helvetica,sans-Serif" font-size="10.00">string.h</text>
</a>
</g>
</g>
<!-- Node1&#45;&gt;Node3 -->
<g id="edge2_Node000001_Node000003" class="edge">
<title>Node1&#45;&gt;Node3</title>
<g id="a_edge2_Node000001_Node000003"><a xlink:title=" ">
<path fill="none" stroke="#63b8ff" d="M266.15,-165.34C296.59,-156.08 343.94,-141.67 376.26,-131.84"/>
<polygon fill="#63b8ff" stroke="#63b8ff" points="377.01,-135.27 385.56,-129.01 374.97,-128.57 377.01,-135.27"/>
</a>
</g>
</g>
<!-- Node4 -->
<g id="Node000004" class="node">
<title>Node4</title>
<g id="a_Node000004"><a xlink:href="../../d2/d02/dtypes_8h.html" target="_top" xlink:title=" ">
<polygon fill="white" stroke="#666666" points="293.46,-74.5 199.46,-74.5 199.46,-55.25 293.46,-55.25 293.46,-74.5"/>
<text xml:space="preserve" text-anchor="middle" x="246.46" y="-61" font-family="Helvetica,sans-Serif" font-size="10.00">common/dtypes.h</text>
</a>
</g>
</g>
<!-- Node1&#45;&gt;Node4 -->
<g id="edge3_Node000001_Node000004" class="edge">
<title>Node1&#45;&gt;Node4</title>
<g id="a_edge3_Node000001_Node000004"><a xlink:title=" ">
<path fill="none" stroke="#63b8ff" d="M231.98,-165.66C226.23,-153.32 217.53,-130.1 222.46,-110.5 224.74,-101.46 229.25,-92.25 233.75,-84.56"/>
<polygon fill="#63b8ff" stroke="#63b8ff" points="236.67,-86.49 239.06,-76.17 230.76,-82.75 236.67,-86.49"/>
</a>
</g>
</g>
<!-- Node6 -->
<g id="Node000006" class="node">
<title>Node6</title>
<g id="a_Node000006"><a xlink:href="../../d4/d0a/elph_c_8h.html" target="_top" xlink:title="Core type definitions and configuration for LetzElPhC.">
<polygon fill="white" stroke="#666666" points="343.34,-19.25 293.59,-19.25 293.59,0 343.34,0 343.34,-19.25"/>
<text xml:space="preserve" text-anchor="middle" x="318.46" y="-5.75" font-family="Helvetica,sans-Serif" font-size="10.00">elphC.h</text>
</a>
</g>
</g>
<!-- Node1&#45;&gt;Node6 -->
<g id="edge11_Node000001_Node000006" class="edge">
<title>Node1&#45;&gt;Node6</title>
<g id="a_edge11_Node000001_Node000006"><a xlink:title=" ">
<path fill="none" stroke="#63b8ff" d="M267.57,-165.33C285.06,-158.52 305.52,-147.29 316.46,-129.75 335.39,-99.43 329.68,-55.76 323.97,-30.58"/>
<polygon fill="#63b8ff" stroke="#63b8ff" points="327.4,-29.87 321.56,-21.03 320.61,-31.58 327.4,-29.87"/>
</a>
</g>
</g>
<!-- Node8 -->
<g id="Node000008" class="node">
<title>Node8</title>
<g id="a_Node000008"><a xlink:href="../../df/def/numerical__func_8h.html" target="_top" xlink:title=" ">
<polygon fill="white" stroke="#666666" points="143.84,-74.5 13.09,-74.5 13.09,-55.25 143.84,-55.25 143.84,-74.5"/>
<text xml:space="preserve" text-anchor="middle" x="78.46" y="-61" font-family="Helvetica,sans-Serif" font-size="10.00">common/numerical_func.h</text>
</a>
</g>
</g>
<!-- Node1&#45;&gt;Node8 -->
<g id="edge8_Node000001_Node000008" class="edge">
<title>Node1&#45;&gt;Node8</title>
<g id="a_edge8_Node000001_Node000008"><a xlink:title=" ">
<path fill="none" stroke="#63b8ff" d="M223.27,-165.31C196.25,-146.76 134.36,-104.26 100.91,-81.29"/>
<polygon fill="#63b8ff" stroke="#63b8ff" points="102.99,-78.47 92.76,-75.69 99.03,-84.24 102.99,-78.47"/>
</a>
</g>
</g>
<!-- Node9 -->
<g id="Node000009" class="node">
<title>Node9</title>
<g id="a_Node000009"><a xlink:href="../../dc/dec/symmetries_8h.html" target="_top" xlink:title=" ">
<polygon fill="white" stroke="#666666" points="307.09,-129.75 231.84,-129.75 231.84,-110.5 307.09,-110.5 307.09,-129.75"/>
<text xml:space="preserve" text-anchor="middle" x="269.46" y="-116.25" font-family="Helvetica,sans-Serif" font-size="10.00">symmetries.h</text>
</a>
</g>
</g>
<!-- Node1&#45;&gt;Node9 -->
<g id="edge12_Node000001_Node000009" class="edge">
<title>Node1&#45;&gt;Node9</title>
<g id="a_edge12_Node000001_Node000009"><a xlink:title=" ">
<path fill="none" stroke="#63b8ff" d="M241.91,-165.58C246.23,-158.61 252.43,-148.62 257.85,-139.87"/>
<polygon fill="#63b8ff" stroke="#63b8ff" points="260.81,-141.74 263.1,-131.4 254.86,-138.05 260.81,-141.74"/>
</a>
</g>
</g>
<!-- Node4&#45;&gt;Node2 -->
<g id="edge5_Node000004_Node000002" class="edge">
<title>Node4&#45;&gt;Node2</title>
<g id="a_edge5_Node000004_Node000002"><a xlink:title=" ">
<path fill="none" stroke="#63b8ff" d="M222.04,-54.84C198.87,-46.27 163.8,-33.31 137.63,-23.63"/>
<polygon fill="#63b8ff" stroke="#63b8ff" points="139.03,-20.41 128.43,-20.23 136.6,-26.98 139.03,-20.41"/>
</a>
</g>
</g>
<!-- Node5 -->
<g id="Node000005" class="node">
<title>Node5</title>
<g id="a_Node000005"><a xlink:title=" ">
<polygon fill="#e0e0e0" stroke="#999999" points="209.46,-19.25 169.46,-19.25 169.46,0 209.46,0 209.46,-19.25"/>
<text xml:space="preserve" text-anchor="middle" x="189.46" y="-5.75" font-family="Helvetica,sans-Serif" font-size="10.00">mpi.h</text>
</a>
</g>
</g>
<!-- Node4&#45;&gt;Node5 -->
<g id="edge4_Node000004_Node000005" class="edge">
<title>Node4&#45;&gt;Node5</title>
<g id="a_edge4_Node000004_Node000005"><a xlink:title=" ">
<path fill="none" stroke="#63b8ff" d="M236.8,-54.84C228.72,-47.3 217,-36.35 207.24,-27.23"/>
<polygon fill="#63b8ff" stroke="#63b8ff" points="209.79,-24.83 200.1,-20.56 205.02,-29.94 209.79,-24.83"/>
</a>
</g>
</g>
<!-- Node4&#45;&gt;Node6 -->
<g id="edge6_Node000004_Node000006" class="edge">
<title>Node4&#45;&gt;Node6</title>
<g id="a_edge6_Node000004_Node000006"><a xlink:title=" ">
<path fill="none" stroke="#63b8ff" d="M258.68,-54.84C269.29,-46.99 284.9,-35.45 297.51,-26.12"/>
<polygon fill="#63b8ff" stroke="#63b8ff" points="299.26,-29.19 305.21,-20.42 295.09,-23.56 299.26,-29.19"/>
</a>
</g>
</g>
<!-- Node7 -->
<g id="Node000007" class="node">
<title>Node7</title>
<g id="a_Node000007"><a xlink:href="../../da/d41/error_8h.html" target="_top" xlink:title=" ">
<polygon fill="white" stroke="#666666" points="270.96,-19.25 227.96,-19.25 227.96,0 270.96,0 270.96,-19.25"/>
<text xml:space="preserve" text-anchor="middle" x="249.46" y="-5.75" font-family="Helvetica,sans-Serif" font-size="10.00">error.h</text>
</a>
</g>
</g>
<!-- Node4&#45;&gt;Node7 -->
<g id="edge7_Node000004_Node000007" class="edge">
<title>Node4&#45;&gt;Node7</title>
<g id="a_edge7_Node000004_Node000007"><a xlink:title=" ">
<path fill="none" stroke="#63b8ff" d="M246.96,-55.08C247.33,-48.49 247.85,-39.21 248.33,-30.82"/>
<polygon fill="#63b8ff" stroke="#63b8ff" points="251.81,-31.3 248.87,-21.12 244.82,-30.91 251.81,-31.3"/>
</a>
</g>
</g>
<!-- Node8&#45;&gt;Node2 -->
<g id="edge9_Node000008_Node000002" class="edge">
<title>Node8&#45;&gt;Node2</title>
<g id="a_edge9_Node000008_Node000002"><a xlink:title=" ">
<path fill="none" stroke="#63b8ff" d="M82.43,-55.08C85.5,-48.26 89.88,-38.56 93.75,-29.95"/>
<polygon fill="#63b8ff" stroke="#63b8ff" points="96.88,-31.54 97.79,-20.99 90.49,-28.67 96.88,-31.54"/>
</a>
</g>
</g>
<!-- Node8&#45;&gt;Node6 -->
<g id="edge10_Node000008_Node000006" class="edge">
<title>Node8&#45;&gt;Node6</title>
<g id="a_edge10_Node000008_Node000006"><a xlink:title=" ">
<path fill="none" stroke="#63b8ff" d="M119.88,-54.8C160.72,-45.83 224.92,-31.69 280.46,-19.25 280.98,-19.14 281.49,-19.02 282.01,-18.9"/>
<polygon fill="#63b8ff" stroke="#63b8ff" points="282.66,-22.34 291.65,-16.73 281.12,-15.52 282.66,-22.34"/>
</a>
</g>
</g>
<!-- Node9&#45;&gt;Node2 -->
<g id="edge13_Node000009_Node000002" class="edge">
<title>Node9&#45;&gt;Node2</title>
<g id="a_edge13_Node000009_Node000002"><a xlink:title=" ">
<path fill="none" stroke="#63b8ff" d="M252.18,-110.1C235.95,-101.45 211.14,-87.78 190.46,-74.5 166.61,-59.18 140.46,-39.85 122.91,-26.49"/>
<polygon fill="#63b8ff" stroke="#63b8ff" points="125.39,-23.97 115.32,-20.66 121.13,-29.53 125.39,-23.97"/>
</a>
</g>
</g>
<!-- Node9&#45;&gt;Node4 -->
<g id="edge14_Node000009_Node000004" class="edge">
<title>Node9&#45;&gt;Node4</title>
<g id="a_edge14_Node000009_Node000004"><a xlink:title=" ">
<path fill="none" stroke="#63b8ff" d="M265.67,-110.33C262.72,-103.51 258.53,-93.81 254.81,-85.2"/>
<polygon fill="#63b8ff" stroke="#63b8ff" points="258.12,-84.04 250.95,-76.25 251.7,-86.82 258.12,-84.04"/>
</a>
</g>
</g>
<!-- Node9&#45;&gt;Node6 -->
<g id="edge15_Node000009_Node000006" class="edge">
<title>Node9&#45;&gt;Node6</title>
<g id="a_edge15_Node000009_Node000006"><a xlink:title=" ">
<path fill="none" stroke="#63b8ff" d="M277.7,-110.24C285.2,-101.69 296.05,-88.09 302.46,-74.5 308.98,-60.7 313.05,-43.92 315.46,-31.02"/>
<polygon fill="#63b8ff" stroke="#63b8ff" points="318.91,-31.61 317.09,-21.17 312,-30.46 318.91,-31.61"/>
</a>
</g>
</g>
</g>
</svg>
