<?xml version="1.0" encoding="UTF-8" standalone="no"?>
<!DOCTYPE svg PUBLIC "-//W3C//DTD SVG 1.1//EN"
 "http://www.w3.org/Graphics/SVG/1.1/DTD/svg11.dtd">
<!-- Generated by graphviz version 14.0.0 (20250921.2048)
 -->
<!-- Title: src/preprocessor/print_help_version.c Pages: 1 -->
<svg width="318pt" height="204pt"
 viewBox="0.00 0.00 318.00 204.00" xmlns="http://www.w3.org/2000/svg" xmlns:xlink="http://www.w3.org/1999/xlink">

<svg id="main" version="1.1" xmlns="http://www.w3.org/2000/svg" xmlns:xlink="http://www.w3.org/1999/xlink" xml:space="preserve">

<style type="text/css"><![CDATA[
.node, .edge {opacity: 0.7;}
.node.selected, .edge.selected {opacity: 1;}
.edge:hover path { stroke: red; }
.edge:hover polygon { stroke: red; fill: red; }
]]></style>
<script type="application/ecmascript" xlink:href="../../svg.min.js"/>
<svg id="graph" class="graph">
<g id="graph0" class="graph" transform="scale(1 1) rotate(0) translate(4 200.25)">
<title>src/preprocessor/print_help_version.c</title>
<!-- Node1 -->
<g id="Node000001" class="node">
<title>Node1</title>
<g id="a_Node000001"><a xlink:title=" ">
<polygon fill="#999999" stroke="#666666" points="128.88,-196.25 18.38,-196.25 18.38,-165.75 128.88,-165.75 128.88,-196.25"/>
<text xml:space="preserve" text-anchor="start" x="26.38" y="-182.75" font-family="Helvetica,sans-Serif" font-size="10.00">src/preprocessor/print</text>
<text xml:space="preserve" text-anchor="middle" x="73.62" y="-171.5" font-family="Helvetica,sans-Serif" font-size="10.00">_help_version.c</text>
</a>
</g>
</g>
<!-- Node2 -->
<g id="Node000002" class="node">
<title>Node2</title>
<g id="a_Node000002"><a xlink:title=" ">
<polygon fill="#e0e0e0" stroke="#999999" points="45.25,-129.75 0,-129.75 0,-110.5 45.25,-110.5 45.25,-129.75"/>
<text xml:space="preserve" text-anchor="middle" x="22.62" y="-116.25" font-family="Helvetica,sans-Serif" font-size="10.00">stdio.h</text>
</a>
</g>
</g>
<!-- Node1&#45;&gt;Node2 -->
<g id="edge1_Node000001_Node000002" class="edge">
<title>Node1&#45;&gt;Node2</title>
<g id="a_edge1_Node000001_Node000002"><a xlink:title=" ">
<path fill="none" stroke="#63b8ff" d="M61.02,-165.45C54,-157.34 45.21,-147.2 37.82,-138.66"/>
<polygon fill="#63b8ff" stroke="#63b8ff" points="40.67,-136.61 31.48,-131.35 35.38,-141.2 40.67,-136.61"/>
</a>
</g>
</g>
<!-- Node3 -->
<g id="Node000003" class="node">
<title>Node3</title>
<g id="a_Node000003"><a xlink:href="../../d4/d0a/elph_c_8h.html" target="_top" xlink:title="Core type definitions and configuration for LetzElPhC.">
<polygon fill="white" stroke="#666666" points="117.5,-19.25 67.75,-19.25 67.75,0 117.5,0 117.5,-19.25"/>
<text xml:space="preserve" text-anchor="middle" x="92.62" y="-5.75" font-family="Helvetica,sans-Serif" font-size="10.00">elphC.h</text>
</a>
</g>
</g>
<!-- Node1&#45;&gt;Node3 -->
<g id="edge2_Node000001_Node000003" class="edge">
<title>Node1&#45;&gt;Node3</title>
<g id="a_edge2_Node000001_Node000003"><a xlink:title=" ">
<path fill="none" stroke="#63b8ff" d="M75.28,-165.27C78.67,-135.01 86.44,-65.8 90.32,-31.16"/>
<polygon fill="#63b8ff" stroke="#63b8ff" points="93.8,-31.57 91.43,-21.24 86.84,-30.79 93.8,-31.57"/>
</a>
</g>
</g>
<!-- Node4 -->
<g id="Node000004" class="node">
<title>Node4</title>
<g id="a_Node000004"><a xlink:href="../../d3/d53/preprocessor_8h.html" target="_top" xlink:title=" ">
<polygon fill="white" stroke="#666666" points="181.5,-129.75 101.75,-129.75 101.75,-110.5 181.5,-110.5 181.5,-129.75"/>
<text xml:space="preserve" text-anchor="middle" x="141.62" y="-116.25" font-family="Helvetica,sans-Serif" font-size="10.00">preprocessor.h</text>
</a>
</g>
</g>
<!-- Node1&#45;&gt;Node4 -->
<g id="edge3_Node000001_Node000004" class="edge">
<title>Node1&#45;&gt;Node4</title>
<g id="a_edge3_Node000001_Node000004"><a xlink:title=" ">
<path fill="none" stroke="#63b8ff" d="M90.43,-165.45C100.19,-157 112.51,-146.33 122.62,-137.58"/>
<polygon fill="#63b8ff" stroke="#63b8ff" points="124.73,-140.38 130,-131.19 120.15,-135.09 124.73,-140.38"/>
</a>
</g>
</g>
<!-- Node4&#45;&gt;Node3 -->
<g id="edge9_Node000004_Node000003" class="edge">
<title>Node4&#45;&gt;Node3</title>
<g id="a_edge9_Node000004_Node000003"><a xlink:title=" ">
<path fill="none" stroke="#63b8ff" d="M137.62,-110.25C129.72,-92.76 112,-53.52 101.3,-29.84"/>
<polygon fill="#63b8ff" stroke="#63b8ff" points="104.62,-28.68 97.31,-21.01 98.24,-31.56 104.62,-28.68"/>
</a>
</g>
</g>
<!-- Node5 -->
<g id="Node000005" class="node">
<title>Node5</title>
<g id="a_Node000005"><a xlink:href="../../d2/d02/dtypes_8h.html" target="_top" xlink:title=" ">
<polygon fill="white" stroke="#666666" points="233.62,-74.5 139.62,-74.5 139.62,-55.25 233.62,-55.25 233.62,-74.5"/>
<text xml:space="preserve" text-anchor="middle" x="186.62" y="-61" font-family="Helvetica,sans-Serif" font-size="10.00">common/dtypes.h</text>
</a>
</g>
</g>
<!-- Node4&#45;&gt;Node5 -->
<g id="edge4_Node000004_Node000005" class="edge">
<title>Node4&#45;&gt;Node5</title>
<g id="a_edge4_Node000004_Node000005"><a xlink:title=" ">
<path fill="none" stroke="#63b8ff" d="M149.06,-110.33C155.21,-103.05 164.14,-92.48 171.75,-83.48"/>
<polygon fill="#63b8ff" stroke="#63b8ff" points="174.27,-85.91 178.06,-76.02 168.93,-81.39 174.27,-85.91"/>
</a>
</g>
</g>
<!-- Node5&#45;&gt;Node3 -->
<g id="edge7_Node000005_Node000003" class="edge">
<title>Node5&#45;&gt;Node3</title>
<g id="a_edge7_Node000005_Node000003"><a xlink:title=" ">
<path fill="none" stroke="#63b8ff" d="M170.68,-54.84C156.36,-46.73 135.09,-34.68 118.37,-25.21"/>
<polygon fill="#63b8ff" stroke="#63b8ff" points="120.39,-22.33 109.97,-20.45 116.94,-28.42 120.39,-22.33"/>
</a>
</g>
</g>
<!-- Node6 -->
<g id="Node000006" class="node">
<title>Node6</title>
<g id="a_Node000006"><a xlink:title=" ">
<polygon fill="#e0e0e0" stroke="#999999" points="175.62,-19.25 135.62,-19.25 135.62,0 175.62,0 175.62,-19.25"/>
<text xml:space="preserve" text-anchor="middle" x="155.62" y="-5.75" font-family="Helvetica,sans-Serif" font-size="10.00">mpi.h</text>
</a>
</g>
</g>
<!-- Node5&#45;&gt;Node6 -->
<g id="edge5_Node000005_Node000006" class="edge">
<title>Node5&#45;&gt;Node6</title>
<g id="a_edge5_Node000005_Node000006"><a xlink:title=" ">
<path fill="none" stroke="#63b8ff" d="M181.51,-55.08C177.45,-48.11 171.63,-38.12 166.54,-29.37"/>
<polygon fill="#63b8ff" stroke="#63b8ff" points="169.67,-27.8 161.62,-20.92 163.62,-31.32 169.67,-27.8"/>
</a>
</g>
</g>
<!-- Node7 -->
<g id="Node000007" class="node">
<title>Node7</title>
<g id="a_Node000007"><a xlink:title=" ">
<polygon fill="#e0e0e0" stroke="#999999" points="249.5,-19.25 193.75,-19.25 193.75,0 249.5,0 249.5,-19.25"/>
<text xml:space="preserve" text-anchor="middle" x="221.62" y="-5.75" font-family="Helvetica,sans-Serif" font-size="10.00">stdbool.h</text>
</a>
</g>
</g>
<!-- Node5&#45;&gt;Node7 -->
<g id="edge6_Node000005_Node000007" class="edge">
<title>Node5&#45;&gt;Node7</title>
<g id="a_edge6_Node000005_Node000007"><a xlink:title=" ">
<path fill="none" stroke="#63b8ff" d="M192.4,-55.08C197.04,-48.03 203.7,-37.9 209.49,-29.08"/>
<polygon fill="#63b8ff" stroke="#63b8ff" points="212.32,-31.15 214.89,-20.87 206.47,-27.31 212.32,-31.15"/>
</a>
</g>
</g>
<!-- Node8 -->
<g id="Node000008" class="node">
<title>Node8</title>
<g id="a_Node000008"><a xlink:href="../../da/d41/error_8h.html" target="_top" xlink:title=" ">
<polygon fill="white" stroke="#666666" points="310.12,-19.25 267.12,-19.25 267.12,0 310.12,0 310.12,-19.25"/>
<text xml:space="preserve" text-anchor="middle" x="288.62" y="-5.75" font-family="Helvetica,sans-Serif" font-size="10.00">error.h</text>
</a>
</g>
</g>
<!-- Node5&#45;&gt;Node8 -->
<g id="edge8_Node000005_Node000008" class="edge">
<title>Node5&#45;&gt;Node8</title>
<g id="a_edge8_Node000005_Node000008"><a xlink:title=" ">
<path fill="none" stroke="#63b8ff" d="M203.93,-54.84C219.61,-46.66 242.98,-34.46 261.2,-24.94"/>
<polygon fill="#63b8ff" stroke="#63b8ff" points="262.65,-28.13 269.9,-20.4 259.41,-21.93 262.65,-28.13"/>
</a>
</g>
</g>
</g>
</svg>
</svg>

<style type='text/css'>
<![CDATA[
[data-mouse-over-selected='false'] { opacity: 0.7; }
[data-mouse-over-selected='true']  { opacity: 1.0; }
]]>
</style>
<script type="application/ecmascript"><![CDATA[
document.addEventListener('DOMContentLoaded', (event) => {
  highlightEdges();
  highlightAdjacentNodes();
});
]]></script>
</svg>
