<?xml version="1.0" encoding="UTF-8" standalone="no"?>
<!DOCTYPE svg PUBLIC "-//W3C//DTD SVG 1.1//EN"
 "http://www.w3.org/Graphics/SVG/1.1/DTD/svg11.dtd">
<!-- Generated by graphviz version 14.0.0 (20250921.2048)
 -->
<!-- Title: print_ELPH_logo Pages: 1 -->
<svg width="304pt" height="64pt"
 viewBox="0.00 0.00 304.00 64.00" xmlns="http://www.w3.org/2000/svg" xmlns:xlink="http://www.w3.org/1999/xlink">
<g id="graph0" class="graph" transform="scale(1 1) rotate(0) translate(4 60.25)">
<title>print_ELPH_logo</title>
<!-- Node1 -->
<g id="Node000001" class="node">
<title>Node1</title>
<g id="a_Node000001"><a xlink:title=" ">
<polygon fill="#999999" stroke="#666666" points="296.25,-37.25 206.75,-37.25 206.75,-18 296.25,-18 296.25,-37.25"/>
<text xml:space="preserve" text-anchor="middle" x="251.5" y="-23.75" font-family="Helvetica,sans-Serif" font-size="10.00">print_ELPH_logo</text>
</a>
</g>
</g>
<!-- Node2 -->
<g id="Node000002" class="node">
<title>Node2</title>
<g id="a_Node000002"><a xlink:href="../../da/d2e/elph__driver_8c.html#ad9f405d41cf090d652dbe1307700665f" target="_top" xlink:title=" ">
<polygon fill="white" stroke="#666666" points="153.5,-56.25 90.25,-56.25 90.25,-37 153.5,-37 153.5,-56.25"/>
<text xml:space="preserve" text-anchor="middle" x="121.88" y="-42.75" font-family="Helvetica,sans-Serif" font-size="10.00">elph_driver</text>
</a>
</g>
</g>
<!-- Node1&#45;&gt;Node2 -->
<g id="edge1_Node000001_Node000002" class="edge">
<title>Node1&#45;&gt;Node2</title>
<g id="a_edge1_Node000001_Node000002"><a xlink:title=" ">
<path fill="none" stroke="#63b8ff" d="M195.39,-35.83C181.22,-37.94 166.47,-40.14 153.99,-41.99"/>
<polygon fill="#63b8ff" stroke="#63b8ff" points="195.71,-39.32 205.08,-34.39 194.68,-32.4 195.71,-39.32"/>
</a>
</g>
</g>
<!-- Node4 -->
<g id="Node000004" class="node">
<title>Node4</title>
<g id="a_Node000004"><a xlink:href="../../da/dc2/interpolation__driver_8c.html#aecc42ae41d168b486807b337fcf5b3de" target="_top" xlink:title=" ">
<polygon fill="white" stroke="#666666" points="170.75,-19.25 73,-19.25 73,0 170.75,0 170.75,-19.25"/>
<text xml:space="preserve" text-anchor="middle" x="121.88" y="-5.75" font-family="Helvetica,sans-Serif" font-size="10.00">interpolation_driver</text>
</a>
</g>
</g>
<!-- Node1&#45;&gt;Node4 -->
<g id="edge3_Node000001_Node000004" class="edge">
<title>Node1&#45;&gt;Node4</title>
<g id="a_edge3_Node000001_Node000004"><a xlink:title=" ">
<path fill="none" stroke="#63b8ff" d="M195.4,-19.85C187.36,-18.72 179.14,-17.56 171.25,-16.45"/>
<polygon fill="#63b8ff" stroke="#63b8ff" points="194.69,-23.29 205.08,-21.22 195.67,-16.36 194.69,-23.29"/>
</a>
</g>
</g>
<!-- Node3 -->
<g id="Node000003" class="node">
<title>Node3</title>
<g id="a_Node000003"><a xlink:href="../../d3/dd5/main__elph_c_8c.html#a0ddf1224851353fc92bfbff6f499fa97" target="_top" xlink:title="Main program entry point.">
<polygon fill="white" stroke="#666666" points="37,-37.25 0,-37.25 0,-18 37,-18 37,-37.25"/>
<text xml:space="preserve" text-anchor="middle" x="18.5" y="-23.75" font-family="Helvetica,sans-Serif" font-size="10.00">main</text>
</a>
</g>
</g>
<!-- Node2&#45;&gt;Node3 -->
<g id="edge2_Node000002_Node000003" class="edge">
<title>Node2&#45;&gt;Node3</title>
<g id="a_edge2_Node000002_Node000003"><a xlink:title=" ">
<path fill="none" stroke="#63b8ff" d="M78.61,-38.7C64.16,-36 48.77,-33.11 37.32,-30.96"/>
<polygon fill="#63b8ff" stroke="#63b8ff" points="77.95,-42.14 88.42,-40.54 79.24,-35.26 77.95,-42.14"/>
</a>
</g>
</g>
<!-- Node4&#45;&gt;Node3 -->
<g id="edge4_Node000004_Node000003" class="edge">
<title>Node4&#45;&gt;Node3</title>
<g id="a_edge4_Node000004_Node000003"><a xlink:title=" ">
<path fill="none" stroke="#63b8ff" d="M61.33,-20.2C52.55,-21.76 44.14,-23.25 37.19,-24.48"/>
<polygon fill="#63b8ff" stroke="#63b8ff" points="61.84,-23.66 71.07,-18.47 60.61,-16.77 61.84,-23.66"/>
</a>
</g>
</g>
</g>
</svg>
