<?xml version="1.0" encoding="UTF-8" standalone="no"?>
<!DOCTYPE svg PUBLIC "-//W3C//DTD SVG 1.1//EN"
 "http://www.w3.org/Graphics/SVG/1.1/DTD/svg11.dtd">
<!-- Generated by graphviz version 14.0.0 (20250921.2048)
 -->
<!-- Title: get_fft_box Pages: 1 -->
<svg width="412pt" height="46pt"
 viewBox="0.00 0.00 412.00 46.00" xmlns="http://www.w3.org/2000/svg" xmlns:xlink="http://www.w3.org/1999/xlink">
<g id="graph0" class="graph" transform="scale(1 1) rotate(0) translate(4 42.25)">
<title>get_fft_box</title>
<!-- Node1 -->
<g id="Node000001" class="node">
<title>Node1</title>
<g id="a_Node000001"><a xlink:title=" ">
<polygon fill="#999999" stroke="#666666" points="403.75,-19.25 339,-19.25 339,0 403.75,0 403.75,-19.25"/>
<text xml:space="preserve" text-anchor="middle" x="371.38" y="-5.75" font-family="Helvetica,sans-Serif" font-size="10.00">get_fft_box</text>
</a>
</g>
</g>
<!-- Node2 -->
<g id="Node000002" class="node">
<title>Node2</title>
<g id="a_Node000002"><a xlink:href="../../d1/d94/d_vpot__add__long__range_8c.html#a0923c770a93d2648a5d75b70fbb9c61c" target="_top" xlink:title=" ">
<polygon fill="white" stroke="#666666" points="303,-38.25 206.75,-38.25 206.75,-19 303,-19 303,-38.25"/>
<text xml:space="preserve" text-anchor="middle" x="254.88" y="-24.75" font-family="Helvetica,sans-Serif" font-size="10.00">dV_add_longrange</text>
</a>
</g>
</g>
<!-- Node1&#45;&gt;Node2 -->
<g id="edge1_Node000001_Node000002" class="edge">
<title>Node1&#45;&gt;Node2</title>
<g id="a_edge1_Node000001_Node000002"><a xlink:title=" ">
<path fill="none" stroke="#63b8ff" d="M327.53,-16.73C319.61,-18.05 311.29,-19.43 303.24,-20.77"/>
<polygon fill="#63b8ff" stroke="#63b8ff" points="328,-20.2 337.29,-15.11 326.85,-13.3 328,-20.2"/>
</a>
</g>
</g>
<!-- Node3 -->
<g id="Node000003" class="node">
<title>Node3</title>
<g id="a_Node000003"><a xlink:href="../../da/dc2/interpolation__driver_8c.html#aecc42ae41d168b486807b337fcf5b3de" target="_top" xlink:title=" ">
<polygon fill="white" stroke="#666666" points="170.75,-19.25 73,-19.25 73,0 170.75,0 170.75,-19.25"/>
<text xml:space="preserve" text-anchor="middle" x="121.88" y="-5.75" font-family="Helvetica,sans-Serif" font-size="10.00">interpolation_driver</text>
</a>
</g>
</g>
<!-- Node1&#45;&gt;Node3 -->
<g id="edge4_Node000001_Node000003" class="edge">
<title>Node1&#45;&gt;Node3</title>
<g id="a_edge4_Node000001_Node000003"><a xlink:title=" ">
<path fill="none" stroke="#63b8ff" d="M327.17,-9.62C283.6,-9.62 216.49,-9.62 171.18,-9.62"/>
<polygon fill="#63b8ff" stroke="#63b8ff" points="327.01,-13.13 337.01,-9.63 327.01,-6.13 327.01,-13.13"/>
</a>
</g>
</g>
<!-- Node2&#45;&gt;Node3 -->
<g id="edge2_Node000002_Node000003" class="edge">
<title>Node2&#45;&gt;Node3</title>
<g id="a_edge2_Node000002_Node000003"><a xlink:title=" ">
<path fill="none" stroke="#63b8ff" d="M195.25,-20.12C187.14,-18.95 178.88,-17.75 170.98,-16.6"/>
<polygon fill="#63b8ff" stroke="#63b8ff" points="194.68,-23.58 205.08,-21.55 195.69,-16.65 194.68,-23.58"/>
</a>
</g>
</g>
<!-- Node4 -->
<g id="Node000004" class="node">
<title>Node4</title>
<g id="a_Node000004"><a xlink:href="../../d3/dd5/main__elph_c_8c.html#a0ddf1224851353fc92bfbff6f499fa97" target="_top" xlink:title="Main program entry point.">
<polygon fill="white" stroke="#666666" points="37,-19.25 0,-19.25 0,0 37,0 37,-19.25"/>
<text xml:space="preserve" text-anchor="middle" x="18.5" y="-5.75" font-family="Helvetica,sans-Serif" font-size="10.00">main</text>
</a>
</g>
</g>
<!-- Node3&#45;&gt;Node4 -->
<g id="edge3_Node000003_Node000004" class="edge">
<title>Node3&#45;&gt;Node4</title>
<g id="a_edge3_Node000003_Node000004"><a xlink:title=" ">
<path fill="none" stroke="#63b8ff" d="M61.33,-9.62C52.55,-9.62 44.14,-9.62 37.19,-9.62"/>
<polygon fill="#63b8ff" stroke="#63b8ff" points="61.05,-13.13 71.05,-9.63 61.05,-6.13 61.05,-13.13"/>
</a>
</g>
</g>
</g>
</svg>
