<?xml version="1.0" encoding="UTF-8" standalone="no"?>
<!DOCTYPE svg PUBLIC "-//W3C//DTD SVG 1.1//EN"
 "http://www.w3.org/Graphics/SVG/1.1/DTD/svg11.dtd">
<!-- Generated by graphviz version 14.0.0 (20250921.2048)
 -->
<!-- Title: rotateGvecs Pages: 1 -->
<svg width="300pt" height="101pt"
 viewBox="0.00 0.00 300.00 101.00" xmlns="http://www.w3.org/2000/svg" xmlns:xlink="http://www.w3.org/1999/xlink">
<g id="graph0" class="graph" transform="scale(1 1) rotate(0) translate(4 97.25)">
<title>rotateGvecs</title>
<!-- Node1 -->
<g id="Node000001" class="node">
<title>Node1</title>
<g id="a_Node000001"><a xlink:title=" ">
<polygon fill="#999999" stroke="#666666" points="69.25,-56.25 0,-56.25 0,-37 69.25,-37 69.25,-56.25"/>
<text xml:space="preserve" text-anchor="middle" x="34.62" y="-42.75" font-family="Helvetica,sans-Serif" font-size="10.00">rotateGvecs</text>
</a>
</g>
</g>
<!-- Node2 -->
<g id="Node000002" class="node">
<title>Node2</title>
<g id="a_Node000002"><a xlink:href="../../de/d2d/numerical__func_8c.html#af511a32007a9865999d8bcf06cfff1dc" target="_top" xlink:title=" ">
<polygon fill="white" stroke="#666666" points="173.38,-93.25 109.38,-93.25 109.38,-74 173.38,-74 173.38,-93.25"/>
<text xml:space="preserve" text-anchor="middle" x="141.38" y="-79.75" font-family="Helvetica,sans-Serif" font-size="10.00">Gemm3x3f</text>
</a>
</g>
</g>
<!-- Node1&#45;&gt;Node2 -->
<g id="edge1_Node000001_Node000002" class="edge">
<title>Node1&#45;&gt;Node2</title>
<g id="a_edge1_Node000001_Node000002"><a xlink:title=" ">
<path fill="none" stroke="#63b8ff" d="M64.25,-56.74C75.56,-60.73 88.76,-65.39 100.95,-69.7"/>
<polygon fill="#63b8ff" stroke="#63b8ff" points="99.76,-72.99 110.36,-73.02 102.1,-66.39 99.76,-72.99"/>
</a>
</g>
</g>
<!-- Node3 -->
<g id="Node000003" class="node">
<title>Node3</title>
<g id="a_Node000003"><a xlink:href="../../dc/d50/blas_8c.html#afca62df4906b4070e12af84f53906dc8" target="_top" xlink:title=" ">
<polygon fill="white" stroke="#666666" points="177.5,-56.25 105.25,-56.25 105.25,-37 177.5,-37 177.5,-56.25"/>
<text xml:space="preserve" text-anchor="middle" x="141.38" y="-42.75" font-family="Helvetica,sans-Serif" font-size="10.00">matmul_float</text>
</a>
</g>
</g>
<!-- Node1&#45;&gt;Node3 -->
<g id="edge2_Node000001_Node000003" class="edge">
<title>Node1&#45;&gt;Node3</title>
<g id="a_edge2_Node000001_Node000003"><a xlink:title=" ">
<path fill="none" stroke="#63b8ff" d="M69.63,-46.62C77.35,-46.62 85.67,-46.62 93.81,-46.62"/>
<polygon fill="#63b8ff" stroke="#63b8ff" points="93.58,-50.13 103.58,-46.63 93.58,-43.13 93.58,-50.13"/>
</a>
</g>
</g>
<!-- Node5 -->
<g id="Node000005" class="node">
<title>Node5</title>
<g id="a_Node000005"><a xlink:href="../../de/d2d/numerical__func_8c.html#adeeb2c0049b8e3663d2d2cc9f7a1cd23" target="_top" xlink:title=" ">
<polygon fill="white" stroke="#666666" points="170.38,-19.25 112.38,-19.25 112.38,0 170.38,0 170.38,-19.25"/>
<text xml:space="preserve" text-anchor="middle" x="141.38" y="-5.75" font-family="Helvetica,sans-Serif" font-size="10.00">MatVec3f</text>
</a>
</g>
</g>
<!-- Node1&#45;&gt;Node5 -->
<g id="edge4_Node000001_Node000005" class="edge">
<title>Node1&#45;&gt;Node5</title>
<g id="a_edge4_Node000001_Node000005"><a xlink:title=" ">
<path fill="none" stroke="#63b8ff" d="M64.25,-36.51C75.77,-32.44 89.25,-27.68 101.63,-23.31"/>
<polygon fill="#63b8ff" stroke="#63b8ff" points="102.46,-26.73 110.72,-20.1 100.13,-20.13 102.46,-26.73"/>
</a>
</g>
</g>
<!-- Node4 -->
<g id="Node000004" class="node">
<title>Node4</title>
<g id="a_Node000004"><a xlink:href="../../dc/d50/blas_8c.html#a913bafabc05e83b2aeed88da231a461f" target="_top" xlink:title=" ">
<polygon fill="white" stroke="#666666" points="291.75,-56.25 213.5,-56.25 213.5,-37 291.75,-37 291.75,-56.25"/>
<text xml:space="preserve" text-anchor="middle" x="252.62" y="-42.75" font-family="Helvetica,sans-Serif" font-size="10.00">get_gemmn_T</text>
</a>
</g>
</g>
<!-- Node3&#45;&gt;Node4 -->
<g id="edge3_Node000003_Node000004" class="edge">
<title>Node3&#45;&gt;Node4</title>
<g id="a_edge3_Node000003_Node000004"><a xlink:title=" ">
<path fill="none" stroke="#63b8ff" d="M177.85,-46.62C185.55,-46.62 193.84,-46.62 201.98,-46.62"/>
<polygon fill="#63b8ff" stroke="#63b8ff" points="201.8,-50.13 211.8,-46.63 201.8,-43.13 201.8,-50.13"/>
</a>
</g>
</g>
</g>
</svg>
