<?xml version="1.0" encoding="UTF-8" standalone="no"?>
<!DOCTYPE svg PUBLIC "-//W3C//DTD SVG 1.1//EN"
 "http://www.w3.org/Graphics/SVG/1.1/DTD/svg11.dtd">
<!-- Generated by graphviz version 14.0.0 (20250921.2048)
 -->
<!-- Title: Sort_pw Pages: 1 -->
<svg width="491pt" height="27pt"
 viewBox="0.00 0.00 491.00 27.00" xmlns="http://www.w3.org/2000/svg" xmlns:xlink="http://www.w3.org/1999/xlink">
<g id="graph0" class="graph" transform="scale(1 1) rotate(0) translate(4 23.25)">
<title>Sort_pw</title>
<!-- Node1 -->
<g id="Node000001" class="node">
<title>Node1</title>
<g id="a_Node000001"><a xlink:title=" ">
<polygon fill="#999999" stroke="#666666" points="482.75,-19.25 430.75,-19.25 430.75,0 482.75,0 482.75,-19.25"/>
<text xml:space="preserve" text-anchor="middle" x="456.75" y="-5.75" font-family="Helvetica,sans-Serif" font-size="10.00">Sort_pw</text>
</a>
</g>
</g>
<!-- Node2 -->
<g id="Node000002" class="node">
<title>Node2</title>
<g id="a_Node000002"><a xlink:href="../../d1/d8e/compute___vbare__loc_8c.html#a5f1d51340a8457749225b05b612e4abe" target="_top" xlink:title=" ">
<polygon fill="white" stroke="#666666" points="394.75,-19.25 337.5,-19.25 337.5,0 394.75,0 394.75,-19.25"/>
<text xml:space="preserve" text-anchor="middle" x="366.12" y="-5.75" font-family="Helvetica,sans-Serif" font-size="10.00">elphLocal</text>
</a>
</g>
</g>
<!-- Node1&#45;&gt;Node2 -->
<g id="edge1_Node000001_Node000002" class="edge">
<title>Node1&#45;&gt;Node2</title>
<g id="a_edge1_Node000001_Node000002"><a xlink:title=" ">
<path fill="none" stroke="#63b8ff" d="M419.2,-9.62C411.17,-9.62 402.79,-9.62 395.15,-9.62"/>
<polygon fill="#63b8ff" stroke="#63b8ff" points="419.08,-13.13 429.08,-9.63 419.08,-6.13 419.08,-13.13"/>
</a>
</g>
</g>
<!-- Node3 -->
<g id="Node000003" class="node">
<title>Node3</title>
<g id="a_Node000003"><a xlink:href="../../d5/dd2/compute__elph__matq_8c.html#ad32ab6f17a3745b7f82151d7f5b927f2" target="_top" xlink:title=" ">
<polygon fill="white" stroke="#666666" points="301.5,-19.25 172.25,-19.25 172.25,0 301.5,0 301.5,-19.25"/>
<text xml:space="preserve" text-anchor="middle" x="236.88" y="-5.75" font-family="Helvetica,sans-Serif" font-size="10.00">compute_and_write_elphq</text>
</a>
</g>
</g>
<!-- Node2&#45;&gt;Node3 -->
<g id="edge2_Node000002_Node000003" class="edge">
<title>Node2&#45;&gt;Node3</title>
<g id="a_edge2_Node000002_Node000003"><a xlink:title=" ">
<path fill="none" stroke="#63b8ff" d="M325.81,-9.62C318.23,-9.62 310.11,-9.62 301.98,-9.62"/>
<polygon fill="#63b8ff" stroke="#63b8ff" points="325.69,-13.13 335.69,-9.63 325.69,-6.13 325.69,-13.13"/>
</a>
</g>
</g>
<!-- Node4 -->
<g id="Node000004" class="node">
<title>Node4</title>
<g id="a_Node000004"><a xlink:href="../../da/d2e/elph__driver_8c.html#ad9f405d41cf090d652dbe1307700665f" target="_top" xlink:title=" ">
<polygon fill="white" stroke="#666666" points="136.25,-19.25 73,-19.25 73,0 136.25,0 136.25,-19.25"/>
<text xml:space="preserve" text-anchor="middle" x="104.62" y="-5.75" font-family="Helvetica,sans-Serif" font-size="10.00">elph_driver</text>
</a>
</g>
</g>
<!-- Node3&#45;&gt;Node4 -->
<g id="edge3_Node000003_Node000004" class="edge">
<title>Node3&#45;&gt;Node4</title>
<g id="a_edge3_Node000003_Node000004"><a xlink:title=" ">
<path fill="none" stroke="#63b8ff" d="M160.64,-9.62C152.14,-9.62 143.88,-9.62 136.45,-9.62"/>
<polygon fill="#63b8ff" stroke="#63b8ff" points="160.38,-13.13 170.38,-9.63 160.38,-6.13 160.38,-13.13"/>
</a>
</g>
</g>
<!-- Node5 -->
<g id="Node000005" class="node">
<title>Node5</title>
<g id="a_Node000005"><a xlink:href="../../d3/dd5/main__elph_c_8c.html#a0ddf1224851353fc92bfbff6f499fa97" target="_top" xlink:title="Main program entry point.">
<polygon fill="white" stroke="#666666" points="37,-19.25 0,-19.25 0,0 37,0 37,-19.25"/>
<text xml:space="preserve" text-anchor="middle" x="18.5" y="-5.75" font-family="Helvetica,sans-Serif" font-size="10.00">main</text>
</a>
</g>
</g>
<!-- Node4&#45;&gt;Node5 -->
<g id="edge4_Node000004_Node000005" class="edge">
<title>Node4&#45;&gt;Node5</title>
<g id="a_edge4_Node000004_Node000005"><a xlink:title=" ">
<path fill="none" stroke="#63b8ff" d="M61.27,-9.62C52.74,-9.62 44.23,-9.62 37.14,-9.62"/>
<polygon fill="#63b8ff" stroke="#63b8ff" points="61.26,-13.13 71.26,-9.63 61.26,-6.13 61.26,-13.13"/>
</a>
</g>
</g>
</g>
</svg>
