<?xml version="1.0" encoding="UTF-8" standalone="no"?>
<!DOCTYPE svg PUBLIC "-//W3C//DTD SVG 1.1//EN"
 "http://www.w3.org/Graphics/SVG/1.1/DTD/svg11.dtd">
<!-- Generated by graphviz version 14.0.0 (20250921.2048)
 -->
<!-- Title: SU2mat Pages: 1 -->
<svg width="568pt" height="138pt"
 viewBox="0.00 0.00 568.00 138.00" xmlns="http://www.w3.org/2000/svg" xmlns:xlink="http://www.w3.org/1999/xlink">
<g id="graph0" class="graph" transform="scale(1 1) rotate(0) translate(4 134.25)">
<title>SU2mat</title>
<!-- Node1 -->
<g id="Node000001" class="node">
<title>Node1</title>
<g id="a_Node000001"><a xlink:title=" ">
<polygon fill="#999999" stroke="#666666" points="560,-74.25 508,-74.25 508,-55 560,-55 560,-74.25"/>
<text xml:space="preserve" text-anchor="middle" x="534" y="-60.75" font-family="Helvetica,sans-Serif" font-size="10.00">SU2mat</text>
</a>
</g>
</g>
<!-- Node2 -->
<g id="Node000002" class="node">
<title>Node2</title>
<g id="a_Node000002"><a xlink:href="../../d6/db8/_vbare__nloc_8c.html#abeb59b7a11cbc7ffec9b5bb2759ebbdd" target="_top" xlink:title=" ">
<polygon fill="white" stroke="#666666" points="472,-130.25 375.75,-130.25 375.75,-111 472,-111 472,-130.25"/>
<text xml:space="preserve" text-anchor="middle" x="423.88" y="-116.75" font-family="Helvetica,sans-Serif" font-size="10.00">add_elphNonLocal</text>
</a>
</g>
</g>
<!-- Node1&#45;&gt;Node2 -->
<g id="edge1_Node000001_Node000002" class="edge">
<title>Node1&#45;&gt;Node2</title>
<g id="a_edge1_Node000001_Node000002"><a xlink:title=" ">
<path fill="none" stroke="#63b8ff" d="M509.52,-80.73C498.43,-87.95 484.83,-96.25 472,-102.62 466.2,-105.51 459.81,-108.23 453.66,-110.64"/>
<polygon fill="#63b8ff" stroke="#63b8ff" points="511.25,-83.78 517.65,-75.33 507.38,-77.95 511.25,-83.78"/>
</a>
</g>
</g>
<!-- Node6 -->
<g id="Node000006" class="node">
<title>Node6</title>
<g id="a_Node000006"><a xlink:href="../../dd/de7/elec__reps_8c.html#a9ad01d68a7d4f87c39a98bf13778cd64" target="_top" xlink:title=" ">
<polygon fill="white" stroke="#666666" points="464.88,-56.25 382.88,-56.25 382.88,-37 464.88,-37 464.88,-56.25"/>
<text xml:space="preserve" text-anchor="middle" x="423.88" y="-42.75" font-family="Helvetica,sans-Serif" font-size="10.00">electronic_reps</text>
</a>
</g>
</g>
<!-- Node1&#45;&gt;Node6 -->
<g id="edge5_Node000001_Node000006" class="edge">
<title>Node1&#45;&gt;Node6</title>
<g id="a_edge5_Node000001_Node000006"><a xlink:title=" ">
<path fill="none" stroke="#63b8ff" d="M496.41,-58.53C486.4,-56.87 475.5,-55.05 465.3,-53.35"/>
<polygon fill="#63b8ff" stroke="#63b8ff" points="495.72,-61.97 506.16,-60.16 496.87,-55.06 495.72,-61.97"/>
</a>
</g>
</g>
<!-- Node8 -->
<g id="Node000008" class="node">
<title>Node8</title>
<g id="a_Node000008"><a xlink:href="../../d1/d8e/compute___vbare__loc_8c.html#a5f1d51340a8457749225b05b612e4abe" target="_top" xlink:title=" ">
<polygon fill="white" stroke="#666666" points="452.5,-93.25 395.25,-93.25 395.25,-74 452.5,-74 452.5,-93.25"/>
<text xml:space="preserve" text-anchor="middle" x="423.88" y="-79.75" font-family="Helvetica,sans-Serif" font-size="10.00">elphLocal</text>
</a>
</g>
</g>
<!-- Node1&#45;&gt;Node8 -->
<g id="edge8_Node000001_Node000008" class="edge">
<title>Node1&#45;&gt;Node8</title>
<g id="a_edge8_Node000001_Node000008"><a xlink:title=" ">
<path fill="none" stroke="#63b8ff" d="M496.64,-71.01C482.31,-73.53 466.1,-76.38 452.72,-78.73"/>
<polygon fill="#63b8ff" stroke="#63b8ff" points="496.92,-74.52 506.16,-69.34 495.7,-67.63 496.92,-74.52"/>
</a>
</g>
</g>
<!-- Node9 -->
<g id="Node000009" class="node">
<title>Node9</title>
<g id="a_Node000009"><a xlink:href="../../d7/db8/rotate__dvscf_8c.html#afc7697db9b562c621c6e23a9f849e985" target="_top" xlink:title=" ">
<polygon fill="white" stroke="#666666" points="458.88,-19.25 388.88,-19.25 388.88,0 458.88,0 458.88,-19.25"/>
<text xml:space="preserve" text-anchor="middle" x="423.88" y="-5.75" font-family="Helvetica,sans-Serif" font-size="10.00">rotate_dvscf</text>
</a>
</g>
</g>
<!-- Node1&#45;&gt;Node9 -->
<g id="edge10_Node000001_Node000009" class="edge">
<title>Node1&#45;&gt;Node9</title>
<g id="a_edge10_Node000001_Node000009"><a xlink:title=" ">
<path fill="none" stroke="#63b8ff" d="M509.02,-48.7C498,-41.75 484.61,-33.79 472,-27.62 466.18,-24.78 459.79,-22.07 453.64,-19.66"/>
<polygon fill="#63b8ff" stroke="#63b8ff" points="506.81,-51.44 517.11,-53.91 510.59,-45.55 506.81,-51.44"/>
</a>
</g>
</g>
<!-- Node3 -->
<g id="Node000003" class="node">
<title>Node3</title>
<g id="a_Node000003"><a xlink:href="../../d5/dd2/compute__elph__matq_8c.html#ad32ab6f17a3745b7f82151d7f5b927f2" target="_top" xlink:title=" ">
<polygon fill="white" stroke="#666666" points="337.88,-94.25 208.62,-94.25 208.62,-75 337.88,-75 337.88,-94.25"/>
<text xml:space="preserve" text-anchor="middle" x="273.25" y="-80.75" font-family="Helvetica,sans-Serif" font-size="10.00">compute_and_write_elphq</text>
</a>
</g>
</g>
<!-- Node2&#45;&gt;Node3 -->
<g id="edge2_Node000002_Node000003" class="edge">
<title>Node2&#45;&gt;Node3</title>
<g id="a_edge2_Node000002_Node000003"><a xlink:title=" ">
<path fill="none" stroke="#63b8ff" d="M370.02,-107.82C352.28,-103.52 332.75,-98.8 315.99,-94.74"/>
<polygon fill="#63b8ff" stroke="#63b8ff" points="369.07,-111.19 379.61,-110.14 370.71,-104.39 369.07,-111.19"/>
</a>
</g>
</g>
<!-- Node4 -->
<g id="Node000004" class="node">
<title>Node4</title>
<g id="a_Node000004"><a xlink:href="../../da/d2e/elph__driver_8c.html#ad9f405d41cf090d652dbe1307700665f" target="_top" xlink:title=" ">
<polygon fill="white" stroke="#666666" points="153.5,-57.25 90.25,-57.25 90.25,-38 153.5,-38 153.5,-57.25"/>
<text xml:space="preserve" text-anchor="middle" x="121.88" y="-43.75" font-family="Helvetica,sans-Serif" font-size="10.00">elph_driver</text>
</a>
</g>
</g>
<!-- Node3&#45;&gt;Node4 -->
<g id="edge3_Node000003_Node000004" class="edge">
<title>Node3&#45;&gt;Node4</title>
<g id="a_edge3_Node000003_Node000004"><a xlink:title=" ">
<path fill="none" stroke="#63b8ff" d="M220.45,-71.79C198.19,-66.28 172.93,-60.02 153.69,-55.26"/>
<polygon fill="#63b8ff" stroke="#63b8ff" points="219.42,-75.14 229.96,-74.15 221.1,-68.35 219.42,-75.14"/>
</a>
</g>
</g>
<!-- Node5 -->
<g id="Node000005" class="node">
<title>Node5</title>
<g id="a_Node000005"><a xlink:href="../../d3/dd5/main__elph_c_8c.html#a0ddf1224851353fc92bfbff6f499fa97" target="_top" xlink:title="Main program entry point.">
<polygon fill="white" stroke="#666666" points="37,-38.25 0,-38.25 0,-19 37,-19 37,-38.25"/>
<text xml:space="preserve" text-anchor="middle" x="18.5" y="-24.75" font-family="Helvetica,sans-Serif" font-size="10.00">main</text>
</a>
</g>
</g>
<!-- Node4&#45;&gt;Node5 -->
<g id="edge4_Node000004_Node000005" class="edge">
<title>Node4&#45;&gt;Node5</title>
<g id="a_edge4_Node000004_Node000005"><a xlink:title=" ">
<path fill="none" stroke="#63b8ff" d="M78.61,-39.7C64.16,-37 48.77,-34.11 37.32,-31.96"/>
<polygon fill="#63b8ff" stroke="#63b8ff" points="77.95,-43.14 88.42,-41.54 79.24,-36.26 77.95,-43.14"/>
</a>
</g>
</g>
<!-- Node7 -->
<g id="Node000007" class="node">
<title>Node7</title>
<g id="a_Node000007"><a xlink:href="../../d5/d9f/compute__dmats_8c.html#aceeb11551c1d6413e6d4b5cae9704493" target="_top" xlink:title=" ">
<polygon fill="white" stroke="#666666" points="339.75,-57.25 206.75,-57.25 206.75,-38 339.75,-38 339.75,-57.25"/>
<text xml:space="preserve" text-anchor="middle" x="273.25" y="-43.75" font-family="Helvetica,sans-Serif" font-size="10.00">compute_and_write_dmats</text>
</a>
</g>
</g>
<!-- Node6&#45;&gt;Node7 -->
<g id="edge6_Node000006_Node000007" class="edge">
<title>Node6&#45;&gt;Node7</title>
<g id="a_edge6_Node000006_Node000007"><a xlink:title=" ">
<path fill="none" stroke="#63b8ff" d="M371.18,-46.97C361.11,-47.04 350.44,-47.11 340,-47.18"/>
<polygon fill="#63b8ff" stroke="#63b8ff" points="371.17,-50.47 381.14,-46.91 371.12,-43.47 371.17,-50.47"/>
</a>
</g>
</g>
<!-- Node7&#45;&gt;Node4 -->
<g id="edge7_Node000007_Node000004" class="edge">
<title>Node7&#45;&gt;Node4</title>
<g id="a_edge7_Node000007_Node000004"><a xlink:title=" ">
<path fill="none" stroke="#63b8ff" d="M195.1,-47.62C180.45,-47.62 165.92,-47.62 153.77,-47.62"/>
<polygon fill="#63b8ff" stroke="#63b8ff" points="194.78,-51.13 204.78,-47.63 194.78,-44.13 194.78,-51.13"/>
</a>
</g>
</g>
<!-- Node8&#45;&gt;Node3 -->
<g id="edge9_Node000008_Node000003" class="edge">
<title>Node8&#45;&gt;Node3</title>
<g id="a_edge9_Node000008_Node000003"><a xlink:title=" ">
<path fill="none" stroke="#63b8ff" d="M383.75,-83.89C369.78,-83.98 353.64,-84.09 338.13,-84.2"/>
<polygon fill="#63b8ff" stroke="#63b8ff" points="383.43,-87.39 393.41,-83.82 383.38,-80.39 383.43,-87.39"/>
</a>
</g>
</g>
<!-- Node10 -->
<g id="Node000010" class="node">
<title>Node10</title>
<g id="a_Node000010"><a xlink:href="../../da/dc2/interpolation__driver_8c.html#aecc42ae41d168b486807b337fcf5b3de" target="_top" xlink:title=" ">
<polygon fill="white" stroke="#666666" points="170.75,-20.25 73,-20.25 73,-1 170.75,-1 170.75,-20.25"/>
<text xml:space="preserve" text-anchor="middle" x="121.88" y="-6.75" font-family="Helvetica,sans-Serif" font-size="10.00">interpolation_driver</text>
</a>
</g>
</g>
<!-- Node9&#45;&gt;Node10 -->
<g id="edge11_Node000009_Node000010" class="edge">
<title>Node9&#45;&gt;Node10</title>
<g id="a_edge11_Node000009_Node000010"><a xlink:title=" ">
<path fill="none" stroke="#63b8ff" d="M377.19,-9.78C321.56,-9.96 228.01,-10.27 171.21,-10.46"/>
<polygon fill="#63b8ff" stroke="#63b8ff" points="376.96,-13.28 386.95,-9.74 376.94,-6.28 376.96,-13.28"/>
</a>
</g>
</g>
<!-- Node10&#45;&gt;Node5 -->
<g id="edge12_Node000010_Node000005" class="edge">
<title>Node10&#45;&gt;Node5</title>
<g id="a_edge12_Node000010_Node000005"><a xlink:title=" ">
<path fill="none" stroke="#63b8ff" d="M61.33,-21.2C52.55,-22.76 44.14,-24.25 37.19,-25.48"/>
<polygon fill="#63b8ff" stroke="#63b8ff" points="61.84,-24.66 71.07,-19.47 60.61,-17.77 61.84,-24.66"/>
</a>
</g>
</g>
</g>
</svg>
