<?xml version="1.0" encoding="UTF-8" standalone="no"?>
<!DOCTYPE svg PUBLIC "-//W3C//DTD SVG 1.1//EN"
 "http://www.w3.org/Graphics/SVG/1.1/DTD/svg11.dtd">
<!-- Generated by graphviz version 14.0.0 (20250921.2048)
 -->
<!-- Title: src/preprocessor/cli.c Pages: 1 -->
<svg width="665pt" height="193pt"
 viewBox="0.00 0.00 665.00 193.00" xmlns="http://www.w3.org/2000/svg" xmlns:xlink="http://www.w3.org/1999/xlink">
<g id="graph0" class="graph" transform="scale(1 1) rotate(0) translate(4 189)">
<title>src/preprocessor/cli.c</title>
<!-- Node1 -->
<g id="Node000001" class="node">
<title>Node1</title>
<g id="a_Node000001"><a xlink:title=" ">
<polygon fill="#999999" stroke="#666666" points="404.88,-185 295.12,-185 295.12,-165.75 404.88,-165.75 404.88,-185"/>
<text xml:space="preserve" text-anchor="middle" x="350" y="-171.5" font-family="Helvetica,sans-Serif" font-size="10.00">src/preprocessor/cli.c</text>
</a>
</g>
</g>
<!-- Node2 -->
<g id="Node000002" class="node">
<title>Node2</title>
<g id="a_Node000002"><a xlink:title=" ">
<polygon fill="#e0e0e0" stroke="#999999" points="40,-19.25 0,-19.25 0,0 40,0 40,-19.25"/>
<text xml:space="preserve" text-anchor="middle" x="20" y="-5.75" font-family="Helvetica,sans-Serif" font-size="10.00">mpi.h</text>
</a>
</g>
</g>
<!-- Node1&#45;&gt;Node2 -->
<g id="edge1_Node000001_Node000002" class="edge">
<title>Node1&#45;&gt;Node2</title>
<g id="a_edge1_Node000001_Node000002"><a xlink:title=" ">
<path fill="none" stroke="#63b8ff" d="M294.71,-172.51C219.92,-168.91 91.75,-158.61 56,-129.75 26.25,-105.73 20.43,-57.99 19.67,-30.81"/>
<polygon fill="#63b8ff" stroke="#63b8ff" points="23.17,-31.11 19.62,-21.13 16.17,-31.14 23.17,-31.11"/>
</a>
</g>
</g>
<!-- Node3 -->
<g id="Node000003" class="node">
<title>Node3</title>
<g id="a_Node000003"><a xlink:title=" ">
<polygon fill="#e0e0e0" stroke="#999999" points="193.88,-19.25 138.12,-19.25 138.12,0 193.88,0 193.88,-19.25"/>
<text xml:space="preserve" text-anchor="middle" x="166" y="-5.75" font-family="Helvetica,sans-Serif" font-size="10.00">stdbool.h</text>
</a>
</g>
</g>
<!-- Node1&#45;&gt;Node3 -->
<g id="edge2_Node000001_Node000003" class="edge">
<title>Node1&#45;&gt;Node3</title>
<g id="a_edge2_Node000001_Node000003"><a xlink:title=" ">
<path fill="none" stroke="#63b8ff" d="M294.88,-170.62C263.5,-165.67 225.66,-154.54 201,-129.75 174.35,-102.96 167.79,-57 166.3,-30.68"/>
<polygon fill="#63b8ff" stroke="#63b8ff" points="169.81,-30.9 165.96,-21.03 162.81,-31.14 169.81,-30.9"/>
</a>
</g>
</g>
<!-- Node4 -->
<g id="Node000004" class="node">
<title>Node4</title>
<g id="a_Node000004"><a xlink:title=" ">
<polygon fill="#e0e0e0" stroke="#999999" points="359.62,-74.5 308.38,-74.5 308.38,-55.25 359.62,-55.25 359.62,-74.5"/>
<text xml:space="preserve" text-anchor="middle" x="334" y="-61" font-family="Helvetica,sans-Serif" font-size="10.00">stddef.h</text>
</a>
</g>
</g>
<!-- Node1&#45;&gt;Node4 -->
<g id="edge3_Node000001_Node000004" class="edge">
<title>Node1&#45;&gt;Node4</title>
<g id="a_edge3_Node000001_Node000004"><a xlink:title=" ">
<path fill="none" stroke="#63b8ff" d="M348.69,-165.5C346.15,-148.25 340.48,-109.83 336.98,-86.06"/>
<polygon fill="#63b8ff" stroke="#63b8ff" points="340.47,-85.76 335.55,-76.37 333.54,-86.78 340.47,-85.76"/>
</a>
</g>
</g>
<!-- Node5 -->
<g id="Node000005" class="node">
<title>Node5</title>
<g id="a_Node000005"><a xlink:title=" ">
<polygon fill="#e0e0e0" stroke="#999999" points="461.62,-74.5 416.38,-74.5 416.38,-55.25 461.62,-55.25 461.62,-74.5"/>
<text xml:space="preserve" text-anchor="middle" x="439" y="-61" font-family="Helvetica,sans-Serif" font-size="10.00">stdio.h</text>
</a>
</g>
</g>
<!-- Node1&#45;&gt;Node5 -->
<g id="edge4_Node000001_Node000005" class="edge">
<title>Node1&#45;&gt;Node5</title>
<g id="a_edge4_Node000001_Node000005"><a xlink:title=" ">
<path fill="none" stroke="#63b8ff" d="M362.61,-165.48C373.85,-157.13 390.29,-143.84 402,-129.75 413.4,-116.03 423.35,-98.34 430.04,-85.06"/>
<polygon fill="#63b8ff" stroke="#63b8ff" points="433.18,-86.62 434.39,-76.09 426.88,-83.56 433.18,-86.62"/>
</a>
</g>
</g>
<!-- Node6 -->
<g id="Node000006" class="node">
<title>Node6</title>
<g id="a_Node000006"><a xlink:title=" ">
<polygon fill="#e0e0e0" stroke="#999999" points="526.75,-74.5 479.25,-74.5 479.25,-55.25 526.75,-55.25 526.75,-74.5"/>
<text xml:space="preserve" text-anchor="middle" x="503" y="-61" font-family="Helvetica,sans-Serif" font-size="10.00">stdlib.h</text>
</a>
</g>
</g>
<!-- Node1&#45;&gt;Node6 -->
<g id="edge5_Node000001_Node000006" class="edge">
<title>Node1&#45;&gt;Node6</title>
<g id="a_edge5_Node000001_Node000006"><a xlink:title=" ">
<path fill="none" stroke="#63b8ff" d="M366.03,-165.35C381.07,-156.71 404.02,-143.05 423,-129.75 444.66,-114.57 468.17,-95.46 484.06,-82.11"/>
<polygon fill="#63b8ff" stroke="#63b8ff" points="485.94,-85.11 491.31,-75.97 481.41,-79.77 485.94,-85.11"/>
</a>
</g>
</g>
<!-- Node7 -->
<g id="Node000007" class="node">
<title>Node7</title>
<g id="a_Node000007"><a xlink:title=" ">
<polygon fill="#e0e0e0" stroke="#999999" points="657.12,-74.5 608.88,-74.5 608.88,-55.25 657.12,-55.25 657.12,-74.5"/>
<text xml:space="preserve" text-anchor="middle" x="633" y="-61" font-family="Helvetica,sans-Serif" font-size="10.00">string.h</text>
</a>
</g>
</g>
<!-- Node1&#45;&gt;Node7 -->
<g id="edge6_Node000001_Node000007" class="edge">
<title>Node1&#45;&gt;Node7</title>
<g id="a_edge6_Node000001_Node000007"><a xlink:title=" ">
<path fill="none" stroke="#63b8ff" d="M405.22,-174.53C455.06,-172.29 528.68,-162.9 583,-129.75 600.63,-118.99 614.46,-99.6 623.07,-85"/>
<polygon fill="#63b8ff" stroke="#63b8ff" points="626.1,-86.76 627.88,-76.31 619.97,-83.37 626.1,-86.76"/>
</a>
</g>
</g>
<!-- Node8 -->
<g id="Node000008" class="node">
<title>Node8</title>
<g id="a_Node000008"><a xlink:href="../../d9/d43/_e_l_p_h__getopt_8h.html" target="_top" xlink:title=" ">
<polygon fill="white" stroke="#666666" points="574.38,-129.75 491.62,-129.75 491.62,-110.5 574.38,-110.5 574.38,-129.75"/>
<text xml:space="preserve" text-anchor="middle" x="533" y="-116.25" font-family="Helvetica,sans-Serif" font-size="10.00">ELPH_getopt.h</text>
</a>
</g>
</g>
<!-- Node1&#45;&gt;Node8 -->
<g id="edge7_Node000001_Node000008" class="edge">
<title>Node1&#45;&gt;Node8</title>
<g id="a_edge7_Node000001_Node000008"><a xlink:title=" ">
<path fill="none" stroke="#63b8ff" d="M381.04,-165.34C411.28,-156.54 457.45,-143.11 490.97,-133.36"/>
<polygon fill="#63b8ff" stroke="#63b8ff" points="491.73,-136.78 500.35,-130.63 489.77,-130.06 491.73,-136.78"/>
</a>
</g>
</g>
<!-- Node10 -->
<g id="Node000010" class="node">
<title>Node10</title>
<g id="a_Node000010"><a xlink:href="../../d2/d02/dtypes_8h.html" target="_top" xlink:title=" ">
<polygon fill="white" stroke="#666666" points="138,-74.5 44,-74.5 44,-55.25 138,-55.25 138,-74.5"/>
<text xml:space="preserve" text-anchor="middle" x="91" y="-61" font-family="Helvetica,sans-Serif" font-size="10.00">common/dtypes.h</text>
</a>
</g>
</g>
<!-- Node1&#45;&gt;Node10 -->
<g id="edge12_Node000001_Node000010" class="edge">
<title>Node1&#45;&gt;Node10</title>
<g id="a_edge12_Node000001_Node000010"><a xlink:title=" ">
<path fill="none" stroke="#63b8ff" d="M294.82,-173.9C220.44,-171.96 93.98,-163.62 65,-129.75 53.49,-116.3 63.95,-97.07 74.84,-83.23"/>
<polygon fill="#63b8ff" stroke="#63b8ff" points="77.36,-85.67 81.2,-75.8 72.04,-81.12 77.36,-85.67"/>
</a>
</g>
</g>
<!-- Node11 -->
<g id="Node000011" class="node">
<title>Node11</title>
<g id="a_Node000011"><a xlink:href="../../d4/d0a/elph_c_8h.html" target="_top" xlink:title="Core type definitions and configuration for LetzElPhC.">
<polygon fill="white" stroke="#666666" points="282.88,-19.25 233.12,-19.25 233.12,0 282.88,0 282.88,-19.25"/>
<text xml:space="preserve" text-anchor="middle" x="258" y="-5.75" font-family="Helvetica,sans-Serif" font-size="10.00">elphC.h</text>
</a>
</g>
</g>
<!-- Node1&#45;&gt;Node11 -->
<g id="edge21_Node000001_Node000011" class="edge">
<title>Node1&#45;&gt;Node11</title>
<g id="a_edge21_Node000001_Node000011"><a xlink:title=" ">
<path fill="none" stroke="#63b8ff" d="M355.34,-165.39C367.16,-144.21 392.69,-90.3 369,-55.25 352.46,-30.78 320.04,-19.72 294.49,-14.73"/>
<polygon fill="#63b8ff" stroke="#63b8ff" points="295.25,-11.31 284.81,-13.09 294.08,-18.21 295.25,-11.31"/>
</a>
</g>
</g>
<!-- Node13 -->
<g id="Node000013" class="node">
<title>Node13</title>
<g id="a_Node000013"><a xlink:href="../../d3/d10/string__func_8h.html" target="_top" xlink:title=" ">
<polygon fill="white" stroke="#666666" points="322.38,-129.75 209.62,-129.75 209.62,-110.5 322.38,-110.5 322.38,-129.75"/>
<text xml:space="preserve" text-anchor="middle" x="266" y="-116.25" font-family="Helvetica,sans-Serif" font-size="10.00">common/string_func.h</text>
</a>
</g>
</g>
<!-- Node1&#45;&gt;Node13 -->
<g id="edge17_Node000001_Node000013" class="edge">
<title>Node1&#45;&gt;Node13</title>
<g id="a_edge17_Node000001_Node000013"><a xlink:title=" ">
<path fill="none" stroke="#63b8ff" d="M335.75,-165.34C323.2,-157.39 304.67,-145.64 289.86,-136.25"/>
<polygon fill="#63b8ff" stroke="#63b8ff" points="291.92,-133.41 281.6,-131.01 288.17,-139.32 291.92,-133.41"/>
</a>
</g>
</g>
<!-- Node14 -->
<g id="Node000014" class="node">
<title>Node14</title>
<g id="a_Node000014"><a xlink:href="../../d3/d53/preprocessor_8h.html" target="_top" xlink:title=" ">
<polygon fill="white" stroke="#666666" points="153.88,-129.75 74.12,-129.75 74.12,-110.5 153.88,-110.5 153.88,-129.75"/>
<text xml:space="preserve" text-anchor="middle" x="114" y="-116.25" font-family="Helvetica,sans-Serif" font-size="10.00">preprocessor.h</text>
</a>
</g>
</g>
<!-- Node1&#45;&gt;Node14 -->
<g id="edge22_Node000001_Node000014" class="edge">
<title>Node1&#45;&gt;Node14</title>
<g id="a_edge22_Node000001_Node000014"><a xlink:title=" ">
<path fill="none" stroke="#63b8ff" d="M309.7,-165.28C269.82,-156.28 208.62,-142.48 165.29,-132.7"/>
<polygon fill="#63b8ff" stroke="#63b8ff" points="166.14,-129.3 155.61,-130.51 164.6,-136.13 166.14,-129.3"/>
</a>
</g>
</g>
<!-- Node8&#45;&gt;Node5 -->
<g id="edge9_Node000008_Node000005" class="edge">
<title>Node8&#45;&gt;Node5</title>
<g id="a_edge9_Node000008_Node000005"><a xlink:title=" ">
<path fill="none" stroke="#63b8ff" d="M517.05,-110.09C502.74,-101.98 481.47,-89.93 464.75,-80.46"/>
<polygon fill="#63b8ff" stroke="#63b8ff" points="466.77,-77.58 456.34,-75.7 463.32,-83.67 466.77,-77.58"/>
</a>
</g>
</g>
<!-- Node8&#45;&gt;Node6 -->
<g id="edge10_Node000008_Node000006" class="edge">
<title>Node8&#45;&gt;Node6</title>
<g id="a_edge10_Node000008_Node000006"><a xlink:title=" ">
<path fill="none" stroke="#63b8ff" d="M528.05,-110.33C524.12,-103.36 518.49,-93.37 513.56,-84.62"/>
<polygon fill="#63b8ff" stroke="#63b8ff" points="516.76,-83.17 508.8,-76.18 510.66,-86.61 516.76,-83.17"/>
</a>
</g>
</g>
<!-- Node8&#45;&gt;Node7 -->
<g id="edge11_Node000008_Node000007" class="edge">
<title>Node8&#45;&gt;Node7</title>
<g id="a_edge11_Node000008_Node000007"><a xlink:title=" ">
<path fill="none" stroke="#63b8ff" d="M549.96,-110.09C565.26,-101.94 588.03,-89.82 605.86,-80.33"/>
<polygon fill="#63b8ff" stroke="#63b8ff" points="607.44,-83.45 614.62,-75.66 604.15,-77.27 607.44,-83.45"/>
</a>
</g>
</g>
<!-- Node9 -->
<g id="Node000009" class="node">
<title>Node9</title>
<g id="a_Node000009"><a xlink:title=" ">
<polygon fill="#e0e0e0" stroke="#999999" points="591,-74.5 545,-74.5 545,-55.25 591,-55.25 591,-74.5"/>
<text xml:space="preserve" text-anchor="middle" x="568" y="-61" font-family="Helvetica,sans-Serif" font-size="10.00">errno.h</text>
</a>
</g>
</g>
<!-- Node8&#45;&gt;Node9 -->
<g id="edge8_Node000008_Node000009" class="edge">
<title>Node8&#45;&gt;Node9</title>
<g id="a_edge8_Node000008_Node000009"><a xlink:title=" ">
<path fill="none" stroke="#63b8ff" d="M538.78,-110.33C543.41,-103.28 550.07,-93.15 555.87,-84.33"/>
<polygon fill="#63b8ff" stroke="#63b8ff" points="558.7,-86.4 561.26,-76.12 552.85,-82.56 558.7,-86.4"/>
</a>
</g>
</g>
<!-- Node10&#45;&gt;Node2 -->
<g id="edge13_Node000010_Node000002" class="edge">
<title>Node10&#45;&gt;Node2</title>
<g id="a_edge13_Node000010_Node000002"><a xlink:title=" ">
<path fill="none" stroke="#63b8ff" d="M78.96,-54.84C68.59,-47.07 53.4,-35.67 41.03,-26.4"/>
<polygon fill="#63b8ff" stroke="#63b8ff" points="43.18,-23.63 33.08,-20.43 38.98,-29.23 43.18,-23.63"/>
</a>
</g>
</g>
<!-- Node10&#45;&gt;Node3 -->
<g id="edge14_Node000010_Node000003" class="edge">
<title>Node10&#45;&gt;Node3</title>
<g id="a_edge14_Node000010_Node000003"><a xlink:title=" ">
<path fill="none" stroke="#63b8ff" d="M103.72,-54.84C114.71,-47.04 130.84,-35.59 143.93,-26.29"/>
<polygon fill="#63b8ff" stroke="#63b8ff" points="145.85,-29.22 151.98,-20.58 141.8,-23.51 145.85,-29.22"/>
</a>
</g>
</g>
<!-- Node10&#45;&gt;Node11 -->
<g id="edge15_Node000010_Node000011" class="edge">
<title>Node10&#45;&gt;Node11</title>
<g id="a_edge15_Node000010_Node000011"><a xlink:title=" ">
<path fill="none" stroke="#63b8ff" d="M119.33,-54.84C147.67,-45.8 191.37,-31.87 222.12,-22.06"/>
<polygon fill="#63b8ff" stroke="#63b8ff" points="222.91,-25.49 231.37,-19.12 220.78,-18.82 222.91,-25.49"/>
</a>
</g>
</g>
<!-- Node12 -->
<g id="Node000012" class="node">
<title>Node12</title>
<g id="a_Node000012"><a xlink:href="../../da/d41/error_8h.html" target="_top" xlink:title=" ">
<polygon fill="white" stroke="#666666" points="112.5,-19.25 69.5,-19.25 69.5,0 112.5,0 112.5,-19.25"/>
<text xml:space="preserve" text-anchor="middle" x="91" y="-5.75" font-family="Helvetica,sans-Serif" font-size="10.00">error.h</text>
</a>
</g>
</g>
<!-- Node10&#45;&gt;Node12 -->
<g id="edge16_Node000010_Node000012" class="edge">
<title>Node10&#45;&gt;Node12</title>
<g id="a_edge16_Node000010_Node000012"><a xlink:title=" ">
<path fill="none" stroke="#63b8ff" d="M91,-55.08C91,-48.57 91,-39.42 91,-31.12"/>
<polygon fill="#63b8ff" stroke="#63b8ff" points="94.5,-31.12 91,-21.12 87.5,-31.12 94.5,-31.12"/>
</a>
</g>
</g>
<!-- Node13&#45;&gt;Node3 -->
<g id="edge18_Node000013_Node000003" class="edge">
<title>Node13&#45;&gt;Node3</title>
<g id="a_edge18_Node000013_Node000003"><a xlink:title=" ">
<path fill="none" stroke="#63b8ff" d="M257.82,-110.25C241.26,-92.28 203.54,-51.36 181.95,-27.94"/>
<polygon fill="#63b8ff" stroke="#63b8ff" points="184.67,-25.72 175.32,-20.74 179.53,-30.46 184.67,-25.72"/>
</a>
</g>
</g>
<!-- Node13&#45;&gt;Node4 -->
<g id="edge19_Node000013_Node000004" class="edge">
<title>Node13&#45;&gt;Node4</title>
<g id="a_edge19_Node000013_Node000004"><a xlink:title=" ">
<path fill="none" stroke="#63b8ff" d="M277.54,-110.09C287.46,-102.32 302.01,-90.92 313.86,-81.65"/>
<polygon fill="#63b8ff" stroke="#63b8ff" points="315.73,-84.63 321.44,-75.71 311.41,-79.12 315.73,-84.63"/>
</a>
</g>
</g>
<!-- Node13&#45;&gt;Node11 -->
<g id="edge20_Node000013_Node000011" class="edge">
<title>Node13&#45;&gt;Node11</title>
<g id="a_edge20_Node000013_Node000011"><a xlink:title=" ">
<path fill="none" stroke="#63b8ff" d="M265.35,-110.25C264.07,-93 261.24,-54.58 259.49,-30.81"/>
<polygon fill="#63b8ff" stroke="#63b8ff" points="263,-30.85 258.78,-21.14 256.02,-31.37 263,-30.85"/>
</a>
</g>
</g>
<!-- Node14&#45;&gt;Node10 -->
<g id="edge23_Node000014_Node000010" class="edge">
<title>Node14&#45;&gt;Node10</title>
<g id="a_edge23_Node000014_Node000010"><a xlink:title=" ">
<path fill="none" stroke="#63b8ff" d="M110.2,-110.33C107.26,-103.51 103.06,-93.81 99.35,-85.2"/>
<polygon fill="#63b8ff" stroke="#63b8ff" points="102.66,-84.04 95.48,-76.25 96.23,-86.82 102.66,-84.04"/>
</a>
</g>
</g>
<!-- Node14&#45;&gt;Node11 -->
<g id="edge24_Node000014_Node000011" class="edge">
<title>Node14&#45;&gt;Node11</title>
<g id="a_edge24_Node000014_Node000011"><a xlink:title=" ">
<path fill="none" stroke="#63b8ff" d="M125.78,-110.25C150.15,-91.89 206.36,-49.54 237.05,-26.41"/>
<polygon fill="#63b8ff" stroke="#63b8ff" points="238.96,-29.35 244.84,-20.54 234.75,-23.76 238.96,-29.35"/>
</a>
</g>
</g>
</g>
</svg>
