<?xml version="1.0" encoding="UTF-8" standalone="no"?>
<!DOCTYPE svg PUBLIC "-//W3C//DTD SVG 1.1//EN"
 "http://www.w3.org/Graphics/SVG/1.1/DTD/svg11.dtd">
<!-- Generated by graphviz version 14.0.0 (20250921.2048)
 -->
<!-- Title: electronic_reps Pages: 1 -->
<svg width="464pt" height="402pt"
 viewBox="0.00 0.00 464.00 402.00" xmlns="http://www.w3.org/2000/svg" xmlns:xlink="http://www.w3.org/1999/xlink">

<svg id="main" version="1.1" xmlns="http://www.w3.org/2000/svg" xmlns:xlink="http://www.w3.org/1999/xlink" xml:space="preserve">

<style type="text/css"><![CDATA[
.node, .edge {opacity: 0.7;}
.node.selected, .edge.selected {opacity: 1;}
.edge:hover path { stroke: red; }
.edge:hover polygon { stroke: red; fill: red; }
]]></style>
<script type="application/ecmascript" xlink:href="../../svg.min.js"/>
<svg id="graph" class="graph">
<g id="graph0" class="graph" transform="scale(1 1) rotate(0) translate(4 398.25)">
<title>electronic_reps</title>
<!-- Node1 -->
<g id="Node000001" class="node">
<title>Node1</title>
<g id="a_Node000001"><a xlink:title=" ">
<polygon fill="#999999" stroke="#666666" points="82,-208.25 0,-208.25 0,-189 82,-189 82,-208.25"/>
<text xml:space="preserve" text-anchor="middle" x="41" y="-194.75" font-family="Helvetica,sans-Serif" font-size="10.00">electronic_reps</text>
</a>
</g>
</g>
<!-- Node2 -->
<g id="Node000002" class="node">
<title>Node2</title>
<g id="a_Node000002"><a xlink:href="../../db/d7a/trans__wfc_8c.html#a481ceff1e11d889b6a9e302c9546b05d" target="_top" xlink:title=" ">
<polygon fill="white" stroke="#666666" points="209.38,-394.25 122.12,-394.25 122.12,-375 209.38,-375 209.38,-394.25"/>
<text xml:space="preserve" text-anchor="middle" x="165.75" y="-380.75" font-family="Helvetica,sans-Serif" font-size="10.00">apply_trans_wfc</text>
</a>
</g>
</g>
<!-- Node1&#45;&gt;Node2 -->
<g id="edge1_Node000001_Node000002" class="edge">
<title>Node1&#45;&gt;Node2</title>
<g id="a_edge1_Node000001_Node000002"><a xlink:title=" ">
<path fill="none" stroke="#63b8ff" d="M43.75,-208.48C49.29,-236.99 69.12,-320.47 118,-366.62 118.75,-367.33 119.52,-368.01 120.33,-368.66"/>
<polygon fill="#63b8ff" stroke="#63b8ff" points="118.16,-371.43 128.47,-373.89 121.95,-365.54 118.16,-371.43"/>
</a>
</g>
</g>
<!-- Node3 -->
<g id="Node000003" class="node">
<title>Node3</title>
<g id="a_Node000003"><a xlink:href="../../da/d97/_e_l_p_h__timers_8c.html#a4846a0dbe6a17751878baf1315af43aa" target="_top" xlink:title=" ">
<polygon fill="white" stroke="#666666" points="213.5,-357.25 118,-357.25 118,-338 213.5,-338 213.5,-357.25"/>
<text xml:space="preserve" text-anchor="middle" x="165.75" y="-343.75" font-family="Helvetica,sans-Serif" font-size="10.00">ELPH_start_clock</text>
</a>
</g>
</g>
<!-- Node1&#45;&gt;Node3 -->
<g id="edge2_Node000001_Node000003" class="edge">
<title>Node1&#45;&gt;Node3</title>
<g id="a_edge2_Node000001_Node000003"><a xlink:title=" ">
<path fill="none" stroke="#63b8ff" d="M45.2,-208.69C53.4,-232.91 77.39,-294.98 118,-329.62 118.93,-330.42 119.89,-331.17 120.89,-331.9"/>
<polygon fill="#63b8ff" stroke="#63b8ff" points="118.83,-334.75 129.22,-336.85 122.41,-328.73 118.83,-334.75"/>
</a>
</g>
</g>
<!-- Node4 -->
<g id="Node000004" class="node">
<title>Node4</title>
<g id="a_Node000004"><a xlink:href="../../da/d97/_e_l_p_h__timers_8c.html#adcc3002449fe62895b6e89571d00ba48" target="_top" xlink:title=" ">
<polygon fill="white" stroke="#666666" points="213.12,-320.25 118.38,-320.25 118.38,-301 213.12,-301 213.12,-320.25"/>
<text xml:space="preserve" text-anchor="middle" x="165.75" y="-306.75" font-family="Helvetica,sans-Serif" font-size="10.00">ELPH_stop_clock</text>
</a>
</g>
</g>
<!-- Node1&#45;&gt;Node4 -->
<g id="edge3_Node000001_Node000004" class="edge">
<title>Node1&#45;&gt;Node4</title>
<g id="a_edge3_Node000001_Node000004"><a xlink:title=" ">
<path fill="none" stroke="#63b8ff" d="M47.59,-208.57C58.69,-227.47 85.25,-268.79 118,-292.62 119.32,-293.58 120.69,-294.5 122.11,-295.37"/>
<polygon fill="#63b8ff" stroke="#63b8ff" points="120.1,-298.27 130.58,-299.82 123.36,-292.07 120.1,-298.27"/>
</a>
</g>
</g>
<!-- Node5 -->
<g id="Node000005" class="node">
<title>Node5</title>
<g id="a_Node000005"><a xlink:href="../../da/d8e/gsort_8c.html#a25f48d8a76001e1843dcf9cfe792ac5c" target="_top" xlink:title=" ">
<polygon fill="white" stroke="#666666" points="209,-283.25 122.5,-283.25 122.5,-264 209,-264 209,-283.25"/>
<text xml:space="preserve" text-anchor="middle" x="165.75" y="-269.75" font-family="Helvetica,sans-Serif" font-size="10.00">find_gvecs_idxs</text>
</a>
</g>
</g>
<!-- Node1&#45;&gt;Node5 -->
<g id="edge4_Node000001_Node000005" class="edge">
<title>Node1&#45;&gt;Node5</title>
<g id="a_edge4_Node000001_Node000005"><a xlink:title=" ">
<path fill="none" stroke="#63b8ff" d="M53.16,-208.57C67.4,-220.88 93.18,-241.89 118,-255.62 120.16,-256.82 122.42,-257.98 124.73,-259.08"/>
<polygon fill="#63b8ff" stroke="#63b8ff" points="123.06,-262.17 133.62,-262.99 125.88,-255.76 123.06,-262.17"/>
</a>
</g>
</g>
<!-- Node7 -->
<g id="Node000007" class="node">
<title>Node7</title>
<g id="a_Node000007"><a xlink:href="../../de/d2d/numerical__func_8c.html#a95da0d07e74aa4a00285324f1464224b" target="_top" xlink:title=" ">
<polygon fill="white" stroke="#666666" points="208.62,-246.25 122.88,-246.25 122.88,-227 208.62,-227 208.62,-246.25"/>
<text xml:space="preserve" text-anchor="middle" x="165.75" y="-232.75" font-family="Helvetica,sans-Serif" font-size="10.00">find_kidx_in_list</text>
</a>
</g>
</g>
<!-- Node1&#45;&gt;Node7 -->
<g id="edge6_Node000001_Node000007" class="edge">
<title>Node1&#45;&gt;Node7</title>
<g id="a_edge6_Node000001_Node000007"><a xlink:title=" ">
<path fill="none" stroke="#63b8ff" d="M74.57,-208.71C88.98,-213.17 106.11,-218.47 121.56,-223.26"/>
<polygon fill="#63b8ff" stroke="#63b8ff" points="120.42,-226.56 131.01,-226.18 122.49,-219.88 120.42,-226.56"/>
</a>
</g>
</g>
<!-- Node8 -->
<g id="Node000008" class="node">
<title>Node8</title>
<g id="a_Node000008"><a xlink:href="../../de/d2d/numerical__func_8c.html#af511a32007a9865999d8bcf06cfff1dc" target="_top" xlink:title=" ">
<polygon fill="white" stroke="#666666" points="327.75,-208.25 263.75,-208.25 263.75,-189 327.75,-189 327.75,-208.25"/>
<text xml:space="preserve" text-anchor="middle" x="295.75" y="-194.75" font-family="Helvetica,sans-Serif" font-size="10.00">Gemm3x3f</text>
</a>
</g>
</g>
<!-- Node1&#45;&gt;Node8 -->
<g id="edge7_Node000001_Node000008" class="edge">
<title>Node1&#45;&gt;Node8</title>
<g id="a_edge7_Node000001_Node000008"><a xlink:title=" ">
<path fill="none" stroke="#63b8ff" d="M82.33,-198.62C128.71,-198.62 204.54,-198.62 251.94,-198.62"/>
<polygon fill="#63b8ff" stroke="#63b8ff" points="251.83,-202.13 261.83,-198.63 251.83,-195.13 251.83,-202.13"/>
</a>
</g>
</g>
<!-- Node9 -->
<g id="Node000009" class="node">
<title>Node9</title>
<g id="a_Node000009"><a xlink:href="../../dc/d50/blas_8c.html#a93d327b9e3c8bd925ff76d32df39809c" target="_top" xlink:title=" ">
<polygon fill="white" stroke="#666666" points="335.62,-94.25 255.88,-94.25 255.88,-75 335.62,-75 335.62,-94.25"/>
<text xml:space="preserve" text-anchor="middle" x="295.75" y="-80.75" font-family="Helvetica,sans-Serif" font-size="10.00">matmul_cmplx</text>
</a>
</g>
</g>
<!-- Node1&#45;&gt;Node9 -->
<g id="edge8_Node000001_Node000009" class="edge">
<title>Node1&#45;&gt;Node9</title>
<g id="a_edge8_Node000001_Node000009"><a xlink:title=" ">
<path fill="none" stroke="#63b8ff" d="M48.36,-188.62C59.95,-171.32 86.23,-136 118,-118.62 157.13,-97.22 207.57,-89.11 244.55,-86.13"/>
<polygon fill="#63b8ff" stroke="#63b8ff" points="244.32,-89.66 254.05,-85.47 243.83,-82.67 244.32,-89.66"/>
</a>
</g>
</g>
<!-- Node11 -->
<g id="Node000011" class="node">
<title>Node11</title>
<g id="a_Node000011"><a xlink:href="../../de/d2d/numerical__func_8c.html#adeeb2c0049b8e3663d2d2cc9f7a1cd23" target="_top" xlink:title=" ">
<polygon fill="white" stroke="#666666" points="324.75,-132.25 266.75,-132.25 266.75,-113 324.75,-113 324.75,-132.25"/>
<text xml:space="preserve" text-anchor="middle" x="295.75" y="-118.75" font-family="Helvetica,sans-Serif" font-size="10.00">MatVec3f</text>
</a>
</g>
</g>
<!-- Node1&#45;&gt;Node11 -->
<g id="edge10_Node000001_Node000011" class="edge">
<title>Node1&#45;&gt;Node11</title>
<g id="a_edge10_Node000001_Node000011"><a xlink:title=" ">
<path fill="none" stroke="#63b8ff" d="M51.71,-188.52C65.2,-175.22 90.99,-152.26 118,-141.62 162.7,-124.02 218.38,-120.8 255.17,-120.98"/>
<polygon fill="#63b8ff" stroke="#63b8ff" points="254.85,-124.47 264.9,-121.12 254.95,-117.47 254.85,-124.47"/>
</a>
</g>
</g>
<!-- Node12 -->
<g id="Node000012" class="node">
<title>Node12</title>
<g id="a_Node000012"><a xlink:href="../../d7/dd7/rotate___gvecs_8c.html#a3777530f5d55d899b796fb4e462b512f" target="_top" xlink:title=" ">
<polygon fill="white" stroke="#666666" points="200.38,-170.25 131.12,-170.25 131.12,-151 200.38,-151 200.38,-170.25"/>
<text xml:space="preserve" text-anchor="middle" x="165.75" y="-156.75" font-family="Helvetica,sans-Serif" font-size="10.00">rotateGvecs</text>
</a>
</g>
</g>
<!-- Node1&#45;&gt;Node12 -->
<g id="edge11_Node000001_Node000012" class="edge">
<title>Node1&#45;&gt;Node12</title>
<g id="a_edge11_Node000001_Node000012"><a xlink:title=" ">
<path fill="none" stroke="#63b8ff" d="M74.57,-188.54C88.98,-184.08 106.11,-178.78 121.56,-173.99"/>
<polygon fill="#63b8ff" stroke="#63b8ff" points="122.49,-177.37 131.01,-171.07 120.42,-170.69 122.49,-177.37"/>
</a>
</g>
</g>
<!-- Node14 -->
<g id="Node000014" class="node">
<title>Node14</title>
<g id="a_Node000014"><a xlink:href="../../dc/d77/su2mat_8c.html#a54f9aa61f40686918a52909936a101af" target="_top" xlink:title=" ">
<polygon fill="white" stroke="#666666" points="191.75,-56.25 139.75,-56.25 139.75,-37 191.75,-37 191.75,-56.25"/>
<text xml:space="preserve" text-anchor="middle" x="165.75" y="-42.75" font-family="Helvetica,sans-Serif" font-size="10.00">SU2mat</text>
</a>
</g>
</g>
<!-- Node1&#45;&gt;Node14 -->
<g id="edge16_Node000001_Node000014" class="edge">
<title>Node1&#45;&gt;Node14</title>
<g id="a_edge16_Node000001_Node000014"><a xlink:title=" ">
<path fill="none" stroke="#63b8ff" d="M45.64,-188.72C54.64,-165.41 79.97,-106.39 118,-70.62 121.44,-67.39 125.4,-64.48 129.53,-61.9"/>
<polygon fill="#63b8ff" stroke="#63b8ff" points="130.94,-65.12 137.98,-57.21 127.54,-59 130.94,-65.12"/>
</a>
</g>
</g>
<!-- Node17 -->
<g id="Node000017" class="node">
<title>Node17</title>
<g id="a_Node000017"><a xlink:href="../../dd/d51/su2rotate_8c.html#aa1ec05c745d2b15aa7e535268eee2ca1" target="_top" xlink:title=" ">
<polygon fill="white" stroke="#666666" points="194,-19.25 137.5,-19.25 137.5,0 194,0 194,-19.25"/>
<text xml:space="preserve" text-anchor="middle" x="165.75" y="-5.75" font-family="Helvetica,sans-Serif" font-size="10.00">su2rotate</text>
</a>
</g>
</g>
<!-- Node1&#45;&gt;Node17 -->
<g id="edge19_Node000001_Node000017" class="edge">
<title>Node1&#45;&gt;Node17</title>
<g id="a_edge19_Node000001_Node000017"><a xlink:title=" ">
<path fill="none" stroke="#63b8ff" d="M43.69,-188.6C49.09,-159.58 68.55,-74.63 118,-27.62 120.71,-25.05 123.83,-22.83 127.14,-20.92"/>
<polygon fill="#63b8ff" stroke="#63b8ff" points="128.52,-24.14 136.08,-16.72 125.55,-17.8 128.52,-24.14"/>
</a>
</g>
</g>
<!-- Node6 -->
<g id="Node000006" class="node">
<title>Node6</title>
<g id="a_Node000006"><a xlink:href="../../da/d8e/gsort_8c.html#ae4011b78967f043178d768cab29ef747" target="_top" xlink:title=" ">
<polygon fill="white" stroke="#666666" points="326.62,-283.25 264.88,-283.25 264.88,-264 326.62,-264 326.62,-283.25"/>
<text xml:space="preserve" text-anchor="middle" x="295.75" y="-269.75" font-family="Helvetica,sans-Serif" font-size="10.00">gsort_cmp</text>
</a>
</g>
</g>
<!-- Node5&#45;&gt;Node6 -->
<g id="edge5_Node000005_Node000006" class="edge">
<title>Node5&#45;&gt;Node6</title>
<g id="a_edge5_Node000005_Node000006"><a xlink:title=" ">
<path fill="none" stroke="#63b8ff" d="M209.37,-273.62C223.46,-273.62 239.12,-273.62 253.13,-273.62"/>
<polygon fill="#63b8ff" stroke="#63b8ff" points="252.93,-277.13 262.93,-273.63 252.93,-270.13 252.93,-277.13"/>
</a>
</g>
</g>
<!-- Node10 -->
<g id="Node000010" class="node">
<title>Node10</title>
<g id="a_Node000010"><a xlink:href="../../dc/d50/blas_8c.html#a913bafabc05e83b2aeed88da231a461f" target="_top" xlink:title=" ">
<polygon fill="white" stroke="#666666" points="456.25,-132.25 378,-132.25 378,-113 456.25,-113 456.25,-132.25"/>
<text xml:space="preserve" text-anchor="middle" x="417.12" y="-118.75" font-family="Helvetica,sans-Serif" font-size="10.00">get_gemmn_T</text>
</a>
</g>
</g>
<!-- Node9&#45;&gt;Node10 -->
<g id="edge9_Node000009_Node000010" class="edge">
<title>Node9&#45;&gt;Node10</title>
<g id="a_edge9_Node000009_Node000010"><a xlink:title=" ">
<path fill="none" stroke="#63b8ff" d="M328.43,-94.71C342.43,-99.17 359.1,-104.47 374.13,-109.26"/>
<polygon fill="#63b8ff" stroke="#63b8ff" points="372.68,-112.47 383.27,-112.17 374.8,-105.8 372.68,-112.47"/>
</a>
</g>
</g>
<!-- Node12&#45;&gt;Node8 -->
<g id="edge12_Node000012_Node000008" class="edge">
<title>Node12&#45;&gt;Node8</title>
<g id="a_edge12_Node000012_Node000008"><a xlink:title=" ">
<path fill="none" stroke="#63b8ff" d="M200.72,-170.71C216.63,-175.43 235.76,-181.11 252.59,-186.11"/>
<polygon fill="#63b8ff" stroke="#63b8ff" points="251.23,-189.36 261.81,-188.85 253.22,-182.65 251.23,-189.36"/>
</a>
</g>
</g>
<!-- Node12&#45;&gt;Node11 -->
<g id="edge15_Node000012_Node000011" class="edge">
<title>Node12&#45;&gt;Node11</title>
<g id="a_edge15_Node000012_Node000011"><a xlink:title=" ">
<path fill="none" stroke="#63b8ff" d="M200.72,-150.54C217.48,-145.56 237.81,-139.53 255.27,-134.35"/>
<polygon fill="#63b8ff" stroke="#63b8ff" points="256.22,-137.71 264.81,-131.51 254.23,-131 256.22,-137.71"/>
</a>
</g>
</g>
<!-- Node13 -->
<g id="Node000013" class="node">
<title>Node13</title>
<g id="a_Node000013"><a xlink:href="../../dc/d50/blas_8c.html#afca62df4906b4070e12af84f53906dc8" target="_top" xlink:title=" ">
<polygon fill="white" stroke="#666666" points="331.88,-170.25 259.62,-170.25 259.62,-151 331.88,-151 331.88,-170.25"/>
<text xml:space="preserve" text-anchor="middle" x="295.75" y="-156.75" font-family="Helvetica,sans-Serif" font-size="10.00">matmul_float</text>
</a>
</g>
</g>
<!-- Node12&#45;&gt;Node13 -->
<g id="edge13_Node000012_Node000013" class="edge">
<title>Node12&#45;&gt;Node13</title>
<g id="a_edge13_Node000012_Node000013"><a xlink:title=" ">
<path fill="none" stroke="#63b8ff" d="M200.72,-160.62C215.26,-160.62 232.47,-160.62 248.18,-160.62"/>
<polygon fill="#63b8ff" stroke="#63b8ff" points="247.77,-164.13 257.77,-160.63 247.77,-157.13 247.77,-164.13"/>
</a>
</g>
</g>
<!-- Node13&#45;&gt;Node10 -->
<g id="edge14_Node000013_Node000010" class="edge">
<title>Node13&#45;&gt;Node10</title>
<g id="a_edge14_Node000013_Node000010"><a xlink:title=" ">
<path fill="none" stroke="#63b8ff" d="M328.43,-150.54C342.43,-146.08 359.1,-140.78 374.13,-135.99"/>
<polygon fill="#63b8ff" stroke="#63b8ff" points="374.8,-139.45 383.27,-133.08 372.68,-132.78 374.8,-139.45"/>
</a>
</g>
</g>
<!-- Node15 -->
<g id="Node000015" class="node">
<title>Node15</title>
<g id="a_Node000015"><a xlink:href="../../de/d2d/numerical__func_8c.html#af7b464a965e184f893290a977a66c9d1" target="_top" xlink:title=" ">
<polygon fill="white" stroke="#666666" points="318.38,-19.25 273.12,-19.25 273.12,0 318.38,0 318.38,-19.25"/>
<text xml:space="preserve" text-anchor="middle" x="295.75" y="-5.75" font-family="Helvetica,sans-Serif" font-size="10.00">det3x3</text>
</a>
</g>
</g>
<!-- Node14&#45;&gt;Node15 -->
<g id="edge17_Node000014_Node000015" class="edge">
<title>Node14&#45;&gt;Node15</title>
<g id="a_edge17_Node000014_Node000015"><a xlink:title=" ">
<path fill="none" stroke="#63b8ff" d="M192.04,-39.31C212.05,-33.53 240.14,-25.41 261.89,-19.12"/>
<polygon fill="#63b8ff" stroke="#63b8ff" points="262.83,-22.49 271.47,-16.35 260.89,-15.77 262.83,-22.49"/>
</a>
</g>
</g>
<!-- Node16 -->
<g id="Node000016" class="node">
<title>Node16</title>
<g id="a_Node000016"><a xlink:href="../../de/d2d/numerical__func_8c.html#a5cb6a4677901df82939f3bb08fe1e5de" target="_top" xlink:title=" ">
<polygon fill="white" stroke="#666666" points="342,-56.25 249.5,-56.25 249.5,-37 342,-37 342,-56.25"/>
<text xml:space="preserve" text-anchor="middle" x="295.75" y="-42.75" font-family="Helvetica,sans-Serif" font-size="10.00">matmul_Cmpl2x2</text>
</a>
</g>
</g>
<!-- Node14&#45;&gt;Node16 -->
<g id="edge18_Node000014_Node000016" class="edge">
<title>Node14&#45;&gt;Node16</title>
<g id="a_edge18_Node000014_Node000016"><a xlink:title=" ">
<path fill="none" stroke="#63b8ff" d="M192.04,-46.62C205.11,-46.62 221.64,-46.62 237.59,-46.62"/>
<polygon fill="#63b8ff" stroke="#63b8ff" points="237.54,-50.13 247.54,-46.63 237.54,-43.13 237.54,-50.13"/>
</a>
</g>
</g>
</g>
</svg>
</svg>

<style type='text/css'>
<![CDATA[
[data-mouse-over-selected='false'] { opacity: 0.7; }
[data-mouse-over-selected='true']  { opacity: 1.0; }
]]>
</style>
<script type="application/ecmascript"><![CDATA[
document.addEventListener('DOMContentLoaded', (event) => {
  highlightEdges();
  highlightAdjacentNodes();
});
]]></script>
</svg>
