<?xml version="1.0" encoding="UTF-8" standalone="no"?>
<!DOCTYPE svg PUBLIC "-//W3C//DTD SVG 1.1//EN"
 "http://www.w3.org/Graphics/SVG/1.1/DTD/svg11.dtd">
<!-- Generated by graphviz version 14.0.0 (20250921.2048)
 -->
<!-- Title: src/common/parallel.h Pages: 1 -->
<svg width="1419pt" height="94pt"
 viewBox="0.00 0.00 1419.00 94.00" xmlns="http://www.w3.org/2000/svg" xmlns:xlink="http://www.w3.org/1999/xlink">
<g id="graph0" class="graph" transform="scale(1 1) rotate(0) translate(4 89.75)">
<title>src/common/parallel.h</title>
<!-- Node1 -->
<g id="Node000001" class="node">
<title>Node1</title>
<g id="a_Node000001"><a xlink:title=" ">
<polygon fill="#999999" stroke="#666666" points="785,-85.75 673,-85.75 673,-66.5 785,-66.5 785,-85.75"/>
<text xml:space="preserve" text-anchor="middle" x="729" y="-72.25" font-family="Helvetica,sans-Serif" font-size="10.00">src/common/parallel.h</text>
</a>
</g>
</g>
<!-- Node2 -->
<g id="Node000002" class="node">
<title>Node2</title>
<g id="a_Node000002"><a xlink:href="../../d9/d54/parallel_8c.html" target="_top" xlink:title=" ">
<polygon fill="white" stroke="#666666" points="112,-24.88 0,-24.88 0,-5.63 112,-5.63 112,-24.88"/>
<text xml:space="preserve" text-anchor="middle" x="56" y="-11.38" font-family="Helvetica,sans-Serif" font-size="10.00">src/common/parallel.c</text>
</a>
</g>
</g>
<!-- Node1&#45;&gt;Node2 -->
<g id="edge1_Node000001_Node000002" class="edge">
<title>Node1&#45;&gt;Node2</title>
<g id="a_edge1_Node000001_Node000002"><a xlink:title=" ">
<path fill="none" stroke="#63b8ff" d="M661.38,-73.31C548.77,-69.58 315.92,-58.87 121,-30.5 111.85,-29.17 102.08,-27.28 92.96,-25.31"/>
<polygon fill="#63b8ff" stroke="#63b8ff" points="660.93,-76.79 671.03,-73.62 661.15,-69.8 660.93,-76.79"/>
</a>
</g>
</g>
<!-- Node3 -->
<g id="Node000003" class="node">
<title>Node3</title>
<g id="a_Node000003"><a xlink:href="../../d9/d90/d_vbare__loc_8c.html" target="_top" xlink:title=" ">
<polygon fill="white" stroke="#666666" points="245.88,-24.88 130.12,-24.88 130.12,-5.63 245.88,-5.63 245.88,-24.88"/>
<text xml:space="preserve" text-anchor="middle" x="188" y="-11.38" font-family="Helvetica,sans-Serif" font-size="10.00">src/dvloc/dVbare_loc.c</text>
</a>
</g>
</g>
<!-- Node1&#45;&gt;Node3 -->
<g id="edge2_Node000001_Node000003" class="edge">
<title>Node1&#45;&gt;Node3</title>
<g id="a_edge2_Node000001_Node000003"><a xlink:title=" ">
<path fill="none" stroke="#63b8ff" d="M661.15,-71.21C568.86,-65.33 398.78,-52.48 255,-30.5 245.83,-29.1 236.03,-27.23 226.83,-25.3"/>
<polygon fill="#63b8ff" stroke="#63b8ff" points="660.85,-74.7 671.05,-71.84 661.29,-67.72 660.85,-74.7"/>
</a>
</g>
</g>
<!-- Node4 -->
<g id="Node000004" class="node">
<title>Node4</title>
<g id="a_Node000004"><a xlink:href="../../d1/d94/d_vpot__add__long__range_8c.html" target="_top" xlink:title=" ">
<polygon fill="white" stroke="#666666" points="369.62,-30.5 264.38,-30.5 264.38,0 369.62,0 369.62,-30.5"/>
<text xml:space="preserve" text-anchor="start" x="272.38" y="-17" font-family="Helvetica,sans-Serif" font-size="10.00">src/dvloc/dVpot_add</text>
<text xml:space="preserve" text-anchor="middle" x="317" y="-5.75" font-family="Helvetica,sans-Serif" font-size="10.00">_long_range.c</text>
</a>
</g>
</g>
<!-- Node1&#45;&gt;Node4 -->
<g id="edge3_Node000001_Node000004" class="edge">
<title>Node1&#45;&gt;Node4</title>
<g id="a_edge3_Node000001_Node000004"><a xlink:title=" ">
<path fill="none" stroke="#63b8ff" d="M661.27,-68.5C590.54,-61.11 476.54,-47.88 379,-30.5 376.06,-29.98 373.06,-29.41 370.03,-28.8"/>
<polygon fill="#63b8ff" stroke="#63b8ff" points="660.86,-71.98 671.16,-69.52 661.58,-65.01 660.86,-71.98"/>
</a>
</g>
</g>
<!-- Node5 -->
<g id="Node000005" class="node">
<title>Node5</title>
<g id="a_Node000005"><a xlink:href="../../d9/db9/vlocg__table_8c.html" target="_top" xlink:title=" ">
<polygon fill="white" stroke="#666666" points="504.25,-24.88 387.75,-24.88 387.75,-5.63 504.25,-5.63 504.25,-24.88"/>
<text xml:space="preserve" text-anchor="middle" x="446" y="-11.38" font-family="Helvetica,sans-Serif" font-size="10.00">src/dvloc/vlocg_table.c</text>
</a>
</g>
</g>
<!-- Node1&#45;&gt;Node5 -->
<g id="edge4_Node000001_Node000005" class="edge">
<title>Node1&#45;&gt;Node5</title>
<g id="a_edge4_Node000001_Node000005"><a xlink:title=" ">
<path fill="none" stroke="#63b8ff" d="M673.49,-63.75C629.85,-54.78 567.53,-41.93 513,-30.5 505.09,-28.84 496.65,-27.06 488.52,-25.33"/>
<polygon fill="#63b8ff" stroke="#63b8ff" points="672.74,-67.17 683.24,-65.75 674.15,-60.31 672.74,-67.17"/>
</a>
</g>
</g>
<!-- Node6 -->
<g id="Node000006" class="node">
<title>Node6</title>
<g id="a_Node000006"><a xlink:href="../../d5/d9f/compute__dmats_8c.html" target="_top" xlink:title=" ">
<polygon fill="white" stroke="#666666" points="653.75,-24.88 522.25,-24.88 522.25,-5.63 653.75,-5.63 653.75,-24.88"/>
<text xml:space="preserve" text-anchor="middle" x="588" y="-11.38" font-family="Helvetica,sans-Serif" font-size="10.00">src/elph/compute_dmats.c</text>
</a>
</g>
</g>
<!-- Node1&#45;&gt;Node6 -->
<g id="edge5_Node000001_Node000006" class="edge">
<title>Node1&#45;&gt;Node6</title>
<g id="a_edge5_Node000001_Node000006"><a xlink:title=" ">
<path fill="none" stroke="#63b8ff" d="M696.89,-61.72C670.14,-50.55 632.79,-34.95 609.52,-25.23"/>
<polygon fill="#63b8ff" stroke="#63b8ff" points="695.3,-64.85 705.88,-65.47 698,-58.39 695.3,-64.85"/>
</a>
</g>
</g>
<!-- Node7 -->
<g id="Node000007" class="node">
<title>Node7</title>
<g id="a_Node000007"><a xlink:href="../../d5/dd2/compute__elph__matq_8c.html" target="_top" xlink:title=" ">
<polygon fill="white" stroke="#666666" points="786.12,-30.5 671.88,-30.5 671.88,0 786.12,0 786.12,-30.5"/>
<text xml:space="preserve" text-anchor="start" x="679.88" y="-17" font-family="Helvetica,sans-Serif" font-size="10.00">src/elph/compute_elph</text>
<text xml:space="preserve" text-anchor="middle" x="729" y="-5.75" font-family="Helvetica,sans-Serif" font-size="10.00">_matq.c</text>
</a>
</g>
</g>
<!-- Node1&#45;&gt;Node7 -->
<g id="edge6_Node000001_Node000007" class="edge">
<title>Node1&#45;&gt;Node7</title>
<g id="a_edge6_Node000001_Node000007"><a xlink:title=" ">
<path fill="none" stroke="#63b8ff" d="M729,-54.92C729,-46.99 729,-38.06 729,-30.78"/>
<polygon fill="#63b8ff" stroke="#63b8ff" points="725.5,-54.67 729,-64.67 732.5,-54.67 725.5,-54.67"/>
</a>
</g>
</g>
<!-- Node8 -->
<g id="Node000008" class="node">
<title>Node8</title>
<g id="a_Node000008"><a xlink:href="../../da/d2e/elph__driver_8c.html" target="_top" xlink:title=" ">
<polygon fill="white" stroke="#666666" points="912.12,-24.88 803.88,-24.88 803.88,-5.63 912.12,-5.63 912.12,-24.88"/>
<text xml:space="preserve" text-anchor="middle" x="858" y="-11.38" font-family="Helvetica,sans-Serif" font-size="10.00">src/elph/elph_driver.c</text>
</a>
</g>
</g>
<!-- Node1&#45;&gt;Node8 -->
<g id="edge7_Node000001_Node000008" class="edge">
<title>Node1&#45;&gt;Node8</title>
<g id="a_edge7_Node000001_Node000008"><a xlink:title=" ">
<path fill="none" stroke="#63b8ff" d="M759.03,-61.42C783.45,-50.27 817.21,-34.87 838.32,-25.23"/>
<polygon fill="#63b8ff" stroke="#63b8ff" points="757.89,-58.09 750.25,-65.43 760.8,-64.46 757.89,-58.09"/>
</a>
</g>
</g>
<!-- Node9 -->
<g id="Node000009" class="node">
<title>Node9</title>
<g id="a_Node000009"><a xlink:href="../../d7/d1a/planner_8c.html" target="_top" xlink:title=" ">
<polygon fill="white" stroke="#666666" points="1013.75,-24.88 930.25,-24.88 930.25,-5.63 1013.75,-5.63 1013.75,-24.88"/>
<text xml:space="preserve" text-anchor="middle" x="972" y="-11.38" font-family="Helvetica,sans-Serif" font-size="10.00">src/fft/planner.c</text>
</a>
</g>
</g>
<!-- Node1&#45;&gt;Node9 -->
<g id="edge8_Node000001_Node000009" class="edge">
<title>Node1&#45;&gt;Node9</title>
<g id="a_edge8_Node000001_Node000009"><a xlink:title=" ">
<path fill="none" stroke="#63b8ff" d="M781.32,-63.62C820.01,-54.95 873.93,-42.54 921,-30.5 927.23,-28.91 933.87,-27.12 940.23,-25.36"/>
<polygon fill="#63b8ff" stroke="#63b8ff" points="780.8,-60.15 771.8,-65.74 782.33,-66.98 780.8,-60.15"/>
</a>
</g>
</g>
<!-- Node10 -->
<g id="Node000010" class="node">
<title>Node10</title>
<g id="a_Node000010"><a xlink:href="../../da/dc2/interpolation__driver_8c.html" target="_top" xlink:title=" ">
<polygon fill="white" stroke="#666666" points="1172.25,-30.5 1031.75,-30.5 1031.75,0 1172.25,0 1172.25,-30.5"/>
<text xml:space="preserve" text-anchor="start" x="1039.75" y="-17" font-family="Helvetica,sans-Serif" font-size="10.00">src/interpolation/interpolation</text>
<text xml:space="preserve" text-anchor="middle" x="1102" y="-5.75" font-family="Helvetica,sans-Serif" font-size="10.00">_driver.c</text>
</a>
</g>
</g>
<!-- Node1&#45;&gt;Node10 -->
<g id="edge9_Node000001_Node000010" class="edge">
<title>Node1&#45;&gt;Node10</title>
<g id="a_edge9_Node000001_Node000010"><a xlink:title=" ">
<path fill="none" stroke="#63b8ff" d="M796.59,-65.41C856.23,-56.71 945.49,-43.37 1023,-30.5 1025.75,-30.04 1028.55,-29.57 1031.38,-29.09"/>
<polygon fill="#63b8ff" stroke="#63b8ff" points="796.32,-61.91 786.93,-66.82 797.33,-68.84 796.32,-61.91"/>
</a>
</g>
</g>
<!-- Node11 -->
<g id="Node000011" class="node">
<title>Node11</title>
<g id="a_Node000011"><a xlink:href="../../da/d77/get__save__data_8c.html" target="_top" xlink:title=" ">
<polygon fill="white" stroke="#666666" points="1305.5,-24.88 1190.5,-24.88 1190.5,-5.63 1305.5,-5.63 1305.5,-24.88"/>
<text xml:space="preserve" text-anchor="middle" x="1248" y="-11.38" font-family="Helvetica,sans-Serif" font-size="10.00">src/io/get_save_data.c</text>
</a>
</g>
</g>
<!-- Node1&#45;&gt;Node11 -->
<g id="edge10_Node000001_Node000011" class="edge">
<title>Node1&#45;&gt;Node11</title>
<g id="a_edge10_Node000001_Node000011"><a xlink:title=" ">
<path fill="none" stroke="#63b8ff" d="M796.5,-70.81C885.11,-64.61 1045.33,-51.56 1181,-30.5 1190.05,-29.1 1199.72,-27.25 1208.81,-25.35"/>
<polygon fill="#63b8ff" stroke="#63b8ff" points="796.52,-67.3 786.78,-71.48 797,-74.29 796.52,-67.3"/>
</a>
</g>
</g>
<!-- Node12 -->
<g id="Node000012" class="node">
<title>Node12</title>
<g id="a_Node000012"><a xlink:href="../../d8/dfb/sortpw_8c.html" target="_top" xlink:title=" ">
<polygon fill="white" stroke="#666666" points="1410.62,-24.88 1323.38,-24.88 1323.38,-5.63 1410.62,-5.63 1410.62,-24.88"/>
<text xml:space="preserve" text-anchor="middle" x="1367" y="-11.38" font-family="Helvetica,sans-Serif" font-size="10.00">src/wfc/sortpw.c</text>
</a>
</g>
</g>
<!-- Node1&#45;&gt;Node12 -->
<g id="edge11_Node000001_Node000012" class="edge">
<title>Node1&#45;&gt;Node12</title>
<g id="a_edge11_Node000001_Node000012"><a xlink:title=" ">
<path fill="none" stroke="#63b8ff" d="M796.39,-74.17C905.92,-71.69 1129.07,-62.75 1315,-30.5 1322.47,-29.2 1330.42,-27.3 1337.8,-25.31"/>
<polygon fill="#63b8ff" stroke="#63b8ff" points="796.63,-70.67 786.7,-74.38 796.78,-77.67 796.63,-70.67"/>
</a>
</g>
</g>
</g>
</svg>
