<?xml version="1.0" encoding="UTF-8" standalone="no"?>
<!DOCTYPE svg PUBLIC "-//W3C//DTD SVG 1.1//EN"
 "http://www.w3.org/Graphics/SVG/1.1/DTD/svg11.dtd">
<!-- Generated by graphviz version 14.0.0 (20250921.2048)
 -->
<!-- Title: compute_and_write_dmats Pages: 1 -->
<svg width="645pt" height="402pt"
 viewBox="0.00 0.00 645.00 402.00" xmlns="http://www.w3.org/2000/svg" xmlns:xlink="http://www.w3.org/1999/xlink">
<g id="graph0" class="graph" transform="scale(1 1) rotate(0) translate(4 398.25)">
<title>compute_and_write_dmats</title>
<!-- Node1 -->
<g id="Node000001" class="node">
<title>Node1</title>
<g id="a_Node000001"><a xlink:title=" ">
<polygon fill="#999999" stroke="#666666" points="133,-208.25 0,-208.25 0,-189 133,-189 133,-208.25"/>
<text xml:space="preserve" text-anchor="middle" x="66.5" y="-194.75" font-family="Helvetica,sans-Serif" font-size="10.00">compute_and_write_dmats</text>
</a>
</g>
</g>
<!-- Node2 -->
<g id="Node000002" class="node">
<title>Node2</title>
<g id="a_Node000002"><a xlink:href="../../d2/df3/nc4__def__var_8c.html#a0e71d253b4863e834dd83b0780c43e5b" target="_top" xlink:title=" ">
<polygon fill="white" stroke="#666666" points="245.38,-282.25 185.88,-282.25 185.88,-263 245.38,-263 245.38,-282.25"/>
<text xml:space="preserve" text-anchor="middle" x="215.62" y="-268.75" font-family="Helvetica,sans-Serif" font-size="10.00">def_ncVar</text>
</a>
</g>
</g>
<!-- Node1&#45;&gt;Node2 -->
<g id="edge1_Node000001_Node000002" class="edge">
<title>Node1&#45;&gt;Node2</title>
<g id="a_edge1_Node000001_Node000002"><a xlink:title=" ">
<path fill="none" stroke="#63b8ff" d="M84.04,-208.61C103.85,-220.37 138.23,-240.14 169,-254.62 171.56,-255.83 174.23,-257.03 176.93,-258.2"/>
<polygon fill="#63b8ff" stroke="#63b8ff" points="175.38,-261.35 185.96,-261.95 178.07,-254.88 175.38,-261.35"/>
</a>
</g>
</g>
<!-- Node3 -->
<g id="Node000003" class="node">
<title>Node3</title>
<g id="a_Node000003"><a xlink:href="../../d9/d54/parallel_8c.html#a94eab8d16c1d9faeee313c775986cf08" target="_top" xlink:title=" ">
<polygon fill="white" stroke="#666666" points="262.25,-245.25 169,-245.25 169,-226 262.25,-226 262.25,-245.25"/>
<text xml:space="preserve" text-anchor="middle" x="215.62" y="-231.75" font-family="Helvetica,sans-Serif" font-size="10.00">distribute_to_grps</text>
</a>
</g>
</g>
<!-- Node1&#45;&gt;Node3 -->
<g id="edge2_Node000001_Node000003" class="edge">
<title>Node1&#45;&gt;Node3</title>
<g id="a_edge2_Node000001_Node000003"><a xlink:title=" ">
<path fill="none" stroke="#63b8ff" d="M107.7,-208.74C124.89,-213.06 145.17,-218.16 163.42,-222.75"/>
<polygon fill="#63b8ff" stroke="#63b8ff" points="162.45,-226.11 173,-225.16 164.16,-219.32 162.45,-226.11"/>
</a>
</g>
</g>
<!-- Node4 -->
<g id="Node000004" class="node">
<title>Node4</title>
<g id="a_Node000004"><a xlink:href="../../dd/de7/elec__reps_8c.html#a9ad01d68a7d4f87c39a98bf13778cd64" target="_top" xlink:title=" ">
<polygon fill="white" stroke="#666666" points="256.62,-208.25 174.62,-208.25 174.62,-189 256.62,-189 256.62,-208.25"/>
<text xml:space="preserve" text-anchor="middle" x="215.62" y="-194.75" font-family="Helvetica,sans-Serif" font-size="10.00">electronic_reps</text>
</a>
</g>
</g>
<!-- Node1&#45;&gt;Node4 -->
<g id="edge3_Node000001_Node000004" class="edge">
<title>Node1&#45;&gt;Node4</title>
<g id="a_edge3_Node000001_Node000004"><a xlink:title=" ">
<path fill="none" stroke="#63b8ff" d="M133.32,-198.62C143.22,-198.62 153.31,-198.62 162.86,-198.62"/>
<polygon fill="#63b8ff" stroke="#63b8ff" points="162.67,-202.13 172.67,-198.63 162.67,-195.13 162.67,-202.13"/>
</a>
</g>
</g>
<!-- Node21 -->
<g id="Node000021" class="node">
<title>Node21</title>
<g id="a_Node000021"><a xlink:href="../../df/dc3/progess__bar_8c.html#a5c4666fb95fd34e435e1584cbd00fd28" target="_top" xlink:title=" ">
<polygon fill="white" stroke="#666666" points="261.12,-171.25 170.12,-171.25 170.12,-152 261.12,-152 261.12,-171.25"/>
<text xml:space="preserve" text-anchor="middle" x="215.62" y="-157.75" font-family="Helvetica,sans-Serif" font-size="10.00">print_progressbar</text>
</a>
</g>
</g>
<!-- Node1&#45;&gt;Node21 -->
<g id="edge23_Node000001_Node000021" class="edge">
<title>Node1&#45;&gt;Node21</title>
<g id="a_edge23_Node000001_Node000021"><a xlink:title=" ">
<path fill="none" stroke="#63b8ff" d="M107.7,-188.51C124.89,-184.19 145.17,-179.09 163.42,-174.5"/>
<polygon fill="#63b8ff" stroke="#63b8ff" points="164.16,-177.93 173,-172.09 162.45,-171.14 164.16,-177.93"/>
</a>
</g>
</g>
<!-- Node22 -->
<g id="Node000022" class="node">
<title>Node22</title>
<g id="a_Node000022"><a xlink:href="../../df/dc3/progess__bar_8c.html#ac4a1ed7cecb4003c06db6f2bbc4e8ca5" target="_top" xlink:title=" ">
<polygon fill="white" stroke="#666666" points="261.5,-134.25 169.75,-134.25 169.75,-115 261.5,-115 261.5,-134.25"/>
<text xml:space="preserve" text-anchor="middle" x="215.62" y="-120.75" font-family="Helvetica,sans-Serif" font-size="10.00">start_progressbar</text>
</a>
</g>
</g>
<!-- Node1&#45;&gt;Node22 -->
<g id="edge24_Node000001_Node000022" class="edge">
<title>Node1&#45;&gt;Node22</title>
<g id="a_edge24_Node000001_Node000022"><a xlink:title=" ">
<path fill="none" stroke="#63b8ff" d="M84.04,-188.64C103.85,-176.88 138.23,-157.11 169,-142.62 171.56,-141.42 174.23,-140.22 176.93,-139.05"/>
<polygon fill="#63b8ff" stroke="#63b8ff" points="178.07,-142.37 185.96,-135.3 175.38,-135.9 178.07,-142.37"/>
</a>
</g>
</g>
<!-- Node5 -->
<g id="Node000005" class="node">
<title>Node5</title>
<g id="a_Node000005"><a xlink:href="../../db/d7a/trans__wfc_8c.html#a481ceff1e11d889b6a9e302c9546b05d" target="_top" xlink:title=" ">
<polygon fill="white" stroke="#666666" points="389.62,-394.25 302.38,-394.25 302.38,-375 389.62,-375 389.62,-394.25"/>
<text xml:space="preserve" text-anchor="middle" x="346" y="-380.75" font-family="Helvetica,sans-Serif" font-size="10.00">apply_trans_wfc</text>
</a>
</g>
</g>
<!-- Node4&#45;&gt;Node5 -->
<g id="edge4_Node000004_Node000005" class="edge">
<title>Node4&#45;&gt;Node5</title>
<g id="a_edge4_Node000004_Node000005"><a xlink:title=" ">
<path fill="none" stroke="#63b8ff" d="M252.28,-208.59C256.02,-210.77 259.46,-213.41 262.25,-216.62 307.21,-268.38 253.07,-315.05 298.25,-366.62 298.51,-366.92 298.77,-367.21 299.04,-367.49"/>
<polygon fill="#63b8ff" stroke="#63b8ff" points="296.78,-370.17 306.82,-373.57 301.09,-364.66 296.78,-370.17"/>
</a>
</g>
</g>
<!-- Node6 -->
<g id="Node000006" class="node">
<title>Node6</title>
<g id="a_Node000006"><a xlink:href="../../da/d97/_e_l_p_h__timers_8c.html#a4846a0dbe6a17751878baf1315af43aa" target="_top" xlink:title=" ">
<polygon fill="white" stroke="#666666" points="393.75,-357.25 298.25,-357.25 298.25,-338 393.75,-338 393.75,-357.25"/>
<text xml:space="preserve" text-anchor="middle" x="346" y="-343.75" font-family="Helvetica,sans-Serif" font-size="10.00">ELPH_start_clock</text>
</a>
</g>
</g>
<!-- Node4&#45;&gt;Node6 -->
<g id="edge5_Node000004_Node000006" class="edge">
<title>Node4&#45;&gt;Node6</title>
<g id="a_edge5_Node000004_Node000006"><a xlink:title=" ">
<path fill="none" stroke="#63b8ff" d="M251.61,-208.54C255.55,-210.73 259.23,-213.39 262.25,-216.62 298.25,-255.13 262.1,-291.27 298.25,-329.62 298.62,-330.02 299.01,-330.41 299.4,-330.79"/>
<polygon fill="#63b8ff" stroke="#63b8ff" points="297.33,-333.61 307.47,-336.67 301.45,-327.95 297.33,-333.61"/>
</a>
</g>
</g>
<!-- Node7 -->
<g id="Node000007" class="node">
<title>Node7</title>
<g id="a_Node000007"><a xlink:href="../../da/d97/_e_l_p_h__timers_8c.html#adcc3002449fe62895b6e89571d00ba48" target="_top" xlink:title=" ">
<polygon fill="white" stroke="#666666" points="393.38,-320.25 298.62,-320.25 298.62,-301 393.38,-301 393.38,-320.25"/>
<text xml:space="preserve" text-anchor="middle" x="346" y="-306.75" font-family="Helvetica,sans-Serif" font-size="10.00">ELPH_stop_clock</text>
</a>
</g>
</g>
<!-- Node4&#45;&gt;Node7 -->
<g id="edge6_Node000004_Node000007" class="edge">
<title>Node4&#45;&gt;Node7</title>
<g id="a_edge6_Node000004_Node000007"><a xlink:title=" ">
<path fill="none" stroke="#63b8ff" d="M250.74,-208.69C254.92,-210.87 258.89,-213.48 262.25,-216.62 289.54,-242.16 270.85,-267.2 298.25,-292.62 299,-293.32 299.79,-294 300.6,-294.64"/>
<polygon fill="#63b8ff" stroke="#63b8ff" points="298.45,-297.43 308.77,-299.84 302.21,-291.52 298.45,-297.43"/>
</a>
</g>
</g>
<!-- Node8 -->
<g id="Node000008" class="node">
<title>Node8</title>
<g id="a_Node000008"><a xlink:href="../../da/d8e/gsort_8c.html#a25f48d8a76001e1843dcf9cfe792ac5c" target="_top" xlink:title=" ">
<polygon fill="white" stroke="#666666" points="389.25,-283.25 302.75,-283.25 302.75,-264 389.25,-264 389.25,-283.25"/>
<text xml:space="preserve" text-anchor="middle" x="346" y="-269.75" font-family="Helvetica,sans-Serif" font-size="10.00">find_gvecs_idxs</text>
</a>
</g>
</g>
<!-- Node4&#45;&gt;Node8 -->
<g id="edge7_Node000004_Node000008" class="edge">
<title>Node4&#45;&gt;Node8</title>
<g id="a_edge7_Node000004_Node000008"><a xlink:title=" ">
<path fill="none" stroke="#63b8ff" d="M247.53,-208.62C252.65,-210.88 257.75,-213.55 262.25,-216.62 281.71,-229.96 278.73,-242.37 298.25,-255.62 299.83,-256.7 301.49,-257.72 303.19,-258.69"/>
<polygon fill="#63b8ff" stroke="#63b8ff" points="301.46,-261.74 311.97,-263.04 304.56,-255.47 301.46,-261.74"/>
</a>
</g>
</g>
<!-- Node10 -->
<g id="Node000010" class="node">
<title>Node10</title>
<g id="a_Node000010"><a xlink:href="../../de/d2d/numerical__func_8c.html#a95da0d07e74aa4a00285324f1464224b" target="_top" xlink:title=" ">
<polygon fill="white" stroke="#666666" points="388.88,-246.25 303.12,-246.25 303.12,-227 388.88,-227 388.88,-246.25"/>
<text xml:space="preserve" text-anchor="middle" x="346" y="-232.75" font-family="Helvetica,sans-Serif" font-size="10.00">find_kidx_in_list</text>
</a>
</g>
</g>
<!-- Node4&#45;&gt;Node10 -->
<g id="edge9_Node000004_Node000010" class="edge">
<title>Node4&#45;&gt;Node10</title>
<g id="a_edge9_Node000004_Node000010"><a xlink:title=" ">
<path fill="none" stroke="#63b8ff" d="M250.69,-208.71C265.9,-213.21 284.03,-218.58 300.3,-223.39"/>
<polygon fill="#63b8ff" stroke="#63b8ff" points="299.19,-226.71 309.77,-226.2 301.17,-220 299.19,-226.71"/>
</a>
</g>
</g>
<!-- Node11 -->
<g id="Node000011" class="node">
<title>Node11</title>
<g id="a_Node000011"><a xlink:href="../../de/d2d/numerical__func_8c.html#af511a32007a9865999d8bcf06cfff1dc" target="_top" xlink:title=" ">
<polygon fill="white" stroke="#666666" points="508,-208.25 444,-208.25 444,-189 508,-189 508,-208.25"/>
<text xml:space="preserve" text-anchor="middle" x="476" y="-194.75" font-family="Helvetica,sans-Serif" font-size="10.00">Gemm3x3f</text>
</a>
</g>
</g>
<!-- Node4&#45;&gt;Node11 -->
<g id="edge10_Node000004_Node000011" class="edge">
<title>Node4&#45;&gt;Node11</title>
<g id="a_edge10_Node000004_Node000011"><a xlink:title=" ">
<path fill="none" stroke="#63b8ff" d="M257,-198.62C304.72,-198.62 383.8,-198.62 432.45,-198.62"/>
<polygon fill="#63b8ff" stroke="#63b8ff" points="432.32,-202.13 442.32,-198.63 432.32,-195.13 432.32,-202.13"/>
</a>
</g>
</g>
<!-- Node12 -->
<g id="Node000012" class="node">
<title>Node12</title>
<g id="a_Node000012"><a xlink:href="../../dc/d50/blas_8c.html#a93d327b9e3c8bd925ff76d32df39809c" target="_top" xlink:title=" ">
<polygon fill="white" stroke="#666666" points="515.88,-94.25 436.12,-94.25 436.12,-75 515.88,-75 515.88,-94.25"/>
<text xml:space="preserve" text-anchor="middle" x="476" y="-80.75" font-family="Helvetica,sans-Serif" font-size="10.00">matmul_cmplx</text>
</a>
</g>
</g>
<!-- Node4&#45;&gt;Node12 -->
<g id="edge11_Node000004_Node000012" class="edge">
<title>Node4&#45;&gt;Node12</title>
<g id="a_edge11_Node000004_Node000012"><a xlink:title=" ">
<path fill="none" stroke="#63b8ff" d="M250.09,-188.59C254.47,-186.4 258.67,-183.77 262.25,-180.62 287.07,-158.84 271.36,-134.79 298.25,-115.62 334.92,-89.48 386.53,-82.98 424.52,-82.27"/>
<polygon fill="#63b8ff" stroke="#63b8ff" points="424.34,-85.77 434.32,-82.23 424.31,-78.77 424.34,-85.77"/>
</a>
</g>
</g>
<!-- Node14 -->
<g id="Node000014" class="node">
<title>Node14</title>
<g id="a_Node000014"><a xlink:href="../../de/d2d/numerical__func_8c.html#adeeb2c0049b8e3663d2d2cc9f7a1cd23" target="_top" xlink:title=" ">
<polygon fill="white" stroke="#666666" points="505,-132.25 447,-132.25 447,-113 505,-113 505,-132.25"/>
<text xml:space="preserve" text-anchor="middle" x="476" y="-118.75" font-family="Helvetica,sans-Serif" font-size="10.00">MatVec3f</text>
</a>
</g>
</g>
<!-- Node4&#45;&gt;Node14 -->
<g id="edge13_Node000004_Node000014" class="edge">
<title>Node4&#45;&gt;Node14</title>
<g id="a_edge13_Node000004_Node000014"><a xlink:title=" ">
<path fill="none" stroke="#63b8ff" d="M247.53,-188.63C252.65,-186.37 257.75,-183.7 262.25,-180.62 281.71,-167.29 277.18,-152.23 298.25,-141.62 341.41,-119.91 397.88,-117.65 435.25,-119.17"/>
<polygon fill="#63b8ff" stroke="#63b8ff" points="434.98,-122.66 445.15,-119.69 435.35,-115.67 434.98,-122.66"/>
</a>
</g>
</g>
<!-- Node15 -->
<g id="Node000015" class="node">
<title>Node15</title>
<g id="a_Node000015"><a xlink:href="../../d7/dd7/rotate___gvecs_8c.html#a3777530f5d55d899b796fb4e462b512f" target="_top" xlink:title=" ">
<polygon fill="white" stroke="#666666" points="380.62,-170.25 311.38,-170.25 311.38,-151 380.62,-151 380.62,-170.25"/>
<text xml:space="preserve" text-anchor="middle" x="346" y="-156.75" font-family="Helvetica,sans-Serif" font-size="10.00">rotateGvecs</text>
</a>
</g>
</g>
<!-- Node4&#45;&gt;Node15 -->
<g id="edge14_Node000004_Node000015" class="edge">
<title>Node4&#45;&gt;Node15</title>
<g id="a_edge14_Node000004_Node000015"><a xlink:title=" ">
<path fill="none" stroke="#63b8ff" d="M250.69,-188.54C265.9,-184.04 284.03,-178.67 300.3,-173.86"/>
<polygon fill="#63b8ff" stroke="#63b8ff" points="301.17,-177.25 309.77,-171.05 299.19,-170.54 301.17,-177.25"/>
</a>
</g>
</g>
<!-- Node17 -->
<g id="Node000017" class="node">
<title>Node17</title>
<g id="a_Node000017"><a xlink:href="../../dc/d77/su2mat_8c.html#a54f9aa61f40686918a52909936a101af" target="_top" xlink:title=" ">
<polygon fill="white" stroke="#666666" points="372,-56.25 320,-56.25 320,-37 372,-37 372,-56.25"/>
<text xml:space="preserve" text-anchor="middle" x="346" y="-42.75" font-family="Helvetica,sans-Serif" font-size="10.00">SU2mat</text>
</a>
</g>
</g>
<!-- Node4&#45;&gt;Node17 -->
<g id="edge19_Node000004_Node000017" class="edge">
<title>Node4&#45;&gt;Node17</title>
<g id="a_edge19_Node000004_Node000017"><a xlink:title=" ">
<path fill="none" stroke="#63b8ff" d="M251.58,-188.69C255.53,-186.5 259.21,-183.85 262.25,-180.62 297.53,-143.19 264.86,-109.76 298.25,-70.62 301.54,-66.77 305.6,-63.46 309.94,-60.64"/>
<polygon fill="#63b8ff" stroke="#63b8ff" points="311.33,-63.87 318.38,-55.96 307.94,-57.75 311.33,-63.87"/>
</a>
</g>
</g>
<!-- Node20 -->
<g id="Node000020" class="node">
<title>Node20</title>
<g id="a_Node000020"><a xlink:href="../../dd/d51/su2rotate_8c.html#aa1ec05c745d2b15aa7e535268eee2ca1" target="_top" xlink:title=" ">
<polygon fill="white" stroke="#666666" points="374.25,-19.25 317.75,-19.25 317.75,0 374.25,0 374.25,-19.25"/>
<text xml:space="preserve" text-anchor="middle" x="346" y="-5.75" font-family="Helvetica,sans-Serif" font-size="10.00">su2rotate</text>
</a>
</g>
</g>
<!-- Node4&#45;&gt;Node20 -->
<g id="edge22_Node000004_Node000020" class="edge">
<title>Node4&#45;&gt;Node20</title>
<g id="a_edge22_Node000004_Node000020"><a xlink:title=" ">
<path fill="none" stroke="#63b8ff" d="M252.3,-188.67C256.03,-186.49 259.46,-183.85 262.25,-180.62 307.95,-127.79 252.34,-80.27 298.25,-27.62 300.84,-24.65 303.99,-22.17 307.4,-20.09"/>
<polygon fill="#63b8ff" stroke="#63b8ff" points="308.64,-23.38 316.16,-15.91 305.63,-17.06 308.64,-23.38"/>
</a>
</g>
</g>
<!-- Node9 -->
<g id="Node000009" class="node">
<title>Node9</title>
<g id="a_Node000009"><a xlink:href="../../da/d8e/gsort_8c.html#ae4011b78967f043178d768cab29ef747" target="_top" xlink:title=" ">
<polygon fill="white" stroke="#666666" points="506.88,-283.25 445.12,-283.25 445.12,-264 506.88,-264 506.88,-283.25"/>
<text xml:space="preserve" text-anchor="middle" x="476" y="-269.75" font-family="Helvetica,sans-Serif" font-size="10.00">gsort_cmp</text>
</a>
</g>
</g>
<!-- Node8&#45;&gt;Node9 -->
<g id="edge8_Node000008_Node000009" class="edge">
<title>Node8&#45;&gt;Node9</title>
<g id="a_edge8_Node000008_Node000009"><a xlink:title=" ">
<path fill="none" stroke="#63b8ff" d="M389.62,-273.62C403.71,-273.62 419.37,-273.62 433.38,-273.62"/>
<polygon fill="#63b8ff" stroke="#63b8ff" points="433.18,-277.13 443.18,-273.63 433.18,-270.13 433.18,-277.13"/>
</a>
</g>
</g>
<!-- Node13 -->
<g id="Node000013" class="node">
<title>Node13</title>
<g id="a_Node000013"><a xlink:href="../../dc/d50/blas_8c.html#a913bafabc05e83b2aeed88da231a461f" target="_top" xlink:title=" ">
<polygon fill="white" stroke="#666666" points="636.5,-132.25 558.25,-132.25 558.25,-113 636.5,-113 636.5,-132.25"/>
<text xml:space="preserve" text-anchor="middle" x="597.38" y="-118.75" font-family="Helvetica,sans-Serif" font-size="10.00">get_gemmn_T</text>
</a>
</g>
</g>
<!-- Node12&#45;&gt;Node13 -->
<g id="edge12_Node000012_Node000013" class="edge">
<title>Node12&#45;&gt;Node13</title>
<g id="a_edge12_Node000012_Node000013"><a xlink:title=" ">
<path fill="none" stroke="#63b8ff" d="M508.68,-94.71C522.68,-99.17 539.35,-104.47 554.38,-109.26"/>
<polygon fill="#63b8ff" stroke="#63b8ff" points="552.93,-112.47 563.52,-112.17 555.05,-105.8 552.93,-112.47"/>
</a>
</g>
</g>
<!-- Node15&#45;&gt;Node11 -->
<g id="edge15_Node000015_Node000011" class="edge">
<title>Node15&#45;&gt;Node11</title>
<g id="a_edge15_Node000015_Node000011"><a xlink:title=" ">
<path fill="none" stroke="#63b8ff" d="M380.97,-170.71C396.88,-175.43 416.01,-181.11 432.84,-186.11"/>
<polygon fill="#63b8ff" stroke="#63b8ff" points="431.48,-189.36 442.06,-188.85 433.47,-182.65 431.48,-189.36"/>
</a>
</g>
</g>
<!-- Node15&#45;&gt;Node14 -->
<g id="edge18_Node000015_Node000014" class="edge">
<title>Node15&#45;&gt;Node14</title>
<g id="a_edge18_Node000015_Node000014"><a xlink:title=" ">
<path fill="none" stroke="#63b8ff" d="M380.97,-150.54C397.73,-145.56 418.06,-139.53 435.52,-134.35"/>
<polygon fill="#63b8ff" stroke="#63b8ff" points="436.47,-137.71 445.06,-131.51 434.48,-131 436.47,-137.71"/>
</a>
</g>
</g>
<!-- Node16 -->
<g id="Node000016" class="node">
<title>Node16</title>
<g id="a_Node000016"><a xlink:href="../../dc/d50/blas_8c.html#afca62df4906b4070e12af84f53906dc8" target="_top" xlink:title=" ">
<polygon fill="white" stroke="#666666" points="512.12,-170.25 439.88,-170.25 439.88,-151 512.12,-151 512.12,-170.25"/>
<text xml:space="preserve" text-anchor="middle" x="476" y="-156.75" font-family="Helvetica,sans-Serif" font-size="10.00">matmul_float</text>
</a>
</g>
</g>
<!-- Node15&#45;&gt;Node16 -->
<g id="edge16_Node000015_Node000016" class="edge">
<title>Node15&#45;&gt;Node16</title>
<g id="a_edge16_Node000015_Node000016"><a xlink:title=" ">
<path fill="none" stroke="#63b8ff" d="M380.97,-160.62C395.51,-160.62 412.72,-160.62 428.43,-160.62"/>
<polygon fill="#63b8ff" stroke="#63b8ff" points="428.02,-164.13 438.02,-160.63 428.02,-157.13 428.02,-164.13"/>
</a>
</g>
</g>
<!-- Node16&#45;&gt;Node13 -->
<g id="edge17_Node000016_Node000013" class="edge">
<title>Node16&#45;&gt;Node13</title>
<g id="a_edge17_Node000016_Node000013"><a xlink:title=" ">
<path fill="none" stroke="#63b8ff" d="M508.68,-150.54C522.68,-146.08 539.35,-140.78 554.38,-135.99"/>
<polygon fill="#63b8ff" stroke="#63b8ff" points="555.05,-139.45 563.52,-133.08 552.93,-132.78 555.05,-139.45"/>
</a>
</g>
</g>
<!-- Node18 -->
<g id="Node000018" class="node">
<title>Node18</title>
<g id="a_Node000018"><a xlink:href="../../de/d2d/numerical__func_8c.html#af7b464a965e184f893290a977a66c9d1" target="_top" xlink:title=" ">
<polygon fill="white" stroke="#666666" points="498.62,-19.25 453.38,-19.25 453.38,0 498.62,0 498.62,-19.25"/>
<text xml:space="preserve" text-anchor="middle" x="476" y="-5.75" font-family="Helvetica,sans-Serif" font-size="10.00">det3x3</text>
</a>
</g>
</g>
<!-- Node17&#45;&gt;Node18 -->
<g id="edge20_Node000017_Node000018" class="edge">
<title>Node17&#45;&gt;Node18</title>
<g id="a_edge20_Node000017_Node000018"><a xlink:title=" ">
<path fill="none" stroke="#63b8ff" d="M372.29,-39.31C392.3,-33.53 420.39,-25.41 442.14,-19.12"/>
<polygon fill="#63b8ff" stroke="#63b8ff" points="443.08,-22.49 451.72,-16.35 441.14,-15.77 443.08,-22.49"/>
</a>
</g>
</g>
<!-- Node19 -->
<g id="Node000019" class="node">
<title>Node19</title>
<g id="a_Node000019"><a xlink:href="../../de/d2d/numerical__func_8c.html#a5cb6a4677901df82939f3bb08fe1e5de" target="_top" xlink:title=" ">
<polygon fill="white" stroke="#666666" points="522.25,-56.25 429.75,-56.25 429.75,-37 522.25,-37 522.25,-56.25"/>
<text xml:space="preserve" text-anchor="middle" x="476" y="-42.75" font-family="Helvetica,sans-Serif" font-size="10.00">matmul_Cmpl2x2</text>
</a>
</g>
</g>
<!-- Node17&#45;&gt;Node19 -->
<g id="edge21_Node000017_Node000019" class="edge">
<title>Node17&#45;&gt;Node19</title>
<g id="a_edge21_Node000017_Node000019"><a xlink:title=" ">
<path fill="none" stroke="#63b8ff" d="M372.29,-46.62C385.36,-46.62 401.89,-46.62 417.84,-46.62"/>
<polygon fill="#63b8ff" stroke="#63b8ff" points="417.79,-50.13 427.79,-46.63 417.79,-43.13 417.79,-50.13"/>
</a>
</g>
</g>
</g>
</svg>
