<?xml version="1.0" encoding="UTF-8" standalone="no"?>
<!DOCTYPE svg PUBLIC "-//W3C//DTD SVG 1.1//EN"
 "http://www.w3.org/Graphics/SVG/1.1/DTD/svg11.dtd">
<!-- Generated by graphviz version 14.0.0 (20250921.2048)
 -->
<!-- Title: src/common/blas.c Pages: 1 -->
<svg width="352pt" height="138pt"
 viewBox="0.00 0.00 352.00 138.00" xmlns="http://www.w3.org/2000/svg" xmlns:xlink="http://www.w3.org/1999/xlink">

<svg id="main" version="1.1" xmlns="http://www.w3.org/2000/svg" xmlns:xlink="http://www.w3.org/1999/xlink" xml:space="preserve">

<style type="text/css"><![CDATA[
.node, .edge {opacity: 0.7;}
.node.selected, .edge.selected {opacity: 1;}
.edge:hover path { stroke: red; }
.edge:hover polygon { stroke: red; fill: red; }
]]></style>
<script type="application/ecmascript" xlink:href="../../svg.min.js"/>
<svg id="graph" class="graph">
<g id="graph0" class="graph" transform="scale(1 1) rotate(0) translate(4 133.75)">
<title>src/common/blas.c</title>
<!-- Node1 -->
<g id="Node000001" class="node">
<title>Node1</title>
<g id="a_Node000001"><a xlink:title=" ">
<polygon fill="#999999" stroke="#666666" points="213,-129.75 113.75,-129.75 113.75,-110.5 213,-110.5 213,-129.75"/>
<text xml:space="preserve" text-anchor="middle" x="163.38" y="-116.25" font-family="Helvetica,sans-Serif" font-size="10.00">src/common/blas.c</text>
</a>
</g>
</g>
<!-- Node2 -->
<g id="Node000002" class="node">
<title>Node2</title>
<g id="a_Node000002"><a xlink:title=" ">
<polygon fill="#e0e0e0" stroke="#999999" points="69.12,-74.5 21.62,-74.5 21.62,-55.25 69.12,-55.25 69.12,-74.5"/>
<text xml:space="preserve" text-anchor="middle" x="45.38" y="-61" font-family="Helvetica,sans-Serif" font-size="10.00">limits.h</text>
</a>
</g>
</g>
<!-- Node1&#45;&gt;Node2 -->
<g id="edge1_Node000001_Node000002" class="edge">
<title>Node1&#45;&gt;Node2</title>
<g id="a_edge1_Node000001_Node000002"><a xlink:title=" ">
<path fill="none" stroke="#63b8ff" d="M143.36,-110.09C124.88,-101.75 97.17,-89.25 75.93,-79.66"/>
<polygon fill="#63b8ff" stroke="#63b8ff" points="77.42,-76.5 66.87,-75.58 74.55,-82.88 77.42,-76.5"/>
</a>
</g>
</g>
<!-- Node3 -->
<g id="Node000003" class="node">
<title>Node3</title>
<g id="a_Node000003"><a xlink:href="../../de/da0/cblas_8h.html" target="_top" xlink:title=" ">
<polygon fill="white" stroke="#666666" points="135.12,-74.5 87.62,-74.5 87.62,-55.25 135.12,-55.25 135.12,-74.5"/>
<text xml:space="preserve" text-anchor="middle" x="111.38" y="-61" font-family="Helvetica,sans-Serif" font-size="10.00">cblas.h</text>
</a>
</g>
</g>
<!-- Node1&#45;&gt;Node3 -->
<g id="edge2_Node000001_Node000003" class="edge">
<title>Node1&#45;&gt;Node3</title>
<g id="a_edge2_Node000001_Node000003"><a xlink:title=" ">
<path fill="none" stroke="#63b8ff" d="M154.79,-110.33C147.53,-102.9 136.92,-92.04 128.01,-82.91"/>
<polygon fill="#63b8ff" stroke="#63b8ff" points="130.7,-80.65 121.21,-75.94 125.69,-85.54 130.7,-80.65"/>
</a>
</g>
</g>
<!-- Node7 -->
<g id="Node000007" class="node">
<title>Node7</title>
<g id="a_Node000007"><a xlink:href="../../d4/d0a/elph_c_8h.html" target="_top" xlink:title="Core type definitions and configuration for LetzElPhC.">
<polygon fill="white" stroke="#666666" points="262.25,-19.25 212.5,-19.25 212.5,0 262.25,0 262.25,-19.25"/>
<text xml:space="preserve" text-anchor="middle" x="237.38" y="-5.75" font-family="Helvetica,sans-Serif" font-size="10.00">elphC.h</text>
</a>
</g>
</g>
<!-- Node1&#45;&gt;Node7 -->
<g id="edge6_Node000001_Node000007" class="edge">
<title>Node1&#45;&gt;Node7</title>
<g id="a_edge6_Node000001_Node000007"><a xlink:title=" ">
<path fill="none" stroke="#63b8ff" d="M164.53,-110.17C166.56,-97.14 171.71,-72.61 183.38,-55.25 191.17,-43.66 202.84,-33.49 213.33,-25.79"/>
<polygon fill="#63b8ff" stroke="#63b8ff" points="215.02,-28.88 221.26,-20.32 211.04,-23.12 215.02,-28.88"/>
</a>
</g>
</g>
<!-- Node8 -->
<g id="Node000008" class="node">
<title>Node8</title>
<g id="a_Node000008"><a xlink:href="../../da/d41/error_8h.html" target="_top" xlink:title=" ">
<polygon fill="white" stroke="#666666" points="234.88,-74.5 191.88,-74.5 191.88,-55.25 234.88,-55.25 234.88,-74.5"/>
<text xml:space="preserve" text-anchor="middle" x="213.38" y="-61" font-family="Helvetica,sans-Serif" font-size="10.00">error.h</text>
</a>
</g>
</g>
<!-- Node1&#45;&gt;Node8 -->
<g id="edge7_Node000001_Node000008" class="edge">
<title>Node1&#45;&gt;Node8</title>
<g id="a_edge7_Node000001_Node000008"><a xlink:title=" ">
<path fill="none" stroke="#63b8ff" d="M171.63,-110.33C178.54,-102.98 188.6,-92.26 197.11,-83.19"/>
<polygon fill="#63b8ff" stroke="#63b8ff" points="199.61,-85.65 203.9,-75.96 194.51,-80.86 199.61,-85.65"/>
</a>
</g>
</g>
<!-- Node9 -->
<g id="Node000009" class="node">
<title>Node9</title>
<g id="a_Node000009"><a xlink:href="../../df/def/numerical__func_8h.html" target="_top" xlink:title=" ">
<polygon fill="white" stroke="#666666" points="343.5,-74.5 253.25,-74.5 253.25,-55.25 343.5,-55.25 343.5,-74.5"/>
<text xml:space="preserve" text-anchor="middle" x="298.38" y="-61" font-family="Helvetica,sans-Serif" font-size="10.00">numerical_func.h</text>
</a>
</g>
</g>
<!-- Node1&#45;&gt;Node9 -->
<g id="edge8_Node000001_Node000009" class="edge">
<title>Node1&#45;&gt;Node9</title>
<g id="a_edge8_Node000001_Node000009"><a xlink:title=" ">
<path fill="none" stroke="#63b8ff" d="M186.28,-110.09C207.8,-101.6 240.29,-88.79 264.75,-79.14"/>
<polygon fill="#63b8ff" stroke="#63b8ff" points="265.94,-82.43 273.95,-75.51 263.37,-75.92 265.94,-82.43"/>
</a>
</g>
</g>
<!-- Node4 -->
<g id="Node000004" class="node">
<title>Node4</title>
<g id="a_Node000004"><a xlink:title=" ">
<polygon fill="#e0e0e0" stroke="#999999" points="58.75,-19.25 0,-19.25 0,0 58.75,0 58.75,-19.25"/>
<text xml:space="preserve" text-anchor="middle" x="29.38" y="-5.75" font-family="Helvetica,sans-Serif" font-size="10.00">inttypes.h</text>
</a>
</g>
</g>
<!-- Node3&#45;&gt;Node4 -->
<g id="edge3_Node000003_Node000004" class="edge">
<title>Node3&#45;&gt;Node4</title>
<g id="a_edge3_Node000003_Node000004"><a xlink:title=" ">
<path fill="none" stroke="#63b8ff" d="M97.46,-54.84C85.21,-46.89 67.12,-35.14 52.66,-25.75"/>
<polygon fill="#63b8ff" stroke="#63b8ff" points="54.92,-23.04 44.62,-20.53 51.1,-28.91 54.92,-23.04"/>
</a>
</g>
</g>
<!-- Node5 -->
<g id="Node000005" class="node">
<title>Node5</title>
<g id="a_Node000005"><a xlink:title=" ">
<polygon fill="#e0e0e0" stroke="#999999" points="128,-19.25 76.75,-19.25 76.75,0 128,0 128,-19.25"/>
<text xml:space="preserve" text-anchor="middle" x="102.38" y="-5.75" font-family="Helvetica,sans-Serif" font-size="10.00">stddef.h</text>
</a>
</g>
</g>
<!-- Node3&#45;&gt;Node5 -->
<g id="edge4_Node000003_Node000005" class="edge">
<title>Node3&#45;&gt;Node5</title>
<g id="a_edge4_Node000003_Node000005"><a xlink:title=" ">
<path fill="none" stroke="#63b8ff" d="M109.89,-55.08C108.78,-48.49 107.21,-39.21 105.79,-30.82"/>
<polygon fill="#63b8ff" stroke="#63b8ff" points="109.26,-30.38 104.15,-21.1 102.36,-31.55 109.26,-30.38"/>
</a>
</g>
</g>
<!-- Node6 -->
<g id="Node000006" class="node">
<title>Node6</title>
<g id="a_Node000006"><a xlink:title=" ">
<polygon fill="#e0e0e0" stroke="#999999" points="194.5,-19.25 146.25,-19.25 146.25,0 194.5,0 194.5,-19.25"/>
<text xml:space="preserve" text-anchor="middle" x="170.38" y="-5.75" font-family="Helvetica,sans-Serif" font-size="10.00">stdint.h</text>
</a>
</g>
</g>
<!-- Node3&#45;&gt;Node6 -->
<g id="edge5_Node000003_Node000006" class="edge">
<title>Node3&#45;&gt;Node6</title>
<g id="a_edge5_Node000003_Node000006"><a xlink:title=" ">
<path fill="none" stroke="#63b8ff" d="M121.38,-54.84C129.74,-47.3 141.87,-36.35 151.98,-27.23"/>
<polygon fill="#63b8ff" stroke="#63b8ff" points="154.31,-29.84 159.39,-20.54 149.62,-24.64 154.31,-29.84"/>
</a>
</g>
</g>
<!-- Node9&#45;&gt;Node7 -->
<g id="edge10_Node000009_Node000007" class="edge">
<title>Node9&#45;&gt;Node7</title>
<g id="a_edge10_Node000009_Node000007"><a xlink:title=" ">
<path fill="none" stroke="#63b8ff" d="M288.03,-54.84C279.3,-47.22 266.59,-36.12 256.08,-26.95"/>
<polygon fill="#63b8ff" stroke="#63b8ff" points="258.55,-24.46 248.71,-20.52 253.94,-29.73 258.55,-24.46"/>
</a>
</g>
</g>
<!-- Node10 -->
<g id="Node000010" class="node">
<title>Node10</title>
<g id="a_Node000010"><a xlink:title=" ">
<polygon fill="#e0e0e0" stroke="#999999" points="336.25,-19.25 280.5,-19.25 280.5,0 336.25,0 336.25,-19.25"/>
<text xml:space="preserve" text-anchor="middle" x="308.38" y="-5.75" font-family="Helvetica,sans-Serif" font-size="10.00">stdbool.h</text>
</a>
</g>
</g>
<!-- Node9&#45;&gt;Node10 -->
<g id="edge9_Node000009_Node000010" class="edge">
<title>Node9&#45;&gt;Node10</title>
<g id="a_edge9_Node000009_Node000010"><a xlink:title=" ">
<path fill="none" stroke="#63b8ff" d="M300.03,-55.08C301.26,-48.49 303.01,-39.21 304.58,-30.82"/>
<polygon fill="#63b8ff" stroke="#63b8ff" points="308,-31.57 306.41,-21.1 301.12,-30.28 308,-31.57"/>
</a>
</g>
</g>
</g>
</svg>
</svg>

<style type='text/css'>
<![CDATA[
[data-mouse-over-selected='false'] { opacity: 0.7; }
[data-mouse-over-selected='true']  { opacity: 1.0; }
]]>
</style>
<script type="application/ecmascript"><![CDATA[
document.addEventListener('DOMContentLoaded', (event) => {
  highlightEdges();
  highlightAdjacentNodes();
});
]]></script>
</svg>
