<?xml version="1.0" encoding="UTF-8" standalone="no"?>
<!DOCTYPE svg PUBLIC "-//W3C//DTD SVG 1.1//EN"
 "http://www.w3.org/Graphics/SVG/1.1/DTD/svg11.dtd">
<!-- Generated by graphviz version 14.0.0 (20250921.2048)
 -->
<!-- Title: get_miller_idx Pages: 1 -->
<!--zoomable 273 -->

<svg id="main" version="1.1" xmlns="http://www.w3.org/2000/svg" xmlns:xlink="http://www.w3.org/1999/xlink" xml:space="preserve" onload="init(evt)">

<style type="text/css"><![CDATA[
.node, .edge {opacity: 0.7;}
.node.selected, .edge.selected {opacity: 1;}
.edge:hover path { stroke: red; }
.edge:hover polygon { stroke: red; fill: red; }
]]></style>

<defs>
  <circle id="rim" cx="0" cy="0" r="7"/>
  <circle id="rim2" cx="0" cy="0" r="3.5"/>
  <g id="zoomPlus">
    <use xlink:href="#rim" fill="#404040"><set attributeName="fill" to="#808080" begin="zoomplus.mouseover" end="zoomplus.mouseout"/></use>
    <path d="M-4,0h8M0,-4v8" fill="none" stroke="white" stroke-width="1.5" pointer-events="none"/>
  </g>
  <g id="zoomMin">
    <use xlink:href="#rim" fill="#404040"><set attributeName="fill" to="#808080" begin="zoomminus.mouseover" end="zoomminus.mouseout"/></use>
    <path d="M-4,0h8" fill="none" stroke="white" stroke-width="1.5" pointer-events="none"/>
  </g>
  <g id="arrowUp" transform="translate(30 24)">
    <use xlink:href="#rim"/>
    <path pointer-events="none" fill="none" stroke="white" stroke-width="1.5" d="M0,-3.0v7 M-2.5,-0.5L0,-3.0L2.5,-0.5"/>
  </g>
  <g id="arrowRight" transform="rotate(90) translate(36 -43)">
    <use xlink:href="#rim"/>
    <path pointer-events="none" fill="none" stroke="white" stroke-width="1.5" d="M0,-3.0v7 M-2.5,-0.5L0,-3.0L2.5,-0.5"/>
  </g>
  <g id="arrowDown" transform="rotate(180) translate(-30 -48)">
    <use xlink:href="#rim"/>
    <path pointer-events="none" fill="none" stroke="white" stroke-width="1.5" d="M0,-3.0v7 M-2.5,-0.5L0,-3.0L2.5,-0.5"/>
  </g>
  <g id="arrowLeft" transform="rotate(270) translate(-36 17)">
    <use xlink:href="#rim"/>
    <path pointer-events="none" fill="none" stroke="white" stroke-width="1.5" d="M0,-3.0v7 M-2.5,-0.5L0,-3.0L2.5,-0.5"/>
  </g>
  <g id="resetDef">
    <use xlink:href="#rim2" fill="#404040"><set attributeName="fill" to="#808080" begin="reset.mouseover" end="reset.mouseout"/></use>
  </g>
</defs>
<script type="application/ecmascript">
var viewWidth = 605;
var viewHeight = 273;
var sectionId = 'dynsection-10';
</script>
<script type="application/ecmascript" xlink:href="../../svg.min.js"/>
<svg id="graph" class="graph">
<g id="viewport">
<title>get_miller_idx</title>
<!-- Node1 -->
<g id="Node000001" class="node">
<title>Node1</title>
<g id="a_Node000001"><a xlink:title=" ">
<polygon fill="#999999" stroke="#666666" points="596.75,-115.25 520.75,-115.25 520.75,-96 596.75,-96 596.75,-115.25"/>
<text xml:space="preserve" text-anchor="middle" x="558.75" y="-101.75" font-family="Helvetica,sans-Serif" font-size="10.00">get_miller_idx</text>
</a>
</g>
</g>
<!-- Node2 -->
<g id="Node000002" class="node">
<title>Node2</title>
<g id="a_Node000002"><a xlink:href="../../db/d44/dyn__long__range_8c.html#a5c9bf2378b293980114e987a84c9df49" target="_top" xlink:title=" ">
<polygon fill="white" stroke="#666666" points="484.75,-184.88 363.75,-184.88 363.75,-154.38 484.75,-154.38 484.75,-184.88"/>
<text xml:space="preserve" text-anchor="start" x="371.75" y="-171.38" font-family="Helvetica,sans-Serif" font-size="10.00">add_ph_dyn_long_range</text>
<text xml:space="preserve" text-anchor="middle" x="424.25" y="-160.12" font-family="Helvetica,sans-Serif" font-size="10.00">_internal</text>
</a>
</g>
</g>
<!-- Node1&#45;&gt;Node2 -->
<g id="edge1_Node000001_Node000002" class="edge">
<title>Node1&#45;&gt;Node2</title>
<g id="a_edge1_Node000001_Node000002"><a xlink:title=" ">
<path fill="none" stroke="#63b8ff" d="M526.85,-120.55C506.08,-130.58 478.75,-143.79 457.66,-153.97"/>
<polygon fill="#63b8ff" stroke="#63b8ff" points="528.2,-123.78 535.68,-116.28 525.16,-117.48 528.2,-123.78"/>
</a>
</g>
</g>
<!-- Node7 -->
<g id="Node000007" class="node">
<title>Node7</title>
<g id="a_Node000007"><a xlink:href="../../d2/d5f/wigner__seitz_8c.html#a065617971e0c965c1cd8024894403332" target="_top" xlink:title=" ">
<polygon fill="white" stroke="#666666" points="315.38,-141.88 219.12,-141.88 219.12,-111.38 315.38,-111.38 315.38,-141.88"/>
<text xml:space="preserve" text-anchor="start" x="227.12" y="-128.38" font-family="Helvetica,sans-Serif" font-size="10.00">build_wigner_seitz</text>
<text xml:space="preserve" text-anchor="middle" x="267.25" y="-117.12" font-family="Helvetica,sans-Serif" font-size="10.00">_vectors</text>
</a>
</g>
</g>
<!-- Node1&#45;&gt;Node7 -->
<g id="edge7_Node000001_Node000007" class="edge">
<title>Node1&#45;&gt;Node7</title>
<g id="a_edge7_Node000001_Node000007"><a xlink:title=" ">
<path fill="none" stroke="#63b8ff" d="M509.19,-109.15C455.35,-113.05 369.07,-119.31 315.68,-123.18"/>
<polygon fill="#63b8ff" stroke="#63b8ff" points="509.27,-112.65 518.99,-108.44 508.76,-105.67 509.27,-112.65"/>
</a>
</g>
</g>
<!-- Node8 -->
<g id="Node000008" class="node">
<title>Node8</title>
<g id="a_Node000008"><a xlink:href="../../d1/d94/d_vpot__add__long__range_8c.html#a0923c770a93d2648a5d75b70fbb9c61c" target="_top" xlink:title=" ">
<polygon fill="white" stroke="#666666" points="472.38,-94.25 376.12,-94.25 376.12,-75 472.38,-75 472.38,-94.25"/>
<text xml:space="preserve" text-anchor="middle" x="424.25" y="-80.75" font-family="Helvetica,sans-Serif" font-size="10.00">dV_add_longrange</text>
</a>
</g>
</g>
<!-- Node1&#45;&gt;Node8 -->
<g id="edge9_Node000001_Node000008" class="edge">
<title>Node1&#45;&gt;Node8</title>
<g id="a_edge9_Node000001_Node000008"><a xlink:title=" ">
<path fill="none" stroke="#63b8ff" d="M509.33,-97.95C497.36,-96.05 484.56,-94.03 472.65,-92.14"/>
<polygon fill="#63b8ff" stroke="#63b8ff" points="508.57,-101.37 518.99,-99.48 509.67,-94.46 508.57,-101.37"/>
</a>
</g>
</g>
<!-- Node9 -->
<g id="Node000009" class="node">
<title>Node9</title>
<g id="a_Node000009"><a xlink:href="../../d9/d90/d_vbare__loc_8c.html#a30f21b6035a8a10369610419e98fbe67" target="_top" xlink:title=" ">
<polygon fill="white" stroke="#666666" points="447.25,-19.25 401.25,-19.25 401.25,0 447.25,0 447.25,-19.25"/>
<text xml:space="preserve" text-anchor="middle" x="424.25" y="-5.75" font-family="Helvetica,sans-Serif" font-size="10.00">dVlocq</text>
</a>
</g>
</g>
<!-- Node1&#45;&gt;Node9 -->
<g id="edge11_Node000001_Node000009" class="edge">
<title>Node1&#45;&gt;Node9</title>
<g id="a_edge11_Node000001_Node000009"><a xlink:title=" ">
<path fill="none" stroke="#63b8ff" d="M544.04,-86.38C530.73,-68.99 509.01,-43.85 484.75,-28.62 473.45,-21.53 459.28,-16.87 447.6,-13.94"/>
<polygon fill="#63b8ff" stroke="#63b8ff" points="541.2,-88.42 549.97,-94.37 546.83,-84.25 541.2,-88.42"/>
</a>
</g>
</g>
<!-- Node11 -->
<g id="Node000011" class="node">
<title>Node11</title>
<g id="a_Node000011"><a xlink:href="../../d9/d41/interpolation__utilities_8c.html#adb86c42dd68a4cb0a0e01c7f07231b98" target="_top" xlink:title=" ">
<polygon fill="white" stroke="#666666" points="463,-57.25 385.5,-57.25 385.5,-38 463,-38 463,-57.25"/>
<text xml:space="preserve" text-anchor="middle" x="424.25" y="-43.75" font-family="Helvetica,sans-Serif" font-size="10.00">fft_R2q_dvscf</text>
</a>
</g>
</g>
<!-- Node1&#45;&gt;Node11 -->
<g id="edge14_Node000001_Node000011" class="edge">
<title>Node1&#45;&gt;Node11</title>
<g id="a_edge14_Node000001_Node000011"><a xlink:title=" ">
<path fill="none" stroke="#63b8ff" d="M532.02,-89.81C518.33,-81.84 501,-72.45 484.75,-65.62 477.78,-62.7 470.18,-60.03 462.81,-57.69"/>
<polygon fill="#63b8ff" stroke="#63b8ff" points="530.02,-92.7 540.41,-94.79 533.6,-86.68 530.02,-92.7"/>
</a>
</g>
</g>
<!-- Node12 -->
<g id="Node000012" class="node">
<title>Node12</title>
<g id="a_Node000012"><a xlink:href="../../d9/d41/interpolation__utilities_8c.html#a6996965c06846d1cb1ad4c84c333d3f5" target="_top" xlink:title=" ">
<polygon fill="white" stroke="#666666" points="301.88,-265.25 232.62,-265.25 232.62,-246 301.88,-246 301.88,-265.25"/>
<text xml:space="preserve" text-anchor="middle" x="267.25" y="-251.75" font-family="Helvetica,sans-Serif" font-size="10.00">fft_R2q_dyn</text>
</a>
</g>
</g>
<!-- Node1&#45;&gt;Node12 -->
<g id="edge16_Node000001_Node000012" class="edge">
<title>Node1&#45;&gt;Node12</title>
<g id="a_edge16_Node000001_Node000012"><a xlink:title=" ">
<path fill="none" stroke="#63b8ff" d="M546.51,-125.11C533.96,-145.19 511.8,-175.96 484.75,-193.62 427.47,-231.04 347.33,-246.28 302.35,-252.17"/>
<polygon fill="#63b8ff" stroke="#63b8ff" points="549.38,-127.14 551.55,-116.76 543.39,-123.52 549.38,-127.14"/>
</a>
</g>
</g>
<!-- Node3 -->
<g id="Node000003" class="node">
<title>Node3</title>
<g id="a_Node000003"><a xlink:href="../../db/d44/dyn__long__range_8c.html#a8f542a339e339996795dd2eafe9ac1de" target="_top" xlink:title=" ">
<polygon fill="white" stroke="#666666" points="327.75,-179.25 206.75,-179.25 206.75,-160 327.75,-160 327.75,-179.25"/>
<text xml:space="preserve" text-anchor="middle" x="267.25" y="-165.75" font-family="Helvetica,sans-Serif" font-size="10.00">add_ph_dyn_long_range</text>
</a>
</g>
</g>
<!-- Node2&#45;&gt;Node3 -->
<g id="edge2_Node000002_Node000003" class="edge">
<title>Node2&#45;&gt;Node3</title>
<g id="a_edge2_Node000002_Node000003"><a xlink:title=" ">
<path fill="none" stroke="#63b8ff" d="M352.06,-169.62C344.02,-169.62 335.89,-169.62 328.02,-169.62"/>
<polygon fill="#63b8ff" stroke="#63b8ff" points="351.81,-173.13 361.81,-169.63 351.81,-166.13 351.81,-173.13"/>
</a>
</g>
</g>
<!-- Node6 -->
<g id="Node000006" class="node">
<title>Node6</title>
<g id="a_Node000006"><a xlink:href="../../db/d44/dyn__long__range_8c.html#a370223ca23cf3f439f2c4efea9e09c04" target="_top" xlink:title=" ">
<polygon fill="white" stroke="#666666" points="319.12,-227.88 215.38,-227.88 215.38,-197.38 319.12,-197.38 319.12,-227.88"/>
<text xml:space="preserve" text-anchor="start" x="223.38" y="-214.38" font-family="Helvetica,sans-Serif" font-size="10.00">compute_dyn_lr_asr</text>
<text xml:space="preserve" text-anchor="middle" x="267.25" y="-203.12" font-family="Helvetica,sans-Serif" font-size="10.00">_correction</text>
</a>
</g>
</g>
<!-- Node2&#45;&gt;Node6 -->
<g id="edge5_Node000002_Node000006" class="edge">
<title>Node2&#45;&gt;Node6</title>
<g id="a_edge5_Node000002_Node000006"><a xlink:title=" ">
<path fill="none" stroke="#63b8ff" d="M355.79,-188.34C343.61,-191.72 331.09,-195.19 319.46,-198.42"/>
<polygon fill="#63b8ff" stroke="#63b8ff" points="356.69,-191.72 365.39,-185.68 354.82,-184.98 356.69,-191.72"/>
</a>
</g>
</g>
<!-- Node4 -->
<g id="Node000004" class="node">
<title>Node4</title>
<g id="a_Node000004"><a xlink:href="../../da/dc2/interpolation__driver_8c.html#aecc42ae41d168b486807b337fcf5b3de" target="_top" xlink:title=" ">
<polygon fill="white" stroke="#666666" points="170.75,-136.25 73,-136.25 73,-117 170.75,-117 170.75,-136.25"/>
<text xml:space="preserve" text-anchor="middle" x="121.88" y="-122.75" font-family="Helvetica,sans-Serif" font-size="10.00">interpolation_driver</text>
</a>
</g>
</g>
<!-- Node3&#45;&gt;Node4 -->
<g id="edge3_Node000003_Node000004" class="edge">
<title>Node3&#45;&gt;Node4</title>
<g id="a_edge3_Node000003_Node000004"><a xlink:title=" ">
<path fill="none" stroke="#63b8ff" d="M221.66,-156.25C200.54,-149.92 175.75,-142.48 156.28,-136.64"/>
<polygon fill="#63b8ff" stroke="#63b8ff" points="220.6,-159.59 231.19,-159.11 222.61,-152.88 220.6,-159.59"/>
</a>
</g>
</g>
<!-- Node5 -->
<g id="Node000005" class="node">
<title>Node5</title>
<g id="a_Node000005"><a xlink:href="../../d3/dd5/main__elph_c_8c.html#a0ddf1224851353fc92bfbff6f499fa97" target="_top" xlink:title="Main program entry point.">
<polygon fill="white" stroke="#666666" points="37,-76.25 0,-76.25 0,-57 37,-57 37,-76.25"/>
<text xml:space="preserve" text-anchor="middle" x="18.5" y="-62.75" font-family="Helvetica,sans-Serif" font-size="10.00">main</text>
</a>
</g>
</g>
<!-- Node4&#45;&gt;Node5 -->
<g id="edge4_Node000004_Node000005" class="edge">
<title>Node4&#45;&gt;Node5</title>
<g id="a_edge4_Node000004_Node000005"><a xlink:title=" ">
<path fill="none" stroke="#63b8ff" d="M94.38,-110.94C76.13,-100.14 52.41,-86.1 36.6,-76.75"/>
<polygon fill="#63b8ff" stroke="#63b8ff" points="92.44,-113.86 102.83,-115.95 96.01,-107.84 92.44,-113.86"/>
</a>
</g>
</g>
<!-- Node6&#45;&gt;Node4 -->
<g id="edge6_Node000006_Node000004" class="edge">
<title>Node6&#45;&gt;Node4</title>
<g id="a_edge6_Node000006_Node000004"><a xlink:title=" ">
<path fill="none" stroke="#63b8ff" d="M213.46,-192.18C211.17,-191.03 208.92,-189.84 206.75,-188.62 179.09,-173.16 150.05,-149.86 134.45,-136.67"/>
<polygon fill="#63b8ff" stroke="#63b8ff" points="211.79,-195.26 222.33,-196.36 214.77,-188.93 211.79,-195.26"/>
</a>
</g>
</g>
<!-- Node7&#45;&gt;Node4 -->
<g id="edge8_Node000007_Node000004" class="edge">
<title>Node7&#45;&gt;Node4</title>
<g id="a_edge8_Node000007_Node000004"><a xlink:title=" ">
<path fill="none" stroke="#63b8ff" d="M207.52,-126.62C195.42,-126.62 182.82,-126.62 171.15,-126.62"/>
<polygon fill="#63b8ff" stroke="#63b8ff" points="207.39,-130.13 217.39,-126.63 207.39,-123.13 207.39,-130.13"/>
</a>
</g>
</g>
<!-- Node8&#45;&gt;Node4 -->
<g id="edge10_Node000008_Node000004" class="edge">
<title>Node8&#45;&gt;Node4</title>
<g id="a_edge10_Node000008_Node000004"><a xlink:title=" ">
<path fill="none" stroke="#63b8ff" d="M364.72,-86.39C320.92,-88.46 259.71,-92.94 206.75,-102.62 188.57,-105.95 168.67,-111.55 152.82,-116.51"/>
<polygon fill="#63b8ff" stroke="#63b8ff" points="364.68,-89.9 374.51,-85.96 364.37,-82.9 364.68,-89.9"/>
</a>
</g>
</g>
<!-- Node10 -->
<g id="Node000010" class="node">
<title>Node10</title>
<g id="a_Node000010"><a xlink:href="../../da/d2e/elph__driver_8c.html#ad9f405d41cf090d652dbe1307700665f" target="_top" xlink:title=" ">
<polygon fill="white" stroke="#666666" points="153.5,-58.25 90.25,-58.25 90.25,-39 153.5,-39 153.5,-58.25"/>
<text xml:space="preserve" text-anchor="middle" x="121.88" y="-44.75" font-family="Helvetica,sans-Serif" font-size="10.00">elph_driver</text>
</a>
</g>
</g>
<!-- Node9&#45;&gt;Node10 -->
<g id="edge12_Node000009_Node000010" class="edge">
<title>Node9&#45;&gt;Node10</title>
<g id="a_edge12_Node000009_Node000010"><a xlink:title=" ">
<path fill="none" stroke="#63b8ff" d="M389.66,-12C346.99,-15.27 271.14,-21.85 206.75,-31.62 189.12,-34.3 169.59,-38.2 153.81,-41.59"/>
<polygon fill="#63b8ff" stroke="#63b8ff" points="389.81,-15.5 399.52,-11.27 389.29,-8.52 389.81,-15.5"/>
</a>
</g>
</g>
<!-- Node10&#45;&gt;Node5 -->
<g id="edge13_Node000010_Node000005" class="edge">
<title>Node10&#45;&gt;Node5</title>
<g id="a_edge13_Node000010_Node000005"><a xlink:title=" ">
<path fill="none" stroke="#63b8ff" d="M78.61,-56.13C64.16,-58.69 48.77,-61.43 37.32,-63.46"/>
<polygon fill="#63b8ff" stroke="#63b8ff" points="79.18,-59.58 88.42,-54.39 77.96,-52.69 79.18,-59.58"/>
</a>
</g>
</g>
<!-- Node11&#45;&gt;Node4 -->
<g id="edge15_Node000011_Node000004" class="edge">
<title>Node11&#45;&gt;Node4</title>
<g id="a_edge15_Node000011_Node000004"><a xlink:title=" ">
<path fill="none" stroke="#63b8ff" d="M373.9,-51.88C329.35,-56.69 262.46,-66.36 206.75,-84.62 182.14,-92.69 155.75,-106.94 139.28,-116.58"/>
<polygon fill="#63b8ff" stroke="#63b8ff" points="374.19,-55.37 383.77,-50.86 373.47,-48.4 374.19,-55.37"/>
</a>
</g>
</g>
<!-- Node12&#45;&gt;Node4 -->
<g id="edge17_Node000012_Node000004" class="edge">
<title>Node12&#45;&gt;Node4</title>
<g id="a_edge17_Node000012_Node000004"><a xlink:title=" ">
<path fill="none" stroke="#63b8ff" d="M221.42,-244.65C216.24,-242.43 211.22,-239.78 206.75,-236.62 167.69,-209.08 138.68,-157.89 127.69,-136.46"/>
<polygon fill="#63b8ff" stroke="#63b8ff" points="220.14,-247.91 230.74,-248.1 222.58,-241.34 220.14,-247.91"/>
</a>
</g>
</g>
</g>
</svg>

<g id="navigator" transform="translate(0 0)" fill="#404254">
  <rect fill="#f2f5e9" fill-opacity="0.5" stroke="#606060" stroke-width=".5" x="0" y="0" width="60" height="60"/>
  <use id="zoomplus" xlink:href="#zoomPlus" x="17" y="9" onmousedown="handleZoom(evt,'in')"/>
  <use id="zoomminus" xlink:href="#zoomMin" x="42" y="9" onmousedown="handleZoom(evt,'out')"/>
  <use id="reset" xlink:href="#resetDef" x="30" y="36" onmousedown="handleReset()"/>
   <use id="arrowup" xlink:href="#arrowUp" x="0" y="0" onmousedown="handlePan(0,-1)"/>
  <use id="arrowright" xlink:href="#arrowRight" x="0" y="0" onmousedown="handlePan(1,0)"/>
  <use id="arrowdown" xlink:href="#arrowDown" x="0" y="0" onmousedown="handlePan(0,1)"/>
  <use id="arrowleft" xlink:href="#arrowLeft" x="0" y="0" onmousedown="handlePan(-1,0)"/>
</g>
<svg viewBox="0 0 15 15" width="100%" height="30px" preserveAspectRatio="xMaxYMin meet">
 <g id="arrow_out" transform="scale(0.3 0.3)">
  <a xlink:href="numerical__func_8h_a33dc7889eeb05a7ee40327581d51a3d7_icgraph_org.svg" target="_base">
   <rect id="button" ry="5" rx="5" y="6" x="6" height="38" width="38"
        fill="#f2f5e9" fill-opacity="0.5" stroke="#606060" stroke-width="1.0"/>
   <path id="arrow"
     d="M 11.500037,31.436501 C 11.940474,20.09759 22.043105,11.32322 32.158766,21.979434 L 37.068811,17.246167 C 37.068811,17.246167 37.088388,32 37.088388,32 L 22.160133,31.978069 C 22.160133,31.978069 26.997745,27.140456 26.997745,27.140456 C 18.528582,18.264221 13.291696,25.230495 11.500037,31.436501 z"
     style="fill:#404040;"/>
  </a>
 </g>
</svg>

<style type='text/css'>
<![CDATA[
[data-mouse-over-selected='false'] { opacity: 0.7; }
[data-mouse-over-selected='true']  { opacity: 1.0; }
]]>
</style>
<script type="application/ecmascript"><![CDATA[
document.addEventListener('DOMContentLoaded', (event) => {
  highlightEdges();
  highlightAdjacentNodes();
});
]]></script>
</svg>
