<?xml version="1.0" encoding="UTF-8" standalone="no"?>
<!DOCTYPE svg PUBLIC "-//W3C//DTD SVG 1.1//EN"
 "http://www.w3.org/Graphics/SVG/1.1/DTD/svg11.dtd">
<!-- Generated by graphviz version 14.0.0 (20250921.2048)
 -->
<!-- Title: MatVec3f Pages: 1 -->
<!--zoomable 563 -->

<svg id="main" version="1.1" xmlns="http://www.w3.org/2000/svg" xmlns:xlink="http://www.w3.org/1999/xlink" xml:space="preserve" onload="init(evt)">

<style type="text/css"><![CDATA[
.node, .edge {opacity: 0.7;}
.node.selected, .edge.selected {opacity: 1;}
.edge:hover path { stroke: red; }
.edge:hover polygon { stroke: red; fill: red; }
]]></style>

<defs>
  <circle id="rim" cx="0" cy="0" r="7"/>
  <circle id="rim2" cx="0" cy="0" r="3.5"/>
  <g id="zoomPlus">
    <use xlink:href="#rim" fill="#404040"><set attributeName="fill" to="#808080" begin="zoomplus.mouseover" end="zoomplus.mouseout"/></use>
    <path d="M-4,0h8M0,-4v8" fill="none" stroke="white" stroke-width="1.5" pointer-events="none"/>
  </g>
  <g id="zoomMin">
    <use xlink:href="#rim" fill="#404040"><set attributeName="fill" to="#808080" begin="zoomminus.mouseover" end="zoomminus.mouseout"/></use>
    <path d="M-4,0h8" fill="none" stroke="white" stroke-width="1.5" pointer-events="none"/>
  </g>
  <g id="arrowUp" transform="translate(30 24)">
    <use xlink:href="#rim"/>
    <path pointer-events="none" fill="none" stroke="white" stroke-width="1.5" d="M0,-3.0v7 M-2.5,-0.5L0,-3.0L2.5,-0.5"/>
  </g>
  <g id="arrowRight" transform="rotate(90) translate(36 -43)">
    <use xlink:href="#rim"/>
    <path pointer-events="none" fill="none" stroke="white" stroke-width="1.5" d="M0,-3.0v7 M-2.5,-0.5L0,-3.0L2.5,-0.5"/>
  </g>
  <g id="arrowDown" transform="rotate(180) translate(-30 -48)">
    <use xlink:href="#rim"/>
    <path pointer-events="none" fill="none" stroke="white" stroke-width="1.5" d="M0,-3.0v7 M-2.5,-0.5L0,-3.0L2.5,-0.5"/>
  </g>
  <g id="arrowLeft" transform="rotate(270) translate(-36 17)">
    <use xlink:href="#rim"/>
    <path pointer-events="none" fill="none" stroke="white" stroke-width="1.5" d="M0,-3.0v7 M-2.5,-0.5L0,-3.0L2.5,-0.5"/>
  </g>
  <g id="resetDef">
    <use xlink:href="#rim2" fill="#404040"><set attributeName="fill" to="#808080" begin="reset.mouseover" end="reset.mouseout"/></use>
  </g>
</defs>
<script type="application/ecmascript">
var viewWidth = 748;
var viewHeight = 563;
var sectionId = 'dynsection-16';
</script>
<script type="application/ecmascript" xlink:href="../../svg.min.js"/>
<svg id="graph" class="graph">
<g id="viewport">
<title>MatVec3f</title>
<!-- Node1 -->
<g id="Node000001" class="node">
<title>Node1</title>
<g id="a_Node000001"><a xlink:title=" ">
<polygon fill="#999999" stroke="#666666" points="739.5,-290.06 681.5,-290.06 681.5,-270.81 739.5,-270.81 739.5,-290.06"/>
<text xml:space="preserve" text-anchor="middle" x="710.5" y="-276.56" font-family="Helvetica,sans-Serif" font-size="10.00">MatVec3f</text>
</a>
</g>
</g>
<!-- Node2 -->
<g id="Node000002" class="node">
<title>Node2</title>
<g id="a_Node000002"><a xlink:href="../../d6/db8/_vbare__nloc_8c.html#abeb59b7a11cbc7ffec9b5bb2759ebbdd" target="_top" xlink:title=" ">
<polygon fill="white" stroke="#666666" points="484.38,-367.06 388.12,-367.06 388.12,-347.81 484.38,-347.81 484.38,-367.06"/>
<text xml:space="preserve" text-anchor="middle" x="436.25" y="-353.56" font-family="Helvetica,sans-Serif" font-size="10.00">add_elphNonLocal</text>
</a>
</g>
</g>
<!-- Node1&#45;&gt;Node2 -->
<g id="edge1_Node000001_Node000002" class="edge">
<title>Node1&#45;&gt;Node2</title>
<g id="a_edge1_Node000001_Node000002"><a xlink:title=" ">
<path fill="none" stroke="#63b8ff" d="M692.94,-298.38C680.97,-310.13 663.74,-324.71 645.5,-332.44 593.53,-354.46 528.15,-358.98 484.65,-359.12"/>
<polygon fill="#63b8ff" stroke="#63b8ff" points="695.14,-301.14 699.62,-291.54 690.13,-296.25 695.14,-301.14"/>
</a>
</g>
</g>
<!-- Node3 -->
<g id="Node000003" class="node">
<title>Node3</title>
<g id="a_Node000003"><a xlink:href="../../d5/dd2/compute__elph__matq_8c.html#ad32ab6f17a3745b7f82151d7f5b927f2" target="_top" xlink:title=" ">
<polygon fill="white" stroke="#666666" points="337.88,-376.06 208.62,-376.06 208.62,-356.81 337.88,-356.81 337.88,-376.06"/>
<text xml:space="preserve" text-anchor="middle" x="273.25" y="-362.56" font-family="Helvetica,sans-Serif" font-size="10.00">compute_and_write_elphq</text>
</a>
</g>
</g>
<!-- Node1&#45;&gt;Node3 -->
<g id="edge14_Node000001_Node000003" class="edge">
<title>Node1&#45;&gt;Node3</title>
<g id="a_edge14_Node000001_Node000003"><a xlink:title=" ">
<path fill="none" stroke="#63b8ff" d="M670.34,-293.78C662.2,-296.24 653.62,-298.61 645.5,-300.44 527.38,-327.03 494.3,-313.84 375.75,-338.44 352.3,-343.3 326.27,-350.52 306.45,-356.41"/>
<polygon fill="#63b8ff" stroke="#63b8ff" points="671.16,-297.19 679.65,-290.86 669.06,-290.51 671.16,-297.19"/>
</a>
</g>
</g>
<!-- Node6 -->
<g id="Node000006" class="node">
<title>Node6</title>
<g id="a_Node000006"><a xlink:href="../../db/d44/dyn__long__range_8c.html#a5c9bf2378b293980114e987a84c9df49" target="_top" xlink:title=" ">
<polygon fill="white" stroke="#666666" points="496.75,-215.69 375.75,-215.69 375.75,-185.19 496.75,-185.19 496.75,-215.69"/>
<text xml:space="preserve" text-anchor="start" x="383.75" y="-202.19" font-family="Helvetica,sans-Serif" font-size="10.00">add_ph_dyn_long_range</text>
<text xml:space="preserve" text-anchor="middle" x="436.25" y="-190.94" font-family="Helvetica,sans-Serif" font-size="10.00">_internal</text>
</a>
</g>
</g>
<!-- Node1&#45;&gt;Node6 -->
<g id="edge5_Node000001_Node000006" class="edge">
<title>Node1&#45;&gt;Node6</title>
<g id="a_edge5_Node000001_Node000006"><a xlink:title=" ">
<path fill="none" stroke="#63b8ff" d="M694.46,-261.98C682.63,-248.86 664.94,-232.09 645.5,-223.44 598.64,-202.58 540.23,-197.72 497.2,-197.57"/>
<polygon fill="#63b8ff" stroke="#63b8ff" points="691.5,-263.9 700.68,-269.19 696.8,-259.33 691.5,-263.9"/>
</a>
</g>
</g>
<!-- Node8 -->
<g id="Node000008" class="node">
<title>Node8</title>
<g id="a_Node000008"><a xlink:href="../../da/dc2/interpolation__driver_8c.html#aecc42ae41d168b486807b337fcf5b3de" target="_top" xlink:title=" ">
<polygon fill="white" stroke="#666666" points="170.75,-209.06 73,-209.06 73,-189.81 170.75,-189.81 170.75,-209.06"/>
<text xml:space="preserve" text-anchor="middle" x="121.88" y="-195.56" font-family="Helvetica,sans-Serif" font-size="10.00">interpolation_driver</text>
</a>
</g>
</g>
<!-- Node1&#45;&gt;Node8 -->
<g id="edge26_Node000001_Node000008" class="edge">
<title>Node1&#45;&gt;Node8</title>
<g id="a_edge26_Node000001_Node000008"><a xlink:title=" ">
<path fill="none" stroke="#63b8ff" d="M700.27,-260.27C689.96,-240.24 671.26,-210.4 645.5,-195.44 560.89,-146.29 302.08,-136.39 206.75,-158.44 181.01,-164.39 154.04,-179.39 137.85,-189.49"/>
<polygon fill="#63b8ff" stroke="#63b8ff" points="697.06,-261.68 704.59,-269.14 703.36,-258.61 697.06,-261.68"/>
</a>
</g>
</g>
<!-- Node10 -->
<g id="Node000010" class="node">
<title>Node10</title>
<g id="a_Node000010"><a xlink:href="../../d2/d7a/_b_z__expand_8c.html#a22f62c3ed83f26d7e24bc15cf0013c01" target="_top" xlink:title=" ">
<polygon fill="white" stroke="#666666" points="620.75,-555.06 557.5,-555.06 557.5,-535.81 620.75,-535.81 620.75,-555.06"/>
<text xml:space="preserve" text-anchor="middle" x="589.12" y="-541.56" font-family="Helvetica,sans-Serif" font-size="10.00">bz_expand</text>
</a>
</g>
</g>
<!-- Node1&#45;&gt;Node10 -->
<g id="edge11_Node000001_Node000010" class="edge">
<title>Node1&#45;&gt;Node10</title>
<g id="a_edge11_Node000001_Node000010"><a xlink:title=" ">
<path fill="none" stroke="#63b8ff" d="M710.38,-301.98C711.09,-349.29 705.99,-463.15 645.5,-527.44 639.06,-534.28 629.99,-538.53 621.05,-541.17"/>
<polygon fill="#63b8ff" stroke="#63b8ff" points="713.88,-301.91 710.1,-292.01 706.88,-302.11 713.88,-301.91"/>
</a>
</g>
</g>
<!-- Node12 -->
<g id="Node000012" class="node">
<title>Node12</title>
<g id="a_Node000012"><a xlink:href="../../d1/d94/d_vpot__add__long__range_8c.html#a0923c770a93d2648a5d75b70fbb9c61c" target="_top" xlink:title=" ">
<polygon fill="white" stroke="#666666" points="321.38,-111.06 225.12,-111.06 225.12,-91.81 321.38,-91.81 321.38,-111.06"/>
<text xml:space="preserve" text-anchor="middle" x="273.25" y="-97.56" font-family="Helvetica,sans-Serif" font-size="10.00">dV_add_longrange</text>
</a>
</g>
</g>
<!-- Node1&#45;&gt;Node12 -->
<g id="edge15_Node000001_Node000012" class="edge">
<title>Node1&#45;&gt;Node12</title>
<g id="a_edge15_Node000001_Node000012"><a xlink:title=" ">
<path fill="none" stroke="#63b8ff" d="M706.18,-259.22C700.11,-228.21 684.1,-171.18 645.5,-143.44 594.74,-106.95 409.95,-101.6 321.74,-101.18"/>
<polygon fill="#63b8ff" stroke="#63b8ff" points="702.71,-259.68 707.89,-268.92 709.6,-258.47 702.71,-259.68"/>
</a>
</g>
</g>
<!-- Node13 -->
<g id="Node000013" class="node">
<title>Node13</title>
<g id="a_Node000013"><a xlink:href="../../d9/d90/d_vbare__loc_8c.html#a30f21b6035a8a10369610419e98fbe67" target="_top" xlink:title=" ">
<polygon fill="white" stroke="#666666" points="612.12,-518.06 566.12,-518.06 566.12,-498.81 612.12,-498.81 612.12,-518.06"/>
<text xml:space="preserve" text-anchor="middle" x="589.12" y="-504.56" font-family="Helvetica,sans-Serif" font-size="10.00">dVlocq</text>
</a>
</g>
</g>
<!-- Node1&#45;&gt;Node13 -->
<g id="edge17_Node000001_Node000013" class="edge">
<title>Node1&#45;&gt;Node13</title>
<g id="a_edge17_Node000001_Node000013"><a xlink:title=" ">
<path fill="none" stroke="#63b8ff" d="M708.49,-301.68C705.48,-342.19 693.45,-431.17 645.5,-484.44 636.88,-494.02 623.76,-499.93 612.45,-503.49"/>
<polygon fill="#63b8ff" stroke="#63b8ff" points="711.98,-302.05 709.1,-291.85 704.99,-301.62 711.98,-302.05"/>
</a>
</g>
</g>
<!-- Node14 -->
<g id="Node000014" class="node">
<title>Node14</title>
<g id="a_Node000014"><a xlink:href="../../dd/de7/elec__reps_8c.html#a9ad01d68a7d4f87c39a98bf13778cd64" target="_top" xlink:title=" ">
<polygon fill="white" stroke="#666666" points="477.25,-442.06 395.25,-442.06 395.25,-422.81 477.25,-422.81 477.25,-442.06"/>
<text xml:space="preserve" text-anchor="middle" x="436.25" y="-428.56" font-family="Helvetica,sans-Serif" font-size="10.00">electronic_reps</text>
</a>
</g>
</g>
<!-- Node1&#45;&gt;Node14 -->
<g id="edge19_Node000001_Node000014" class="edge">
<title>Node1&#45;&gt;Node14</title>
<g id="a_edge19_Node000001_Node000014"><a xlink:title=" ">
<path fill="none" stroke="#63b8ff" d="M708.82,-301.55C706.33,-339.16 695.11,-417.03 645.5,-451.44 587.77,-491.47 498.33,-460.13 458.1,-442.44"/>
<polygon fill="#63b8ff" stroke="#63b8ff" points="712.29,-302.14 709.3,-291.97 705.3,-301.79 712.29,-302.14"/>
</a>
</g>
</g>
<!-- Node16 -->
<g id="Node000016" class="node">
<title>Node16</title>
<g id="a_Node000016"><a xlink:href="../../d1/d8e/compute___vbare__loc_8c.html#a5f1d51340a8457749225b05b612e4abe" target="_top" xlink:title=" ">
<polygon fill="white" stroke="#666666" points="464.88,-404.06 407.62,-404.06 407.62,-384.81 464.88,-384.81 464.88,-404.06"/>
<text xml:space="preserve" text-anchor="middle" x="436.25" y="-390.56" font-family="Helvetica,sans-Serif" font-size="10.00">elphLocal</text>
</a>
</g>
</g>
<!-- Node1&#45;&gt;Node16 -->
<g id="edge22_Node000001_Node000016" class="edge">
<title>Node1&#45;&gt;Node16</title>
<g id="a_edge22_Node000001_Node000016"><a xlink:title=" ">
<path fill="none" stroke="#63b8ff" d="M698.73,-300.4C687.81,-318.59 669.18,-344.65 645.5,-358.44 587.96,-391.96 507.33,-396.04 465.27,-395.58"/>
<polygon fill="#63b8ff" stroke="#63b8ff" points="701.71,-302.25 703.62,-291.83 695.63,-298.78 701.71,-302.25"/>
</a>
</g>
</g>
<!-- Node17 -->
<g id="Node000017" class="node">
<title>Node17</title>
<g id="a_Node000017"><a xlink:href="../../db/df2/gen__i_b_z__kpts_8c.html#a6968872044ac5017c5f5f60b7bbe2cc3" target="_top" xlink:title=" ">
<polygon fill="white" stroke="#666666" points="485.12,-35.06 387.38,-35.06 387.38,-15.81 485.12,-15.81 485.12,-35.06"/>
<text xml:space="preserve" text-anchor="middle" x="436.25" y="-21.56" font-family="Helvetica,sans-Serif" font-size="10.00">generate_iBZ_kpts</text>
</a>
</g>
</g>
<!-- Node1&#45;&gt;Node17 -->
<g id="edge24_Node000001_Node000017" class="edge">
<title>Node1&#45;&gt;Node17</title>
<g id="a_edge24_Node000001_Node000017"><a xlink:title=" ">
<path fill="none" stroke="#63b8ff" d="M707.45,-259.09C701.58,-203.12 682.73,-54.48 645.5,-25.44 593.47,15.14 509.79,-2.13 466.03,-15.4"/>
<polygon fill="#63b8ff" stroke="#63b8ff" points="703.95,-259.27 708.43,-268.87 710.91,-258.57 703.95,-259.27"/>
</a>
</g>
</g>
<!-- Node18 -->
<g id="Node000018" class="node">
<title>Node18</title>
<g id="a_Node000018"><a xlink:href="../../d9/def/d_vlong__range__kernel_8c.html#ab6fc4d219e176d7ee3b31281533f20b0" target="_top" xlink:title=" ">
<polygon fill="white" stroke="#666666" points="645.5,-54.06 532.75,-54.06 532.75,-34.81 645.5,-34.81 645.5,-54.06"/>
<text xml:space="preserve" text-anchor="middle" x="589.12" y="-40.56" font-family="Helvetica,sans-Serif" font-size="10.00">long_range_2D_kernel</text>
</a>
</g>
</g>
<!-- Node1&#45;&gt;Node18 -->
<g id="edge27_Node000001_Node000018" class="edge">
<title>Node1&#45;&gt;Node18</title>
<g id="a_edge27_Node000001_Node000018"><a xlink:title=" ">
<path fill="none" stroke="#63b8ff" d="M709.47,-259.1C708.25,-215.97 699.31,-117.81 645.5,-62.44 642.4,-59.25 638.73,-56.62 634.78,-54.46"/>
<polygon fill="#63b8ff" stroke="#63b8ff" points="705.98,-259.15 709.63,-269.1 712.97,-259.04 705.98,-259.15"/>
</a>
</g>
</g>
<!-- Node20 -->
<g id="Node000020" class="node">
<title>Node20</title>
<g id="a_Node000020"><a xlink:href="../../d9/def/d_vlong__range__kernel_8c.html#a13191f35714f8bd3cbfbedc8d37090f9" target="_top" xlink:title=" ">
<polygon fill="white" stroke="#666666" points="645.5,-91.06 532.75,-91.06 532.75,-71.81 645.5,-71.81 645.5,-91.06"/>
<text xml:space="preserve" text-anchor="middle" x="589.12" y="-77.56" font-family="Helvetica,sans-Serif" font-size="10.00">long_range_3D_kernel</text>
</a>
</g>
</g>
<!-- Node1&#45;&gt;Node20 -->
<g id="edge30_Node000001_Node000020" class="edge">
<title>Node1&#45;&gt;Node20</title>
<g id="a_edge30_Node000001_Node000020"><a xlink:title=" ">
<path fill="none" stroke="#63b8ff" d="M707.24,-259.75C702.3,-223.9 687.4,-149.85 645.5,-105.44 639.89,-99.49 632.56,-94.94 625.08,-91.49"/>
<polygon fill="#63b8ff" stroke="#63b8ff" points="703.71,-259.72 708.42,-269.22 710.66,-258.86 703.71,-259.72"/>
</a>
</g>
</g>
<!-- Node21 -->
<g id="Node000021" class="node">
<title>Node21</title>
<g id="a_Node000021"><a xlink:href="../../d7/db8/rotate__dvscf_8c.html#afc7697db9b562c621c6e23a9f849e985" target="_top" xlink:title=" ">
<polygon fill="white" stroke="#666666" points="624.12,-252.06 554.12,-252.06 554.12,-232.81 624.12,-232.81 624.12,-252.06"/>
<text xml:space="preserve" text-anchor="middle" x="589.12" y="-238.56" font-family="Helvetica,sans-Serif" font-size="10.00">rotate_dvscf</text>
</a>
</g>
</g>
<!-- Node1&#45;&gt;Node21 -->
<g id="edge32_Node000001_Node000021" class="edge">
<title>Node1&#45;&gt;Node21</title>
<g id="a_edge32_Node000001_Node000021"><a xlink:title=" ">
<path fill="none" stroke="#63b8ff" d="M670.64,-268.07C654.75,-263.01 636.61,-257.23 621.57,-252.45"/>
<polygon fill="#63b8ff" stroke="#63b8ff" points="669.18,-271.27 679.77,-270.97 671.3,-264.6 669.18,-271.27"/>
</a>
</g>
</g>
<!-- Node22 -->
<g id="Node000022" class="node">
<title>Node22</title>
<g id="a_Node000022"><a xlink:href="../../dc/d55/rotate__eig__vecs_8c.html#a6c1073c89757bc422e6720d8348c426a" target="_top" xlink:title=" ">
<polygon fill="white" stroke="#666666" points="315.75,-311.06 230.75,-311.06 230.75,-291.81 315.75,-291.81 315.75,-311.06"/>
<text xml:space="preserve" text-anchor="middle" x="273.25" y="-297.56" font-family="Helvetica,sans-Serif" font-size="10.00">rotate_eig_vecs</text>
</a>
</g>
</g>
<!-- Node1&#45;&gt;Node22 -->
<g id="edge34_Node000001_Node000022" class="edge">
<title>Node1&#45;&gt;Node22</title>
<g id="a_edge34_Node000001_Node000022"><a xlink:title=" ">
<path fill="none" stroke="#63b8ff" d="M669.97,-282.35C587.93,-286.3 399.86,-295.38 315.97,-299.42"/>
<polygon fill="#63b8ff" stroke="#63b8ff" points="669.95,-285.85 679.77,-281.87 669.61,-278.86 669.95,-285.85"/>
</a>
</g>
</g>
<!-- Node23 -->
<g id="Node000023" class="node">
<title>Node23</title>
<g id="a_Node000023"><a xlink:href="../../d7/dd7/rotate___gvecs_8c.html#a3777530f5d55d899b796fb4e462b512f" target="_top" xlink:title=" ">
<polygon fill="white" stroke="#666666" points="623.75,-442.06 554.5,-442.06 554.5,-422.81 623.75,-422.81 623.75,-442.06"/>
<text xml:space="preserve" text-anchor="middle" x="589.12" y="-428.56" font-family="Helvetica,sans-Serif" font-size="10.00">rotateGvecs</text>
</a>
</g>
</g>
<!-- Node1&#45;&gt;Node23 -->
<g id="edge37_Node000001_Node000023" class="edge">
<title>Node1&#45;&gt;Node23</title>
<g id="a_edge37_Node000001_Node000023"><a xlink:title=" ">
<path fill="none" stroke="#63b8ff" d="M703.95,-301.34C695.59,-329.17 677.25,-378.38 645.5,-408.44 639.26,-414.34 631.34,-418.93 623.45,-422.43"/>
<polygon fill="#63b8ff" stroke="#63b8ff" points="707.25,-302.55 706.61,-291.97 700.51,-300.64 707.25,-302.55"/>
</a>
</g>
</g>
<!-- Node2&#45;&gt;Node3 -->
<g id="edge2_Node000002_Node000003" class="edge">
<title>Node2&#45;&gt;Node3</title>
<g id="a_edge2_Node000002_Node000003"><a xlink:title=" ">
<path fill="none" stroke="#63b8ff" d="M376.64,-360.71C364.19,-361.41 350.99,-362.15 338.35,-362.85"/>
<polygon fill="#63b8ff" stroke="#63b8ff" points="376.52,-364.23 386.3,-360.17 376.12,-357.24 376.52,-364.23"/>
</a>
</g>
</g>
<!-- Node4 -->
<g id="Node000004" class="node">
<title>Node4</title>
<g id="a_Node000004"><a xlink:href="../../da/d2e/elph__driver_8c.html#ad9f405d41cf090d652dbe1307700665f" target="_top" xlink:title=" ">
<polygon fill="white" stroke="#666666" points="153.5,-399.06 90.25,-399.06 90.25,-379.81 153.5,-379.81 153.5,-399.06"/>
<text xml:space="preserve" text-anchor="middle" x="121.88" y="-385.56" font-family="Helvetica,sans-Serif" font-size="10.00">elph_driver</text>
</a>
</g>
</g>
<!-- Node3&#45;&gt;Node4 -->
<g id="edge3_Node000003_Node000004" class="edge">
<title>Node3&#45;&gt;Node4</title>
<g id="a_edge3_Node000003_Node000004"><a xlink:title=" ">
<path fill="none" stroke="#63b8ff" d="M197.34,-377.97C182.01,-380.33 166.69,-382.69 153.96,-384.65"/>
<polygon fill="#63b8ff" stroke="#63b8ff" points="197.62,-381.47 206.97,-376.49 196.56,-374.55 197.62,-381.47"/>
</a>
</g>
</g>
<!-- Node5 -->
<g id="Node000005" class="node">
<title>Node5</title>
<g id="a_Node000005"><a xlink:href="../../d3/dd5/main__elph_c_8c.html#a0ddf1224851353fc92bfbff6f499fa97" target="_top" xlink:title="Main program entry point.">
<polygon fill="white" stroke="#666666" points="37,-268.06 0,-268.06 0,-248.81 37,-248.81 37,-268.06"/>
<text xml:space="preserve" text-anchor="middle" x="18.5" y="-254.56" font-family="Helvetica,sans-Serif" font-size="10.00">main</text>
</a>
</g>
</g>
<!-- Node4&#45;&gt;Node5 -->
<g id="edge4_Node000004_Node000005" class="edge">
<title>Node4&#45;&gt;Node5</title>
<g id="a_edge4_Node000004_Node000005"><a xlink:title=" ">
<path fill="none" stroke="#63b8ff" d="M106.39,-370.72C84.59,-342.55 44.1,-290.22 27.21,-268.4"/>
<polygon fill="#63b8ff" stroke="#63b8ff" points="103.44,-372.63 112.33,-378.39 108.98,-368.34 103.44,-372.63"/>
</a>
</g>
</g>
<!-- Node7 -->
<g id="Node000007" class="node">
<title>Node7</title>
<g id="a_Node000007"><a xlink:href="../../db/d44/dyn__long__range_8c.html#a8f542a339e339996795dd2eafe9ac1de" target="_top" xlink:title=" ">
<polygon fill="white" stroke="#666666" points="333.75,-187.06 212.75,-187.06 212.75,-167.81 333.75,-167.81 333.75,-187.06"/>
<text xml:space="preserve" text-anchor="middle" x="273.25" y="-173.56" font-family="Helvetica,sans-Serif" font-size="10.00">add_ph_dyn_long_range</text>
</a>
</g>
</g>
<!-- Node6&#45;&gt;Node7 -->
<g id="edge6_Node000006_Node000007" class="edge">
<title>Node6&#45;&gt;Node7</title>
<g id="a_edge6_Node000006_Node000007"><a xlink:title=" ">
<path fill="none" stroke="#63b8ff" d="M364.07,-190.27C354.03,-188.83 343.78,-187.37 333.98,-185.97"/>
<polygon fill="#63b8ff" stroke="#63b8ff" points="363.41,-193.71 373.8,-191.66 364.4,-186.78 363.41,-193.71"/>
</a>
</g>
</g>
<!-- Node9 -->
<g id="Node000009" class="node">
<title>Node9</title>
<g id="a_Node000009"><a xlink:href="../../db/d44/dyn__long__range_8c.html#a370223ca23cf3f439f2c4efea9e09c04" target="_top" xlink:title=" ">
<polygon fill="white" stroke="#666666" points="325.12,-235.69 221.38,-235.69 221.38,-205.19 325.12,-205.19 325.12,-235.69"/>
<text xml:space="preserve" text-anchor="start" x="229.38" y="-222.19" font-family="Helvetica,sans-Serif" font-size="10.00">compute_dyn_lr_asr</text>
<text xml:space="preserve" text-anchor="middle" x="273.25" y="-210.94" font-family="Helvetica,sans-Serif" font-size="10.00">_correction</text>
</a>
</g>
</g>
<!-- Node6&#45;&gt;Node9 -->
<g id="edge9_Node000006_Node000009" class="edge">
<title>Node6&#45;&gt;Node9</title>
<g id="a_edge9_Node000006_Node000009"><a xlink:title=" ">
<path fill="none" stroke="#63b8ff" d="M364.03,-209.29C351.06,-210.9 337.78,-212.55 325.53,-214.07"/>
<polygon fill="#63b8ff" stroke="#63b8ff" points="364.31,-212.78 373.8,-208.07 363.44,-205.83 364.31,-212.78"/>
</a>
</g>
</g>
<!-- Node7&#45;&gt;Node8 -->
<g id="edge7_Node000007_Node000008" class="edge">
<title>Node7&#45;&gt;Node8</title>
<g id="a_edge7_Node000007_Node000008"><a xlink:title=" ">
<path fill="none" stroke="#63b8ff" d="M201.25,-187.9C190.94,-189.41 180.55,-190.94 170.84,-192.37"/>
<polygon fill="#63b8ff" stroke="#63b8ff" points="201.47,-191.4 210.86,-186.48 200.45,-184.47 201.47,-191.4"/>
</a>
</g>
</g>
<!-- Node8&#45;&gt;Node5 -->
<g id="edge8_Node000008_Node000005" class="edge">
<title>Node8&#45;&gt;Node5</title>
<g id="a_edge8_Node000008_Node000005"><a xlink:title=" ">
<path fill="none" stroke="#63b8ff" d="M93.97,-215.1C75.84,-225.65 52.46,-239.25 36.78,-248.38"/>
<polygon fill="#63b8ff" stroke="#63b8ff" points="95.49,-218.26 102.37,-210.21 91.97,-212.21 95.49,-218.26"/>
</a>
</g>
</g>
<!-- Node9&#45;&gt;Node8 -->
<g id="edge10_Node000009_Node000008" class="edge">
<title>Node9&#45;&gt;Node8</title>
<g id="a_edge10_Node000009_Node000008"><a xlink:title=" ">
<path fill="none" stroke="#63b8ff" d="M210.02,-211.69C197.02,-209.86 183.51,-207.96 171.11,-206.22"/>
<polygon fill="#63b8ff" stroke="#63b8ff" points="209.37,-215.13 219.76,-213.06 210.35,-208.2 209.37,-215.13"/>
</a>
</g>
</g>
<!-- Node11 -->
<g id="Node000011" class="node">
<title>Node11</title>
<g id="a_Node000011"><a xlink:href="../../da/d77/get__save__data_8c.html#ab497305a989dd1713ba4c2b4d0f95bd0" target="_top" xlink:title=" ">
<polygon fill="white" stroke="#666666" points="339,-540.06 207.5,-540.06 207.5,-520.81 339,-520.81 339,-540.06"/>
<text xml:space="preserve" text-anchor="middle" x="273.25" y="-526.56" font-family="Helvetica,sans-Serif" font-size="10.00">read_and_alloc_save_data</text>
</a>
</g>
</g>
<!-- Node10&#45;&gt;Node11 -->
<g id="edge12_Node000010_Node000011" class="edge">
<title>Node10&#45;&gt;Node11</title>
<g id="a_edge12_Node000010_Node000011"><a xlink:title=" ">
<path fill="none" stroke="#63b8ff" d="M545.83,-543.42C492.84,-540.88 401.46,-536.52 339.48,-533.56"/>
<polygon fill="#63b8ff" stroke="#63b8ff" points="545.5,-546.9 555.66,-543.89 545.84,-539.91 545.5,-546.9"/>
</a>
</g>
</g>
<!-- Node11&#45;&gt;Node4 -->
<g id="edge13_Node000011_Node000004" class="edge">
<title>Node11&#45;&gt;Node4</title>
<g id="a_edge13_Node000011_Node000004"><a xlink:title=" ">
<path fill="none" stroke="#63b8ff" d="M228.86,-515.75C221.08,-512.07 213.36,-507.65 206.75,-502.44 168.58,-472.32 139.07,-420.74 127.82,-399.27"/>
<polygon fill="#63b8ff" stroke="#63b8ff" points="227.45,-518.96 238.02,-519.72 230.23,-512.53 227.45,-518.96"/>
</a>
</g>
</g>
<!-- Node12&#45;&gt;Node8 -->
<g id="edge16_Node000012_Node000008" class="edge">
<title>Node12&#45;&gt;Node8</title>
<g id="a_edge16_Node000012_Node000008"><a xlink:title=" ">
<path fill="none" stroke="#63b8ff" d="M227.23,-115.4C220.17,-118.3 213.11,-121.65 206.75,-125.44 176.05,-143.72 146.15,-173.95 131.76,-189.51"/>
<polygon fill="#63b8ff" stroke="#63b8ff" points="228,-118.86 236.08,-112.01 225.49,-112.32 228,-118.86"/>
</a>
</g>
</g>
<!-- Node13&#45;&gt;Node4 -->
<g id="edge18_Node000013_Node000004" class="edge">
<title>Node13&#45;&gt;Node4</title>
<g id="a_edge18_Node000013_Node000004"><a xlink:title=" ">
<path fill="none" stroke="#63b8ff" d="M554.46,-504.9C486.96,-497.13 330.95,-475.7 206.75,-432.44 182.03,-423.82 155.44,-409.18 138.98,-399.41"/>
<polygon fill="#63b8ff" stroke="#63b8ff" points="553.8,-508.35 564.13,-505.99 554.58,-501.39 553.8,-508.35"/>
</a>
</g>
</g>
<!-- Node15 -->
<g id="Node000015" class="node">
<title>Node15</title>
<g id="a_Node000015"><a xlink:href="../../d5/d9f/compute__dmats_8c.html#aceeb11551c1d6413e6d4b5cae9704493" target="_top" xlink:title=" ">
<polygon fill="white" stroke="#666666" points="339.75,-423.06 206.75,-423.06 206.75,-403.81 339.75,-403.81 339.75,-423.06"/>
<text xml:space="preserve" text-anchor="middle" x="273.25" y="-409.56" font-family="Helvetica,sans-Serif" font-size="10.00">compute_and_write_dmats</text>
</a>
</g>
</g>
<!-- Node14&#45;&gt;Node15 -->
<g id="edge20_Node000014_Node000015" class="edge">
<title>Node14&#45;&gt;Node15</title>
<g id="a_edge20_Node000014_Node000015"><a xlink:title=" ">
<path fill="none" stroke="#63b8ff" d="M383.76,-426.36C369.91,-424.73 354.74,-422.94 340.23,-421.22"/>
<polygon fill="#63b8ff" stroke="#63b8ff" points="383.19,-429.82 393.54,-427.51 384.01,-422.87 383.19,-429.82"/>
</a>
</g>
</g>
<!-- Node15&#45;&gt;Node4 -->
<g id="edge21_Node000015_Node000004" class="edge">
<title>Node15&#45;&gt;Node4</title>
<g id="a_edge21_Node000015_Node000004"><a xlink:title=" ">
<path fill="none" stroke="#63b8ff" d="M198.04,-401.51C182.47,-399.01 166.87,-396.51 153.95,-394.43"/>
<polygon fill="#63b8ff" stroke="#63b8ff" points="197.41,-404.96 207.84,-403.09 198.52,-398.05 197.41,-404.96"/>
</a>
</g>
</g>
<!-- Node16&#45;&gt;Node3 -->
<g id="edge23_Node000016_Node000003" class="edge">
<title>Node16&#45;&gt;Node3</title>
<g id="a_edge23_Node000016_Node000003"><a xlink:title=" ">
<path fill="none" stroke="#63b8ff" d="M395.9,-387.6C376.78,-384.27 353.42,-380.21 332.3,-376.53"/>
<polygon fill="#63b8ff" stroke="#63b8ff" points="395.26,-391.04 405.71,-389.3 396.46,-384.14 395.26,-391.04"/>
</a>
</g>
</g>
<!-- Node17&#45;&gt;Node8 -->
<g id="edge25_Node000017_Node000008" class="edge">
<title>Node17&#45;&gt;Node8</title>
<g id="a_edge25_Node000017_Node000008"><a xlink:title=" ">
<path fill="none" stroke="#63b8ff" d="M375.78,-28.99C326.76,-34.42 257.32,-48.09 206.75,-82.44 165.19,-110.66 137.19,-166.69 127.07,-189.47"/>
<polygon fill="#63b8ff" stroke="#63b8ff" points="376.06,-32.48 385.65,-27.99 375.35,-25.52 376.06,-32.48"/>
</a>
</g>
</g>
<!-- Node19 -->
<g id="Node000019" class="node">
<title>Node19</title>
<g id="a_Node000019"><a xlink:href="../../d9/def/d_vlong__range__kernel_8c.html#a3d05ed4699169237a06a20f305c67c8d" target="_top" xlink:title=" ">
<polygon fill="white" stroke="#666666" points="489.62,-91.06 382.88,-91.06 382.88,-71.81 489.62,-71.81 489.62,-91.06"/>
<text xml:space="preserve" text-anchor="middle" x="436.25" y="-77.56" font-family="Helvetica,sans-Serif" font-size="10.00">dVlong_range_kernel</text>
</a>
</g>
</g>
<!-- Node18&#45;&gt;Node19 -->
<g id="edge28_Node000018_Node000019" class="edge">
<title>Node18&#45;&gt;Node19</title>
<g id="a_edge28_Node000018_Node000019"><a xlink:title=" ">
<path fill="none" stroke="#63b8ff" d="M535.82,-57.26C517.04,-61.87 496.13,-67 478.43,-71.34"/>
<polygon fill="#63b8ff" stroke="#63b8ff" points="536.55,-60.69 545.43,-54.91 534.88,-53.89 536.55,-60.69"/>
</a>
</g>
</g>
<!-- Node19&#45;&gt;Node12 -->
<g id="edge29_Node000019_Node000012" class="edge">
<title>Node19&#45;&gt;Node12</title>
<g id="a_edge29_Node000019_Node000012"><a xlink:title=" ">
<path fill="none" stroke="#63b8ff" d="M371.26,-89.39C354.71,-91.44 337.19,-93.62 321.65,-95.55"/>
<polygon fill="#63b8ff" stroke="#63b8ff" points="371.54,-92.88 381.03,-88.17 370.68,-85.93 371.54,-92.88"/>
</a>
</g>
</g>
<!-- Node20&#45;&gt;Node19 -->
<g id="edge31_Node000020_Node000019" class="edge">
<title>Node20&#45;&gt;Node19</title>
<g id="a_edge31_Node000020_Node000019"><a xlink:title=" ">
<path fill="none" stroke="#63b8ff" d="M521.1,-81.44C510.6,-81.44 499.88,-81.44 489.77,-81.44"/>
<polygon fill="#63b8ff" stroke="#63b8ff" points="520.86,-84.94 530.86,-81.44 520.86,-77.94 520.86,-84.94"/>
</a>
</g>
</g>
<!-- Node21&#45;&gt;Node8 -->
<g id="edge33_Node000021_Node000008" class="edge">
<title>Node21&#45;&gt;Node8</title>
<g id="a_edge33_Node000021_Node000008"><a xlink:title=" ">
<path fill="none" stroke="#63b8ff" d="M542.81,-249.85C470.47,-260.08 325,-274.16 206.75,-244.44 179.99,-237.71 152.45,-220.61 136.53,-209.53"/>
<polygon fill="#63b8ff" stroke="#63b8ff" points="542.89,-253.37 552.28,-248.46 541.87,-246.44 542.89,-253.37"/>
</a>
</g>
</g>
<!-- Node22&#45;&gt;Node4 -->
<g id="edge35_Node000022_Node000004" class="edge">
<title>Node22&#45;&gt;Node4</title>
<g id="a_edge35_Node000022_Node000004"><a xlink:title=" ">
<path fill="none" stroke="#63b8ff" d="M245.5,-317.2C214.86,-335.25 165.58,-364.28 139.81,-379.46"/>
<polygon fill="#63b8ff" stroke="#63b8ff" points="246.97,-320.39 253.81,-312.3 243.42,-314.36 246.97,-320.39"/>
</a>
</g>
</g>
<!-- Node22&#45;&gt;Node8 -->
<g id="edge36_Node000022_Node000008" class="edge">
<title>Node22&#45;&gt;Node8</title>
<g id="a_edge36_Node000022_Node000008"><a xlink:title=" ">
<path fill="none" stroke="#63b8ff" d="M226.2,-287.23C219.47,-284.4 212.78,-281.14 206.75,-277.44 175.22,-258.1 145.23,-225.69 131.19,-209.41"/>
<polygon fill="#63b8ff" stroke="#63b8ff" points="224.73,-290.41 235.31,-290.77 227.26,-283.88 224.73,-290.41"/>
</a>
</g>
</g>
<!-- Node23&#45;&gt;Node14 -->
<g id="edge38_Node000023_Node000014" class="edge">
<title>Node23&#45;&gt;Node14</title>
<g id="a_edge38_Node000023_Node000014"><a xlink:title=" ">
<path fill="none" stroke="#63b8ff" d="M542.86,-432.44C522.15,-432.44 497.79,-432.44 477.69,-432.44"/>
<polygon fill="#63b8ff" stroke="#63b8ff" points="542.75,-435.94 552.75,-432.44 542.75,-428.94 542.75,-435.94"/>
</a>
</g>
</g>
<!-- Node23&#45;&gt;Node16 -->
<g id="edge39_Node000023_Node000016" class="edge">
<title>Node23&#45;&gt;Node16</title>
<g id="a_edge39_Node000023_Node000016"><a xlink:title=" ">
<path fill="none" stroke="#63b8ff" d="M543.39,-421.17C517.94,-414.76 486.87,-406.94 464.94,-401.41"/>
<polygon fill="#63b8ff" stroke="#63b8ff" points="542.25,-424.49 552.8,-423.54 543.96,-417.7 542.25,-424.49"/>
</a>
</g>
</g>
</g>
</svg>

<g id="navigator" transform="translate(0 0)" fill="#404254">
  <rect fill="#f2f5e9" fill-opacity="0.5" stroke="#606060" stroke-width=".5" x="0" y="0" width="60" height="60"/>
  <use id="zoomplus" xlink:href="#zoomPlus" x="17" y="9" onmousedown="handleZoom(evt,'in')"/>
  <use id="zoomminus" xlink:href="#zoomMin" x="42" y="9" onmousedown="handleZoom(evt,'out')"/>
  <use id="reset" xlink:href="#resetDef" x="30" y="36" onmousedown="handleReset()"/>
   <use id="arrowup" xlink:href="#arrowUp" x="0" y="0" onmousedown="handlePan(0,-1)"/>
  <use id="arrowright" xlink:href="#arrowRight" x="0" y="0" onmousedown="handlePan(1,0)"/>
  <use id="arrowdown" xlink:href="#arrowDown" x="0" y="0" onmousedown="handlePan(0,1)"/>
  <use id="arrowleft" xlink:href="#arrowLeft" x="0" y="0" onmousedown="handlePan(-1,0)"/>
</g>
<svg viewBox="0 0 15 15" width="100%" height="30px" preserveAspectRatio="xMaxYMin meet">
 <g id="arrow_out" transform="scale(0.3 0.3)">
  <a xlink:href="numerical__func_8h_adeeb2c0049b8e3663d2d2cc9f7a1cd23_icgraph_org.svg" target="_base">
   <rect id="button" ry="5" rx="5" y="6" x="6" height="38" width="38"
        fill="#f2f5e9" fill-opacity="0.5" stroke="#606060" stroke-width="1.0"/>
   <path id="arrow"
     d="M 11.500037,31.436501 C 11.940474,20.09759 22.043105,11.32322 32.158766,21.979434 L 37.068811,17.246167 C 37.068811,17.246167 37.088388,32 37.088388,32 L 22.160133,31.978069 C 22.160133,31.978069 26.997745,27.140456 26.997745,27.140456 C 18.528582,18.264221 13.291696,25.230495 11.500037,31.436501 z"
     style="fill:#404040;"/>
  </a>
 </g>
</svg>

<style type='text/css'>
<![CDATA[
[data-mouse-over-selected='false'] { opacity: 0.7; }
[data-mouse-over-selected='true']  { opacity: 1.0; }
]]>
</style>
<script type="application/ecmascript"><![CDATA[
document.addEventListener('DOMContentLoaded', (event) => {
  highlightEdges();
  highlightAdjacentNodes();
});
]]></script>
</svg>
