<?xml version="1.0" encoding="UTF-8" standalone="no"?>
<!DOCTYPE svg PUBLIC "-//W3C//DTD SVG 1.1//EN"
 "http://www.w3.org/Graphics/SVG/1.1/DTD/svg11.dtd">
<!-- Generated by graphviz version 14.0.0 (20250921.2048)
 -->
<!-- Title: det3x3 Pages: 1 -->
<svg width="682pt" height="224pt"
 viewBox="0.00 0.00 682.00 224.00" xmlns="http://www.w3.org/2000/svg" xmlns:xlink="http://www.w3.org/1999/xlink">
<g id="graph0" class="graph" transform="scale(1 1) rotate(0) translate(4 219.88)">
<title>det3x3</title>
<!-- Node1 -->
<g id="Node000001" class="node">
<title>Node1</title>
<g id="a_Node000001"><a xlink:title=" ">
<polygon fill="#999999" stroke="#666666" points="674.25,-149.25 629,-149.25 629,-130 674.25,-130 674.25,-149.25"/>
<text xml:space="preserve" text-anchor="middle" x="651.62" y="-135.75" font-family="Helvetica,sans-Serif" font-size="10.00">det3x3</text>
</a>
</g>
</g>
<!-- Node2 -->
<g id="Node000002" class="node">
<title>Node2</title>
<g id="a_Node000002"><a xlink:href="../../da/d77/get__save__data_8c.html#ab497305a989dd1713ba4c2b4d0f95bd0" target="_top" xlink:title=" ">
<polygon fill="white" stroke="#666666" points="472.75,-167.25 341.25,-167.25 341.25,-148 472.75,-148 472.75,-167.25"/>
<text xml:space="preserve" text-anchor="middle" x="407" y="-153.75" font-family="Helvetica,sans-Serif" font-size="10.00">read_and_alloc_save_data</text>
</a>
</g>
</g>
<!-- Node1&#45;&gt;Node2 -->
<g id="edge1_Node000001_Node000002" class="edge">
<title>Node1&#45;&gt;Node2</title>
<g id="a_edge1_Node000001_Node000002"><a xlink:title=" ">
<path fill="none" stroke="#63b8ff" d="M617.55,-142.08C580.58,-144.82 519.81,-149.33 473.21,-152.79"/>
<polygon fill="#63b8ff" stroke="#63b8ff" points="617.44,-145.6 627.16,-141.37 616.92,-138.62 617.44,-145.6"/>
</a>
</g>
</g>
<!-- Node5 -->
<g id="Node000005" class="node">
<title>Node5</title>
<g id="a_Node000005"><a xlink:href="../../de/d2d/numerical__func_8c.html#aae57dcc2036d6002edd49bf275fd11b6" target="_top" xlink:title=" ">
<polygon fill="white" stroke="#666666" points="593,-187.25 508.75,-187.25 508.75,-168 593,-168 593,-187.25"/>
<text xml:space="preserve" text-anchor="middle" x="550.88" y="-173.75" font-family="Helvetica,sans-Serif" font-size="10.00">reciprocal_vecs</text>
</a>
</g>
</g>
<!-- Node1&#45;&gt;Node5 -->
<g id="edge4_Node000001_Node000005" class="edge">
<title>Node1&#45;&gt;Node5</title>
<g id="a_edge4_Node000001_Node000005"><a xlink:title=" ">
<path fill="none" stroke="#63b8ff" d="M618.25,-152.08C605.17,-157.11 590.29,-162.84 577.93,-167.6"/>
<polygon fill="#63b8ff" stroke="#63b8ff" points="619.22,-155.46 627.3,-148.6 616.71,-148.93 619.22,-155.46"/>
</a>
</g>
</g>
<!-- Node8 -->
<g id="Node000008" class="node">
<title>Node8</title>
<g id="a_Node000008"><a xlink:href="../../dc/d77/su2mat_8c.html#a54f9aa61f40686918a52909936a101af" target="_top" xlink:title=" ">
<polygon fill="white" stroke="#666666" points="576.88,-93.25 524.88,-93.25 524.88,-74 576.88,-74 576.88,-93.25"/>
<text xml:space="preserve" text-anchor="middle" x="550.88" y="-79.75" font-family="Helvetica,sans-Serif" font-size="10.00">SU2mat</text>
</a>
</g>
</g>
<!-- Node1&#45;&gt;Node8 -->
<g id="edge9_Node000001_Node000008" class="edge">
<title>Node1&#45;&gt;Node8</title>
<g id="a_edge9_Node000001_Node000008"><a xlink:title=" ">
<path fill="none" stroke="#63b8ff" d="M623.01,-123.96C605.95,-114.29 584.56,-102.16 569.71,-93.74"/>
<polygon fill="#63b8ff" stroke="#63b8ff" points="621.23,-126.98 631.65,-128.87 624.68,-120.89 621.23,-126.98"/>
</a>
</g>
</g>
<!-- Node3 -->
<g id="Node000003" class="node">
<title>Node3</title>
<g id="a_Node000003"><a xlink:href="../../da/d2e/elph__driver_8c.html#ad9f405d41cf090d652dbe1307700665f" target="_top" xlink:title=" ">
<polygon fill="white" stroke="#666666" points="136.25,-112.25 73,-112.25 73,-93 136.25,-93 136.25,-112.25"/>
<text xml:space="preserve" text-anchor="middle" x="104.62" y="-98.75" font-family="Helvetica,sans-Serif" font-size="10.00">elph_driver</text>
</a>
</g>
</g>
<!-- Node2&#45;&gt;Node3 -->
<g id="edge2_Node000002_Node000003" class="edge">
<title>Node2&#45;&gt;Node3</title>
<g id="a_edge2_Node000002_Node000003"><a xlink:title=" ">
<path fill="none" stroke="#63b8ff" d="M339.85,-145.51C276.63,-133.94 184.11,-117 136.48,-108.27"/>
<polygon fill="#63b8ff" stroke="#63b8ff" points="338.95,-148.91 349.42,-147.26 340.21,-142.02 338.95,-148.91"/>
</a>
</g>
</g>
<!-- Node4 -->
<g id="Node000004" class="node">
<title>Node4</title>
<g id="a_Node000004"><a xlink:href="../../d3/dd5/main__elph_c_8c.html#a0ddf1224851353fc92bfbff6f499fa97" target="_top" xlink:title="Main program entry point.">
<polygon fill="white" stroke="#666666" points="37,-131.25 0,-131.25 0,-112 37,-112 37,-131.25"/>
<text xml:space="preserve" text-anchor="middle" x="18.5" y="-117.75" font-family="Helvetica,sans-Serif" font-size="10.00">main</text>
</a>
</g>
</g>
<!-- Node3&#45;&gt;Node4 -->
<g id="edge3_Node000003_Node000004" class="edge">
<title>Node3&#45;&gt;Node4</title>
<g id="a_edge3_Node000003_Node000004"><a xlink:title=" ">
<path fill="none" stroke="#63b8ff" d="M61.56,-112.13C52.94,-114.07 44.31,-116.02 37.14,-117.64"/>
<polygon fill="#63b8ff" stroke="#63b8ff" points="62.32,-115.54 71.3,-109.93 60.78,-108.71 62.32,-115.54"/>
</a>
</g>
</g>
<!-- Node5&#45;&gt;Node2 -->
<g id="edge8_Node000005_Node000002" class="edge">
<title>Node5&#45;&gt;Node2</title>
<g id="a_edge8_Node000005_Node000002"><a xlink:title=" ">
<path fill="none" stroke="#63b8ff" d="M497.26,-170.21C489.43,-169.1 481.28,-167.96 473.23,-166.82"/>
<polygon fill="#63b8ff" stroke="#63b8ff" points="496.57,-173.64 506.96,-171.58 497.55,-166.71 496.57,-173.64"/>
</a>
</g>
</g>
<!-- Node6 -->
<g id="Node000006" class="node">
<title>Node6</title>
<g id="a_Node000006"><a xlink:href="../../d2/d5f/wigner__seitz_8c.html#a065617971e0c965c1cd8024894403332" target="_top" xlink:title=" ">
<polygon fill="white" stroke="#666666" points="455.12,-215.88 358.88,-215.88 358.88,-185.38 455.12,-185.38 455.12,-215.88"/>
<text xml:space="preserve" text-anchor="start" x="366.88" y="-202.38" font-family="Helvetica,sans-Serif" font-size="10.00">build_wigner_seitz</text>
<text xml:space="preserve" text-anchor="middle" x="407" y="-191.12" font-family="Helvetica,sans-Serif" font-size="10.00">_vectors</text>
</a>
</g>
</g>
<!-- Node5&#45;&gt;Node6 -->
<g id="edge5_Node000005_Node000006" class="edge">
<title>Node5&#45;&gt;Node6</title>
<g id="a_edge5_Node000005_Node000006"><a xlink:title=" ">
<path fill="none" stroke="#63b8ff" d="M497.23,-186.16C483.54,-188.38 468.87,-190.76 455.46,-192.93"/>
<polygon fill="#63b8ff" stroke="#63b8ff" points="497.65,-189.64 506.96,-184.58 496.53,-182.73 497.65,-189.64"/>
</a>
</g>
</g>
<!-- Node7 -->
<g id="Node000007" class="node">
<title>Node7</title>
<g id="a_Node000007"><a xlink:href="../../da/dc2/interpolation__driver_8c.html#aecc42ae41d168b486807b337fcf5b3de" target="_top" xlink:title=" ">
<polygon fill="white" stroke="#666666" points="287.62,-169.25 189.88,-169.25 189.88,-150 287.62,-150 287.62,-169.25"/>
<text xml:space="preserve" text-anchor="middle" x="238.75" y="-155.75" font-family="Helvetica,sans-Serif" font-size="10.00">interpolation_driver</text>
</a>
</g>
</g>
<!-- Node6&#45;&gt;Node7 -->
<g id="edge6_Node000006_Node000007" class="edge">
<title>Node6&#45;&gt;Node7</title>
<g id="a_edge6_Node000006_Node000007"><a xlink:title=" ">
<path fill="none" stroke="#63b8ff" d="M347.81,-186.28C325.62,-180.8 300.81,-174.68 280.57,-169.69"/>
<polygon fill="#63b8ff" stroke="#63b8ff" points="346.79,-189.63 357.33,-188.62 348.46,-182.83 346.79,-189.63"/>
</a>
</g>
</g>
<!-- Node7&#45;&gt;Node4 -->
<g id="edge7_Node000007_Node000004" class="edge">
<title>Node7&#45;&gt;Node4</title>
<g id="a_edge7_Node000007_Node000004"><a xlink:title=" ">
<path fill="none" stroke="#63b8ff" d="M178.52,-149.31C131.13,-141.06 67.74,-130.02 37.29,-124.72"/>
<polygon fill="#63b8ff" stroke="#63b8ff" points="177.64,-152.71 188.09,-150.98 178.84,-145.82 177.64,-152.71"/>
</a>
</g>
</g>
<!-- Node9 -->
<g id="Node000009" class="node">
<title>Node9</title>
<g id="a_Node000009"><a xlink:href="../../d6/db8/_vbare__nloc_8c.html#abeb59b7a11cbc7ffec9b5bb2759ebbdd" target="_top" xlink:title=" ">
<polygon fill="white" stroke="#666666" points="455.12,-19.25 358.88,-19.25 358.88,0 455.12,0 455.12,-19.25"/>
<text xml:space="preserve" text-anchor="middle" x="407" y="-5.75" font-family="Helvetica,sans-Serif" font-size="10.00">add_elphNonLocal</text>
</a>
</g>
</g>
<!-- Node8&#45;&gt;Node9 -->
<g id="edge10_Node000008_Node000009" class="edge">
<title>Node8&#45;&gt;Node9</title>
<g id="a_edge10_Node000008_Node000009"><a xlink:title=" ">
<path fill="none" stroke="#63b8ff" d="M530.43,-66.47C515.55,-54.12 494.02,-37.89 472.75,-27.62 466.34,-24.53 459.31,-21.89 452.32,-19.66"/>
<polygon fill="#63b8ff" stroke="#63b8ff" points="528.15,-69.12 538.03,-72.94 532.69,-63.79 528.15,-69.12"/>
</a>
</g>
</g>
<!-- Node11 -->
<g id="Node000011" class="node">
<title>Node11</title>
<g id="a_Node000011"><a xlink:href="../../dd/de7/elec__reps_8c.html#a9ad01d68a7d4f87c39a98bf13778cd64" target="_top" xlink:title=" ">
<polygon fill="white" stroke="#666666" points="448,-93.25 366,-93.25 366,-74 448,-74 448,-93.25"/>
<text xml:space="preserve" text-anchor="middle" x="407" y="-79.75" font-family="Helvetica,sans-Serif" font-size="10.00">electronic_reps</text>
</a>
</g>
</g>
<!-- Node8&#45;&gt;Node11 -->
<g id="edge13_Node000008_Node000011" class="edge">
<title>Node8&#45;&gt;Node11</title>
<g id="a_edge13_Node000008_Node000011"><a xlink:title=" ">
<path fill="none" stroke="#63b8ff" d="M513.15,-83.62C493.32,-83.62 468.81,-83.62 448.44,-83.62"/>
<polygon fill="#63b8ff" stroke="#63b8ff" points="513,-87.13 523,-83.63 513,-80.13 513,-87.13"/>
</a>
</g>
</g>
<!-- Node13 -->
<g id="Node000013" class="node">
<title>Node13</title>
<g id="a_Node000013"><a xlink:href="../../d1/d8e/compute___vbare__loc_8c.html#a5f1d51340a8457749225b05b612e4abe" target="_top" xlink:title=" ">
<polygon fill="white" stroke="#666666" points="435.62,-56.25 378.38,-56.25 378.38,-37 435.62,-37 435.62,-56.25"/>
<text xml:space="preserve" text-anchor="middle" x="407" y="-42.75" font-family="Helvetica,sans-Serif" font-size="10.00">elphLocal</text>
</a>
</g>
</g>
<!-- Node8&#45;&gt;Node13 -->
<g id="edge16_Node000008_Node000013" class="edge">
<title>Node8&#45;&gt;Node13</title>
<g id="a_edge16_Node000008_Node000013"><a xlink:title=" ">
<path fill="none" stroke="#63b8ff" d="M513.65,-74.18C489.53,-67.89 458.3,-59.74 436.06,-53.94"/>
<polygon fill="#63b8ff" stroke="#63b8ff" points="512.49,-77.49 523.05,-76.63 514.25,-70.72 512.49,-77.49"/>
</a>
</g>
</g>
<!-- Node14 -->
<g id="Node000014" class="node">
<title>Node14</title>
<g id="a_Node000014"><a xlink:href="../../d7/db8/rotate__dvscf_8c.html#afc7697db9b562c621c6e23a9f849e985" target="_top" xlink:title=" ">
<polygon fill="white" stroke="#666666" points="442,-130.25 372,-130.25 372,-111 442,-111 442,-130.25"/>
<text xml:space="preserve" text-anchor="middle" x="407" y="-116.75" font-family="Helvetica,sans-Serif" font-size="10.00">rotate_dvscf</text>
</a>
</g>
</g>
<!-- Node8&#45;&gt;Node14 -->
<g id="edge18_Node000008_Node000014" class="edge">
<title>Node8&#45;&gt;Node14</title>
<g id="a_edge18_Node000008_Node000014"><a xlink:title=" ">
<path fill="none" stroke="#63b8ff" d="M513.66,-93.07C491.78,-98.78 464.04,-106.01 442.47,-111.63"/>
<polygon fill="#63b8ff" stroke="#63b8ff" points="514.25,-96.53 523.05,-90.62 512.49,-89.76 514.25,-96.53"/>
</a>
</g>
</g>
<!-- Node10 -->
<g id="Node000010" class="node">
<title>Node10</title>
<g id="a_Node000010"><a xlink:href="../../d5/dd2/compute__elph__matq_8c.html#ad32ab6f17a3745b7f82151d7f5b927f2" target="_top" xlink:title=" ">
<polygon fill="white" stroke="#666666" points="303.38,-56.25 174.12,-56.25 174.12,-37 303.38,-37 303.38,-56.25"/>
<text xml:space="preserve" text-anchor="middle" x="238.75" y="-42.75" font-family="Helvetica,sans-Serif" font-size="10.00">compute_and_write_elphq</text>
</a>
</g>
</g>
<!-- Node9&#45;&gt;Node10 -->
<g id="edge11_Node000009_Node000010" class="edge">
<title>Node9&#45;&gt;Node10</title>
<g id="a_edge11_Node000009_Node000010"><a xlink:title=" ">
<path fill="none" stroke="#63b8ff" d="M349.53,-22.19C328.54,-26.87 305,-32.1 285.12,-36.53"/>
<polygon fill="#63b8ff" stroke="#63b8ff" points="350.09,-25.65 359.09,-20.06 348.57,-18.82 350.09,-25.65"/>
</a>
</g>
</g>
<!-- Node10&#45;&gt;Node3 -->
<g id="edge12_Node000010_Node000003" class="edge">
<title>Node10&#45;&gt;Node3</title>
<g id="a_edge12_Node000010_Node000003"><a xlink:title=" ">
<path fill="none" stroke="#63b8ff" d="M184.13,-60.16C180.07,-61.55 176.07,-63.04 172.25,-64.62 153.68,-72.33 133.84,-84.17 120.68,-92.58"/>
<polygon fill="#63b8ff" stroke="#63b8ff" points="185.04,-63.55 193.5,-57.18 182.91,-56.88 185.04,-63.55"/>
</a>
</g>
</g>
<!-- Node12 -->
<g id="Node000012" class="node">
<title>Node12</title>
<g id="a_Node000012"><a xlink:href="../../d5/d9f/compute__dmats_8c.html#aceeb11551c1d6413e6d4b5cae9704493" target="_top" xlink:title=" ">
<polygon fill="white" stroke="#666666" points="305.25,-93.25 172.25,-93.25 172.25,-74 305.25,-74 305.25,-93.25"/>
<text xml:space="preserve" text-anchor="middle" x="238.75" y="-79.75" font-family="Helvetica,sans-Serif" font-size="10.00">compute_and_write_dmats</text>
</a>
</g>
</g>
<!-- Node11&#45;&gt;Node12 -->
<g id="edge14_Node000011_Node000012" class="edge">
<title>Node11&#45;&gt;Node12</title>
<g id="a_edge14_Node000011_Node000012"><a xlink:title=" ">
<path fill="none" stroke="#63b8ff" d="M354.33,-83.62C338.9,-83.62 321.77,-83.62 305.56,-83.62"/>
<polygon fill="#63b8ff" stroke="#63b8ff" points="354.24,-87.13 364.24,-83.63 354.24,-80.13 354.24,-87.13"/>
</a>
</g>
</g>
<!-- Node12&#45;&gt;Node3 -->
<g id="edge15_Node000012_Node000003" class="edge">
<title>Node12&#45;&gt;Node3</title>
<g id="a_edge15_Node000012_Node000003"><a xlink:title=" ">
<path fill="none" stroke="#63b8ff" d="M160.75,-94.7C152.21,-95.93 143.92,-97.12 136.48,-98.19"/>
<polygon fill="#63b8ff" stroke="#63b8ff" points="161.18,-98.17 170.58,-93.28 160.18,-91.24 161.18,-98.17"/>
</a>
</g>
</g>
<!-- Node13&#45;&gt;Node10 -->
<g id="edge17_Node000013_Node000010" class="edge">
<title>Node13&#45;&gt;Node10</title>
<g id="a_edge17_Node000013_Node000010"><a xlink:title=" ">
<path fill="none" stroke="#63b8ff" d="M366.76,-46.62C347.93,-46.62 324.89,-46.62 303.62,-46.62"/>
<polygon fill="#63b8ff" stroke="#63b8ff" points="366.66,-50.13 376.66,-46.63 366.66,-43.13 366.66,-50.13"/>
</a>
</g>
</g>
<!-- Node14&#45;&gt;Node7 -->
<g id="edge19_Node000014_Node000007" class="edge">
<title>Node14&#45;&gt;Node7</title>
<g id="a_edge19_Node000014_Node000007"><a xlink:title=" ">
<path fill="none" stroke="#63b8ff" d="M360.49,-131.3C336.24,-136.99 306.59,-143.95 282.73,-149.54"/>
<polygon fill="#63b8ff" stroke="#63b8ff" points="361.14,-134.74 370.08,-129.05 359.54,-127.93 361.14,-134.74"/>
</a>
</g>
</g>
</g>
</svg>
