<?xml version="1.0" encoding="UTF-8" standalone="no"?>
<!DOCTYPE svg PUBLIC "-//W3C//DTD SVG 1.1//EN"
 "http://www.w3.org/Graphics/SVG/1.1/DTD/svg11.dtd">
<!-- Generated by graphviz version 14.0.0 (20250921.2048)
 -->
<!-- Title: reciprocal_vecs Pages: 1 -->
<svg width="467pt" height="76pt"
 viewBox="0.00 0.00 467.00 76.00" xmlns="http://www.w3.org/2000/svg" xmlns:xlink="http://www.w3.org/1999/xlink">
<g id="graph0" class="graph" transform="scale(1 1) rotate(0) translate(4 71.88)">
<title>reciprocal_vecs</title>
<!-- Node1 -->
<g id="Node000001" class="node">
<title>Node1</title>
<g id="a_Node000001"><a xlink:title=" ">
<polygon fill="#999999" stroke="#666666" points="458.5,-40.25 374.25,-40.25 374.25,-21 458.5,-21 458.5,-40.25"/>
<text xml:space="preserve" text-anchor="middle" x="416.38" y="-26.75" font-family="Helvetica,sans-Serif" font-size="10.00">reciprocal_vecs</text>
</a>
</g>
</g>
<!-- Node2 -->
<g id="Node000002" class="node">
<title>Node2</title>
<g id="a_Node000002"><a xlink:href="../../d2/d5f/wigner__seitz_8c.html#a065617971e0c965c1cd8024894403332" target="_top" xlink:title=" ">
<polygon fill="white" stroke="#666666" points="320.62,-67.88 224.38,-67.88 224.38,-37.38 320.62,-37.38 320.62,-67.88"/>
<text xml:space="preserve" text-anchor="start" x="232.38" y="-54.38" font-family="Helvetica,sans-Serif" font-size="10.00">build_wigner_seitz</text>
<text xml:space="preserve" text-anchor="middle" x="272.5" y="-43.12" font-family="Helvetica,sans-Serif" font-size="10.00">_vectors</text>
</a>
</g>
</g>
<!-- Node1&#45;&gt;Node2 -->
<g id="edge1_Node000001_Node000002" class="edge">
<title>Node1&#45;&gt;Node2</title>
<g id="a_edge1_Node000001_Node000002"><a xlink:title=" ">
<path fill="none" stroke="#63b8ff" d="M362.73,-38.79C349.04,-40.91 334.37,-43.19 320.96,-45.27"/>
<polygon fill="#63b8ff" stroke="#63b8ff" points="363.12,-42.27 372.46,-37.28 362.04,-35.35 363.12,-42.27"/>
</a>
</g>
</g>
<!-- Node5 -->
<g id="Node000005" class="node">
<title>Node5</title>
<g id="a_Node000005"><a xlink:href="../../da/d77/get__save__data_8c.html#ab497305a989dd1713ba4c2b4d0f95bd0" target="_top" xlink:title=" ">
<polygon fill="white" stroke="#666666" points="338.25,-19.25 206.75,-19.25 206.75,0 338.25,0 338.25,-19.25"/>
<text xml:space="preserve" text-anchor="middle" x="272.5" y="-5.75" font-family="Helvetica,sans-Serif" font-size="10.00">read_and_alloc_save_data</text>
</a>
</g>
</g>
<!-- Node1&#45;&gt;Node5 -->
<g id="edge4_Node000001_Node000005" class="edge">
<title>Node1&#45;&gt;Node5</title>
<g id="a_edge4_Node000001_Node000005"><a xlink:title=" ">
<path fill="none" stroke="#63b8ff" d="M362.76,-22.84C354.93,-21.68 346.78,-20.47 338.73,-19.28"/>
<polygon fill="#63b8ff" stroke="#63b8ff" points="362.06,-26.27 372.46,-24.27 363.08,-19.35 362.06,-26.27"/>
</a>
</g>
</g>
<!-- Node3 -->
<g id="Node000003" class="node">
<title>Node3</title>
<g id="a_Node000003"><a xlink:href="../../da/dc2/interpolation__driver_8c.html#aecc42ae41d168b486807b337fcf5b3de" target="_top" xlink:title=" ">
<polygon fill="white" stroke="#666666" points="170.75,-60.25 73,-60.25 73,-41 170.75,-41 170.75,-60.25"/>
<text xml:space="preserve" text-anchor="middle" x="121.88" y="-46.75" font-family="Helvetica,sans-Serif" font-size="10.00">interpolation_driver</text>
</a>
</g>
</g>
<!-- Node2&#45;&gt;Node3 -->
<g id="edge2_Node000002_Node000003" class="edge">
<title>Node2&#45;&gt;Node3</title>
<g id="a_edge2_Node000002_Node000003"><a xlink:title=" ">
<path fill="none" stroke="#63b8ff" d="M212.71,-51.83C198.92,-51.65 184.4,-51.45 171.13,-51.27"/>
<polygon fill="#63b8ff" stroke="#63b8ff" points="212.51,-55.33 222.55,-51.97 212.6,-48.33 212.51,-55.33"/>
</a>
</g>
</g>
<!-- Node4 -->
<g id="Node000004" class="node">
<title>Node4</title>
<g id="a_Node000004"><a xlink:href="../../d3/dd5/main__elph_c_8c.html#a0ddf1224851353fc92bfbff6f499fa97" target="_top" xlink:title="Main program entry point.">
<polygon fill="white" stroke="#666666" points="37,-40.25 0,-40.25 0,-21 37,-21 37,-40.25"/>
<text xml:space="preserve" text-anchor="middle" x="18.5" y="-26.75" font-family="Helvetica,sans-Serif" font-size="10.00">main</text>
</a>
</g>
</g>
<!-- Node3&#45;&gt;Node4 -->
<g id="edge3_Node000003_Node000004" class="edge">
<title>Node3&#45;&gt;Node4</title>
<g id="a_edge3_Node000003_Node000004"><a xlink:title=" ">
<path fill="none" stroke="#63b8ff" d="M61.33,-38.88C52.55,-37.15 44.14,-35.49 37.19,-34.11"/>
<polygon fill="#63b8ff" stroke="#63b8ff" points="60.59,-42.3 71.08,-40.8 61.94,-35.43 60.59,-42.3"/>
</a>
</g>
</g>
<!-- Node6 -->
<g id="Node000006" class="node">
<title>Node6</title>
<g id="a_Node000006"><a xlink:href="../../da/d2e/elph__driver_8c.html#ad9f405d41cf090d652dbe1307700665f" target="_top" xlink:title=" ">
<polygon fill="white" stroke="#666666" points="153.5,-22.25 90.25,-22.25 90.25,-3 153.5,-3 153.5,-22.25"/>
<text xml:space="preserve" text-anchor="middle" x="121.88" y="-8.75" font-family="Helvetica,sans-Serif" font-size="10.00">elph_driver</text>
</a>
</g>
</g>
<!-- Node5&#45;&gt;Node6 -->
<g id="edge5_Node000005_Node000006" class="edge">
<title>Node5&#45;&gt;Node6</title>
<g id="a_edge5_Node000005_Node000006"><a xlink:title=" ">
<path fill="none" stroke="#63b8ff" d="M195.13,-11.17C180.5,-11.46 165.97,-11.76 153.82,-12"/>
<polygon fill="#63b8ff" stroke="#63b8ff" points="194.87,-14.67 204.8,-10.97 194.73,-7.67 194.87,-14.67"/>
</a>
</g>
</g>
<!-- Node6&#45;&gt;Node4 -->
<g id="edge6_Node000006_Node000004" class="edge">
<title>Node6&#45;&gt;Node4</title>
<g id="a_edge6_Node000006_Node000004"><a xlink:title=" ">
<path fill="none" stroke="#63b8ff" d="M78.61,-20.13C64.16,-22.69 48.77,-25.43 37.32,-27.46"/>
<polygon fill="#63b8ff" stroke="#63b8ff" points="79.18,-23.58 88.42,-18.39 77.96,-16.69 79.18,-23.58"/>
</a>
</g>
</g>
</g>
</svg>
