<?xml version="1.0" encoding="UTF-8" standalone="no"?>
<!DOCTYPE svg PUBLIC "-//W3C//DTD SVG 1.1//EN"
 "http://www.w3.org/Graphics/SVG/1.1/DTD/svg11.dtd">
<!-- Generated by graphviz version 14.0.0 (20250921.2048)
 -->
<!-- Title: matmul_cmplx Pages: 1 -->
<!--zoomable 374 -->

<svg id="main" version="1.1" xmlns="http://www.w3.org/2000/svg" xmlns:xlink="http://www.w3.org/1999/xlink" xml:space="preserve" onload="init(evt)">

<style type="text/css"><![CDATA[
.node, .edge {opacity: 0.7;}
.node.selected, .edge.selected {opacity: 1;}
.edge:hover path { stroke: red; }
.edge:hover polygon { stroke: red; fill: red; }
]]></style>

<defs>
  <circle id="rim" cx="0" cy="0" r="7"/>
  <circle id="rim2" cx="0" cy="0" r="3.5"/>
  <g id="zoomPlus">
    <use xlink:href="#rim" fill="#404040"><set attributeName="fill" to="#808080" begin="zoomplus.mouseover" end="zoomplus.mouseout"/></use>
    <path d="M-4,0h8M0,-4v8" fill="none" stroke="white" stroke-width="1.5" pointer-events="none"/>
  </g>
  <g id="zoomMin">
    <use xlink:href="#rim" fill="#404040"><set attributeName="fill" to="#808080" begin="zoomminus.mouseover" end="zoomminus.mouseout"/></use>
    <path d="M-4,0h8" fill="none" stroke="white" stroke-width="1.5" pointer-events="none"/>
  </g>
  <g id="arrowUp" transform="translate(30 24)">
    <use xlink:href="#rim"/>
    <path pointer-events="none" fill="none" stroke="white" stroke-width="1.5" d="M0,-3.0v7 M-2.5,-0.5L0,-3.0L2.5,-0.5"/>
  </g>
  <g id="arrowRight" transform="rotate(90) translate(36 -43)">
    <use xlink:href="#rim"/>
    <path pointer-events="none" fill="none" stroke="white" stroke-width="1.5" d="M0,-3.0v7 M-2.5,-0.5L0,-3.0L2.5,-0.5"/>
  </g>
  <g id="arrowDown" transform="rotate(180) translate(-30 -48)">
    <use xlink:href="#rim"/>
    <path pointer-events="none" fill="none" stroke="white" stroke-width="1.5" d="M0,-3.0v7 M-2.5,-0.5L0,-3.0L2.5,-0.5"/>
  </g>
  <g id="arrowLeft" transform="rotate(270) translate(-36 17)">
    <use xlink:href="#rim"/>
    <path pointer-events="none" fill="none" stroke="white" stroke-width="1.5" d="M0,-3.0v7 M-2.5,-0.5L0,-3.0L2.5,-0.5"/>
  </g>
  <g id="resetDef">
    <use xlink:href="#rim2" fill="#404040"><set attributeName="fill" to="#808080" begin="reset.mouseover" end="reset.mouseout"/></use>
  </g>
</defs>
<script type="application/ecmascript">
var viewWidth = 621;
var viewHeight = 374;
var sectionId = 'dynsection-13';
</script>
<script type="application/ecmascript" xlink:href="../../svg.min.js"/>
<svg id="graph" class="graph">
<g id="viewport">
<title>matmul_cmplx</title>
<!-- Node1 -->
<g id="Node000001" class="node">
<title>Node1</title>
<g id="a_Node000001"><a xlink:title=" ">
<polygon fill="#999999" stroke="#666666" points="612.5,-186.25 532.75,-186.25 532.75,-167 612.5,-167 612.5,-186.25"/>
<text xml:space="preserve" text-anchor="middle" x="572.62" y="-172.75" font-family="Helvetica,sans-Serif" font-size="10.00">matmul_cmplx</text>
</a>
</g>
</g>
<!-- Node2 -->
<g id="Node000002" class="node">
<title>Node2</title>
<g id="a_Node000002"><a xlink:href="../../d6/db8/_vbare__nloc_8c.html#abeb59b7a11cbc7ffec9b5bb2759ebbdd" target="_top" xlink:title=" ">
<polygon fill="white" stroke="#666666" points="484.38,-93.25 388.12,-93.25 388.12,-74 484.38,-74 484.38,-93.25"/>
<text xml:space="preserve" text-anchor="middle" x="436.25" y="-79.75" font-family="Helvetica,sans-Serif" font-size="10.00">add_elphNonLocal</text>
</a>
</g>
</g>
<!-- Node1&#45;&gt;Node2 -->
<g id="edge1_Node000001_Node000002" class="edge">
<title>Node1&#45;&gt;Node2</title>
<g id="a_edge1_Node000001_Node000002"><a xlink:title=" ">
<path fill="none" stroke="#63b8ff" d="M557.19,-157.55C543.4,-140.58 521.15,-116.25 496.75,-101.62 491.57,-98.52 485.8,-95.91 479.96,-93.73"/>
<polygon fill="#63b8ff" stroke="#63b8ff" points="554.41,-159.67 563.34,-165.37 559.91,-155.34 554.41,-159.67"/>
</a>
</g>
</g>
<!-- Node6 -->
<g id="Node000006" class="node">
<title>Node6</title>
<g id="a_Node000006"><a xlink:href="../../db/d44/dyn__long__range_8c.html#a5c9bf2378b293980114e987a84c9df49" target="_top" xlink:title=" ">
<polygon fill="white" stroke="#666666" points="496.75,-291.88 375.75,-291.88 375.75,-261.38 496.75,-261.38 496.75,-291.88"/>
<text xml:space="preserve" text-anchor="start" x="383.75" y="-278.38" font-family="Helvetica,sans-Serif" font-size="10.00">add_ph_dyn_long_range</text>
<text xml:space="preserve" text-anchor="middle" x="436.25" y="-267.12" font-family="Helvetica,sans-Serif" font-size="10.00">_internal</text>
</a>
</g>
</g>
<!-- Node1&#45;&gt;Node6 -->
<g id="edge5_Node000001_Node000006" class="edge">
<title>Node1&#45;&gt;Node6</title>
<g id="a_edge5_Node000001_Node000006"><a xlink:title=" ">
<path fill="none" stroke="#63b8ff" d="M556.92,-195.46C542.94,-212.31 520.58,-236.73 496.75,-252.62 492.12,-255.71 487.02,-258.51 481.83,-261.02"/>
<polygon fill="#63b8ff" stroke="#63b8ff" points="559.61,-197.69 563.17,-187.71 554.16,-193.29 559.61,-197.69"/>
</a>
</g>
</g>
<!-- Node10 -->
<g id="Node000010" class="node">
<title>Node10</title>
<g id="a_Node000010"><a xlink:href="../../d1/d94/d_vpot__add__long__range_8c.html#a0923c770a93d2648a5d75b70fbb9c61c" target="_top" xlink:title=" ">
<polygon fill="white" stroke="#666666" points="321.38,-366.25 225.12,-366.25 225.12,-347 321.38,-347 321.38,-366.25"/>
<text xml:space="preserve" text-anchor="middle" x="273.25" y="-352.75" font-family="Helvetica,sans-Serif" font-size="10.00">dV_add_longrange</text>
</a>
</g>
</g>
<!-- Node1&#45;&gt;Node10 -->
<g id="edge11_Node000001_Node000010" class="edge">
<title>Node1&#45;&gt;Node10</title>
<g id="a_edge11_Node000001_Node000010"><a xlink:title=" ">
<path fill="none" stroke="#63b8ff" d="M567.96,-197.46C560.82,-231.32 541.61,-297.72 496.75,-329.62 445.38,-366.16 369.92,-367.27 321.44,-363.16"/>
<polygon fill="#63b8ff" stroke="#63b8ff" points="571.32,-198.55 569.79,-188.07 564.44,-197.22 571.32,-198.55"/>
</a>
</g>
</g>
<!-- Node11 -->
<g id="Node000011" class="node">
<title>Node11</title>
<g id="a_Node000011"><a xlink:href="../../d9/d90/d_vbare__loc_8c.html#a30f21b6035a8a10369610419e98fbe67" target="_top" xlink:title=" ">
<polygon fill="white" stroke="#666666" points="459.25,-19.25 413.25,-19.25 413.25,0 459.25,0 459.25,-19.25"/>
<text xml:space="preserve" text-anchor="middle" x="436.25" y="-5.75" font-family="Helvetica,sans-Serif" font-size="10.00">dVlocq</text>
</a>
</g>
</g>
<!-- Node1&#45;&gt;Node11 -->
<g id="edge13_Node000001_Node000011" class="edge">
<title>Node1&#45;&gt;Node11</title>
<g id="a_edge13_Node000001_Node000011"><a xlink:title=" ">
<path fill="none" stroke="#63b8ff" d="M566.8,-155.8C558.26,-123.59 537.41,-61.84 496.75,-27.62 486.34,-18.87 471.77,-14.37 459.65,-12.06"/>
<polygon fill="#63b8ff" stroke="#63b8ff" points="563.3,-156.25 569.12,-165.11 570.1,-154.56 563.3,-156.25"/>
</a>
</g>
</g>
<!-- Node12 -->
<g id="Node000012" class="node">
<title>Node12</title>
<g id="a_Node000012"><a xlink:href="../../d9/d66/dvscf__basis__rotation_8c.html#a7c9d8f8e6e444525fce52b867935f86f" target="_top" xlink:title=" ">
<polygon fill="white" stroke="#666666" points="326.62,-329.25 219.88,-329.25 219.88,-310 326.62,-310 326.62,-329.25"/>
<text xml:space="preserve" text-anchor="middle" x="273.25" y="-315.75" font-family="Helvetica,sans-Serif" font-size="10.00">dVscf_change_basis</text>
</a>
</g>
</g>
<!-- Node1&#45;&gt;Node12 -->
<g id="edge15_Node000001_Node000012" class="edge">
<title>Node1&#45;&gt;Node12</title>
<g id="a_edge15_Node000001_Node000012"><a xlink:title=" ">
<path fill="none" stroke="#63b8ff" d="M565.67,-197.32C556.23,-225.99 534.87,-276.92 496.75,-300.62 445.72,-332.36 374.92,-332.63 326.99,-327.91"/>
<polygon fill="#63b8ff" stroke="#63b8ff" points="568.95,-198.58 568.56,-187.99 562.26,-196.51 568.95,-198.58"/>
</a>
</g>
</g>
<!-- Node13 -->
<g id="Node000013" class="node">
<title>Node13</title>
<g id="a_Node000013"><a xlink:href="../../dd/de7/elec__reps_8c.html#a9ad01d68a7d4f87c39a98bf13778cd64" target="_top" xlink:title=" ">
<polygon fill="white" stroke="#666666" points="477.25,-56.25 395.25,-56.25 395.25,-37 477.25,-37 477.25,-56.25"/>
<text xml:space="preserve" text-anchor="middle" x="436.25" y="-42.75" font-family="Helvetica,sans-Serif" font-size="10.00">electronic_reps</text>
</a>
</g>
</g>
<!-- Node1&#45;&gt;Node13 -->
<g id="edge17_Node000001_Node000013" class="edge">
<title>Node1&#45;&gt;Node13</title>
<g id="a_edge17_Node000001_Node000013"><a xlink:title=" ">
<path fill="none" stroke="#63b8ff" d="M563.13,-156.01C551.71,-130.8 529.04,-88.54 496.75,-64.62 491.03,-60.38 484.3,-57.13 477.47,-54.65"/>
<polygon fill="#63b8ff" stroke="#63b8ff" points="559.91,-157.39 567.1,-165.17 566.34,-154.61 559.91,-157.39"/>
</a>
</g>
</g>
<!-- Node15 -->
<g id="Node000015" class="node">
<title>Node15</title>
<g id="a_Node000015"><a xlink:href="../../dd/d37/elphq__expand_8c.html#a0ae24af3ba2534ff808508356e40f869" target="_top" xlink:title=" ">
<polygon fill="white" stroke="#666666" points="473.5,-167.25 399,-167.25 399,-148 473.5,-148 473.5,-167.25"/>
<text xml:space="preserve" text-anchor="middle" x="436.25" y="-153.75" font-family="Helvetica,sans-Serif" font-size="10.00">elph_q_rotate</text>
</a>
</g>
</g>
<!-- Node1&#45;&gt;Node15 -->
<g id="edge20_Node000001_Node000015" class="edge">
<title>Node1&#45;&gt;Node15</title>
<g id="a_edge20_Node000001_Node000015"><a xlink:title=" ">
<path fill="none" stroke="#63b8ff" d="M521.26,-169.5C505.57,-167.28 488.57,-164.88 473.99,-162.82"/>
<polygon fill="#63b8ff" stroke="#63b8ff" points="520.51,-172.93 530.9,-170.87 521.49,-166 520.51,-172.93"/>
</a>
</g>
</g>
<!-- Node16 -->
<g id="Node000016" class="node">
<title>Node16</title>
<g id="a_Node000016"><a xlink:href="../../d1/d8e/compute___vbare__loc_8c.html#a5f1d51340a8457749225b05b612e4abe" target="_top" xlink:title=" ">
<polygon fill="white" stroke="#666666" points="464.88,-130.25 407.62,-130.25 407.62,-111 464.88,-111 464.88,-130.25"/>
<text xml:space="preserve" text-anchor="middle" x="436.25" y="-116.75" font-family="Helvetica,sans-Serif" font-size="10.00">elphLocal</text>
</a>
</g>
</g>
<!-- Node1&#45;&gt;Node16 -->
<g id="edge22_Node000001_Node000016" class="edge">
<title>Node1&#45;&gt;Node16</title>
<g id="a_edge22_Node000001_Node000016"><a xlink:title=" ">
<path fill="none" stroke="#63b8ff" d="M544.26,-161.28C530.31,-153.83 512.92,-145.12 496.75,-138.62 486.63,-134.56 475.24,-130.91 465.15,-127.96"/>
<polygon fill="#63b8ff" stroke="#63b8ff" points="542.39,-164.24 552.85,-165.94 545.74,-158.09 542.39,-164.24"/>
</a>
</g>
</g>
<!-- Node17 -->
<g id="Node000017" class="node">
<title>Node17</title>
<g id="a_Node000017"><a xlink:href="../../d0/dc3/pol__vecs__to__dyn_8c.html#a1bd35bfc68ff331812783d43764d9bf7" target="_top" xlink:title=" ">
<polygon fill="white" stroke="#666666" points="481,-243.25 391.5,-243.25 391.5,-224 481,-224 481,-243.25"/>
<text xml:space="preserve" text-anchor="middle" x="436.25" y="-229.75" font-family="Helvetica,sans-Serif" font-size="10.00">pol_vecs_to_dyn</text>
</a>
</g>
</g>
<!-- Node1&#45;&gt;Node17 -->
<g id="edge24_Node000001_Node000017" class="edge">
<title>Node1&#45;&gt;Node17</title>
<g id="a_edge24_Node000001_Node000017"><a xlink:title=" ">
<path fill="none" stroke="#63b8ff" d="M539.01,-191.27C525.92,-197.08 510.66,-203.76 496.75,-209.62 485.67,-214.3 473.35,-219.3 462.8,-223.52"/>
<polygon fill="#63b8ff" stroke="#63b8ff" points="540.33,-194.51 548.04,-187.25 537.48,-188.12 540.33,-194.51"/>
</a>
</g>
</g>
<!-- Node18 -->
<g id="Node000018" class="node">
<title>Node18</title>
<g id="a_Node000018"><a xlink:href="../../dc/d55/rotate__eig__vecs_8c.html#a6c1073c89757bc422e6720d8348c426a" target="_top" xlink:title=" ">
<polygon fill="white" stroke="#666666" points="315.75,-168.25 230.75,-168.25 230.75,-149 315.75,-149 315.75,-168.25"/>
<text xml:space="preserve" text-anchor="middle" x="273.25" y="-154.75" font-family="Helvetica,sans-Serif" font-size="10.00">rotate_eig_vecs</text>
</a>
</g>
</g>
<!-- Node1&#45;&gt;Node18 -->
<g id="edge26_Node000001_Node000018" class="edge">
<title>Node1&#45;&gt;Node18</title>
<g id="a_edge26_Node000001_Node000018"><a xlink:title=" ">
<path fill="none" stroke="#63b8ff" d="M521.04,-179.05C481.43,-180.37 424.97,-180.96 375.75,-176.62 355.96,-174.88 334.25,-171.27 316.01,-167.73"/>
<polygon fill="#63b8ff" stroke="#63b8ff" points="521.14,-182.55 531,-178.69 520.88,-175.56 521.14,-182.55"/>
</a>
</g>
</g>
<!-- Node3 -->
<g id="Node000003" class="node">
<title>Node3</title>
<g id="a_Node000003"><a xlink:href="../../d5/dd2/compute__elph__matq_8c.html#ad32ab6f17a3745b7f82151d7f5b927f2" target="_top" xlink:title=" ">
<polygon fill="white" stroke="#666666" points="337.88,-130.25 208.62,-130.25 208.62,-111 337.88,-111 337.88,-130.25"/>
<text xml:space="preserve" text-anchor="middle" x="273.25" y="-116.75" font-family="Helvetica,sans-Serif" font-size="10.00">compute_and_write_elphq</text>
</a>
</g>
</g>
<!-- Node2&#45;&gt;Node3 -->
<g id="edge2_Node000002_Node000003" class="edge">
<title>Node2&#45;&gt;Node3</title>
<g id="a_edge2_Node000002_Node000003"><a xlink:title=" ">
<path fill="none" stroke="#63b8ff" d="M380.28,-96.26C360.02,-100.91 337.35,-106.12 318.19,-110.53"/>
<polygon fill="#63b8ff" stroke="#63b8ff" points="380.82,-99.73 389.78,-94.07 379.25,-92.9 380.82,-99.73"/>
</a>
</g>
</g>
<!-- Node4 -->
<g id="Node000004" class="node">
<title>Node4</title>
<g id="a_Node000004"><a xlink:href="../../da/d2e/elph__driver_8c.html#ad9f405d41cf090d652dbe1307700665f" target="_top" xlink:title=" ">
<polygon fill="white" stroke="#666666" points="153.5,-130.25 90.25,-130.25 90.25,-111 153.5,-111 153.5,-130.25"/>
<text xml:space="preserve" text-anchor="middle" x="121.88" y="-116.75" font-family="Helvetica,sans-Serif" font-size="10.00">elph_driver</text>
</a>
</g>
</g>
<!-- Node3&#45;&gt;Node4 -->
<g id="edge3_Node000003_Node000004" class="edge">
<title>Node3&#45;&gt;Node4</title>
<g id="a_edge3_Node000003_Node000004"><a xlink:title=" ">
<path fill="none" stroke="#63b8ff" d="M197.34,-120.62C182.01,-120.62 166.69,-120.62 153.96,-120.62"/>
<polygon fill="#63b8ff" stroke="#63b8ff" points="196.95,-124.13 206.95,-120.63 196.95,-117.13 196.95,-124.13"/>
</a>
</g>
</g>
<!-- Node5 -->
<g id="Node000005" class="node">
<title>Node5</title>
<g id="a_Node000005"><a xlink:href="../../d3/dd5/main__elph_c_8c.html#a0ddf1224851353fc92bfbff6f499fa97" target="_top" xlink:title="Main program entry point.">
<polygon fill="white" stroke="#666666" points="37,-189.25 0,-189.25 0,-170 37,-170 37,-189.25"/>
<text xml:space="preserve" text-anchor="middle" x="18.5" y="-175.75" font-family="Helvetica,sans-Serif" font-size="10.00">main</text>
</a>
</g>
</g>
<!-- Node4&#45;&gt;Node5 -->
<g id="edge4_Node000004_Node000005" class="edge">
<title>Node4&#45;&gt;Node5</title>
<g id="a_edge4_Node000004_Node000005"><a xlink:title=" ">
<path fill="none" stroke="#63b8ff" d="M93.97,-136.28C75.84,-146.83 52.46,-160.44 36.78,-169.57"/>
<polygon fill="#63b8ff" stroke="#63b8ff" points="95.49,-139.45 102.37,-131.39 91.97,-133.4 95.49,-139.45"/>
</a>
</g>
</g>
<!-- Node7 -->
<g id="Node000007" class="node">
<title>Node7</title>
<g id="a_Node000007"><a xlink:href="../../db/d44/dyn__long__range_8c.html#a8f542a339e339996795dd2eafe9ac1de" target="_top" xlink:title=" ">
<polygon fill="white" stroke="#666666" points="333.75,-292.25 212.75,-292.25 212.75,-273 333.75,-273 333.75,-292.25"/>
<text xml:space="preserve" text-anchor="middle" x="273.25" y="-278.75" font-family="Helvetica,sans-Serif" font-size="10.00">add_ph_dyn_long_range</text>
</a>
</g>
</g>
<!-- Node6&#45;&gt;Node7 -->
<g id="edge6_Node000006_Node000007" class="edge">
<title>Node6&#45;&gt;Node7</title>
<g id="a_edge6_Node000006_Node000007"><a xlink:title=" ">
<path fill="none" stroke="#63b8ff" d="M364.07,-279.28C354.03,-279.65 343.78,-280.03 333.98,-280.4"/>
<polygon fill="#63b8ff" stroke="#63b8ff" points="363.92,-282.79 373.79,-278.92 363.66,-275.79 363.92,-282.79"/>
</a>
</g>
</g>
<!-- Node9 -->
<g id="Node000009" class="node">
<title>Node9</title>
<g id="a_Node000009"><a xlink:href="../../db/d44/dyn__long__range_8c.html#a370223ca23cf3f439f2c4efea9e09c04" target="_top" xlink:title=" ">
<polygon fill="white" stroke="#666666" points="325.12,-254.88 221.38,-254.88 221.38,-224.38 325.12,-224.38 325.12,-254.88"/>
<text xml:space="preserve" text-anchor="start" x="229.38" y="-241.38" font-family="Helvetica,sans-Serif" font-size="10.00">compute_dyn_lr_asr</text>
<text xml:space="preserve" text-anchor="middle" x="273.25" y="-230.12" font-family="Helvetica,sans-Serif" font-size="10.00">_correction</text>
</a>
</g>
</g>
<!-- Node6&#45;&gt;Node9 -->
<g id="edge9_Node000006_Node000009" class="edge">
<title>Node6&#45;&gt;Node9</title>
<g id="a_edge9_Node000006_Node000009"><a xlink:title=" ">
<path fill="none" stroke="#63b8ff" d="M364.42,-260.35C351.33,-257.34 337.9,-254.25 325.53,-251.41"/>
<polygon fill="#63b8ff" stroke="#63b8ff" points="363.29,-263.68 373.82,-262.51 364.86,-256.86 363.29,-263.68"/>
</a>
</g>
</g>
<!-- Node8 -->
<g id="Node000008" class="node">
<title>Node8</title>
<g id="a_Node000008"><a xlink:href="../../da/dc2/interpolation__driver_8c.html#aecc42ae41d168b486807b337fcf5b3de" target="_top" xlink:title=" ">
<polygon fill="white" stroke="#666666" points="170.75,-249.25 73,-249.25 73,-230 170.75,-230 170.75,-249.25"/>
<text xml:space="preserve" text-anchor="middle" x="121.88" y="-235.75" font-family="Helvetica,sans-Serif" font-size="10.00">interpolation_driver</text>
</a>
</g>
</g>
<!-- Node7&#45;&gt;Node8 -->
<g id="edge7_Node000007_Node000008" class="edge">
<title>Node7&#45;&gt;Node8</title>
<g id="a_edge7_Node000007_Node000008"><a xlink:title=" ">
<path fill="none" stroke="#63b8ff" d="M226.44,-269.44C204.39,-263.09 178.38,-255.6 157.94,-249.72"/>
<polygon fill="#63b8ff" stroke="#63b8ff" points="225.2,-272.72 235.77,-272.12 227.13,-265.99 225.2,-272.72"/>
</a>
</g>
</g>
<!-- Node8&#45;&gt;Node5 -->
<g id="edge8_Node000008_Node000005" class="edge">
<title>Node8&#45;&gt;Node5</title>
<g id="a_edge8_Node000008_Node000005"><a xlink:title=" ">
<path fill="none" stroke="#63b8ff" d="M94.38,-223.94C76.13,-213.14 52.41,-199.1 36.6,-189.75"/>
<polygon fill="#63b8ff" stroke="#63b8ff" points="92.44,-226.86 102.83,-228.95 96.01,-220.84 92.44,-226.86"/>
</a>
</g>
</g>
<!-- Node9&#45;&gt;Node8 -->
<g id="edge10_Node000009_Node000008" class="edge">
<title>Node9&#45;&gt;Node8</title>
<g id="a_edge10_Node000009_Node000008"><a xlink:title=" ">
<path fill="none" stroke="#63b8ff" d="M210.02,-239.62C197.02,-239.62 183.51,-239.62 171.11,-239.62"/>
<polygon fill="#63b8ff" stroke="#63b8ff" points="209.75,-243.13 219.75,-239.63 209.75,-236.13 209.75,-243.13"/>
</a>
</g>
</g>
<!-- Node10&#45;&gt;Node8 -->
<g id="edge12_Node000010_Node000008" class="edge">
<title>Node10&#45;&gt;Node8</title>
<g id="a_edge12_Node000010_Node000008"><a xlink:title=" ">
<path fill="none" stroke="#63b8ff" d="M214.27,-342.83C211.66,-341.55 209.14,-340.15 206.75,-338.62 169.53,-314.87 140.14,-269.46 128.4,-249.48"/>
<polygon fill="#63b8ff" stroke="#63b8ff" points="212.67,-345.95 223.24,-346.62 215.39,-339.51 212.67,-345.95"/>
</a>
</g>
</g>
<!-- Node11&#45;&gt;Node4 -->
<g id="edge14_Node000011_Node000004" class="edge">
<title>Node11&#45;&gt;Node4</title>
<g id="a_edge14_Node000011_Node000004"><a xlink:title=" ">
<path fill="none" stroke="#63b8ff" d="M401.42,-11.6C355.47,-15.34 271.61,-25.96 206.75,-55.62 176.26,-69.57 146.73,-96.54 132.21,-110.97"/>
<polygon fill="#63b8ff" stroke="#63b8ff" points="401.57,-15.1 411.29,-10.87 401.05,-8.12 401.57,-15.1"/>
</a>
</g>
</g>
<!-- Node12&#45;&gt;Node8 -->
<g id="edge16_Node000012_Node000008" class="edge">
<title>Node12&#45;&gt;Node8</title>
<g id="a_edge16_Node000012_Node000008"><a xlink:title=" ">
<path fill="none" stroke="#63b8ff" d="M216.36,-305.8C213.06,-304.51 209.83,-303.12 206.75,-301.62 177.92,-287.62 148.86,-263.34 133.67,-249.69"/>
<polygon fill="#63b8ff" stroke="#63b8ff" points="215.03,-309.04 225.62,-309.06 217.35,-302.44 215.03,-309.04"/>
</a>
</g>
</g>
<!-- Node14 -->
<g id="Node000014" class="node">
<title>Node14</title>
<g id="a_Node000014"><a xlink:href="../../d5/d9f/compute__dmats_8c.html#aceeb11551c1d6413e6d4b5cae9704493" target="_top" xlink:title=" ">
<polygon fill="white" stroke="#666666" points="339.75,-84.25 206.75,-84.25 206.75,-65 339.75,-65 339.75,-84.25"/>
<text xml:space="preserve" text-anchor="middle" x="273.25" y="-70.75" font-family="Helvetica,sans-Serif" font-size="10.00">compute_and_write_dmats</text>
</a>
</g>
</g>
<!-- Node13&#45;&gt;Node14 -->
<g id="edge18_Node000013_Node000014" class="edge">
<title>Node13&#45;&gt;Node14</title>
<g id="a_edge18_Node000013_Node000014"><a xlink:title=" ">
<path fill="none" stroke="#63b8ff" d="M383.97,-55.54C367.48,-58.41 349.1,-61.61 332.16,-64.55"/>
<polygon fill="#63b8ff" stroke="#63b8ff" points="384.29,-59.04 393.55,-53.88 383.1,-52.14 384.29,-59.04"/>
</a>
</g>
</g>
<!-- Node14&#45;&gt;Node4 -->
<g id="edge19_Node000014_Node000004" class="edge">
<title>Node14&#45;&gt;Node4</title>
<g id="a_edge19_Node000014_Node000004"><a xlink:title=" ">
<path fill="none" stroke="#63b8ff" d="M228.52,-88.09C204.54,-95.48 175.39,-104.45 153.79,-111.1"/>
<polygon fill="#63b8ff" stroke="#63b8ff" points="229.5,-91.45 238.02,-85.17 227.44,-84.76 229.5,-91.45"/>
</a>
</g>
</g>
<!-- Node15&#45;&gt;Node3 -->
<g id="edge21_Node000015_Node000003" class="edge">
<title>Node15&#45;&gt;Node3</title>
<g id="a_edge21_Node000015_Node000003"><a xlink:title=" ">
<path fill="none" stroke="#63b8ff" d="M387.61,-146.68C365.59,-141.62 339.61,-135.65 318.08,-130.7"/>
<polygon fill="#63b8ff" stroke="#63b8ff" points="386.71,-150.06 397.24,-148.89 388.28,-143.24 386.71,-150.06"/>
</a>
</g>
</g>
<!-- Node16&#45;&gt;Node3 -->
<g id="edge23_Node000016_Node000003" class="edge">
<title>Node16&#45;&gt;Node3</title>
<g id="a_edge23_Node000016_Node000003"><a xlink:title=" ">
<path fill="none" stroke="#63b8ff" d="M395.84,-120.62C378.55,-120.62 357.79,-120.62 338.37,-120.62"/>
<polygon fill="#63b8ff" stroke="#63b8ff" points="395.69,-124.13 405.69,-120.63 395.69,-117.13 395.69,-124.13"/>
</a>
</g>
</g>
<!-- Node17&#45;&gt;Node8 -->
<g id="edge25_Node000017_Node000008" class="edge">
<title>Node17&#45;&gt;Node8</title>
<g id="a_edge25_Node000017_Node000008"><a xlink:title=" ">
<path fill="none" stroke="#63b8ff" d="M380.01,-221.41C366.88,-219 352.87,-216.85 339.75,-215.62 280.9,-210.13 265.29,-207.41 206.75,-215.62 187.7,-218.3 166.91,-224.22 150.79,-229.52"/>
<polygon fill="#63b8ff" stroke="#63b8ff" points="379.31,-224.84 389.79,-223.28 380.63,-217.96 379.31,-224.84"/>
</a>
</g>
</g>
<!-- Node18&#45;&gt;Node4 -->
<g id="edge27_Node000018_Node000004" class="edge">
<title>Node18&#45;&gt;Node4</title>
<g id="a_edge27_Node000018_Node000004"><a xlink:title=" ">
<path fill="none" stroke="#63b8ff" d="M221.52,-145.72C199.01,-139.99 173.25,-133.44 153.69,-128.47"/>
<polygon fill="#63b8ff" stroke="#63b8ff" points="220.59,-149.09 231.15,-148.17 222.32,-142.31 220.59,-149.09"/>
</a>
</g>
</g>
<!-- Node18&#45;&gt;Node8 -->
<g id="edge28_Node000018_Node000008" class="edge">
<title>Node18&#45;&gt;Node8</title>
<g id="a_edge28_Node000018_Node000008"><a xlink:title=" ">
<path fill="none" stroke="#63b8ff" d="M229.29,-172.64C221.64,-175.62 213.85,-178.98 206.75,-182.62 179.81,-196.45 151.21,-217.43 135.34,-229.71"/>
<polygon fill="#63b8ff" stroke="#63b8ff" points="230.36,-175.98 238.51,-169.22 227.92,-169.42 230.36,-175.98"/>
</a>
</g>
</g>
</g>
</svg>

<g id="navigator" transform="translate(0 0)" fill="#404254">
  <rect fill="#f2f5e9" fill-opacity="0.5" stroke="#606060" stroke-width=".5" x="0" y="0" width="60" height="60"/>
  <use id="zoomplus" xlink:href="#zoomPlus" x="17" y="9" onmousedown="handleZoom(evt,'in')"/>
  <use id="zoomminus" xlink:href="#zoomMin" x="42" y="9" onmousedown="handleZoom(evt,'out')"/>
  <use id="reset" xlink:href="#resetDef" x="30" y="36" onmousedown="handleReset()"/>
   <use id="arrowup" xlink:href="#arrowUp" x="0" y="0" onmousedown="handlePan(0,-1)"/>
  <use id="arrowright" xlink:href="#arrowRight" x="0" y="0" onmousedown="handlePan(1,0)"/>
  <use id="arrowdown" xlink:href="#arrowDown" x="0" y="0" onmousedown="handlePan(0,1)"/>
  <use id="arrowleft" xlink:href="#arrowLeft" x="0" y="0" onmousedown="handlePan(-1,0)"/>
</g>
<svg viewBox="0 0 15 15" width="100%" height="30px" preserveAspectRatio="xMaxYMin meet">
 <g id="arrow_out" transform="scale(0.3 0.3)">
  <a xlink:href="numerical__func_8h_a93d327b9e3c8bd925ff76d32df39809c_icgraph_org.svg" target="_base">
   <rect id="button" ry="5" rx="5" y="6" x="6" height="38" width="38"
        fill="#f2f5e9" fill-opacity="0.5" stroke="#606060" stroke-width="1.0"/>
   <path id="arrow"
     d="M 11.500037,31.436501 C 11.940474,20.09759 22.043105,11.32322 32.158766,21.979434 L 37.068811,17.246167 C 37.068811,17.246167 37.088388,32 37.088388,32 L 22.160133,31.978069 C 22.160133,31.978069 26.997745,27.140456 26.997745,27.140456 C 18.528582,18.264221 13.291696,25.230495 11.500037,31.436501 z"
     style="fill:#404040;"/>
  </a>
 </g>
</svg>

<style type='text/css'>
<![CDATA[
[data-mouse-over-selected='false'] { opacity: 0.7; }
[data-mouse-over-selected='true']  { opacity: 1.0; }
]]>
</style>
<script type="application/ecmascript"><![CDATA[
document.addEventListener('DOMContentLoaded', (event) => {
  highlightEdges();
  highlightAdjacentNodes();
});
]]></script>
</svg>
