<?xml version="1.0" encoding="UTF-8" standalone="no"?>
<!DOCTYPE svg PUBLIC "-//W3C//DTD SVG 1.1//EN"
 "http://www.w3.org/Graphics/SVG/1.1/DTD/svg11.dtd">
<!-- Generated by graphviz version 14.0.0 (20250921.2048)
 -->
<!-- Title: find_kidx_in_list Pages: 1 -->
<svg width="569pt" height="214pt"
 viewBox="0.00 0.00 569.00 214.00" xmlns="http://www.w3.org/2000/svg" xmlns:xlink="http://www.w3.org/1999/xlink">
<g id="graph0" class="graph" transform="scale(1 1) rotate(0) translate(4 210.25)">
<title>find_kidx_in_list</title>
<!-- Node1 -->
<g id="Node000001" class="node">
<title>Node1</title>
<g id="a_Node000001"><a xlink:title=" ">
<polygon fill="#999999" stroke="#666666" points="560.75,-111.25 475,-111.25 475,-92 560.75,-92 560.75,-111.25"/>
<text xml:space="preserve" text-anchor="middle" x="517.88" y="-97.75" font-family="Helvetica,sans-Serif" font-size="10.00">find_kidx_in_list</text>
</a>
</g>
</g>
<!-- Node2 -->
<g id="Node000002" class="node">
<title>Node2</title>
<g id="a_Node000002"><a xlink:href="../../d2/d7a/_b_z__expand_8c.html#a22f62c3ed83f26d7e24bc15cf0013c01" target="_top" xlink:title=" ">
<polygon fill="white" stroke="#666666" points="421.75,-206.25 358.5,-206.25 358.5,-187 421.75,-187 421.75,-206.25"/>
<text xml:space="preserve" text-anchor="middle" x="390.12" y="-192.75" font-family="Helvetica,sans-Serif" font-size="10.00">bz_expand</text>
</a>
</g>
</g>
<!-- Node1&#45;&gt;Node2 -->
<g id="edge1_Node000001_Node000002" class="edge">
<title>Node1&#45;&gt;Node2</title>
<g id="a_edge1_Node000001_Node000002"><a xlink:title=" ">
<path fill="none" stroke="#63b8ff" d="M500.15,-119.42C485.12,-134.76 461.94,-156.86 439,-172.62 431.34,-177.89 422.36,-182.7 414.25,-186.62"/>
<polygon fill="#63b8ff" stroke="#63b8ff" points="502.53,-121.99 506.95,-112.36 497.49,-117.14 502.53,-121.99"/>
</a>
</g>
</g>
<!-- Node6 -->
<g id="Node000006" class="node">
<title>Node6</title>
<g id="a_Node000006"><a xlink:href="../../d5/dd2/compute__elph__matq_8c.html#ad32ab6f17a3745b7f82151d7f5b927f2" target="_top" xlink:title=" ">
<polygon fill="white" stroke="#666666" points="303.38,-132.25 174.12,-132.25 174.12,-113 303.38,-113 303.38,-132.25"/>
<text xml:space="preserve" text-anchor="middle" x="238.75" y="-118.75" font-family="Helvetica,sans-Serif" font-size="10.00">compute_and_write_elphq</text>
</a>
</g>
</g>
<!-- Node1&#45;&gt;Node6 -->
<g id="edge5_Node000001_Node000006" class="edge">
<title>Node1&#45;&gt;Node6</title>
<g id="a_edge5_Node000001_Node000006"><a xlink:title=" ">
<path fill="none" stroke="#63b8ff" d="M491.71,-117.54C476.97,-125.92 457.64,-135.32 439,-139.62 383.69,-152.4 317.76,-141.92 277.33,-132.68"/>
<polygon fill="#63b8ff" stroke="#63b8ff" points="493.43,-120.59 500.26,-112.49 489.87,-114.57 493.43,-120.59"/>
</a>
</g>
</g>
<!-- Node7 -->
<g id="Node000007" class="node">
<title>Node7</title>
<g id="a_Node000007"><a xlink:href="../../dd/de7/elec__reps_8c.html#a9ad01d68a7d4f87c39a98bf13778cd64" target="_top" xlink:title=" ">
<polygon fill="white" stroke="#666666" points="431.12,-93.25 349.12,-93.25 349.12,-74 431.12,-74 431.12,-93.25"/>
<text xml:space="preserve" text-anchor="middle" x="390.12" y="-79.75" font-family="Helvetica,sans-Serif" font-size="10.00">electronic_reps</text>
</a>
</g>
</g>
<!-- Node1&#45;&gt;Node7 -->
<g id="edge7_Node000001_Node000007" class="edge">
<title>Node1&#45;&gt;Node7</title>
<g id="a_edge7_Node000001_Node000007"><a xlink:title=" ">
<path fill="none" stroke="#63b8ff" d="M463.59,-94C452.78,-92.45 441.58,-90.85 431.32,-89.38"/>
<polygon fill="#63b8ff" stroke="#63b8ff" points="462.76,-97.41 473.15,-95.37 463.75,-90.48 462.76,-97.41"/>
</a>
</g>
</g>
<!-- Node9 -->
<g id="Node000009" class="node">
<title>Node9</title>
<g id="a_Node000009"><a xlink:href="../../db/df2/gen__i_b_z__kpts_8c.html#a6968872044ac5017c5f5f60b7bbe2cc3" target="_top" xlink:title=" ">
<polygon fill="white" stroke="#666666" points="439,-19.25 341.25,-19.25 341.25,0 439,0 439,-19.25"/>
<text xml:space="preserve" text-anchor="middle" x="390.12" y="-5.75" font-family="Helvetica,sans-Serif" font-size="10.00">generate_iBZ_kpts</text>
</a>
</g>
</g>
<!-- Node1&#45;&gt;Node9 -->
<g id="edge10_Node000001_Node000009" class="edge">
<title>Node1&#45;&gt;Node9</title>
<g id="a_edge10_Node000001_Node000009"><a xlink:title=" ">
<path fill="none" stroke="#63b8ff" d="M501.58,-83.41C486.95,-66.94 463.54,-43 439,-27.62 434.18,-24.61 428.78,-21.97 423.39,-19.72"/>
<polygon fill="#63b8ff" stroke="#63b8ff" points="498.57,-85.28 507.77,-90.54 503.86,-80.69 498.57,-85.28"/>
</a>
</g>
</g>
<!-- Node11 -->
<g id="Node000011" class="node">
<title>Node11</title>
<g id="a_Node000011"><a xlink:href="../../de/d2d/numerical__func_8c.html#addc0a8eaf0d13f25db2567d2bb688bc3" target="_top" xlink:title=" ">
<polygon fill="white" stroke="#666666" points="435.25,-130.25 345,-130.25 345,-111 435.25,-111 435.25,-130.25"/>
<text xml:space="preserve" text-anchor="middle" x="390.12" y="-116.75" font-family="Helvetica,sans-Serif" font-size="10.00">get_KplusQ_idxs</text>
</a>
</g>
</g>
<!-- Node1&#45;&gt;Node11 -->
<g id="edge13_Node000001_Node000011" class="edge">
<title>Node1&#45;&gt;Node11</title>
<g id="a_edge13_Node000001_Node000011"><a xlink:title=" ">
<path fill="none" stroke="#63b8ff" d="M463.51,-109.69C454.21,-111.09 444.63,-112.54 435.6,-113.9"/>
<polygon fill="#63b8ff" stroke="#63b8ff" points="463.79,-113.19 473.16,-108.23 462.75,-106.26 463.79,-113.19"/>
</a>
</g>
</g>
<!-- Node12 -->
<g id="Node000012" class="node">
<title>Node12</title>
<g id="a_Node000012"><a xlink:href="../../dc/d55/rotate__eig__vecs_8c.html#a6c1073c89757bc422e6720d8348c426a" target="_top" xlink:title=" ">
<polygon fill="white" stroke="#666666" points="432.62,-56.25 347.62,-56.25 347.62,-37 432.62,-37 432.62,-56.25"/>
<text xml:space="preserve" text-anchor="middle" x="390.12" y="-42.75" font-family="Helvetica,sans-Serif" font-size="10.00">rotate_eig_vecs</text>
</a>
</g>
</g>
<!-- Node1&#45;&gt;Node12 -->
<g id="edge15_Node000001_Node000012" class="edge">
<title>Node1&#45;&gt;Node12</title>
<g id="a_edge15_Node000001_Node000012"><a xlink:title=" ">
<path fill="none" stroke="#63b8ff" d="M486.65,-86.54C472.33,-79.58 454.92,-71.39 439,-64.62 432.62,-61.92 425.69,-59.19 419.13,-56.7"/>
<polygon fill="#63b8ff" stroke="#63b8ff" points="485.04,-89.65 495.56,-90.91 488.12,-83.36 485.04,-89.65"/>
</a>
</g>
</g>
<!-- Node3 -->
<g id="Node000003" class="node">
<title>Node3</title>
<g id="a_Node000003"><a xlink:href="../../da/d77/get__save__data_8c.html#ab497305a989dd1713ba4c2b4d0f95bd0" target="_top" xlink:title=" ">
<polygon fill="white" stroke="#666666" points="304.5,-187.25 173,-187.25 173,-168 304.5,-168 304.5,-187.25"/>
<text xml:space="preserve" text-anchor="middle" x="238.75" y="-173.75" font-family="Helvetica,sans-Serif" font-size="10.00">read_and_alloc_save_data</text>
</a>
</g>
</g>
<!-- Node2&#45;&gt;Node3 -->
<g id="edge2_Node000002_Node000003" class="edge">
<title>Node2&#45;&gt;Node3</title>
<g id="a_edge2_Node000002_Node000003"><a xlink:title=" ">
<path fill="none" stroke="#63b8ff" d="M347.12,-191.28C333.99,-189.61 319.18,-187.73 304.85,-185.9"/>
<polygon fill="#63b8ff" stroke="#63b8ff" points="346.31,-194.71 356.67,-192.5 347.19,-187.76 346.31,-194.71"/>
</a>
</g>
</g>
<!-- Node4 -->
<g id="Node000004" class="node">
<title>Node4</title>
<g id="a_Node000004"><a xlink:href="../../da/d2e/elph__driver_8c.html#ad9f405d41cf090d652dbe1307700665f" target="_top" xlink:title=" ">
<polygon fill="white" stroke="#666666" points="136.25,-95.25 73,-95.25 73,-76 136.25,-76 136.25,-95.25"/>
<text xml:space="preserve" text-anchor="middle" x="104.62" y="-81.75" font-family="Helvetica,sans-Serif" font-size="10.00">elph_driver</text>
</a>
</g>
</g>
<!-- Node3&#45;&gt;Node4 -->
<g id="edge3_Node000003_Node000004" class="edge">
<title>Node3&#45;&gt;Node4</title>
<g id="a_edge3_Node000003_Node000004"><a xlink:title=" ">
<path fill="none" stroke="#63b8ff" d="M207.21,-162.44C195.93,-156.43 183.23,-149.15 172.25,-141.62 151.06,-127.1 128.63,-107.17 115.96,-95.42"/>
<polygon fill="#63b8ff" stroke="#63b8ff" points="205.25,-165.37 215.73,-166.89 208.48,-159.16 205.25,-165.37"/>
</a>
</g>
</g>
<!-- Node5 -->
<g id="Node000005" class="node">
<title>Node5</title>
<g id="a_Node000005"><a xlink:href="../../d3/dd5/main__elph_c_8c.html#a0ddf1224851353fc92bfbff6f499fa97" target="_top" xlink:title="Main program entry point.">
<polygon fill="white" stroke="#666666" points="37,-57.25 0,-57.25 0,-38 37,-38 37,-57.25"/>
<text xml:space="preserve" text-anchor="middle" x="18.5" y="-43.75" font-family="Helvetica,sans-Serif" font-size="10.00">main</text>
</a>
</g>
</g>
<!-- Node4&#45;&gt;Node5 -->
<g id="edge4_Node000004_Node000005" class="edge">
<title>Node4&#45;&gt;Node5</title>
<g id="a_edge4_Node000004_Node000005"><a xlink:title=" ">
<path fill="none" stroke="#63b8ff" d="M71.37,-71.05C59.88,-65.86 47.35,-60.21 37.49,-55.75"/>
<polygon fill="#63b8ff" stroke="#63b8ff" points="69.59,-74.09 80.14,-75.02 72.47,-67.71 69.59,-74.09"/>
</a>
</g>
</g>
<!-- Node6&#45;&gt;Node4 -->
<g id="edge6_Node000006_Node000004" class="edge">
<title>Node6&#45;&gt;Node4</title>
<g id="a_edge6_Node000006_Node000004"><a xlink:title=" ">
<path fill="none" stroke="#63b8ff" d="M189.57,-109.44C183.73,-107.83 177.86,-106.19 172.25,-104.62 160.55,-101.35 147.71,-97.7 136.46,-94.48"/>
<polygon fill="#63b8ff" stroke="#63b8ff" points="188.64,-112.82 199.21,-112.1 190.5,-106.07 188.64,-112.82"/>
</a>
</g>
</g>
<!-- Node8 -->
<g id="Node000008" class="node">
<title>Node8</title>
<g id="a_Node000008"><a xlink:href="../../d5/d9f/compute__dmats_8c.html#aceeb11551c1d6413e6d4b5cae9704493" target="_top" xlink:title=" ">
<polygon fill="white" stroke="#666666" points="305.25,-95.25 172.25,-95.25 172.25,-76 305.25,-76 305.25,-95.25"/>
<text xml:space="preserve" text-anchor="middle" x="238.75" y="-81.75" font-family="Helvetica,sans-Serif" font-size="10.00">compute_and_write_dmats</text>
</a>
</g>
</g>
<!-- Node7&#45;&gt;Node8 -->
<g id="edge8_Node000007_Node000008" class="edge">
<title>Node7&#45;&gt;Node8</title>
<g id="a_edge8_Node000007_Node000008"><a xlink:title=" ">
<path fill="none" stroke="#63b8ff" d="M337.42,-84.32C327.14,-84.45 316.22,-84.6 305.54,-84.74"/>
<polygon fill="#63b8ff" stroke="#63b8ff" points="337.24,-87.82 347.19,-84.19 337.14,-80.82 337.24,-87.82"/>
</a>
</g>
</g>
<!-- Node8&#45;&gt;Node4 -->
<g id="edge9_Node000008_Node000004" class="edge">
<title>Node8&#45;&gt;Node4</title>
<g id="a_edge9_Node000008_Node000004"><a xlink:title=" ">
<path fill="none" stroke="#63b8ff" d="M160.75,-85.62C152.21,-85.62 143.92,-85.62 136.48,-85.62"/>
<polygon fill="#63b8ff" stroke="#63b8ff" points="160.56,-89.13 170.56,-85.63 160.56,-82.13 160.56,-89.13"/>
</a>
</g>
</g>
<!-- Node10 -->
<g id="Node000010" class="node">
<title>Node10</title>
<g id="a_Node000010"><a xlink:href="../../da/dc2/interpolation__driver_8c.html#aecc42ae41d168b486807b337fcf5b3de" target="_top" xlink:title=" ">
<polygon fill="white" stroke="#666666" points="287.62,-19.25 189.88,-19.25 189.88,0 287.62,0 287.62,-19.25"/>
<text xml:space="preserve" text-anchor="middle" x="238.75" y="-5.75" font-family="Helvetica,sans-Serif" font-size="10.00">interpolation_driver</text>
</a>
</g>
</g>
<!-- Node9&#45;&gt;Node10 -->
<g id="edge11_Node000009_Node000010" class="edge">
<title>Node9&#45;&gt;Node10</title>
<g id="a_edge11_Node000009_Node000010"><a xlink:title=" ">
<path fill="none" stroke="#63b8ff" d="M329.64,-9.62C315.82,-9.62 301.27,-9.62 288,-9.62"/>
<polygon fill="#63b8ff" stroke="#63b8ff" points="329.53,-13.13 339.53,-9.63 329.53,-6.13 329.53,-13.13"/>
</a>
</g>
</g>
<!-- Node10&#45;&gt;Node5 -->
<g id="edge12_Node000010_Node000005" class="edge">
<title>Node10&#45;&gt;Node5</title>
<g id="a_edge12_Node000010_Node000005"><a xlink:title=" ">
<path fill="none" stroke="#63b8ff" d="M178.52,-19.94C131.13,-28.19 67.74,-39.23 37.29,-44.53"/>
<polygon fill="#63b8ff" stroke="#63b8ff" points="178.84,-23.43 188.09,-18.27 177.64,-16.54 178.84,-23.43"/>
</a>
</g>
</g>
<!-- Node11&#45;&gt;Node6 -->
<g id="edge14_Node000011_Node000006" class="edge">
<title>Node11&#45;&gt;Node6</title>
<g id="a_edge14_Node000011_Node000006"><a xlink:title=" ">
<path fill="none" stroke="#63b8ff" d="M333.21,-121.37C323.56,-121.5 313.46,-121.64 303.62,-121.77"/>
<polygon fill="#63b8ff" stroke="#63b8ff" points="333.25,-124.87 343.2,-121.24 333.15,-117.87 333.25,-124.87"/>
</a>
</g>
</g>
<!-- Node12&#45;&gt;Node4 -->
<g id="edge16_Node000012_Node000004" class="edge">
<title>Node12&#45;&gt;Node4</title>
<g id="a_edge16_Node000012_Node000004"><a xlink:title=" ">
<path fill="none" stroke="#63b8ff" d="M335.9,-48.77C291.76,-51.21 227.52,-56.29 172.25,-66.62 160.43,-68.84 147.67,-72.22 136.52,-75.52"/>
<polygon fill="#63b8ff" stroke="#63b8ff" points="335.92,-52.28 345.72,-48.26 335.55,-45.29 335.92,-52.28"/>
</a>
</g>
</g>
<!-- Node12&#45;&gt;Node10 -->
<g id="edge17_Node000012_Node000010" class="edge">
<title>Node12&#45;&gt;Node10</title>
<g id="a_edge17_Node000012_Node000010"><a xlink:title=" ">
<path fill="none" stroke="#63b8ff" d="M337.34,-33.8C318.75,-29.19 298.05,-24.07 280.52,-19.72"/>
<polygon fill="#63b8ff" stroke="#63b8ff" points="336.29,-37.14 346.84,-36.15 337.97,-30.35 336.29,-37.14"/>
</a>
</g>
</g>
</g>
</svg>
