<?xml version="1.0" encoding="UTF-8" standalone="no"?>
<!DOCTYPE svg PUBLIC "-//W3C//DTD SVG 1.1//EN"
 "http://www.w3.org/Graphics/SVG/1.1/DTD/svg11.dtd">
<!-- Generated by graphviz version 14.0.0 (20250921.2048)
 -->
<!-- Title: src/preprocessor/pp_ph_save.c Pages: 1 -->
<svg width="1013pt" height="204pt"
 viewBox="0.00 0.00 1013.00 204.00" xmlns="http://www.w3.org/2000/svg" xmlns:xlink="http://www.w3.org/1999/xlink">
<g id="graph0" class="graph" transform="scale(1 1) rotate(0) translate(4 200.25)">
<title>src/preprocessor/pp_ph_save.c</title>
<!-- Node1 -->
<g id="Node000001" class="node">
<title>Node1</title>
<g id="a_Node000001"><a xlink:title=" ">
<polygon fill="#999999" stroke="#666666" points="563.12,-196.25 460.88,-196.25 460.88,-165.75 563.12,-165.75 563.12,-196.25"/>
<text xml:space="preserve" text-anchor="start" x="468.88" y="-182.75" font-family="Helvetica,sans-Serif" font-size="10.00">src/preprocessor/pp</text>
<text xml:space="preserve" text-anchor="middle" x="512" y="-171.5" font-family="Helvetica,sans-Serif" font-size="10.00">_ph_save.c</text>
</a>
</g>
</g>
<!-- Node2 -->
<g id="Node000002" class="node">
<title>Node2</title>
<g id="a_Node000002"><a xlink:title=" ">
<polygon fill="#e0e0e0" stroke="#999999" points="46,-129.75 0,-129.75 0,-110.5 46,-110.5 46,-129.75"/>
<text xml:space="preserve" text-anchor="middle" x="23" y="-116.25" font-family="Helvetica,sans-Serif" font-size="10.00">errno.h</text>
</a>
</g>
</g>
<!-- Node1&#45;&gt;Node2 -->
<g id="edge1_Node000001_Node000002" class="edge">
<title>Node1&#45;&gt;Node2</title>
<g id="a_edge1_Node000001_Node000002"><a xlink:title=" ">
<path fill="none" stroke="#63b8ff" d="M460.54,-176.27C376.37,-169.73 204.16,-154.48 60,-129.75 59.17,-129.61 58.33,-129.46 57.49,-129.3"/>
<polygon fill="#63b8ff" stroke="#63b8ff" points="58.39,-125.91 47.89,-127.33 56.97,-132.77 58.39,-125.91"/>
</a>
</g>
</g>
<!-- Node3 -->
<g id="Node000003" class="node">
<title>Node3</title>
<g id="a_Node000003"><a xlink:title=" ">
<polygon fill="#e0e0e0" stroke="#999999" points="194,-19.25 154,-19.25 154,0 194,0 194,-19.25"/>
<text xml:space="preserve" text-anchor="middle" x="174" y="-5.75" font-family="Helvetica,sans-Serif" font-size="10.00">mpi.h</text>
</a>
</g>
</g>
<!-- Node1&#45;&gt;Node3 -->
<g id="edge2_Node000001_Node000003" class="edge">
<title>Node1&#45;&gt;Node3</title>
<g id="a_edge2_Node000001_Node000003"><a xlink:title=" ">
<path fill="none" stroke="#63b8ff" d="M460.51,-177.22C358.27,-171.18 137.51,-155.29 115,-129.75 104.23,-117.53 108.44,-85.17 125,-55.25 131.27,-43.93 141.49,-33.94 150.98,-26.3"/>
<polygon fill="#63b8ff" stroke="#63b8ff" points="152.95,-29.19 158.84,-20.38 148.75,-23.6 152.95,-29.19"/>
</a>
</g>
</g>
<!-- Node4 -->
<g id="Node000004" class="node">
<title>Node4</title>
<g id="a_Node000004"><a xlink:title=" ">
<polygon fill="#e0e0e0" stroke="#999999" points="653.88,-19.25 598.12,-19.25 598.12,0 653.88,0 653.88,-19.25"/>
<text xml:space="preserve" text-anchor="middle" x="626" y="-5.75" font-family="Helvetica,sans-Serif" font-size="10.00">stdbool.h</text>
</a>
</g>
</g>
<!-- Node1&#45;&gt;Node4 -->
<g id="edge3_Node000001_Node000004" class="edge">
<title>Node1&#45;&gt;Node4</title>
<g id="a_edge3_Node000001_Node000004"><a xlink:title=" ">
<path fill="none" stroke="#63b8ff" d="M563.62,-171.28C587.78,-164.33 614.41,-151.9 629,-129.75 648.76,-99.76 640.34,-55.67 632.87,-30.39"/>
<polygon fill="#63b8ff" stroke="#63b8ff" points="636.27,-29.52 629.88,-21.07 629.61,-31.66 636.27,-29.52"/>
</a>
</g>
</g>
<!-- Node5 -->
<g id="Node000005" class="node">
<title>Node5</title>
<g id="a_Node000005"><a xlink:title=" ">
<polygon fill="#e0e0e0" stroke="#999999" points="187.75,-129.75 140.25,-129.75 140.25,-110.5 187.75,-110.5 187.75,-129.75"/>
<text xml:space="preserve" text-anchor="middle" x="164" y="-116.25" font-family="Helvetica,sans-Serif" font-size="10.00">stdlib.h</text>
</a>
</g>
</g>
<!-- Node1&#45;&gt;Node5 -->
<g id="edge4_Node000001_Node000005" class="edge">
<title>Node1&#45;&gt;Node5</title>
<g id="a_edge4_Node000001_Node000005"><a xlink:title=" ">
<path fill="none" stroke="#63b8ff" d="M460.43,-173.35C400.07,-165.21 296.93,-150.22 199.07,-130.01"/>
<polygon fill="#63b8ff" stroke="#63b8ff" points="200.07,-126.64 189.57,-128.02 198.64,-133.49 200.07,-126.64"/>
</a>
</g>
</g>
<!-- Node6 -->
<g id="Node000006" class="node">
<title>Node6</title>
<g id="a_Node000006"><a xlink:title=" ">
<polygon fill="#e0e0e0" stroke="#999999" points="254.12,-129.75 205.88,-129.75 205.88,-110.5 254.12,-110.5 254.12,-129.75"/>
<text xml:space="preserve" text-anchor="middle" x="230" y="-116.25" font-family="Helvetica,sans-Serif" font-size="10.00">string.h</text>
</a>
</g>
</g>
<!-- Node1&#45;&gt;Node6 -->
<g id="edge5_Node000001_Node000006" class="edge">
<title>Node1&#45;&gt;Node6</title>
<g id="a_edge5_Node000001_Node000006"><a xlink:title=" ">
<path fill="none" stroke="#63b8ff" d="M460.79,-170.54C412.69,-161.46 338.46,-146.95 265.26,-130.18"/>
<polygon fill="#63b8ff" stroke="#63b8ff" points="266.48,-126.86 255.95,-128.03 264.9,-133.69 266.48,-126.86"/>
</a>
</g>
</g>
<!-- Node7 -->
<g id="Node000007" class="node">
<title>Node7</title>
<g id="a_Node000007"><a xlink:href="../../d4/dc0/_e_l_p_h__copy_8h.html" target="_top" xlink:title=" ">
<polygon fill="white" stroke="#666666" points="347.62,-129.75 272.38,-129.75 272.38,-110.5 347.62,-110.5 347.62,-129.75"/>
<text xml:space="preserve" text-anchor="middle" x="310" y="-116.25" font-family="Helvetica,sans-Serif" font-size="10.00">ELPH_copy.h</text>
</a>
</g>
</g>
<!-- Node1&#45;&gt;Node7 -->
<g id="edge6_Node000001_Node000007" class="edge">
<title>Node1&#45;&gt;Node7</title>
<g id="a_edge6_Node000001_Node000007"><a xlink:title=" ">
<path fill="none" stroke="#63b8ff" d="M461.55,-165.3C427.78,-155.45 383.87,-142.65 352.01,-133.37"/>
<polygon fill="#63b8ff" stroke="#63b8ff" points="353.31,-130.1 342.73,-130.66 351.35,-136.82 353.31,-130.1"/>
</a>
</g>
</g>
<!-- Node8 -->
<g id="Node000008" class="node">
<title>Node8</title>
<g id="a_Node000008"><a xlink:title=" ">
<polygon fill="#e0e0e0" stroke="#999999" points="484.38,-129.75 365.62,-129.75 365.62,-110.5 484.38,-110.5 484.38,-129.75"/>
<text xml:space="preserve" text-anchor="middle" x="425" y="-116.25" font-family="Helvetica,sans-Serif" font-size="10.00">common/cwalk/cwalk.h</text>
</a>
</g>
</g>
<!-- Node1&#45;&gt;Node8 -->
<g id="edge7_Node000001_Node000008" class="edge">
<title>Node1&#45;&gt;Node8</title>
<g id="a_edge7_Node000001_Node000008"><a xlink:title=" ">
<path fill="none" stroke="#63b8ff" d="M490.49,-165.45C477.5,-156.65 460.96,-145.46 447.75,-136.52"/>
<polygon fill="#63b8ff" stroke="#63b8ff" points="449.91,-133.76 439.67,-131.05 445.99,-139.55 449.91,-133.76"/>
</a>
</g>
</g>
<!-- Node9 -->
<g id="Node000009" class="node">
<title>Node9</title>
<g id="a_Node000009"><a xlink:href="../../d2/d02/dtypes_8h.html" target="_top" xlink:title=" ">
<polygon fill="white" stroke="#666666" points="579,-74.5 485,-74.5 485,-55.25 579,-55.25 579,-74.5"/>
<text xml:space="preserve" text-anchor="middle" x="532" y="-61" font-family="Helvetica,sans-Serif" font-size="10.00">common/dtypes.h</text>
</a>
</g>
</g>
<!-- Node1&#45;&gt;Node9 -->
<g id="edge8_Node000001_Node000009" class="edge">
<title>Node1&#45;&gt;Node9</title>
<g id="a_edge8_Node000001_Node000009"><a xlink:title=" ">
<path fill="none" stroke="#63b8ff" d="M514.53,-165.55C518.06,-145.4 524.48,-108.81 528.47,-86"/>
<polygon fill="#63b8ff" stroke="#63b8ff" points="531.87,-86.89 530.15,-76.44 524.98,-85.68 531.87,-86.89"/>
</a>
</g>
</g>
<!-- Node10 -->
<g id="Node000010" class="node">
<title>Node10</title>
<g id="a_Node000010"><a xlink:href="../../d4/d0a/elph_c_8h.html" target="_top" xlink:title="Core type definitions and configuration for LetzElPhC.">
<polygon fill="white" stroke="#666666" points="810.88,-19.25 761.12,-19.25 761.12,0 810.88,0 810.88,-19.25"/>
<text xml:space="preserve" text-anchor="middle" x="786" y="-5.75" font-family="Helvetica,sans-Serif" font-size="10.00">elphC.h</text>
</a>
</g>
</g>
<!-- Node1&#45;&gt;Node10 -->
<g id="edge18_Node000001_Node000010" class="edge">
<title>Node1&#45;&gt;Node10</title>
<g id="a_edge18_Node000001_Node000010"><a xlink:title=" ">
<path fill="none" stroke="#63b8ff" d="M563.51,-179.11C640.94,-176.55 781.63,-166.79 813,-129.75 837.34,-101.01 814.91,-54.8 798.89,-29.2"/>
<polygon fill="#63b8ff" stroke="#63b8ff" points="801.82,-27.3 793.4,-20.87 795.98,-31.15 801.82,-27.3"/>
</a>
</g>
</g>
<!-- Node11 -->
<g id="Node000011" class="node">
<title>Node11</title>
<g id="a_Node000011"><a xlink:href="../../da/d41/error_8h.html" target="_top" xlink:title=" ">
<polygon fill="white" stroke="#666666" points="454.5,-19.25 411.5,-19.25 411.5,0 454.5,0 454.5,-19.25"/>
<text xml:space="preserve" text-anchor="middle" x="433" y="-5.75" font-family="Helvetica,sans-Serif" font-size="10.00">error.h</text>
</a>
</g>
</g>
<!-- Node1&#45;&gt;Node11 -->
<g id="edge13_Node000001_Node000011" class="edge">
<title>Node1&#45;&gt;Node11</title>
<g id="a_edge13_Node000001_Node000011"><a xlink:title=" ">
<path fill="none" stroke="#63b8ff" d="M460.68,-176.94C361.74,-170.52 152.42,-154.17 131,-129.75 52.95,-40.73 306.28,-17.6 399.75,-12.16"/>
<polygon fill="#63b8ff" stroke="#63b8ff" points="399.77,-15.66 409.57,-11.62 399.39,-8.67 399.77,-15.66"/>
</a>
</g>
</g>
<!-- Node12 -->
<g id="Node000012" class="node">
<title>Node12</title>
<g id="a_Node000012"><a xlink:href="../../d3/d10/string__func_8h.html" target="_top" xlink:title=" ">
<polygon fill="white" stroke="#666666" points="766.38,-74.5 653.62,-74.5 653.62,-55.25 766.38,-55.25 766.38,-74.5"/>
<text xml:space="preserve" text-anchor="middle" x="710" y="-61" font-family="Helvetica,sans-Serif" font-size="10.00">common/string_func.h</text>
</a>
</g>
</g>
<!-- Node1&#45;&gt;Node12 -->
<g id="edge14_Node000001_Node000012" class="edge">
<title>Node1&#45;&gt;Node12</title>
<g id="a_edge14_Node000001_Node000012"><a xlink:title=" ">
<path fill="none" stroke="#63b8ff" d="M563.49,-170.81C594.22,-163.46 632.82,-150.79 662,-129.75 678.5,-117.85 691.84,-98.63 700.24,-84.38"/>
<polygon fill="#63b8ff" stroke="#63b8ff" points="703.11,-86.41 704.92,-75.97 696.99,-83 703.11,-86.41"/>
</a>
</g>
</g>
<!-- Node14 -->
<g id="Node000014" class="node">
<title>Node14</title>
<g id="a_Node000014"><a xlink:title=" ">
<polygon fill="#e0e0e0" stroke="#999999" points="804.12,-129.75 713.88,-129.75 713.88,-110.5 804.12,-110.5 804.12,-129.75"/>
<text xml:space="preserve" text-anchor="middle" x="759" y="-116.25" font-family="Helvetica,sans-Serif" font-size="10.00">io/ezxml/ezxml.h</text>
</a>
</g>
</g>
<!-- Node1&#45;&gt;Node14 -->
<g id="edge19_Node000001_Node000014" class="edge">
<title>Node1&#45;&gt;Node14</title>
<g id="a_edge19_Node000001_Node000014"><a xlink:title=" ">
<path fill="none" stroke="#63b8ff" d="M563.48,-167.73C606.48,-157.48 667.38,-142.96 709.74,-132.87"/>
<polygon fill="#63b8ff" stroke="#63b8ff" points="710.51,-136.28 719.43,-130.56 708.89,-129.47 710.51,-136.28"/>
</a>
</g>
</g>
<!-- Node15 -->
<g id="Node000015" class="node">
<title>Node15</title>
<g id="a_Node000015"><a xlink:href="../../d3/d53/preprocessor_8h.html" target="_top" xlink:title=" ">
<polygon fill="white" stroke="#666666" points="619.88,-129.75 540.12,-129.75 540.12,-110.5 619.88,-110.5 619.88,-129.75"/>
<text xml:space="preserve" text-anchor="middle" x="580" y="-116.25" font-family="Helvetica,sans-Serif" font-size="10.00">preprocessor.h</text>
</a>
</g>
</g>
<!-- Node1&#45;&gt;Node15 -->
<g id="edge20_Node000001_Node000015" class="edge">
<title>Node1&#45;&gt;Node15</title>
<g id="a_edge20_Node000001_Node000015"><a xlink:title=" ">
<path fill="none" stroke="#63b8ff" d="M528.81,-165.45C538.57,-157 550.88,-146.33 560.99,-137.58"/>
<polygon fill="#63b8ff" stroke="#63b8ff" points="563.1,-140.38 568.37,-131.19 558.52,-135.09 563.1,-140.38"/>
</a>
</g>
</g>
<!-- Node16 -->
<g id="Node000016" class="node">
<title>Node16</title>
<g id="a_Node000016"><a xlink:title=" ">
<polygon fill="#e0e0e0" stroke="#999999" points="919.75,-129.75 860.25,-129.75 860.25,-110.5 919.75,-110.5 919.75,-129.75"/>
<text xml:space="preserve" text-anchor="middle" x="890" y="-116.25" font-family="Helvetica,sans-Serif" font-size="10.00">sys/stat.h</text>
</a>
</g>
</g>
<!-- Node1&#45;&gt;Node16 -->
<g id="edge23_Node000001_Node000016" class="edge">
<title>Node1&#45;&gt;Node16</title>
<g id="a_edge23_Node000001_Node000016"><a xlink:title=" ">
<path fill="none" stroke="#63b8ff" d="M563.61,-172.96C629.33,-163.82 746.33,-147.01 846,-129.75 847.01,-129.58 848.03,-129.4 849.05,-129.21"/>
<polygon fill="#63b8ff" stroke="#63b8ff" points="849.53,-132.69 858.72,-127.42 848.25,-125.8 849.53,-132.69"/>
</a>
</g>
</g>
<!-- Node17 -->
<g id="Node000017" class="node">
<title>Node17</title>
<g id="a_Node000017"><a xlink:title=" ">
<polygon fill="#e0e0e0" stroke="#999999" points="1004.5,-129.75 937.5,-129.75 937.5,-110.5 1004.5,-110.5 1004.5,-129.75"/>
<text xml:space="preserve" text-anchor="middle" x="971" y="-116.25" font-family="Helvetica,sans-Serif" font-size="10.00">sys/types.h</text>
</a>
</g>
</g>
<!-- Node1&#45;&gt;Node17 -->
<g id="edge24_Node000001_Node000017" class="edge">
<title>Node1&#45;&gt;Node17</title>
<g id="a_edge24_Node000001_Node000017"><a xlink:title=" ">
<path fill="none" stroke="#63b8ff" d="M563.55,-175.17C640.42,-167.67 789.86,-151.91 926.08,-130.12"/>
<polygon fill="#63b8ff" stroke="#63b8ff" points="926.31,-133.63 935.62,-128.57 925.19,-126.72 926.31,-133.63"/>
</a>
</g>
</g>
<!-- Node9&#45;&gt;Node3 -->
<g id="edge9_Node000009_Node000003" class="edge">
<title>Node9&#45;&gt;Node3</title>
<g id="a_edge9_Node000009_Node000003"><a xlink:title=" ">
<path fill="none" stroke="#63b8ff" d="M484.83,-56.86C410.63,-45.82 268.6,-24.7 205.53,-15.31"/>
<polygon fill="#63b8ff" stroke="#63b8ff" points="206.26,-11.88 195.85,-13.88 205.23,-18.81 206.26,-11.88"/>
</a>
</g>
</g>
<!-- Node9&#45;&gt;Node4 -->
<g id="edge10_Node000009_Node000004" class="edge">
<title>Node9&#45;&gt;Node4</title>
<g id="a_edge10_Node000009_Node000004"><a xlink:title=" ">
<path fill="none" stroke="#63b8ff" d="M547.95,-54.84C562.26,-46.73 583.53,-34.68 600.25,-25.21"/>
<polygon fill="#63b8ff" stroke="#63b8ff" points="601.68,-28.42 608.66,-20.45 598.23,-22.33 601.68,-28.42"/>
</a>
</g>
</g>
<!-- Node9&#45;&gt;Node10 -->
<g id="edge11_Node000009_Node000010" class="edge">
<title>Node9&#45;&gt;Node10</title>
<g id="a_edge11_Node000009_Node000010"><a xlink:title=" ">
<path fill="none" stroke="#63b8ff" d="M575.24,-54.83C618.28,-45.82 686.21,-31.59 745,-19.25 746.6,-18.91 748.24,-18.57 749.89,-18.22"/>
<polygon fill="#63b8ff" stroke="#63b8ff" points="750.3,-21.71 759.37,-16.23 748.86,-14.86 750.3,-21.71"/>
</a>
</g>
</g>
<!-- Node9&#45;&gt;Node11 -->
<g id="edge12_Node000009_Node000011" class="edge">
<title>Node9&#45;&gt;Node11</title>
<g id="a_edge12_Node000009_Node000011"><a xlink:title=" ">
<path fill="none" stroke="#63b8ff" d="M515.21,-54.84C499.99,-46.66 477.3,-34.46 459.62,-24.94"/>
<polygon fill="#63b8ff" stroke="#63b8ff" points="461.67,-22.07 451.21,-20.42 458.36,-28.24 461.67,-22.07"/>
</a>
</g>
</g>
<!-- Node12&#45;&gt;Node4 -->
<g id="edge15_Node000012_Node000004" class="edge">
<title>Node12&#45;&gt;Node4</title>
<g id="a_edge15_Node000012_Node000004"><a xlink:title=" ">
<path fill="none" stroke="#63b8ff" d="M695.75,-54.84C683.2,-46.89 664.67,-35.14 649.86,-25.75"/>
<polygon fill="#63b8ff" stroke="#63b8ff" points="651.92,-22.91 641.6,-20.51 648.17,-28.82 651.92,-22.91"/>
</a>
</g>
</g>
<!-- Node12&#45;&gt;Node10 -->
<g id="edge17_Node000012_Node000010" class="edge">
<title>Node12&#45;&gt;Node10</title>
<g id="a_edge17_Node000012_Node000010"><a xlink:title=" ">
<path fill="none" stroke="#63b8ff" d="M722.89,-54.84C734.03,-47.04 750.37,-35.59 763.64,-26.29"/>
<polygon fill="#63b8ff" stroke="#63b8ff" points="765.62,-29.18 771.8,-20.57 761.61,-23.44 765.62,-29.18"/>
</a>
</g>
</g>
<!-- Node13 -->
<g id="Node000013" class="node">
<title>Node13</title>
<g id="a_Node000013"><a xlink:title=" ">
<polygon fill="#e0e0e0" stroke="#999999" points="735.62,-19.25 684.38,-19.25 684.38,0 735.62,0 735.62,-19.25"/>
<text xml:space="preserve" text-anchor="middle" x="710" y="-5.75" font-family="Helvetica,sans-Serif" font-size="10.00">stddef.h</text>
</a>
</g>
</g>
<!-- Node12&#45;&gt;Node13 -->
<g id="edge16_Node000012_Node000013" class="edge">
<title>Node12&#45;&gt;Node13</title>
<g id="a_edge16_Node000012_Node000013"><a xlink:title=" ">
<path fill="none" stroke="#63b8ff" d="M710,-55.08C710,-48.57 710,-39.42 710,-31.12"/>
<polygon fill="#63b8ff" stroke="#63b8ff" points="713.5,-31.12 710,-21.12 706.5,-31.12 713.5,-31.12"/>
</a>
</g>
</g>
<!-- Node15&#45;&gt;Node9 -->
<g id="edge21_Node000015_Node000009" class="edge">
<title>Node15&#45;&gt;Node9</title>
<g id="a_edge21_Node000015_Node000009"><a xlink:title=" ">
<path fill="none" stroke="#63b8ff" d="M572.07,-110.33C565.44,-102.98 555.78,-92.26 547.61,-83.19"/>
<polygon fill="#63b8ff" stroke="#63b8ff" points="550.41,-81.07 541.11,-75.98 545.21,-85.75 550.41,-81.07"/>
</a>
</g>
</g>
<!-- Node15&#45;&gt;Node10 -->
<g id="edge22_Node000015_Node000010" class="edge">
<title>Node15&#45;&gt;Node10</title>
<g id="a_edge22_Node000015_Node000010"><a xlink:title=" ">
<path fill="none" stroke="#63b8ff" d="M620.37,-115.13C671.13,-109.24 754.16,-96.5 775,-74.5 785.9,-62.99 788.13,-44.8 787.94,-30.78"/>
<polygon fill="#63b8ff" stroke="#63b8ff" points="791.44,-30.66 787.35,-20.88 784.45,-31.08 791.44,-30.66"/>
</a>
</g>
</g>
</g>
</svg>
