<?xml version="1.0" encoding="UTF-8" standalone="no"?>
<!DOCTYPE svg PUBLIC "-//W3C//DTD SVG 1.1//EN"
 "http://www.w3.org/Graphics/SVG/1.1/DTD/svg11.dtd">
<!-- Generated by graphviz version 14.0.0 (20250921.2048)
 -->
<!-- Title: src/common/print_ELPH_logo.c Pages: 1 -->
<svg width="250pt" height="204pt"
 viewBox="0.00 0.00 250.00 204.00" xmlns="http://www.w3.org/2000/svg" xmlns:xlink="http://www.w3.org/1999/xlink">

<svg id="main" version="1.1" xmlns="http://www.w3.org/2000/svg" xmlns:xlink="http://www.w3.org/1999/xlink" xml:space="preserve">

<style type="text/css"><![CDATA[
.node, .edge {opacity: 0.7;}
.node.selected, .edge.selected {opacity: 1;}
.edge:hover path { stroke: red; }
.edge:hover polygon { stroke: red; fill: red; }
]]></style>
<script type="application/ecmascript" xlink:href="../../svg.min.js"/>
<svg id="graph" class="graph">
<g id="graph0" class="graph" transform="scale(1 1) rotate(0) translate(4 200.25)">
<title>src/common/print_ELPH_logo.c</title>
<!-- Node1 -->
<g id="Node000001" class="node">
<title>Node1</title>
<g id="a_Node000001"><a xlink:title=" ">
<polygon fill="#999999" stroke="#666666" points="180.62,-196.25 57.38,-196.25 57.38,-165.75 180.62,-165.75 180.62,-196.25"/>
<text xml:space="preserve" text-anchor="start" x="65.38" y="-182.75" font-family="Helvetica,sans-Serif" font-size="10.00">src/common/print_ELPH</text>
<text xml:space="preserve" text-anchor="middle" x="119" y="-171.5" font-family="Helvetica,sans-Serif" font-size="10.00">_logo.c</text>
</a>
</g>
</g>
<!-- Node2 -->
<g id="Node000002" class="node">
<title>Node2</title>
<g id="a_Node000002"><a xlink:title=" ">
<polygon fill="#e0e0e0" stroke="#999999" points="108.62,-74.5 63.38,-74.5 63.38,-55.25 108.62,-55.25 108.62,-74.5"/>
<text xml:space="preserve" text-anchor="middle" x="86" y="-61" font-family="Helvetica,sans-Serif" font-size="10.00">stdio.h</text>
</a>
</g>
</g>
<!-- Node1&#45;&gt;Node2 -->
<g id="edge1_Node000001_Node000002" class="edge">
<title>Node1&#45;&gt;Node2</title>
<g id="a_edge1_Node000001_Node000002"><a xlink:title=" ">
<path fill="none" stroke="#63b8ff" d="M114.82,-165.55C109,-145.4 98.41,-108.81 91.82,-86"/>
<polygon fill="#63b8ff" stroke="#63b8ff" points="95.18,-85.04 89.04,-76.4 88.46,-86.98 95.18,-85.04"/>
</a>
</g>
</g>
<!-- Node3 -->
<g id="Node000003" class="node">
<title>Node3</title>
<g id="a_Node000003"><a xlink:href="../../dd/de4/print__info_8h.html" target="_top" xlink:title=" ">
<polygon fill="white" stroke="#666666" points="183,-129.75 119,-129.75 119,-110.5 183,-110.5 183,-129.75"/>
<text xml:space="preserve" text-anchor="middle" x="151" y="-116.25" font-family="Helvetica,sans-Serif" font-size="10.00">print_info.h</text>
</a>
</g>
</g>
<!-- Node1&#45;&gt;Node3 -->
<g id="edge2_Node000001_Node000003" class="edge">
<title>Node1&#45;&gt;Node3</title>
<g id="a_edge2_Node000001_Node000003"><a xlink:title=" ">
<path fill="none" stroke="#63b8ff" d="M126.91,-165.45C131.03,-157.86 136.13,-148.49 140.57,-140.32"/>
<polygon fill="#63b8ff" stroke="#63b8ff" points="143.64,-141.99 145.34,-131.53 137.49,-138.65 143.64,-141.99"/>
</a>
</g>
</g>
<!-- Node3&#45;&gt;Node2 -->
<g id="edge3_Node000003_Node000002" class="edge">
<title>Node3&#45;&gt;Node2</title>
<g id="a_edge3_Node000003_Node000002"><a xlink:title=" ">
<path fill="none" stroke="#63b8ff" d="M139.97,-110.09C130.58,-102.4 116.85,-91.15 105.59,-81.93"/>
<polygon fill="#63b8ff" stroke="#63b8ff" points="107.99,-79.36 98.03,-75.73 103.55,-84.78 107.99,-79.36"/>
</a>
</g>
</g>
<!-- Node4 -->
<g id="Node000004" class="node">
<title>Node4</title>
<g id="a_Node000004"><a xlink:href="../../d2/d02/dtypes_8h.html" target="_top" xlink:title=" ">
<polygon fill="white" stroke="#666666" points="179.75,-74.5 126.25,-74.5 126.25,-55.25 179.75,-55.25 179.75,-74.5"/>
<text xml:space="preserve" text-anchor="middle" x="153" y="-61" font-family="Helvetica,sans-Serif" font-size="10.00">dtypes.h</text>
</a>
</g>
</g>
<!-- Node3&#45;&gt;Node4 -->
<g id="edge4_Node000003_Node000004" class="edge">
<title>Node3&#45;&gt;Node4</title>
<g id="a_edge4_Node000003_Node000004"><a xlink:title=" ">
<path fill="none" stroke="#63b8ff" d="M151.33,-110.33C151.58,-103.74 151.93,-94.46 152.24,-86.07"/>
<polygon fill="#63b8ff" stroke="#63b8ff" points="155.73,-86.5 152.61,-76.37 148.73,-86.23 155.73,-86.5"/>
</a>
</g>
</g>
<!-- Node7 -->
<g id="Node000007" class="node">
<title>Node7</title>
<g id="a_Node000007"><a xlink:href="../../d4/d0a/elph_c_8h.html" target="_top" xlink:title="Core type definitions and configuration for LetzElPhC.">
<polygon fill="white" stroke="#666666" points="241.88,-19.25 192.12,-19.25 192.12,0 241.88,0 241.88,-19.25"/>
<text xml:space="preserve" text-anchor="middle" x="217" y="-5.75" font-family="Helvetica,sans-Serif" font-size="10.00">elphC.h</text>
</a>
</g>
</g>
<!-- Node3&#45;&gt;Node7 -->
<g id="edge9_Node000003_Node000007" class="edge">
<title>Node3&#45;&gt;Node7</title>
<g id="a_edge9_Node000003_Node000007"><a xlink:title=" ">
<path fill="none" stroke="#63b8ff" d="M160.01,-110.18C168.31,-101.58 180.58,-87.96 189,-74.5 197.75,-60.51 205.12,-43.32 210.1,-30.29"/>
<polygon fill="#63b8ff" stroke="#63b8ff" points="213.3,-31.73 213.45,-21.13 206.73,-29.32 213.3,-31.73"/>
</a>
</g>
</g>
<!-- Node5 -->
<g id="Node000005" class="node">
<title>Node5</title>
<g id="a_Node000005"><a xlink:title=" ">
<polygon fill="#e0e0e0" stroke="#999999" points="40,-19.25 0,-19.25 0,0 40,0 40,-19.25"/>
<text xml:space="preserve" text-anchor="middle" x="20" y="-5.75" font-family="Helvetica,sans-Serif" font-size="10.00">mpi.h</text>
</a>
</g>
</g>
<!-- Node4&#45;&gt;Node5 -->
<g id="edge5_Node000004_Node000005" class="edge">
<title>Node4&#45;&gt;Node5</title>
<g id="a_edge5_Node000004_Node000005"><a xlink:title=" ">
<path fill="none" stroke="#63b8ff" d="M130.44,-54.84C108.59,-46.09 75.28,-32.76 50.96,-23.02"/>
<polygon fill="#63b8ff" stroke="#63b8ff" points="52.47,-19.86 41.89,-19.39 49.87,-26.36 52.47,-19.86"/>
</a>
</g>
</g>
<!-- Node6 -->
<g id="Node000006" class="node">
<title>Node6</title>
<g id="a_Node000006"><a xlink:title=" ">
<polygon fill="#e0e0e0" stroke="#999999" points="113.88,-19.25 58.12,-19.25 58.12,0 113.88,0 113.88,-19.25"/>
<text xml:space="preserve" text-anchor="middle" x="86" y="-5.75" font-family="Helvetica,sans-Serif" font-size="10.00">stdbool.h</text>
</a>
</g>
</g>
<!-- Node4&#45;&gt;Node6 -->
<g id="edge6_Node000004_Node000006" class="edge">
<title>Node4&#45;&gt;Node6</title>
<g id="a_edge6_Node000004_Node000006"><a xlink:title=" ">
<path fill="none" stroke="#63b8ff" d="M141.63,-54.84C131.95,-47.15 117.8,-35.9 106.19,-26.68"/>
<polygon fill="#63b8ff" stroke="#63b8ff" points="108.39,-23.95 98.38,-20.47 104.03,-29.43 108.39,-23.95"/>
</a>
</g>
</g>
<!-- Node4&#45;&gt;Node7 -->
<g id="edge7_Node000004_Node000007" class="edge">
<title>Node4&#45;&gt;Node7</title>
<g id="a_edge7_Node000004_Node000007"><a xlink:title=" ">
<path fill="none" stroke="#63b8ff" d="M163.86,-54.84C173.11,-47.15 186.62,-35.9 197.71,-26.68"/>
<polygon fill="#63b8ff" stroke="#63b8ff" points="199.69,-29.58 205.14,-20.49 195.21,-24.2 199.69,-29.58"/>
</a>
</g>
</g>
<!-- Node8 -->
<g id="Node000008" class="node">
<title>Node8</title>
<g id="a_Node000008"><a xlink:href="../../da/d41/error_8h.html" target="_top" xlink:title=" ">
<polygon fill="white" stroke="#666666" points="174.5,-19.25 131.5,-19.25 131.5,0 174.5,0 174.5,-19.25"/>
<text xml:space="preserve" text-anchor="middle" x="153" y="-5.75" font-family="Helvetica,sans-Serif" font-size="10.00">error.h</text>
</a>
</g>
</g>
<!-- Node4&#45;&gt;Node8 -->
<g id="edge8_Node000004_Node000008" class="edge">
<title>Node4&#45;&gt;Node8</title>
<g id="a_edge8_Node000004_Node000008"><a xlink:title=" ">
<path fill="none" stroke="#63b8ff" d="M153,-55.08C153,-48.57 153,-39.42 153,-31.12"/>
<polygon fill="#63b8ff" stroke="#63b8ff" points="156.5,-31.12 153,-21.12 149.5,-31.12 156.5,-31.12"/>
</a>
</g>
</g>
</g>
</svg>
</svg>

<style type='text/css'>
<![CDATA[
[data-mouse-over-selected='false'] { opacity: 0.7; }
[data-mouse-over-selected='true']  { opacity: 1.0; }
]]>
</style>
<script type="application/ecmascript"><![CDATA[
document.addEventListener('DOMContentLoaded', (event) => {
  highlightEdges();
  highlightAdjacentNodes();
});
]]></script>
</svg>
