<?xml version="1.0" encoding="UTF-8" standalone="no"?>
<!DOCTYPE svg PUBLIC "-//W3C//DTD SVG 1.1//EN"
 "http://www.w3.org/Graphics/SVG/1.1/DTD/svg11.dtd">
<!-- Generated by graphviz version 14.0.0 (20250921.2048)
 -->
<!-- Title: src/phonon/dyn_long_range.c Pages: 1 -->
<!--zoomable 204 -->

<svg id="main" version="1.1" xmlns="http://www.w3.org/2000/svg" xmlns:xlink="http://www.w3.org/1999/xlink" xml:space="preserve" onload="init(evt)">

<style type="text/css"><![CDATA[
.node, .edge {opacity: 0.7;}
.node.selected, .edge.selected {opacity: 1;}
.edge:hover path { stroke: red; }
.edge:hover polygon { stroke: red; fill: red; }
]]></style>

<defs>
  <circle id="rim" cx="0" cy="0" r="7"/>
  <circle id="rim2" cx="0" cy="0" r="3.5"/>
  <g id="zoomPlus">
    <use xlink:href="#rim" fill="#404040"><set attributeName="fill" to="#808080" begin="zoomplus.mouseover" end="zoomplus.mouseout"/></use>
    <path d="M-4,0h8M0,-4v8" fill="none" stroke="white" stroke-width="1.5" pointer-events="none"/>
  </g>
  <g id="zoomMin">
    <use xlink:href="#rim" fill="#404040"><set attributeName="fill" to="#808080" begin="zoomminus.mouseover" end="zoomminus.mouseout"/></use>
    <path d="M-4,0h8" fill="none" stroke="white" stroke-width="1.5" pointer-events="none"/>
  </g>
  <g id="arrowUp" transform="translate(30 24)">
    <use xlink:href="#rim"/>
    <path pointer-events="none" fill="none" stroke="white" stroke-width="1.5" d="M0,-3.0v7 M-2.5,-0.5L0,-3.0L2.5,-0.5"/>
  </g>
  <g id="arrowRight" transform="rotate(90) translate(36 -43)">
    <use xlink:href="#rim"/>
    <path pointer-events="none" fill="none" stroke="white" stroke-width="1.5" d="M0,-3.0v7 M-2.5,-0.5L0,-3.0L2.5,-0.5"/>
  </g>
  <g id="arrowDown" transform="rotate(180) translate(-30 -48)">
    <use xlink:href="#rim"/>
    <path pointer-events="none" fill="none" stroke="white" stroke-width="1.5" d="M0,-3.0v7 M-2.5,-0.5L0,-3.0L2.5,-0.5"/>
  </g>
  <g id="arrowLeft" transform="rotate(270) translate(-36 17)">
    <use xlink:href="#rim"/>
    <path pointer-events="none" fill="none" stroke="white" stroke-width="1.5" d="M0,-3.0v7 M-2.5,-0.5L0,-3.0L2.5,-0.5"/>
  </g>
  <g id="resetDef">
    <use xlink:href="#rim2" fill="#404040"><set attributeName="fill" to="#808080" begin="reset.mouseover" end="reset.mouseout"/></use>
  </g>
</defs>
<script type="application/ecmascript">
var viewWidth = 1016;
var viewHeight = 204;
var sectionId = 'dynsection-0';
</script>
<script type="application/ecmascript" xlink:href="../../svg.min.js"/>
<svg id="graph" class="graph">
<g id="viewport">
<title>src/phonon/dyn_long_range.c</title>
<!-- Node1 -->
<g id="Node000001" class="node">
<title>Node1</title>
<g id="a_Node000001"><a xlink:title=" ">
<polygon fill="#999999" stroke="#666666" points="536.5,-196.25 430.5,-196.25 430.5,-165.75 536.5,-165.75 536.5,-196.25"/>
<text xml:space="preserve" text-anchor="start" x="438.5" y="-182.75" font-family="Helvetica,sans-Serif" font-size="10.00">src/phonon/dyn_long</text>
<text xml:space="preserve" text-anchor="middle" x="483.5" y="-171.5" font-family="Helvetica,sans-Serif" font-size="10.00">_range.c</text>
</a>
</g>
</g>
<!-- Node2 -->
<g id="Node000002" class="node">
<title>Node2</title>
<g id="a_Node000002"><a xlink:title=" ">
<polygon fill="#e0e0e0" stroke="#999999" points="61,-129.75 0,-129.75 0,-110.5 61,-110.5 61,-129.75"/>
<text xml:space="preserve" text-anchor="middle" x="30.5" y="-116.25" font-family="Helvetica,sans-Serif" font-size="10.00">complex.h</text>
</a>
</g>
</g>
<!-- Node1&#45;&gt;Node2 -->
<g id="edge1_Node000001_Node000002" class="edge">
<title>Node1&#45;&gt;Node2</title>
<g id="a_edge1_Node000001_Node000002"><a xlink:title=" ">
<path fill="none" stroke="#63b8ff" d="M430.14,-175.08C353.39,-167.66 207.17,-152.23 72.76,-129.98"/>
<polygon fill="#63b8ff" stroke="#63b8ff" points="73.39,-126.54 62.95,-128.34 72.23,-133.44 73.39,-126.54"/>
</a>
</g>
</g>
<!-- Node3 -->
<g id="Node000003" class="node">
<title>Node3</title>
<g id="a_Node000003"><a xlink:title=" ">
<polygon fill="#e0e0e0" stroke="#999999" points="125.5,-129.75 79.5,-129.75 79.5,-110.5 125.5,-110.5 125.5,-129.75"/>
<text xml:space="preserve" text-anchor="middle" x="102.5" y="-116.25" font-family="Helvetica,sans-Serif" font-size="10.00">math.h</text>
</a>
</g>
</g>
<!-- Node1&#45;&gt;Node3 -->
<g id="edge2_Node000001_Node000003" class="edge">
<title>Node1&#45;&gt;Node3</title>
<g id="a_edge2_Node000001_Node000003"><a xlink:title=" ">
<path fill="none" stroke="#63b8ff" d="M430.23,-173.63C362.42,-165.19 241.8,-149.11 139.5,-129.75 138.67,-129.59 137.84,-129.43 137,-129.26"/>
<polygon fill="#63b8ff" stroke="#63b8ff" points="137.92,-125.88 127.41,-127.21 136.45,-132.73 137.92,-125.88"/>
</a>
</g>
</g>
<!-- Node4 -->
<g id="Node000004" class="node">
<title>Node4</title>
<g id="a_Node000004"><a xlink:title=" ">
<polygon fill="#e0e0e0" stroke="#999999" points="457.38,-19.25 401.62,-19.25 401.62,0 457.38,0 457.38,-19.25"/>
<text xml:space="preserve" text-anchor="middle" x="429.5" y="-5.75" font-family="Helvetica,sans-Serif" font-size="10.00">stdbool.h</text>
</a>
</g>
</g>
<!-- Node1&#45;&gt;Node4 -->
<g id="edge3_Node000001_Node000004" class="edge">
<title>Node1&#45;&gt;Node4</title>
<g id="a_edge3_Node000001_Node000004"><a xlink:title=" ">
<path fill="none" stroke="#63b8ff" d="M430.3,-179.38C350.32,-177.18 204.99,-167.91 172.5,-129.75 108.42,-54.48 303.42,-23.97 390.15,-14.33"/>
<polygon fill="#63b8ff" stroke="#63b8ff" points="390.31,-17.84 399.88,-13.3 389.57,-10.88 390.31,-17.84"/>
</a>
</g>
</g>
<!-- Node5 -->
<g id="Node000005" class="node">
<title>Node5</title>
<g id="a_Node000005"><a xlink:title=" ">
<polygon fill="#e0e0e0" stroke="#999999" points="227.12,-129.75 181.88,-129.75 181.88,-110.5 227.12,-110.5 227.12,-129.75"/>
<text xml:space="preserve" text-anchor="middle" x="204.5" y="-116.25" font-family="Helvetica,sans-Serif" font-size="10.00">stdio.h</text>
</a>
</g>
</g>
<!-- Node1&#45;&gt;Node5 -->
<g id="edge4_Node000001_Node000005" class="edge">
<title>Node1&#45;&gt;Node5</title>
<g id="a_edge4_Node000001_Node000005"><a xlink:title=" ">
<path fill="none" stroke="#63b8ff" d="M430.04,-170.31C382.11,-161.37 309.64,-147.22 238.43,-130.34"/>
<polygon fill="#63b8ff" stroke="#63b8ff" points="239.49,-126.99 228.95,-128.07 237.86,-133.8 239.49,-126.99"/>
</a>
</g>
</g>
<!-- Node6 -->
<g id="Node000006" class="node">
<title>Node6</title>
<g id="a_Node000006"><a xlink:title=" ">
<polygon fill="#e0e0e0" stroke="#999999" points="292.25,-129.75 244.75,-129.75 244.75,-110.5 292.25,-110.5 292.25,-129.75"/>
<text xml:space="preserve" text-anchor="middle" x="268.5" y="-116.25" font-family="Helvetica,sans-Serif" font-size="10.00">stdlib.h</text>
</a>
</g>
</g>
<!-- Node1&#45;&gt;Node6 -->
<g id="edge5_Node000001_Node000006" class="edge">
<title>Node1&#45;&gt;Node6</title>
<g id="a_edge5_Node000001_Node000006"><a xlink:title=" ">
<path fill="none" stroke="#63b8ff" d="M430.08,-165.37C390.52,-154.54 337.76,-140.09 303.46,-130.7"/>
<polygon fill="#63b8ff" stroke="#63b8ff" points="304.62,-127.39 294.05,-128.12 302.77,-134.14 304.62,-127.39"/>
</a>
</g>
</g>
<!-- Node7 -->
<g id="Node000007" class="node">
<title>Node7</title>
<g id="a_Node000007"><a xlink:title=" ">
<polygon fill="#e0e0e0" stroke="#999999" points="358.62,-129.75 310.38,-129.75 310.38,-110.5 358.62,-110.5 358.62,-129.75"/>
<text xml:space="preserve" text-anchor="middle" x="334.5" y="-116.25" font-family="Helvetica,sans-Serif" font-size="10.00">string.h</text>
</a>
</g>
</g>
<!-- Node1&#45;&gt;Node7 -->
<g id="edge6_Node000001_Node000007" class="edge">
<title>Node1&#45;&gt;Node7</title>
<g id="a_edge6_Node000001_Node000007"><a xlink:title=" ">
<path fill="none" stroke="#63b8ff" d="M446.29,-165.3C422.18,-155.77 391.05,-143.47 367.76,-134.27"/>
<polygon fill="#63b8ff" stroke="#63b8ff" points="369.34,-131.13 358.76,-130.71 366.77,-137.64 369.34,-131.13"/>
</a>
</g>
</g>
<!-- Node8 -->
<g id="Node000008" class="node">
<title>Node8</title>
<g id="a_Node000008"><a xlink:href="../../de/d83/_e_l_p_h__timers_8h.html" target="_top" xlink:title=" ">
<polygon fill="white" stroke="#666666" points="500.12,-129.75 376.88,-129.75 376.88,-110.5 500.12,-110.5 500.12,-129.75"/>
<text xml:space="preserve" text-anchor="middle" x="438.5" y="-116.25" font-family="Helvetica,sans-Serif" font-size="10.00">common/ELPH_timers.h</text>
</a>
</g>
</g>
<!-- Node1&#45;&gt;Node8 -->
<g id="edge7_Node000001_Node000008" class="edge">
<title>Node1&#45;&gt;Node8</title>
<g id="a_edge7_Node000001_Node000008"><a xlink:title=" ">
<path fill="none" stroke="#63b8ff" d="M472.38,-165.45C466.32,-157.52 458.76,-147.63 452.32,-139.21"/>
<polygon fill="#63b8ff" stroke="#63b8ff" points="455.21,-137.22 446.36,-131.4 449.65,-141.47 455.21,-137.22"/>
</a>
</g>
</g>
<!-- Node9 -->
<g id="Node000009" class="node">
<title>Node9</title>
<g id="a_Node000009"><a xlink:href="../../d2/d6f/constants_8h.html" target="_top" xlink:title=" ">
<polygon fill="white" stroke="#666666" points="658.25,-74.5 550.75,-74.5 550.75,-55.25 658.25,-55.25 658.25,-74.5"/>
<text xml:space="preserve" text-anchor="middle" x="604.5" y="-61" font-family="Helvetica,sans-Serif" font-size="10.00">common/constants.h</text>
</a>
</g>
</g>
<!-- Node1&#45;&gt;Node9 -->
<g id="edge8_Node000001_Node000009" class="edge">
<title>Node1&#45;&gt;Node9</title>
<g id="a_edge8_Node000001_Node000009"><a xlink:title=" ">
<path fill="none" stroke="#63b8ff" d="M527.66,-165.27C546.07,-157.24 566.4,-145.63 580.5,-129.75 591.46,-117.41 597.6,-99.58 600.92,-85.89"/>
<polygon fill="#63b8ff" stroke="#63b8ff" points="604.32,-86.74 602.92,-76.24 597.46,-85.32 604.32,-86.74"/>
</a>
</g>
</g>
<!-- Node10 -->
<g id="Node000010" class="node">
<title>Node10</title>
<g id="a_Node000010"><a xlink:href="../../d4/d0a/elph_c_8h.html" target="_top" xlink:title="Core type definitions and configuration for LetzElPhC.">
<polygon fill="white" stroke="#666666" points="700.38,-19.25 650.62,-19.25 650.62,0 700.38,0 700.38,-19.25"/>
<text xml:space="preserve" text-anchor="middle" x="675.5" y="-5.75" font-family="Helvetica,sans-Serif" font-size="10.00">elphC.h</text>
</a>
</g>
</g>
<!-- Node1&#45;&gt;Node10 -->
<g id="edge21_Node000001_Node000010" class="edge">
<title>Node1&#45;&gt;Node10</title>
<g id="a_edge21_Node000001_Node000010"><a xlink:title=" ">
<path fill="none" stroke="#63b8ff" d="M498.88,-165.55C507.96,-156.18 518.92,-143.24 525.5,-129.75 540.35,-99.31 518.9,-80.48 541.5,-55.25 566.2,-27.68 608.36,-17.11 638.81,-13.07"/>
<polygon fill="#63b8ff" stroke="#63b8ff" points="639.19,-16.55 648.74,-11.96 638.41,-9.6 639.19,-16.55"/>
</a>
</g>
</g>
<!-- Node11 -->
<g id="Node000011" class="node">
<title>Node11</title>
<g id="a_Node000011"><a xlink:href="../../d2/d02/dtypes_8h.html" target="_top" xlink:title=" ">
<polygon fill="white" stroke="#666666" points="966.5,-74.5 872.5,-74.5 872.5,-55.25 966.5,-55.25 966.5,-74.5"/>
<text xml:space="preserve" text-anchor="middle" x="919.5" y="-61" font-family="Helvetica,sans-Serif" font-size="10.00">common/dtypes.h</text>
</a>
</g>
</g>
<!-- Node1&#45;&gt;Node11 -->
<g id="edge10_Node000001_Node000011" class="edge">
<title>Node1&#45;&gt;Node11</title>
<g id="a_edge10_Node000001_Node000011"><a xlink:title=" ">
<path fill="none" stroke="#63b8ff" d="M536.68,-178.97C631.7,-176.23 825.86,-166.19 881.5,-129.75 897.34,-119.37 907.51,-99.9 913.3,-85.17"/>
<polygon fill="#63b8ff" stroke="#63b8ff" points="916.49,-86.66 916.53,-76.07 909.89,-84.32 916.49,-86.66"/>
</a>
</g>
</g>
<!-- Node13 -->
<g id="Node000013" class="node">
<title>Node13</title>
<g id="a_Node000013"><a xlink:href="../../da/d41/error_8h.html" target="_top" xlink:title=" ">
<polygon fill="white" stroke="#666666" points="1008,-19.25 965,-19.25 965,0 1008,0 1008,-19.25"/>
<text xml:space="preserve" text-anchor="middle" x="986.5" y="-5.75" font-family="Helvetica,sans-Serif" font-size="10.00">error.h</text>
</a>
</g>
</g>
<!-- Node1&#45;&gt;Node13 -->
<g id="edge15_Node000001_Node000013" class="edge">
<title>Node1&#45;&gt;Node13</title>
<g id="a_edge15_Node000001_Node000013"><a xlink:title=" ">
<path fill="none" stroke="#63b8ff" d="M536.64,-177.21C634.48,-171.49 839.06,-156.65 904.5,-129.75 941.48,-114.55 954.94,-108.79 975.5,-74.5 983.39,-61.33 986,-44.06 986.71,-30.8"/>
<polygon fill="#63b8ff" stroke="#63b8ff" points="990.2,-31.16 986.89,-21.09 983.2,-31.02 990.2,-31.16"/>
</a>
</g>
</g>
<!-- Node14 -->
<g id="Node000014" class="node">
<title>Node14</title>
<g id="a_Node000014"><a xlink:href="../../df/def/numerical__func_8h.html" target="_top" xlink:title=" ">
<polygon fill="white" stroke="#666666" points="494.88,-74.5 364.12,-74.5 364.12,-55.25 494.88,-55.25 494.88,-74.5"/>
<text xml:space="preserve" text-anchor="middle" x="429.5" y="-61" font-family="Helvetica,sans-Serif" font-size="10.00">common/numerical_func.h</text>
</a>
</g>
</g>
<!-- Node1&#45;&gt;Node14 -->
<g id="edge16_Node000001_Node000014" class="edge">
<title>Node1&#45;&gt;Node14</title>
<g id="a_edge16_Node000001_Node000014"><a xlink:title=" ">
<path fill="none" stroke="#63b8ff" d="M496.13,-165.51C507.17,-150.98 519.94,-128.27 509.5,-110.5 501.14,-96.26 486.41,-86.24 471.84,-79.34"/>
<polygon fill="#63b8ff" stroke="#63b8ff" points="473.32,-76.17 462.75,-75.46 470.57,-82.61 473.32,-76.17"/>
</a>
</g>
</g>
<!-- Node15 -->
<g id="Node000015" class="node">
<title>Node15</title>
<g id="a_Node000015"><a xlink:href="../../d2/d8d/omp__pragma__def_8h.html" target="_top" xlink:title=" ">
<polygon fill="white" stroke="#666666" points="816.38,-74.5 676.62,-74.5 676.62,-55.25 816.38,-55.25 816.38,-74.5"/>
<text xml:space="preserve" text-anchor="middle" x="746.5" y="-61" font-family="Helvetica,sans-Serif" font-size="10.00">common/omp_pragma_def.h</text>
</a>
</g>
</g>
<!-- Node1&#45;&gt;Node15 -->
<g id="edge19_Node000001_Node000015" class="edge">
<title>Node1&#45;&gt;Node15</title>
<g id="a_edge19_Node000001_Node000015"><a xlink:title=" ">
<path fill="none" stroke="#63b8ff" d="M517.83,-165.33C541.16,-155.34 572.71,-141.8 600.5,-129.75 640.34,-112.48 686.21,-92.38 715.74,-79.41"/>
<polygon fill="#63b8ff" stroke="#63b8ff" points="717.07,-82.64 724.82,-75.41 714.26,-76.23 717.07,-82.64"/>
</a>
</g>
</g>
<!-- Node16 -->
<g id="Node000016" class="node">
<title>Node16</title>
<g id="a_Node000016"><a xlink:href="../../d3/d34/phonon_8h.html" target="_top" xlink:title=" ">
<polygon fill="white" stroke="#666666" points="872.38,-129.75 816.62,-129.75 816.62,-110.5 872.38,-110.5 872.38,-129.75"/>
<text xml:space="preserve" text-anchor="middle" x="844.5" y="-116.25" font-family="Helvetica,sans-Serif" font-size="10.00">phonon.h</text>
</a>
</g>
</g>
<!-- Node1&#45;&gt;Node16 -->
<g id="edge22_Node000001_Node000016" class="edge">
<title>Node1&#45;&gt;Node16</title>
<g id="a_edge22_Node000001_Node000016"><a xlink:title=" ">
<path fill="none" stroke="#63b8ff" d="M536.77,-171.31C610.03,-159.36 740.21,-138.13 805.25,-127.53"/>
<polygon fill="#63b8ff" stroke="#63b8ff" points="805.43,-131.04 814.74,-125.98 804.3,-124.13 805.43,-131.04"/>
</a>
</g>
</g>
<!-- Node9&#45;&gt;Node10 -->
<g id="edge9_Node000009_Node000010" class="edge">
<title>Node9&#45;&gt;Node10</title>
<g id="a_edge9_Node000009_Node000010"><a xlink:title=" ">
<path fill="none" stroke="#63b8ff" d="M616.54,-54.84C626.91,-47.07 642.1,-35.67 654.47,-26.4"/>
<polygon fill="#63b8ff" stroke="#63b8ff" points="656.52,-29.23 662.42,-20.43 652.32,-23.63 656.52,-29.23"/>
</a>
</g>
</g>
<!-- Node11&#45;&gt;Node4 -->
<g id="edge12_Node000011_Node000004" class="edge">
<title>Node11&#45;&gt;Node4</title>
<g id="a_edge12_Node000011_Node000004"><a xlink:title=" ">
<path fill="none" stroke="#63b8ff" d="M872.07,-58.72C775.65,-48.24 558.32,-24.62 468.99,-14.92"/>
<polygon fill="#63b8ff" stroke="#63b8ff" points="469.58,-11.46 459.26,-13.86 468.82,-18.42 469.58,-11.46"/>
</a>
</g>
</g>
<!-- Node11&#45;&gt;Node10 -->
<g id="edge13_Node000011_Node000010" class="edge">
<title>Node11&#45;&gt;Node10</title>
<g id="a_edge13_Node000011_Node000010"><a xlink:title=" ">
<path fill="none" stroke="#63b8ff" d="M877.83,-54.78C831.1,-44.58 756.07,-28.21 711.7,-18.52"/>
<polygon fill="#63b8ff" stroke="#63b8ff" points="712.57,-15.13 702.06,-16.42 711.08,-21.97 712.57,-15.13"/>
</a>
</g>
</g>
<!-- Node12 -->
<g id="Node000012" class="node">
<title>Node12</title>
<g id="a_Node000012"><a xlink:title=" ">
<polygon fill="#e0e0e0" stroke="#999999" points="939.5,-19.25 899.5,-19.25 899.5,0 939.5,0 939.5,-19.25"/>
<text xml:space="preserve" text-anchor="middle" x="919.5" y="-5.75" font-family="Helvetica,sans-Serif" font-size="10.00">mpi.h</text>
</a>
</g>
</g>
<!-- Node11&#45;&gt;Node12 -->
<g id="edge11_Node000011_Node000012" class="edge">
<title>Node11&#45;&gt;Node12</title>
<g id="a_edge11_Node000011_Node000012"><a xlink:title=" ">
<path fill="none" stroke="#63b8ff" d="M919.5,-55.08C919.5,-48.57 919.5,-39.42 919.5,-31.12"/>
<polygon fill="#63b8ff" stroke="#63b8ff" points="923,-31.12 919.5,-21.12 916,-31.12 923,-31.12"/>
</a>
</g>
</g>
<!-- Node11&#45;&gt;Node13 -->
<g id="edge14_Node000011_Node000013" class="edge">
<title>Node11&#45;&gt;Node13</title>
<g id="a_edge14_Node000011_Node000013"><a xlink:title=" ">
<path fill="none" stroke="#63b8ff" d="M930.87,-54.84C940.55,-47.15 954.7,-35.9 966.31,-26.68"/>
<polygon fill="#63b8ff" stroke="#63b8ff" points="968.47,-29.43 974.12,-20.47 964.11,-23.95 968.47,-29.43"/>
</a>
</g>
</g>
<!-- Node14&#45;&gt;Node4 -->
<g id="edge17_Node000014_Node000004" class="edge">
<title>Node14&#45;&gt;Node4</title>
<g id="a_edge17_Node000014_Node000004"><a xlink:title=" ">
<path fill="none" stroke="#63b8ff" d="M429.5,-55.08C429.5,-48.57 429.5,-39.42 429.5,-31.12"/>
<polygon fill="#63b8ff" stroke="#63b8ff" points="433,-31.12 429.5,-21.12 426,-31.12 433,-31.12"/>
</a>
</g>
</g>
<!-- Node14&#45;&gt;Node10 -->
<g id="edge18_Node000014_Node000010" class="edge">
<title>Node14&#45;&gt;Node10</title>
<g id="a_edge18_Node000014_Node000010"><a xlink:title=" ">
<path fill="none" stroke="#63b8ff" d="M471.51,-54.78C518.62,-44.58 594.27,-28.21 639.01,-18.52"/>
<polygon fill="#63b8ff" stroke="#63b8ff" points="639.7,-21.95 648.74,-16.42 638.22,-15.11 639.7,-21.95"/>
</a>
</g>
</g>
<!-- Node15&#45;&gt;Node10 -->
<g id="edge20_Node000015_Node000010" class="edge">
<title>Node15&#45;&gt;Node10</title>
<g id="a_edge20_Node000015_Node000010"><a xlink:title=" ">
<path fill="none" stroke="#63b8ff" d="M734.46,-54.84C724.09,-47.07 708.9,-35.67 696.53,-26.4"/>
<polygon fill="#63b8ff" stroke="#63b8ff" points="698.68,-23.63 688.58,-20.43 694.48,-29.23 698.68,-23.63"/>
</a>
</g>
</g>
<!-- Node16&#45;&gt;Node10 -->
<g id="edge24_Node000016_Node000010" class="edge">
<title>Node16&#45;&gt;Node10</title>
<g id="a_edge24_Node000016_Node000010"><a xlink:title=" ">
<path fill="none" stroke="#63b8ff" d="M844.41,-110.38C843.78,-96.72 840.55,-70.3 825.5,-55.25 795.34,-25.09 745.76,-15.14 711.92,-11.95"/>
<polygon fill="#63b8ff" stroke="#63b8ff" points="712.42,-8.48 702.18,-11.2 711.88,-15.46 712.42,-8.48"/>
</a>
</g>
</g>
<!-- Node16&#45;&gt;Node11 -->
<g id="edge23_Node000016_Node000011" class="edge">
<title>Node16&#45;&gt;Node11</title>
<g id="a_edge23_Node000016_Node000011"><a xlink:title=" ">
<path fill="none" stroke="#63b8ff" d="M857.22,-110.09C868.21,-102.29 884.34,-90.84 897.43,-81.54"/>
<polygon fill="#63b8ff" stroke="#63b8ff" points="899.35,-84.47 905.48,-75.83 895.3,-78.76 899.35,-84.47"/>
</a>
</g>
</g>
</g>
</svg>

<g id="navigator" transform="translate(0 0)" fill="#404254">
  <rect fill="#f2f5e9" fill-opacity="0.5" stroke="#606060" stroke-width=".5" x="0" y="0" width="60" height="60"/>
  <use id="zoomplus" xlink:href="#zoomPlus" x="17" y="9" onmousedown="handleZoom(evt,'in')"/>
  <use id="zoomminus" xlink:href="#zoomMin" x="42" y="9" onmousedown="handleZoom(evt,'out')"/>
  <use id="reset" xlink:href="#resetDef" x="30" y="36" onmousedown="handleReset()"/>
   <use id="arrowup" xlink:href="#arrowUp" x="0" y="0" onmousedown="handlePan(0,-1)"/>
  <use id="arrowright" xlink:href="#arrowRight" x="0" y="0" onmousedown="handlePan(1,0)"/>
  <use id="arrowdown" xlink:href="#arrowDown" x="0" y="0" onmousedown="handlePan(0,1)"/>
  <use id="arrowleft" xlink:href="#arrowLeft" x="0" y="0" onmousedown="handlePan(-1,0)"/>
</g>
<svg viewBox="0 0 15 15" width="100%" height="30px" preserveAspectRatio="xMaxYMin meet">
 <g id="arrow_out" transform="scale(0.3 0.3)">
  <a xlink:href="dyn__long__range_8c__incl_org.svg" target="_base">
   <rect id="button" ry="5" rx="5" y="6" x="6" height="38" width="38"
        fill="#f2f5e9" fill-opacity="0.5" stroke="#606060" stroke-width="1.0"/>
   <path id="arrow"
     d="M 11.500037,31.436501 C 11.940474,20.09759 22.043105,11.32322 32.158766,21.979434 L 37.068811,17.246167 C 37.068811,17.246167 37.088388,32 37.088388,32 L 22.160133,31.978069 C 22.160133,31.978069 26.997745,27.140456 26.997745,27.140456 C 18.528582,18.264221 13.291696,25.230495 11.500037,31.436501 z"
     style="fill:#404040;"/>
  </a>
 </g>
</svg>

<style type='text/css'>
<![CDATA[
[data-mouse-over-selected='false'] { opacity: 0.7; }
[data-mouse-over-selected='true']  { opacity: 1.0; }
]]>
</style>
<script type="application/ecmascript"><![CDATA[
document.addEventListener('DOMContentLoaded', (event) => {
  highlightEdges();
  highlightAdjacentNodes();
});
]]></script>
</svg>
