<?xml version="1.0" encoding="UTF-8" standalone="no"?>
<!DOCTYPE svg PUBLIC "-//W3C//DTD SVG 1.1//EN"
 "http://www.w3.org/Graphics/SVG/1.1/DTD/svg11.dtd">
<!-- Generated by graphviz version 14.0.0 (20250921.2048)
 -->
<!-- Title: alloc_and_Compute_f_Coeff Pages: 1 -->
<svg width="286pt" height="64pt"
 viewBox="0.00 0.00 286.00 64.00" xmlns="http://www.w3.org/2000/svg" xmlns:xlink="http://www.w3.org/1999/xlink">
<g id="graph0" class="graph" transform="scale(1 1) rotate(0) translate(4 60.25)">
<title>alloc_and_Compute_f_Coeff</title>
<!-- Node1 -->
<g id="Node000001" class="node">
<title>Node1</title>
<g id="a_Node000001"><a xlink:title=" ">
<polygon fill="#999999" stroke="#666666" points="110.5,-42.88 0,-42.88 0,-12.37 110.5,-12.37 110.5,-42.88"/>
<text xml:space="preserve" text-anchor="start" x="8" y="-29.38" font-family="Helvetica,sans-Serif" font-size="10.00">alloc_and_Compute_f</text>
<text xml:space="preserve" text-anchor="middle" x="55.25" y="-18.12" font-family="Helvetica,sans-Serif" font-size="10.00">_Coeff</text>
</a>
</g>
</g>
<!-- Node2 -->
<g id="Node000002" class="node">
<title>Node2</title>
<g id="a_Node000002"><a xlink:href="../../d3/df0/fcoeff_8c.html#a04bc4a428bf0e2c118083d9030e71354" target="_top" xlink:title=" ">
<polygon fill="white" stroke="#666666" points="201.5,-56.25 146.5,-56.25 146.5,-37 201.5,-37 201.5,-56.25"/>
<text xml:space="preserve" text-anchor="middle" x="174" y="-42.75" font-family="Helvetica,sans-Serif" font-size="10.00">CGCoeff</text>
</a>
</g>
</g>
<!-- Node1&#45;&gt;Node2 -->
<g id="edge1_Node000001_Node000002" class="edge">
<title>Node1&#45;&gt;Node2</title>
<g id="a_edge1_Node000001_Node000002"><a xlink:title=" ">
<path fill="none" stroke="#63b8ff" d="M110.86,-36.51C118.98,-37.83 127.2,-39.17 134.88,-40.42"/>
<polygon fill="#63b8ff" stroke="#63b8ff" points="134.12,-43.84 144.55,-42 135.24,-36.93 134.12,-43.84"/>
</a>
</g>
</g>
<!-- Node3 -->
<g id="Node000003" class="node">
<title>Node3</title>
<g id="a_Node000003"><a xlink:href="../../d3/df0/fcoeff_8c.html#a81d9ee6d93d690e6d46d4646ba608d5c" target="_top" xlink:title=" ">
<polygon fill="white" stroke="#666666" points="194,-19.25 154,-19.25 154,0 194,0 194,-19.25"/>
<text xml:space="preserve" text-anchor="middle" x="174" y="-5.75" font-family="Helvetica,sans-Serif" font-size="10.00">Umat</text>
</a>
</g>
</g>
<!-- Node1&#45;&gt;Node3 -->
<g id="edge2_Node000001_Node000003" class="edge">
<title>Node1&#45;&gt;Node3</title>
<g id="a_edge2_Node000001_Node000003"><a xlink:title=" ">
<path fill="none" stroke="#63b8ff" d="M110.86,-19.2C121.75,-17.53 132.81,-15.82 142.52,-14.32"/>
<polygon fill="#63b8ff" stroke="#63b8ff" points="142.76,-17.83 152.11,-12.85 141.69,-10.91 142.76,-17.83"/>
</a>
</g>
</g>
<!-- Node4 -->
<g id="Node000004" class="node">
<title>Node4</title>
<g id="a_Node000004"><a xlink:href="../../d3/df0/fcoeff_8c.html#a1e1b909d9455dbb18f70edebd569fc28" target="_top" xlink:title=" ">
<polygon fill="white" stroke="#666666" points="277.5,-19.25 237.5,-19.25 237.5,0 277.5,0 277.5,-19.25"/>
<text xml:space="preserve" text-anchor="middle" x="257.5" y="-5.75" font-family="Helvetica,sans-Serif" font-size="10.00">Cmat</text>
</a>
</g>
</g>
<!-- Node3&#45;&gt;Node4 -->
<g id="edge3_Node000003_Node000004" class="edge">
<title>Node3&#45;&gt;Node4</title>
<g id="a_edge3_Node000003_Node000004"><a xlink:title=" ">
<path fill="none" stroke="#63b8ff" d="M194.31,-9.62C203.69,-9.62 215.17,-9.62 225.71,-9.62"/>
<polygon fill="#63b8ff" stroke="#63b8ff" points="225.53,-13.13 235.53,-9.63 225.53,-6.13 225.53,-13.13"/>
</a>
</g>
</g>
</g>
</svg>
