<?xml version="1.0" encoding="UTF-8" standalone="no"?>
<!DOCTYPE svg PUBLIC "-//W3C//DTD SVG 1.1//EN"
 "http://www.w3.org/Graphics/SVG/1.1/DTD/svg11.dtd">
<!-- Generated by graphviz version 14.0.0 (20250921.2048)
 -->
<!-- Title: read_input_file Pages: 1 -->
<svg width="337pt" height="101pt"
 viewBox="0.00 0.00 337.00 101.00" xmlns="http://www.w3.org/2000/svg" xmlns:xlink="http://www.w3.org/1999/xlink">

<svg id="main" version="1.1" xmlns="http://www.w3.org/2000/svg" xmlns:xlink="http://www.w3.org/1999/xlink" xml:space="preserve">

<style type="text/css"><![CDATA[
.node, .edge {opacity: 0.7;}
.node.selected, .edge.selected {opacity: 1;}
.edge:hover path { stroke: red; }
.edge:hover polygon { stroke: red; fill: red; }
]]></style>
<script type="application/ecmascript" xlink:href="../../svg.min.js"/>
<svg id="graph" class="graph">
<g id="graph0" class="graph" transform="scale(1 1) rotate(0) translate(4 97.25)">
<title>read_input_file</title>
<!-- Node1 -->
<g id="Node000001" class="node">
<title>Node1</title>
<g id="a_Node000001"><a xlink:title=" ">
<polygon fill="#999999" stroke="#666666" points="79,-56.25 0,-56.25 0,-37 79,-37 79,-56.25"/>
<text xml:space="preserve" text-anchor="middle" x="39.5" y="-42.75" font-family="Helvetica,sans-Serif" font-size="10.00">read_input_file</text>
</a>
</g>
</g>
<!-- Node2 -->
<g id="Node000002" class="node">
<title>Node2</title>
<g id="a_Node000002"><a xlink:href="../../dc/de1/input__parser_8c.html#a934ffa07d61c39eb100eba6298006980" target="_top" xlink:title=" ">
<polygon fill="white" stroke="#666666" points="206.75,-93.25 115,-93.25 115,-74 206.75,-74 206.75,-93.25"/>
<text xml:space="preserve" text-anchor="middle" x="160.88" y="-79.75" font-family="Helvetica,sans-Serif" font-size="10.00">Bcast_input_data</text>
</a>
</g>
</g>
<!-- Node1&#45;&gt;Node2 -->
<g id="edge1_Node000001_Node000002" class="edge">
<title>Node1&#45;&gt;Node2</title>
<g id="a_edge1_Node000001_Node000002"><a xlink:title=" ">
<path fill="none" stroke="#63b8ff" d="M73.12,-56.74C86.54,-60.9 102.28,-65.77 116.64,-70.23"/>
<polygon fill="#63b8ff" stroke="#63b8ff" points="115.26,-73.46 125.85,-73.08 117.33,-66.78 115.26,-73.46"/>
</a>
</g>
</g>
<!-- Node3 -->
<g id="Node000003" class="node">
<title>Node3</title>
<g id="a_Node000003"><a xlink:href="../../dc/de1/input__parser_8c.html#ad86bf596ba7520fd95858eb079a4ca10" target="_top" xlink:title=" ">
<polygon fill="white" stroke="#666666" points="184.62,-56.25 137.12,-56.25 137.12,-37 184.62,-37 184.62,-56.25"/>
<text xml:space="preserve" text-anchor="middle" x="160.88" y="-42.75" font-family="Helvetica,sans-Serif" font-size="10.00">handler</text>
</a>
</g>
</g>
<!-- Node1&#45;&gt;Node3 -->
<g id="edge2_Node000001_Node000003" class="edge">
<title>Node1&#45;&gt;Node3</title>
<g id="a_edge2_Node000001_Node000003"><a xlink:title=" ">
<path fill="none" stroke="#63b8ff" d="M79.26,-46.62C94.15,-46.62 111.03,-46.62 125.49,-46.62"/>
<polygon fill="#63b8ff" stroke="#63b8ff" points="125.45,-50.13 135.45,-46.63 125.45,-43.13 125.45,-50.13"/>
</a>
</g>
</g>
<!-- Node6 -->
<g id="Node000006" class="node">
<title>Node6</title>
<g id="a_Node000006"><a xlink:href="../../dc/de1/input__parser_8c.html#a99ab8503e1c24a55332a1d447e644a8a" target="_top" xlink:title=" ">
<polygon fill="white" stroke="#666666" points="197.75,-19.25 124,-19.25 124,0 197.75,0 197.75,-19.25"/>
<text xml:space="preserve" text-anchor="middle" x="160.88" y="-5.75" font-family="Helvetica,sans-Serif" font-size="10.00">init_usr_input</text>
</a>
</g>
</g>
<!-- Node1&#45;&gt;Node6 -->
<g id="edge5_Node000001_Node000006" class="edge">
<title>Node1&#45;&gt;Node6</title>
<g id="a_edge5_Node000001_Node000006"><a xlink:title=" ">
<path fill="none" stroke="#63b8ff" d="M73.12,-36.51C86.54,-32.35 102.28,-27.48 116.64,-23.02"/>
<polygon fill="#63b8ff" stroke="#63b8ff" points="117.33,-26.47 125.85,-20.17 115.26,-19.79 117.33,-26.47"/>
</a>
</g>
</g>
<!-- Node4 -->
<g id="Node000004" class="node">
<title>Node4</title>
<g id="a_Node000004"><a xlink:href="../../d5/d6c/string__func_8c.html#afda14833a45e70f3ee1d24d5d59571f5" target="_top" xlink:title=" ">
<polygon fill="white" stroke="#666666" points="324,-56.25 247.25,-56.25 247.25,-37 324,-37 324,-56.25"/>
<text xml:space="preserve" text-anchor="middle" x="285.62" y="-42.75" font-family="Helvetica,sans-Serif" font-size="10.00">lowercase_str</text>
</a>
</g>
</g>
<!-- Node3&#45;&gt;Node4 -->
<g id="edge3_Node000003_Node000004" class="edge">
<title>Node3&#45;&gt;Node4</title>
<g id="a_edge3_Node000003_Node000004"><a xlink:title=" ">
<path fill="none" stroke="#63b8ff" d="M184.96,-46.62C199.32,-46.62 218.33,-46.62 235.89,-46.62"/>
<polygon fill="#63b8ff" stroke="#63b8ff" points="235.65,-50.13 245.65,-46.63 235.65,-43.13 235.65,-50.13"/>
</a>
</g>
</g>
<!-- Node5 -->
<g id="Node000005" class="node">
<title>Node5</title>
<g id="a_Node000005"><a xlink:href="../../d5/d6c/string__func_8c.html#a1a4a6a5319e24099e821a93f83aa124e" target="_top" xlink:title=" ">
<polygon fill="white" stroke="#666666" points="328.5,-19.25 242.75,-19.25 242.75,0 328.5,0 328.5,-19.25"/>
<text xml:space="preserve" text-anchor="middle" x="285.62" y="-5.75" font-family="Helvetica,sans-Serif" font-size="10.00">strncpy_custom</text>
</a>
</g>
</g>
<!-- Node3&#45;&gt;Node5 -->
<g id="edge4_Node000003_Node000005" class="edge">
<title>Node3&#45;&gt;Node5</title>
<g id="a_edge4_Node000003_Node000005"><a xlink:title=" ">
<path fill="none" stroke="#63b8ff" d="M184.96,-39.67C200.56,-34.96 221.66,-28.6 240.43,-22.95"/>
<polygon fill="#63b8ff" stroke="#63b8ff" points="241.43,-26.3 250,-20.06 239.41,-19.6 241.43,-26.3"/>
</a>
</g>
</g>
<!-- Node6&#45;&gt;Node5 -->
<g id="edge6_Node000006_Node000005" class="edge">
<title>Node6&#45;&gt;Node5</title>
<g id="a_edge6_Node000006_Node000005"><a xlink:title=" ">
<path fill="none" stroke="#63b8ff" d="M198.04,-9.62C208.43,-9.62 219.99,-9.62 231.19,-9.62"/>
<polygon fill="#63b8ff" stroke="#63b8ff" points="231.16,-13.13 241.16,-9.63 231.16,-6.13 231.16,-13.13"/>
</a>
</g>
</g>
</g>
</svg>
</svg>

<style type='text/css'>
<![CDATA[
[data-mouse-over-selected='false'] { opacity: 0.7; }
[data-mouse-over-selected='true']  { opacity: 1.0; }
]]>
</style>
<script type="application/ecmascript"><![CDATA[
document.addEventListener('DOMContentLoaded', (event) => {
  highlightEdges();
  highlightAdjacentNodes();
});
]]></script>
</svg>
