<?xml version="1.0" encoding="UTF-8" standalone="no"?>
<!DOCTYPE svg PUBLIC "-//W3C//DTD SVG 1.1//EN"
 "http://www.w3.org/Graphics/SVG/1.1/DTD/svg11.dtd">
<!-- Generated by graphviz version 14.0.0 (20250921.2048)
 -->
<!-- Title: parse_upf Pages: 1 -->
<svg width="331pt" height="101pt"
 viewBox="0.00 0.00 331.00 101.00" xmlns="http://www.w3.org/2000/svg" xmlns:xlink="http://www.w3.org/1999/xlink">
<g id="graph0" class="graph" transform="scale(1 1) rotate(0) translate(4 97.25)">
<title>parse_upf</title>
<!-- Node1 -->
<g id="Node000001" class="node">
<title>Node1</title>
<g id="a_Node000001"><a xlink:title=" ">
<polygon fill="#999999" stroke="#666666" points="58.75,-56.25 0,-56.25 0,-37 58.75,-37 58.75,-56.25"/>
<text xml:space="preserve" text-anchor="middle" x="29.38" y="-42.75" font-family="Helvetica,sans-Serif" font-size="10.00">parse_upf</text>
</a>
</g>
</g>
<!-- Node2 -->
<g id="Node000002" class="node">
<title>Node2</title>
<g id="a_Node000002"><a xlink:href="../../de/d8e/parse__upf_8c.html#a7af3ed3bbdb8a640d1d0dfa1cba76a1e" target="_top" xlink:title=" ">
<polygon fill="white" stroke="#666666" points="179.75,-93.25 94.75,-93.25 94.75,-74 179.75,-74 179.75,-93.25"/>
<text xml:space="preserve" text-anchor="middle" x="137.25" y="-79.75" font-family="Helvetica,sans-Serif" font-size="10.00">get_upf_version</text>
</a>
</g>
</g>
<!-- Node1&#45;&gt;Node2 -->
<g id="edge1_Node000001_Node000002" class="edge">
<title>Node1&#45;&gt;Node2</title>
<g id="a_edge1_Node000001_Node000002"><a xlink:title=" ">
<path fill="none" stroke="#63b8ff" d="M59.03,-56.64C70.68,-60.71 84.33,-65.48 96.9,-69.87"/>
<polygon fill="#63b8ff" stroke="#63b8ff" points="95.55,-73.11 106.15,-73.1 97.86,-66.5 95.55,-73.11"/>
</a>
</g>
</g>
<!-- Node3 -->
<g id="Node000003" class="node">
<title>Node3</title>
<g id="a_Node000003"><a xlink:href="../../de/d8e/parse__upf_8c.html#a5bb745a5bd6890bc2ec19e8def935905" target="_top" xlink:title=" ">
<polygon fill="white" stroke="#666666" points="169.25,-56.25 105.25,-56.25 105.25,-37 169.25,-37 169.25,-56.25"/>
<text xml:space="preserve" text-anchor="middle" x="137.25" y="-42.75" font-family="Helvetica,sans-Serif" font-size="10.00">parse_upf1</text>
</a>
</g>
</g>
<!-- Node1&#45;&gt;Node3 -->
<g id="edge2_Node000001_Node000003" class="edge">
<title>Node1&#45;&gt;Node3</title>
<g id="a_edge2_Node000001_Node000003"><a xlink:title=" ">
<path fill="none" stroke="#63b8ff" d="M59.03,-46.62C69.68,-46.62 82.01,-46.62 93.65,-46.62"/>
<polygon fill="#63b8ff" stroke="#63b8ff" points="93.46,-50.13 103.46,-46.63 93.46,-43.13 93.46,-50.13"/>
</a>
</g>
</g>
<!-- Node5 -->
<g id="Node000005" class="node">
<title>Node5</title>
<g id="a_Node000005"><a xlink:href="../../de/d8e/parse__upf_8c.html#a9cd499b9e6871a1825bf152ef3adc5d2" target="_top" xlink:title=" ">
<polygon fill="white" stroke="#666666" points="169.25,-19.25 105.25,-19.25 105.25,0 169.25,0 169.25,-19.25"/>
<text xml:space="preserve" text-anchor="middle" x="137.25" y="-5.75" font-family="Helvetica,sans-Serif" font-size="10.00">parse_upf2</text>
</a>
</g>
</g>
<!-- Node1&#45;&gt;Node5 -->
<g id="edge4_Node000001_Node000005" class="edge">
<title>Node1&#45;&gt;Node5</title>
<g id="a_edge4_Node000001_Node000005"><a xlink:title=" ">
<path fill="none" stroke="#63b8ff" d="M59.03,-36.61C70.68,-32.54 84.33,-27.77 96.9,-23.38"/>
<polygon fill="#63b8ff" stroke="#63b8ff" points="97.86,-26.75 106.15,-20.15 95.55,-20.14 97.86,-26.75"/>
</a>
</g>
</g>
<!-- Node4 -->
<g id="Node000004" class="node">
<title>Node4</title>
<g id="a_Node000004"><a xlink:href="../../d5/d6c/string__func_8c.html#ae5bc26e2f495a460dc6fdf16717b1a4f" target="_top" xlink:title=" ">
<polygon fill="white" stroke="#666666" points="322.5,-42.88 215.75,-42.88 215.75,-12.37 322.5,-12.37 322.5,-42.88"/>
<text xml:space="preserve" text-anchor="start" x="223.75" y="-29.38" font-family="Helvetica,sans-Serif" font-size="10.00">parser_doubles_from</text>
<text xml:space="preserve" text-anchor="middle" x="269.12" y="-18.12" font-family="Helvetica,sans-Serif" font-size="10.00">_string</text>
</a>
</g>
</g>
<!-- Node3&#45;&gt;Node4 -->
<g id="edge3_Node000003_Node000004" class="edge">
<title>Node3&#45;&gt;Node4</title>
<g id="a_edge3_Node000003_Node000004"><a xlink:title=" ">
<path fill="none" stroke="#63b8ff" d="M169.69,-42.03C180.21,-40.49 192.34,-38.71 204.42,-36.95"/>
<polygon fill="#63b8ff" stroke="#63b8ff" points="204.56,-40.46 213.95,-35.55 203.54,-33.54 204.56,-40.46"/>
</a>
</g>
</g>
<!-- Node5&#45;&gt;Node4 -->
<g id="edge5_Node000005_Node000004" class="edge">
<title>Node5&#45;&gt;Node4</title>
<g id="a_edge5_Node000005_Node000004"><a xlink:title=" ">
<path fill="none" stroke="#63b8ff" d="M169.69,-13.98C180.1,-15.43 192.09,-17.09 204.05,-18.74"/>
<polygon fill="#63b8ff" stroke="#63b8ff" points="203.56,-22.21 213.94,-20.12 204.52,-15.28 203.56,-22.21"/>
</a>
</g>
</g>
</g>
</svg>
