<?xml version="1.0" encoding="UTF-8" standalone="no"?>
<!DOCTYPE svg PUBLIC "-//W3C//DTD SVG 1.1//EN"
 "http://www.w3.org/Graphics/SVG/1.1/DTD/svg11.dtd">
<!-- Generated by graphviz version 14.0.0 (20250921.2048)
 -->
<!-- Title: src/dvloc/dvloc.h Pages: 1 -->
<!--zoomable 94 -->

<svg id="main" version="1.1" xmlns="http://www.w3.org/2000/svg" xmlns:xlink="http://www.w3.org/1999/xlink" xml:space="preserve" onload="init(evt)">

<style type="text/css"><![CDATA[
.node, .edge {opacity: 0.7;}
.node.selected, .edge.selected {opacity: 1;}
.edge:hover path { stroke: red; }
.edge:hover polygon { stroke: red; fill: red; }
]]></style>

<defs>
  <circle id="rim" cx="0" cy="0" r="7"/>
  <circle id="rim2" cx="0" cy="0" r="3.5"/>
  <g id="zoomPlus">
    <use xlink:href="#rim" fill="#404040"><set attributeName="fill" to="#808080" begin="zoomplus.mouseover" end="zoomplus.mouseout"/></use>
    <path d="M-4,0h8M0,-4v8" fill="none" stroke="white" stroke-width="1.5" pointer-events="none"/>
  </g>
  <g id="zoomMin">
    <use xlink:href="#rim" fill="#404040"><set attributeName="fill" to="#808080" begin="zoomminus.mouseover" end="zoomminus.mouseout"/></use>
    <path d="M-4,0h8" fill="none" stroke="white" stroke-width="1.5" pointer-events="none"/>
  </g>
  <g id="arrowUp" transform="translate(30 24)">
    <use xlink:href="#rim"/>
    <path pointer-events="none" fill="none" stroke="white" stroke-width="1.5" d="M0,-3.0v7 M-2.5,-0.5L0,-3.0L2.5,-0.5"/>
  </g>
  <g id="arrowRight" transform="rotate(90) translate(36 -43)">
    <use xlink:href="#rim"/>
    <path pointer-events="none" fill="none" stroke="white" stroke-width="1.5" d="M0,-3.0v7 M-2.5,-0.5L0,-3.0L2.5,-0.5"/>
  </g>
  <g id="arrowDown" transform="rotate(180) translate(-30 -48)">
    <use xlink:href="#rim"/>
    <path pointer-events="none" fill="none" stroke="white" stroke-width="1.5" d="M0,-3.0v7 M-2.5,-0.5L0,-3.0L2.5,-0.5"/>
  </g>
  <g id="arrowLeft" transform="rotate(270) translate(-36 17)">
    <use xlink:href="#rim"/>
    <path pointer-events="none" fill="none" stroke="white" stroke-width="1.5" d="M0,-3.0v7 M-2.5,-0.5L0,-3.0L2.5,-0.5"/>
  </g>
  <g id="resetDef">
    <use xlink:href="#rim2" fill="#404040"><set attributeName="fill" to="#808080" begin="reset.mouseover" end="reset.mouseout"/></use>
  </g>
</defs>
<script type="application/ecmascript">
var viewWidth = 1722;
var viewHeight = 94;
var sectionId = 'dynsection-1';
</script>
<script type="application/ecmascript" xlink:href="../../svg.min.js"/>
<svg id="graph" class="graph">
<g id="viewport">
<title>src/dvloc/dvloc.h</title>
<!-- Node1 -->
<g id="Node000001" class="node">
<title>Node1</title>
<g id="a_Node000001"><a xlink:title=" ">
<polygon fill="#999999" stroke="#666666" points="908.62,-85.75 818.38,-85.75 818.38,-66.5 908.62,-66.5 908.62,-85.75"/>
<text xml:space="preserve" text-anchor="middle" x="863.5" y="-72.25" font-family="Helvetica,sans-Serif" font-size="10.00">src/dvloc/dvloc.h</text>
</a>
</g>
</g>
<!-- Node2 -->
<g id="Node000002" class="node">
<title>Node2</title>
<g id="a_Node000002"><a xlink:href="../../d7/d4b/_vloc_g__atom_8c.html" target="_top" xlink:title=" ">
<polygon fill="white" stroke="#666666" points="121,-24.88 0,-24.88 0,-5.63 121,-5.63 121,-24.88"/>
<text xml:space="preserve" text-anchor="middle" x="60.5" y="-11.38" font-family="Helvetica,sans-Serif" font-size="10.00">src/dvloc/VlocG_atom.c</text>
</a>
</g>
</g>
<!-- Node1&#45;&gt;Node2 -->
<g id="edge1_Node000001_Node000002" class="edge">
<title>Node1&#45;&gt;Node2</title>
<g id="a_edge1_Node000001_Node000002"><a xlink:title=" ">
<path fill="none" stroke="#63b8ff" d="M806.87,-74.37C683.46,-72.15 381.22,-63.49 130.5,-30.5 120.66,-29.21 110.14,-27.33 100.32,-25.36"/>
<polygon fill="#63b8ff" stroke="#63b8ff" points="806.68,-77.87 816.74,-74.54 806.8,-70.87 806.68,-77.87"/>
</a>
</g>
</g>
<!-- Node3 -->
<g id="Node000003" class="node">
<title>Node3</title>
<g id="a_Node000003"><a xlink:href="../../d5/d46/add__dvscf_8c.html" target="_top" xlink:title=" ">
<polygon fill="white" stroke="#666666" points="251.5,-24.88 139.5,-24.88 139.5,-5.63 251.5,-5.63 251.5,-24.88"/>
<text xml:space="preserve" text-anchor="middle" x="195.5" y="-11.38" font-family="Helvetica,sans-Serif" font-size="10.00">src/dvloc/add_dvscf.c</text>
</a>
</g>
</g>
<!-- Node1&#45;&gt;Node3 -->
<g id="edge2_Node000001_Node000003" class="edge">
<title>Node1&#45;&gt;Node3</title>
<g id="a_edge2_Node000001_Node000003"><a xlink:title=" ">
<path fill="none" stroke="#63b8ff" d="M806.76,-73.61C699.53,-70.15 459.99,-59.6 260.5,-30.5 251.35,-29.17 241.58,-27.27 232.46,-25.3"/>
<polygon fill="#63b8ff" stroke="#63b8ff" points="806.64,-77.11 816.74,-73.92 806.85,-70.11 806.64,-77.11"/>
</a>
</g>
</g>
<!-- Node4 -->
<g id="Node000004" class="node">
<title>Node4</title>
<g id="a_Node000004"><a xlink:href="../../d1/d8e/compute___vbare__loc_8c.html" target="_top" xlink:title=" ">
<polygon fill="white" stroke="#666666" points="397,-30.5 270,-30.5 270,0 397,0 397,-30.5"/>
<text xml:space="preserve" text-anchor="start" x="278" y="-17" font-family="Helvetica,sans-Serif" font-size="10.00">src/dvloc/compute_Vbare</text>
<text xml:space="preserve" text-anchor="middle" x="333.5" y="-5.75" font-family="Helvetica,sans-Serif" font-size="10.00">_loc.c</text>
</a>
</g>
</g>
<!-- Node1&#45;&gt;Node4 -->
<g id="edge3_Node000001_Node000004" class="edge">
<title>Node1&#45;&gt;Node4</title>
<g id="a_edge3_Node000001_Node000004"><a xlink:title=" ">
<path fill="none" stroke="#63b8ff" d="M806.72,-71.4C719.94,-65.29 549.26,-51.68 405.5,-30.5 402.85,-30.11 400.16,-29.69 397.43,-29.24"/>
<polygon fill="#63b8ff" stroke="#63b8ff" points="806.41,-74.88 816.63,-72.08 806.9,-67.9 806.41,-74.88"/>
</a>
</g>
</g>
<!-- Node5 -->
<g id="Node000005" class="node">
<title>Node5</title>
<g id="a_Node000005"><a xlink:href="../../d9/d90/d_vbare__loc_8c.html" target="_top" xlink:title=" ">
<polygon fill="white" stroke="#666666" points="530.38,-24.88 414.62,-24.88 414.62,-5.63 530.38,-5.63 530.38,-24.88"/>
<text xml:space="preserve" text-anchor="middle" x="472.5" y="-11.38" font-family="Helvetica,sans-Serif" font-size="10.00">src/dvloc/dVbare_loc.c</text>
</a>
</g>
</g>
<!-- Node1&#45;&gt;Node5 -->
<g id="edge4_Node000001_Node000005" class="edge">
<title>Node1&#45;&gt;Node5</title>
<g id="a_edge4_Node000001_Node000005"><a xlink:title=" ">
<path fill="none" stroke="#63b8ff" d="M806.81,-68.58C741.98,-60.81 632.76,-46.82 539.5,-30.5 530.83,-28.98 521.58,-27.15 512.8,-25.32"/>
<polygon fill="#63b8ff" stroke="#63b8ff" points="806.15,-72.03 816.49,-69.74 806.98,-65.08 806.15,-72.03"/>
</a>
</g>
</g>
<!-- Node6 -->
<g id="Node000006" class="node">
<title>Node6</title>
<g id="a_Node000006"><a xlink:href="../../d9/def/d_vlong__range__kernel_8c.html" target="_top" xlink:title=" ">
<polygon fill="white" stroke="#666666" points="666.5,-30.5 548.5,-30.5 548.5,0 666.5,0 666.5,-30.5"/>
<text xml:space="preserve" text-anchor="start" x="556.5" y="-17" font-family="Helvetica,sans-Serif" font-size="10.00">src/dvloc/dVlong_range</text>
<text xml:space="preserve" text-anchor="middle" x="607.5" y="-5.75" font-family="Helvetica,sans-Serif" font-size="10.00">_kernel.c</text>
</a>
</g>
</g>
<!-- Node1&#45;&gt;Node6 -->
<g id="edge5_Node000001_Node000006" class="edge">
<title>Node1&#45;&gt;Node6</title>
<g id="a_edge5_Node000001_Node000006"><a xlink:title=" ">
<path fill="none" stroke="#63b8ff" d="M812.99,-63.51C771.03,-53.86 711.25,-40.11 666.98,-29.93"/>
<polygon fill="#63b8ff" stroke="#63b8ff" points="812.06,-66.89 822.59,-65.72 813.62,-60.06 812.06,-66.89"/>
</a>
</g>
</g>
<!-- Node7 -->
<g id="Node000007" class="node">
<title>Node7</title>
<g id="a_Node000007"><a xlink:href="../../d1/d94/d_vpot__add__long__range_8c.html" target="_top" xlink:title=" ">
<polygon fill="white" stroke="#666666" points="790.12,-30.5 684.88,-30.5 684.88,0 790.12,0 790.12,-30.5"/>
<text xml:space="preserve" text-anchor="start" x="692.88" y="-17" font-family="Helvetica,sans-Serif" font-size="10.00">src/dvloc/dVpot_add</text>
<text xml:space="preserve" text-anchor="middle" x="737.5" y="-5.75" font-family="Helvetica,sans-Serif" font-size="10.00">_long_range.c</text>
</a>
</g>
</g>
<!-- Node1&#45;&gt;Node7 -->
<g id="edge6_Node000001_Node000007" class="edge">
<title>Node1&#45;&gt;Node7</title>
<g id="a_edge6_Node000001_Node000007"><a xlink:title=" ">
<path fill="none" stroke="#63b8ff" d="M833.66,-61.18C814.17,-52.08 788.76,-40.2 768.95,-30.94"/>
<polygon fill="#63b8ff" stroke="#63b8ff" points="832.18,-64.35 842.72,-65.41 835.14,-58.01 832.18,-64.35"/>
</a>
</g>
</g>
<!-- Node8 -->
<g id="Node000008" class="node">
<title>Node8</title>
<g id="a_Node000008"><a xlink:href="../../d9/d66/dvscf__basis__rotation_8c.html" target="_top" xlink:title=" ">
<polygon fill="white" stroke="#666666" points="919.12,-30.5 807.88,-30.5 807.88,0 919.12,0 919.12,-30.5"/>
<text xml:space="preserve" text-anchor="start" x="815.88" y="-17" font-family="Helvetica,sans-Serif" font-size="10.00">src/dvloc/dvscf_basis</text>
<text xml:space="preserve" text-anchor="middle" x="863.5" y="-5.75" font-family="Helvetica,sans-Serif" font-size="10.00">_rotation.c</text>
</a>
</g>
</g>
<!-- Node1&#45;&gt;Node8 -->
<g id="edge7_Node000001_Node000008" class="edge">
<title>Node1&#45;&gt;Node8</title>
<g id="a_edge7_Node000001_Node000008"><a xlink:title=" ">
<path fill="none" stroke="#63b8ff" d="M863.5,-54.92C863.5,-46.99 863.5,-38.06 863.5,-30.78"/>
<polygon fill="#63b8ff" stroke="#63b8ff" points="860,-54.67 863.5,-64.67 867,-54.67 860,-54.67"/>
</a>
</g>
</g>
<!-- Node9 -->
<g id="Node000009" class="node">
<title>Node9</title>
<g id="a_Node000009"><a xlink:href="../../d4/dd4/multiply__eikr_8c.html" target="_top" xlink:title=" ">
<polygon fill="white" stroke="#666666" points="1029.75,-30.5 937.25,-30.5 937.25,0 1029.75,0 1029.75,-30.5"/>
<text xml:space="preserve" text-anchor="start" x="945.25" y="-17" font-family="Helvetica,sans-Serif" font-size="10.00">src/dvloc/multiply</text>
<text xml:space="preserve" text-anchor="middle" x="983.5" y="-5.75" font-family="Helvetica,sans-Serif" font-size="10.00">_eikr.c</text>
</a>
</g>
</g>
<!-- Node1&#45;&gt;Node9 -->
<g id="edge8_Node000001_Node000009" class="edge">
<title>Node1&#45;&gt;Node9</title>
<g id="a_edge8_Node000001_Node000009"><a xlink:title=" ">
<path fill="none" stroke="#63b8ff" d="M892.17,-61.06C910.7,-51.97 934.77,-40.16 953.55,-30.94"/>
<polygon fill="#63b8ff" stroke="#63b8ff" points="890.78,-57.84 883.35,-65.39 893.87,-64.13 890.78,-57.84"/>
</a>
</g>
</g>
<!-- Node10 -->
<g id="Node000010" class="node">
<title>Node10</title>
<g id="a_Node000010"><a xlink:href="../../d9/db9/vlocg__table_8c.html" target="_top" xlink:title=" ">
<polygon fill="white" stroke="#666666" points="1164.75,-24.88 1048.25,-24.88 1048.25,-5.63 1164.75,-5.63 1164.75,-24.88"/>
<text xml:space="preserve" text-anchor="middle" x="1106.5" y="-11.38" font-family="Helvetica,sans-Serif" font-size="10.00">src/dvloc/vlocg_table.c</text>
</a>
</g>
</g>
<!-- Node1&#45;&gt;Node10 -->
<g id="edge9_Node000001_Node000010" class="edge">
<title>Node1&#45;&gt;Node10</title>
<g id="a_edge9_Node000001_Node000010"><a xlink:title=" ">
<path fill="none" stroke="#63b8ff" d="M911.88,-63.4C958.11,-52.2 1026.82,-35.56 1069.02,-25.33"/>
<polygon fill="#63b8ff" stroke="#63b8ff" points="911.3,-59.94 902.41,-65.7 912.95,-66.75 911.3,-59.94"/>
</a>
</g>
</g>
<!-- Node11 -->
<g id="Node000011" class="node">
<title>Node11</title>
<g id="a_Node000011"><a xlink:href="../../d5/dd2/compute__elph__matq_8c.html" target="_top" xlink:title=" ">
<polygon fill="white" stroke="#666666" points="1296.62,-30.5 1182.38,-30.5 1182.38,0 1296.62,0 1296.62,-30.5"/>
<text xml:space="preserve" text-anchor="start" x="1190.38" y="-17" font-family="Helvetica,sans-Serif" font-size="10.00">src/elph/compute_elph</text>
<text xml:space="preserve" text-anchor="middle" x="1239.5" y="-5.75" font-family="Helvetica,sans-Serif" font-size="10.00">_matq.c</text>
</a>
</g>
</g>
<!-- Node1&#45;&gt;Node11 -->
<g id="edge10_Node000001_Node000011" class="edge">
<title>Node1&#45;&gt;Node11</title>
<g id="a_edge10_Node000001_Node000011"><a xlink:title=" ">
<path fill="none" stroke="#63b8ff" d="M920.25,-68.16C982.55,-60.24 1085.46,-46.32 1173.5,-30.5 1176.27,-30 1179.1,-29.47 1181.95,-28.92"/>
<polygon fill="#63b8ff" stroke="#63b8ff" points="920.08,-64.66 910.6,-69.38 920.96,-71.6 920.08,-64.66"/>
</a>
</g>
</g>
<!-- Node12 -->
<g id="Node000012" class="node">
<title>Node12</title>
<g id="a_Node000012"><a xlink:href="../../da/d2e/elph__driver_8c.html" target="_top" xlink:title=" ">
<polygon fill="white" stroke="#666666" points="1422.62,-24.88 1314.38,-24.88 1314.38,-5.63 1422.62,-5.63 1422.62,-24.88"/>
<text xml:space="preserve" text-anchor="middle" x="1368.5" y="-11.38" font-family="Helvetica,sans-Serif" font-size="10.00">src/elph/elph_driver.c</text>
</a>
</g>
</g>
<!-- Node1&#45;&gt;Node12 -->
<g id="edge11_Node000001_Node000012" class="edge">
<title>Node1&#45;&gt;Node12</title>
<g id="a_edge11_Node000001_Node000012"><a xlink:title=" ">
<path fill="none" stroke="#63b8ff" d="M920.29,-71.61C1004.7,-65.89 1168.09,-52.89 1305.5,-30.5 1314.02,-29.11 1323.12,-27.27 1331.67,-25.37"/>
<polygon fill="#63b8ff" stroke="#63b8ff" points="920.17,-68.11 910.43,-72.27 920.64,-75.1 920.17,-68.11"/>
</a>
</g>
</g>
<!-- Node13 -->
<g id="Node000013" class="node">
<title>Node13</title>
<g id="a_Node000013"><a xlink:href="../../da/dc2/interpolation__driver_8c.html" target="_top" xlink:title=" ">
<polygon fill="white" stroke="#666666" points="1580.75,-30.5 1440.25,-30.5 1440.25,0 1580.75,0 1580.75,-30.5"/>
<text xml:space="preserve" text-anchor="start" x="1448.25" y="-17" font-family="Helvetica,sans-Serif" font-size="10.00">src/interpolation/interpolation</text>
<text xml:space="preserve" text-anchor="middle" x="1510.5" y="-5.75" font-family="Helvetica,sans-Serif" font-size="10.00">_driver.c</text>
</a>
</g>
</g>
<!-- Node1&#45;&gt;Node13 -->
<g id="edge12_Node000001_Node000013" class="edge">
<title>Node1&#45;&gt;Node13</title>
<g id="a_edge12_Node000001_Node000013"><a xlink:title=" ">
<path fill="none" stroke="#63b8ff" d="M920.24,-72.55C1022.68,-67.48 1245.18,-54.56 1431.5,-30.5 1434.26,-30.14 1437.08,-29.75 1439.92,-29.34"/>
<polygon fill="#63b8ff" stroke="#63b8ff" points="920.27,-69.04 910.45,-73.03 920.61,-76.04 920.27,-69.04"/>
</a>
</g>
</g>
<!-- Node14 -->
<g id="Node000014" class="node">
<title>Node14</title>
<g id="a_Node000014"><a xlink:href="../../da/d77/get__save__data_8c.html" target="_top" xlink:title=" ">
<polygon fill="white" stroke="#666666" points="1714,-24.88 1599,-24.88 1599,-5.63 1714,-5.63 1714,-24.88"/>
<text xml:space="preserve" text-anchor="middle" x="1656.5" y="-11.38" font-family="Helvetica,sans-Serif" font-size="10.00">src/io/get_save_data.c</text>
</a>
</g>
</g>
<!-- Node1&#45;&gt;Node14 -->
<g id="edge13_Node000001_Node000014" class="edge">
<title>Node1&#45;&gt;Node14</title>
<g id="a_edge13_Node000001_Node000014"><a xlink:title=" ">
<path fill="none" stroke="#63b8ff" d="M920.06,-74.49C1042.61,-72.51 1341.62,-64.29 1589.5,-30.5 1598.93,-29.22 1609,-27.34 1618.41,-25.37"/>
<polygon fill="#63b8ff" stroke="#63b8ff" points="920.21,-70.99 910.27,-74.65 920.32,-77.99 920.21,-70.99"/>
</a>
</g>
</g>
</g>
</svg>

<g id="navigator" transform="translate(0 0)" fill="#404254">
  <rect fill="#f2f5e9" fill-opacity="0.5" stroke="#606060" stroke-width=".5" x="0" y="0" width="60" height="60"/>
  <use id="zoomplus" xlink:href="#zoomPlus" x="17" y="9" onmousedown="handleZoom(evt,'in')"/>
  <use id="zoomminus" xlink:href="#zoomMin" x="42" y="9" onmousedown="handleZoom(evt,'out')"/>
  <use id="reset" xlink:href="#resetDef" x="30" y="36" onmousedown="handleReset()"/>
   <use id="arrowup" xlink:href="#arrowUp" x="0" y="0" onmousedown="handlePan(0,-1)"/>
  <use id="arrowright" xlink:href="#arrowRight" x="0" y="0" onmousedown="handlePan(1,0)"/>
  <use id="arrowdown" xlink:href="#arrowDown" x="0" y="0" onmousedown="handlePan(0,1)"/>
  <use id="arrowleft" xlink:href="#arrowLeft" x="0" y="0" onmousedown="handlePan(-1,0)"/>
</g>
<svg viewBox="0 0 15 15" width="100%" height="30px" preserveAspectRatio="xMaxYMin meet">
 <g id="arrow_out" transform="scale(0.3 0.3)">
  <a xlink:href="dvloc_8h__dep__incl_org.svg" target="_base">
   <rect id="button" ry="5" rx="5" y="6" x="6" height="38" width="38"
        fill="#f2f5e9" fill-opacity="0.5" stroke="#606060" stroke-width="1.0"/>
   <path id="arrow"
     d="M 11.500037,31.436501 C 11.940474,20.09759 22.043105,11.32322 32.158766,21.979434 L 37.068811,17.246167 C 37.068811,17.246167 37.088388,32 37.088388,32 L 22.160133,31.978069 C 22.160133,31.978069 26.997745,27.140456 26.997745,27.140456 C 18.528582,18.264221 13.291696,25.230495 11.500037,31.436501 z"
     style="fill:#404040;"/>
  </a>
 </g>
</svg>

<style type='text/css'>
<![CDATA[
[data-mouse-over-selected='false'] { opacity: 0.7; }
[data-mouse-over-selected='true']  { opacity: 1.0; }
]]>
</style>
<script type="application/ecmascript"><![CDATA[
document.addEventListener('DOMContentLoaded', (event) => {
  highlightEdges();
  highlightAdjacentNodes();
});
]]></script>
</svg>
