<?xml version="1.0" encoding="UTF-8" standalone="no"?>
<!DOCTYPE svg PUBLIC "-//W3C//DTD SVG 1.1//EN"
 "http://www.w3.org/Graphics/SVG/1.1/DTD/svg11.dtd">
<!-- Generated by graphviz version 14.0.0 (20250921.2048)
 -->
<!-- Title: rotate_dvscf Pages: 1 -->
<svg width="307pt" height="119pt"
 viewBox="0.00 0.00 307.00 119.00" xmlns="http://www.w3.org/2000/svg" xmlns:xlink="http://www.w3.org/1999/xlink">
<g id="graph0" class="graph" transform="scale(1 1) rotate(0) translate(4 115.25)">
<title>rotate_dvscf</title>
<!-- Node1 -->
<g id="Node000001" class="node">
<title>Node1</title>
<g id="a_Node000001"><a xlink:title=" ">
<polygon fill="#999999" stroke="#666666" points="70,-74.25 0,-74.25 0,-55 70,-55 70,-74.25"/>
<text xml:space="preserve" text-anchor="middle" x="35" y="-60.75" font-family="Helvetica,sans-Serif" font-size="10.00">rotate_dvscf</text>
</a>
</g>
</g>
<!-- Node2 -->
<g id="Node000002" class="node">
<title>Node2</title>
<g id="a_Node000002"><a xlink:href="../../de/d2d/numerical__func_8c.html#af511a32007a9865999d8bcf06cfff1dc" target="_top" xlink:title=" ">
<polygon fill="white" stroke="#666666" points="170,-111.25 106,-111.25 106,-92 170,-92 170,-111.25"/>
<text xml:space="preserve" text-anchor="middle" x="138" y="-97.75" font-family="Helvetica,sans-Serif" font-size="10.00">Gemm3x3f</text>
</a>
</g>
</g>
<!-- Node1&#45;&gt;Node2 -->
<g id="edge1_Node000001_Node000002" class="edge">
<title>Node1&#45;&gt;Node2</title>
<g id="a_edge1_Node000001_Node000002"><a xlink:title=" ">
<path fill="none" stroke="#63b8ff" d="M63.6,-74.74C74.4,-78.69 86.97,-83.3 98.63,-87.57"/>
<polygon fill="#63b8ff" stroke="#63b8ff" points="97.42,-90.85 108.01,-91.01 99.83,-84.28 97.42,-90.85"/>
</a>
</g>
</g>
<!-- Node3 -->
<g id="Node000003" class="node">
<title>Node3</title>
<g id="a_Node000003"><a xlink:href="../../de/d2d/numerical__func_8c.html#adeeb2c0049b8e3663d2d2cc9f7a1cd23" target="_top" xlink:title=" ">
<polygon fill="white" stroke="#666666" points="167,-74.25 109,-74.25 109,-55 167,-55 167,-74.25"/>
<text xml:space="preserve" text-anchor="middle" x="138" y="-60.75" font-family="Helvetica,sans-Serif" font-size="10.00">MatVec3f</text>
</a>
</g>
</g>
<!-- Node1&#45;&gt;Node3 -->
<g id="edge2_Node000001_Node000003" class="edge">
<title>Node1&#45;&gt;Node3</title>
<g id="a_edge2_Node000001_Node000003"><a xlink:title=" ">
<path fill="none" stroke="#63b8ff" d="M70.48,-64.62C79.14,-64.62 88.5,-64.62 97.39,-64.62"/>
<polygon fill="#63b8ff" stroke="#63b8ff" points="97.2,-68.13 107.2,-64.63 97.2,-61.13 97.2,-68.13"/>
</a>
</g>
</g>
<!-- Node4 -->
<g id="Node000004" class="node">
<title>Node4</title>
<g id="a_Node000004"><a xlink:href="../../dc/d77/su2mat_8c.html#a54f9aa61f40686918a52909936a101af" target="_top" xlink:title=" ">
<polygon fill="white" stroke="#666666" points="164,-37.25 112,-37.25 112,-18 164,-18 164,-37.25"/>
<text xml:space="preserve" text-anchor="middle" x="138" y="-23.75" font-family="Helvetica,sans-Serif" font-size="10.00">SU2mat</text>
</a>
</g>
</g>
<!-- Node1&#45;&gt;Node4 -->
<g id="edge3_Node000001_Node000004" class="edge">
<title>Node1&#45;&gt;Node4</title>
<g id="a_edge3_Node000001_Node000004"><a xlink:title=" ">
<path fill="none" stroke="#63b8ff" d="M63.6,-54.51C75.05,-50.32 88.49,-45.4 100.72,-40.92"/>
<polygon fill="#63b8ff" stroke="#63b8ff" points="101.91,-44.21 110.09,-37.48 99.5,-37.64 101.91,-44.21"/>
</a>
</g>
</g>
<!-- Node5 -->
<g id="Node000005" class="node">
<title>Node5</title>
<g id="a_Node000005"><a xlink:href="../../de/d2d/numerical__func_8c.html#af7b464a965e184f893290a977a66c9d1" target="_top" xlink:title=" ">
<polygon fill="white" stroke="#666666" points="274.88,-56.25 229.62,-56.25 229.62,-37 274.88,-37 274.88,-56.25"/>
<text xml:space="preserve" text-anchor="middle" x="252.25" y="-42.75" font-family="Helvetica,sans-Serif" font-size="10.00">det3x3</text>
</a>
</g>
</g>
<!-- Node4&#45;&gt;Node5 -->
<g id="edge4_Node000004_Node000005" class="edge">
<title>Node4&#45;&gt;Node5</title>
<g id="a_edge4_Node000004_Node000005"><a xlink:title=" ">
<path fill="none" stroke="#63b8ff" d="M164.47,-31.94C180.34,-34.62 200.93,-38.11 218.07,-41.01"/>
<polygon fill="#63b8ff" stroke="#63b8ff" points="217.35,-44.44 227.8,-42.66 218.52,-37.54 217.35,-44.44"/>
</a>
</g>
</g>
<!-- Node6 -->
<g id="Node000006" class="node">
<title>Node6</title>
<g id="a_Node000006"><a xlink:href="../../de/d2d/numerical__func_8c.html#a5cb6a4677901df82939f3bb08fe1e5de" target="_top" xlink:title=" ">
<polygon fill="white" stroke="#666666" points="298.5,-19.25 206,-19.25 206,0 298.5,0 298.5,-19.25"/>
<text xml:space="preserve" text-anchor="middle" x="252.25" y="-5.75" font-family="Helvetica,sans-Serif" font-size="10.00">matmul_Cmpl2x2</text>
</a>
</g>
</g>
<!-- Node4&#45;&gt;Node6 -->
<g id="edge5_Node000004_Node000006" class="edge">
<title>Node4&#45;&gt;Node6</title>
<g id="a_edge5_Node000004_Node000006"><a xlink:title=" ">
<path fill="none" stroke="#63b8ff" d="M164.47,-23.54C173.4,-22.11 183.83,-20.44 194.29,-18.76"/>
<polygon fill="#63b8ff" stroke="#63b8ff" points="194.77,-22.23 204.09,-17.19 193.67,-15.31 194.77,-22.23"/>
</a>
</g>
</g>
</g>
</svg>
