<?xml version="1.0" encoding="UTF-8" standalone="no"?>
<!DOCTYPE svg PUBLIC "-//W3C//DTD SVG 1.1//EN"
 "http://www.w3.org/Graphics/SVG/1.1/DTD/svg11.dtd">
<!-- Generated by graphviz version 14.0.0 (20250921.2048)
 -->
<!-- Title: distribute_to_grps Pages: 1 -->
<svg width="443pt" height="64pt"
 viewBox="0.00 0.00 443.00 64.00" xmlns="http://www.w3.org/2000/svg" xmlns:xlink="http://www.w3.org/1999/xlink">

<svg id="main" version="1.1" xmlns="http://www.w3.org/2000/svg" xmlns:xlink="http://www.w3.org/1999/xlink" xml:space="preserve">

<style type="text/css"><![CDATA[
.node, .edge {opacity: 0.7;}
.node.selected, .edge.selected {opacity: 1;}
.edge:hover path { stroke: red; }
.edge:hover polygon { stroke: red; fill: red; }
]]></style>
<script type="application/ecmascript" xlink:href="../../svg.min.js"/>
<svg id="graph" class="graph">
<g id="graph0" class="graph" transform="scale(1 1) rotate(0) translate(4 60.25)">
<title>distribute_to_grps</title>
<!-- Node1 -->
<g id="Node000001" class="node">
<title>Node1</title>
<g id="a_Node000001"><a xlink:title=" ">
<polygon fill="#999999" stroke="#666666" points="434.5,-37.25 341.25,-37.25 341.25,-18 434.5,-18 434.5,-37.25"/>
<text xml:space="preserve" text-anchor="middle" x="387.88" y="-23.75" font-family="Helvetica,sans-Serif" font-size="10.00">distribute_to_grps</text>
</a>
</g>
</g>
<!-- Node2 -->
<g id="Node000002" class="node">
<title>Node2</title>
<g id="a_Node000002"><a xlink:href="../../d5/d9f/compute__dmats_8c.html#aceeb11551c1d6413e6d4b5cae9704493" target="_top" xlink:title=" ">
<polygon fill="white" stroke="#666666" points="305.25,-56.25 172.25,-56.25 172.25,-37 305.25,-37 305.25,-56.25"/>
<text xml:space="preserve" text-anchor="middle" x="238.75" y="-42.75" font-family="Helvetica,sans-Serif" font-size="10.00">compute_and_write_dmats</text>
</a>
</g>
</g>
<!-- Node1&#45;&gt;Node2 -->
<g id="edge1_Node000001_Node000002" class="edge">
<title>Node1&#45;&gt;Node2</title>
<g id="a_edge1_Node000001_Node000002"><a xlink:title=" ">
<path fill="none" stroke="#63b8ff" d="M329.8,-35C321.91,-36.01 313.76,-37.07 305.72,-38.11"/>
<polygon fill="#63b8ff" stroke="#63b8ff" points="330.16,-38.48 339.63,-33.73 329.26,-31.54 330.16,-38.48"/>
</a>
</g>
</g>
<!-- Node5 -->
<g id="Node000005" class="node">
<title>Node5</title>
<g id="a_Node000005"><a xlink:href="../../d5/dd2/compute__elph__matq_8c.html#ad32ab6f17a3745b7f82151d7f5b927f2" target="_top" xlink:title=" ">
<polygon fill="white" stroke="#666666" points="303.38,-19.25 174.12,-19.25 174.12,0 303.38,0 303.38,-19.25"/>
<text xml:space="preserve" text-anchor="middle" x="238.75" y="-5.75" font-family="Helvetica,sans-Serif" font-size="10.00">compute_and_write_elphq</text>
</a>
</g>
</g>
<!-- Node1&#45;&gt;Node5 -->
<g id="edge4_Node000001_Node000005" class="edge">
<title>Node1&#45;&gt;Node5</title>
<g id="a_edge4_Node000001_Node000005"><a xlink:title=" ">
<path fill="none" stroke="#63b8ff" d="M329.78,-20.64C321.28,-19.6 312.47,-18.52 303.83,-17.47"/>
<polygon fill="#63b8ff" stroke="#63b8ff" points="329.28,-24.1 339.63,-21.84 330.13,-17.16 329.28,-24.1"/>
</a>
</g>
</g>
<!-- Node3 -->
<g id="Node000003" class="node">
<title>Node3</title>
<g id="a_Node000003"><a xlink:href="../../da/d2e/elph__driver_8c.html#ad9f405d41cf090d652dbe1307700665f" target="_top" xlink:title=" ">
<polygon fill="white" stroke="#666666" points="136.25,-37.25 73,-37.25 73,-18 136.25,-18 136.25,-37.25"/>
<text xml:space="preserve" text-anchor="middle" x="104.62" y="-23.75" font-family="Helvetica,sans-Serif" font-size="10.00">elph_driver</text>
</a>
</g>
</g>
<!-- Node2&#45;&gt;Node3 -->
<g id="edge2_Node000002_Node000003" class="edge">
<title>Node2&#45;&gt;Node3</title>
<g id="a_edge2_Node000002_Node000003"><a xlink:title=" ">
<path fill="none" stroke="#63b8ff" d="M160.75,-35.55C152.21,-34.32 143.92,-33.13 136.48,-32.06"/>
<polygon fill="#63b8ff" stroke="#63b8ff" points="160.18,-39.01 170.58,-36.97 161.18,-32.08 160.18,-39.01"/>
</a>
</g>
</g>
<!-- Node4 -->
<g id="Node000004" class="node">
<title>Node4</title>
<g id="a_Node000004"><a xlink:href="../../d3/dd5/main__elph_c_8c.html#a0ddf1224851353fc92bfbff6f499fa97" target="_top" xlink:title="Main program entry point.">
<polygon fill="white" stroke="#666666" points="37,-37.25 0,-37.25 0,-18 37,-18 37,-37.25"/>
<text xml:space="preserve" text-anchor="middle" x="18.5" y="-23.75" font-family="Helvetica,sans-Serif" font-size="10.00">main</text>
</a>
</g>
</g>
<!-- Node3&#45;&gt;Node4 -->
<g id="edge3_Node000003_Node000004" class="edge">
<title>Node3&#45;&gt;Node4</title>
<g id="a_edge3_Node000003_Node000004"><a xlink:title=" ">
<path fill="none" stroke="#63b8ff" d="M61.27,-27.62C52.74,-27.62 44.23,-27.62 37.14,-27.62"/>
<polygon fill="#63b8ff" stroke="#63b8ff" points="61.26,-31.13 71.26,-27.63 61.26,-24.13 61.26,-31.13"/>
</a>
</g>
</g>
<!-- Node5&#45;&gt;Node3 -->
<g id="edge5_Node000005_Node000003" class="edge">
<title>Node5&#45;&gt;Node3</title>
<g id="a_edge5_Node000005_Node000003"><a xlink:title=" ">
<path fill="none" stroke="#63b8ff" d="M162.7,-19.85C153.48,-21.11 144.5,-22.33 136.5,-23.42"/>
<polygon fill="#63b8ff" stroke="#63b8ff" points="163.07,-23.33 172.51,-18.51 162.13,-16.39 163.07,-23.33"/>
</a>
</g>
</g>
</g>
</svg>
</svg>

<style type='text/css'>
<![CDATA[
[data-mouse-over-selected='false'] { opacity: 0.7; }
[data-mouse-over-selected='true']  { opacity: 1.0; }
]]>
</style>
<script type="application/ecmascript"><![CDATA[
document.addEventListener('DOMContentLoaded', (event) => {
  highlightEdges();
  highlightAdjacentNodes();
});
]]></script>
</svg>
