<?xml version="1.0" encoding="UTF-8" standalone="no"?>
<!DOCTYPE svg PUBLIC "-//W3C//DTD SVG 1.1//EN"
 "http://www.w3.org/Graphics/SVG/1.1/DTD/svg11.dtd">
<!-- Generated by graphviz version 14.0.0 (20250921.2048)
 -->
<!-- Title: src/phonon/phonon.h Pages: 1 -->
<svg width="524pt" height="94pt"
 viewBox="0.00 0.00 524.00 94.00" xmlns="http://www.w3.org/2000/svg" xmlns:xlink="http://www.w3.org/1999/xlink">
<g id="graph0" class="graph" transform="scale(1 1) rotate(0) translate(4 89.75)">
<title>src/phonon/phonon.h</title>
<!-- Node1 -->
<g id="Node000001" class="node">
<title>Node1</title>
<g id="a_Node000001"><a xlink:title=" ">
<polygon fill="#999999" stroke="#666666" points="327.62,-85.75 220.88,-85.75 220.88,-66.5 327.62,-66.5 327.62,-85.75"/>
<text xml:space="preserve" text-anchor="middle" x="274.25" y="-72.25" font-family="Helvetica,sans-Serif" font-size="10.00">src/phonon/phonon.h</text>
</a>
</g>
</g>
<!-- Node2 -->
<g id="Node000002" class="node">
<title>Node2</title>
<g id="a_Node000002"><a xlink:href="../../da/dc2/interpolation__driver_8c.html" target="_top" xlink:title=" ">
<polygon fill="white" stroke="#666666" points="140.5,-30.5 0,-30.5 0,0 140.5,0 140.5,-30.5"/>
<text xml:space="preserve" text-anchor="start" x="8" y="-17" font-family="Helvetica,sans-Serif" font-size="10.00">src/interpolation/interpolation</text>
<text xml:space="preserve" text-anchor="middle" x="70.25" y="-5.75" font-family="Helvetica,sans-Serif" font-size="10.00">_driver.c</text>
</a>
</g>
</g>
<!-- Node1&#45;&gt;Node2 -->
<g id="edge1_Node000001_Node000002" class="edge">
<title>Node1&#45;&gt;Node2</title>
<g id="a_edge1_Node000001_Node000002"><a xlink:title=" ">
<path fill="none" stroke="#63b8ff" d="M231.98,-62.93C199.78,-53.63 155.32,-40.8 121.17,-30.94"/>
<polygon fill="#63b8ff" stroke="#63b8ff" points="230.79,-66.22 241.37,-65.64 232.73,-59.5 230.79,-66.22"/>
</a>
</g>
</g>
<!-- Node3 -->
<g id="Node000003" class="node">
<title>Node3</title>
<g id="a_Node000003"><a xlink:href="../../db/d44/dyn__long__range_8c.html" target="_top" xlink:title=" ">
<polygon fill="white" stroke="#666666" points="264.25,-30.5 158.25,-30.5 158.25,0 264.25,0 264.25,-30.5"/>
<text xml:space="preserve" text-anchor="start" x="166.25" y="-17" font-family="Helvetica,sans-Serif" font-size="10.00">src/phonon/dyn_long</text>
<text xml:space="preserve" text-anchor="middle" x="211.25" y="-5.75" font-family="Helvetica,sans-Serif" font-size="10.00">_range.c</text>
</a>
</g>
</g>
<!-- Node1&#45;&gt;Node3 -->
<g id="edge2_Node000001_Node000003" class="edge">
<title>Node1&#45;&gt;Node3</title>
<g id="a_edge2_Node000001_Node000003"><a xlink:title=" ">
<path fill="none" stroke="#63b8ff" d="M256.48,-58.52C247.14,-49.79 235.79,-39.18 226.8,-30.78"/>
<polygon fill="#63b8ff" stroke="#63b8ff" points="253.88,-60.88 263.58,-65.15 258.66,-55.76 253.88,-60.88"/>
</a>
</g>
</g>
<!-- Node4 -->
<g id="Node000004" class="node">
<title>Node4</title>
<g id="a_Node000004"><a xlink:href="../../de/d37/normalize__pol__vecs_8c.html" target="_top" xlink:title=" ">
<polygon fill="white" stroke="#666666" points="391.75,-30.5 282.75,-30.5 282.75,0 391.75,0 391.75,-30.5"/>
<text xml:space="preserve" text-anchor="start" x="290.75" y="-17" font-family="Helvetica,sans-Serif" font-size="10.00">src/phonon/normalize</text>
<text xml:space="preserve" text-anchor="middle" x="337.25" y="-5.75" font-family="Helvetica,sans-Serif" font-size="10.00">_pol_vecs.c</text>
</a>
</g>
</g>
<!-- Node1&#45;&gt;Node4 -->
<g id="edge3_Node000001_Node000004" class="edge">
<title>Node1&#45;&gt;Node4</title>
<g id="a_edge3_Node000001_Node000004"><a xlink:title=" ">
<path fill="none" stroke="#63b8ff" d="M292.02,-58.52C301.36,-49.79 312.71,-39.18 321.7,-30.78"/>
<polygon fill="#63b8ff" stroke="#63b8ff" points="289.84,-55.76 284.92,-65.15 294.62,-60.88 289.84,-55.76"/>
</a>
</g>
</g>
<!-- Node5 -->
<g id="Node000005" class="node">
<title>Node5</title>
<g id="a_Node000005"><a xlink:href="../../d0/dc3/pol__vecs__to__dyn_8c.html" target="_top" xlink:title=" ">
<polygon fill="white" stroke="#666666" points="516.25,-30.5 410.25,-30.5 410.25,0 516.25,0 516.25,-30.5"/>
<text xml:space="preserve" text-anchor="start" x="418.25" y="-17" font-family="Helvetica,sans-Serif" font-size="10.00">src/phonon/pol_vecs</text>
<text xml:space="preserve" text-anchor="middle" x="463.25" y="-5.75" font-family="Helvetica,sans-Serif" font-size="10.00">_to_dyn.c</text>
</a>
</g>
</g>
<!-- Node1&#45;&gt;Node5 -->
<g id="edge4_Node000001_Node000005" class="edge">
<title>Node1&#45;&gt;Node5</title>
<g id="a_edge4_Node000001_Node000005"><a xlink:title=" ">
<path fill="none" stroke="#63b8ff" d="M314.19,-62.68C343.96,-53.41 384.71,-40.72 416.08,-30.94"/>
<polygon fill="#63b8ff" stroke="#63b8ff" points="313.32,-59.29 304.81,-65.6 315.4,-65.97 313.32,-59.29"/>
</a>
</g>
</g>
</g>
</svg>
