<?xml version="1.0" encoding="UTF-8" standalone="no"?>
<!DOCTYPE svg PUBLIC "-//W3C//DTD SVG 1.1//EN"
 "http://www.w3.org/Graphics/SVG/1.1/DTD/svg11.dtd">
<!-- Generated by graphviz version 14.0.0 (20250921.2048)
 -->
<!-- Title: src/symmetries/elphq_expand.c Pages: 1 -->
<svg width="622pt" height="204pt"
 viewBox="0.00 0.00 622.00 204.00" xmlns="http://www.w3.org/2000/svg" xmlns:xlink="http://www.w3.org/1999/xlink">
<g id="graph0" class="graph" transform="scale(1 1) rotate(0) translate(4 200.25)">
<title>src/symmetries/elphq_expand.c</title>
<!-- Node1 -->
<g id="Node000001" class="node">
<title>Node1</title>
<g id="a_Node000001"><a xlink:title=" ">
<polygon fill="#999999" stroke="#666666" points="339.4,-196.25 229.65,-196.25 229.65,-165.75 339.4,-165.75 339.4,-196.25"/>
<text xml:space="preserve" text-anchor="start" x="237.65" y="-182.75" font-family="Helvetica,sans-Serif" font-size="10.00">src/symmetries/elphq</text>
<text xml:space="preserve" text-anchor="middle" x="284.53" y="-171.5" font-family="Helvetica,sans-Serif" font-size="10.00">_expand.c</text>
</a>
</g>
</g>
<!-- Node2 -->
<g id="Node000002" class="node">
<title>Node2</title>
<g id="a_Node000002"><a xlink:title=" ">
<polygon fill="#e0e0e0" stroke="#999999" points="155.4,-19.25 99.65,-19.25 99.65,0 155.4,0 155.4,-19.25"/>
<text xml:space="preserve" text-anchor="middle" x="127.53" y="-5.75" font-family="Helvetica,sans-Serif" font-size="10.00">stdbool.h</text>
</a>
</g>
</g>
<!-- Node1&#45;&gt;Node2 -->
<g id="edge1_Node000001_Node000002" class="edge">
<title>Node1&#45;&gt;Node2</title>
<g id="a_edge1_Node000001_Node000002"><a xlink:title=" ">
<path fill="none" stroke="#63b8ff" d="M229.38,-178.13C161.88,-172.44 50.85,-151.21 4.53,-74.5 -16.65,-39.42 44.77,-22.75 88.27,-15.52"/>
<polygon fill="#63b8ff" stroke="#63b8ff" points="88.59,-19.01 97.94,-14.03 87.52,-12.09 88.59,-19.01"/>
</a>
</g>
</g>
<!-- Node3 -->
<g id="Node000003" class="node">
<title>Node3</title>
<g id="a_Node000003"><a xlink:title=" ">
<polygon fill="#e0e0e0" stroke="#999999" points="473.28,-129.75 425.78,-129.75 425.78,-110.5 473.28,-110.5 473.28,-129.75"/>
<text xml:space="preserve" text-anchor="middle" x="449.53" y="-116.25" font-family="Helvetica,sans-Serif" font-size="10.00">stdlib.h</text>
</a>
</g>
</g>
<!-- Node1&#45;&gt;Node3 -->
<g id="edge2_Node000001_Node000003" class="edge">
<title>Node1&#45;&gt;Node3</title>
<g id="a_edge2_Node000001_Node000003"><a xlink:title=" ">
<path fill="none" stroke="#63b8ff" d="M325.74,-165.3C353.3,-155.46 389.15,-142.67 415.17,-133.39"/>
<polygon fill="#63b8ff" stroke="#63b8ff" points="416,-136.81 424.24,-130.15 413.64,-130.21 416,-136.81"/>
</a>
</g>
</g>
<!-- Node4 -->
<g id="Node000004" class="node">
<title>Node4</title>
<g id="a_Node000004"><a xlink:href="../../de/d83/_e_l_p_h__timers_8h.html" target="_top" xlink:title=" ">
<polygon fill="white" stroke="#666666" points="614.15,-129.75 490.9,-129.75 490.9,-110.5 614.15,-110.5 614.15,-129.75"/>
<text xml:space="preserve" text-anchor="middle" x="552.53" y="-116.25" font-family="Helvetica,sans-Serif" font-size="10.00">common/ELPH_timers.h</text>
</a>
</g>
</g>
<!-- Node1&#45;&gt;Node4 -->
<g id="edge3_Node000001_Node000004" class="edge">
<title>Node1&#45;&gt;Node4</title>
<g id="a_edge3_Node000001_Node000004"><a xlink:title=" ">
<path fill="none" stroke="#63b8ff" d="M339.73,-167.87C386.87,-157.52 454.19,-142.73 500.42,-132.57"/>
<polygon fill="#63b8ff" stroke="#63b8ff" points="500.9,-136.05 509.92,-130.49 499.4,-129.21 500.9,-136.05"/>
</a>
</g>
</g>
<!-- Node5 -->
<g id="Node000005" class="node">
<title>Node5</title>
<g id="a_Node000005"><a xlink:href="../../d2/d02/dtypes_8h.html" target="_top" xlink:title=" ">
<polygon fill="white" stroke="#666666" points="369.53,-74.5 275.53,-74.5 275.53,-55.25 369.53,-55.25 369.53,-74.5"/>
<text xml:space="preserve" text-anchor="middle" x="322.53" y="-61" font-family="Helvetica,sans-Serif" font-size="10.00">common/dtypes.h</text>
</a>
</g>
</g>
<!-- Node1&#45;&gt;Node5 -->
<g id="edge4_Node000001_Node000005" class="edge">
<title>Node1&#45;&gt;Node5</title>
<g id="a_edge4_Node000001_Node000005"><a xlink:title=" ">
<path fill="none" stroke="#63b8ff" d="M289.34,-165.55C296.08,-145.31 308.35,-108.47 315.93,-85.69"/>
<polygon fill="#63b8ff" stroke="#63b8ff" points="319.19,-86.98 319.03,-76.38 312.55,-84.77 319.19,-86.98"/>
</a>
</g>
</g>
<!-- Node7 -->
<g id="Node000007" class="node">
<title>Node7</title>
<g id="a_Node000007"><a xlink:href="../../d4/d0a/elph_c_8h.html" target="_top" xlink:title="Core type definitions and configuration for LetzElPhC.">
<polygon fill="white" stroke="#666666" points="253.4,-19.25 203.65,-19.25 203.65,0 253.4,0 253.4,-19.25"/>
<text xml:space="preserve" text-anchor="middle" x="228.53" y="-5.75" font-family="Helvetica,sans-Serif" font-size="10.00">elphC.h</text>
</a>
</g>
</g>
<!-- Node1&#45;&gt;Node7 -->
<g id="edge13_Node000001_Node000007" class="edge">
<title>Node1&#45;&gt;Node7</title>
<g id="a_edge13_Node000001_Node000007"><a xlink:title=" ">
<path fill="none" stroke="#63b8ff" d="M279.66,-165.27C269.56,-134.74 246.37,-64.58 235.02,-30.26"/>
<polygon fill="#63b8ff" stroke="#63b8ff" points="238.48,-29.57 232.02,-21.17 231.83,-31.77 238.48,-29.57"/>
</a>
</g>
</g>
<!-- Node8 -->
<g id="Node000008" class="node">
<title>Node8</title>
<g id="a_Node000008"><a xlink:href="../../da/d41/error_8h.html" target="_top" xlink:title=" ">
<polygon fill="white" stroke="#666666" points="411.03,-19.25 368.03,-19.25 368.03,0 411.03,0 411.03,-19.25"/>
<text xml:space="preserve" text-anchor="middle" x="389.53" y="-5.75" font-family="Helvetica,sans-Serif" font-size="10.00">error.h</text>
</a>
</g>
</g>
<!-- Node1&#45;&gt;Node8 -->
<g id="edge9_Node000001_Node000008" class="edge">
<title>Node1&#45;&gt;Node8</title>
<g id="a_edge9_Node000001_Node000008"><a xlink:title=" ">
<path fill="none" stroke="#63b8ff" d="M302.71,-165.33C324.49,-146.67 360.31,-112.29 378.53,-74.5 385.13,-60.82 387.82,-43.8 388.9,-30.77"/>
<polygon fill="#63b8ff" stroke="#63b8ff" points="392.39,-31.03 389.44,-20.86 385.4,-30.65 392.39,-31.03"/>
</a>
</g>
</g>
<!-- Node9 -->
<g id="Node000009" class="node">
<title>Node9</title>
<g id="a_Node000009"><a xlink:href="../../df/def/numerical__func_8h.html" target="_top" xlink:title=" ">
<polygon fill="white" stroke="#666666" points="143.9,-74.5 13.15,-74.5 13.15,-55.25 143.9,-55.25 143.9,-74.5"/>
<text xml:space="preserve" text-anchor="middle" x="78.53" y="-61" font-family="Helvetica,sans-Serif" font-size="10.00">common/numerical_func.h</text>
</a>
</g>
</g>
<!-- Node1&#45;&gt;Node9 -->
<g id="edge10_Node000001_Node000009" class="edge">
<title>Node1&#45;&gt;Node9</title>
<g id="a_edge10_Node000001_Node000009"><a xlink:title=" ">
<path fill="none" stroke="#63b8ff" d="M229.35,-168.93C199.54,-161.19 163.11,-148.77 134.53,-129.75 116.35,-117.65 100.47,-98.18 90.3,-83.91"/>
<polygon fill="#63b8ff" stroke="#63b8ff" points="93.35,-82.16 84.82,-75.87 87.56,-86.11 93.35,-82.16"/>
</a>
</g>
</g>
<!-- Node10 -->
<g id="Node000010" class="node">
<title>Node10</title>
<g id="a_Node000010"><a xlink:href="../../dc/dec/symmetries_8h.html" target="_top" xlink:title=" ">
<polygon fill="white" stroke="#666666" points="219.15,-129.75 143.9,-129.75 143.9,-110.5 219.15,-110.5 219.15,-129.75"/>
<text xml:space="preserve" text-anchor="middle" x="181.53" y="-116.25" font-family="Helvetica,sans-Serif" font-size="10.00">symmetries.h</text>
</a>
</g>
</g>
<!-- Node1&#45;&gt;Node10 -->
<g id="edge14_Node000001_Node000010" class="edge">
<title>Node1&#45;&gt;Node10</title>
<g id="a_edge14_Node000001_Node000010"><a xlink:title=" ">
<path fill="none" stroke="#63b8ff" d="M258.8,-165.3C242.97,-156.24 222.75,-144.69 206.97,-135.66"/>
<polygon fill="#63b8ff" stroke="#63b8ff" points="209.06,-132.83 198.64,-130.91 205.58,-138.91 209.06,-132.83"/>
</a>
</g>
</g>
<!-- Node5&#45;&gt;Node2 -->
<g id="edge6_Node000005_Node000002" class="edge">
<title>Node5&#45;&gt;Node2</title>
<g id="a_edge6_Node000005_Node000002"><a xlink:title=" ">
<path fill="none" stroke="#63b8ff" d="M289.45,-54.84C255.52,-45.58 202.77,-31.17 166.76,-21.34"/>
<polygon fill="#63b8ff" stroke="#63b8ff" points="167.73,-17.97 157.16,-18.72 165.88,-24.73 167.73,-17.97"/>
</a>
</g>
</g>
<!-- Node6 -->
<g id="Node000006" class="node">
<title>Node6</title>
<g id="a_Node000006"><a xlink:title=" ">
<polygon fill="#e0e0e0" stroke="#999999" points="342.53,-19.25 302.53,-19.25 302.53,0 342.53,0 342.53,-19.25"/>
<text xml:space="preserve" text-anchor="middle" x="322.53" y="-5.75" font-family="Helvetica,sans-Serif" font-size="10.00">mpi.h</text>
</a>
</g>
</g>
<!-- Node5&#45;&gt;Node6 -->
<g id="edge5_Node000005_Node000006" class="edge">
<title>Node5&#45;&gt;Node6</title>
<g id="a_edge5_Node000005_Node000006"><a xlink:title=" ">
<path fill="none" stroke="#63b8ff" d="M322.53,-55.08C322.53,-48.57 322.53,-39.42 322.53,-31.12"/>
<polygon fill="#63b8ff" stroke="#63b8ff" points="326.03,-31.12 322.53,-21.12 319.03,-31.12 326.03,-31.12"/>
</a>
</g>
</g>
<!-- Node5&#45;&gt;Node7 -->
<g id="edge7_Node000005_Node000007" class="edge">
<title>Node5&#45;&gt;Node7</title>
<g id="a_edge7_Node000005_Node000007"><a xlink:title=" ">
<path fill="none" stroke="#63b8ff" d="M306.58,-54.84C292.27,-46.73 271,-34.68 254.28,-25.21"/>
<polygon fill="#63b8ff" stroke="#63b8ff" points="256.3,-22.33 245.87,-20.45 252.85,-28.42 256.3,-22.33"/>
</a>
</g>
</g>
<!-- Node5&#45;&gt;Node8 -->
<g id="edge8_Node000005_Node000008" class="edge">
<title>Node5&#45;&gt;Node8</title>
<g id="a_edge8_Node000005_Node000008"><a xlink:title=" ">
<path fill="none" stroke="#63b8ff" d="M333.89,-54.84C343.58,-47.15 357.73,-35.9 369.33,-26.68"/>
<polygon fill="#63b8ff" stroke="#63b8ff" points="371.5,-29.43 377.15,-20.47 367.14,-23.95 371.5,-29.43"/>
</a>
</g>
</g>
<!-- Node9&#45;&gt;Node2 -->
<g id="edge11_Node000009_Node000002" class="edge">
<title>Node9&#45;&gt;Node2</title>
<g id="a_edge11_Node000009_Node000002"><a xlink:title=" ">
<path fill="none" stroke="#63b8ff" d="M86.62,-55.08C93.39,-47.73 103.25,-37.01 111.59,-27.94"/>
<polygon fill="#63b8ff" stroke="#63b8ff" points="114.04,-30.45 118.24,-20.72 108.89,-25.71 114.04,-30.45"/>
</a>
</g>
</g>
<!-- Node9&#45;&gt;Node7 -->
<g id="edge12_Node000009_Node000007" class="edge">
<title>Node9&#45;&gt;Node7</title>
<g id="a_edge12_Node000009_Node000007"><a xlink:title=" ">
<path fill="none" stroke="#63b8ff" d="M103.97,-54.84C128.29,-46.21 165.19,-33.11 192.52,-23.41"/>
<polygon fill="#63b8ff" stroke="#63b8ff" points="193.53,-26.76 201.78,-20.12 191.19,-20.17 193.53,-26.76"/>
</a>
</g>
</g>
<!-- Node10&#45;&gt;Node2 -->
<g id="edge15_Node000010_Node000002" class="edge">
<title>Node10&#45;&gt;Node2</title>
<g id="a_edge15_Node000010_Node000002"><a xlink:title=" ">
<path fill="none" stroke="#63b8ff" d="M177.82,-110.34C172.51,-97.92 162.32,-74.59 152.53,-55.25 148.22,-46.74 143.13,-37.52 138.67,-29.68"/>
<polygon fill="#63b8ff" stroke="#63b8ff" points="141.72,-27.96 133.69,-21.04 135.65,-31.45 141.72,-27.96"/>
</a>
</g>
</g>
<!-- Node10&#45;&gt;Node5 -->
<g id="edge16_Node000010_Node000005" class="edge">
<title>Node10&#45;&gt;Node5</title>
<g id="a_edge16_Node000010_Node000005"><a xlink:title=" ">
<path fill="none" stroke="#63b8ff" d="M205.45,-110.09C228.03,-101.56 262.16,-88.67 287.76,-79.01"/>
<polygon fill="#63b8ff" stroke="#63b8ff" points="288.96,-82.29 297.08,-75.49 286.49,-75.75 288.96,-82.29"/>
</a>
</g>
</g>
<!-- Node10&#45;&gt;Node7 -->
<g id="edge17_Node000010_Node000007" class="edge">
<title>Node10&#45;&gt;Node7</title>
<g id="a_edge17_Node000010_Node000007"><a xlink:title=" ">
<path fill="none" stroke="#63b8ff" d="M185.38,-110.25C192.91,-92.84 209.79,-53.87 220.07,-30.16"/>
<polygon fill="#63b8ff" stroke="#63b8ff" points="223.26,-31.58 224.03,-21.02 216.84,-28.8 223.26,-31.58"/>
</a>
</g>
</g>
</g>
</svg>
