<?xml version="1.0" encoding="UTF-8" standalone="no"?>
<!DOCTYPE svg PUBLIC "-//W3C//DTD SVG 1.1//EN"
 "http://www.w3.org/Graphics/SVG/1.1/DTD/svg11.dtd">
<!-- Generated by graphviz version 14.0.0 (20250921.2048)
 -->
<!-- Title: src/common/print_info.h Pages: 1 -->
<svg width="555pt" height="94pt"
 viewBox="0.00 0.00 555.00 94.00" xmlns="http://www.w3.org/2000/svg" xmlns:xlink="http://www.w3.org/1999/xlink">
<g id="graph0" class="graph" transform="scale(1 1) rotate(0) translate(4 89.75)">
<title>src/common/print_info.h</title>
<!-- Node1 -->
<g id="Node000001" class="node">
<title>Node1</title>
<g id="a_Node000001"><a xlink:title=" ">
<polygon fill="#999999" stroke="#666666" points="328.12,-85.75 207.12,-85.75 207.12,-66.5 328.12,-66.5 328.12,-85.75"/>
<text xml:space="preserve" text-anchor="middle" x="267.62" y="-72.25" font-family="Helvetica,sans-Serif" font-size="10.00">src/common/print_info.h</text>
</a>
</g>
</g>
<!-- Node2 -->
<g id="Node000002" class="node">
<title>Node2</title>
<g id="a_Node000002"><a xlink:href="../../d8/d43/print___e_l_p_h__logo_8c.html" target="_top" xlink:title=" ">
<polygon fill="white" stroke="#666666" points="123.25,-30.5 0,-30.5 0,0 123.25,0 123.25,-30.5"/>
<text xml:space="preserve" text-anchor="start" x="8" y="-17" font-family="Helvetica,sans-Serif" font-size="10.00">src/common/print_ELPH</text>
<text xml:space="preserve" text-anchor="middle" x="61.62" y="-5.75" font-family="Helvetica,sans-Serif" font-size="10.00">_logo.c</text>
</a>
</g>
</g>
<!-- Node1&#45;&gt;Node2 -->
<g id="edge1_Node000001_Node000002" class="edge">
<title>Node1&#45;&gt;Node2</title>
<g id="a_edge1_Node000001_Node000002"><a xlink:title=" ">
<path fill="none" stroke="#63b8ff" d="M224.94,-62.93C192.43,-53.63 147.53,-40.8 113.04,-30.94"/>
<polygon fill="#63b8ff" stroke="#63b8ff" points="223.86,-66.26 234.43,-65.64 225.78,-59.53 223.86,-66.26"/>
</a>
</g>
</g>
<!-- Node3 -->
<g id="Node000003" class="node">
<title>Node3</title>
<g id="a_Node000003"><a xlink:href="../../d0/d47/print__info_8c.html" target="_top" xlink:title=" ">
<polygon fill="white" stroke="#666666" points="262.12,-24.88 141.12,-24.88 141.12,-5.63 262.12,-5.63 262.12,-24.88"/>
<text xml:space="preserve" text-anchor="middle" x="201.62" y="-11.38" font-family="Helvetica,sans-Serif" font-size="10.00">src/common/print_info.c</text>
</a>
</g>
</g>
<!-- Node1&#45;&gt;Node3 -->
<g id="edge2_Node000001_Node000003" class="edge">
<title>Node1&#45;&gt;Node3</title>
<g id="a_edge2_Node000001_Node000003"><a xlink:title=" ">
<path fill="none" stroke="#63b8ff" d="M249.12,-58.62C237.02,-47.82 221.66,-34.12 211.74,-25.28"/>
<polygon fill="#63b8ff" stroke="#63b8ff" points="246.68,-61.13 256.47,-65.18 251.34,-55.91 246.68,-61.13"/>
</a>
</g>
</g>
<!-- Node4 -->
<g id="Node000004" class="node">
<title>Node4</title>
<g id="a_Node000004"><a xlink:href="../../da/d2e/elph__driver_8c.html" target="_top" xlink:title=" ">
<polygon fill="white" stroke="#666666" points="388.75,-24.88 280.5,-24.88 280.5,-5.63 388.75,-5.63 388.75,-24.88"/>
<text xml:space="preserve" text-anchor="middle" x="334.62" y="-11.38" font-family="Helvetica,sans-Serif" font-size="10.00">src/elph/elph_driver.c</text>
</a>
</g>
</g>
<!-- Node1&#45;&gt;Node4 -->
<g id="edge3_Node000001_Node000004" class="edge">
<title>Node1&#45;&gt;Node4</title>
<g id="a_edge3_Node000001_Node000004"><a xlink:title=" ">
<path fill="none" stroke="#63b8ff" d="M286.41,-58.62C298.7,-47.82 314.28,-34.12 324.35,-25.28"/>
<polygon fill="#63b8ff" stroke="#63b8ff" points="284.14,-55.95 278.94,-65.18 288.76,-61.21 284.14,-55.95"/>
</a>
</g>
</g>
<!-- Node5 -->
<g id="Node000005" class="node">
<title>Node5</title>
<g id="a_Node000005"><a xlink:href="../../da/dc2/interpolation__driver_8c.html" target="_top" xlink:title=" ">
<polygon fill="white" stroke="#666666" points="546.88,-30.5 406.38,-30.5 406.38,0 546.88,0 546.88,-30.5"/>
<text xml:space="preserve" text-anchor="start" x="414.38" y="-17" font-family="Helvetica,sans-Serif" font-size="10.00">src/interpolation/interpolation</text>
<text xml:space="preserve" text-anchor="middle" x="476.62" y="-5.75" font-family="Helvetica,sans-Serif" font-size="10.00">_driver.c</text>
</a>
</g>
</g>
<!-- Node1&#45;&gt;Node5 -->
<g id="edge4_Node000001_Node000005" class="edge">
<title>Node1&#45;&gt;Node5</title>
<g id="a_edge4_Node000001_Node000005"><a xlink:title=" ">
<path fill="none" stroke="#63b8ff" d="M310.5,-63.05C343.52,-53.75 389.31,-40.85 424.46,-30.94"/>
<polygon fill="#63b8ff" stroke="#63b8ff" points="309.96,-59.56 301.28,-65.64 311.85,-66.3 309.96,-59.56"/>
</a>
</g>
</g>
</g>
</svg>
