<?xml version="1.0" encoding="UTF-8" standalone="no"?>
<!DOCTYPE svg PUBLIC "-//W3C//DTD SVG 1.1//EN"
 "http://www.w3.org/Graphics/SVG/1.1/DTD/svg11.dtd">
<!-- Generated by graphviz version 14.0.0 (20250921.2048)
 -->
<!-- Title: src/common/progess_bar.c Pages: 1 -->
<svg width="534pt" height="149pt"
 viewBox="0.00 0.00 534.00 149.00" xmlns="http://www.w3.org/2000/svg" xmlns:xlink="http://www.w3.org/1999/xlink">
<g id="graph0" class="graph" transform="scale(1 1) rotate(0) translate(4 145)">
<title>src/common/progess_bar.c</title>
<!-- Node1 -->
<g id="Node000001" class="node">
<title>Node1</title>
<g id="a_Node000001"><a xlink:title=" ">
<polygon fill="#999999" stroke="#666666" points="330.12,-141 222.62,-141 222.62,-110.5 330.12,-110.5 330.12,-141"/>
<text xml:space="preserve" text-anchor="start" x="230.62" y="-127.5" font-family="Helvetica,sans-Serif" font-size="10.00">src/common/progess</text>
<text xml:space="preserve" text-anchor="middle" x="276.38" y="-116.25" font-family="Helvetica,sans-Serif" font-size="10.00">_bar.c</text>
</a>
</g>
</g>
<!-- Node2 -->
<g id="Node000002" class="node">
<title>Node2</title>
<g id="a_Node000002"><a xlink:href="../../db/db5/progess__bar_8h.html" target="_top" xlink:title=" ">
<polygon fill="white" stroke="#666666" points="76.75,-74.5 0,-74.5 0,-55.25 76.75,-55.25 76.75,-74.5"/>
<text xml:space="preserve" text-anchor="middle" x="38.38" y="-61" font-family="Helvetica,sans-Serif" font-size="10.00">progess_bar.h</text>
</a>
</g>
</g>
<!-- Node1&#45;&gt;Node2 -->
<g id="edge1_Node000001_Node000002" class="edge">
<title>Node1&#45;&gt;Node2</title>
<g id="a_edge1_Node000001_Node000002"><a xlink:title=" ">
<path fill="none" stroke="#63b8ff" d="M222.37,-111.39C181.43,-101.26 125.68,-87.47 86.31,-77.73"/>
<polygon fill="#63b8ff" stroke="#63b8ff" points="87.17,-74.34 76.62,-75.34 85.49,-81.14 87.17,-74.34"/>
</a>
</g>
</g>
<!-- Node4 -->
<g id="Node000004" class="node">
<title>Node4</title>
<g id="a_Node000004"><a xlink:title=" ">
<polygon fill="#e0e0e0" stroke="#999999" points="140.38,-74.5 94.38,-74.5 94.38,-55.25 140.38,-55.25 140.38,-74.5"/>
<text xml:space="preserve" text-anchor="middle" x="117.38" y="-61" font-family="Helvetica,sans-Serif" font-size="10.00">math.h</text>
</a>
</g>
</g>
<!-- Node1&#45;&gt;Node4 -->
<g id="edge3_Node000001_Node000004" class="edge">
<title>Node1&#45;&gt;Node4</title>
<g id="a_edge3_Node000001_Node000004"><a xlink:title=" ">
<path fill="none" stroke="#63b8ff" d="M236.66,-110.05C210.5,-100.36 176.59,-87.8 151.62,-78.55"/>
<polygon fill="#63b8ff" stroke="#63b8ff" points="152.84,-75.28 142.25,-75.09 150.41,-81.84 152.84,-75.28"/>
</a>
</g>
</g>
<!-- Node5 -->
<g id="Node000005" class="node">
<title>Node5</title>
<g id="a_Node000005"><a xlink:title=" ">
<polygon fill="#e0e0e0" stroke="#999999" points="198.38,-74.5 158.38,-74.5 158.38,-55.25 198.38,-55.25 198.38,-74.5"/>
<text xml:space="preserve" text-anchor="middle" x="178.38" y="-61" font-family="Helvetica,sans-Serif" font-size="10.00">mpi.h</text>
</a>
</g>
</g>
<!-- Node1&#45;&gt;Node5 -->
<g id="edge4_Node000001_Node000005" class="edge">
<title>Node1&#45;&gt;Node5</title>
<g id="a_edge4_Node000001_Node000005"><a xlink:title=" ">
<path fill="none" stroke="#63b8ff" d="M251.9,-110.05C236.97,-101.08 217.96,-89.66 203.01,-80.67"/>
<polygon fill="#63b8ff" stroke="#63b8ff" points="205.08,-77.83 194.7,-75.68 201.47,-83.83 205.08,-77.83"/>
</a>
</g>
</g>
<!-- Node6 -->
<g id="Node000006" class="node">
<title>Node6</title>
<g id="a_Node000006"><a xlink:title=" ">
<polygon fill="#e0e0e0" stroke="#999999" points="268,-74.5 216.75,-74.5 216.75,-55.25 268,-55.25 268,-74.5"/>
<text xml:space="preserve" text-anchor="middle" x="242.38" y="-61" font-family="Helvetica,sans-Serif" font-size="10.00">stddef.h</text>
</a>
</g>
</g>
<!-- Node1&#45;&gt;Node6 -->
<g id="edge5_Node000001_Node000006" class="edge">
<title>Node1&#45;&gt;Node6</title>
<g id="a_edge5_Node000001_Node000006"><a xlink:title=" ">
<path fill="none" stroke="#63b8ff" d="M267.97,-110.2C263.54,-102.53 258.05,-93.02 253.3,-84.79"/>
<polygon fill="#63b8ff" stroke="#63b8ff" points="256.41,-83.17 248.37,-76.26 250.34,-86.67 256.41,-83.17"/>
</a>
</g>
</g>
<!-- Node7 -->
<g id="Node000007" class="node">
<title>Node7</title>
<g id="a_Node000007"><a xlink:title=" ">
<polygon fill="#e0e0e0" stroke="#999999" points="334.5,-74.5 286.25,-74.5 286.25,-55.25 334.5,-55.25 334.5,-74.5"/>
<text xml:space="preserve" text-anchor="middle" x="310.38" y="-61" font-family="Helvetica,sans-Serif" font-size="10.00">stdint.h</text>
</a>
</g>
</g>
<!-- Node1&#45;&gt;Node7 -->
<g id="edge6_Node000001_Node000007" class="edge">
<title>Node1&#45;&gt;Node7</title>
<g id="a_edge6_Node000001_Node000007"><a xlink:title=" ">
<path fill="none" stroke="#63b8ff" d="M284.78,-110.2C289.21,-102.53 294.7,-93.02 299.45,-84.79"/>
<polygon fill="#63b8ff" stroke="#63b8ff" points="302.41,-86.67 304.38,-76.26 296.34,-83.17 302.41,-86.67"/>
</a>
</g>
</g>
<!-- Node8 -->
<g id="Node000008" class="node">
<title>Node8</title>
<g id="a_Node000008"><a xlink:title=" ">
<polygon fill="#e0e0e0" stroke="#999999" points="398,-74.5 352.75,-74.5 352.75,-55.25 398,-55.25 398,-74.5"/>
<text xml:space="preserve" text-anchor="middle" x="375.38" y="-61" font-family="Helvetica,sans-Serif" font-size="10.00">stdio.h</text>
</a>
</g>
</g>
<!-- Node1&#45;&gt;Node8 -->
<g id="edge7_Node000001_Node000008" class="edge">
<title>Node1&#45;&gt;Node8</title>
<g id="a_edge7_Node000001_Node000008"><a xlink:title=" ">
<path fill="none" stroke="#63b8ff" d="M301.1,-110.05C316.18,-101.08 335.39,-89.66 350.49,-80.67"/>
<polygon fill="#63b8ff" stroke="#63b8ff" points="352.09,-83.8 358.89,-75.68 348.51,-77.78 352.09,-83.8"/>
</a>
</g>
</g>
<!-- Node9 -->
<g id="Node000009" class="node">
<title>Node9</title>
<g id="a_Node000009"><a xlink:title=" ">
<polygon fill="#e0e0e0" stroke="#999999" points="464.5,-74.5 416.25,-74.5 416.25,-55.25 464.5,-55.25 464.5,-74.5"/>
<text xml:space="preserve" text-anchor="middle" x="440.38" y="-61" font-family="Helvetica,sans-Serif" font-size="10.00">string.h</text>
</a>
</g>
</g>
<!-- Node1&#45;&gt;Node9 -->
<g id="edge8_Node000001_Node000009" class="edge">
<title>Node1&#45;&gt;Node9</title>
<g id="a_edge8_Node000001_Node000009"><a xlink:title=" ">
<path fill="none" stroke="#63b8ff" d="M317.34,-110.05C344.44,-100.31 379.61,-87.69 405.4,-78.43"/>
<polygon fill="#63b8ff" stroke="#63b8ff" points="406.53,-81.74 414.76,-75.07 404.16,-75.16 406.53,-81.74"/>
</a>
</g>
</g>
<!-- Node10 -->
<g id="Node000010" class="node">
<title>Node10</title>
<g id="a_Node000010"><a xlink:title=" ">
<polygon fill="#e0e0e0" stroke="#999999" points="525.88,-74.5 482.88,-74.5 482.88,-55.25 525.88,-55.25 525.88,-74.5"/>
<text xml:space="preserve" text-anchor="middle" x="504.38" y="-61" font-family="Helvetica,sans-Serif" font-size="10.00">time.h</text>
</a>
</g>
</g>
<!-- Node1&#45;&gt;Node10 -->
<g id="edge9_Node000001_Node000010" class="edge">
<title>Node1&#45;&gt;Node10</title>
<g id="a_edge9_Node000001_Node000010"><a xlink:title=" ">
<path fill="none" stroke="#63b8ff" d="M330.39,-111.31C367.47,-102 418.08,-89.15 471.33,-75"/>
<polygon fill="#63b8ff" stroke="#63b8ff" points="472.15,-78.41 480.91,-72.45 470.35,-71.64 472.15,-78.41"/>
</a>
</g>
</g>
<!-- Node3 -->
<g id="Node000003" class="node">
<title>Node3</title>
<g id="a_Node000003"><a xlink:href="../../d4/d0a/elph_c_8h.html" target="_top" xlink:title="Core type definitions and configuration for LetzElPhC.">
<polygon fill="white" stroke="#666666" points="63.25,-19.25 13.5,-19.25 13.5,0 63.25,0 63.25,-19.25"/>
<text xml:space="preserve" text-anchor="middle" x="38.38" y="-5.75" font-family="Helvetica,sans-Serif" font-size="10.00">elphC.h</text>
</a>
</g>
</g>
<!-- Node2&#45;&gt;Node3 -->
<g id="edge2_Node000002_Node000003" class="edge">
<title>Node2&#45;&gt;Node3</title>
<g id="a_edge2_Node000002_Node000003"><a xlink:title=" ">
<path fill="none" stroke="#63b8ff" d="M38.38,-55.08C38.38,-48.57 38.38,-39.42 38.38,-31.12"/>
<polygon fill="#63b8ff" stroke="#63b8ff" points="41.88,-31.12 38.38,-21.12 34.88,-31.12 41.88,-31.12"/>
</a>
</g>
</g>
</g>
</svg>
