<?xml version="1.0" encoding="UTF-8" standalone="no"?>
<!DOCTYPE svg PUBLIC "-//W3C//DTD SVG 1.1//EN"
 "http://www.w3.org/Graphics/SVG/1.1/DTD/svg11.dtd">
<!-- Generated by graphviz version 14.0.0 (20250921.2048)
 -->
<!-- Title: fwd_transpose Pages: 1 -->
<svg width="647pt" height="64pt"
 viewBox="0.00 0.00 647.00 64.00" xmlns="http://www.w3.org/2000/svg" xmlns:xlink="http://www.w3.org/1999/xlink">
<g id="graph0" class="graph" transform="scale(1 1) rotate(0) translate(4 60.25)">
<title>fwd_transpose</title>
<!-- Node1 -->
<g id="Node000001" class="node">
<title>Node1</title>
<g id="a_Node000001"><a xlink:title=" ">
<polygon fill="#999999" stroke="#666666" points="639,-37.25 559.25,-37.25 559.25,-18 639,-18 639,-37.25"/>
<text xml:space="preserve" text-anchor="middle" x="599.12" y="-23.75" font-family="Helvetica,sans-Serif" font-size="10.00">fwd_transpose</text>
</a>
</g>
</g>
<!-- Node2 -->
<g id="Node000002" class="node">
<title>Node2</title>
<g id="a_Node000002"><a xlink:href="../../d9/dfc/fwdfft_8c.html#abecc0f888d888e946aa19183d0017d72" target="_top" xlink:title=" ">
<polygon fill="white" stroke="#666666" points="495.88,-56.25 458.12,-56.25 458.12,-37 495.88,-37 495.88,-56.25"/>
<text xml:space="preserve" text-anchor="middle" x="477" y="-42.75" font-family="Helvetica,sans-Serif" font-size="10.00">fft3D</text>
</a>
</g>
</g>
<!-- Node1&#45;&gt;Node2 -->
<g id="edge1_Node000001_Node000002" class="edge">
<title>Node1&#45;&gt;Node2</title>
<g id="a_edge1_Node000001_Node000002"><a xlink:title=" ">
<path fill="none" stroke="#63b8ff" d="M547.64,-35.61C529.39,-38.5 509.92,-41.58 496.22,-43.74"/>
<polygon fill="#63b8ff" stroke="#63b8ff" points="547.97,-39.1 557.3,-34.08 546.87,-32.19 547.97,-39.1"/>
</a>
</g>
</g>
<!-- Node3 -->
<g id="Node000003" class="node">
<title>Node3</title>
<g id="a_Node000003"><a xlink:href="../../d1/d31/convolution_8c.html#a7bc535f48e9ce5caeee906d3484f229c" target="_top" xlink:title=" ">
<polygon fill="white" stroke="#666666" points="523.25,-19.25 430.75,-19.25 430.75,0 523.25,0 523.25,-19.25"/>
<text xml:space="preserve" text-anchor="middle" x="477" y="-5.75" font-family="Helvetica,sans-Serif" font-size="10.00">fft_convolution3D</text>
</a>
</g>
</g>
<!-- Node1&#45;&gt;Node3 -->
<g id="edge2_Node000001_Node000003" class="edge">
<title>Node1&#45;&gt;Node3</title>
<g id="a_edge2_Node000001_Node000003"><a xlink:title=" ">
<path fill="none" stroke="#63b8ff" d="M547.46,-20.03C539.56,-18.85 531.45,-17.63 523.68,-16.47"/>
<polygon fill="#63b8ff" stroke="#63b8ff" points="546.89,-23.49 557.29,-21.51 547.92,-16.56 546.89,-23.49"/>
</a>
</g>
</g>
<!-- Node4 -->
<g id="Node000004" class="node">
<title>Node4</title>
<g id="a_Node000004"><a xlink:href="../../d1/d8e/compute___vbare__loc_8c.html#a5f1d51340a8457749225b05b612e4abe" target="_top" xlink:title=" ">
<polygon fill="white" stroke="#666666" points="394.75,-19.25 337.5,-19.25 337.5,0 394.75,0 394.75,-19.25"/>
<text xml:space="preserve" text-anchor="middle" x="366.12" y="-5.75" font-family="Helvetica,sans-Serif" font-size="10.00">elphLocal</text>
</a>
</g>
</g>
<!-- Node3&#45;&gt;Node4 -->
<g id="edge3_Node000003_Node000004" class="edge">
<title>Node3&#45;&gt;Node4</title>
<g id="a_edge3_Node000003_Node000004"><a xlink:title=" ">
<path fill="none" stroke="#63b8ff" d="M419.1,-9.62C410.76,-9.62 402.49,-9.62 395.09,-9.62"/>
<polygon fill="#63b8ff" stroke="#63b8ff" points="418.94,-13.13 428.94,-9.63 418.94,-6.13 418.94,-13.13"/>
</a>
</g>
</g>
<!-- Node5 -->
<g id="Node000005" class="node">
<title>Node5</title>
<g id="a_Node000005"><a xlink:href="../../d5/dd2/compute__elph__matq_8c.html#ad32ab6f17a3745b7f82151d7f5b927f2" target="_top" xlink:title=" ">
<polygon fill="white" stroke="#666666" points="301.5,-19.25 172.25,-19.25 172.25,0 301.5,0 301.5,-19.25"/>
<text xml:space="preserve" text-anchor="middle" x="236.88" y="-5.75" font-family="Helvetica,sans-Serif" font-size="10.00">compute_and_write_elphq</text>
</a>
</g>
</g>
<!-- Node4&#45;&gt;Node5 -->
<g id="edge4_Node000004_Node000005" class="edge">
<title>Node4&#45;&gt;Node5</title>
<g id="a_edge4_Node000004_Node000005"><a xlink:title=" ">
<path fill="none" stroke="#63b8ff" d="M325.81,-9.62C318.23,-9.62 310.11,-9.62 301.98,-9.62"/>
<polygon fill="#63b8ff" stroke="#63b8ff" points="325.69,-13.13 335.69,-9.63 325.69,-6.13 325.69,-13.13"/>
</a>
</g>
</g>
<!-- Node6 -->
<g id="Node000006" class="node">
<title>Node6</title>
<g id="a_Node000006"><a xlink:href="../../da/d2e/elph__driver_8c.html#ad9f405d41cf090d652dbe1307700665f" target="_top" xlink:title=" ">
<polygon fill="white" stroke="#666666" points="136.25,-19.25 73,-19.25 73,0 136.25,0 136.25,-19.25"/>
<text xml:space="preserve" text-anchor="middle" x="104.62" y="-5.75" font-family="Helvetica,sans-Serif" font-size="10.00">elph_driver</text>
</a>
</g>
</g>
<!-- Node5&#45;&gt;Node6 -->
<g id="edge5_Node000005_Node000006" class="edge">
<title>Node5&#45;&gt;Node6</title>
<g id="a_edge5_Node000005_Node000006"><a xlink:title=" ">
<path fill="none" stroke="#63b8ff" d="M160.64,-9.62C152.14,-9.62 143.88,-9.62 136.45,-9.62"/>
<polygon fill="#63b8ff" stroke="#63b8ff" points="160.38,-13.13 170.38,-9.63 160.38,-6.13 160.38,-13.13"/>
</a>
</g>
</g>
<!-- Node7 -->
<g id="Node000007" class="node">
<title>Node7</title>
<g id="a_Node000007"><a xlink:href="../../d3/dd5/main__elph_c_8c.html#a0ddf1224851353fc92bfbff6f499fa97" target="_top" xlink:title="Main program entry point.">
<polygon fill="white" stroke="#666666" points="37,-19.25 0,-19.25 0,0 37,0 37,-19.25"/>
<text xml:space="preserve" text-anchor="middle" x="18.5" y="-5.75" font-family="Helvetica,sans-Serif" font-size="10.00">main</text>
</a>
</g>
</g>
<!-- Node6&#45;&gt;Node7 -->
<g id="edge6_Node000006_Node000007" class="edge">
<title>Node6&#45;&gt;Node7</title>
<g id="a_edge6_Node000006_Node000007"><a xlink:title=" ">
<path fill="none" stroke="#63b8ff" d="M61.27,-9.62C52.74,-9.62 44.23,-9.62 37.14,-9.62"/>
<polygon fill="#63b8ff" stroke="#63b8ff" points="61.26,-13.13 71.26,-9.63 61.26,-6.13 61.26,-13.13"/>
</a>
</g>
</g>
</g>
</svg>
