<?xml version="1.0" encoding="UTF-8" standalone="no"?>
<!DOCTYPE svg PUBLIC "-//W3C//DTD SVG 1.1//EN"
 "http://www.w3.org/Graphics/SVG/1.1/DTD/svg11.dtd">
<!-- Generated by graphviz version 14.0.0 (20250921.2048)
 -->
<!-- Title: add_elphNonLocal Pages: 1 -->
<svg width="451pt" height="351pt"
 viewBox="0.00 0.00 451.00 351.00" xmlns="http://www.w3.org/2000/svg" xmlns:xlink="http://www.w3.org/1999/xlink">
<g id="graph0" class="graph" transform="scale(1 1) rotate(0) translate(4 347.25)">
<title>add_elphNonLocal</title>
<!-- Node1 -->
<g id="Node000001" class="node">
<title>Node1</title>
<g id="a_Node000001"><a xlink:title=" ">
<polygon fill="#999999" stroke="#666666" points="96.25,-195.25 0,-195.25 0,-176 96.25,-176 96.25,-195.25"/>
<text xml:space="preserve" text-anchor="middle" x="48.12" y="-181.75" font-family="Helvetica,sans-Serif" font-size="10.00">add_elphNonLocal</text>
</a>
</g>
</g>
<!-- Node2 -->
<g id="Node000002" class="node">
<title>Node2</title>
<g id="a_Node000002"><a xlink:href="../../db/d7a/trans__wfc_8c.html#a481ceff1e11d889b6a9e302c9546b05d" target="_top" xlink:title=" ">
<polygon fill="white" stroke="#666666" points="223.62,-343.25 136.38,-343.25 136.38,-324 223.62,-324 223.62,-343.25"/>
<text xml:space="preserve" text-anchor="middle" x="180" y="-329.75" font-family="Helvetica,sans-Serif" font-size="10.00">apply_trans_wfc</text>
</a>
</g>
</g>
<!-- Node1&#45;&gt;Node2 -->
<g id="edge1_Node000001_Node000002" class="edge">
<title>Node1&#45;&gt;Node2</title>
<g id="a_edge1_Node000001_Node000002"><a xlink:title=" ">
<path fill="none" stroke="#63b8ff" d="M52.92,-195.61C62.54,-219.64 90.13,-281.23 132.25,-315.62 133.35,-316.52 134.5,-317.38 135.69,-318.19"/>
<polygon fill="#63b8ff" stroke="#63b8ff" points="133.64,-321.06 144.06,-322.96 137.1,-314.97 133.64,-321.06"/>
</a>
</g>
</g>
<!-- Node3 -->
<g id="Node000003" class="node">
<title>Node3</title>
<g id="a_Node000003"><a xlink:href="../../da/d97/_e_l_p_h__timers_8c.html#a4846a0dbe6a17751878baf1315af43aa" target="_top" xlink:title=" ">
<polygon fill="white" stroke="#666666" points="227.75,-306.25 132.25,-306.25 132.25,-287 227.75,-287 227.75,-306.25"/>
<text xml:space="preserve" text-anchor="middle" x="180" y="-292.75" font-family="Helvetica,sans-Serif" font-size="10.00">ELPH_start_clock</text>
</a>
</g>
</g>
<!-- Node1&#45;&gt;Node3 -->
<g id="edge2_Node000001_Node000003" class="edge">
<title>Node1&#45;&gt;Node3</title>
<g id="a_edge2_Node000001_Node000003"><a xlink:title=" ">
<path fill="none" stroke="#63b8ff" d="M55.7,-195.73C68.39,-214.5 98.04,-254.99 132.25,-278.62 133.64,-279.58 135.08,-280.5 136.57,-281.37"/>
<polygon fill="#63b8ff" stroke="#63b8ff" points="134.94,-284.47 145.44,-285.88 138.11,-278.23 134.94,-284.47"/>
</a>
</g>
</g>
<!-- Node4 -->
<g id="Node000004" class="node">
<title>Node4</title>
<g id="a_Node000004"><a xlink:href="../../da/d97/_e_l_p_h__timers_8c.html#adcc3002449fe62895b6e89571d00ba48" target="_top" xlink:title=" ">
<polygon fill="white" stroke="#666666" points="227.38,-269.25 132.62,-269.25 132.62,-250 227.38,-250 227.38,-269.25"/>
<text xml:space="preserve" text-anchor="middle" x="180" y="-255.75" font-family="Helvetica,sans-Serif" font-size="10.00">ELPH_stop_clock</text>
</a>
</g>
</g>
<!-- Node1&#45;&gt;Node4 -->
<g id="edge3_Node000001_Node000004" class="edge">
<title>Node1&#45;&gt;Node4</title>
<g id="a_edge3_Node000001_Node000004"><a xlink:title=" ">
<path fill="none" stroke="#63b8ff" d="M62.08,-195.71C77.97,-207.75 106.01,-227.96 132.25,-241.62 134.59,-242.85 137.04,-244.03 139.53,-245.17"/>
<polygon fill="#63b8ff" stroke="#63b8ff" points="137.91,-248.28 148.48,-248.99 140.65,-241.84 137.91,-248.28"/>
</a>
</g>
</g>
<!-- Node5 -->
<g id="Node000005" class="node">
<title>Node5</title>
<g id="a_Node000005"><a xlink:href="../../dc/d50/blas_8c.html#a93d327b9e3c8bd925ff76d32df39809c" target="_top" xlink:title=" ">
<polygon fill="white" stroke="#666666" points="219.88,-232.25 140.12,-232.25 140.12,-213 219.88,-213 219.88,-232.25"/>
<text xml:space="preserve" text-anchor="middle" x="180" y="-218.75" font-family="Helvetica,sans-Serif" font-size="10.00">matmul_cmplx</text>
</a>
</g>
</g>
<!-- Node1&#45;&gt;Node5 -->
<g id="edge4_Node000001_Node000005" class="edge">
<title>Node1&#45;&gt;Node5</title>
<g id="a_edge4_Node000001_Node000005"><a xlink:title=" ">
<path fill="none" stroke="#63b8ff" d="M84.61,-195.74C99.5,-199.98 117.01,-204.97 132.88,-209.49"/>
<polygon fill="#63b8ff" stroke="#63b8ff" points="131.52,-212.74 142.1,-212.11 133.44,-206.01 131.52,-212.74"/>
</a>
</g>
</g>
<!-- Node7 -->
<g id="Node000007" class="node">
<title>Node7</title>
<g id="a_Node000007"><a xlink:href="../../de/d2d/numerical__func_8c.html#adeeb2c0049b8e3663d2d2cc9f7a1cd23" target="_top" xlink:title=" ">
<polygon fill="white" stroke="#666666" points="209,-195.25 151,-195.25 151,-176 209,-176 209,-195.25"/>
<text xml:space="preserve" text-anchor="middle" x="180" y="-181.75" font-family="Helvetica,sans-Serif" font-size="10.00">MatVec3f</text>
</a>
</g>
</g>
<!-- Node1&#45;&gt;Node7 -->
<g id="edge6_Node000001_Node000007" class="edge">
<title>Node1&#45;&gt;Node7</title>
<g id="a_edge6_Node000001_Node000007"><a xlink:title=" ">
<path fill="none" stroke="#63b8ff" d="M96.75,-185.62C110.75,-185.62 125.9,-185.62 139.35,-185.62"/>
<polygon fill="#63b8ff" stroke="#63b8ff" points="139.13,-189.13 149.13,-185.63 139.13,-182.13 139.13,-189.13"/>
</a>
</g>
</g>
<!-- Node8 -->
<g id="Node000008" class="node">
<title>Node8</title>
<g id="a_Node000008"><a xlink:href="../../dc/d77/su2mat_8c.html#a54f9aa61f40686918a52909936a101af" target="_top" xlink:title=" ">
<polygon fill="white" stroke="#666666" points="206,-158.25 154,-158.25 154,-139 206,-139 206,-158.25"/>
<text xml:space="preserve" text-anchor="middle" x="180" y="-144.75" font-family="Helvetica,sans-Serif" font-size="10.00">SU2mat</text>
</a>
</g>
</g>
<!-- Node1&#45;&gt;Node8 -->
<g id="edge7_Node000001_Node000008" class="edge">
<title>Node1&#45;&gt;Node8</title>
<g id="a_edge7_Node000001_Node000008"><a xlink:title=" ">
<path fill="none" stroke="#63b8ff" d="M84.61,-175.51C102.69,-170.37 124.63,-164.12 142.8,-158.94"/>
<polygon fill="#63b8ff" stroke="#63b8ff" points="143.73,-162.31 152.39,-156.21 141.81,-155.58 143.73,-162.31"/>
</a>
</g>
</g>
<!-- Node11 -->
<g id="Node000011" class="node">
<title>Node11</title>
<g id="a_Node000011"><a xlink:href="../../dd/d51/su2rotate_8c.html#aa1ec05c745d2b15aa7e535268eee2ca1" target="_top" xlink:title=" ">
<polygon fill="white" stroke="#666666" points="208.25,-121.25 151.75,-121.25 151.75,-102 208.25,-102 208.25,-121.25"/>
<text xml:space="preserve" text-anchor="middle" x="180" y="-107.75" font-family="Helvetica,sans-Serif" font-size="10.00">su2rotate</text>
</a>
</g>
</g>
<!-- Node1&#45;&gt;Node11 -->
<g id="edge10_Node000001_Node000011" class="edge">
<title>Node1&#45;&gt;Node11</title>
<g id="a_edge10_Node000001_Node000011"><a xlink:title=" ">
<path fill="none" stroke="#63b8ff" d="M62.08,-175.54C77.97,-163.5 106.01,-143.29 132.25,-129.62 134.98,-128.21 137.84,-126.83 140.75,-125.53"/>
<polygon fill="#63b8ff" stroke="#63b8ff" points="142.09,-128.76 149.96,-121.67 139.38,-122.31 142.09,-128.76"/>
</a>
</g>
</g>
<!-- Node12 -->
<g id="Node000012" class="node">
<title>Node12</title>
<g id="a_Node000012"><a xlink:href="../../da/da4/sum___v_n_l___k_kp_8c.html#a21c0bb74a3096948fd1060b9c254d9df" target="_top" xlink:title=" ">
<polygon fill="white" stroke="#666666" points="221.75,-84.25 138.25,-84.25 138.25,-65 221.75,-65 221.75,-84.25"/>
<text xml:space="preserve" text-anchor="middle" x="180" y="-70.75" font-family="Helvetica,sans-Serif" font-size="10.00">sum_VNL_KKp</text>
</a>
</g>
</g>
<!-- Node1&#45;&gt;Node12 -->
<g id="edge11_Node000001_Node000012" class="edge">
<title>Node1&#45;&gt;Node12</title>
<g id="a_edge11_Node000001_Node000012"><a xlink:title=" ">
<path fill="none" stroke="#63b8ff" d="M55.7,-175.52C68.39,-156.75 98.04,-116.26 132.25,-92.62 133.64,-91.67 135.08,-90.75 136.57,-89.88"/>
<polygon fill="#63b8ff" stroke="#63b8ff" points="138.11,-93.02 145.44,-85.37 134.94,-86.78 138.11,-93.02"/>
</a>
</g>
</g>
<!-- Node13 -->
<g id="Node000013" class="node">
<title>Node13</title>
<g id="a_Node000013"><a xlink:href="../../de/d2d/numerical__func_8c.html#abbd3b491506c533dac0178600c56212e" target="_top" xlink:title=" ">
<polygon fill="white" stroke="#666666" points="196.62,-47.25 163.38,-47.25 163.38,-28 196.62,-28 196.62,-47.25"/>
<text xml:space="preserve" text-anchor="middle" x="180" y="-33.75" font-family="Helvetica,sans-Serif" font-size="10.00">Ylm</text>
</a>
</g>
</g>
<!-- Node1&#45;&gt;Node13 -->
<g id="edge12_Node000001_Node000013" class="edge">
<title>Node1&#45;&gt;Node13</title>
<g id="a_edge12_Node000001_Node000013"><a xlink:title=" ">
<path fill="none" stroke="#63b8ff" d="M52.92,-175.64C62.54,-151.61 90.13,-90.02 132.25,-55.62 138.02,-50.92 145.15,-47.34 152.1,-44.68"/>
<polygon fill="#63b8ff" stroke="#63b8ff" points="153.14,-48.02 161.54,-41.57 150.95,-41.37 153.14,-48.02"/>
</a>
</g>
</g>
<!-- Node6 -->
<g id="Node000006" class="node">
<title>Node6</title>
<g id="a_Node000006"><a xlink:href="../../dc/d50/blas_8c.html#a913bafabc05e83b2aeed88da231a461f" target="_top" xlink:title=" ">
<polygon fill="white" stroke="#666666" points="349.12,-232.25 270.88,-232.25 270.88,-213 349.12,-213 349.12,-232.25"/>
<text xml:space="preserve" text-anchor="middle" x="310" y="-218.75" font-family="Helvetica,sans-Serif" font-size="10.00">get_gemmn_T</text>
</a>
</g>
</g>
<!-- Node5&#45;&gt;Node6 -->
<g id="edge5_Node000005_Node000006" class="edge">
<title>Node5&#45;&gt;Node6</title>
<g id="a_edge5_Node000005_Node000006"><a xlink:title=" ">
<path fill="none" stroke="#63b8ff" d="M220.1,-222.62C232.5,-222.62 246.37,-222.62 259.4,-222.62"/>
<polygon fill="#63b8ff" stroke="#63b8ff" points="259.07,-226.13 269.07,-222.63 259.07,-219.13 259.07,-226.13"/>
</a>
</g>
</g>
<!-- Node9 -->
<g id="Node000009" class="node">
<title>Node9</title>
<g id="a_Node000009"><a xlink:href="../../de/d2d/numerical__func_8c.html#af7b464a965e184f893290a977a66c9d1" target="_top" xlink:title=" ">
<polygon fill="white" stroke="#666666" points="332.62,-177.25 287.38,-177.25 287.38,-158 332.62,-158 332.62,-177.25"/>
<text xml:space="preserve" text-anchor="middle" x="310" y="-163.75" font-family="Helvetica,sans-Serif" font-size="10.00">det3x3</text>
</a>
</g>
</g>
<!-- Node8&#45;&gt;Node9 -->
<g id="edge8_Node000008_Node000009" class="edge">
<title>Node8&#45;&gt;Node9</title>
<g id="a_edge8_Node000008_Node000009"><a xlink:title=" ">
<path fill="none" stroke="#63b8ff" d="M206.29,-152.38C226.21,-155.34 254.14,-159.48 275.84,-162.7"/>
<polygon fill="#63b8ff" stroke="#63b8ff" points="275.27,-166.16 285.68,-164.16 276.3,-159.23 275.27,-166.16"/>
</a>
</g>
</g>
<!-- Node10 -->
<g id="Node000010" class="node">
<title>Node10</title>
<g id="a_Node000010"><a xlink:href="../../de/d2d/numerical__func_8c.html#a5cb6a4677901df82939f3bb08fe1e5de" target="_top" xlink:title=" ">
<polygon fill="white" stroke="#666666" points="356.25,-140.25 263.75,-140.25 263.75,-121 356.25,-121 356.25,-140.25"/>
<text xml:space="preserve" text-anchor="middle" x="310" y="-126.75" font-family="Helvetica,sans-Serif" font-size="10.00">matmul_Cmpl2x2</text>
</a>
</g>
</g>
<!-- Node8&#45;&gt;Node10 -->
<g id="edge9_Node000008_Node000010" class="edge">
<title>Node8&#45;&gt;Node10</title>
<g id="a_edge9_Node000008_Node000010"><a xlink:title=" ">
<path fill="none" stroke="#63b8ff" d="M206.29,-145.07C219.49,-143.21 236.21,-140.86 252.31,-138.6"/>
<polygon fill="#63b8ff" stroke="#63b8ff" points="252.38,-142.12 261.8,-137.26 251.41,-135.19 252.38,-142.12"/>
</a>
</g>
</g>
<!-- Node14 -->
<g id="Node000014" class="node">
<title>Node14</title>
<g id="a_Node000014"><a xlink:href="../../de/d2d/numerical__func_8c.html#ae779062669bf246a73b2c00639b8b9fd" target="_top" xlink:title=" ">
<polygon fill="white" stroke="#666666" points="442.75,-47.25 392.25,-47.25 392.25,-28 442.75,-28 442.75,-47.25"/>
<text xml:space="preserve" text-anchor="middle" x="417.5" y="-33.75" font-family="Helvetica,sans-Serif" font-size="10.00">factorial</text>
</a>
</g>
</g>
<!-- Node13&#45;&gt;Node14 -->
<g id="edge13_Node000013_Node000014" class="edge">
<title>Node13&#45;&gt;Node14</title>
<g id="a_edge13_Node000013_Node000014"><a xlink:title=" ">
<path fill="none" stroke="#63b8ff" d="M196.82,-39.86C213.45,-42.09 240.37,-45.36 263.75,-46.62 304.8,-48.85 315.25,-49.67 356.25,-46.62 364.19,-46.04 372.66,-45.01 380.68,-43.87"/>
<polygon fill="#63b8ff" stroke="#63b8ff" points="381.12,-47.34 390.47,-42.36 380.06,-40.42 381.12,-47.34"/>
</a>
</g>
</g>
<!-- Node15 -->
<g id="Node000015" class="node">
<title>Node15</title>
<g id="a_Node000015"><a xlink:href="../../de/d2d/numerical__func_8c.html#a05eb7f6851ab17f3a79e91a1bb0cf16d" target="_top" xlink:title=" ">
<polygon fill="white" stroke="#666666" points="336.38,-19.25 283.62,-19.25 283.62,0 336.38,0 336.38,-19.25"/>
<text xml:space="preserve" text-anchor="middle" x="310" y="-5.75" font-family="Helvetica,sans-Serif" font-size="10.00">legendre</text>
</a>
</g>
</g>
<!-- Node13&#45;&gt;Node15 -->
<g id="edge14_Node000013_Node000015" class="edge">
<title>Node13&#45;&gt;Node15</title>
<g id="a_edge14_Node000013_Node000015"><a xlink:title=" ">
<path fill="none" stroke="#63b8ff" d="M196.95,-34.14C215.7,-30.03 247.4,-23.1 272.31,-17.65"/>
<polygon fill="#63b8ff" stroke="#63b8ff" points="273.06,-21.07 282.08,-15.51 271.56,-14.23 273.06,-21.07"/>
</a>
</g>
</g>
<!-- Node15&#45;&gt;Node14 -->
<g id="edge15_Node000015_Node000014" class="edge">
<title>Node15&#45;&gt;Node14</title>
<g id="a_edge15_Node000015_Node000014"><a xlink:title=" ">
<path fill="none" stroke="#63b8ff" d="M336.81,-16.47C350.09,-20 366.5,-24.35 380.96,-28.19"/>
<polygon fill="#63b8ff" stroke="#63b8ff" points="380.02,-31.56 390.58,-30.75 381.82,-24.8 380.02,-31.56"/>
</a>
</g>
</g>
<!-- Node15&#45;&gt;Node15 -->
<g id="edge16_Node000015_Node000015" class="edge">
<title>Node15&#45;&gt;Node15</title>
<g id="a_edge16_Node000015_Node000015"><a xlink:title=" ">
<path fill="none" stroke="#63b8ff" d="M293.17,-19.54C285.49,-28.15 291.1,-37.25 310,-37.25 320.33,-37.25 326.69,-34.53 329.08,-30.65"/>
<polygon fill="#63b8ff" stroke="#63b8ff" points="332.55,-30.13 327.13,-21.02 325.69,-31.52 332.55,-30.13"/>
</a>
</g>
</g>
</g>
</svg>
