<?xml version="1.0" encoding="UTF-8" standalone="no"?>
<!DOCTYPE svg PUBLIC "-//W3C//DTD SVG 1.1//EN"
 "http://www.w3.org/Graphics/SVG/1.1/DTD/svg11.dtd">
<!-- Generated by graphviz version 14.0.0 (20250921.2048)
 -->
<!-- Title: src/fft/bwdfft.c Pages: 1 -->
<svg width="432pt" height="138pt"
 viewBox="0.00 0.00 432.00 138.00" xmlns="http://www.w3.org/2000/svg" xmlns:xlink="http://www.w3.org/1999/xlink">
<g id="graph0" class="graph" transform="scale(1 1) rotate(0) translate(4 133.75)">
<title>src/fft/bwdfft.c</title>
<!-- Node1 -->
<g id="Node000001" class="node">
<title>Node1</title>
<g id="a_Node000001"><a xlink:title=" ">
<polygon fill="#999999" stroke="#666666" points="248.38,-129.75 168.62,-129.75 168.62,-110.5 248.38,-110.5 248.38,-129.75"/>
<text xml:space="preserve" text-anchor="middle" x="208.5" y="-116.25" font-family="Helvetica,sans-Serif" font-size="10.00">src/fft/bwdfft.c</text>
</a>
</g>
</g>
<!-- Node2 -->
<g id="Node000002" class="node">
<title>Node2</title>
<g id="a_Node000002"><a xlink:title=" ">
<polygon fill="#e0e0e0" stroke="#999999" points="61,-19.25 0,-19.25 0,0 61,0 61,-19.25"/>
<text xml:space="preserve" text-anchor="middle" x="30.5" y="-5.75" font-family="Helvetica,sans-Serif" font-size="10.00">complex.h</text>
</a>
</g>
</g>
<!-- Node1&#45;&gt;Node2 -->
<g id="edge1_Node000001_Node000002" class="edge">
<title>Node1&#45;&gt;Node2</title>
<g id="a_edge1_Node000001_Node000002"><a xlink:title=" ">
<path fill="none" stroke="#63b8ff" d="M188.22,-110.07C169.86,-101.62 142.28,-88.27 119.5,-74.5 94.92,-59.64 68.36,-40.08 50.72,-26.54"/>
<polygon fill="#63b8ff" stroke="#63b8ff" points="53.15,-24 43.1,-20.63 48.86,-29.53 53.15,-24"/>
</a>
</g>
</g>
<!-- Node3 -->
<g id="Node000003" class="node">
<title>Node3</title>
<g id="a_Node000003"><a xlink:title=" ">
<polygon fill="#e0e0e0" stroke="#999999" points="125.5,-19.25 79.5,-19.25 79.5,0 125.5,0 125.5,-19.25"/>
<text xml:space="preserve" text-anchor="middle" x="102.5" y="-5.75" font-family="Helvetica,sans-Serif" font-size="10.00">fftw3.h</text>
</a>
</g>
</g>
<!-- Node1&#45;&gt;Node3 -->
<g id="edge2_Node000001_Node000003" class="edge">
<title>Node1&#45;&gt;Node3</title>
<g id="a_edge2_Node000001_Node000003"><a xlink:title=" ">
<path fill="none" stroke="#63b8ff" d="M188.51,-110.06C173.12,-102.31 152.07,-89.97 137.5,-74.5 125.3,-61.54 115.93,-43.52 109.97,-29.92"/>
<polygon fill="#63b8ff" stroke="#63b8ff" points="113.24,-28.67 106.2,-20.75 106.77,-31.33 113.24,-28.67"/>
</a>
</g>
</g>
<!-- Node4 -->
<g id="Node000004" class="node">
<title>Node4</title>
<g id="a_Node000004"><a xlink:title=" ">
<polygon fill="#e0e0e0" stroke="#999999" points="257.38,-19.25 201.62,-19.25 201.62,0 257.38,0 257.38,-19.25"/>
<text xml:space="preserve" text-anchor="middle" x="229.5" y="-5.75" font-family="Helvetica,sans-Serif" font-size="10.00">stdbool.h</text>
</a>
</g>
</g>
<!-- Node1&#45;&gt;Node4 -->
<g id="edge3_Node000001_Node000004" class="edge">
<title>Node1&#45;&gt;Node4</title>
<g id="a_edge3_Node000001_Node000004"><a xlink:title=" ">
<path fill="none" stroke="#63b8ff" d="M210.22,-110.25C213.56,-93 220.99,-54.58 225.59,-30.81"/>
<polygon fill="#63b8ff" stroke="#63b8ff" points="229.01,-31.6 227.47,-21.11 222.13,-30.27 229.01,-31.6"/>
</a>
</g>
</g>
<!-- Node5 -->
<g id="Node000005" class="node">
<title>Node5</title>
<g id="a_Node000005"><a xlink:title=" ">
<polygon fill="#e0e0e0" stroke="#999999" points="322.62,-74.5 274.38,-74.5 274.38,-55.25 322.62,-55.25 322.62,-74.5"/>
<text xml:space="preserve" text-anchor="middle" x="298.5" y="-61" font-family="Helvetica,sans-Serif" font-size="10.00">string.h</text>
</a>
</g>
</g>
<!-- Node1&#45;&gt;Node5 -->
<g id="edge4_Node000001_Node000005" class="edge">
<title>Node1&#45;&gt;Node5</title>
<g id="a_edge4_Node000001_Node000005"><a xlink:title=" ">
<path fill="none" stroke="#63b8ff" d="M223.77,-110.09C237.34,-102.06 257.45,-90.16 273.4,-80.73"/>
<polygon fill="#63b8ff" stroke="#63b8ff" points="275.03,-83.83 281.86,-75.72 271.47,-77.8 275.03,-83.83"/>
</a>
</g>
</g>
<!-- Node6 -->
<g id="Node000006" class="node">
<title>Node6</title>
<g id="a_Node000006"><a xlink:href="../../da/d41/error_8h.html" target="_top" xlink:title=" ">
<polygon fill="white" stroke="#666666" points="424.25,-74.5 340.75,-74.5 340.75,-55.25 424.25,-55.25 424.25,-74.5"/>
<text xml:space="preserve" text-anchor="middle" x="382.5" y="-61" font-family="Helvetica,sans-Serif" font-size="10.00">common/error.h</text>
</a>
</g>
</g>
<!-- Node1&#45;&gt;Node6 -->
<g id="edge5_Node000001_Node000006" class="edge">
<title>Node1&#45;&gt;Node6</title>
<g id="a_edge5_Node000001_Node000006"><a xlink:title=" ">
<path fill="none" stroke="#63b8ff" d="M238.02,-110.09C266.64,-101.33 310.28,-87.98 342.12,-78.23"/>
<polygon fill="#63b8ff" stroke="#63b8ff" points="342.85,-81.67 351.39,-75.4 340.8,-74.98 342.85,-81.67"/>
</a>
</g>
</g>
<!-- Node7 -->
<g id="Node000007" class="node">
<title>Node7</title>
<g id="a_Node000007"><a xlink:href="../../d4/d0a/elph_c_8h.html" target="_top" xlink:title="Core type definitions and configuration for LetzElPhC.">
<polygon fill="white" stroke="#666666" points="325.38,-19.25 275.62,-19.25 275.62,0 325.38,0 325.38,-19.25"/>
<text xml:space="preserve" text-anchor="middle" x="300.5" y="-5.75" font-family="Helvetica,sans-Serif" font-size="10.00">elphC.h</text>
</a>
</g>
</g>
<!-- Node1&#45;&gt;Node7 -->
<g id="edge6_Node000001_Node000007" class="edge">
<title>Node1&#45;&gt;Node7</title>
<g id="a_edge6_Node000001_Node000007"><a xlink:title=" ">
<path fill="none" stroke="#63b8ff" d="M216.03,-110.25C231.19,-92.36 265.65,-51.72 285.56,-28.25"/>
<polygon fill="#63b8ff" stroke="#63b8ff" points="288.09,-30.67 291.89,-20.78 282.75,-26.14 288.09,-30.67"/>
</a>
</g>
</g>
<!-- Node8 -->
<g id="Node000008" class="node">
<title>Node8</title>
<g id="a_Node000008"><a xlink:href="../../d7/d76/fft_8h.html" target="_top" xlink:title=" ">
<polygon fill="white" stroke="#666666" points="180.12,-74.5 146.88,-74.5 146.88,-55.25 180.12,-55.25 180.12,-74.5"/>
<text xml:space="preserve" text-anchor="middle" x="163.5" y="-61" font-family="Helvetica,sans-Serif" font-size="10.00">fft.h</text>
</a>
</g>
</g>
<!-- Node1&#45;&gt;Node8 -->
<g id="edge7_Node000001_Node000008" class="edge">
<title>Node1&#45;&gt;Node8</title>
<g id="a_edge7_Node000001_Node000008"><a xlink:title=" ">
<path fill="none" stroke="#63b8ff" d="M201.07,-110.33C194.92,-103.05 185.99,-92.48 178.37,-83.48"/>
<polygon fill="#63b8ff" stroke="#63b8ff" points="181.2,-81.39 172.07,-76.02 175.85,-85.91 181.2,-81.39"/>
</a>
</g>
</g>
<!-- Node8&#45;&gt;Node2 -->
<g id="edge9_Node000008_Node000002" class="edge">
<title>Node8&#45;&gt;Node2</title>
<g id="a_edge9_Node000008_Node000002"><a xlink:title=" ">
<path fill="none" stroke="#63b8ff" d="M146.38,-57.02C125.51,-48.67 89.77,-34.36 63.49,-23.83"/>
<polygon fill="#63b8ff" stroke="#63b8ff" points="64.86,-20.61 54.28,-20.14 62.26,-27.11 64.86,-20.61"/>
</a>
</g>
</g>
<!-- Node8&#45;&gt;Node3 -->
<g id="edge10_Node000008_Node000003" class="edge">
<title>Node8&#45;&gt;Node3</title>
<g id="a_edge10_Node000008_Node000003"><a xlink:title=" ">
<path fill="none" stroke="#63b8ff" d="M153.15,-54.84C144.42,-47.22 131.71,-36.12 121.2,-26.95"/>
<polygon fill="#63b8ff" stroke="#63b8ff" points="123.67,-24.46 113.84,-20.52 119.07,-29.73 123.67,-24.46"/>
</a>
</g>
</g>
<!-- Node8&#45;&gt;Node4 -->
<g id="edge12_Node000008_Node000004" class="edge">
<title>Node8&#45;&gt;Node4</title>
<g id="a_edge12_Node000008_Node000004"><a xlink:title=" ">
<path fill="none" stroke="#63b8ff" d="M174.7,-54.84C184.24,-47.15 198.17,-35.9 209.61,-26.68"/>
<polygon fill="#63b8ff" stroke="#63b8ff" points="211.71,-29.48 217.29,-20.48 207.31,-24.03 211.71,-29.48"/>
</a>
</g>
</g>
<!-- Node8&#45;&gt;Node7 -->
<g id="edge8_Node000008_Node000007" class="edge">
<title>Node8&#45;&gt;Node7</title>
<g id="a_edge8_Node000008_Node000007"><a xlink:title=" ">
<path fill="none" stroke="#63b8ff" d="M180.57,-57.24C202.01,-48.91 239.28,-34.42 266.59,-23.8"/>
<polygon fill="#63b8ff" stroke="#63b8ff" points="267.78,-27.1 275.84,-20.21 265.25,-20.57 267.78,-27.1"/>
</a>
</g>
</g>
<!-- Node9 -->
<g id="Node000009" class="node">
<title>Node9</title>
<g id="a_Node000009"><a xlink:title=" ">
<polygon fill="#e0e0e0" stroke="#999999" points="183.5,-19.25 143.5,-19.25 143.5,0 183.5,0 183.5,-19.25"/>
<text xml:space="preserve" text-anchor="middle" x="163.5" y="-5.75" font-family="Helvetica,sans-Serif" font-size="10.00">mpi.h</text>
</a>
</g>
</g>
<!-- Node8&#45;&gt;Node9 -->
<g id="edge11_Node000008_Node000009" class="edge">
<title>Node8&#45;&gt;Node9</title>
<g id="a_edge11_Node000008_Node000009"><a xlink:title=" ">
<path fill="none" stroke="#63b8ff" d="M163.5,-55.08C163.5,-48.57 163.5,-39.42 163.5,-31.12"/>
<polygon fill="#63b8ff" stroke="#63b8ff" points="167,-31.12 163.5,-21.12 160,-31.12 167,-31.12"/>
</a>
</g>
</g>
</g>
</svg>
