<?xml version="1.0" encoding="UTF-8" standalone="no"?>
<!DOCTYPE svg PUBLIC "-//W3C//DTD SVG 1.1//EN"
 "http://www.w3.org/Graphics/SVG/1.1/DTD/svg11.dtd">
<!-- Generated by graphviz version 14.0.0 (20250921.2048)
 -->
<!-- Title: compute_and_write_elphq Pages: 1 -->
<!--zoomable 664 -->

<svg id="main" version="1.1" xmlns="http://www.w3.org/2000/svg" xmlns:xlink="http://www.w3.org/1999/xlink" xml:space="preserve" onload="init(evt)">

<style type="text/css"><![CDATA[
.node, .edge {opacity: 0.7;}
.node.selected, .edge.selected {opacity: 1;}
.edge:hover path { stroke: red; }
.edge:hover polygon { stroke: red; fill: red; }
]]></style>

<defs>
  <circle id="rim" cx="0" cy="0" r="7"/>
  <circle id="rim2" cx="0" cy="0" r="3.5"/>
  <g id="zoomPlus">
    <use xlink:href="#rim" fill="#404040"><set attributeName="fill" to="#808080" begin="zoomplus.mouseover" end="zoomplus.mouseout"/></use>
    <path d="M-4,0h8M0,-4v8" fill="none" stroke="white" stroke-width="1.5" pointer-events="none"/>
  </g>
  <g id="zoomMin">
    <use xlink:href="#rim" fill="#404040"><set attributeName="fill" to="#808080" begin="zoomminus.mouseover" end="zoomminus.mouseout"/></use>
    <path d="M-4,0h8" fill="none" stroke="white" stroke-width="1.5" pointer-events="none"/>
  </g>
  <g id="arrowUp" transform="translate(30 24)">
    <use xlink:href="#rim"/>
    <path pointer-events="none" fill="none" stroke="white" stroke-width="1.5" d="M0,-3.0v7 M-2.5,-0.5L0,-3.0L2.5,-0.5"/>
  </g>
  <g id="arrowRight" transform="rotate(90) translate(36 -43)">
    <use xlink:href="#rim"/>
    <path pointer-events="none" fill="none" stroke="white" stroke-width="1.5" d="M0,-3.0v7 M-2.5,-0.5L0,-3.0L2.5,-0.5"/>
  </g>
  <g id="arrowDown" transform="rotate(180) translate(-30 -48)">
    <use xlink:href="#rim"/>
    <path pointer-events="none" fill="none" stroke="white" stroke-width="1.5" d="M0,-3.0v7 M-2.5,-0.5L0,-3.0L2.5,-0.5"/>
  </g>
  <g id="arrowLeft" transform="rotate(270) translate(-36 17)">
    <use xlink:href="#rim"/>
    <path pointer-events="none" fill="none" stroke="white" stroke-width="1.5" d="M0,-3.0v7 M-2.5,-0.5L0,-3.0L2.5,-0.5"/>
  </g>
  <g id="resetDef">
    <use xlink:href="#rim2" fill="#404040"><set attributeName="fill" to="#808080" begin="reset.mouseover" end="reset.mouseout"/></use>
  </g>
</defs>
<script type="application/ecmascript">
var viewWidth = 669;
var viewHeight = 664;
var sectionId = 'dynsection-1';
</script>
<script type="application/ecmascript" xlink:href="../../svg.min.js"/>
<svg id="graph" class="graph">
<g id="viewport">
<title>compute_and_write_elphq</title>
<!-- Node1 -->
<g id="Node000001" class="node">
<title>Node1</title>
<g id="a_Node000001"><a xlink:title=" ">
<polygon fill="#999999" stroke="#666666" points="129.25,-279.25 0,-279.25 0,-260 129.25,-260 129.25,-279.25"/>
<text xml:space="preserve" text-anchor="middle" x="64.62" y="-265.75" font-family="Helvetica,sans-Serif" font-size="10.00">compute_and_write_elphq</text>
</a>
</g>
</g>
<!-- Node2 -->
<g id="Node000002" class="node">
<title>Node2</title>
<g id="a_Node000002"><a xlink:href="../../d6/db8/_vbare__nloc_8c.html#abeb59b7a11cbc7ffec9b5bb2759ebbdd" target="_top" xlink:title=" ">
<polygon fill="white" stroke="#666666" points="261.5,-446.25 165.25,-446.25 165.25,-427 261.5,-427 261.5,-446.25"/>
<text xml:space="preserve" text-anchor="middle" x="213.38" y="-432.75" font-family="Helvetica,sans-Serif" font-size="10.00">add_elphNonLocal</text>
</a>
</g>
</g>
<!-- Node1&#45;&gt;Node2 -->
<g id="edge1_Node000001_Node000002" class="edge">
<title>Node1&#45;&gt;Node2</title>
<g id="a_edge1_Node000001_Node000002"><a xlink:title=" ">
<path fill="none" stroke="#63b8ff" d="M74.37,-279.57C98.27,-306.77 165.01,-382.72 196.08,-418.08"/>
<polygon fill="#63b8ff" stroke="#63b8ff" points="193.27,-420.18 202.5,-425.38 198.52,-415.56 193.27,-420.18"/>
</a>
</g>
</g>
<!-- Node8 -->
<g id="Node000008" class="node">
<title>Node8</title>
<g id="a_Node000008"><a xlink:href="../../de/d2d/numerical__func_8c.html#adeeb2c0049b8e3663d2d2cc9f7a1cd23" target="_top" xlink:title=" ">
<polygon fill="white" stroke="#666666" points="516.62,-315.25 458.62,-315.25 458.62,-296 516.62,-296 516.62,-315.25"/>
<text xml:space="preserve" text-anchor="middle" x="487.62" y="-301.75" font-family="Helvetica,sans-Serif" font-size="10.00">MatVec3f</text>
</a>
</g>
</g>
<!-- Node1&#45;&gt;Node8 -->
<g id="edge51_Node000001_Node000008" class="edge">
<title>Node1&#45;&gt;Node8</title>
<g id="a_edge51_Node000001_Node000008"><a xlink:title=" ">
<path fill="none" stroke="#63b8ff" d="M68.65,-279.58C83.66,-326.85 155.12,-528.73 297.5,-587.62 336.72,-603.85 358.58,-612.46 393,-587.62 395.79,-585.61 458.9,-391.26 479.9,-326.42"/>
<polygon fill="#63b8ff" stroke="#63b8ff" points="483.19,-327.61 482.94,-317.02 476.53,-325.46 483.19,-327.61"/>
</a>
</g>
</g>
<!-- Node17 -->
<g id="Node000017" class="node">
<title>Node17</title>
<g id="a_Node000017"><a xlink:href="../../d9/d54/parallel_8c.html#a94eab8d16c1d9faeee313c775986cf08" target="_top" xlink:title=" ">
<polygon fill="white" stroke="#666666" points="260,-372.25 166.75,-372.25 166.75,-353 260,-353 260,-372.25"/>
<text xml:space="preserve" text-anchor="middle" x="213.38" y="-358.75" font-family="Helvetica,sans-Serif" font-size="10.00">distribute_to_grps</text>
</a>
</g>
</g>
<!-- Node1&#45;&gt;Node17 -->
<g id="edge18_Node000001_Node000017" class="edge">
<title>Node1&#45;&gt;Node17</title>
<g id="a_edge18_Node000001_Node000017"><a xlink:title=" ">
<path fill="none" stroke="#63b8ff" d="M76.56,-279.51C94.17,-295.04 130.39,-325.35 165.25,-344.62 167.43,-345.83 169.71,-346.99 172.03,-348.1"/>
<polygon fill="#63b8ff" stroke="#63b8ff" points="170.44,-351.22 181,-352.02 173.24,-344.81 170.44,-351.22"/>
</a>
</g>
</g>
<!-- Node18 -->
<g id="Node000018" class="node">
<title>Node18</title>
<g id="a_Node000018"><a xlink:href="../../dd/d37/elphq__expand_8c.html#a0ae24af3ba2534ff808508356e40f869" target="_top" xlink:title=" ">
<polygon fill="white" stroke="#666666" points="250.62,-335.25 176.12,-335.25 176.12,-316 250.62,-316 250.62,-335.25"/>
<text xml:space="preserve" text-anchor="middle" x="213.38" y="-321.75" font-family="Helvetica,sans-Serif" font-size="10.00">elph_q_rotate</text>
</a>
</g>
</g>
<!-- Node1&#45;&gt;Node18 -->
<g id="edge19_Node000001_Node000018" class="edge">
<title>Node1&#45;&gt;Node18</title>
<g id="a_edge19_Node000001_Node000018"><a xlink:title=" ">
<path fill="none" stroke="#63b8ff" d="M91.86,-279.64C115.09,-288.5 149.25,-301.54 175.27,-311.47"/>
<polygon fill="#63b8ff" stroke="#63b8ff" points="173.87,-314.68 184.46,-314.97 176.36,-308.14 173.87,-314.68"/>
</a>
</g>
</g>
<!-- Node19 -->
<g id="Node000019" class="node">
<title>Node19</title>
<g id="a_Node000019"><a xlink:href="../../d1/d8e/compute___vbare__loc_8c.html#a5f1d51340a8457749225b05b612e4abe" target="_top" xlink:title=" ">
<polygon fill="white" stroke="#666666" points="242,-298.25 184.75,-298.25 184.75,-279 242,-279 242,-298.25"/>
<text xml:space="preserve" text-anchor="middle" x="213.38" y="-284.75" font-family="Helvetica,sans-Serif" font-size="10.00">elphLocal</text>
</a>
</g>
</g>
<!-- Node1&#45;&gt;Node19 -->
<g id="edge23_Node000001_Node000019" class="edge">
<title>Node1&#45;&gt;Node19</title>
<g id="a_edge23_Node000001_Node000019"><a xlink:title=" ">
<path fill="none" stroke="#63b8ff" d="M129.56,-277.9C144.38,-279.82 159.72,-281.81 173.11,-283.54"/>
<polygon fill="#63b8ff" stroke="#63b8ff" points="172.44,-286.98 182.81,-284.8 173.34,-280.04 172.44,-286.98"/>
</a>
</g>
</g>
<!-- Node34 -->
<g id="Node000034" class="node">
<title>Node34</title>
<g id="a_Node000034"><a xlink:href="../../de/d2d/numerical__func_8c.html#a95da0d07e74aa4a00285324f1464224b" target="_top" xlink:title=" ">
<polygon fill="white" stroke="#666666" points="388.12,-19.25 302.38,-19.25 302.38,0 388.12,0 388.12,-19.25"/>
<text xml:space="preserve" text-anchor="middle" x="345.25" y="-5.75" font-family="Helvetica,sans-Serif" font-size="10.00">find_kidx_in_list</text>
</a>
</g>
</g>
<!-- Node1&#45;&gt;Node34 -->
<g id="edge48_Node000001_Node000034" class="edge">
<title>Node1&#45;&gt;Node34</title>
<g id="a_edge48_Node000001_Node000034"><a xlink:title=" ">
<path fill="none" stroke="#63b8ff" d="M129.69,-264.95C179.59,-259.95 243.35,-250.09 261.5,-231.62 326.05,-165.97 238.97,-98.69 297.5,-27.62 297.75,-27.32 298,-27.03 298.26,-26.73"/>
<polygon fill="#63b8ff" stroke="#63b8ff" points="300.34,-29.56 305.9,-20.54 295.93,-24.12 300.34,-29.56"/>
</a>
</g>
</g>
<!-- Node35 -->
<g id="Node000035" class="node">
<title>Node35</title>
<g id="a_Node000035"><a xlink:href="../../de/d2d/numerical__func_8c.html#addc0a8eaf0d13f25db2567d2bb688bc3" target="_top" xlink:title=" ">
<polygon fill="white" stroke="#666666" points="258.5,-222.25 168.25,-222.25 168.25,-203 258.5,-203 258.5,-222.25"/>
<text xml:space="preserve" text-anchor="middle" x="213.38" y="-208.75" font-family="Helvetica,sans-Serif" font-size="10.00">get_KplusQ_idxs</text>
</a>
</g>
</g>
<!-- Node1&#45;&gt;Node35 -->
<g id="edge49_Node000001_Node000035" class="edge">
<title>Node1&#45;&gt;Node35</title>
<g id="a_edge49_Node000001_Node000035"><a xlink:title=" ">
<path fill="none" stroke="#63b8ff" d="M91.52,-259.57C114.99,-250.45 149.82,-236.92 176.07,-226.73"/>
<polygon fill="#63b8ff" stroke="#63b8ff" points="177.27,-230.01 185.32,-223.13 174.74,-223.49 177.27,-230.01"/>
</a>
</g>
</g>
<!-- Node36 -->
<g id="Node000036" class="node">
<title>Node36</title>
<g id="a_Node000036"><a xlink:href="../../df/dc3/progess__bar_8c.html#a5c4666fb95fd34e435e1584cbd00fd28" target="_top" xlink:title=" ">
<polygon fill="white" stroke="#666666" points="258.88,-185.25 167.88,-185.25 167.88,-166 258.88,-166 258.88,-185.25"/>
<text xml:space="preserve" text-anchor="middle" x="213.38" y="-171.75" font-family="Helvetica,sans-Serif" font-size="10.00">print_progressbar</text>
</a>
</g>
</g>
<!-- Node1&#45;&gt;Node36 -->
<g id="edge52_Node000001_Node000036" class="edge">
<title>Node1&#45;&gt;Node36</title>
<g id="a_edge52_Node000001_Node000036"><a xlink:title=" ">
<path fill="none" stroke="#63b8ff" d="M76.54,-259.59C94.11,-243.84 130.28,-213.11 165.25,-193.62 167.43,-192.41 169.7,-191.25 172.02,-190.13"/>
<polygon fill="#63b8ff" stroke="#63b8ff" points="173.23,-193.43 180.99,-186.21 170.42,-187.01 173.23,-193.43"/>
</a>
</g>
</g>
<!-- Node37 -->
<g id="Node000037" class="node">
<title>Node37</title>
<g id="a_Node000037"><a xlink:href="../../df/dc3/progess__bar_8c.html#ac4a1ed7cecb4003c06db6f2bbc4e8ca5" target="_top" xlink:title=" ">
<polygon fill="white" stroke="#666666" points="259.25,-148.25 167.5,-148.25 167.5,-129 259.25,-129 259.25,-148.25"/>
<text xml:space="preserve" text-anchor="middle" x="213.38" y="-134.75" font-family="Helvetica,sans-Serif" font-size="10.00">start_progressbar</text>
</a>
</g>
</g>
<!-- Node1&#45;&gt;Node37 -->
<g id="edge53_Node000001_Node000037" class="edge">
<title>Node1&#45;&gt;Node37</title>
<g id="a_edge53_Node000001_Node000037"><a xlink:title=" ">
<path fill="none" stroke="#63b8ff" d="M71.88,-259.73C86.01,-238.12 122.49,-186.29 165.25,-156.62 166.78,-155.56 168.39,-154.55 170.04,-153.59"/>
<polygon fill="#63b8ff" stroke="#63b8ff" points="171.18,-156.94 178.54,-149.32 168.03,-150.68 171.18,-156.94"/>
</a>
</g>
</g>
<!-- Node38 -->
<g id="Node000038" class="node">
<title>Node38</title>
<g id="a_Node000038"><a xlink:href="../../de/d2d/numerical__func_8c.html#a9e8b4d4d6ae61479a604d43d291d7c1e" target="_top" xlink:title=" ">
<polygon fill="white" stroke="#666666" points="243.5,-111.25 183.25,-111.25 183.25,-92 243.5,-92 243.5,-111.25"/>
<text xml:space="preserve" text-anchor="middle" x="213.38" y="-97.75" font-family="Helvetica,sans-Serif" font-size="10.00">swap_ints</text>
</a>
</g>
</g>
<!-- Node1&#45;&gt;Node38 -->
<g id="edge54_Node000001_Node000038" class="edge">
<title>Node1&#45;&gt;Node38</title>
<g id="a_edge54_Node000001_Node000038"><a xlink:title=" ">
<path fill="none" stroke="#63b8ff" d="M69.62,-259.69C80.77,-233.17 114.72,-160.05 165.25,-119.62 167.52,-117.81 170,-116.16 172.59,-114.66"/>
<polygon fill="#63b8ff" stroke="#63b8ff" points="174.12,-117.81 181.59,-110.3 171.07,-111.51 174.12,-117.81"/>
</a>
</g>
</g>
<!-- Node3 -->
<g id="Node000003" class="node">
<title>Node3</title>
<g id="a_Node000003"><a xlink:href="../../db/d7a/trans__wfc_8c.html#a481ceff1e11d889b6a9e302c9546b05d" target="_top" xlink:title=" ">
<polygon fill="white" stroke="#666666" points="388.88,-391.25 301.62,-391.25 301.62,-372 388.88,-372 388.88,-391.25"/>
<text xml:space="preserve" text-anchor="middle" x="345.25" y="-377.75" font-family="Helvetica,sans-Serif" font-size="10.00">apply_trans_wfc</text>
</a>
</g>
</g>
<!-- Node2&#45;&gt;Node3 -->
<g id="edge2_Node000002_Node000003" class="edge">
<title>Node2&#45;&gt;Node3</title>
<g id="a_edge2_Node000002_Node000003"><a xlink:title=" ">
<path fill="none" stroke="#63b8ff" d="M236.12,-426.58C252.81,-418.96 276.49,-408.34 297.5,-399.62 300.51,-398.38 303.65,-397.11 306.8,-395.85"/>
<polygon fill="#63b8ff" stroke="#63b8ff" points="308.01,-399.13 316.05,-392.22 305.46,-392.61 308.01,-399.13"/>
</a>
</g>
</g>
<!-- Node4 -->
<g id="Node000004" class="node">
<title>Node4</title>
<g id="a_Node000004"><a xlink:href="../../da/d97/_e_l_p_h__timers_8c.html#a4846a0dbe6a17751878baf1315af43aa" target="_top" xlink:title=" ">
<polygon fill="white" stroke="#666666" points="393,-465.25 297.5,-465.25 297.5,-446 393,-446 393,-465.25"/>
<text xml:space="preserve" text-anchor="middle" x="345.25" y="-451.75" font-family="Helvetica,sans-Serif" font-size="10.00">ELPH_start_clock</text>
</a>
</g>
</g>
<!-- Node2&#45;&gt;Node4 -->
<g id="edge3_Node000002_Node000004" class="edge">
<title>Node2&#45;&gt;Node4</title>
<g id="a_edge3_Node000002_Node000004"><a xlink:title=" ">
<path fill="none" stroke="#63b8ff" d="M262,-443.59C269.77,-444.73 277.9,-445.92 285.9,-447.09"/>
<polygon fill="#63b8ff" stroke="#63b8ff" points="285.17,-450.52 295.57,-448.5 286.18,-443.59 285.17,-450.52"/>
</a>
</g>
</g>
<!-- Node5 -->
<g id="Node000005" class="node">
<title>Node5</title>
<g id="a_Node000005"><a xlink:href="../../da/d97/_e_l_p_h__timers_8c.html#adcc3002449fe62895b6e89571d00ba48" target="_top" xlink:title=" ">
<polygon fill="white" stroke="#666666" points="392.62,-354.25 297.88,-354.25 297.88,-335 392.62,-335 392.62,-354.25"/>
<text xml:space="preserve" text-anchor="middle" x="345.25" y="-340.75" font-family="Helvetica,sans-Serif" font-size="10.00">ELPH_stop_clock</text>
</a>
</g>
</g>
<!-- Node2&#45;&gt;Node5 -->
<g id="edge4_Node000002_Node000005" class="edge">
<title>Node2&#45;&gt;Node5</title>
<g id="a_edge4_Node000002_Node000005"><a xlink:title=" ">
<path fill="none" stroke="#63b8ff" d="M223.2,-426.75C237.48,-411.26 267.14,-381.13 297.5,-362.62 299.34,-361.5 301.26,-360.43 303.23,-359.41"/>
<polygon fill="#63b8ff" stroke="#63b8ff" points="304.36,-362.74 311.95,-355.35 301.4,-356.4 304.36,-362.74"/>
</a>
</g>
</g>
<!-- Node6 -->
<g id="Node000006" class="node">
<title>Node6</title>
<g id="a_Node000006"><a xlink:href="../../dc/d50/blas_8c.html#a93d327b9e3c8bd925ff76d32df39809c" target="_top" xlink:title=" ">
<polygon fill="white" stroke="#666666" points="385.12,-317.25 305.38,-317.25 305.38,-298 385.12,-298 385.12,-317.25"/>
<text xml:space="preserve" text-anchor="middle" x="345.25" y="-303.75" font-family="Helvetica,sans-Serif" font-size="10.00">matmul_cmplx</text>
</a>
</g>
</g>
<!-- Node2&#45;&gt;Node6 -->
<g id="edge5_Node000002_Node000006" class="edge">
<title>Node2&#45;&gt;Node6</title>
<g id="a_edge5_Node000002_Node000006"><a xlink:title=" ">
<path fill="none" stroke="#63b8ff" d="M223.49,-426.83C233.31,-416.09 249.19,-398.17 261.5,-381.62 279.17,-357.89 274.56,-344.31 297.5,-325.62 298.6,-324.73 299.75,-323.87 300.94,-323.06"/>
<polygon fill="#63b8ff" stroke="#63b8ff" points="302.35,-326.28 309.31,-318.3 298.89,-320.2 302.35,-326.28"/>
</a>
</g>
</g>
<!-- Node2&#45;&gt;Node8 -->
<g id="edge7_Node000002_Node000008" class="edge">
<title>Node2&#45;&gt;Node8</title>
<g id="a_edge7_Node000002_Node000008"><a xlink:title=" ">
<path fill="none" stroke="#63b8ff" d="M229.4,-446.5C261.64,-466.33 338.91,-506.49 393,-474.62 448.04,-442.19 473.01,-364.47 482.18,-326.8"/>
<polygon fill="#63b8ff" stroke="#63b8ff" points="485.57,-327.69 484.37,-317.16 478.74,-326.14 485.57,-327.69"/>
</a>
</g>
</g>
<!-- Node9 -->
<g id="Node000009" class="node">
<title>Node9</title>
<g id="a_Node000009"><a xlink:href="../../dc/d77/su2mat_8c.html#a54f9aa61f40686918a52909936a101af" target="_top" xlink:title=" ">
<polygon fill="white" stroke="#666666" points="371.25,-541.25 319.25,-541.25 319.25,-522 371.25,-522 371.25,-541.25"/>
<text xml:space="preserve" text-anchor="middle" x="345.25" y="-527.75" font-family="Helvetica,sans-Serif" font-size="10.00">SU2mat</text>
</a>
</g>
</g>
<!-- Node2&#45;&gt;Node9 -->
<g id="edge8_Node000002_Node000009" class="edge">
<title>Node2&#45;&gt;Node9</title>
<g id="a_edge8_Node000002_Node000009"><a xlink:title=" ">
<path fill="none" stroke="#63b8ff" d="M224.5,-446.65C239.56,-461.23 269.12,-488.6 297.5,-507.62 302.09,-510.7 307.12,-513.67 312.14,-516.4"/>
<polygon fill="#63b8ff" stroke="#63b8ff" points="310.41,-519.45 320.9,-520.95 313.64,-513.23 310.41,-519.45"/>
</a>
</g>
</g>
<!-- Node12 -->
<g id="Node000012" class="node">
<title>Node12</title>
<g id="a_Node000012"><a xlink:href="../../dd/d51/su2rotate_8c.html#aa1ec05c745d2b15aa7e535268eee2ca1" target="_top" xlink:title=" ">
<polygon fill="white" stroke="#666666" points="373.5,-428.25 317,-428.25 317,-409 373.5,-409 373.5,-428.25"/>
<text xml:space="preserve" text-anchor="middle" x="345.25" y="-414.75" font-family="Helvetica,sans-Serif" font-size="10.00">su2rotate</text>
</a>
</g>
</g>
<!-- Node2&#45;&gt;Node12 -->
<g id="edge11_Node000002_Node000012" class="edge">
<title>Node2&#45;&gt;Node12</title>
<g id="a_edge11_Node000002_Node000012"><a xlink:title=" ">
<path fill="none" stroke="#63b8ff" d="M262,-430.02C276.36,-428.03 291.95,-425.87 305.65,-423.97"/>
<polygon fill="#63b8ff" stroke="#63b8ff" points="305.73,-427.5 315.15,-422.66 304.76,-420.56 305.73,-427.5"/>
</a>
</g>
</g>
<!-- Node13 -->
<g id="Node000013" class="node">
<title>Node13</title>
<g id="a_Node000013"><a xlink:href="../../da/da4/sum___v_n_l___k_kp_8c.html#a21c0bb74a3096948fd1060b9c254d9df" target="_top" xlink:title=" ">
<polygon fill="white" stroke="#666666" points="387,-578.25 303.5,-578.25 303.5,-559 387,-559 387,-578.25"/>
<text xml:space="preserve" text-anchor="middle" x="345.25" y="-564.75" font-family="Helvetica,sans-Serif" font-size="10.00">sum_VNL_KKp</text>
</a>
</g>
</g>
<!-- Node2&#45;&gt;Node13 -->
<g id="edge12_Node000002_Node000013" class="edge">
<title>Node2&#45;&gt;Node13</title>
<g id="a_edge12_Node000002_Node000013"><a xlink:title=" ">
<path fill="none" stroke="#63b8ff" d="M219.15,-446.65C230.05,-468.53 258.82,-520.97 297.5,-550.62 298.79,-551.62 300.15,-552.56 301.55,-553.46"/>
<polygon fill="#63b8ff" stroke="#63b8ff" points="299.49,-556.32 309.95,-557.99 302.81,-550.16 299.49,-556.32"/>
</a>
</g>
</g>
<!-- Node14 -->
<g id="Node000014" class="node">
<title>Node14</title>
<g id="a_Node000014"><a xlink:href="../../de/d2d/numerical__func_8c.html#abbd3b491506c533dac0178600c56212e" target="_top" xlink:title=" ">
<polygon fill="white" stroke="#666666" points="361.88,-654.25 328.62,-654.25 328.62,-635 361.88,-635 361.88,-654.25"/>
<text xml:space="preserve" text-anchor="middle" x="345.25" y="-640.75" font-family="Helvetica,sans-Serif" font-size="10.00">Ylm</text>
</a>
</g>
</g>
<!-- Node2&#45;&gt;Node14 -->
<g id="edge13_Node000002_Node000014" class="edge">
<title>Node2&#45;&gt;Node14</title>
<g id="a_edge13_Node000002_Node000014"><a xlink:title=" ">
<path fill="none" stroke="#63b8ff" d="M219.03,-446.53C230.81,-471.2 263.28,-537.07 297.5,-587.62 306.6,-601.07 318.16,-615.18 327.51,-626"/>
<polygon fill="#63b8ff" stroke="#63b8ff" points="324.8,-628.23 334.04,-633.43 330.06,-623.61 324.8,-628.23"/>
</a>
</g>
</g>
<!-- Node7 -->
<g id="Node000007" class="node">
<title>Node7</title>
<g id="a_Node000007"><a xlink:href="../../dc/d50/blas_8c.html#a913bafabc05e83b2aeed88da231a461f" target="_top" xlink:title=" ">
<polygon fill="white" stroke="#666666" points="660.5,-315.25 582.25,-315.25 582.25,-296 660.5,-296 660.5,-315.25"/>
<text xml:space="preserve" text-anchor="middle" x="621.38" y="-301.75" font-family="Helvetica,sans-Serif" font-size="10.00">get_gemmn_T</text>
</a>
</g>
</g>
<!-- Node6&#45;&gt;Node7 -->
<g id="edge6_Node000006_Node000007" class="edge">
<title>Node6&#45;&gt;Node7</title>
<g id="a_edge6_Node000006_Node000007"><a xlink:title=" ">
<path fill="none" stroke="#63b8ff" d="M385.56,-317.4C399.22,-320.34 414.7,-323.17 429,-324.62 480.84,-329.9 494.55,-331.15 546.25,-324.62 556.4,-323.34 567.15,-321.12 577.23,-318.62"/>
<polygon fill="#63b8ff" stroke="#63b8ff" points="577.99,-322.04 586.78,-316.12 576.22,-315.27 577.99,-322.04"/>
</a>
</g>
</g>
<!-- Node10 -->
<g id="Node000010" class="node">
<title>Node10</title>
<g id="a_Node000010"><a xlink:href="../../de/d2d/numerical__func_8c.html#af7b464a965e184f893290a977a66c9d1" target="_top" xlink:title=" ">
<polygon fill="white" stroke="#666666" points="510.25,-514.25 465,-514.25 465,-495 510.25,-495 510.25,-514.25"/>
<text xml:space="preserve" text-anchor="middle" x="487.62" y="-500.75" font-family="Helvetica,sans-Serif" font-size="10.00">det3x3</text>
</a>
</g>
</g>
<!-- Node9&#45;&gt;Node10 -->
<g id="edge9_Node000009_Node000010" class="edge">
<title>Node9&#45;&gt;Node10</title>
<g id="a_edge9_Node000009_Node000010"><a xlink:title=" ">
<path fill="none" stroke="#63b8ff" d="M371.67,-526.74C394.59,-522.33 428.43,-515.82 453.47,-511"/>
<polygon fill="#63b8ff" stroke="#63b8ff" points="453.98,-514.47 463.14,-509.14 452.66,-507.59 453.98,-514.47"/>
</a>
</g>
</g>
<!-- Node11 -->
<g id="Node000011" class="node">
<title>Node11</title>
<g id="a_Node000011"><a xlink:href="../../de/d2d/numerical__func_8c.html#a5cb6a4677901df82939f3bb08fe1e5de" target="_top" xlink:title=" ">
<polygon fill="white" stroke="#666666" points="533.88,-551.25 441.38,-551.25 441.38,-532 533.88,-532 533.88,-551.25"/>
<text xml:space="preserve" text-anchor="middle" x="487.62" y="-537.75" font-family="Helvetica,sans-Serif" font-size="10.00">matmul_Cmpl2x2</text>
</a>
</g>
</g>
<!-- Node9&#45;&gt;Node11 -->
<g id="edge10_Node000009_Node000011" class="edge">
<title>Node9&#45;&gt;Node11</title>
<g id="a_edge10_Node000009_Node000011"><a xlink:title=" ">
<path fill="none" stroke="#63b8ff" d="M371.67,-533.44C387.86,-534.59 409.51,-536.13 429.65,-537.57"/>
<polygon fill="#63b8ff" stroke="#63b8ff" points="429.22,-541.04 439.45,-538.26 429.72,-534.06 429.22,-541.04"/>
</a>
</g>
</g>
<!-- Node15 -->
<g id="Node000015" class="node">
<title>Node15</title>
<g id="a_Node000015"><a xlink:href="../../de/d2d/numerical__func_8c.html#ae779062669bf246a73b2c00639b8b9fd" target="_top" xlink:title=" ">
<polygon fill="white" stroke="#666666" points="646.62,-654.25 596.12,-654.25 596.12,-635 646.62,-635 646.62,-654.25"/>
<text xml:space="preserve" text-anchor="middle" x="621.38" y="-640.75" font-family="Helvetica,sans-Serif" font-size="10.00">factorial</text>
</a>
</g>
</g>
<!-- Node14&#45;&gt;Node15 -->
<g id="edge14_Node000014_Node000015" class="edge">
<title>Node14&#45;&gt;Node15</title>
<g id="a_edge14_Node000014_Node000015"><a xlink:title=" ">
<path fill="none" stroke="#63b8ff" d="M362.07,-646.86C378.7,-649.09 405.62,-652.36 429,-653.62 481.03,-656.45 494.23,-656.77 546.25,-653.62 558.8,-652.87 572.48,-651.39 584.64,-649.85"/>
<polygon fill="#63b8ff" stroke="#63b8ff" points="584.78,-653.36 594.23,-648.57 583.86,-646.42 584.78,-653.36"/>
</a>
</g>
</g>
<!-- Node16 -->
<g id="Node000016" class="node">
<title>Node16</title>
<g id="a_Node000016"><a xlink:href="../../de/d2d/numerical__func_8c.html#a05eb7f6851ab17f3a79e91a1bb0cf16d" target="_top" xlink:title=" ">
<polygon fill="white" stroke="#666666" points="514,-626.25 461.25,-626.25 461.25,-607 514,-607 514,-626.25"/>
<text xml:space="preserve" text-anchor="middle" x="487.62" y="-612.75" font-family="Helvetica,sans-Serif" font-size="10.00">legendre</text>
</a>
</g>
</g>
<!-- Node14&#45;&gt;Node16 -->
<g id="edge15_Node000014_Node000016" class="edge">
<title>Node14&#45;&gt;Node16</title>
<g id="a_edge15_Node000014_Node000016"><a xlink:title=" ">
<path fill="none" stroke="#63b8ff" d="M362.35,-641.41C383.56,-637.18 421.47,-629.62 449.86,-623.96"/>
<polygon fill="#63b8ff" stroke="#63b8ff" points="450.38,-627.42 459.5,-622.03 449.01,-620.56 450.38,-627.42"/>
</a>
</g>
</g>
<!-- Node16&#45;&gt;Node15 -->
<g id="edge16_Node000016_Node000015" class="edge">
<title>Node16&#45;&gt;Node15</title>
<g id="a_edge16_Node000016_Node000015"><a xlink:title=" ">
<path fill="none" stroke="#63b8ff" d="M514.34,-622.09C534.49,-626.37 562.75,-632.38 585.03,-637.11"/>
<polygon fill="#63b8ff" stroke="#63b8ff" points="584.07,-640.49 594.58,-639.14 585.52,-633.64 584.07,-640.49"/>
</a>
</g>
</g>
<!-- Node16&#45;&gt;Node16 -->
<g id="edge17_Node000016_Node000016" class="edge">
<title>Node16&#45;&gt;Node16</title>
<g id="a_edge17_Node000016_Node000016"><a xlink:title=" ">
<path fill="none" stroke="#63b8ff" d="M466.69,-626.54C457.13,-635.15 464.11,-644.25 487.62,-644.25 500.48,-644.25 508.4,-641.53 511.37,-637.65"/>
<polygon fill="#63b8ff" stroke="#63b8ff" points="514.77,-636.85 508.93,-628.01 507.98,-638.56 514.77,-636.85"/>
</a>
</g>
</g>
<!-- Node18&#45;&gt;Node4 -->
<g id="edge20_Node000018_Node000004" class="edge">
<title>Node18&#45;&gt;Node4</title>
<g id="a_edge20_Node000018_Node000004"><a xlink:title=" ">
<path fill="none" stroke="#63b8ff" d="M250.32,-335.57C254.42,-337.75 258.28,-340.41 261.5,-343.62 293.15,-375.24 265.89,-405.96 297.5,-437.62 298.1,-438.23 298.72,-438.81 299.36,-439.37"/>
<polygon fill="#63b8ff" stroke="#63b8ff" points="297.1,-442.06 307.34,-444.8 301.04,-436.28 297.1,-442.06"/>
</a>
</g>
</g>
<!-- Node18&#45;&gt;Node5 -->
<g id="edge21_Node000018_Node000005" class="edge">
<title>Node18&#45;&gt;Node5</title>
<g id="a_edge21_Node000018_Node000005"><a xlink:title=" ">
<path fill="none" stroke="#63b8ff" d="M250.9,-330.97C262.04,-332.6 274.58,-334.43 286.76,-336.21"/>
<polygon fill="#63b8ff" stroke="#63b8ff" points="285.89,-339.63 296.3,-337.61 286.91,-332.7 285.89,-339.63"/>
</a>
</g>
</g>
<!-- Node18&#45;&gt;Node6 -->
<g id="edge22_Node000018_Node000006" class="edge">
<title>Node18&#45;&gt;Node6</title>
<g id="a_edge22_Node000018_Node000006"><a xlink:title=" ">
<path fill="none" stroke="#63b8ff" d="M250.9,-320.56C264.28,-318.71 279.66,-316.58 294.03,-314.59"/>
<polygon fill="#63b8ff" stroke="#63b8ff" points="294.36,-318.07 303.78,-313.23 293.39,-311.14 294.36,-318.07"/>
</a>
</g>
</g>
<!-- Node19&#45;&gt;Node3 -->
<g id="edge24_Node000019_Node000003" class="edge">
<title>Node19&#45;&gt;Node3</title>
<g id="a_edge24_Node000019_Node000003"><a xlink:title=" ">
<path fill="none" stroke="#63b8ff" d="M242.39,-295.96C249.11,-298.59 255.94,-302.07 261.5,-306.62 284.68,-325.61 274.34,-344.61 297.5,-363.62 298.6,-364.53 299.74,-365.38 300.93,-366.2"/>
<polygon fill="#63b8ff" stroke="#63b8ff" points="298.87,-369.06 309.29,-370.97 302.34,-362.98 298.87,-369.06"/>
</a>
</g>
</g>
<!-- Node19&#45;&gt;Node4 -->
<g id="edge25_Node000019_Node000004" class="edge">
<title>Node19&#45;&gt;Node4</title>
<g id="a_edge25_Node000019_Node000004"><a xlink:title=" ">
<path fill="none" stroke="#63b8ff" d="M242.42,-294.52C249.46,-297.19 256.44,-301.05 261.5,-306.62 302.08,-351.33 256.98,-392.86 297.5,-437.62 297.86,-438.03 298.24,-438.42 298.62,-438.81"/>
<polygon fill="#63b8ff" stroke="#63b8ff" points="296.5,-441.59 306.61,-444.77 300.69,-435.98 296.5,-441.59"/>
</a>
</g>
</g>
<!-- Node19&#45;&gt;Node5 -->
<g id="edge26_Node000019_Node000005" class="edge">
<title>Node19&#45;&gt;Node5</title>
<g id="a_edge26_Node000019_Node000005"><a xlink:title=" ">
<path fill="none" stroke="#63b8ff" d="M242.06,-298.45C248.51,-300.94 255.31,-303.74 261.5,-306.62 278.09,-314.35 280.92,-318.87 297.5,-326.62 300.21,-327.89 303.04,-329.15 305.91,-330.36"/>
<polygon fill="#63b8ff" stroke="#63b8ff" points="304.31,-333.49 314.89,-334.02 306.95,-327.01 304.31,-333.49"/>
</a>
</g>
</g>
<!-- Node19&#45;&gt;Node6 -->
<g id="edge31_Node000019_Node000006" class="edge">
<title>Node19&#45;&gt;Node6</title>
<g id="a_edge31_Node000019_Node000006"><a xlink:title=" ">
<path fill="none" stroke="#63b8ff" d="M242.24,-292.7C257.28,-294.9 276.31,-297.69 293.85,-300.25"/>
<polygon fill="#63b8ff" stroke="#63b8ff" points="293.2,-303.69 303.61,-301.68 294.22,-296.77 293.2,-303.69"/>
</a>
</g>
</g>
<!-- Node19&#45;&gt;Node8 -->
<g id="edge32_Node000019_Node000008" class="edge">
<title>Node19&#45;&gt;Node8</title>
<g id="a_edge32_Node000019_Node000008"><a xlink:title=" ">
<path fill="none" stroke="#63b8ff" d="M242.29,-287.08C277.5,-285.49 339.88,-283.84 393,-288.62 411.05,-290.25 430.82,-293.6 447.52,-296.91"/>
<polygon fill="#63b8ff" stroke="#63b8ff" points="446.55,-300.28 457.05,-298.86 447.96,-293.42 446.55,-300.28"/>
</a>
</g>
</g>
<!-- Node19&#45;&gt;Node9 -->
<g id="edge42_Node000019_Node000009" class="edge">
<title>Node19&#45;&gt;Node9</title>
<g id="a_edge42_Node000019_Node000009"><a xlink:title=" ">
<path fill="none" stroke="#63b8ff" d="M242.14,-294.15C249.35,-296.82 256.49,-300.77 261.5,-306.62 311.19,-364.61 264.35,-405.83 297.5,-474.62 304.46,-489.07 315.81,-503.03 325.58,-513.52"/>
<polygon fill="#63b8ff" stroke="#63b8ff" points="323.07,-515.96 332.55,-520.68 328.09,-511.08 323.07,-515.96"/>
</a>
</g>
</g>
<!-- Node19&#45;&gt;Node12 -->
<g id="edge43_Node000019_Node000012" class="edge">
<title>Node19&#45;&gt;Node12</title>
<g id="a_edge43_Node000019_Node000012"><a xlink:title=" ">
<path fill="none" stroke="#63b8ff" d="M242.07,-294.85C249.11,-297.52 256.17,-301.3 261.5,-306.62 293.15,-338.24 265.89,-368.96 297.5,-400.62 300.14,-403.27 303.22,-405.54 306.5,-407.47"/>
<polygon fill="#63b8ff" stroke="#63b8ff" points="304.87,-410.58 315.41,-411.71 307.88,-404.25 304.87,-410.58"/>
</a>
</g>
</g>
<!-- Node20 -->
<g id="Node000020" class="node">
<title>Node20</title>
<g id="a_Node000020"><a xlink:href="../../d1/d31/convolution_8c.html#a7bc535f48e9ce5caeee906d3484f229c" target="_top" xlink:title=" ">
<polygon fill="white" stroke="#666666" points="391.5,-93.25 299,-93.25 299,-74 391.5,-74 391.5,-93.25"/>
<text xml:space="preserve" text-anchor="middle" x="345.25" y="-79.75" font-family="Helvetica,sans-Serif" font-size="10.00">fft_convolution3D</text>
</a>
</g>
</g>
<!-- Node19&#45;&gt;Node20 -->
<g id="edge27_Node000019_Node000020" class="edge">
<title>Node19&#45;&gt;Node20</title>
<g id="a_edge27_Node000019_Node000020"><a xlink:title=" ">
<path fill="none" stroke="#63b8ff" d="M242.23,-279.44C249.44,-275.85 256.56,-271.01 261.5,-264.62 306.9,-205.95 249.12,-157.87 297.5,-101.62 297.76,-101.33 298.02,-101.04 298.28,-100.75"/>
<polygon fill="#63b8ff" stroke="#63b8ff" points="300.34,-103.58 306.02,-94.63 296,-98.09 300.34,-103.58"/>
</a>
</g>
</g>
<!-- Node22 -->
<g id="Node000022" class="node">
<title>Node22</title>
<g id="a_Node000022"><a xlink:href="../../dd/dc9/bwdfft_8c.html#ad3a34c33ba91c3026025fdc4ffe3f97b" target="_top" xlink:title=" ">
<polygon fill="white" stroke="#666666" points="370.5,-56.25 320,-56.25 320,-37 370.5,-37 370.5,-56.25"/>
<text xml:space="preserve" text-anchor="middle" x="345.25" y="-42.75" font-family="Helvetica,sans-Serif" font-size="10.00">invfft3D</text>
</a>
</g>
</g>
<!-- Node19&#45;&gt;Node22 -->
<g id="edge29_Node000019_Node000022" class="edge">
<title>Node19&#45;&gt;Node22</title>
<g id="a_edge29_Node000019_Node000022"><a xlink:title=" ">
<path fill="none" stroke="#63b8ff" d="M242.4,-279.56C249.61,-275.97 256.68,-271.11 261.5,-264.62 315.36,-192.12 239.96,-134.24 297.5,-64.62 300.77,-60.67 305.01,-57.58 309.61,-55.17"/>
<polygon fill="#63b8ff" stroke="#63b8ff" points="310.67,-58.52 318.59,-51.48 308.01,-52.05 310.67,-58.52"/>
</a>
</g>
</g>
<!-- Node24 -->
<g id="Node000024" class="node">
<title>Node24</title>
<g id="a_Node000024"><a xlink:href="../../d7/dd7/rotate___gvecs_8c.html#a3777530f5d55d899b796fb4e462b512f" target="_top" xlink:title=" ">
<polygon fill="white" stroke="#666666" points="379.88,-241.25 310.62,-241.25 310.62,-222 379.88,-222 379.88,-241.25"/>
<text xml:space="preserve" text-anchor="middle" x="345.25" y="-227.75" font-family="Helvetica,sans-Serif" font-size="10.00">rotateGvecs</text>
</a>
</g>
</g>
<!-- Node19&#45;&gt;Node24 -->
<g id="edge33_Node000019_Node000024" class="edge">
<title>Node19&#45;&gt;Node24</title>
<g id="a_edge33_Node000019_Node000024"><a xlink:title=" ">
<path fill="none" stroke="#63b8ff" d="M237.3,-278.57C257.79,-269.57 288.07,-256.28 311.18,-246.14"/>
<polygon fill="#63b8ff" stroke="#63b8ff" points="312.42,-249.42 320.17,-242.19 309.61,-243.01 312.42,-249.42"/>
</a>
</g>
</g>
<!-- Node27 -->
<g id="Node000027" class="node">
<title>Node27</title>
<g id="a_Node000027"><a xlink:href="../../d8/dfb/sortpw_8c.html#a2fcaf6a94fa8abd8c1cff8aa13328266" target="_top" xlink:title=" ">
<polygon fill="white" stroke="#666666" points="371.25,-167.25 319.25,-167.25 319.25,-148 371.25,-148 371.25,-167.25"/>
<text xml:space="preserve" text-anchor="middle" x="345.25" y="-153.75" font-family="Helvetica,sans-Serif" font-size="10.00">Sort_pw</text>
</a>
</g>
</g>
<!-- Node19&#45;&gt;Node27 -->
<g id="edge38_Node000019_Node000027" class="edge">
<title>Node19&#45;&gt;Node27</title>
<g id="a_edge38_Node000019_Node000027"><a xlink:title=" ">
<path fill="none" stroke="#63b8ff" d="M242.06,-278.63C249.09,-275.06 256.16,-270.44 261.5,-264.62 290.34,-233.17 267.08,-205.54 297.5,-175.62 300.69,-172.49 304.48,-169.89 308.51,-167.73"/>
<polygon fill="#63b8ff" stroke="#63b8ff" points="309.64,-171.06 317.4,-163.85 306.83,-164.64 309.64,-171.06"/>
</a>
</g>
</g>
<!-- Node31 -->
<g id="Node000031" class="node">
<title>Node31</title>
<g id="a_Node000031"><a xlink:href="../../d7/d1a/planner_8c.html#ab24a0c92cd3342721b1c491ac85116e6" target="_top" xlink:title=" ">
<polygon fill="white" stroke="#666666" points="391.5,-204.25 299,-204.25 299,-185 391.5,-185 391.5,-204.25"/>
<text xml:space="preserve" text-anchor="middle" x="345.25" y="-190.75" font-family="Helvetica,sans-Serif" font-size="10.00">wfc_destroy_plan</text>
</a>
</g>
</g>
<!-- Node19&#45;&gt;Node31 -->
<g id="edge44_Node000019_Node000031" class="edge">
<title>Node19&#45;&gt;Node31</title>
<g id="a_edge44_Node000019_Node000031"><a xlink:title=" ">
<path fill="none" stroke="#63b8ff" d="M239.78,-278.54C247.26,-274.85 255.14,-270.18 261.5,-264.62 282.67,-246.13 275.4,-230 297.5,-212.62 298.62,-211.75 299.78,-210.91 300.98,-210.11"/>
<polygon fill="#63b8ff" stroke="#63b8ff" points="302.37,-213.34 309.41,-205.41 298.97,-207.22 302.37,-213.34"/>
</a>
</g>
</g>
<!-- Node32 -->
<g id="Node000032" class="node">
<title>Node32</title>
<g id="a_Node000032"><a xlink:href="../../d7/d1a/planner_8c.html#a08f76b4b182067a8a93997877decdb27" target="_top" xlink:title=" ">
<polygon fill="white" stroke="#666666" points="372.75,-130.25 317.75,-130.25 317.75,-111 372.75,-111 372.75,-130.25"/>
<text xml:space="preserve" text-anchor="middle" x="345.25" y="-116.75" font-family="Helvetica,sans-Serif" font-size="10.00">wfc_plan</text>
</a>
</g>
</g>
<!-- Node19&#45;&gt;Node32 -->
<g id="edge45_Node000019_Node000032" class="edge">
<title>Node19&#45;&gt;Node32</title>
<g id="a_edge45_Node000019_Node000032"><a xlink:title=" ">
<path fill="none" stroke="#63b8ff" d="M242.48,-278.99C249.51,-275.43 256.48,-270.72 261.5,-264.62 298.53,-219.67 258.2,-181.6 297.5,-138.62 300.22,-135.65 303.5,-133.16 307.03,-131.08"/>
<polygon fill="#63b8ff" stroke="#63b8ff" points="308.48,-134.26 316.06,-126.87 305.52,-127.92 308.48,-134.26"/>
</a>
</g>
</g>
<!-- Node21 -->
<g id="Node000021" class="node">
<title>Node21</title>
<g id="a_Node000021"><a xlink:href="../../d6/d7a/transpose_8c.html#aa5ca0505a10ef36d59ddcf5e74af9d7d" target="_top" xlink:title=" ">
<polygon fill="white" stroke="#666666" points="527.5,-93.25 447.75,-93.25 447.75,-74 527.5,-74 527.5,-93.25"/>
<text xml:space="preserve" text-anchor="middle" x="487.62" y="-79.75" font-family="Helvetica,sans-Serif" font-size="10.00">fwd_transpose</text>
</a>
</g>
</g>
<!-- Node20&#45;&gt;Node21 -->
<g id="edge28_Node000020_Node000021" class="edge">
<title>Node20&#45;&gt;Node21</title>
<g id="a_edge28_Node000020_Node000021"><a xlink:title=" ">
<path fill="none" stroke="#63b8ff" d="M391.83,-83.62C405.98,-83.62 421.65,-83.62 436.12,-83.62"/>
<polygon fill="#63b8ff" stroke="#63b8ff" points="435.89,-87.13 445.89,-83.63 435.89,-80.13 435.89,-87.13"/>
</a>
</g>
</g>
<!-- Node23 -->
<g id="Node000023" class="node">
<title>Node23</title>
<g id="a_Node000023"><a xlink:href="../../d6/d7a/transpose_8c.html#ab4226b652ad962cca615394112f6d5b6" target="_top" xlink:title=" ">
<polygon fill="white" stroke="#666666" points="528.62,-56.25 446.62,-56.25 446.62,-37 528.62,-37 528.62,-56.25"/>
<text xml:space="preserve" text-anchor="middle" x="487.62" y="-42.75" font-family="Helvetica,sans-Serif" font-size="10.00">bwd_transpose</text>
</a>
</g>
</g>
<!-- Node22&#45;&gt;Node23 -->
<g id="edge30_Node000022_Node000023" class="edge">
<title>Node22&#45;&gt;Node23</title>
<g id="a_edge30_Node000022_Node000023"><a xlink:title=" ">
<path fill="none" stroke="#63b8ff" d="M370.7,-46.62C388.43,-46.62 413.05,-46.62 435.04,-46.62"/>
<polygon fill="#63b8ff" stroke="#63b8ff" points="434.74,-50.13 444.74,-46.63 434.74,-43.13 434.74,-50.13"/>
</a>
</g>
</g>
<!-- Node24&#45;&gt;Node8 -->
<g id="edge37_Node000024_Node000008" class="edge">
<title>Node24&#45;&gt;Node8</title>
<g id="a_edge37_Node000024_Node000008"><a xlink:title=" ">
<path fill="none" stroke="#63b8ff" d="M368.31,-241.52C376.34,-245.49 385.32,-250.37 393,-255.62 410.66,-267.72 410.37,-277.09 429,-287.62 434.79,-290.9 441.24,-293.65 447.68,-295.95"/>
<polygon fill="#63b8ff" stroke="#63b8ff" points="446.35,-299.19 456.94,-298.92 448.49,-292.53 446.35,-299.19"/>
</a>
</g>
</g>
<!-- Node25 -->
<g id="Node000025" class="node">
<title>Node25</title>
<g id="a_Node000025"><a xlink:href="../../de/d2d/numerical__func_8c.html#af511a32007a9865999d8bcf06cfff1dc" target="_top" xlink:title=" ">
<polygon fill="white" stroke="#666666" points="519.62,-241.25 455.62,-241.25 455.62,-222 519.62,-222 519.62,-241.25"/>
<text xml:space="preserve" text-anchor="middle" x="487.62" y="-227.75" font-family="Helvetica,sans-Serif" font-size="10.00">Gemm3x3f</text>
</a>
</g>
</g>
<!-- Node24&#45;&gt;Node25 -->
<g id="edge34_Node000024_Node000025" class="edge">
<title>Node24&#45;&gt;Node25</title>
<g id="a_edge34_Node000024_Node000025"><a xlink:title=" ">
<path fill="none" stroke="#63b8ff" d="M380.23,-231.62C399.45,-231.62 423.65,-231.62 444.12,-231.62"/>
<polygon fill="#63b8ff" stroke="#63b8ff" points="443.84,-235.13 453.84,-231.63 443.84,-228.13 443.84,-235.13"/>
</a>
</g>
</g>
<!-- Node26 -->
<g id="Node000026" class="node">
<title>Node26</title>
<g id="a_Node000026"><a xlink:href="../../dc/d50/blas_8c.html#afca62df4906b4070e12af84f53906dc8" target="_top" xlink:title=" ">
<polygon fill="white" stroke="#666666" points="523.75,-278.25 451.5,-278.25 451.5,-259 523.75,-259 523.75,-278.25"/>
<text xml:space="preserve" text-anchor="middle" x="487.62" y="-264.75" font-family="Helvetica,sans-Serif" font-size="10.00">matmul_float</text>
</a>
</g>
</g>
<!-- Node24&#45;&gt;Node26 -->
<g id="edge35_Node000024_Node000026" class="edge">
<title>Node24&#45;&gt;Node26</title>
<g id="a_edge35_Node000024_Node000026"><a xlink:title=" ">
<path fill="none" stroke="#63b8ff" d="M380.23,-240.58C398.36,-245.36 420.92,-251.31 440.6,-256.49"/>
<polygon fill="#63b8ff" stroke="#63b8ff" points="439.47,-259.81 450.03,-258.98 441.25,-253.05 439.47,-259.81"/>
</a>
</g>
</g>
<!-- Node26&#45;&gt;Node7 -->
<g id="edge36_Node000026_Node000007" class="edge">
<title>Node26&#45;&gt;Node7</title>
<g id="a_edge36_Node000026_Node000007"><a xlink:title=" ">
<path fill="none" stroke="#63b8ff" d="M523.93,-278.54C539.17,-282.82 557.2,-287.88 573.53,-292.47"/>
<polygon fill="#63b8ff" stroke="#63b8ff" points="572.48,-295.81 583.06,-295.14 574.37,-289.07 572.48,-295.81"/>
</a>
</g>
</g>
<!-- Node28 -->
<g id="Node000028" class="node">
<title>Node28</title>
<g id="a_Node000028"><a xlink:href="../../d9/d54/parallel_8c.html#a772905c8b6c33d03f3c8eb15bafdb129" target="_top" xlink:title=" ">
<polygon fill="white" stroke="#666666" points="546.25,-167.25 429,-167.25 429,-148 546.25,-148 546.25,-167.25"/>
<text xml:space="preserve" text-anchor="middle" x="487.62" y="-153.75" font-family="Helvetica,sans-Serif" font-size="10.00">get_mpi_local_size_idx</text>
</a>
</g>
</g>
<!-- Node27&#45;&gt;Node28 -->
<g id="edge39_Node000027_Node000028" class="edge">
<title>Node27&#45;&gt;Node28</title>
<g id="a_edge39_Node000027_Node000028"><a xlink:title=" ">
<path fill="none" stroke="#63b8ff" d="M371.67,-157.62C384.64,-157.62 401.1,-157.62 417.49,-157.62"/>
<polygon fill="#63b8ff" stroke="#63b8ff" points="417.27,-161.13 427.27,-157.63 417.27,-154.13 417.27,-161.13"/>
</a>
</g>
</g>
<!-- Node29 -->
<g id="Node000029" class="node">
<title>Node29</title>
<g id="a_Node000029"><a xlink:href="../../da/d8e/gsort_8c.html#a2d5639e333298697b46460b96fb5afa2" target="_top" xlink:title=" ">
<polygon fill="white" stroke="#666666" points="537.25,-204.25 438,-204.25 438,-185 537.25,-185 537.25,-204.25"/>
<text xml:space="preserve" text-anchor="middle" x="487.62" y="-190.75" font-family="Helvetica,sans-Serif" font-size="10.00">Sorted_gvecs_idxs</text>
</a>
</g>
</g>
<!-- Node27&#45;&gt;Node29 -->
<g id="edge40_Node000027_Node000029" class="edge">
<title>Node27&#45;&gt;Node29</title>
<g id="a_edge40_Node000027_Node000029"><a xlink:title=" ">
<path fill="none" stroke="#63b8ff" d="M371.67,-164.33C389.99,-169.15 415.29,-175.82 437.49,-181.67"/>
<polygon fill="#63b8ff" stroke="#63b8ff" points="436.4,-185.01 446.96,-184.17 438.18,-178.24 436.4,-185.01"/>
</a>
</g>
</g>
<!-- Node30 -->
<g id="Node000030" class="node">
<title>Node30</title>
<g id="a_Node000030"><a xlink:href="../../da/d8e/gsort_8c.html#ae4011b78967f043178d768cab29ef747" target="_top" xlink:title=" ">
<polygon fill="white" stroke="#666666" points="652.25,-204.25 590.5,-204.25 590.5,-185 652.25,-185 652.25,-204.25"/>
<text xml:space="preserve" text-anchor="middle" x="621.38" y="-190.75" font-family="Helvetica,sans-Serif" font-size="10.00">gsort_cmp</text>
</a>
</g>
</g>
<!-- Node29&#45;&gt;Node30 -->
<g id="edge41_Node000029_Node000030" class="edge">
<title>Node29&#45;&gt;Node30</title>
<g id="a_edge41_Node000029_Node000030"><a xlink:title=" ">
<path fill="none" stroke="#63b8ff" d="M537.68,-194.62C551.13,-194.62 565.57,-194.62 578.57,-194.62"/>
<polygon fill="#63b8ff" stroke="#63b8ff" points="578.51,-198.13 588.51,-194.63 578.51,-191.13 578.51,-198.13"/>
</a>
</g>
</g>
<!-- Node32&#45;&gt;Node28 -->
<g id="edge47_Node000032_Node000028" class="edge">
<title>Node32&#45;&gt;Node28</title>
<g id="a_edge47_Node000032_Node000028"><a xlink:title=" ">
<path fill="none" stroke="#63b8ff" d="M372.98,-127.67C391.14,-132.46 415.69,-138.93 437.32,-144.63"/>
<polygon fill="#63b8ff" stroke="#63b8ff" points="436.3,-147.98 446.86,-147.14 438.08,-141.21 436.3,-147.98"/>
</a>
</g>
</g>
<!-- Node33 -->
<g id="Node000033" class="node">
<title>Node33</title>
<g id="a_Node000033"><a xlink:href="../../d7/d8e/align_8c.html#a00208b13e41d5ba8f2dfbea6dd749ba3" target="_top" xlink:title=" ">
<polygon fill="white" stroke="#666666" points="525.62,-130.25 449.62,-130.25 449.62,-111 525.62,-111 525.62,-130.25"/>
<text xml:space="preserve" text-anchor="middle" x="487.62" y="-116.75" font-family="Helvetica,sans-Serif" font-size="10.00">alignment_len</text>
</a>
</g>
</g>
<!-- Node32&#45;&gt;Node33 -->
<g id="edge46_Node000032_Node000033" class="edge">
<title>Node32&#45;&gt;Node33</title>
<g id="a_edge46_Node000032_Node000033"><a xlink:title=" ">
<path fill="none" stroke="#63b8ff" d="M372.98,-120.62C391.32,-120.62 416.19,-120.62 437.99,-120.62"/>
<polygon fill="#63b8ff" stroke="#63b8ff" points="437.87,-124.13 447.87,-120.63 437.87,-117.13 437.87,-124.13"/>
</a>
</g>
</g>
<!-- Node35&#45;&gt;Node34 -->
<g id="edge50_Node000035_Node000034" class="edge">
<title>Node35&#45;&gt;Node34</title>
<g id="a_edge50_Node000035_Node000034"><a xlink:title=" ">
<path fill="none" stroke="#63b8ff" d="M251.73,-202.6C255.39,-200.44 258.76,-197.82 261.5,-194.62 310.94,-137 248.14,-85.31 297.5,-27.62 297.75,-27.33 298.01,-27.04 298.28,-26.75"/>
<polygon fill="#63b8ff" stroke="#63b8ff" points="300.34,-29.58 306,-20.62 295.99,-24.09 300.34,-29.58"/>
</a>
</g>
</g>
</g>
</svg>

<g id="navigator" transform="translate(0 0)" fill="#404254">
  <rect fill="#f2f5e9" fill-opacity="0.5" stroke="#606060" stroke-width=".5" x="0" y="0" width="60" height="60"/>
  <use id="zoomplus" xlink:href="#zoomPlus" x="17" y="9" onmousedown="handleZoom(evt,'in')"/>
  <use id="zoomminus" xlink:href="#zoomMin" x="42" y="9" onmousedown="handleZoom(evt,'out')"/>
  <use id="reset" xlink:href="#resetDef" x="30" y="36" onmousedown="handleReset()"/>
   <use id="arrowup" xlink:href="#arrowUp" x="0" y="0" onmousedown="handlePan(0,-1)"/>
  <use id="arrowright" xlink:href="#arrowRight" x="0" y="0" onmousedown="handlePan(1,0)"/>
  <use id="arrowdown" xlink:href="#arrowDown" x="0" y="0" onmousedown="handlePan(0,1)"/>
  <use id="arrowleft" xlink:href="#arrowLeft" x="0" y="0" onmousedown="handlePan(-1,0)"/>
</g>
<svg viewBox="0 0 15 15" width="100%" height="30px" preserveAspectRatio="xMaxYMin meet">
 <g id="arrow_out" transform="scale(0.3 0.3)">
  <a xlink:href="compute__elph__matq_8c_ad32ab6f17a3745b7f82151d7f5b927f2_cgraph_org.svg" target="_base">
   <rect id="button" ry="5" rx="5" y="6" x="6" height="38" width="38"
        fill="#f2f5e9" fill-opacity="0.5" stroke="#606060" stroke-width="1.0"/>
   <path id="arrow"
     d="M 11.500037,31.436501 C 11.940474,20.09759 22.043105,11.32322 32.158766,21.979434 L 37.068811,17.246167 C 37.068811,17.246167 37.088388,32 37.088388,32 L 22.160133,31.978069 C 22.160133,31.978069 26.997745,27.140456 26.997745,27.140456 C 18.528582,18.264221 13.291696,25.230495 11.500037,31.436501 z"
     style="fill:#404040;"/>
  </a>
 </g>
</svg>

<style type='text/css'>
<![CDATA[
[data-mouse-over-selected='false'] { opacity: 0.7; }
[data-mouse-over-selected='true']  { opacity: 1.0; }
]]>
</style>
<script type="application/ecmascript"><![CDATA[
document.addEventListener('DOMContentLoaded', (event) => {
  highlightEdges();
  highlightAdjacentNodes();
});
]]></script>
</svg>
