<?xml version="1.0" encoding="UTF-8" standalone="no"?>
<!DOCTYPE svg PUBLIC "-//W3C//DTD SVG 1.1//EN"
 "http://www.w3.org/Graphics/SVG/1.1/DTD/svg11.dtd">
<!-- Generated by graphviz version 14.0.0 (20250921.2048)
 -->
<!-- Title: src/wfc/gen_fftbox.c Pages: 1 -->
<svg width="305pt" height="138pt"
 viewBox="0.00 0.00 305.00 138.00" xmlns="http://www.w3.org/2000/svg" xmlns:xlink="http://www.w3.org/1999/xlink">
<g id="graph0" class="graph" transform="scale(1 1) rotate(0) translate(4 133.75)">
<title>src/wfc/gen_fftbox.c</title>
<!-- Node1 -->
<g id="Node000001" class="node">
<title>Node1</title>
<g id="a_Node000001"><a xlink:title=" ">
<polygon fill="#999999" stroke="#666666" points="196.62,-129.75 91.38,-129.75 91.38,-110.5 196.62,-110.5 196.62,-129.75"/>
<text xml:space="preserve" text-anchor="middle" x="144" y="-116.25" font-family="Helvetica,sans-Serif" font-size="10.00">src/wfc/gen_fftbox.c</text>
</a>
</g>
</g>
<!-- Node2 -->
<g id="Node000002" class="node">
<title>Node2</title>
<g id="a_Node000002"><a xlink:title=" ">
<polygon fill="#e0e0e0" stroke="#999999" points="46,-74.5 0,-74.5 0,-55.25 46,-55.25 46,-74.5"/>
<text xml:space="preserve" text-anchor="middle" x="23" y="-61" font-family="Helvetica,sans-Serif" font-size="10.00">math.h</text>
</a>
</g>
</g>
<!-- Node1&#45;&gt;Node2 -->
<g id="edge1_Node000001_Node000002" class="edge">
<title>Node1&#45;&gt;Node2</title>
<g id="a_edge1_Node000001_Node000002"><a xlink:title=" ">
<path fill="none" stroke="#63b8ff" d="M123.47,-110.09C104.44,-101.72 75.85,-89.13 54.03,-79.53"/>
<polygon fill="#63b8ff" stroke="#63b8ff" points="55.57,-76.39 45.01,-75.56 52.76,-82.79 55.57,-76.39"/>
</a>
</g>
</g>
<!-- Node3 -->
<g id="Node000003" class="node">
<title>Node3</title>
<g id="a_Node000003"><a xlink:title=" ">
<polygon fill="#e0e0e0" stroke="#999999" points="125,-19.25 85,-19.25 85,0 125,0 125,-19.25"/>
<text xml:space="preserve" text-anchor="middle" x="105" y="-5.75" font-family="Helvetica,sans-Serif" font-size="10.00">mpi.h</text>
</a>
</g>
</g>
<!-- Node1&#45;&gt;Node3 -->
<g id="edge2_Node000001_Node000003" class="edge">
<title>Node1&#45;&gt;Node3</title>
<g id="a_edge2_Node000001_Node000003"><a xlink:title=" ">
<path fill="none" stroke="#63b8ff" d="M127.77,-110.15C115.69,-102.46 100.1,-90.14 93,-74.5 86.58,-60.35 90.54,-42.95 95.56,-29.88"/>
<polygon fill="#63b8ff" stroke="#63b8ff" points="98.61,-31.66 99.42,-21.09 92.2,-28.85 98.61,-31.66"/>
</a>
</g>
</g>
<!-- Node4 -->
<g id="Node000004" class="node">
<title>Node4</title>
<g id="a_Node000004"><a xlink:href="../../da/d41/error_8h.html" target="_top" xlink:title=" ">
<polygon fill="white" stroke="#666666" points="185.75,-74.5 102.25,-74.5 102.25,-55.25 185.75,-55.25 185.75,-74.5"/>
<text xml:space="preserve" text-anchor="middle" x="144" y="-61" font-family="Helvetica,sans-Serif" font-size="10.00">common/error.h</text>
</a>
</g>
</g>
<!-- Node1&#45;&gt;Node4 -->
<g id="edge3_Node000001_Node000004" class="edge">
<title>Node1&#45;&gt;Node4</title>
<g id="a_edge3_Node000001_Node000004"><a xlink:title=" ">
<path fill="none" stroke="#63b8ff" d="M144,-110.33C144,-103.82 144,-94.67 144,-86.37"/>
<polygon fill="#63b8ff" stroke="#63b8ff" points="147.5,-86.37 144,-76.37 140.5,-86.37 147.5,-86.37"/>
</a>
</g>
</g>
<!-- Node5 -->
<g id="Node000005" class="node">
<title>Node5</title>
<g id="a_Node000005"><a xlink:href="../../d4/d0a/elph_c_8h.html" target="_top" xlink:title="Core type definitions and configuration for LetzElPhC.">
<polygon fill="white" stroke="#666666" points="296.88,-19.25 247.12,-19.25 247.12,0 296.88,0 296.88,-19.25"/>
<text xml:space="preserve" text-anchor="middle" x="272" y="-5.75" font-family="Helvetica,sans-Serif" font-size="10.00">elphC.h</text>
</a>
</g>
</g>
<!-- Node1&#45;&gt;Node5 -->
<g id="edge4_Node000001_Node000005" class="edge">
<title>Node1&#45;&gt;Node5</title>
<g id="a_edge4_Node000001_Node000005"><a xlink:title=" ">
<path fill="none" stroke="#63b8ff" d="M189.93,-110.04C211.76,-103.54 236.6,-92.62 253,-74.5 263.82,-62.55 268.49,-44.68 270.5,-30.88"/>
<polygon fill="#63b8ff" stroke="#63b8ff" points="273.96,-31.46 271.54,-21.14 267,-30.72 273.96,-31.46"/>
</a>
</g>
</g>
<!-- Node6 -->
<g id="Node000006" class="node">
<title>Node6</title>
<g id="a_Node000006"><a xlink:href="../../d1/dea/wfc_8h.html" target="_top" xlink:title=" ">
<polygon fill="white" stroke="#666666" points="244,-74.5 204,-74.5 204,-55.25 244,-55.25 244,-74.5"/>
<text xml:space="preserve" text-anchor="middle" x="224" y="-61" font-family="Helvetica,sans-Serif" font-size="10.00">wfc.h</text>
</a>
</g>
</g>
<!-- Node1&#45;&gt;Node6 -->
<g id="edge5_Node000001_Node000006" class="edge">
<title>Node1&#45;&gt;Node6</title>
<g id="a_edge5_Node000001_Node000006"><a xlink:title=" ">
<path fill="none" stroke="#63b8ff" d="M157.57,-110.09C169.41,-102.21 186.84,-90.61 200.87,-81.27"/>
<polygon fill="#63b8ff" stroke="#63b8ff" points="202.72,-84.25 209.1,-75.79 198.84,-78.42 202.72,-84.25"/>
</a>
</g>
</g>
<!-- Node6&#45;&gt;Node3 -->
<g id="edge6_Node000006_Node000003" class="edge">
<title>Node6&#45;&gt;Node3</title>
<g id="a_edge6_Node000006_Node000003"><a xlink:title=" ">
<path fill="none" stroke="#63b8ff" d="M203.81,-54.84C185.09,-46.47 156.98,-33.88 135.52,-24.28"/>
<polygon fill="#63b8ff" stroke="#63b8ff" points="137.22,-21.21 126.67,-20.32 134.37,-27.6 137.22,-21.21"/>
</a>
</g>
</g>
<!-- Node6&#45;&gt;Node5 -->
<g id="edge8_Node000006_Node000005" class="edge">
<title>Node6&#45;&gt;Node5</title>
<g id="a_edge8_Node000006_Node000005"><a xlink:title=" ">
<path fill="none" stroke="#63b8ff" d="M231.93,-55.08C238.56,-47.73 248.22,-37.01 256.39,-27.94"/>
<polygon fill="#63b8ff" stroke="#63b8ff" points="258.79,-30.5 262.89,-20.73 253.59,-25.82 258.79,-30.5"/>
</a>
</g>
</g>
<!-- Node7 -->
<g id="Node000007" class="node">
<title>Node7</title>
<g id="a_Node000007"><a xlink:title=" ">
<polygon fill="#e0e0e0" stroke="#999999" points="228.88,-19.25 173.12,-19.25 173.12,0 228.88,0 228.88,-19.25"/>
<text xml:space="preserve" text-anchor="middle" x="201" y="-5.75" font-family="Helvetica,sans-Serif" font-size="10.00">stdbool.h</text>
</a>
</g>
</g>
<!-- Node6&#45;&gt;Node7 -->
<g id="edge7_Node000006_Node000007" class="edge">
<title>Node6&#45;&gt;Node7</title>
<g id="a_edge7_Node000006_Node000007"><a xlink:title=" ">
<path fill="none" stroke="#63b8ff" d="M220.2,-55.08C217.26,-48.26 213.06,-38.56 209.35,-29.95"/>
<polygon fill="#63b8ff" stroke="#63b8ff" points="212.66,-28.79 205.48,-21 206.23,-31.57 212.66,-28.79"/>
</a>
</g>
</g>
</g>
</svg>
