<?xml version="1.0" encoding="UTF-8" standalone="no"?>
<!DOCTYPE svg PUBLIC "-//W3C//DTD SVG 1.1//EN"
 "http://www.w3.org/Graphics/SVG/1.1/DTD/svg11.dtd">
<!-- Generated by graphviz version 14.0.0 (20250921.2048)
 -->
<!-- Title: src/io/mpi_bcast.h Pages: 1 -->
<svg width="250pt" height="138pt"
 viewBox="0.00 0.00 250.00 138.00" xmlns="http://www.w3.org/2000/svg" xmlns:xlink="http://www.w3.org/1999/xlink">

<svg id="main" version="1.1" xmlns="http://www.w3.org/2000/svg" xmlns:xlink="http://www.w3.org/1999/xlink" xml:space="preserve">

<style type="text/css"><![CDATA[
.node, .edge {opacity: 0.7;}
.node.selected, .edge.selected {opacity: 1;}
.edge:hover path { stroke: red; }
.edge:hover polygon { stroke: red; fill: red; }
]]></style>
<script type="application/ecmascript" xlink:href="../../svg.min.js"/>
<svg id="graph" class="graph">
<g id="graph0" class="graph" transform="scale(1 1) rotate(0) translate(4 133.75)">
<title>src/io/mpi_bcast.h</title>
<!-- Node1 -->
<g id="Node000001" class="node">
<title>Node1</title>
<g id="a_Node000001"><a xlink:title=" ">
<polygon fill="#999999" stroke="#666666" points="152.12,-129.75 55.88,-129.75 55.88,-110.5 152.12,-110.5 152.12,-129.75"/>
<text xml:space="preserve" text-anchor="middle" x="104" y="-116.25" font-family="Helvetica,sans-Serif" font-size="10.00">src/io/mpi_bcast.h</text>
</a>
</g>
</g>
<!-- Node2 -->
<g id="Node000002" class="node">
<title>Node2</title>
<g id="a_Node000002"><a xlink:title=" ">
<polygon fill="#e0e0e0" stroke="#999999" points="40,-19.25 0,-19.25 0,0 40,0 40,-19.25"/>
<text xml:space="preserve" text-anchor="middle" x="20" y="-5.75" font-family="Helvetica,sans-Serif" font-size="10.00">mpi.h</text>
</a>
</g>
</g>
<!-- Node1&#45;&gt;Node2 -->
<g id="edge1_Node000001_Node000002" class="edge">
<title>Node1&#45;&gt;Node2</title>
<g id="a_edge1_Node000001_Node000002"><a xlink:title=" ">
<path fill="none" stroke="#63b8ff" d="M97.13,-110.25C83.34,-92.44 52.1,-52.08 33.89,-28.56"/>
<polygon fill="#63b8ff" stroke="#63b8ff" points="36.78,-26.59 27.9,-20.82 31.25,-30.87 36.78,-26.59"/>
</a>
</g>
</g>
<!-- Node3 -->
<g id="Node000003" class="node">
<title>Node3</title>
<g id="a_Node000003"><a xlink:title=" ">
<polygon fill="#e0e0e0" stroke="#999999" points="113.88,-19.25 58.12,-19.25 58.12,0 113.88,0 113.88,-19.25"/>
<text xml:space="preserve" text-anchor="middle" x="86" y="-5.75" font-family="Helvetica,sans-Serif" font-size="10.00">stdbool.h</text>
</a>
</g>
</g>
<!-- Node1&#45;&gt;Node3 -->
<g id="edge2_Node000001_Node000003" class="edge">
<title>Node1&#45;&gt;Node3</title>
<g id="a_edge2_Node000001_Node000003"><a xlink:title=" ">
<path fill="none" stroke="#63b8ff" d="M99.21,-110.21C94.78,-101.42 88.51,-87.46 86,-74.5 83.18,-59.97 83.3,-43.22 84.06,-30.52"/>
<polygon fill="#63b8ff" stroke="#63b8ff" points="87.52,-31.16 84.83,-20.91 80.54,-30.6 87.52,-31.16"/>
</a>
</g>
</g>
<!-- Node4 -->
<g id="Node000004" class="node">
<title>Node4</title>
<g id="a_Node000004"><a xlink:href="../../d2/d02/dtypes_8h.html" target="_top" xlink:title=" ">
<polygon fill="white" stroke="#666666" points="189,-74.5 95,-74.5 95,-55.25 189,-55.25 189,-74.5"/>
<text xml:space="preserve" text-anchor="middle" x="142" y="-61" font-family="Helvetica,sans-Serif" font-size="10.00">common/dtypes.h</text>
</a>
</g>
</g>
<!-- Node1&#45;&gt;Node4 -->
<g id="edge3_Node000001_Node000004" class="edge">
<title>Node1&#45;&gt;Node4</title>
<g id="a_edge3_Node000001_Node000004"><a xlink:title=" ">
<path fill="none" stroke="#63b8ff" d="M110.27,-110.33C115.36,-103.21 122.7,-92.93 129.03,-84.05"/>
<polygon fill="#63b8ff" stroke="#63b8ff" points="131.75,-86.26 134.71,-76.09 126.05,-82.2 131.75,-86.26"/>
</a>
</g>
</g>
<!-- Node5 -->
<g id="Node000005" class="node">
<title>Node5</title>
<g id="a_Node000005"><a xlink:href="../../d4/d0a/elph_c_8h.html" target="_top" xlink:title="Core type definitions and configuration for LetzElPhC.">
<polygon fill="white" stroke="#666666" points="241.88,-19.25 192.12,-19.25 192.12,0 241.88,0 241.88,-19.25"/>
<text xml:space="preserve" text-anchor="middle" x="217" y="-5.75" font-family="Helvetica,sans-Serif" font-size="10.00">elphC.h</text>
</a>
</g>
</g>
<!-- Node1&#45;&gt;Node5 -->
<g id="edge8_Node000001_Node000005" class="edge">
<title>Node1&#45;&gt;Node5</title>
<g id="a_edge8_Node000001_Node000005"><a xlink:title=" ">
<path fill="none" stroke="#63b8ff" d="M139.26,-110.14C159.09,-103.39 182.84,-92.2 198,-74.5 208.49,-62.26 213.19,-44.42 215.29,-30.7"/>
<polygon fill="#63b8ff" stroke="#63b8ff" points="218.74,-31.38 216.41,-21.05 211.78,-30.58 218.74,-31.38"/>
</a>
</g>
</g>
<!-- Node4&#45;&gt;Node2 -->
<g id="edge4_Node000004_Node000002" class="edge">
<title>Node4&#45;&gt;Node2</title>
<g id="a_edge4_Node000004_Node000002"><a xlink:title=" ">
<path fill="none" stroke="#63b8ff" d="M121.3,-54.84C102,-46.41 72.94,-33.73 50.89,-24.11"/>
<polygon fill="#63b8ff" stroke="#63b8ff" points="52.34,-20.92 41.78,-20.13 49.54,-27.34 52.34,-20.92"/>
</a>
</g>
</g>
<!-- Node4&#45;&gt;Node3 -->
<g id="edge5_Node000004_Node000003" class="edge">
<title>Node4&#45;&gt;Node3</title>
<g id="a_edge5_Node000004_Node000003"><a xlink:title=" ">
<path fill="none" stroke="#63b8ff" d="M132.5,-54.84C124.57,-47.3 113.05,-36.35 103.46,-27.23"/>
<polygon fill="#63b8ff" stroke="#63b8ff" points="106.11,-24.92 96.46,-20.57 101.29,-29.99 106.11,-24.92"/>
</a>
</g>
</g>
<!-- Node4&#45;&gt;Node5 -->
<g id="edge6_Node000004_Node000005" class="edge">
<title>Node4&#45;&gt;Node5</title>
<g id="a_edge6_Node000004_Node000005"><a xlink:title=" ">
<path fill="none" stroke="#63b8ff" d="M154.72,-54.84C165.71,-47.04 181.84,-35.59 194.93,-26.29"/>
<polygon fill="#63b8ff" stroke="#63b8ff" points="196.85,-29.22 202.98,-20.58 192.8,-23.51 196.85,-29.22"/>
</a>
</g>
</g>
<!-- Node6 -->
<g id="Node000006" class="node">
<title>Node6</title>
<g id="a_Node000006"><a xlink:href="../../da/d41/error_8h.html" target="_top" xlink:title=" ">
<polygon fill="white" stroke="#666666" points="174.5,-19.25 131.5,-19.25 131.5,0 174.5,0 174.5,-19.25"/>
<text xml:space="preserve" text-anchor="middle" x="153" y="-5.75" font-family="Helvetica,sans-Serif" font-size="10.00">error.h</text>
</a>
</g>
</g>
<!-- Node4&#45;&gt;Node6 -->
<g id="edge7_Node000004_Node000006" class="edge">
<title>Node4&#45;&gt;Node6</title>
<g id="a_edge7_Node000004_Node000006"><a xlink:title=" ">
<path fill="none" stroke="#63b8ff" d="M143.82,-55.08C145.18,-48.49 147.1,-39.21 148.83,-30.82"/>
<polygon fill="#63b8ff" stroke="#63b8ff" points="152.24,-31.59 150.84,-21.09 145.39,-30.18 152.24,-31.59"/>
</a>
</g>
</g>
</g>
</svg>
</svg>

<style type='text/css'>
<![CDATA[
[data-mouse-over-selected='false'] { opacity: 0.7; }
[data-mouse-over-selected='true']  { opacity: 1.0; }
]]>
</style>
<script type="application/ecmascript"><![CDATA[
document.addEventListener('DOMContentLoaded', (event) => {
  highlightEdges();
  highlightAdjacentNodes();
});
]]></script>
</svg>
