<?xml version="1.0" encoding="UTF-8" standalone="no"?>
<!DOCTYPE svg PUBLIC "-//W3C//DTD SVG 1.1//EN"
 "http://www.w3.org/Graphics/SVG/1.1/DTD/svg11.dtd">
<!-- Generated by graphviz version 14.0.0 (20250921.2048)
 -->
<!-- Title: src/phonon/pol_vecs_to_dyn.c Pages: 1 -->
<!--zoomable 204 -->

<svg id="main" version="1.1" xmlns="http://www.w3.org/2000/svg" xmlns:xlink="http://www.w3.org/1999/xlink" xml:space="preserve" onload="init(evt)">

<style type="text/css"><![CDATA[
.node, .edge {opacity: 0.7;}
.node.selected, .edge.selected {opacity: 1;}
.edge:hover path { stroke: red; }
.edge:hover polygon { stroke: red; fill: red; }
]]></style>

<defs>
  <circle id="rim" cx="0" cy="0" r="7"/>
  <circle id="rim2" cx="0" cy="0" r="3.5"/>
  <g id="zoomPlus">
    <use xlink:href="#rim" fill="#404040"><set attributeName="fill" to="#808080" begin="zoomplus.mouseover" end="zoomplus.mouseout"/></use>
    <path d="M-4,0h8M0,-4v8" fill="none" stroke="white" stroke-width="1.5" pointer-events="none"/>
  </g>
  <g id="zoomMin">
    <use xlink:href="#rim" fill="#404040"><set attributeName="fill" to="#808080" begin="zoomminus.mouseover" end="zoomminus.mouseout"/></use>
    <path d="M-4,0h8" fill="none" stroke="white" stroke-width="1.5" pointer-events="none"/>
  </g>
  <g id="arrowUp" transform="translate(30 24)">
    <use xlink:href="#rim"/>
    <path pointer-events="none" fill="none" stroke="white" stroke-width="1.5" d="M0,-3.0v7 M-2.5,-0.5L0,-3.0L2.5,-0.5"/>
  </g>
  <g id="arrowRight" transform="rotate(90) translate(36 -43)">
    <use xlink:href="#rim"/>
    <path pointer-events="none" fill="none" stroke="white" stroke-width="1.5" d="M0,-3.0v7 M-2.5,-0.5L0,-3.0L2.5,-0.5"/>
  </g>
  <g id="arrowDown" transform="rotate(180) translate(-30 -48)">
    <use xlink:href="#rim"/>
    <path pointer-events="none" fill="none" stroke="white" stroke-width="1.5" d="M0,-3.0v7 M-2.5,-0.5L0,-3.0L2.5,-0.5"/>
  </g>
  <g id="arrowLeft" transform="rotate(270) translate(-36 17)">
    <use xlink:href="#rim"/>
    <path pointer-events="none" fill="none" stroke="white" stroke-width="1.5" d="M0,-3.0v7 M-2.5,-0.5L0,-3.0L2.5,-0.5"/>
  </g>
  <g id="resetDef">
    <use xlink:href="#rim2" fill="#404040"><set attributeName="fill" to="#808080" begin="reset.mouseover" end="reset.mouseout"/></use>
  </g>
</defs>
<script type="application/ecmascript">
var viewWidth = 529;
var viewHeight = 204;
var sectionId = 'dynsection-0';
</script>
<script type="application/ecmascript" xlink:href="../../svg.min.js"/>
<svg id="graph" class="graph">
<g id="viewport">
<title>src/phonon/pol_vecs_to_dyn.c</title>
<!-- Node1 -->
<g id="Node000001" class="node">
<title>Node1</title>
<g id="a_Node000001"><a xlink:title=" ">
<polygon fill="#999999" stroke="#666666" points="273.5,-196.25 167.5,-196.25 167.5,-165.75 273.5,-165.75 273.5,-196.25"/>
<text xml:space="preserve" text-anchor="start" x="175.5" y="-182.75" font-family="Helvetica,sans-Serif" font-size="10.00">src/phonon/pol_vecs</text>
<text xml:space="preserve" text-anchor="middle" x="220.5" y="-171.5" font-family="Helvetica,sans-Serif" font-size="10.00">_to_dyn.c</text>
</a>
</g>
</g>
<!-- Node2 -->
<g id="Node000002" class="node">
<title>Node2</title>
<g id="a_Node000002"><a xlink:title=" ">
<polygon fill="#e0e0e0" stroke="#999999" points="61,-129.75 0,-129.75 0,-110.5 61,-110.5 61,-129.75"/>
<text xml:space="preserve" text-anchor="middle" x="30.5" y="-116.25" font-family="Helvetica,sans-Serif" font-size="10.00">complex.h</text>
</a>
</g>
</g>
<!-- Node1&#45;&gt;Node2 -->
<g id="edge1_Node000001_Node000002" class="edge">
<title>Node1&#45;&gt;Node2</title>
<g id="a_edge1_Node000001_Node000002"><a xlink:title=" ">
<path fill="none" stroke="#63b8ff" d="M173.05,-165.3C141.56,-155.54 100.7,-142.88 70.8,-133.61"/>
<polygon fill="#63b8ff" stroke="#63b8ff" points="71.95,-130.31 61.36,-130.69 69.88,-136.99 71.95,-130.31"/>
</a>
</g>
</g>
<!-- Node3 -->
<g id="Node000003" class="node">
<title>Node3</title>
<g id="a_Node000003"><a xlink:title=" ">
<polygon fill="#e0e0e0" stroke="#999999" points="126.25,-129.75 78.75,-129.75 78.75,-110.5 126.25,-110.5 126.25,-129.75"/>
<text xml:space="preserve" text-anchor="middle" x="102.5" y="-116.25" font-family="Helvetica,sans-Serif" font-size="10.00">stdlib.h</text>
</a>
</g>
</g>
<!-- Node1&#45;&gt;Node3 -->
<g id="edge2_Node000001_Node000003" class="edge">
<title>Node1&#45;&gt;Node3</title>
<g id="a_edge2_Node000001_Node000003"><a xlink:title=" ">
<path fill="none" stroke="#63b8ff" d="M191.03,-165.3C172.63,-156.11 149.06,-144.36 130.87,-135.28"/>
<polygon fill="#63b8ff" stroke="#63b8ff" points="132.46,-132.16 121.95,-130.83 129.34,-138.43 132.46,-132.16"/>
</a>
</g>
</g>
<!-- Node4 -->
<g id="Node000004" class="node">
<title>Node4</title>
<g id="a_Node000004"><a xlink:title=" ">
<polygon fill="#e0e0e0" stroke="#999999" points="192.62,-129.75 144.38,-129.75 144.38,-110.5 192.62,-110.5 192.62,-129.75"/>
<text xml:space="preserve" text-anchor="middle" x="168.5" y="-116.25" font-family="Helvetica,sans-Serif" font-size="10.00">string.h</text>
</a>
</g>
</g>
<!-- Node1&#45;&gt;Node4 -->
<g id="edge3_Node000001_Node000004" class="edge">
<title>Node1&#45;&gt;Node4</title>
<g id="a_edge3_Node000001_Node000004"><a xlink:title=" ">
<path fill="none" stroke="#63b8ff" d="M207.65,-165.45C200.49,-157.34 191.53,-147.2 183.99,-138.66"/>
<polygon fill="#63b8ff" stroke="#63b8ff" points="186.76,-136.51 177.52,-131.34 181.51,-141.15 186.76,-136.51"/>
</a>
</g>
</g>
<!-- Node5 -->
<g id="Node000005" class="node">
<title>Node5</title>
<g id="a_Node000005"><a xlink:href="../../da/d41/error_8h.html" target="_top" xlink:title=" ">
<polygon fill="white" stroke="#666666" points="262.25,-19.25 178.75,-19.25 178.75,0 262.25,0 262.25,-19.25"/>
<text xml:space="preserve" text-anchor="middle" x="220.5" y="-5.75" font-family="Helvetica,sans-Serif" font-size="10.00">common/error.h</text>
</a>
</g>
</g>
<!-- Node1&#45;&gt;Node5 -->
<g id="edge4_Node000001_Node000005" class="edge">
<title>Node1&#45;&gt;Node5</title>
<g id="a_edge4_Node000001_Node000005"><a xlink:title=" ">
<path fill="none" stroke="#63b8ff" d="M220.5,-165.27C220.5,-135.01 220.5,-65.8 220.5,-31.16"/>
<polygon fill="#63b8ff" stroke="#63b8ff" points="224,-31.25 220.5,-21.25 217,-31.25 224,-31.25"/>
</a>
</g>
</g>
<!-- Node6 -->
<g id="Node000006" class="node">
<title>Node6</title>
<g id="a_Node000006"><a xlink:href="../../df/def/numerical__func_8h.html" target="_top" xlink:title=" ">
<polygon fill="white" stroke="#666666" points="490.88,-74.5 360.12,-74.5 360.12,-55.25 490.88,-55.25 490.88,-74.5"/>
<text xml:space="preserve" text-anchor="middle" x="425.5" y="-61" font-family="Helvetica,sans-Serif" font-size="10.00">common/numerical_func.h</text>
</a>
</g>
</g>
<!-- Node1&#45;&gt;Node6 -->
<g id="edge5_Node000001_Node000006" class="edge">
<title>Node1&#45;&gt;Node6</title>
<g id="a_edge5_Node000001_Node000006"><a xlink:title=" ">
<path fill="none" stroke="#63b8ff" d="M228.87,-165.31C238.59,-149.53 256.08,-124.79 277.5,-110.5 301.14,-94.73 330.54,-84.37 356.89,-77.65"/>
<polygon fill="#63b8ff" stroke="#63b8ff" points="357.6,-81.08 366.5,-75.33 355.96,-74.27 357.6,-81.08"/>
</a>
</g>
</g>
<!-- Node8 -->
<g id="Node000008" class="node">
<title>Node8</title>
<g id="a_Node000008"><a xlink:href="../../d4/d0a/elph_c_8h.html" target="_top" xlink:title="Core type definitions and configuration for LetzElPhC.">
<polygon fill="white" stroke="#666666" points="517.38,-19.25 467.62,-19.25 467.62,0 517.38,0 517.38,-19.25"/>
<text xml:space="preserve" text-anchor="middle" x="492.5" y="-5.75" font-family="Helvetica,sans-Serif" font-size="10.00">elphC.h</text>
</a>
</g>
</g>
<!-- Node1&#45;&gt;Node8 -->
<g id="edge8_Node000001_Node000008" class="edge">
<title>Node1&#45;&gt;Node8</title>
<g id="a_edge8_Node000001_Node000008"><a xlink:title=" ">
<path fill="none" stroke="#63b8ff" d="M273.83,-178.45C343.02,-173.23 461.4,-152.63 516.5,-74.5 526.39,-60.48 517.4,-41.87 507.74,-28.36"/>
<polygon fill="#63b8ff" stroke="#63b8ff" points="510.7,-26.47 501.77,-20.75 505.19,-30.78 510.7,-26.47"/>
</a>
</g>
</g>
<!-- Node9 -->
<g id="Node000009" class="node">
<title>Node9</title>
<g id="a_Node000009"><a xlink:href="../../d3/d34/phonon_8h.html" target="_top" xlink:title=" ">
<polygon fill="white" stroke="#666666" points="342.38,-129.75 286.62,-129.75 286.62,-110.5 342.38,-110.5 342.38,-129.75"/>
<text xml:space="preserve" text-anchor="middle" x="314.5" y="-116.25" font-family="Helvetica,sans-Serif" font-size="10.00">phonon.h</text>
</a>
</g>
</g>
<!-- Node1&#45;&gt;Node9 -->
<g id="edge9_Node000001_Node000009" class="edge">
<title>Node1&#45;&gt;Node9</title>
<g id="a_edge9_Node000001_Node000009"><a xlink:title=" ">
<path fill="none" stroke="#63b8ff" d="M243.74,-165.45C257.91,-156.57 276,-145.24 290.34,-136.26"/>
<polygon fill="#63b8ff" stroke="#63b8ff" points="292.11,-139.28 298.73,-131 288.39,-133.35 292.11,-139.28"/>
</a>
</g>
</g>
<!-- Node7 -->
<g id="Node000007" class="node">
<title>Node7</title>
<g id="a_Node000007"><a xlink:title=" ">
<polygon fill="#e0e0e0" stroke="#999999" points="423.38,-19.25 367.62,-19.25 367.62,0 423.38,0 423.38,-19.25"/>
<text xml:space="preserve" text-anchor="middle" x="395.5" y="-5.75" font-family="Helvetica,sans-Serif" font-size="10.00">stdbool.h</text>
</a>
</g>
</g>
<!-- Node6&#45;&gt;Node7 -->
<g id="edge6_Node000006_Node000007" class="edge">
<title>Node6&#45;&gt;Node7</title>
<g id="a_edge6_Node000006_Node000007"><a xlink:title=" ">
<path fill="none" stroke="#63b8ff" d="M420.55,-55.08C416.62,-48.11 410.99,-38.12 406.06,-29.37"/>
<polygon fill="#63b8ff" stroke="#63b8ff" points="409.26,-27.92 401.3,-20.93 403.16,-31.36 409.26,-27.92"/>
</a>
</g>
</g>
<!-- Node6&#45;&gt;Node8 -->
<g id="edge7_Node000006_Node000008" class="edge">
<title>Node6&#45;&gt;Node8</title>
<g id="a_edge7_Node000006_Node000008"><a xlink:title=" ">
<path fill="none" stroke="#63b8ff" d="M436.87,-54.84C446.55,-47.15 460.7,-35.9 472.31,-26.68"/>
<polygon fill="#63b8ff" stroke="#63b8ff" points="474.47,-29.43 480.12,-20.47 470.11,-23.95 474.47,-29.43"/>
</a>
</g>
</g>
<!-- Node9&#45;&gt;Node8 -->
<g id="edge15_Node000009_Node000008" class="edge">
<title>Node9&#45;&gt;Node8</title>
<g id="a_edge15_Node000009_Node000008"><a xlink:title=" ">
<path fill="none" stroke="#63b8ff" d="M342.66,-116.52C389.52,-111.53 480.29,-98.9 499.5,-74.5 509.31,-62.04 506.07,-43.71 501.24,-29.88"/>
<polygon fill="#63b8ff" stroke="#63b8ff" points="504.62,-28.92 497.63,-20.96 498.13,-31.54 504.62,-28.92"/>
</a>
</g>
</g>
<!-- Node10 -->
<g id="Node000010" class="node">
<title>Node10</title>
<g id="a_Node000010"><a xlink:href="../../d2/d02/dtypes_8h.html" target="_top" xlink:title=" ">
<polygon fill="white" stroke="#666666" points="342.5,-74.5 248.5,-74.5 248.5,-55.25 342.5,-55.25 342.5,-74.5"/>
<text xml:space="preserve" text-anchor="middle" x="295.5" y="-61" font-family="Helvetica,sans-Serif" font-size="10.00">common/dtypes.h</text>
</a>
</g>
</g>
<!-- Node9&#45;&gt;Node10 -->
<g id="edge10_Node000009_Node000010" class="edge">
<title>Node9&#45;&gt;Node10</title>
<g id="a_edge10_Node000009_Node000010"><a xlink:title=" ">
<path fill="none" stroke="#63b8ff" d="M311.36,-110.33C308.96,-103.59 305.54,-94.02 302.5,-85.49"/>
<polygon fill="#63b8ff" stroke="#63b8ff" points="305.87,-84.53 299.21,-76.28 299.28,-86.88 305.87,-84.53"/>
</a>
</g>
</g>
<!-- Node10&#45;&gt;Node5 -->
<g id="edge14_Node000010_Node000005" class="edge">
<title>Node10&#45;&gt;Node5</title>
<g id="a_edge14_Node000010_Node000005"><a xlink:title=" ">
<path fill="none" stroke="#63b8ff" d="M282.78,-54.84C271.79,-47.04 255.66,-35.59 242.57,-26.29"/>
<polygon fill="#63b8ff" stroke="#63b8ff" points="244.7,-23.51 234.52,-20.58 240.65,-29.22 244.7,-23.51"/>
</a>
</g>
</g>
<!-- Node10&#45;&gt;Node7 -->
<g id="edge12_Node000010_Node000007" class="edge">
<title>Node10&#45;&gt;Node7</title>
<g id="a_edge12_Node000010_Node000007"><a xlink:title=" ">
<path fill="none" stroke="#63b8ff" d="M312.46,-54.84C327.76,-46.69 350.53,-34.57 368.36,-25.08"/>
<polygon fill="#63b8ff" stroke="#63b8ff" points="369.94,-28.2 377.12,-20.41 366.65,-22.02 369.94,-28.2"/>
</a>
</g>
</g>
<!-- Node10&#45;&gt;Node8 -->
<g id="edge13_Node000010_Node000008" class="edge">
<title>Node10&#45;&gt;Node8</title>
<g id="a_edge13_Node000010_Node000008"><a xlink:title=" ">
<path fill="none" stroke="#63b8ff" d="M328.92,-54.84C364.28,-45.28 419.9,-30.25 456.29,-20.41"/>
<polygon fill="#63b8ff" stroke="#63b8ff" points="457.17,-23.8 465.92,-17.81 455.35,-17.04 457.17,-23.8"/>
</a>
</g>
</g>
<!-- Node11 -->
<g id="Node000011" class="node">
<title>Node11</title>
<g id="a_Node000011"><a xlink:title=" ">
<polygon fill="#e0e0e0" stroke="#999999" points="320.5,-19.25 280.5,-19.25 280.5,0 320.5,0 320.5,-19.25"/>
<text xml:space="preserve" text-anchor="middle" x="300.5" y="-5.75" font-family="Helvetica,sans-Serif" font-size="10.00">mpi.h</text>
</a>
</g>
</g>
<!-- Node10&#45;&gt;Node11 -->
<g id="edge11_Node000010_Node000011" class="edge">
<title>Node10&#45;&gt;Node11</title>
<g id="a_edge11_Node000010_Node000011"><a xlink:title=" ">
<path fill="none" stroke="#63b8ff" d="M296.33,-55.08C296.94,-48.49 297.82,-39.21 298.6,-30.82"/>
<polygon fill="#63b8ff" stroke="#63b8ff" points="302.06,-31.4 299.51,-21.12 295.1,-30.75 302.06,-31.4"/>
</a>
</g>
</g>
</g>
</svg>

<g id="navigator" transform="translate(0 0)" fill="#404254">
  <rect fill="#f2f5e9" fill-opacity="0.5" stroke="#606060" stroke-width=".5" x="0" y="0" width="60" height="60"/>
  <use id="zoomplus" xlink:href="#zoomPlus" x="17" y="9" onmousedown="handleZoom(evt,'in')"/>
  <use id="zoomminus" xlink:href="#zoomMin" x="42" y="9" onmousedown="handleZoom(evt,'out')"/>
  <use id="reset" xlink:href="#resetDef" x="30" y="36" onmousedown="handleReset()"/>
   <use id="arrowup" xlink:href="#arrowUp" x="0" y="0" onmousedown="handlePan(0,-1)"/>
  <use id="arrowright" xlink:href="#arrowRight" x="0" y="0" onmousedown="handlePan(1,0)"/>
  <use id="arrowdown" xlink:href="#arrowDown" x="0" y="0" onmousedown="handlePan(0,1)"/>
  <use id="arrowleft" xlink:href="#arrowLeft" x="0" y="0" onmousedown="handlePan(-1,0)"/>
</g>
<svg viewBox="0 0 15 15" width="100%" height="30px" preserveAspectRatio="xMaxYMin meet">
 <g id="arrow_out" transform="scale(0.3 0.3)">
  <a xlink:href="pol__vecs__to__dyn_8c__incl_org.svg" target="_base">
   <rect id="button" ry="5" rx="5" y="6" x="6" height="38" width="38"
        fill="#f2f5e9" fill-opacity="0.5" stroke="#606060" stroke-width="1.0"/>
   <path id="arrow"
     d="M 11.500037,31.436501 C 11.940474,20.09759 22.043105,11.32322 32.158766,21.979434 L 37.068811,17.246167 C 37.068811,17.246167 37.088388,32 37.088388,32 L 22.160133,31.978069 C 22.160133,31.978069 26.997745,27.140456 26.997745,27.140456 C 18.528582,18.264221 13.291696,25.230495 11.500037,31.436501 z"
     style="fill:#404040;"/>
  </a>
 </g>
</svg>

<style type='text/css'>
<![CDATA[
[data-mouse-over-selected='false'] { opacity: 0.7; }
[data-mouse-over-selected='true']  { opacity: 1.0; }
]]>
</style>
<script type="application/ecmascript"><![CDATA[
document.addEventListener('DOMContentLoaded', (event) => {
  highlightEdges();
  highlightAdjacentNodes();
});
]]></script>
</svg>
