<?xml version="1.0" encoding="UTF-8" standalone="no"?>
<!DOCTYPE svg PUBLIC "-//W3C//DTD SVG 1.1//EN"
 "http://www.w3.org/Graphics/SVG/1.1/DTD/svg11.dtd">
<!-- Generated by graphviz version 14.0.0 (20250921.2048)
 -->
<!-- Title: gsort_cmp Pages: 1 -->
<svg width="758pt" height="64pt"
 viewBox="0.00 0.00 758.00 64.00" xmlns="http://www.w3.org/2000/svg" xmlns:xlink="http://www.w3.org/1999/xlink">
<g id="graph0" class="graph" transform="scale(1 1) rotate(0) translate(4 60.25)">
<title>gsort_cmp</title>
<!-- Node1 -->
<g id="Node000001" class="node">
<title>Node1</title>
<g id="a_Node000001"><a xlink:title=" ">
<polygon fill="#999999" stroke="#666666" points="749.5,-37.25 687.75,-37.25 687.75,-18 749.5,-18 749.5,-37.25"/>
<text xml:space="preserve" text-anchor="middle" x="718.62" y="-23.75" font-family="Helvetica,sans-Serif" font-size="10.00">gsort_cmp</text>
</a>
</g>
</g>
<!-- Node2 -->
<g id="Node000002" class="node">
<title>Node2</title>
<g id="a_Node000002"><a xlink:href="../../da/d8e/gsort_8c.html#a25f48d8a76001e1843dcf9cfe792ac5c" target="_top" xlink:title=" ">
<polygon fill="white" stroke="#666666" points="645.38,-56.25 558.88,-56.25 558.88,-37 645.38,-37 645.38,-56.25"/>
<text xml:space="preserve" text-anchor="middle" x="602.12" y="-42.75" font-family="Helvetica,sans-Serif" font-size="10.00">find_gvecs_idxs</text>
</a>
</g>
</g>
<!-- Node1&#45;&gt;Node2 -->
<g id="edge1_Node000001_Node000002" class="edge">
<title>Node1&#45;&gt;Node2</title>
<g id="a_edge1_Node000001_Node000002"><a xlink:title=" ">
<path fill="none" stroke="#63b8ff" d="M676.21,-34.5C666.22,-36.16 655.53,-37.93 645.49,-39.59"/>
<polygon fill="#63b8ff" stroke="#63b8ff" points="676.76,-37.95 686.05,-32.86 675.61,-31.05 676.76,-37.95"/>
</a>
</g>
</g>
<!-- Node7 -->
<g id="Node000007" class="node">
<title>Node7</title>
<g id="a_Node000007"><a xlink:href="../../da/d8e/gsort_8c.html#a2d5639e333298697b46460b96fb5afa2" target="_top" xlink:title=" ">
<polygon fill="white" stroke="#666666" points="651.75,-19.25 552.5,-19.25 552.5,0 651.75,0 651.75,-19.25"/>
<text xml:space="preserve" text-anchor="middle" x="602.12" y="-5.75" font-family="Helvetica,sans-Serif" font-size="10.00">Sorted_gvecs_idxs</text>
</a>
</g>
</g>
<!-- Node1&#45;&gt;Node7 -->
<g id="edge6_Node000001_Node000007" class="edge">
<title>Node1&#45;&gt;Node7</title>
<g id="a_edge6_Node000001_Node000007"><a xlink:title=" ">
<path fill="none" stroke="#63b8ff" d="M676.37,-21.14C668.48,-19.9 660.15,-18.59 652.05,-17.32"/>
<polygon fill="#63b8ff" stroke="#63b8ff" points="675.62,-24.57 686.05,-22.66 676.71,-17.65 675.62,-24.57"/>
</a>
</g>
</g>
<!-- Node3 -->
<g id="Node000003" class="node">
<title>Node3</title>
<g id="a_Node000003"><a xlink:href="../../dd/de7/elec__reps_8c.html#a9ad01d68a7d4f87c39a98bf13778cd64" target="_top" xlink:title=" ">
<polygon fill="white" stroke="#666666" points="516.5,-56.25 434.5,-56.25 434.5,-37 516.5,-37 516.5,-56.25"/>
<text xml:space="preserve" text-anchor="middle" x="475.5" y="-42.75" font-family="Helvetica,sans-Serif" font-size="10.00">electronic_reps</text>
</a>
</g>
</g>
<!-- Node2&#45;&gt;Node3 -->
<g id="edge2_Node000002_Node000003" class="edge">
<title>Node2&#45;&gt;Node3</title>
<g id="a_edge2_Node000002_Node000003"><a xlink:title=" ">
<path fill="none" stroke="#63b8ff" d="M547.23,-46.62C537,-46.62 526.46,-46.62 516.75,-46.62"/>
<polygon fill="#63b8ff" stroke="#63b8ff" points="547.07,-50.13 557.07,-46.63 547.07,-43.13 547.07,-50.13"/>
</a>
</g>
</g>
<!-- Node4 -->
<g id="Node000004" class="node">
<title>Node4</title>
<g id="a_Node000004"><a xlink:href="../../d5/d9f/compute__dmats_8c.html#aceeb11551c1d6413e6d4b5cae9704493" target="_top" xlink:title=" ">
<polygon fill="white" stroke="#666666" points="305.25,-56.25 172.25,-56.25 172.25,-37 305.25,-37 305.25,-56.25"/>
<text xml:space="preserve" text-anchor="middle" x="238.75" y="-42.75" font-family="Helvetica,sans-Serif" font-size="10.00">compute_and_write_dmats</text>
</a>
</g>
</g>
<!-- Node3&#45;&gt;Node4 -->
<g id="edge3_Node000003_Node000004" class="edge">
<title>Node3&#45;&gt;Node4</title>
<g id="a_edge3_Node000003_Node000004"><a xlink:title=" ">
<path fill="none" stroke="#63b8ff" d="M422.92,-46.62C388.45,-46.62 342.82,-46.62 305.72,-46.62"/>
<polygon fill="#63b8ff" stroke="#63b8ff" points="422.63,-50.13 432.63,-46.63 422.63,-43.13 422.63,-50.13"/>
</a>
</g>
</g>
<!-- Node5 -->
<g id="Node000005" class="node">
<title>Node5</title>
<g id="a_Node000005"><a xlink:href="../../da/d2e/elph__driver_8c.html#ad9f405d41cf090d652dbe1307700665f" target="_top" xlink:title=" ">
<polygon fill="white" stroke="#666666" points="136.25,-37.25 73,-37.25 73,-18 136.25,-18 136.25,-37.25"/>
<text xml:space="preserve" text-anchor="middle" x="104.62" y="-23.75" font-family="Helvetica,sans-Serif" font-size="10.00">elph_driver</text>
</a>
</g>
</g>
<!-- Node4&#45;&gt;Node5 -->
<g id="edge4_Node000004_Node000005" class="edge">
<title>Node4&#45;&gt;Node5</title>
<g id="a_edge4_Node000004_Node000005"><a xlink:title=" ">
<path fill="none" stroke="#63b8ff" d="M160.75,-35.55C152.21,-34.32 143.92,-33.13 136.48,-32.06"/>
<polygon fill="#63b8ff" stroke="#63b8ff" points="160.18,-39.01 170.58,-36.97 161.18,-32.08 160.18,-39.01"/>
</a>
</g>
</g>
<!-- Node6 -->
<g id="Node000006" class="node">
<title>Node6</title>
<g id="a_Node000006"><a xlink:href="../../d3/dd5/main__elph_c_8c.html#a0ddf1224851353fc92bfbff6f499fa97" target="_top" xlink:title="Main program entry point.">
<polygon fill="white" stroke="#666666" points="37,-37.25 0,-37.25 0,-18 37,-18 37,-37.25"/>
<text xml:space="preserve" text-anchor="middle" x="18.5" y="-23.75" font-family="Helvetica,sans-Serif" font-size="10.00">main</text>
</a>
</g>
</g>
<!-- Node5&#45;&gt;Node6 -->
<g id="edge5_Node000005_Node000006" class="edge">
<title>Node5&#45;&gt;Node6</title>
<g id="a_edge5_Node000005_Node000006"><a xlink:title=" ">
<path fill="none" stroke="#63b8ff" d="M61.27,-27.62C52.74,-27.62 44.23,-27.62 37.14,-27.62"/>
<polygon fill="#63b8ff" stroke="#63b8ff" points="61.26,-31.13 71.26,-27.63 61.26,-24.13 61.26,-31.13"/>
</a>
</g>
</g>
<!-- Node8 -->
<g id="Node000008" class="node">
<title>Node8</title>
<g id="a_Node000008"><a xlink:href="../../d8/dfb/sortpw_8c.html#a2fcaf6a94fa8abd8c1cff8aa13328266" target="_top" xlink:title=" ">
<polygon fill="white" stroke="#666666" points="501.5,-19.25 449.5,-19.25 449.5,0 501.5,0 501.5,-19.25"/>
<text xml:space="preserve" text-anchor="middle" x="475.5" y="-5.75" font-family="Helvetica,sans-Serif" font-size="10.00">Sort_pw</text>
</a>
</g>
</g>
<!-- Node7&#45;&gt;Node8 -->
<g id="edge7_Node000007_Node000008" class="edge">
<title>Node7&#45;&gt;Node8</title>
<g id="a_edge7_Node000007_Node000008"><a xlink:title=" ">
<path fill="none" stroke="#63b8ff" d="M540.8,-9.62C527.1,-9.62 513.26,-9.62 501.96,-9.62"/>
<polygon fill="#63b8ff" stroke="#63b8ff" points="540.71,-13.13 550.71,-9.63 540.71,-6.13 540.71,-13.13"/>
</a>
</g>
</g>
<!-- Node9 -->
<g id="Node000009" class="node">
<title>Node9</title>
<g id="a_Node000009"><a xlink:href="../../d1/d8e/compute___vbare__loc_8c.html#a5f1d51340a8457749225b05b612e4abe" target="_top" xlink:title=" ">
<polygon fill="white" stroke="#666666" points="398.5,-19.25 341.25,-19.25 341.25,0 398.5,0 398.5,-19.25"/>
<text xml:space="preserve" text-anchor="middle" x="369.88" y="-5.75" font-family="Helvetica,sans-Serif" font-size="10.00">elphLocal</text>
</a>
</g>
</g>
<!-- Node8&#45;&gt;Node9 -->
<g id="edge8_Node000008_Node000009" class="edge">
<title>Node8&#45;&gt;Node9</title>
<g id="a_edge8_Node000008_Node000009"><a xlink:title=" ">
<path fill="none" stroke="#63b8ff" d="M437.86,-9.62C425.05,-9.62 410.88,-9.62 398.88,-9.62"/>
<polygon fill="#63b8ff" stroke="#63b8ff" points="437.64,-13.13 447.64,-9.63 437.64,-6.13 437.64,-13.13"/>
</a>
</g>
</g>
<!-- Node10 -->
<g id="Node000010" class="node">
<title>Node10</title>
<g id="a_Node000010"><a xlink:href="../../d5/dd2/compute__elph__matq_8c.html#ad32ab6f17a3745b7f82151d7f5b927f2" target="_top" xlink:title=" ">
<polygon fill="white" stroke="#666666" points="303.38,-19.25 174.12,-19.25 174.12,0 303.38,0 303.38,-19.25"/>
<text xml:space="preserve" text-anchor="middle" x="238.75" y="-5.75" font-family="Helvetica,sans-Serif" font-size="10.00">compute_and_write_elphq</text>
</a>
</g>
</g>
<!-- Node9&#45;&gt;Node10 -->
<g id="edge9_Node000009_Node000010" class="edge">
<title>Node9&#45;&gt;Node10</title>
<g id="a_edge9_Node000009_Node000010"><a xlink:title=" ">
<path fill="none" stroke="#63b8ff" d="M329.45,-9.62C321.3,-9.62 312.52,-9.62 303.75,-9.62"/>
<polygon fill="#63b8ff" stroke="#63b8ff" points="329.34,-13.13 339.34,-9.63 329.34,-6.13 329.34,-13.13"/>
</a>
</g>
</g>
<!-- Node10&#45;&gt;Node5 -->
<g id="edge10_Node000010_Node000005" class="edge">
<title>Node10&#45;&gt;Node5</title>
<g id="a_edge10_Node000010_Node000005"><a xlink:title=" ">
<path fill="none" stroke="#63b8ff" d="M162.7,-19.85C153.48,-21.11 144.5,-22.33 136.5,-23.42"/>
<polygon fill="#63b8ff" stroke="#63b8ff" points="163.07,-23.33 172.51,-18.51 162.13,-16.39 163.07,-23.33"/>
</a>
</g>
</g>
</g>
</svg>
