<?xml version="1.0" encoding="UTF-8" standalone="no"?>
<!DOCTYPE svg PUBLIC "-//W3C//DTD SVG 1.1//EN"
 "http://www.w3.org/Graphics/SVG/1.1/DTD/svg11.dtd">
<!-- Generated by graphviz version 14.0.0 (20250921.2048)
 -->
<!-- Title: src/preprocessor/ELPH_copy.c Pages: 1 -->
<svg width="409pt" height="94pt"
 viewBox="0.00 0.00 409.00 94.00" xmlns="http://www.w3.org/2000/svg" xmlns:xlink="http://www.w3.org/1999/xlink">
<g id="graph0" class="graph" transform="scale(1 1) rotate(0) translate(4 89.75)">
<title>src/preprocessor/ELPH_copy.c</title>
<!-- Node1 -->
<g id="Node000001" class="node">
<title>Node1</title>
<g id="a_Node000001"><a xlink:title=" ">
<polygon fill="#999999" stroke="#666666" points="244.62,-85.75 126.62,-85.75 126.62,-55.25 244.62,-55.25 244.62,-85.75"/>
<text xml:space="preserve" text-anchor="start" x="134.62" y="-72.25" font-family="Helvetica,sans-Serif" font-size="10.00">src/preprocessor/ELPH</text>
<text xml:space="preserve" text-anchor="middle" x="185.62" y="-61" font-family="Helvetica,sans-Serif" font-size="10.00">_copy.c</text>
</a>
</g>
</g>
<!-- Node2 -->
<g id="Node000002" class="node">
<title>Node2</title>
<g id="a_Node000002"><a xlink:href="../../d4/dc0/_e_l_p_h__copy_8h.html" target="_top" xlink:title=" ">
<polygon fill="white" stroke="#666666" points="75.25,-19.25 0,-19.25 0,0 75.25,0 75.25,-19.25"/>
<text xml:space="preserve" text-anchor="middle" x="37.62" y="-5.75" font-family="Helvetica,sans-Serif" font-size="10.00">ELPH_copy.h</text>
</a>
</g>
</g>
<!-- Node1&#45;&gt;Node2 -->
<g id="edge1_Node000001_Node000002" class="edge">
<title>Node1&#45;&gt;Node2</title>
<g id="a_edge1_Node000001_Node000002"><a xlink:title=" ">
<path fill="none" stroke="#63b8ff" d="M148.66,-54.8C124.82,-45.31 94.07,-33.08 70.98,-23.89"/>
<polygon fill="#63b8ff" stroke="#63b8ff" points="72.31,-20.66 61.73,-20.21 69.73,-27.16 72.31,-20.66"/>
</a>
</g>
</g>
<!-- Node3 -->
<g id="Node000003" class="node">
<title>Node3</title>
<g id="a_Node000003"><a xlink:title=" ">
<polygon fill="#e0e0e0" stroke="#999999" points="138.25,-19.25 93,-19.25 93,0 138.25,0 138.25,-19.25"/>
<text xml:space="preserve" text-anchor="middle" x="115.62" y="-5.75" font-family="Helvetica,sans-Serif" font-size="10.00">stdio.h</text>
</a>
</g>
</g>
<!-- Node1&#45;&gt;Node3 -->
<g id="edge2_Node000001_Node000003" class="edge">
<title>Node1&#45;&gt;Node3</title>
<g id="a_edge2_Node000001_Node000003"><a xlink:title=" ">
<path fill="none" stroke="#63b8ff" d="M168.32,-54.95C158.28,-46.5 145.6,-35.83 135.19,-27.08"/>
<polygon fill="#63b8ff" stroke="#63b8ff" points="137.48,-24.43 127.57,-20.68 132.97,-29.79 137.48,-24.43"/>
</a>
</g>
</g>
<!-- Node4 -->
<g id="Node000004" class="node">
<title>Node4</title>
<g id="a_Node000004"><a xlink:title=" ">
<polygon fill="#e0e0e0" stroke="#999999" points="215.38,-19.25 155.88,-19.25 155.88,0 215.38,0 215.38,-19.25"/>
<text xml:space="preserve" text-anchor="middle" x="185.62" y="-5.75" font-family="Helvetica,sans-Serif" font-size="10.00">sys/stat.h</text>
</a>
</g>
</g>
<!-- Node1&#45;&gt;Node4 -->
<g id="edge3_Node000001_Node000004" class="edge">
<title>Node1&#45;&gt;Node4</title>
<g id="a_edge3_Node000001_Node000004"><a xlink:title=" ">
<path fill="none" stroke="#63b8ff" d="M185.62,-54.95C185.62,-47.71 185.62,-38.84 185.62,-30.94"/>
<polygon fill="#63b8ff" stroke="#63b8ff" points="189.13,-31.21 185.63,-21.21 182.13,-31.21 189.13,-31.21"/>
</a>
</g>
</g>
<!-- Node5 -->
<g id="Node000005" class="node">
<title>Node5</title>
<g id="a_Node000005"><a xlink:title=" ">
<polygon fill="#e0e0e0" stroke="#999999" points="300.12,-19.25 233.12,-19.25 233.12,0 300.12,0 300.12,-19.25"/>
<text xml:space="preserve" text-anchor="middle" x="266.62" y="-5.75" font-family="Helvetica,sans-Serif" font-size="10.00">sys/types.h</text>
</a>
</g>
</g>
<!-- Node1&#45;&gt;Node5 -->
<g id="edge4_Node000001_Node000005" class="edge">
<title>Node1&#45;&gt;Node5</title>
<g id="a_edge4_Node000001_Node000005"><a xlink:title=" ">
<path fill="none" stroke="#63b8ff" d="M205.65,-54.95C217.62,-46.24 232.84,-35.18 245.08,-26.28"/>
<polygon fill="#63b8ff" stroke="#63b8ff" points="246.88,-29.3 252.91,-20.59 242.77,-23.64 246.88,-29.3"/>
</a>
</g>
</g>
<!-- Node6 -->
<g id="Node000006" class="node">
<title>Node6</title>
<g id="a_Node000006"><a xlink:href="../../da/d41/error_8h.html" target="_top" xlink:title=" ">
<polygon fill="white" stroke="#666666" points="401.38,-19.25 317.88,-19.25 317.88,0 401.38,0 401.38,-19.25"/>
<text xml:space="preserve" text-anchor="middle" x="359.62" y="-5.75" font-family="Helvetica,sans-Serif" font-size="10.00">common/error.h</text>
</a>
</g>
</g>
<!-- Node1&#45;&gt;Node6 -->
<g id="edge5_Node000001_Node000006" class="edge">
<title>Node1&#45;&gt;Node6</title>
<g id="a_edge5_Node000001_Node000006"><a xlink:title=" ">
<path fill="none" stroke="#63b8ff" d="M229.08,-54.8C257.66,-45.13 294.68,-32.6 321.99,-23.36"/>
<polygon fill="#63b8ff" stroke="#63b8ff" points="322.9,-26.75 331.25,-20.23 320.66,-20.12 322.9,-26.75"/>
</a>
</g>
</g>
</g>
</svg>
