<?xml version="1.0" encoding="UTF-8" standalone="no"?>
<!DOCTYPE svg PUBLIC "-//W3C//DTD SVG 1.1//EN"
 "http://www.w3.org/Graphics/SVG/1.1/DTD/svg11.dtd">
<!-- Generated by graphviz version 14.0.0 (20250921.2048)
 -->
<!-- Title: add_ph_dyn_long_range Pages: 1 -->
<!--zoomable 175 -->

<svg id="main" version="1.1" xmlns="http://www.w3.org/2000/svg" xmlns:xlink="http://www.w3.org/1999/xlink" xml:space="preserve" onload="init(evt)">

<style type="text/css"><![CDATA[
.node, .edge {opacity: 0.7;}
.node.selected, .edge.selected {opacity: 1;}
.edge:hover path { stroke: red; }
.edge:hover polygon { stroke: red; fill: red; }
]]></style>

<defs>
  <circle id="rim" cx="0" cy="0" r="7"/>
  <circle id="rim2" cx="0" cy="0" r="3.5"/>
  <g id="zoomPlus">
    <use xlink:href="#rim" fill="#404040"><set attributeName="fill" to="#808080" begin="zoomplus.mouseover" end="zoomplus.mouseout"/></use>
    <path d="M-4,0h8M0,-4v8" fill="none" stroke="white" stroke-width="1.5" pointer-events="none"/>
  </g>
  <g id="zoomMin">
    <use xlink:href="#rim" fill="#404040"><set attributeName="fill" to="#808080" begin="zoomminus.mouseover" end="zoomminus.mouseout"/></use>
    <path d="M-4,0h8" fill="none" stroke="white" stroke-width="1.5" pointer-events="none"/>
  </g>
  <g id="arrowUp" transform="translate(30 24)">
    <use xlink:href="#rim"/>
    <path pointer-events="none" fill="none" stroke="white" stroke-width="1.5" d="M0,-3.0v7 M-2.5,-0.5L0,-3.0L2.5,-0.5"/>
  </g>
  <g id="arrowRight" transform="rotate(90) translate(36 -43)">
    <use xlink:href="#rim"/>
    <path pointer-events="none" fill="none" stroke="white" stroke-width="1.5" d="M0,-3.0v7 M-2.5,-0.5L0,-3.0L2.5,-0.5"/>
  </g>
  <g id="arrowDown" transform="rotate(180) translate(-30 -48)">
    <use xlink:href="#rim"/>
    <path pointer-events="none" fill="none" stroke="white" stroke-width="1.5" d="M0,-3.0v7 M-2.5,-0.5L0,-3.0L2.5,-0.5"/>
  </g>
  <g id="arrowLeft" transform="rotate(270) translate(-36 17)">
    <use xlink:href="#rim"/>
    <path pointer-events="none" fill="none" stroke="white" stroke-width="1.5" d="M0,-3.0v7 M-2.5,-0.5L0,-3.0L2.5,-0.5"/>
  </g>
  <g id="resetDef">
    <use xlink:href="#rim2" fill="#404040"><set attributeName="fill" to="#808080" begin="reset.mouseover" end="reset.mouseout"/></use>
  </g>
</defs>
<script type="application/ecmascript">
var viewWidth = 532;
var viewHeight = 175;
var sectionId = 'dynsection-0';
</script>
<script type="application/ecmascript" xlink:href="../../svg.min.js"/>
<svg id="graph" class="graph">
<g id="viewport">
<title>add_ph_dyn_long_range</title>
<!-- Node1 -->
<g id="Node000001" class="node">
<title>Node1</title>
<g id="a_Node000001"><a xlink:title=" ">
<polygon fill="#999999" stroke="#666666" points="121,-93.25 0,-93.25 0,-74 121,-74 121,-93.25"/>
<text xml:space="preserve" text-anchor="middle" x="60.5" y="-79.75" font-family="Helvetica,sans-Serif" font-size="10.00">add_ph_dyn_long_range</text>
</a>
</g>
</g>
<!-- Node2 -->
<g id="Node000002" class="node">
<title>Node2</title>
<g id="a_Node000002"><a xlink:href="../../db/d44/dyn__long__range_8c.html#a5c9bf2378b293980114e987a84c9df49" target="_top" xlink:title=" ">
<polygon fill="white" stroke="#666666" points="278,-98.88 157,-98.88 157,-68.38 278,-68.38 278,-98.88"/>
<text xml:space="preserve" text-anchor="start" x="165" y="-85.38" font-family="Helvetica,sans-Serif" font-size="10.00">add_ph_dyn_long_range</text>
<text xml:space="preserve" text-anchor="middle" x="217.5" y="-74.12" font-family="Helvetica,sans-Serif" font-size="10.00">_internal</text>
</a>
</g>
</g>
<!-- Node1&#45;&gt;Node2 -->
<g id="edge1_Node000001_Node000002" class="edge">
<title>Node1&#45;&gt;Node2</title>
<g id="a_edge1_Node000001_Node000002"><a xlink:title=" ">
<path fill="none" stroke="#63b8ff" d="M121.43,-83.62C129.3,-83.62 137.43,-83.62 145.47,-83.62"/>
<polygon fill="#63b8ff" stroke="#63b8ff" points="145.22,-87.13 155.22,-83.63 145.22,-80.13 145.22,-87.13"/>
</a>
</g>
</g>
<!-- Node3 -->
<g id="Node000003" class="node">
<title>Node3</title>
<g id="a_Node000003"><a xlink:href="../../da/d97/_e_l_p_h__timers_8c.html#a4846a0dbe6a17751878baf1315af43aa" target="_top" xlink:title=" ">
<polygon fill="white" stroke="#666666" points="409.5,-167.25 314,-167.25 314,-148 409.5,-148 409.5,-167.25"/>
<text xml:space="preserve" text-anchor="middle" x="361.75" y="-153.75" font-family="Helvetica,sans-Serif" font-size="10.00">ELPH_start_clock</text>
</a>
</g>
</g>
<!-- Node2&#45;&gt;Node3 -->
<g id="edge2_Node000002_Node000003" class="edge">
<title>Node2&#45;&gt;Node3</title>
<g id="a_edge2_Node000002_Node000003"><a xlink:title=" ">
<path fill="none" stroke="#63b8ff" d="M242.63,-99.26C261.59,-111.17 288.89,-127.53 314,-139.62 316.54,-140.85 319.18,-142.05 321.86,-143.21"/>
<polygon fill="#63b8ff" stroke="#63b8ff" points="320.27,-146.34 330.85,-146.93 322.95,-139.87 320.27,-146.34"/>
</a>
</g>
</g>
<!-- Node4 -->
<g id="Node000004" class="node">
<title>Node4</title>
<g id="a_Node000004"><a xlink:href="../../da/d97/_e_l_p_h__timers_8c.html#adcc3002449fe62895b6e89571d00ba48" target="_top" xlink:title=" ">
<polygon fill="white" stroke="#666666" points="409.12,-130.25 314.38,-130.25 314.38,-111 409.12,-111 409.12,-130.25"/>
<text xml:space="preserve" text-anchor="middle" x="361.75" y="-116.75" font-family="Helvetica,sans-Serif" font-size="10.00">ELPH_stop_clock</text>
</a>
</g>
</g>
<!-- Node2&#45;&gt;Node4 -->
<g id="edge3_Node000002_Node000004" class="edge">
<title>Node2&#45;&gt;Node4</title>
<g id="a_edge3_Node000002_Node000004"><a xlink:title=" ">
<path fill="none" stroke="#63b8ff" d="M278.41,-99.21C289.23,-102.02 300.4,-104.93 310.9,-107.66"/>
<polygon fill="#63b8ff" stroke="#63b8ff" points="309.94,-111.03 320.5,-110.16 311.7,-104.25 309.94,-111.03"/>
</a>
</g>
</g>
<!-- Node5 -->
<g id="Node000005" class="node">
<title>Node5</title>
<g id="a_Node000005"><a xlink:href="../../de/d2d/numerical__func_8c.html#a33dc7889eeb05a7ee40327581d51a3d7" target="_top" xlink:title=" ">
<polygon fill="white" stroke="#666666" points="399.75,-93.25 323.75,-93.25 323.75,-74 399.75,-74 399.75,-93.25"/>
<text xml:space="preserve" text-anchor="middle" x="361.75" y="-79.75" font-family="Helvetica,sans-Serif" font-size="10.00">get_miller_idx</text>
</a>
</g>
</g>
<!-- Node2&#45;&gt;Node5 -->
<g id="edge4_Node000002_Node000005" class="edge">
<title>Node2&#45;&gt;Node5</title>
<g id="a_edge4_Node000002_Node000005"><a xlink:title=" ">
<path fill="none" stroke="#63b8ff" d="M278.41,-83.62C289.68,-83.62 301.33,-83.62 312.19,-83.62"/>
<polygon fill="#63b8ff" stroke="#63b8ff" points="312.1,-87.13 322.1,-83.63 312.1,-80.13 312.1,-87.13"/>
</a>
</g>
</g>
<!-- Node6 -->
<g id="Node000006" class="node">
<title>Node6</title>
<g id="a_Node000006"><a xlink:href="../../dc/d50/blas_8c.html#a93d327b9e3c8bd925ff76d32df39809c" target="_top" xlink:title=" ">
<polygon fill="white" stroke="#666666" points="401.62,-56.25 321.88,-56.25 321.88,-37 401.62,-37 401.62,-56.25"/>
<text xml:space="preserve" text-anchor="middle" x="361.75" y="-42.75" font-family="Helvetica,sans-Serif" font-size="10.00">matmul_cmplx</text>
</a>
</g>
</g>
<!-- Node2&#45;&gt;Node6 -->
<g id="edge5_Node000002_Node000006" class="edge">
<title>Node2&#45;&gt;Node6</title>
<g id="a_edge5_Node000002_Node000006"><a xlink:title=" ">
<path fill="none" stroke="#63b8ff" d="M278.41,-68.04C289.23,-65.23 300.4,-62.32 310.9,-59.59"/>
<polygon fill="#63b8ff" stroke="#63b8ff" points="311.7,-63 320.5,-57.09 309.94,-56.22 311.7,-63"/>
</a>
</g>
</g>
<!-- Node8 -->
<g id="Node000008" class="node">
<title>Node8</title>
<g id="a_Node000008"><a xlink:href="../../de/d2d/numerical__func_8c.html#adeeb2c0049b8e3663d2d2cc9f7a1cd23" target="_top" xlink:title=" ">
<polygon fill="white" stroke="#666666" points="390.75,-19.25 332.75,-19.25 332.75,0 390.75,0 390.75,-19.25"/>
<text xml:space="preserve" text-anchor="middle" x="361.75" y="-5.75" font-family="Helvetica,sans-Serif" font-size="10.00">MatVec3f</text>
</a>
</g>
</g>
<!-- Node2&#45;&gt;Node8 -->
<g id="edge7_Node000002_Node000008" class="edge">
<title>Node2&#45;&gt;Node8</title>
<g id="a_edge7_Node000002_Node000008"><a xlink:title=" ">
<path fill="none" stroke="#63b8ff" d="M242.63,-67.99C261.59,-56.08 288.89,-39.72 314,-27.62 316.54,-26.4 319.18,-25.2 321.86,-24.04"/>
<polygon fill="#63b8ff" stroke="#63b8ff" points="322.95,-27.38 330.85,-20.32 320.27,-20.91 322.95,-27.38"/>
</a>
</g>
</g>
<!-- Node7 -->
<g id="Node000007" class="node">
<title>Node7</title>
<g id="a_Node000007"><a xlink:href="../../dc/d50/blas_8c.html#a913bafabc05e83b2aeed88da231a461f" target="_top" xlink:title=" ">
<polygon fill="white" stroke="#666666" points="523.75,-56.25 445.5,-56.25 445.5,-37 523.75,-37 523.75,-56.25"/>
<text xml:space="preserve" text-anchor="middle" x="484.62" y="-42.75" font-family="Helvetica,sans-Serif" font-size="10.00">get_gemmn_T</text>
</a>
</g>
</g>
<!-- Node6&#45;&gt;Node7 -->
<g id="edge6_Node000006_Node000007" class="edge">
<title>Node6&#45;&gt;Node7</title>
<g id="a_edge6_Node000006_Node000007"><a xlink:title=" ">
<path fill="none" stroke="#63b8ff" d="M401.99,-46.62C412.22,-46.62 423.37,-46.62 434.06,-46.62"/>
<polygon fill="#63b8ff" stroke="#63b8ff" points="433.89,-50.13 443.89,-46.63 433.89,-43.13 433.89,-50.13"/>
</a>
</g>
</g>
</g>
</svg>

<g id="navigator" transform="translate(0 0)" fill="#404254">
  <rect fill="#f2f5e9" fill-opacity="0.5" stroke="#606060" stroke-width=".5" x="0" y="0" width="60" height="60"/>
  <use id="zoomplus" xlink:href="#zoomPlus" x="17" y="9" onmousedown="handleZoom(evt,'in')"/>
  <use id="zoomminus" xlink:href="#zoomMin" x="42" y="9" onmousedown="handleZoom(evt,'out')"/>
  <use id="reset" xlink:href="#resetDef" x="30" y="36" onmousedown="handleReset()"/>
   <use id="arrowup" xlink:href="#arrowUp" x="0" y="0" onmousedown="handlePan(0,-1)"/>
  <use id="arrowright" xlink:href="#arrowRight" x="0" y="0" onmousedown="handlePan(1,0)"/>
  <use id="arrowdown" xlink:href="#arrowDown" x="0" y="0" onmousedown="handlePan(0,1)"/>
  <use id="arrowleft" xlink:href="#arrowLeft" x="0" y="0" onmousedown="handlePan(-1,0)"/>
</g>
<svg viewBox="0 0 15 15" width="100%" height="30px" preserveAspectRatio="xMaxYMin meet">
 <g id="arrow_out" transform="scale(0.3 0.3)">
  <a xlink:href="phonon_8h_a8f542a339e339996795dd2eafe9ac1de_cgraph_org.svg" target="_base">
   <rect id="button" ry="5" rx="5" y="6" x="6" height="38" width="38"
        fill="#f2f5e9" fill-opacity="0.5" stroke="#606060" stroke-width="1.0"/>
   <path id="arrow"
     d="M 11.500037,31.436501 C 11.940474,20.09759 22.043105,11.32322 32.158766,21.979434 L 37.068811,17.246167 C 37.068811,17.246167 37.088388,32 37.088388,32 L 22.160133,31.978069 C 22.160133,31.978069 26.997745,27.140456 26.997745,27.140456 C 18.528582,18.264221 13.291696,25.230495 11.500037,31.436501 z"
     style="fill:#404040;"/>
  </a>
 </g>
</svg>

<style type='text/css'>
<![CDATA[
[data-mouse-over-selected='false'] { opacity: 0.7; }
[data-mouse-over-selected='true']  { opacity: 1.0; }
]]>
</style>
<script type="application/ecmascript"><![CDATA[
document.addEventListener('DOMContentLoaded', (event) => {
  highlightEdges();
  highlightAdjacentNodes();
});
]]></script>
</svg>
