<?xml version="1.0" encoding="UTF-8" standalone="no"?>
<!DOCTYPE svg PUBLIC "-//W3C//DTD SVG 1.1//EN"
 "http://www.w3.org/Graphics/SVG/1.1/DTD/svg11.dtd">
<!-- Generated by graphviz version 14.0.0 (20250921.2048)
 -->
<!-- Title: add_ph_dyn_long_range Pages: 1 -->
<svg width="532pt" height="175pt"
 viewBox="0.00 0.00 532.00 175.00" xmlns="http://www.w3.org/2000/svg" xmlns:xlink="http://www.w3.org/1999/xlink">
<g id="graph0" class="graph" transform="scale(1 1) rotate(0) translate(4 171.25)">
<title>add_ph_dyn_long_range</title>
<!-- Node1 -->
<g id="Node000001" class="node">
<title>Node1</title>
<g id="a_Node000001"><a xlink:title=" ">
<polygon fill="#999999" stroke="#666666" points="121,-93.25 0,-93.25 0,-74 121,-74 121,-93.25"/>
<text xml:space="preserve" text-anchor="middle" x="60.5" y="-79.75" font-family="Helvetica,sans-Serif" font-size="10.00">add_ph_dyn_long_range</text>
</a>
</g>
</g>
<!-- Node2 -->
<g id="Node000002" class="node">
<title>Node2</title>
<g id="a_Node000002"><a xlink:href="../../db/d44/dyn__long__range_8c.html#a5c9bf2378b293980114e987a84c9df49" target="_top" xlink:title=" ">
<polygon fill="white" stroke="#666666" points="278,-98.88 157,-98.88 157,-68.38 278,-68.38 278,-98.88"/>
<text xml:space="preserve" text-anchor="start" x="165" y="-85.38" font-family="Helvetica,sans-Serif" font-size="10.00">add_ph_dyn_long_range</text>
<text xml:space="preserve" text-anchor="middle" x="217.5" y="-74.12" font-family="Helvetica,sans-Serif" font-size="10.00">_internal</text>
</a>
</g>
</g>
<!-- Node1&#45;&gt;Node2 -->
<g id="edge1_Node000001_Node000002" class="edge">
<title>Node1&#45;&gt;Node2</title>
<g id="a_edge1_Node000001_Node000002"><a xlink:title=" ">
<path fill="none" stroke="#63b8ff" d="M121.43,-83.62C129.3,-83.62 137.43,-83.62 145.47,-83.62"/>
<polygon fill="#63b8ff" stroke="#63b8ff" points="145.22,-87.13 155.22,-83.63 145.22,-80.13 145.22,-87.13"/>
</a>
</g>
</g>
<!-- Node3 -->
<g id="Node000003" class="node">
<title>Node3</title>
<g id="a_Node000003"><a xlink:href="../../da/d97/_e_l_p_h__timers_8c.html#a4846a0dbe6a17751878baf1315af43aa" target="_top" xlink:title=" ">
<polygon fill="white" stroke="#666666" points="409.5,-167.25 314,-167.25 314,-148 409.5,-148 409.5,-167.25"/>
<text xml:space="preserve" text-anchor="middle" x="361.75" y="-153.75" font-family="Helvetica,sans-Serif" font-size="10.00">ELPH_start_clock</text>
</a>
</g>
</g>
<!-- Node2&#45;&gt;Node3 -->
<g id="edge2_Node000002_Node000003" class="edge">
<title>Node2&#45;&gt;Node3</title>
<g id="a_edge2_Node000002_Node000003"><a xlink:title=" ">
<path fill="none" stroke="#63b8ff" d="M242.63,-99.26C261.59,-111.17 288.89,-127.53 314,-139.62 316.54,-140.85 319.18,-142.05 321.86,-143.21"/>
<polygon fill="#63b8ff" stroke="#63b8ff" points="320.27,-146.34 330.85,-146.93 322.95,-139.87 320.27,-146.34"/>
</a>
</g>
</g>
<!-- Node4 -->
<g id="Node000004" class="node">
<title>Node4</title>
<g id="a_Node000004"><a xlink:href="../../da/d97/_e_l_p_h__timers_8c.html#adcc3002449fe62895b6e89571d00ba48" target="_top" xlink:title=" ">
<polygon fill="white" stroke="#666666" points="409.12,-130.25 314.38,-130.25 314.38,-111 409.12,-111 409.12,-130.25"/>
<text xml:space="preserve" text-anchor="middle" x="361.75" y="-116.75" font-family="Helvetica,sans-Serif" font-size="10.00">ELPH_stop_clock</text>
</a>
</g>
</g>
<!-- Node2&#45;&gt;Node4 -->
<g id="edge3_Node000002_Node000004" class="edge">
<title>Node2&#45;&gt;Node4</title>
<g id="a_edge3_Node000002_Node000004"><a xlink:title=" ">
<path fill="none" stroke="#63b8ff" d="M278.41,-99.21C289.23,-102.02 300.4,-104.93 310.9,-107.66"/>
<polygon fill="#63b8ff" stroke="#63b8ff" points="309.94,-111.03 320.5,-110.16 311.7,-104.25 309.94,-111.03"/>
</a>
</g>
</g>
<!-- Node5 -->
<g id="Node000005" class="node">
<title>Node5</title>
<g id="a_Node000005"><a xlink:href="../../de/d2d/numerical__func_8c.html#a33dc7889eeb05a7ee40327581d51a3d7" target="_top" xlink:title=" ">
<polygon fill="white" stroke="#666666" points="399.75,-93.25 323.75,-93.25 323.75,-74 399.75,-74 399.75,-93.25"/>
<text xml:space="preserve" text-anchor="middle" x="361.75" y="-79.75" font-family="Helvetica,sans-Serif" font-size="10.00">get_miller_idx</text>
</a>
</g>
</g>
<!-- Node2&#45;&gt;Node5 -->
<g id="edge4_Node000002_Node000005" class="edge">
<title>Node2&#45;&gt;Node5</title>
<g id="a_edge4_Node000002_Node000005"><a xlink:title=" ">
<path fill="none" stroke="#63b8ff" d="M278.41,-83.62C289.68,-83.62 301.33,-83.62 312.19,-83.62"/>
<polygon fill="#63b8ff" stroke="#63b8ff" points="312.1,-87.13 322.1,-83.63 312.1,-80.13 312.1,-87.13"/>
</a>
</g>
</g>
<!-- Node6 -->
<g id="Node000006" class="node">
<title>Node6</title>
<g id="a_Node000006"><a xlink:href="../../dc/d50/blas_8c.html#a93d327b9e3c8bd925ff76d32df39809c" target="_top" xlink:title=" ">
<polygon fill="white" stroke="#666666" points="401.62,-56.25 321.88,-56.25 321.88,-37 401.62,-37 401.62,-56.25"/>
<text xml:space="preserve" text-anchor="middle" x="361.75" y="-42.75" font-family="Helvetica,sans-Serif" font-size="10.00">matmul_cmplx</text>
</a>
</g>
</g>
<!-- Node2&#45;&gt;Node6 -->
<g id="edge5_Node000002_Node000006" class="edge">
<title>Node2&#45;&gt;Node6</title>
<g id="a_edge5_Node000002_Node000006"><a xlink:title=" ">
<path fill="none" stroke="#63b8ff" d="M278.41,-68.04C289.23,-65.23 300.4,-62.32 310.9,-59.59"/>
<polygon fill="#63b8ff" stroke="#63b8ff" points="311.7,-63 320.5,-57.09 309.94,-56.22 311.7,-63"/>
</a>
</g>
</g>
<!-- Node8 -->
<g id="Node000008" class="node">
<title>Node8</title>
<g id="a_Node000008"><a xlink:href="../../de/d2d/numerical__func_8c.html#adeeb2c0049b8e3663d2d2cc9f7a1cd23" target="_top" xlink:title=" ">
<polygon fill="white" stroke="#666666" points="390.75,-19.25 332.75,-19.25 332.75,0 390.75,0 390.75,-19.25"/>
<text xml:space="preserve" text-anchor="middle" x="361.75" y="-5.75" font-family="Helvetica,sans-Serif" font-size="10.00">MatVec3f</text>
</a>
</g>
</g>
<!-- Node2&#45;&gt;Node8 -->
<g id="edge7_Node000002_Node000008" class="edge">
<title>Node2&#45;&gt;Node8</title>
<g id="a_edge7_Node000002_Node000008"><a xlink:title=" ">
<path fill="none" stroke="#63b8ff" d="M242.63,-67.99C261.59,-56.08 288.89,-39.72 314,-27.62 316.54,-26.4 319.18,-25.2 321.86,-24.04"/>
<polygon fill="#63b8ff" stroke="#63b8ff" points="322.95,-27.38 330.85,-20.32 320.27,-20.91 322.95,-27.38"/>
</a>
</g>
</g>
<!-- Node7 -->
<g id="Node000007" class="node">
<title>Node7</title>
<g id="a_Node000007"><a xlink:href="../../dc/d50/blas_8c.html#a913bafabc05e83b2aeed88da231a461f" target="_top" xlink:title=" ">
<polygon fill="white" stroke="#666666" points="523.75,-56.25 445.5,-56.25 445.5,-37 523.75,-37 523.75,-56.25"/>
<text xml:space="preserve" text-anchor="middle" x="484.62" y="-42.75" font-family="Helvetica,sans-Serif" font-size="10.00">get_gemmn_T</text>
</a>
</g>
</g>
<!-- Node6&#45;&gt;Node7 -->
<g id="edge6_Node000006_Node000007" class="edge">
<title>Node6&#45;&gt;Node7</title>
<g id="a_edge6_Node000006_Node000007"><a xlink:title=" ">
<path fill="none" stroke="#63b8ff" d="M401.99,-46.62C412.22,-46.62 423.37,-46.62 434.06,-46.62"/>
<polygon fill="#63b8ff" stroke="#63b8ff" points="433.89,-50.13 443.89,-46.63 433.89,-43.13 433.89,-50.13"/>
</a>
</g>
</g>
</g>
</svg>
