<?xml version="1.0" encoding="UTF-8" standalone="no"?>
<!DOCTYPE svg PUBLIC "-//W3C//DTD SVG 1.1//EN"
 "http://www.w3.org/Graphics/SVG/1.1/DTD/svg11.dtd">
<!-- Generated by graphviz version 14.0.0 (20250921.2048)
 -->
<!-- Title: compute_dyn_lr_asr_correction Pages: 1 -->
<svg width="515pt" height="175pt"
 viewBox="0.00 0.00 515.00 175.00" xmlns="http://www.w3.org/2000/svg" xmlns:xlink="http://www.w3.org/1999/xlink">
<g id="graph0" class="graph" transform="scale(1 1) rotate(0) translate(4 171.25)">
<title>compute_dyn_lr_asr_correction</title>
<!-- Node1 -->
<g id="Node000001" class="node">
<title>Node1</title>
<g id="a_Node000001"><a xlink:title=" ">
<polygon fill="#999999" stroke="#666666" points="103.75,-98.88 0,-98.88 0,-68.38 103.75,-68.38 103.75,-98.88"/>
<text xml:space="preserve" text-anchor="start" x="8" y="-85.38" font-family="Helvetica,sans-Serif" font-size="10.00">compute_dyn_lr_asr</text>
<text xml:space="preserve" text-anchor="middle" x="51.88" y="-74.12" font-family="Helvetica,sans-Serif" font-size="10.00">_correction</text>
</a>
</g>
</g>
<!-- Node2 -->
<g id="Node000002" class="node">
<title>Node2</title>
<g id="a_Node000002"><a xlink:href="../../db/d44/dyn__long__range_8c.html#a5c9bf2378b293980114e987a84c9df49" target="_top" xlink:title=" ">
<polygon fill="white" stroke="#666666" points="260.75,-98.88 139.75,-98.88 139.75,-68.38 260.75,-68.38 260.75,-98.88"/>
<text xml:space="preserve" text-anchor="start" x="147.75" y="-85.38" font-family="Helvetica,sans-Serif" font-size="10.00">add_ph_dyn_long_range</text>
<text xml:space="preserve" text-anchor="middle" x="200.25" y="-74.12" font-family="Helvetica,sans-Serif" font-size="10.00">_internal</text>
</a>
</g>
</g>
<!-- Node1&#45;&gt;Node2 -->
<g id="edge1_Node000001_Node000002" class="edge">
<title>Node1&#45;&gt;Node2</title>
<g id="a_edge1_Node000001_Node000002"><a xlink:title=" ">
<path fill="none" stroke="#63b8ff" d="M104.07,-83.62C111.8,-83.62 119.9,-83.62 127.96,-83.62"/>
<polygon fill="#63b8ff" stroke="#63b8ff" points="127.78,-87.13 137.78,-83.63 127.78,-80.13 127.78,-87.13"/>
</a>
</g>
</g>
<!-- Node3 -->
<g id="Node000003" class="node">
<title>Node3</title>
<g id="a_Node000003"><a xlink:href="../../da/d97/_e_l_p_h__timers_8c.html#a4846a0dbe6a17751878baf1315af43aa" target="_top" xlink:title=" ">
<polygon fill="white" stroke="#666666" points="392.25,-167.25 296.75,-167.25 296.75,-148 392.25,-148 392.25,-167.25"/>
<text xml:space="preserve" text-anchor="middle" x="344.5" y="-153.75" font-family="Helvetica,sans-Serif" font-size="10.00">ELPH_start_clock</text>
</a>
</g>
</g>
<!-- Node2&#45;&gt;Node3 -->
<g id="edge2_Node000002_Node000003" class="edge">
<title>Node2&#45;&gt;Node3</title>
<g id="a_edge2_Node000002_Node000003"><a xlink:title=" ">
<path fill="none" stroke="#63b8ff" d="M225.38,-99.26C244.34,-111.17 271.64,-127.53 296.75,-139.62 299.29,-140.85 301.93,-142.05 304.61,-143.21"/>
<polygon fill="#63b8ff" stroke="#63b8ff" points="303.02,-146.34 313.6,-146.93 305.7,-139.87 303.02,-146.34"/>
</a>
</g>
</g>
<!-- Node4 -->
<g id="Node000004" class="node">
<title>Node4</title>
<g id="a_Node000004"><a xlink:href="../../da/d97/_e_l_p_h__timers_8c.html#adcc3002449fe62895b6e89571d00ba48" target="_top" xlink:title=" ">
<polygon fill="white" stroke="#666666" points="391.88,-130.25 297.12,-130.25 297.12,-111 391.88,-111 391.88,-130.25"/>
<text xml:space="preserve" text-anchor="middle" x="344.5" y="-116.75" font-family="Helvetica,sans-Serif" font-size="10.00">ELPH_stop_clock</text>
</a>
</g>
</g>
<!-- Node2&#45;&gt;Node4 -->
<g id="edge3_Node000002_Node000004" class="edge">
<title>Node2&#45;&gt;Node4</title>
<g id="a_edge3_Node000002_Node000004"><a xlink:title=" ">
<path fill="none" stroke="#63b8ff" d="M261.16,-99.21C271.98,-102.02 283.15,-104.93 293.65,-107.66"/>
<polygon fill="#63b8ff" stroke="#63b8ff" points="292.69,-111.03 303.25,-110.16 294.45,-104.25 292.69,-111.03"/>
</a>
</g>
</g>
<!-- Node5 -->
<g id="Node000005" class="node">
<title>Node5</title>
<g id="a_Node000005"><a xlink:href="../../de/d2d/numerical__func_8c.html#a33dc7889eeb05a7ee40327581d51a3d7" target="_top" xlink:title=" ">
<polygon fill="white" stroke="#666666" points="382.5,-93.25 306.5,-93.25 306.5,-74 382.5,-74 382.5,-93.25"/>
<text xml:space="preserve" text-anchor="middle" x="344.5" y="-79.75" font-family="Helvetica,sans-Serif" font-size="10.00">get_miller_idx</text>
</a>
</g>
</g>
<!-- Node2&#45;&gt;Node5 -->
<g id="edge4_Node000002_Node000005" class="edge">
<title>Node2&#45;&gt;Node5</title>
<g id="a_edge4_Node000002_Node000005"><a xlink:title=" ">
<path fill="none" stroke="#63b8ff" d="M261.16,-83.62C272.43,-83.62 284.08,-83.62 294.94,-83.62"/>
<polygon fill="#63b8ff" stroke="#63b8ff" points="294.85,-87.13 304.85,-83.63 294.85,-80.13 294.85,-87.13"/>
</a>
</g>
</g>
<!-- Node6 -->
<g id="Node000006" class="node">
<title>Node6</title>
<g id="a_Node000006"><a xlink:href="../../dc/d50/blas_8c.html#a93d327b9e3c8bd925ff76d32df39809c" target="_top" xlink:title=" ">
<polygon fill="white" stroke="#666666" points="384.38,-56.25 304.62,-56.25 304.62,-37 384.38,-37 384.38,-56.25"/>
<text xml:space="preserve" text-anchor="middle" x="344.5" y="-42.75" font-family="Helvetica,sans-Serif" font-size="10.00">matmul_cmplx</text>
</a>
</g>
</g>
<!-- Node2&#45;&gt;Node6 -->
<g id="edge5_Node000002_Node000006" class="edge">
<title>Node2&#45;&gt;Node6</title>
<g id="a_edge5_Node000002_Node000006"><a xlink:title=" ">
<path fill="none" stroke="#63b8ff" d="M261.16,-68.04C271.98,-65.23 283.15,-62.32 293.65,-59.59"/>
<polygon fill="#63b8ff" stroke="#63b8ff" points="294.45,-63 303.25,-57.09 292.69,-56.22 294.45,-63"/>
</a>
</g>
</g>
<!-- Node8 -->
<g id="Node000008" class="node">
<title>Node8</title>
<g id="a_Node000008"><a xlink:href="../../de/d2d/numerical__func_8c.html#adeeb2c0049b8e3663d2d2cc9f7a1cd23" target="_top" xlink:title=" ">
<polygon fill="white" stroke="#666666" points="373.5,-19.25 315.5,-19.25 315.5,0 373.5,0 373.5,-19.25"/>
<text xml:space="preserve" text-anchor="middle" x="344.5" y="-5.75" font-family="Helvetica,sans-Serif" font-size="10.00">MatVec3f</text>
</a>
</g>
</g>
<!-- Node2&#45;&gt;Node8 -->
<g id="edge7_Node000002_Node000008" class="edge">
<title>Node2&#45;&gt;Node8</title>
<g id="a_edge7_Node000002_Node000008"><a xlink:title=" ">
<path fill="none" stroke="#63b8ff" d="M225.38,-67.99C244.34,-56.08 271.64,-39.72 296.75,-27.62 299.29,-26.4 301.93,-25.2 304.61,-24.04"/>
<polygon fill="#63b8ff" stroke="#63b8ff" points="305.7,-27.38 313.6,-20.32 303.02,-20.91 305.7,-27.38"/>
</a>
</g>
</g>
<!-- Node7 -->
<g id="Node000007" class="node">
<title>Node7</title>
<g id="a_Node000007"><a xlink:href="../../dc/d50/blas_8c.html#a913bafabc05e83b2aeed88da231a461f" target="_top" xlink:title=" ">
<polygon fill="white" stroke="#666666" points="506.5,-56.25 428.25,-56.25 428.25,-37 506.5,-37 506.5,-56.25"/>
<text xml:space="preserve" text-anchor="middle" x="467.38" y="-42.75" font-family="Helvetica,sans-Serif" font-size="10.00">get_gemmn_T</text>
</a>
</g>
</g>
<!-- Node6&#45;&gt;Node7 -->
<g id="edge6_Node000006_Node000007" class="edge">
<title>Node6&#45;&gt;Node7</title>
<g id="a_edge6_Node000006_Node000007"><a xlink:title=" ">
<path fill="none" stroke="#63b8ff" d="M384.74,-46.62C394.97,-46.62 406.12,-46.62 416.81,-46.62"/>
<polygon fill="#63b8ff" stroke="#63b8ff" points="416.64,-50.13 426.64,-46.63 416.64,-43.13 416.64,-50.13"/>
</a>
</g>
</g>
</g>
</svg>
