<?xml version="1.0" encoding="UTF-8" standalone="no"?>
<!DOCTYPE svg PUBLIC "-//W3C//DTD SVG 1.1//EN"
 "http://www.w3.org/Graphics/SVG/1.1/DTD/svg11.dtd">
<!-- Generated by graphviz version 14.0.0 (20250921.2048)
 -->
<!-- Title: src/main_elphC.c Pages: 1 -->
<!--zoomable 193 -->

<svg id="main" version="1.1" xmlns="http://www.w3.org/2000/svg" xmlns:xlink="http://www.w3.org/1999/xlink" xml:space="preserve" onload="init(evt)">

<style type="text/css"><![CDATA[
.node, .edge {opacity: 0.7;}
.node.selected, .edge.selected {opacity: 1;}
.edge:hover path { stroke: red; }
.edge:hover polygon { stroke: red; fill: red; }
]]></style>

<defs>
  <circle id="rim" cx="0" cy="0" r="7"/>
  <circle id="rim2" cx="0" cy="0" r="3.5"/>
  <g id="zoomPlus">
    <use xlink:href="#rim" fill="#404040"><set attributeName="fill" to="#808080" begin="zoomplus.mouseover" end="zoomplus.mouseout"/></use>
    <path d="M-4,0h8M0,-4v8" fill="none" stroke="white" stroke-width="1.5" pointer-events="none"/>
  </g>
  <g id="zoomMin">
    <use xlink:href="#rim" fill="#404040"><set attributeName="fill" to="#808080" begin="zoomminus.mouseover" end="zoomminus.mouseout"/></use>
    <path d="M-4,0h8" fill="none" stroke="white" stroke-width="1.5" pointer-events="none"/>
  </g>
  <g id="arrowUp" transform="translate(30 24)">
    <use xlink:href="#rim"/>
    <path pointer-events="none" fill="none" stroke="white" stroke-width="1.5" d="M0,-3.0v7 M-2.5,-0.5L0,-3.0L2.5,-0.5"/>
  </g>
  <g id="arrowRight" transform="rotate(90) translate(36 -43)">
    <use xlink:href="#rim"/>
    <path pointer-events="none" fill="none" stroke="white" stroke-width="1.5" d="M0,-3.0v7 M-2.5,-0.5L0,-3.0L2.5,-0.5"/>
  </g>
  <g id="arrowDown" transform="rotate(180) translate(-30 -48)">
    <use xlink:href="#rim"/>
    <path pointer-events="none" fill="none" stroke="white" stroke-width="1.5" d="M0,-3.0v7 M-2.5,-0.5L0,-3.0L2.5,-0.5"/>
  </g>
  <g id="arrowLeft" transform="rotate(270) translate(-36 17)">
    <use xlink:href="#rim"/>
    <path pointer-events="none" fill="none" stroke="white" stroke-width="1.5" d="M0,-3.0v7 M-2.5,-0.5L0,-3.0L2.5,-0.5"/>
  </g>
  <g id="resetDef">
    <use xlink:href="#rim2" fill="#404040"><set attributeName="fill" to="#808080" begin="reset.mouseover" end="reset.mouseout"/></use>
  </g>
</defs>
<script type="application/ecmascript">
var viewWidth = 540;
var viewHeight = 193;
var sectionId = 'dynsection-0';
</script>
<script type="application/ecmascript" xlink:href="../../svg.min.js"/>
<svg id="graph" class="graph">
<g id="viewport">
<title>src/main_elphC.c</title>
<!-- Node1 -->
<g id="Node000001" class="node">
<title>Node1</title>
<g id="a_Node000001"><a xlink:title="Main program entry point for LetzElPhC.">
<polygon fill="#999999" stroke="#666666" points="404.54,-185 312.04,-185 312.04,-165.75 404.54,-165.75 404.54,-185"/>
<text xml:space="preserve" text-anchor="middle" x="358.29" y="-171.5" font-family="Helvetica,sans-Serif" font-size="10.00">src/main_elphC.c</text>
</a>
</g>
</g>
<!-- Node2 -->
<g id="Node000002" class="node">
<title>Node2</title>
<g id="a_Node000002"><a xlink:href="../../d4/d0a/elph_c_8h.html" target="_top" xlink:title="Core type definitions and configuration for LetzElPhC.">
<polygon fill="white" stroke="#666666" points="141.16,-19.25 91.41,-19.25 91.41,0 141.16,0 141.16,-19.25"/>
<text xml:space="preserve" text-anchor="middle" x="116.29" y="-5.75" font-family="Helvetica,sans-Serif" font-size="10.00">elphC.h</text>
</a>
</g>
</g>
<!-- Node1&#45;&gt;Node2 -->
<g id="edge1_Node000001_Node000002" class="edge">
<title>Node1&#45;&gt;Node2</title>
<g id="a_edge1_Node000001_Node000002"><a xlink:title=" ">
<path fill="none" stroke="#63b8ff" d="M311.64,-171.79C221.16,-166.29 28.96,-152.1 9.29,-129.75 -24.33,-91.57 44.79,-47.1 86.94,-24.85"/>
<polygon fill="#63b8ff" stroke="#63b8ff" points="88.35,-28.06 95.65,-20.38 85.16,-21.83 88.35,-28.06"/>
</a>
</g>
</g>
<!-- Node3 -->
<g id="Node000003" class="node">
<title>Node3</title>
<g id="a_Node000003"><a xlink:href="../../d3/d53/preprocessor_8h.html" target="_top" xlink:title=" ">
<polygon fill="white" stroke="#666666" points="157.79,-129.75 18.79,-129.75 18.79,-110.5 157.79,-110.5 157.79,-129.75"/>
<text xml:space="preserve" text-anchor="middle" x="88.29" y="-116.25" font-family="Helvetica,sans-Serif" font-size="10.00">preprocessor/preprocessor.h</text>
</a>
</g>
</g>
<!-- Node1&#45;&gt;Node3 -->
<g id="edge2_Node000001_Node000003" class="edge">
<title>Node1&#45;&gt;Node3</title>
<g id="a_edge2_Node000001_Node000003"><a xlink:title=" ">
<path fill="none" stroke="#63b8ff" d="M312.18,-165.28C266.07,-156.19 195.05,-142.18 145.4,-132.39"/>
<polygon fill="#63b8ff" stroke="#63b8ff" points="146.18,-128.98 135.69,-130.47 144.82,-135.84 146.18,-128.98"/>
</a>
</g>
</g>
<!-- Node5 -->
<g id="Node000005" class="node">
<title>Node5</title>
<g id="a_Node000005"><a xlink:title=" ">
<polygon fill="#e0e0e0" stroke="#999999" points="329.29,-19.25 289.29,-19.25 289.29,0 329.29,0 329.29,-19.25"/>
<text xml:space="preserve" text-anchor="middle" x="309.29" y="-5.75" font-family="Helvetica,sans-Serif" font-size="10.00">mpi.h</text>
</a>
</g>
</g>
<!-- Node1&#45;&gt;Node5 -->
<g id="edge18_Node000001_Node000005" class="edge">
<title>Node1&#45;&gt;Node5</title>
<g id="a_edge18_Node000001_Node000005"><a xlink:title=" ">
<path fill="none" stroke="#63b8ff" d="M371,-165.3C385.86,-153.47 407.46,-131.78 399.29,-110.5 385.65,-75.01 352.93,-44.24 330.93,-26.56"/>
<polygon fill="#63b8ff" stroke="#63b8ff" points="333.21,-23.9 323.16,-20.53 328.91,-29.43 333.21,-23.9"/>
</a>
</g>
</g>
<!-- Node6 -->
<g id="Node000006" class="node">
<title>Node6</title>
<g id="a_Node000006"><a xlink:title=" ">
<polygon fill="#e0e0e0" stroke="#999999" points="408.16,-19.25 352.41,-19.25 352.41,0 408.16,0 408.16,-19.25"/>
<text xml:space="preserve" text-anchor="middle" x="380.29" y="-5.75" font-family="Helvetica,sans-Serif" font-size="10.00">stdbool.h</text>
</a>
</g>
</g>
<!-- Node1&#45;&gt;Node6 -->
<g id="edge19_Node000001_Node000006" class="edge">
<title>Node1&#45;&gt;Node6</title>
<g id="a_edge19_Node000001_Node000006"><a xlink:title=" ">
<path fill="none" stroke="#63b8ff" d="M386.33,-165.4C402.89,-158.49 422.48,-147.12 432.29,-129.75 448.57,-100.92 446.11,-85.34 432.29,-55.25 426.83,-43.37 416.48,-33.47 406.44,-26.03"/>
<polygon fill="#63b8ff" stroke="#63b8ff" points="408.57,-23.25 398.33,-20.53 404.63,-29.04 408.57,-23.25"/>
</a>
</g>
</g>
<!-- Node8 -->
<g id="Node000008" class="node">
<title>Node8</title>
<g id="a_Node000008"><a xlink:href="../../d3/d08/interpolation_8h.html" target="_top" xlink:title=" ">
<polygon fill="white" stroke="#666666" points="308.41,-129.75 176.16,-129.75 176.16,-110.5 308.41,-110.5 308.41,-129.75"/>
<text xml:space="preserve" text-anchor="middle" x="242.29" y="-116.25" font-family="Helvetica,sans-Serif" font-size="10.00">interpolation/interpolation.h</text>
</a>
</g>
</g>
<!-- Node1&#45;&gt;Node8 -->
<g id="edge9_Node000001_Node000008" class="edge">
<title>Node1&#45;&gt;Node8</title>
<g id="a_edge9_Node000001_Node000008"><a xlink:title=" ">
<path fill="none" stroke="#63b8ff" d="M338.61,-165.34C320.44,-157 293.2,-144.5 272.32,-134.91"/>
<polygon fill="#63b8ff" stroke="#63b8ff" points="273.99,-131.83 263.44,-130.83 271.07,-138.19 273.99,-131.83"/>
</a>
</g>
</g>
<!-- Node9 -->
<g id="Node000009" class="node">
<title>Node9</title>
<g id="a_Node000009"><a xlink:href="../../dc/d69/elph_8h.html" target="_top" xlink:title=" ">
<polygon fill="white" stroke="#666666" points="389.91,-129.75 326.66,-129.75 326.66,-110.5 389.91,-110.5 389.91,-129.75"/>
<text xml:space="preserve" text-anchor="middle" x="358.29" y="-116.25" font-family="Helvetica,sans-Serif" font-size="10.00">elph/elph.h</text>
</a>
</g>
</g>
<!-- Node1&#45;&gt;Node9 -->
<g id="edge13_Node000001_Node000009" class="edge">
<title>Node1&#45;&gt;Node9</title>
<g id="a_edge13_Node000001_Node000009"><a xlink:title=" ">
<path fill="none" stroke="#63b8ff" d="M358.29,-165.58C358.29,-159.07 358.29,-149.92 358.29,-141.62"/>
<polygon fill="#63b8ff" stroke="#63b8ff" points="361.79,-141.62 358.29,-131.62 354.79,-141.62 361.79,-141.62"/>
</a>
</g>
</g>
<!-- Node10 -->
<g id="Node000010" class="node">
<title>Node10</title>
<g id="a_Node000010"><a xlink:title=" ">
<polygon fill="#e0e0e0" stroke="#999999" points="532.04,-129.75 484.54,-129.75 484.54,-110.5 532.04,-110.5 532.04,-129.75"/>
<text xml:space="preserve" text-anchor="middle" x="508.29" y="-116.25" font-family="Helvetica,sans-Serif" font-size="10.00">stdlib.h</text>
</a>
</g>
</g>
<!-- Node1&#45;&gt;Node10 -->
<g id="edge20_Node000001_Node000010" class="edge">
<title>Node1&#45;&gt;Node10</title>
<g id="a_edge20_Node000001_Node000010"><a xlink:title=" ">
<path fill="none" stroke="#63b8ff" d="M383.73,-165.34C408.42,-156.58 446.06,-143.21 473.51,-133.47"/>
<polygon fill="#63b8ff" stroke="#63b8ff" points="474.53,-136.82 482.78,-130.18 472.19,-130.23 474.53,-136.82"/>
</a>
</g>
</g>
<!-- Node3&#45;&gt;Node2 -->
<g id="edge8_Node000003_Node000002" class="edge">
<title>Node3&#45;&gt;Node2</title>
<g id="a_edge8_Node000003_Node000002"><a xlink:title=" ">
<path fill="none" stroke="#63b8ff" d="M89.95,-110.39C92.35,-98.03 97.09,-74.78 102.29,-55.25 104.48,-47.01 107.23,-38.02 109.71,-30.29"/>
<polygon fill="#63b8ff" stroke="#63b8ff" points="113,-31.48 112.79,-20.89 106.35,-29.3 113,-31.48"/>
</a>
</g>
</g>
<!-- Node4 -->
<g id="Node000004" class="node">
<title>Node4</title>
<g id="a_Node000004"><a xlink:href="../../d2/d02/dtypes_8h.html" target="_top" xlink:title=" ">
<polygon fill="white" stroke="#666666" points="276.29,-74.5 182.29,-74.5 182.29,-55.25 276.29,-55.25 276.29,-74.5"/>
<text xml:space="preserve" text-anchor="middle" x="229.29" y="-61" font-family="Helvetica,sans-Serif" font-size="10.00">common/dtypes.h</text>
</a>
</g>
</g>
<!-- Node3&#45;&gt;Node4 -->
<g id="edge3_Node000003_Node000004" class="edge">
<title>Node3&#45;&gt;Node4</title>
<g id="a_edge3_Node000003_Node000004"><a xlink:title=" ">
<path fill="none" stroke="#63b8ff" d="M112.21,-110.09C134.79,-101.56 168.92,-88.67 194.52,-79.01"/>
<polygon fill="#63b8ff" stroke="#63b8ff" points="195.72,-82.29 203.84,-75.49 193.24,-75.75 195.72,-82.29"/>
</a>
</g>
</g>
<!-- Node4&#45;&gt;Node2 -->
<g id="edge6_Node000004_Node000002" class="edge">
<title>Node4&#45;&gt;Node2</title>
<g id="a_edge6_Node000004_Node000002"><a xlink:title=" ">
<path fill="none" stroke="#63b8ff" d="M210.12,-54.84C192.5,-46.54 166.13,-34.11 145.82,-24.54"/>
<polygon fill="#63b8ff" stroke="#63b8ff" points="147.46,-21.44 136.92,-20.35 144.47,-27.78 147.46,-21.44"/>
</a>
</g>
</g>
<!-- Node4&#45;&gt;Node5 -->
<g id="edge4_Node000004_Node000005" class="edge">
<title>Node4&#45;&gt;Node5</title>
<g id="a_edge4_Node000004_Node000005"><a xlink:title=" ">
<path fill="none" stroke="#63b8ff" d="M242.86,-54.84C254.7,-46.96 272.12,-35.36 286.16,-26.02"/>
<polygon fill="#63b8ff" stroke="#63b8ff" points="288,-29 294.39,-20.54 284.13,-23.17 288,-29"/>
</a>
</g>
</g>
<!-- Node4&#45;&gt;Node6 -->
<g id="edge5_Node000004_Node000006" class="edge">
<title>Node4&#45;&gt;Node6</title>
<g id="a_edge5_Node000004_Node000006"><a xlink:title=" ">
<path fill="none" stroke="#63b8ff" d="M254.9,-54.84C279.31,-46.24 316.3,-33.19 343.78,-23.5"/>
<polygon fill="#63b8ff" stroke="#63b8ff" points="344.85,-26.83 353.12,-20.21 342.52,-20.23 344.85,-26.83"/>
</a>
</g>
</g>
<!-- Node7 -->
<g id="Node000007" class="node">
<title>Node7</title>
<g id="a_Node000007"><a xlink:href="../../da/d41/error_8h.html" target="_top" xlink:title=" ">
<polygon fill="white" stroke="#666666" points="250.79,-19.25 207.79,-19.25 207.79,0 250.79,0 250.79,-19.25"/>
<text xml:space="preserve" text-anchor="middle" x="229.29" y="-5.75" font-family="Helvetica,sans-Serif" font-size="10.00">error.h</text>
</a>
</g>
</g>
<!-- Node4&#45;&gt;Node7 -->
<g id="edge7_Node000004_Node000007" class="edge">
<title>Node4&#45;&gt;Node7</title>
<g id="a_edge7_Node000004_Node000007"><a xlink:title=" ">
<path fill="none" stroke="#63b8ff" d="M229.29,-55.08C229.29,-48.57 229.29,-39.42 229.29,-31.12"/>
<polygon fill="#63b8ff" stroke="#63b8ff" points="232.79,-31.12 229.29,-21.12 225.79,-31.12 232.79,-31.12"/>
</a>
</g>
</g>
<!-- Node8&#45;&gt;Node2 -->
<g id="edge12_Node000008_Node000002" class="edge">
<title>Node8&#45;&gt;Node2</title>
<g id="a_edge12_Node000008_Node000002"><a xlink:title=" ">
<path fill="none" stroke="#63b8ff" d="M203.31,-110.04C182.22,-103.35 157.11,-92.24 140.29,-74.5 128.93,-62.52 122.82,-44.66 119.62,-30.87"/>
<polygon fill="#63b8ff" stroke="#63b8ff" points="123.07,-30.26 117.72,-21.12 116.2,-31.6 123.07,-30.26"/>
</a>
</g>
</g>
<!-- Node8&#45;&gt;Node4 -->
<g id="edge11_Node000008_Node000004" class="edge">
<title>Node8&#45;&gt;Node4</title>
<g id="a_edge11_Node000008_Node000004"><a xlink:title=" ">
<path fill="none" stroke="#63b8ff" d="M240.14,-110.33C238.51,-103.67 236.21,-94.24 234.15,-85.78"/>
<polygon fill="#63b8ff" stroke="#63b8ff" points="237.61,-85.21 231.84,-76.33 230.81,-86.87 237.61,-85.21"/>
</a>
</g>
</g>
<!-- Node8&#45;&gt;Node5 -->
<g id="edge10_Node000008_Node000005" class="edge">
<title>Node8&#45;&gt;Node5</title>
<g id="a_edge10_Node000008_Node000005"><a xlink:title=" ">
<path fill="none" stroke="#63b8ff" d="M253.11,-110.19C262.68,-101.81 276.44,-88.51 285.29,-74.5 293.91,-60.84 300.16,-43.6 304.12,-30.47"/>
<polygon fill="#63b8ff" stroke="#63b8ff" points="307.48,-31.43 306.8,-20.86 300.74,-29.55 307.48,-31.43"/>
</a>
</g>
</g>
<!-- Node9&#45;&gt;Node2 -->
<g id="edge17_Node000009_Node000002" class="edge">
<title>Node9&#45;&gt;Node2</title>
<g id="a_edge17_Node000009_Node000002"><a xlink:title=" ">
<path fill="none" stroke="#63b8ff" d="M326.25,-111.92C275.06,-100.33 179.9,-78.46 173.29,-74.5 154.41,-63.2 138.3,-43.6 128.07,-29.09"/>
<polygon fill="#63b8ff" stroke="#63b8ff" points="131.03,-27.22 122.55,-20.86 125.22,-31.12 131.03,-27.22"/>
</a>
</g>
</g>
<!-- Node9&#45;&gt;Node4 -->
<g id="edge16_Node000009_Node000004" class="edge">
<title>Node9&#45;&gt;Node4</title>
<g id="a_edge16_Node000009_Node000004"><a xlink:title=" ">
<path fill="none" stroke="#63b8ff" d="M336.4,-110.09C315.93,-101.64 285.07,-88.9 261.73,-79.27"/>
<polygon fill="#63b8ff" stroke="#63b8ff" points="263.26,-76.11 252.68,-75.53 260.58,-82.58 263.26,-76.11"/>
</a>
</g>
</g>
<!-- Node9&#45;&gt;Node5 -->
<g id="edge14_Node000009_Node000005" class="edge">
<title>Node9&#45;&gt;Node5</title>
<g id="a_edge14_Node000009_Node000005"><a xlink:title=" ">
<path fill="none" stroke="#63b8ff" d="M354.28,-110.25C346.38,-92.76 328.66,-53.52 317.96,-29.84"/>
<polygon fill="#63b8ff" stroke="#63b8ff" points="321.28,-28.68 313.98,-21.01 314.9,-31.56 321.28,-28.68"/>
</a>
</g>
</g>
<!-- Node9&#45;&gt;Node6 -->
<g id="edge15_Node000009_Node000006" class="edge">
<title>Node9&#45;&gt;Node6</title>
<g id="a_edge15_Node000009_Node000006"><a xlink:title=" ">
<path fill="none" stroke="#63b8ff" d="M360.09,-110.25C363.58,-93 371.37,-54.58 376.19,-30.81"/>
<polygon fill="#63b8ff" stroke="#63b8ff" points="379.6,-31.61 378.16,-21.11 372.74,-30.22 379.6,-31.61"/>
</a>
</g>
</g>
</g>
</svg>

<g id="navigator" transform="translate(0 0)" fill="#404254">
  <rect fill="#f2f5e9" fill-opacity="0.5" stroke="#606060" stroke-width=".5" x="0" y="0" width="60" height="60"/>
  <use id="zoomplus" xlink:href="#zoomPlus" x="17" y="9" onmousedown="handleZoom(evt,'in')"/>
  <use id="zoomminus" xlink:href="#zoomMin" x="42" y="9" onmousedown="handleZoom(evt,'out')"/>
  <use id="reset" xlink:href="#resetDef" x="30" y="36" onmousedown="handleReset()"/>
   <use id="arrowup" xlink:href="#arrowUp" x="0" y="0" onmousedown="handlePan(0,-1)"/>
  <use id="arrowright" xlink:href="#arrowRight" x="0" y="0" onmousedown="handlePan(1,0)"/>
  <use id="arrowdown" xlink:href="#arrowDown" x="0" y="0" onmousedown="handlePan(0,1)"/>
  <use id="arrowleft" xlink:href="#arrowLeft" x="0" y="0" onmousedown="handlePan(-1,0)"/>
</g>
<svg viewBox="0 0 15 15" width="100%" height="30px" preserveAspectRatio="xMaxYMin meet">
 <g id="arrow_out" transform="scale(0.3 0.3)">
  <a xlink:href="main__elph_c_8c__incl_org.svg" target="_base">
   <rect id="button" ry="5" rx="5" y="6" x="6" height="38" width="38"
        fill="#f2f5e9" fill-opacity="0.5" stroke="#606060" stroke-width="1.0"/>
   <path id="arrow"
     d="M 11.500037,31.436501 C 11.940474,20.09759 22.043105,11.32322 32.158766,21.979434 L 37.068811,17.246167 C 37.068811,17.246167 37.088388,32 37.088388,32 L 22.160133,31.978069 C 22.160133,31.978069 26.997745,27.140456 26.997745,27.140456 C 18.528582,18.264221 13.291696,25.230495 11.500037,31.436501 z"
     style="fill:#404040;"/>
  </a>
 </g>
</svg>

<style type='text/css'>
<![CDATA[
[data-mouse-over-selected='false'] { opacity: 0.7; }
[data-mouse-over-selected='true']  { opacity: 1.0; }
]]>
</style>
<script type="application/ecmascript"><![CDATA[
document.addEventListener('DOMContentLoaded', (event) => {
  highlightEdges();
  highlightAdjacentNodes();
});
]]></script>
</svg>
