<?xml version="1.0" encoding="UTF-8" standalone="no"?>
<!DOCTYPE svg PUBLIC "-//W3C//DTD SVG 1.1//EN"
 "http://www.w3.org/Graphics/SVG/1.1/DTD/svg11.dtd">
<!-- Generated by graphviz version 14.0.0 (20250921.2048)
 -->
<!-- Title: src/io/input_parser.c Pages: 1 -->
<svg width="670pt" height="193pt"
 viewBox="0.00 0.00 670.00 193.00" xmlns="http://www.w3.org/2000/svg" xmlns:xlink="http://www.w3.org/1999/xlink">
<g id="graph0" class="graph" transform="scale(1 1) rotate(0) translate(4 189)">
<title>src/io/input_parser.c</title>
<!-- Node1 -->
<g id="Node000001" class="node">
<title>Node1</title>
<g id="a_Node000001"><a xlink:title=" ">
<polygon fill="#999999" stroke="#666666" points="273.38,-185 169.62,-185 169.62,-165.75 273.38,-165.75 273.38,-185"/>
<text xml:space="preserve" text-anchor="middle" x="221.5" y="-171.5" font-family="Helvetica,sans-Serif" font-size="10.00">src/io/input_parser.c</text>
</a>
</g>
</g>
<!-- Node2 -->
<g id="Node000002" class="node">
<title>Node2</title>
<g id="a_Node000002"><a xlink:title=" ">
<polygon fill="#e0e0e0" stroke="#999999" points="145.5,-19.25 105.5,-19.25 105.5,0 145.5,0 145.5,-19.25"/>
<text xml:space="preserve" text-anchor="middle" x="125.5" y="-5.75" font-family="Helvetica,sans-Serif" font-size="10.00">mpi.h</text>
</a>
</g>
</g>
<!-- Node1&#45;&gt;Node2 -->
<g id="edge1_Node000001_Node000002" class="edge">
<title>Node1&#45;&gt;Node2</title>
<g id="a_edge1_Node000001_Node000002"><a xlink:title=" ">
<path fill="none" stroke="#63b8ff" d="M169.5,-169.2C119.85,-163.05 50.19,-150.87 33.5,-129.75 4.03,-92.46 62.88,-48.02 99.43,-25.42"/>
<polygon fill="#63b8ff" stroke="#63b8ff" points="100.98,-28.57 107.75,-20.42 97.38,-22.57 100.98,-28.57"/>
</a>
</g>
</g>
<!-- Node3 -->
<g id="Node000003" class="node">
<title>Node3</title>
<g id="a_Node000003"><a xlink:title=" ">
<polygon fill="#e0e0e0" stroke="#999999" points="303.38,-19.25 247.62,-19.25 247.62,0 303.38,0 303.38,-19.25"/>
<text xml:space="preserve" text-anchor="middle" x="275.5" y="-5.75" font-family="Helvetica,sans-Serif" font-size="10.00">stdbool.h</text>
</a>
</g>
</g>
<!-- Node1&#45;&gt;Node3 -->
<g id="edge2_Node000001_Node000003" class="edge">
<title>Node1&#45;&gt;Node3</title>
<g id="a_edge2_Node000001_Node000003"><a xlink:title=" ">
<path fill="none" stroke="#63b8ff" d="M226.59,-165.38C231.44,-156.53 238.69,-142.52 243.5,-129.75 256.3,-95.78 266.18,-54.56 271.39,-30.59"/>
<polygon fill="#63b8ff" stroke="#63b8ff" points="274.79,-31.47 273.43,-20.96 267.94,-30.02 274.79,-31.47"/>
</a>
</g>
</g>
<!-- Node4 -->
<g id="Node000004" class="node">
<title>Node4</title>
<g id="a_Node000004"><a xlink:title=" ">
<polygon fill="#e0e0e0" stroke="#999999" points="88.12,-129.75 42.88,-129.75 42.88,-110.5 88.12,-110.5 88.12,-129.75"/>
<text xml:space="preserve" text-anchor="middle" x="65.5" y="-116.25" font-family="Helvetica,sans-Serif" font-size="10.00">stdio.h</text>
</a>
</g>
</g>
<!-- Node1&#45;&gt;Node4 -->
<g id="edge3_Node000001_Node000004" class="edge">
<title>Node1&#45;&gt;Node4</title>
<g id="a_edge3_Node000001_Node000004"><a xlink:title=" ">
<path fill="none" stroke="#63b8ff" d="M195.04,-165.34C168.64,-156.33 127.98,-142.45 99.27,-132.65"/>
<polygon fill="#63b8ff" stroke="#63b8ff" points="100.56,-129.39 89.96,-129.47 98.29,-136.02 100.56,-129.39"/>
</a>
</g>
</g>
<!-- Node5 -->
<g id="Node000005" class="node">
<title>Node5</title>
<g id="a_Node000005"><a xlink:title=" ">
<polygon fill="#e0e0e0" stroke="#999999" points="153.25,-129.75 105.75,-129.75 105.75,-110.5 153.25,-110.5 153.25,-129.75"/>
<text xml:space="preserve" text-anchor="middle" x="129.5" y="-116.25" font-family="Helvetica,sans-Serif" font-size="10.00">stdlib.h</text>
</a>
</g>
</g>
<!-- Node1&#45;&gt;Node5 -->
<g id="edge4_Node000001_Node000005" class="edge">
<title>Node1&#45;&gt;Node5</title>
<g id="a_edge4_Node000001_Node000005"><a xlink:title=" ">
<path fill="none" stroke="#63b8ff" d="M205.89,-165.34C191.88,-157.23 171.07,-145.18 154.7,-135.71"/>
<polygon fill="#63b8ff" stroke="#63b8ff" points="156.9,-132.94 146.49,-130.96 153.39,-139 156.9,-132.94"/>
</a>
</g>
</g>
<!-- Node6 -->
<g id="Node000006" class="node">
<title>Node6</title>
<g id="a_Node000006"><a xlink:title=" ">
<polygon fill="#e0e0e0" stroke="#999999" points="219.62,-129.75 171.38,-129.75 171.38,-110.5 219.62,-110.5 219.62,-129.75"/>
<text xml:space="preserve" text-anchor="middle" x="195.5" y="-116.25" font-family="Helvetica,sans-Serif" font-size="10.00">string.h</text>
</a>
</g>
</g>
<!-- Node1&#45;&gt;Node6 -->
<g id="edge5_Node000001_Node000006" class="edge">
<title>Node1&#45;&gt;Node6</title>
<g id="a_edge5_Node000001_Node000006"><a xlink:title=" ">
<path fill="none" stroke="#63b8ff" d="M217.21,-165.58C213.88,-158.76 209.14,-149.06 204.94,-140.45"/>
<polygon fill="#63b8ff" stroke="#63b8ff" points="208.08,-138.92 200.55,-131.47 201.79,-141.99 208.08,-138.92"/>
</a>
</g>
</g>
<!-- Node7 -->
<g id="Node000007" class="node">
<title>Node7</title>
<g id="a_Node000007"><a xlink:href="../../d2/d02/dtypes_8h.html" target="_top" xlink:title=" ">
<polygon fill="white" stroke="#666666" points="247.5,-74.5 153.5,-74.5 153.5,-55.25 247.5,-55.25 247.5,-74.5"/>
<text xml:space="preserve" text-anchor="middle" x="200.5" y="-61" font-family="Helvetica,sans-Serif" font-size="10.00">common/dtypes.h</text>
</a>
</g>
</g>
<!-- Node1&#45;&gt;Node7 -->
<g id="edge6_Node000001_Node000007" class="edge">
<title>Node1&#45;&gt;Node7</title>
<g id="a_edge6_Node000001_Node000007"><a xlink:title=" ">
<path fill="none" stroke="#63b8ff" d="M224.58,-165.51C228.46,-153.01 233.99,-129.58 228.5,-110.5 225.76,-100.97 220.31,-91.5 214.95,-83.76"/>
<polygon fill="#63b8ff" stroke="#63b8ff" points="217.87,-81.83 209.08,-75.92 212.27,-86.02 217.87,-81.83"/>
</a>
</g>
</g>
<!-- Node9 -->
<g id="Node000009" class="node">
<title>Node9</title>
<g id="a_Node000009"><a xlink:href="../../da/d41/error_8h.html" target="_top" xlink:title=" ">
<polygon fill="white" stroke="#666666" points="43,-19.25 0,-19.25 0,0 43,0 43,-19.25"/>
<text xml:space="preserve" text-anchor="middle" x="21.5" y="-5.75" font-family="Helvetica,sans-Serif" font-size="10.00">error.h</text>
</a>
</g>
</g>
<!-- Node1&#45;&gt;Node9 -->
<g id="edge11_Node000001_Node000009" class="edge">
<title>Node1&#45;&gt;Node9</title>
<g id="a_edge11_Node000001_Node000009"><a xlink:title=" ">
<path fill="none" stroke="#63b8ff" d="M169.16,-170C116.22,-164.35 39.69,-152.44 21.5,-129.75 -1.17,-101.47 7.2,-56.08 14.73,-30.27"/>
<polygon fill="#63b8ff" stroke="#63b8ff" points="17.97,-31.65 17.66,-21.06 11.3,-29.53 17.97,-31.65"/>
</a>
</g>
</g>
<!-- Node10 -->
<g id="Node000010" class="node">
<title>Node10</title>
<g id="a_Node000010"><a xlink:href="../../d3/d10/string__func_8h.html" target="_top" xlink:title=" ">
<polygon fill="white" stroke="#666666" points="580.88,-129.75 468.12,-129.75 468.12,-110.5 580.88,-110.5 580.88,-129.75"/>
<text xml:space="preserve" text-anchor="middle" x="524.5" y="-116.25" font-family="Helvetica,sans-Serif" font-size="10.00">common/string_func.h</text>
</a>
</g>
</g>
<!-- Node1&#45;&gt;Node10 -->
<g id="edge12_Node000001_Node000010" class="edge">
<title>Node1&#45;&gt;Node10</title>
<g id="a_edge12_Node000001_Node000010"><a xlink:title=" ">
<path fill="none" stroke="#63b8ff" d="M273.24,-165.28C325.35,-156.12 405.79,-141.99 461.56,-132.19"/>
<polygon fill="#63b8ff" stroke="#63b8ff" points="461.98,-135.67 471.23,-130.49 460.77,-128.77 461.98,-135.67"/>
</a>
</g>
</g>
<!-- Node12 -->
<g id="Node000012" class="node">
<title>Node12</title>
<g id="a_Node000012"><a xlink:href="../../dc/dac/io_8h.html" target="_top" xlink:title=" ">
<polygon fill="white" stroke="#666666" points="354.38,-129.75 322.62,-129.75 322.62,-110.5 354.38,-110.5 354.38,-129.75"/>
<text xml:space="preserve" text-anchor="middle" x="338.5" y="-116.25" font-family="Helvetica,sans-Serif" font-size="10.00">io.h</text>
</a>
</g>
</g>
<!-- Node1&#45;&gt;Node12 -->
<g id="edge16_Node000001_Node000012" class="edge">
<title>Node1&#45;&gt;Node12</title>
<g id="a_edge16_Node000001_Node000012"><a xlink:title=" ">
<path fill="none" stroke="#63b8ff" d="M241.35,-165.34C260.78,-156.5 290.51,-142.97 311.96,-133.2"/>
<polygon fill="#63b8ff" stroke="#63b8ff" points="313.3,-136.44 320.95,-129.11 310.4,-130.07 313.3,-136.44"/>
</a>
</g>
</g>
<!-- Node15 -->
<g id="Node000015" class="node">
<title>Node15</title>
<g id="a_Node000015"><a xlink:title=" ">
<polygon fill="#e0e0e0" stroke="#999999" points="661.75,-129.75 599.25,-129.75 599.25,-110.5 661.75,-110.5 661.75,-129.75"/>
<text xml:space="preserve" text-anchor="middle" x="630.5" y="-116.25" font-family="Helvetica,sans-Serif" font-size="10.00">io/inih/ini.h</text>
</a>
</g>
</g>
<!-- Node1&#45;&gt;Node15 -->
<g id="edge23_Node000001_Node000015" class="edge">
<title>Node1&#45;&gt;Node15</title>
<g id="a_edge23_Node000001_Node000015"><a xlink:title=" ">
<path fill="none" stroke="#63b8ff" d="M273.81,-169.47C343.18,-162.65 469.64,-149.12 587.73,-129.9"/>
<polygon fill="#63b8ff" stroke="#63b8ff" points="587.98,-133.41 597.27,-128.33 586.84,-126.5 587.98,-133.41"/>
</a>
</g>
</g>
<!-- Node7&#45;&gt;Node2 -->
<g id="edge7_Node000007_Node000002" class="edge">
<title>Node7&#45;&gt;Node2</title>
<g id="a_edge7_Node000007_Node000002"><a xlink:title=" ">
<path fill="none" stroke="#63b8ff" d="M187.78,-54.84C176.79,-47.04 160.66,-35.59 147.57,-26.29"/>
<polygon fill="#63b8ff" stroke="#63b8ff" points="149.7,-23.51 139.52,-20.58 145.65,-29.22 149.7,-23.51"/>
</a>
</g>
</g>
<!-- Node7&#45;&gt;Node3 -->
<g id="edge8_Node000007_Node000003" class="edge">
<title>Node7&#45;&gt;Node3</title>
<g id="a_edge8_Node000007_Node000003"><a xlink:title=" ">
<path fill="none" stroke="#63b8ff" d="M213.22,-54.84C224.21,-47.04 240.34,-35.59 253.43,-26.29"/>
<polygon fill="#63b8ff" stroke="#63b8ff" points="255.35,-29.22 261.48,-20.58 251.3,-23.51 255.35,-29.22"/>
</a>
</g>
</g>
<!-- Node8 -->
<g id="Node000008" class="node">
<title>Node8</title>
<g id="a_Node000008"><a xlink:href="../../d4/d0a/elph_c_8h.html" target="_top" xlink:title="Core type definitions and configuration for LetzElPhC.">
<polygon fill="white" stroke="#666666" points="495.38,-19.25 445.62,-19.25 445.62,0 495.38,0 495.38,-19.25"/>
<text xml:space="preserve" text-anchor="middle" x="470.5" y="-5.75" font-family="Helvetica,sans-Serif" font-size="10.00">elphC.h</text>
</a>
</g>
</g>
<!-- Node7&#45;&gt;Node8 -->
<g id="edge9_Node000007_Node000008" class="edge">
<title>Node7&#45;&gt;Node8</title>
<g id="a_edge9_Node000007_Node000008"><a xlink:title=" ">
<path fill="none" stroke="#63b8ff" d="M246.61,-54.78C299.62,-44.33 385.56,-27.38 434.1,-17.8"/>
<polygon fill="#63b8ff" stroke="#63b8ff" points="434.68,-21.26 443.81,-15.89 433.33,-14.39 434.68,-21.26"/>
</a>
</g>
</g>
<!-- Node7&#45;&gt;Node9 -->
<g id="edge10_Node000007_Node000009" class="edge">
<title>Node7&#45;&gt;Node9</title>
<g id="a_edge10_Node000007_Node000009"><a xlink:title=" ">
<path fill="none" stroke="#63b8ff" d="M170.14,-54.84C137.92,-45.26 87.22,-30.18 54.16,-20.34"/>
<polygon fill="#63b8ff" stroke="#63b8ff" points="55.3,-17.03 44.71,-17.53 53.3,-23.74 55.3,-17.03"/>
</a>
</g>
</g>
<!-- Node10&#45;&gt;Node3 -->
<g id="edge13_Node000010_Node000003" class="edge">
<title>Node10&#45;&gt;Node3</title>
<g id="a_edge13_Node000010_Node000003"><a xlink:title=" ">
<path fill="none" stroke="#63b8ff" d="M535.83,-110.15C550.98,-97.1 574.29,-72.55 559.5,-55.25 543.8,-36.89 389.36,-20.77 315.05,-14.01"/>
<polygon fill="#63b8ff" stroke="#63b8ff" points="315.63,-10.55 305.35,-13.14 315,-17.52 315.63,-10.55"/>
</a>
</g>
</g>
<!-- Node10&#45;&gt;Node8 -->
<g id="edge15_Node000010_Node000008" class="edge">
<title>Node10&#45;&gt;Node8</title>
<g id="a_edge15_Node000010_Node000008"><a xlink:title=" ">
<path fill="none" stroke="#63b8ff" d="M547.26,-110.18C572.7,-98.82 608.37,-77.95 592.5,-55.25 573.31,-27.79 535.32,-17.18 506.8,-13.1"/>
<polygon fill="#63b8ff" stroke="#63b8ff" points="507.48,-9.66 497.13,-11.94 506.64,-16.61 507.48,-9.66"/>
</a>
</g>
</g>
<!-- Node11 -->
<g id="Node000011" class="node">
<title>Node11</title>
<g id="a_Node000011"><a xlink:title=" ">
<polygon fill="#e0e0e0" stroke="#999999" points="550.12,-74.5 498.88,-74.5 498.88,-55.25 550.12,-55.25 550.12,-74.5"/>
<text xml:space="preserve" text-anchor="middle" x="524.5" y="-61" font-family="Helvetica,sans-Serif" font-size="10.00">stddef.h</text>
</a>
</g>
</g>
<!-- Node10&#45;&gt;Node11 -->
<g id="edge14_Node000010_Node000011" class="edge">
<title>Node10&#45;&gt;Node11</title>
<g id="a_edge14_Node000010_Node000011"><a xlink:title=" ">
<path fill="none" stroke="#63b8ff" d="M524.5,-110.33C524.5,-103.82 524.5,-94.67 524.5,-86.37"/>
<polygon fill="#63b8ff" stroke="#63b8ff" points="528,-86.37 524.5,-76.37 521,-86.37 528,-86.37"/>
</a>
</g>
</g>
<!-- Node12&#45;&gt;Node2 -->
<g id="edge17_Node000012_Node000002" class="edge">
<title>Node12&#45;&gt;Node2</title>
<g id="a_edge17_Node000012_Node000002"><a xlink:title=" ">
<path fill="none" stroke="#63b8ff" d="M322.16,-117.47C280.26,-112.91 170.45,-98.87 144.5,-74.5 132.5,-63.23 127.97,-44.75 126.31,-30.56"/>
<polygon fill="#63b8ff" stroke="#63b8ff" points="129.83,-30.7 125.59,-20.99 122.85,-31.23 129.83,-30.7"/>
</a>
</g>
</g>
<!-- Node12&#45;&gt;Node7 -->
<g id="edge21_Node000012_Node000007" class="edge">
<title>Node12&#45;&gt;Node7</title>
<g id="a_edge21_Node000012_Node000007"><a xlink:title=" ">
<path fill="none" stroke="#63b8ff" d="M322.13,-112.81C300.57,-104.49 262.14,-89.66 234.24,-78.89"/>
<polygon fill="#63b8ff" stroke="#63b8ff" points="235.75,-75.72 225.16,-75.39 233.23,-82.26 235.75,-75.72"/>
</a>
</g>
</g>
<!-- Node12&#45;&gt;Node8 -->
<g id="edge22_Node000012_Node000008" class="edge">
<title>Node12&#45;&gt;Node8</title>
<g id="a_edge22_Node000012_Node000008"><a xlink:title=" ">
<path fill="none" stroke="#63b8ff" d="M354.87,-117.19C379.39,-113.42 425.56,-102.8 451.5,-74.5 462.39,-62.62 467.06,-44.74 469.05,-30.92"/>
<polygon fill="#63b8ff" stroke="#63b8ff" points="472.51,-31.47 470.06,-21.17 465.54,-30.75 472.51,-31.47"/>
</a>
</g>
</g>
<!-- Node12&#45;&gt;Node11 -->
<g id="edge20_Node000012_Node000011" class="edge">
<title>Node12&#45;&gt;Node11</title>
<g id="a_edge20_Node000012_Node000011"><a xlink:title=" ">
<path fill="none" stroke="#63b8ff" d="M354.68,-114.49C384.11,-106.07 447.06,-88.04 487.51,-76.47"/>
<polygon fill="#63b8ff" stroke="#63b8ff" points="488.41,-79.85 497.07,-73.73 486.49,-73.12 488.41,-79.85"/>
</a>
</g>
</g>
<!-- Node13 -->
<g id="Node000013" class="node">
<title>Node13</title>
<g id="a_Node000013"><a xlink:title=" ">
<polygon fill="#e0e0e0" stroke="#999999" points="442.12,-74.5 390.88,-74.5 390.88,-55.25 442.12,-55.25 442.12,-74.5"/>
<text xml:space="preserve" text-anchor="middle" x="416.5" y="-61" font-family="Helvetica,sans-Serif" font-size="10.00">netcdf.h</text>
</a>
</g>
</g>
<!-- Node12&#45;&gt;Node13 -->
<g id="edge18_Node000012_Node000013" class="edge">
<title>Node12&#45;&gt;Node13</title>
<g id="a_edge18_Node000012_Node000013"><a xlink:title=" ">
<path fill="none" stroke="#63b8ff" d="M351.73,-110.09C363.27,-102.21 380.27,-90.61 393.95,-81.27"/>
<polygon fill="#63b8ff" stroke="#63b8ff" points="395.67,-84.33 401.95,-75.81 391.72,-78.55 395.67,-84.33"/>
</a>
</g>
</g>
<!-- Node14 -->
<g id="Node000014" class="node">
<title>Node14</title>
<g id="a_Node000014"><a xlink:title=" ">
<polygon fill="#e0e0e0" stroke="#999999" points="373.12,-74.5 303.88,-74.5 303.88,-55.25 373.12,-55.25 373.12,-74.5"/>
<text xml:space="preserve" text-anchor="middle" x="338.5" y="-61" font-family="Helvetica,sans-Serif" font-size="10.00">netcdf_par.h</text>
</a>
</g>
</g>
<!-- Node12&#45;&gt;Node14 -->
<g id="edge19_Node000012_Node000014" class="edge">
<title>Node12&#45;&gt;Node14</title>
<g id="a_edge19_Node000012_Node000014"><a xlink:title=" ">
<path fill="none" stroke="#63b8ff" d="M338.5,-110.33C338.5,-103.82 338.5,-94.67 338.5,-86.37"/>
<polygon fill="#63b8ff" stroke="#63b8ff" points="342,-86.37 338.5,-76.37 335,-86.37 342,-86.37"/>
</a>
</g>
</g>
</g>
</svg>
