<?xml version="1.0" encoding="UTF-8" standalone="no"?>
<!DOCTYPE svg PUBLIC "-//W3C//DTD SVG 1.1//EN"
 "http://www.w3.org/Graphics/SVG/1.1/DTD/svg11.dtd">
<!-- Generated by graphviz version 14.0.0 (20250921.2048)
 -->
<!-- Title: src/wfc/gsort.c Pages: 1 -->
<svg width="324pt" height="138pt"
 viewBox="0.00 0.00 324.00 138.00" xmlns="http://www.w3.org/2000/svg" xmlns:xlink="http://www.w3.org/1999/xlink">
<g id="graph0" class="graph" transform="scale(1 1) rotate(0) translate(4 133.75)">
<title>src/wfc/gsort.c</title>
<!-- Node1 -->
<g id="Node000001" class="node">
<title>Node1</title>
<g id="a_Node000001"><a xlink:title=" ">
<polygon fill="#999999" stroke="#666666" points="165.62,-129.75 84.38,-129.75 84.38,-110.5 165.62,-110.5 165.62,-129.75"/>
<text xml:space="preserve" text-anchor="middle" x="125" y="-116.25" font-family="Helvetica,sans-Serif" font-size="10.00">src/wfc/gsort.c</text>
</a>
</g>
</g>
<!-- Node2 -->
<g id="Node000002" class="node">
<title>Node2</title>
<g id="a_Node000002"><a xlink:href="../../dc/d7d/gsort_8h.html" target="_top" xlink:title=" ">
<polygon fill="white" stroke="#666666" points="46,-74.5 0,-74.5 0,-55.25 46,-55.25 46,-74.5"/>
<text xml:space="preserve" text-anchor="middle" x="23" y="-61" font-family="Helvetica,sans-Serif" font-size="10.00">gsort.h</text>
</a>
</g>
</g>
<!-- Node1&#45;&gt;Node2 -->
<g id="edge1_Node000001_Node000002" class="edge">
<title>Node1&#45;&gt;Node2</title>
<g id="a_edge1_Node000001_Node000002"><a xlink:title=" ">
<path fill="none" stroke="#63b8ff" d="M107.7,-110.09C92.02,-101.91 68.65,-89.71 50.42,-80.19"/>
<polygon fill="#63b8ff" stroke="#63b8ff" points="52.21,-77.18 41.73,-75.65 48.97,-83.38 52.21,-77.18"/>
</a>
</g>
</g>
<!-- Node3 -->
<g id="Node000003" class="node">
<title>Node3</title>
<g id="a_Node000003"><a xlink:href="../../d4/d0a/elph_c_8h.html" target="_top" xlink:title="Core type definitions and configuration for LetzElPhC.">
<polygon fill="white" stroke="#666666" points="72.88,-19.25 23.12,-19.25 23.12,0 72.88,0 72.88,-19.25"/>
<text xml:space="preserve" text-anchor="middle" x="48" y="-5.75" font-family="Helvetica,sans-Serif" font-size="10.00">elphC.h</text>
</a>
</g>
</g>
<!-- Node1&#45;&gt;Node3 -->
<g id="edge6_Node000001_Node000003" class="edge">
<title>Node1&#45;&gt;Node3</title>
<g id="a_edge6_Node000001_Node000003"><a xlink:title=" ">
<path fill="none" stroke="#63b8ff" d="M118.6,-110.25C112.13,-101.26 101.84,-86.93 93,-74.5 82.09,-59.15 69.77,-41.65 60.79,-28.86"/>
<polygon fill="#63b8ff" stroke="#63b8ff" points="63.86,-27.15 55.25,-20.98 58.13,-31.17 63.86,-27.15"/>
</a>
</g>
</g>
<!-- Node4 -->
<g id="Node000004" class="node">
<title>Node4</title>
<g id="a_Node000004"><a xlink:title=" ">
<polygon fill="#e0e0e0" stroke="#999999" points="148,-74.5 102,-74.5 102,-55.25 148,-55.25 148,-74.5"/>
<text xml:space="preserve" text-anchor="middle" x="125" y="-61" font-family="Helvetica,sans-Serif" font-size="10.00">math.h</text>
</a>
</g>
</g>
<!-- Node1&#45;&gt;Node4 -->
<g id="edge3_Node000001_Node000004" class="edge">
<title>Node1&#45;&gt;Node4</title>
<g id="a_edge3_Node000001_Node000004"><a xlink:title=" ">
<path fill="none" stroke="#63b8ff" d="M125,-110.33C125,-103.82 125,-94.67 125,-86.37"/>
<polygon fill="#63b8ff" stroke="#63b8ff" points="128.5,-86.37 125,-76.37 121.5,-86.37 128.5,-86.37"/>
</a>
</g>
</g>
<!-- Node5 -->
<g id="Node000005" class="node">
<title>Node5</title>
<g id="a_Node000005"><a xlink:title=" ">
<polygon fill="#e0e0e0" stroke="#999999" points="213.75,-74.5 166.25,-74.5 166.25,-55.25 213.75,-55.25 213.75,-74.5"/>
<text xml:space="preserve" text-anchor="middle" x="190" y="-61" font-family="Helvetica,sans-Serif" font-size="10.00">stdlib.h</text>
</a>
</g>
</g>
<!-- Node1&#45;&gt;Node5 -->
<g id="edge4_Node000001_Node000005" class="edge">
<title>Node1&#45;&gt;Node5</title>
<g id="a_edge4_Node000001_Node000005"><a xlink:title=" ">
<path fill="none" stroke="#63b8ff" d="M136.03,-110.09C145.42,-102.4 159.15,-91.15 170.41,-81.93"/>
<polygon fill="#63b8ff" stroke="#63b8ff" points="172.45,-84.78 177.97,-75.73 168.01,-79.36 172.45,-84.78"/>
</a>
</g>
</g>
<!-- Node6 -->
<g id="Node000006" class="node">
<title>Node6</title>
<g id="a_Node000006"><a xlink:href="../../da/d41/error_8h.html" target="_top" xlink:title=" ">
<polygon fill="white" stroke="#666666" points="315.75,-74.5 232.25,-74.5 232.25,-55.25 315.75,-55.25 315.75,-74.5"/>
<text xml:space="preserve" text-anchor="middle" x="274" y="-61" font-family="Helvetica,sans-Serif" font-size="10.00">common/error.h</text>
</a>
</g>
</g>
<!-- Node1&#45;&gt;Node6 -->
<g id="edge5_Node000001_Node000006" class="edge">
<title>Node1&#45;&gt;Node6</title>
<g id="a_edge5_Node000001_Node000006"><a xlink:title=" ">
<path fill="none" stroke="#63b8ff" d="M150.28,-110.09C174.36,-101.49 210.86,-88.44 237.98,-78.75"/>
<polygon fill="#63b8ff" stroke="#63b8ff" points="238.94,-82.12 247.17,-75.46 236.58,-75.53 238.94,-82.12"/>
</a>
</g>
</g>
<!-- Node2&#45;&gt;Node3 -->
<g id="edge2_Node000002_Node000003" class="edge">
<title>Node2&#45;&gt;Node3</title>
<g id="a_edge2_Node000002_Node000003"><a xlink:title=" ">
<path fill="none" stroke="#63b8ff" d="M27.13,-55.08C30.33,-48.26 34.89,-38.56 38.93,-29.95"/>
<polygon fill="#63b8ff" stroke="#63b8ff" points="42.06,-31.52 43.14,-20.98 35.72,-28.54 42.06,-31.52"/>
</a>
</g>
</g>
</g>
</svg>
