<?xml version="1.0" encoding="UTF-8" standalone="no"?>
<!DOCTYPE svg PUBLIC "-//W3C//DTD SVG 1.1//EN"
 "http://www.w3.org/Graphics/SVG/1.1/DTD/svg11.dtd">
<!-- Generated by graphviz version 14.0.0 (20250921.2048)
 -->
<!-- Title: src/dvloc/dvscf_basis_rotation.c Pages: 1 -->
<svg width="510pt" height="204pt"
 viewBox="0.00 0.00 510.00 204.00" xmlns="http://www.w3.org/2000/svg" xmlns:xlink="http://www.w3.org/1999/xlink">
<g id="graph0" class="graph" transform="scale(1 1) rotate(0) translate(4 200.25)">
<title>src/dvloc/dvscf_basis_rotation.c</title>
<!-- Node1 -->
<g id="Node000001" class="node">
<title>Node1</title>
<g id="a_Node000001"><a xlink:title=" ">
<polygon fill="#999999" stroke="#666666" points="272.38,-196.25 161.12,-196.25 161.12,-165.75 272.38,-165.75 272.38,-196.25"/>
<text xml:space="preserve" text-anchor="start" x="169.12" y="-182.75" font-family="Helvetica,sans-Serif" font-size="10.00">src/dvloc/dvscf_basis</text>
<text xml:space="preserve" text-anchor="middle" x="216.75" y="-171.5" font-family="Helvetica,sans-Serif" font-size="10.00">_rotation.c</text>
</a>
</g>
</g>
<!-- Node2 -->
<g id="Node000002" class="node">
<title>Node2</title>
<g id="a_Node000002"><a xlink:title=" ">
<polygon fill="#e0e0e0" stroke="#999999" points="47.5,-129.75 0,-129.75 0,-110.5 47.5,-110.5 47.5,-129.75"/>
<text xml:space="preserve" text-anchor="middle" x="23.75" y="-116.25" font-family="Helvetica,sans-Serif" font-size="10.00">stdlib.h</text>
</a>
</g>
</g>
<!-- Node1&#45;&gt;Node2 -->
<g id="edge1_Node000001_Node000002" class="edge">
<title>Node1&#45;&gt;Node2</title>
<g id="a_edge1_Node000001_Node000002"><a xlink:title=" ">
<path fill="none" stroke="#63b8ff" d="M168.55,-165.3C134.34,-154.86 89.22,-141.1 58.5,-131.73"/>
<polygon fill="#63b8ff" stroke="#63b8ff" points="59.92,-128.5 49.33,-128.93 57.87,-135.19 59.92,-128.5"/>
</a>
</g>
</g>
<!-- Node3 -->
<g id="Node000003" class="node">
<title>Node3</title>
<g id="a_Node000003"><a xlink:title=" ">
<polygon fill="#e0e0e0" stroke="#999999" points="113.88,-129.75 65.62,-129.75 65.62,-110.5 113.88,-110.5 113.88,-129.75"/>
<text xml:space="preserve" text-anchor="middle" x="89.75" y="-116.25" font-family="Helvetica,sans-Serif" font-size="10.00">string.h</text>
</a>
</g>
</g>
<!-- Node1&#45;&gt;Node3 -->
<g id="edge2_Node000001_Node000003" class="edge">
<title>Node1&#45;&gt;Node3</title>
<g id="a_edge2_Node000001_Node000003"><a xlink:title=" ">
<path fill="none" stroke="#63b8ff" d="M185.03,-165.3C164.95,-155.98 139.15,-144.02 119.46,-134.9"/>
<polygon fill="#63b8ff" stroke="#63b8ff" points="121.14,-131.82 110.6,-130.79 118.2,-138.17 121.14,-131.82"/>
</a>
</g>
</g>
<!-- Node4 -->
<g id="Node000004" class="node">
<title>Node4</title>
<g id="a_Node000004"><a xlink:href="../../da/d41/error_8h.html" target="_top" xlink:title=" ">
<polygon fill="white" stroke="#666666" points="183.5,-19.25 100,-19.25 100,0 183.5,0 183.5,-19.25"/>
<text xml:space="preserve" text-anchor="middle" x="141.75" y="-5.75" font-family="Helvetica,sans-Serif" font-size="10.00">common/error.h</text>
</a>
</g>
</g>
<!-- Node1&#45;&gt;Node4 -->
<g id="edge3_Node000001_Node000004" class="edge">
<title>Node1&#45;&gt;Node4</title>
<g id="a_edge3_Node000001_Node000004"><a xlink:title=" ">
<path fill="none" stroke="#63b8ff" d="M207.81,-165.43C195.86,-145.47 174.58,-108.28 160.75,-74.5 154.84,-60.06 149.88,-43.1 146.51,-30.29"/>
<polygon fill="#63b8ff" stroke="#63b8ff" points="150,-29.8 144.16,-20.96 143.21,-31.51 150,-29.8"/>
</a>
</g>
</g>
<!-- Node5 -->
<g id="Node000005" class="node">
<title>Node5</title>
<g id="a_Node000005"><a xlink:href="../../df/def/numerical__func_8h.html" target="_top" xlink:title=" ">
<polygon fill="white" stroke="#666666" points="488.12,-74.5 357.38,-74.5 357.38,-55.25 488.12,-55.25 488.12,-74.5"/>
<text xml:space="preserve" text-anchor="middle" x="422.75" y="-61" font-family="Helvetica,sans-Serif" font-size="10.00">common/numerical_func.h</text>
</a>
</g>
</g>
<!-- Node1&#45;&gt;Node5 -->
<g id="edge4_Node000001_Node000005" class="edge">
<title>Node1&#45;&gt;Node5</title>
<g id="a_edge4_Node000001_Node000005"><a xlink:title=" ">
<path fill="none" stroke="#63b8ff" d="M243.26,-165.31C282.88,-143.37 357.08,-102.26 396.53,-80.4"/>
<polygon fill="#63b8ff" stroke="#63b8ff" points="398.07,-83.55 405.13,-75.64 394.68,-77.42 398.07,-83.55"/>
</a>
</g>
</g>
<!-- Node7 -->
<g id="Node000007" class="node">
<title>Node7</title>
<g id="a_Node000007"><a xlink:href="../../d4/d0a/elph_c_8h.html" target="_top" xlink:title="Core type definitions and configuration for LetzElPhC.">
<polygon fill="white" stroke="#666666" points="417.62,-19.25 367.88,-19.25 367.88,0 417.62,0 417.62,-19.25"/>
<text xml:space="preserve" text-anchor="middle" x="392.75" y="-5.75" font-family="Helvetica,sans-Serif" font-size="10.00">elphC.h</text>
</a>
</g>
</g>
<!-- Node1&#45;&gt;Node7 -->
<g id="edge15_Node000001_Node000007" class="edge">
<title>Node1&#45;&gt;Node7</title>
<g id="a_edge15_Node000001_Node000007"><a xlink:title=" ">
<path fill="none" stroke="#63b8ff" d="M272.72,-176.93C338.89,-169.95 446.36,-147.34 496.75,-74.5 516.85,-45.44 466.64,-27.14 429.19,-17.91"/>
<polygon fill="#63b8ff" stroke="#63b8ff" points="430.07,-14.52 419.54,-15.67 428.49,-21.34 430.07,-14.52"/>
</a>
</g>
</g>
<!-- Node8 -->
<g id="Node000008" class="node">
<title>Node8</title>
<g id="a_Node000008"><a xlink:href="../../d8/dc9/dvloc_8h.html" target="_top" xlink:title=" ">
<polygon fill="white" stroke="#666666" points="278.5,-129.75 231,-129.75 231,-110.5 278.5,-110.5 278.5,-129.75"/>
<text xml:space="preserve" text-anchor="middle" x="254.75" y="-116.25" font-family="Helvetica,sans-Serif" font-size="10.00">dvloc.h</text>
</a>
</g>
</g>
<!-- Node1&#45;&gt;Node8 -->
<g id="edge7_Node000001_Node000008" class="edge">
<title>Node1&#45;&gt;Node8</title>
<g id="a_edge7_Node000001_Node000008"><a xlink:title=" ">
<path fill="none" stroke="#63b8ff" d="M226.14,-165.45C231.15,-157.69 237.36,-148.06 242.72,-139.76"/>
<polygon fill="#63b8ff" stroke="#63b8ff" points="245.59,-141.77 248.07,-131.47 239.71,-137.98 245.59,-141.77"/>
</a>
</g>
</g>
<!-- Node6 -->
<g id="Node000006" class="node">
<title>Node6</title>
<g id="a_Node000006"><a xlink:title=" ">
<polygon fill="#e0e0e0" stroke="#999999" points="319.62,-19.25 263.88,-19.25 263.88,0 319.62,0 319.62,-19.25"/>
<text xml:space="preserve" text-anchor="middle" x="291.75" y="-5.75" font-family="Helvetica,sans-Serif" font-size="10.00">stdbool.h</text>
</a>
</g>
</g>
<!-- Node5&#45;&gt;Node6 -->
<g id="edge5_Node000005_Node000006" class="edge">
<title>Node5&#45;&gt;Node6</title>
<g id="a_edge5_Node000005_Node000006"><a xlink:title=" ">
<path fill="none" stroke="#63b8ff" d="M400.53,-54.84C379.73,-46.39 348.4,-33.65 324.7,-24.02"/>
<polygon fill="#63b8ff" stroke="#63b8ff" points="326.07,-20.8 315.48,-20.27 323.43,-27.28 326.07,-20.8"/>
</a>
</g>
</g>
<!-- Node5&#45;&gt;Node7 -->
<g id="edge6_Node000005_Node000007" class="edge">
<title>Node5&#45;&gt;Node7</title>
<g id="a_edge6_Node000005_Node000007"><a xlink:title=" ">
<path fill="none" stroke="#63b8ff" d="M417.8,-55.08C413.87,-48.11 408.24,-38.12 403.31,-29.37"/>
<polygon fill="#63b8ff" stroke="#63b8ff" points="406.51,-27.92 398.55,-20.93 400.41,-31.36 406.51,-27.92"/>
</a>
</g>
</g>
<!-- Node8&#45;&gt;Node6 -->
<g id="edge8_Node000008_Node000006" class="edge">
<title>Node8&#45;&gt;Node6</title>
<g id="a_edge8_Node000008_Node000006"><a xlink:title=" ">
<path fill="none" stroke="#63b8ff" d="M258.58,-110.33C262.41,-101.39 268.34,-87.12 272.75,-74.5 277.9,-59.77 282.9,-42.83 286.47,-30.09"/>
<polygon fill="#63b8ff" stroke="#63b8ff" points="289.74,-31.42 289.02,-20.85 282.99,-29.56 289.74,-31.42"/>
</a>
</g>
</g>
<!-- Node8&#45;&gt;Node7 -->
<g id="edge14_Node000008_Node000007" class="edge">
<title>Node8&#45;&gt;Node7</title>
<g id="a_edge14_Node000008_Node000007"><a xlink:title=" ">
<path fill="none" stroke="#63b8ff" d="M266.04,-110.25C289.29,-91.97 342.79,-49.9 372.29,-26.71"/>
<polygon fill="#63b8ff" stroke="#63b8ff" points="374.41,-29.49 380.11,-20.56 370.09,-23.99 374.41,-29.49"/>
</a>
</g>
</g>
<!-- Node9 -->
<g id="Node000009" class="node">
<title>Node9</title>
<g id="a_Node000009"><a xlink:href="../../d2/d02/dtypes_8h.html" target="_top" xlink:title=" ">
<polygon fill="white" stroke="#666666" points="263.75,-74.5 169.75,-74.5 169.75,-55.25 263.75,-55.25 263.75,-74.5"/>
<text xml:space="preserve" text-anchor="middle" x="216.75" y="-61" font-family="Helvetica,sans-Serif" font-size="10.00">common/dtypes.h</text>
</a>
</g>
</g>
<!-- Node8&#45;&gt;Node9 -->
<g id="edge9_Node000008_Node000009" class="edge">
<title>Node8&#45;&gt;Node9</title>
<g id="a_edge9_Node000008_Node000009"><a xlink:title=" ">
<path fill="none" stroke="#63b8ff" d="M248.48,-110.33C243.39,-103.21 236.05,-92.93 229.72,-84.05"/>
<polygon fill="#63b8ff" stroke="#63b8ff" points="232.7,-82.2 224.04,-76.09 227,-86.26 232.7,-82.2"/>
</a>
</g>
</g>
<!-- Node9&#45;&gt;Node4 -->
<g id="edge13_Node000009_Node000004" class="edge">
<title>Node9&#45;&gt;Node4</title>
<g id="a_edge13_Node000009_Node000004"><a xlink:title=" ">
<path fill="none" stroke="#63b8ff" d="M204.03,-54.84C193.04,-47.04 176.91,-35.59 163.82,-26.29"/>
<polygon fill="#63b8ff" stroke="#63b8ff" points="165.95,-23.51 155.77,-20.58 161.9,-29.22 165.95,-23.51"/>
</a>
</g>
</g>
<!-- Node9&#45;&gt;Node6 -->
<g id="edge11_Node000009_Node000006" class="edge">
<title>Node9&#45;&gt;Node6</title>
<g id="a_edge11_Node000009_Node000006"><a xlink:title=" ">
<path fill="none" stroke="#63b8ff" d="M229.47,-54.84C240.46,-47.04 256.59,-35.59 269.68,-26.29"/>
<polygon fill="#63b8ff" stroke="#63b8ff" points="271.6,-29.22 277.73,-20.58 267.55,-23.51 271.6,-29.22"/>
</a>
</g>
</g>
<!-- Node9&#45;&gt;Node7 -->
<g id="edge12_Node000009_Node000007" class="edge">
<title>Node9&#45;&gt;Node7</title>
<g id="a_edge12_Node000009_Node000007"><a xlink:title=" ">
<path fill="none" stroke="#63b8ff" d="M246.61,-54.84C277.05,-45.63 324.29,-31.34 356.78,-21.51"/>
<polygon fill="#63b8ff" stroke="#63b8ff" points="357.6,-24.92 366.15,-18.67 355.57,-18.22 357.6,-24.92"/>
</a>
</g>
</g>
<!-- Node10 -->
<g id="Node000010" class="node">
<title>Node10</title>
<g id="a_Node000010"><a xlink:title=" ">
<polygon fill="#e0e0e0" stroke="#999999" points="241.75,-19.25 201.75,-19.25 201.75,0 241.75,0 241.75,-19.25"/>
<text xml:space="preserve" text-anchor="middle" x="221.75" y="-5.75" font-family="Helvetica,sans-Serif" font-size="10.00">mpi.h</text>
</a>
</g>
</g>
<!-- Node9&#45;&gt;Node10 -->
<g id="edge10_Node000009_Node000010" class="edge">
<title>Node9&#45;&gt;Node10</title>
<g id="a_edge10_Node000009_Node000010"><a xlink:title=" ">
<path fill="none" stroke="#63b8ff" d="M217.58,-55.08C218.19,-48.49 219.07,-39.21 219.85,-30.82"/>
<polygon fill="#63b8ff" stroke="#63b8ff" points="223.31,-31.4 220.76,-21.12 216.35,-30.75 223.31,-31.4"/>
</a>
</g>
</g>
</g>
</svg>
