<?xml version="1.0" encoding="UTF-8" standalone="no"?>
<!DOCTYPE svg PUBLIC "-//W3C//DTD SVG 1.1//EN"
 "http://www.w3.org/Graphics/SVG/1.1/DTD/svg11.dtd">
<!-- Generated by graphviz version 14.0.0 (20250921.2048)
 -->
<!-- Title: src/io/get_save_data.c Pages: 1 -->
<!--zoomable 193 -->

<svg id="main" version="1.1" xmlns="http://www.w3.org/2000/svg" xmlns:xlink="http://www.w3.org/1999/xlink" xml:space="preserve" onload="init(evt)">

<style type="text/css"><![CDATA[
.node, .edge {opacity: 0.7;}
.node.selected, .edge.selected {opacity: 1;}
.edge:hover path { stroke: red; }
.edge:hover polygon { stroke: red; fill: red; }
]]></style>

<defs>
  <circle id="rim" cx="0" cy="0" r="7"/>
  <circle id="rim2" cx="0" cy="0" r="3.5"/>
  <g id="zoomPlus">
    <use xlink:href="#rim" fill="#404040"><set attributeName="fill" to="#808080" begin="zoomplus.mouseover" end="zoomplus.mouseout"/></use>
    <path d="M-4,0h8M0,-4v8" fill="none" stroke="white" stroke-width="1.5" pointer-events="none"/>
  </g>
  <g id="zoomMin">
    <use xlink:href="#rim" fill="#404040"><set attributeName="fill" to="#808080" begin="zoomminus.mouseover" end="zoomminus.mouseout"/></use>
    <path d="M-4,0h8" fill="none" stroke="white" stroke-width="1.5" pointer-events="none"/>
  </g>
  <g id="arrowUp" transform="translate(30 24)">
    <use xlink:href="#rim"/>
    <path pointer-events="none" fill="none" stroke="white" stroke-width="1.5" d="M0,-3.0v7 M-2.5,-0.5L0,-3.0L2.5,-0.5"/>
  </g>
  <g id="arrowRight" transform="rotate(90) translate(36 -43)">
    <use xlink:href="#rim"/>
    <path pointer-events="none" fill="none" stroke="white" stroke-width="1.5" d="M0,-3.0v7 M-2.5,-0.5L0,-3.0L2.5,-0.5"/>
  </g>
  <g id="arrowDown" transform="rotate(180) translate(-30 -48)">
    <use xlink:href="#rim"/>
    <path pointer-events="none" fill="none" stroke="white" stroke-width="1.5" d="M0,-3.0v7 M-2.5,-0.5L0,-3.0L2.5,-0.5"/>
  </g>
  <g id="arrowLeft" transform="rotate(270) translate(-36 17)">
    <use xlink:href="#rim"/>
    <path pointer-events="none" fill="none" stroke="white" stroke-width="1.5" d="M0,-3.0v7 M-2.5,-0.5L0,-3.0L2.5,-0.5"/>
  </g>
  <g id="resetDef">
    <use xlink:href="#rim2" fill="#404040"><set attributeName="fill" to="#808080" begin="reset.mouseover" end="reset.mouseout"/></use>
  </g>
</defs>
<script type="application/ecmascript">
var viewWidth = 1569;
var viewHeight = 193;
var sectionId = 'dynsection-0';
</script>
<script type="application/ecmascript" xlink:href="../../svg.min.js"/>
<svg id="graph" class="graph">
<g id="viewport">
<title>src/io/get_save_data.c</title>
<!-- Node1 -->
<g id="Node000001" class="node">
<title>Node1</title>
<g id="a_Node000001"><a xlink:title=" ">
<polygon fill="#999999" stroke="#666666" points="738.5,-185 623.5,-185 623.5,-165.75 738.5,-165.75 738.5,-185"/>
<text xml:space="preserve" text-anchor="middle" x="681" y="-171.5" font-family="Helvetica,sans-Serif" font-size="10.00">src/io/get_save_data.c</text>
</a>
</g>
</g>
<!-- Node2 -->
<g id="Node000002" class="node">
<title>Node2</title>
<g id="a_Node000002"><a xlink:title=" ">
<polygon fill="#e0e0e0" stroke="#999999" points="46,-129.75 0,-129.75 0,-110.5 46,-110.5 46,-129.75"/>
<text xml:space="preserve" text-anchor="middle" x="23" y="-116.25" font-family="Helvetica,sans-Serif" font-size="10.00">math.h</text>
</a>
</g>
</g>
<!-- Node1&#45;&gt;Node2 -->
<g id="edge1_Node000001_Node000002" class="edge">
<title>Node1&#45;&gt;Node2</title>
<g id="a_edge1_Node000001_Node000002"><a xlink:title=" ">
<path fill="none" stroke="#63b8ff" d="M623.3,-173.25C513.19,-170.45 265.73,-160.92 60,-129.75 59.17,-129.62 58.33,-129.49 57.48,-129.35"/>
<polygon fill="#63b8ff" stroke="#63b8ff" points="58.35,-125.95 47.87,-127.45 57,-132.82 58.35,-125.95"/>
</a>
</g>
</g>
<!-- Node3 -->
<g id="Node000003" class="node">
<title>Node3</title>
<g id="a_Node000003"><a xlink:title=" ">
<polygon fill="#e0e0e0" stroke="#999999" points="823,-19.25 783,-19.25 783,0 823,0 823,-19.25"/>
<text xml:space="preserve" text-anchor="middle" x="803" y="-5.75" font-family="Helvetica,sans-Serif" font-size="10.00">mpi.h</text>
</a>
</g>
</g>
<!-- Node1&#45;&gt;Node3 -->
<g id="edge2_Node000001_Node000003" class="edge">
<title>Node1&#45;&gt;Node3</title>
<g id="a_edge2_Node000001_Node000003"><a xlink:title=" ">
<path fill="none" stroke="#63b8ff" d="M623.33,-172.23C505.25,-167.35 244.27,-153.95 212,-129.75 184.38,-109.04 166.49,-80.53 190,-55.25 210,-33.74 649.01,-16.22 771.51,-11.74"/>
<polygon fill="#63b8ff" stroke="#63b8ff" points="771.29,-15.25 781.15,-11.39 771.03,-8.25 771.29,-15.25"/>
</a>
</g>
</g>
<!-- Node4 -->
<g id="Node000004" class="node">
<title>Node4</title>
<g id="a_Node000004"><a xlink:title=" ">
<polygon fill="#e0e0e0" stroke="#999999" points="250.62,-74.5 199.38,-74.5 199.38,-55.25 250.62,-55.25 250.62,-74.5"/>
<text xml:space="preserve" text-anchor="middle" x="225" y="-61" font-family="Helvetica,sans-Serif" font-size="10.00">netcdf.h</text>
</a>
</g>
</g>
<!-- Node1&#45;&gt;Node4 -->
<g id="edge3_Node000001_Node000004" class="edge">
<title>Node1&#45;&gt;Node4</title>
<g id="a_edge3_Node000001_Node000004"><a xlink:title=" ">
<path fill="none" stroke="#63b8ff" d="M623.12,-172.98C506.13,-169.55 250.34,-158.79 224,-129.75 213.4,-118.06 214.89,-99.63 218.31,-85.56"/>
<polygon fill="#63b8ff" stroke="#63b8ff" points="221.64,-86.64 221.12,-76.06 214.93,-84.65 221.64,-86.64"/>
</a>
</g>
</g>
<!-- Node5 -->
<g id="Node000005" class="node">
<title>Node5</title>
<g id="a_Node000005"><a xlink:title=" ">
<polygon fill="#e0e0e0" stroke="#999999" points="452.62,-74.5 383.38,-74.5 383.38,-55.25 452.62,-55.25 452.62,-74.5"/>
<text xml:space="preserve" text-anchor="middle" x="418" y="-61" font-family="Helvetica,sans-Serif" font-size="10.00">netcdf_par.h</text>
</a>
</g>
</g>
<!-- Node1&#45;&gt;Node5 -->
<g id="edge4_Node000001_Node000005" class="edge">
<title>Node1&#45;&gt;Node5</title>
<g id="a_edge4_Node000001_Node000005"><a xlink:title=" ">
<path fill="none" stroke="#63b8ff" d="M623.02,-172.8C508.57,-169.08 262.43,-157.87 237,-129.75 196.2,-84.64 305.61,-71.38 371.76,-67.49"/>
<polygon fill="#63b8ff" stroke="#63b8ff" points="371.86,-70.99 381.66,-66.97 371.49,-64 371.86,-70.99"/>
</a>
</g>
</g>
<!-- Node6 -->
<g id="Node000006" class="node">
<title>Node6</title>
<g id="a_Node000006"><a xlink:title=" ">
<polygon fill="#e0e0e0" stroke="#999999" points="1353.88,-19.25 1298.12,-19.25 1298.12,0 1353.88,0 1353.88,-19.25"/>
<text xml:space="preserve" text-anchor="middle" x="1326" y="-5.75" font-family="Helvetica,sans-Serif" font-size="10.00">stdbool.h</text>
</a>
</g>
</g>
<!-- Node1&#45;&gt;Node6 -->
<g id="edge5_Node000001_Node000006" class="edge">
<title>Node1&#45;&gt;Node6</title>
<g id="a_edge5_Node000001_Node000006"><a xlink:title=" ">
<path fill="none" stroke="#63b8ff" d="M738.73,-174.93C919.36,-176.18 1465.5,-176.06 1529,-129.75 1556.8,-109.48 1571.82,-81.85 1550,-55.25 1527.12,-27.36 1423.59,-16.57 1365.63,-12.66"/>
<polygon fill="#63b8ff" stroke="#63b8ff" points="1366.05,-9.18 1355.85,-12.05 1365.61,-16.17 1366.05,-9.18"/>
</a>
</g>
</g>
<!-- Node7 -->
<g id="Node000007" class="node">
<title>Node7</title>
<g id="a_Node000007"><a xlink:title=" ">
<polygon fill="#e0e0e0" stroke="#999999" points="579.62,-74.5 528.38,-74.5 528.38,-55.25 579.62,-55.25 579.62,-74.5"/>
<text xml:space="preserve" text-anchor="middle" x="554" y="-61" font-family="Helvetica,sans-Serif" font-size="10.00">stddef.h</text>
</a>
</g>
</g>
<!-- Node1&#45;&gt;Node7 -->
<g id="edge6_Node000001_Node000007" class="edge">
<title>Node1&#45;&gt;Node7</title>
<g id="a_edge6_Node000001_Node000007"><a xlink:title=" ">
<path fill="none" stroke="#63b8ff" d="M623.2,-172.69C510.44,-168.79 269.89,-157.32 245,-129.75 239.27,-123.4 239.4,-116.97 245,-110.5 253.86,-100.27 436.89,-78.85 517,-69.92"/>
<polygon fill="#63b8ff" stroke="#63b8ff" points="516.98,-73.44 526.53,-68.86 516.21,-66.49 516.98,-73.44"/>
</a>
</g>
</g>
<!-- Node8 -->
<g id="Node000008" class="node">
<title>Node8</title>
<g id="a_Node000008"><a xlink:title=" ">
<polygon fill="#e0e0e0" stroke="#999999" points="299.62,-129.75 254.38,-129.75 254.38,-110.5 299.62,-110.5 299.62,-129.75"/>
<text xml:space="preserve" text-anchor="middle" x="277" y="-116.25" font-family="Helvetica,sans-Serif" font-size="10.00">stdio.h</text>
</a>
</g>
</g>
<!-- Node1&#45;&gt;Node8 -->
<g id="edge7_Node000001_Node000008" class="edge">
<title>Node1&#45;&gt;Node8</title>
<g id="a_edge7_Node000001_Node000008"><a xlink:title=" ">
<path fill="none" stroke="#63b8ff" d="M623.06,-170.19C551.66,-164.43 426.5,-152.36 311.07,-130.11"/>
<polygon fill="#63b8ff" stroke="#63b8ff" points="311.9,-126.71 301.41,-128.22 310.55,-133.58 311.9,-126.71"/>
</a>
</g>
</g>
<!-- Node9 -->
<g id="Node000009" class="node">
<title>Node9</title>
<g id="a_Node000009"><a xlink:title=" ">
<polygon fill="#e0e0e0" stroke="#999999" points="364.75,-129.75 317.25,-129.75 317.25,-110.5 364.75,-110.5 364.75,-129.75"/>
<text xml:space="preserve" text-anchor="middle" x="341" y="-116.25" font-family="Helvetica,sans-Serif" font-size="10.00">stdlib.h</text>
</a>
</g>
</g>
<!-- Node1&#45;&gt;Node9 -->
<g id="edge8_Node000001_Node000009" class="edge">
<title>Node1&#45;&gt;Node9</title>
<g id="a_edge8_Node000001_Node000009"><a xlink:title=" ">
<path fill="none" stroke="#63b8ff" d="M623.24,-167.93C563.7,-160.84 468.01,-148.25 376.25,-130"/>
<polygon fill="#63b8ff" stroke="#63b8ff" points="377.06,-126.6 366.56,-128.05 375.67,-133.46 377.06,-126.6"/>
</a>
</g>
</g>
<!-- Node10 -->
<g id="Node000010" class="node">
<title>Node10</title>
<g id="a_Node000010"><a xlink:title=" ">
<polygon fill="#e0e0e0" stroke="#999999" points="431.12,-129.75 382.88,-129.75 382.88,-110.5 431.12,-110.5 431.12,-129.75"/>
<text xml:space="preserve" text-anchor="middle" x="407" y="-116.25" font-family="Helvetica,sans-Serif" font-size="10.00">string.h</text>
</a>
</g>
</g>
<!-- Node1&#45;&gt;Node10 -->
<g id="edge9_Node000001_Node000010" class="edge">
<title>Node1&#45;&gt;Node10</title>
<g id="a_edge9_Node000001_Node000010"><a xlink:title=" ">
<path fill="none" stroke="#63b8ff" d="M625.73,-165.31C579.22,-157.43 510.73,-145.19 442.42,-130.16"/>
<polygon fill="#63b8ff" stroke="#63b8ff" points="443.46,-126.81 432.94,-128.06 441.94,-133.64 443.46,-126.81"/>
</a>
</g>
</g>
<!-- Node11 -->
<g id="Node000011" class="node">
<title>Node11</title>
<g id="a_Node000011"><a xlink:href="../../de/d83/_e_l_p_h__timers_8h.html" target="_top" xlink:title=" ">
<polygon fill="white" stroke="#666666" points="572.62,-129.75 449.38,-129.75 449.38,-110.5 572.62,-110.5 572.62,-129.75"/>
<text xml:space="preserve" text-anchor="middle" x="511" y="-116.25" font-family="Helvetica,sans-Serif" font-size="10.00">common/ELPH_timers.h</text>
</a>
</g>
</g>
<!-- Node1&#45;&gt;Node11 -->
<g id="edge10_Node000001_Node000011" class="edge">
<title>Node1&#45;&gt;Node11</title>
<g id="a_edge10_Node000001_Node000011"><a xlink:title=" ">
<path fill="none" stroke="#63b8ff" d="M652.16,-165.34C624.32,-156.62 581.93,-143.34 550.86,-133.61"/>
<polygon fill="#63b8ff" stroke="#63b8ff" points="552.01,-130.3 541.42,-130.65 549.92,-136.98 552.01,-130.3"/>
</a>
</g>
</g>
<!-- Node12 -->
<g id="Node000012" class="node">
<title>Node12</title>
<g id="a_Node000012"><a xlink:href="../../d2/d6f/constants_8h.html" target="_top" xlink:title=" ">
<polygon fill="white" stroke="#666666" points="1164.75,-74.5 1057.25,-74.5 1057.25,-55.25 1164.75,-55.25 1164.75,-74.5"/>
<text xml:space="preserve" text-anchor="middle" x="1111" y="-61" font-family="Helvetica,sans-Serif" font-size="10.00">common/constants.h</text>
</a>
</g>
</g>
<!-- Node1&#45;&gt;Node12 -->
<g id="edge11_Node000001_Node000012" class="edge">
<title>Node1&#45;&gt;Node12</title>
<g id="a_edge11_Node000001_Node000012"><a xlink:title=" ">
<path fill="none" stroke="#63b8ff" d="M738.61,-172.4C849.07,-168.05 1081.97,-155.85 1107,-129.75 1117.94,-118.34 1117.96,-99.87 1115.81,-85.73"/>
<polygon fill="#63b8ff" stroke="#63b8ff" points="1119.29,-85.29 1113.89,-76.17 1112.43,-86.67 1119.29,-85.29"/>
</a>
</g>
</g>
<!-- Node13 -->
<g id="Node000013" class="node">
<title>Node13</title>
<g id="a_Node000013"><a xlink:href="../../d4/d0a/elph_c_8h.html" target="_top" xlink:title="Core type definitions and configuration for LetzElPhC.">
<polygon fill="white" stroke="#666666" points="1135.88,-19.25 1086.12,-19.25 1086.12,0 1135.88,0 1135.88,-19.25"/>
<text xml:space="preserve" text-anchor="middle" x="1111" y="-5.75" font-family="Helvetica,sans-Serif" font-size="10.00">elphC.h</text>
</a>
</g>
</g>
<!-- Node1&#45;&gt;Node13 -->
<g id="edge31_Node000001_Node000013" class="edge">
<title>Node1&#45;&gt;Node13</title>
<g id="a_edge31_Node000001_Node000013"><a xlink:title=" ">
<path fill="none" stroke="#63b8ff" d="M738.84,-174.07C874.4,-172.75 1203.71,-165.82 1237,-129.75 1274.39,-89.23 1193.79,-45.72 1144.89,-24.23"/>
<polygon fill="#63b8ff" stroke="#63b8ff" points="1146.36,-21.06 1135.79,-20.34 1143.61,-27.49 1146.36,-21.06"/>
</a>
</g>
</g>
<!-- Node14 -->
<g id="Node000014" class="node">
<title>Node14</title>
<g id="a_Node000014"><a xlink:title=" ">
<polygon fill="#e0e0e0" stroke="#999999" points="858.38,-129.75 739.62,-129.75 739.62,-110.5 858.38,-110.5 858.38,-129.75"/>
<text xml:space="preserve" text-anchor="middle" x="799" y="-116.25" font-family="Helvetica,sans-Serif" font-size="10.00">common/cwalk/cwalk.h</text>
</a>
</g>
</g>
<!-- Node1&#45;&gt;Node14 -->
<g id="edge13_Node000001_Node000014" class="edge">
<title>Node1&#45;&gt;Node14</title>
<g id="a_edge13_Node000001_Node000014"><a xlink:title=" ">
<path fill="none" stroke="#63b8ff" d="M701.02,-165.34C719.49,-157 747.21,-144.5 768.45,-134.91"/>
<polygon fill="#63b8ff" stroke="#63b8ff" points="769.83,-138.13 777.51,-130.83 766.95,-131.75 769.83,-138.13"/>
</a>
</g>
</g>
<!-- Node15 -->
<g id="Node000015" class="node">
<title>Node15</title>
<g id="a_Node000015"><a xlink:href="../../d2/d02/dtypes_8h.html" target="_top" xlink:title=" ">
<polygon fill="white" stroke="#666666" points="963,-74.5 869,-74.5 869,-55.25 963,-55.25 963,-74.5"/>
<text xml:space="preserve" text-anchor="middle" x="916" y="-61" font-family="Helvetica,sans-Serif" font-size="10.00">common/dtypes.h</text>
</a>
</g>
</g>
<!-- Node1&#45;&gt;Node15 -->
<g id="edge14_Node000001_Node000015" class="edge">
<title>Node1&#45;&gt;Node15</title>
<g id="a_edge14_Node000001_Node000015"><a xlink:title=" ">
<path fill="none" stroke="#63b8ff" d="M738.73,-174.36C816.94,-172.97 950.35,-165.29 981,-129.75 996.66,-111.59 970.99,-92.54 947.44,-80.02"/>
<polygon fill="#63b8ff" stroke="#63b8ff" points="949.13,-76.95 938.62,-75.6 945.99,-83.21 949.13,-76.95"/>
</a>
</g>
</g>
<!-- Node16 -->
<g id="Node000016" class="node">
<title>Node16</title>
<g id="a_Node000016"><a xlink:href="../../da/d41/error_8h.html" target="_top" xlink:title=" ">
<polygon fill="white" stroke="#666666" points="430.5,-19.25 387.5,-19.25 387.5,0 430.5,0 430.5,-19.25"/>
<text xml:space="preserve" text-anchor="middle" x="409" y="-5.75" font-family="Helvetica,sans-Serif" font-size="10.00">error.h</text>
</a>
</g>
</g>
<!-- Node1&#45;&gt;Node16 -->
<g id="edge19_Node000001_Node000016" class="edge">
<title>Node1&#45;&gt;Node16</title>
<g id="a_edge19_Node000001_Node000016"><a xlink:title=" ">
<path fill="none" stroke="#63b8ff" d="M623.33,-172.93C500.17,-169.32 220.04,-158.06 188,-129.75 162.87,-107.55 154.63,-81.1 176,-55.25 200.99,-25.02 317.76,-15.07 375.91,-11.96"/>
<polygon fill="#63b8ff" stroke="#63b8ff" points="376.05,-15.46 385.87,-11.47 375.71,-8.46 376.05,-15.46"/>
</a>
</g>
</g>
<!-- Node17 -->
<g id="Node000017" class="node">
<title>Node17</title>
<g id="a_Node000017"><a xlink:href="../../df/def/numerical__func_8h.html" target="_top" xlink:title=" ">
<polygon fill="white" stroke="#666666" points="1541.38,-74.5 1410.62,-74.5 1410.62,-55.25 1541.38,-55.25 1541.38,-74.5"/>
<text xml:space="preserve" text-anchor="middle" x="1476" y="-61" font-family="Helvetica,sans-Serif" font-size="10.00">common/numerical_func.h</text>
</a>
</g>
</g>
<!-- Node1&#45;&gt;Node17 -->
<g id="edge20_Node000001_Node000017" class="edge">
<title>Node1&#45;&gt;Node17</title>
<g id="a_edge20_Node000001_Node000017"><a xlink:title=" ">
<path fill="none" stroke="#63b8ff" d="M738.94,-173.43C923.24,-170.12 1485.43,-157.79 1512,-129.75 1525.25,-115.77 1510.26,-96 1495.79,-82.17"/>
<polygon fill="#63b8ff" stroke="#63b8ff" points="1498.46,-79.87 1488.67,-75.81 1493.79,-85.09 1498.46,-79.87"/>
</a>
</g>
</g>
<!-- Node18 -->
<g id="Node000018" class="node">
<title>Node18</title>
<g id="a_Node000018"><a xlink:href="../../df/d5c/parallel_8h.html" target="_top" xlink:title=" ">
<polygon fill="white" stroke="#666666" points="971.75,-129.75 876.25,-129.75 876.25,-110.5 971.75,-110.5 971.75,-129.75"/>
<text xml:space="preserve" text-anchor="middle" x="924" y="-116.25" font-family="Helvetica,sans-Serif" font-size="10.00">common/parallel.h</text>
</a>
</g>
</g>
<!-- Node1&#45;&gt;Node18 -->
<g id="edge23_Node000001_Node000018" class="edge">
<title>Node1&#45;&gt;Node18</title>
<g id="a_edge23_Node000001_Node000018"><a xlink:title=" ">
<path fill="none" stroke="#63b8ff" d="M722.5,-165.28C763.65,-156.26 826.84,-142.42 871.47,-132.64"/>
<polygon fill="#63b8ff" stroke="#63b8ff" points="872.18,-136.06 881.2,-130.5 870.68,-129.23 872.18,-136.06"/>
</a>
</g>
</g>
<!-- Node19 -->
<g id="Node000019" class="node">
<title>Node19</title>
<g id="a_Node000019"><a xlink:href="../../d8/dc9/dvloc_8h.html" target="_top" xlink:title=" ">
<polygon fill="white" stroke="#666666" points="1227.88,-129.75 1154.12,-129.75 1154.12,-110.5 1227.88,-110.5 1227.88,-129.75"/>
<text xml:space="preserve" text-anchor="middle" x="1191" y="-116.25" font-family="Helvetica,sans-Serif" font-size="10.00">dvloc/dvloc.h</text>
</a>
</g>
</g>
<!-- Node1&#45;&gt;Node19 -->
<g id="edge27_Node000001_Node000019" class="edge">
<title>Node1&#45;&gt;Node19</title>
<g id="a_edge27_Node000001_Node000019"><a xlink:title=" ">
<path fill="none" stroke="#63b8ff" d="M738.76,-170.08C825.91,-163.29 996.15,-148.88 1140,-129.75 1140.83,-129.64 1141.68,-129.52 1142.52,-129.41"/>
<polygon fill="#63b8ff" stroke="#63b8ff" points="1142.85,-132.9 1152.23,-127.96 1141.82,-125.97 1142.85,-132.9"/>
</a>
</g>
</g>
<!-- Node20 -->
<g id="Node000020" class="node">
<title>Node20</title>
<g id="a_Node000020"><a xlink:href="../../dc/dac/io_8h.html" target="_top" xlink:title=" ">
<polygon fill="white" stroke="#666666" points="622.88,-129.75 591.12,-129.75 591.12,-110.5 622.88,-110.5 622.88,-129.75"/>
<text xml:space="preserve" text-anchor="middle" x="607" y="-116.25" font-family="Helvetica,sans-Serif" font-size="10.00">io.h</text>
</a>
</g>
</g>
<!-- Node1&#45;&gt;Node20 -->
<g id="edge32_Node000001_Node000020" class="edge">
<title>Node1&#45;&gt;Node20</title>
<g id="a_edge32_Node000001_Node000020"><a xlink:title=" ">
<path fill="none" stroke="#63b8ff" d="M668.45,-165.34C657.54,-157.49 641.5,-145.95 628.54,-136.62"/>
<polygon fill="#63b8ff" stroke="#63b8ff" points="630.76,-133.91 620.6,-130.91 626.67,-139.59 630.76,-133.91"/>
</a>
</g>
</g>
<!-- Node21 -->
<g id="Node000021" class="node">
<title>Node21</title>
<g id="a_Node000021"><a xlink:title=" ">
<polygon fill="#e0e0e0" stroke="#999999" points="1355.75,-129.75 1284.25,-129.75 1284.25,-110.5 1355.75,-110.5 1355.75,-129.75"/>
<text xml:space="preserve" text-anchor="middle" x="1320" y="-116.25" font-family="Helvetica,sans-Serif" font-size="10.00">io/qe/qe_io.h</text>
</a>
</g>
</g>
<!-- Node1&#45;&gt;Node21 -->
<g id="edge39_Node000001_Node000021" class="edge">
<title>Node1&#45;&gt;Node21</title>
<g id="a_edge39_Node000001_Node000021"><a xlink:title=" ">
<path fill="none" stroke="#63b8ff" d="M738.87,-171.82C844.63,-166.75 1076.12,-153.76 1270,-129.75 1270.99,-129.63 1272,-129.5 1273.01,-129.36"/>
<polygon fill="#63b8ff" stroke="#63b8ff" points="1273.12,-132.88 1282.51,-127.97 1272.11,-125.96 1273.12,-132.88"/>
</a>
</g>
</g>
<!-- Node22 -->
<g id="Node000022" class="node">
<title>Node22</title>
<g id="a_Node000022"><a xlink:href="../../de/d79/mpi__bcast_8h.html" target="_top" xlink:title=" ">
<polygon fill="white" stroke="#666666" points="1097.62,-129.75 1028.38,-129.75 1028.38,-110.5 1097.62,-110.5 1097.62,-129.75"/>
<text xml:space="preserve" text-anchor="middle" x="1063" y="-116.25" font-family="Helvetica,sans-Serif" font-size="10.00">mpi_bcast.h</text>
</a>
</g>
</g>
<!-- Node1&#45;&gt;Node22 -->
<g id="edge40_Node000001_Node000022" class="edge">
<title>Node1&#45;&gt;Node22</title>
<g id="a_edge40_Node000001_Node000022"><a xlink:title=" ">
<path fill="none" stroke="#63b8ff" d="M738.86,-167.35C805.36,-159.11 917.74,-144.67 1014,-129.75 1014.99,-129.6 1015.99,-129.44 1017,-129.28"/>
<polygon fill="#63b8ff" stroke="#63b8ff" points="1017.17,-132.8 1026.47,-127.72 1016.04,-125.89 1017.17,-132.8"/>
</a>
</g>
</g>
<!-- Node23 -->
<g id="Node000023" class="node">
<title>Node23</title>
<g id="a_Node000023"><a xlink:href="../../da/d90/fcoeff_8h.html" target="_top" xlink:title=" ">
<polygon fill="white" stroke="#666666" points="721.25,-129.75 640.75,-129.75 640.75,-110.5 721.25,-110.5 721.25,-129.75"/>
<text xml:space="preserve" text-anchor="middle" x="681" y="-116.25" font-family="Helvetica,sans-Serif" font-size="10.00">nonloc/fcoeff.h</text>
</a>
</g>
</g>
<!-- Node1&#45;&gt;Node23 -->
<g id="edge45_Node000001_Node000023" class="edge">
<title>Node1&#45;&gt;Node23</title>
<g id="a_edge45_Node000001_Node000023"><a xlink:title=" ">
<path fill="none" stroke="#63b8ff" d="M681,-165.58C681,-159.07 681,-149.92 681,-141.62"/>
<polygon fill="#63b8ff" stroke="#63b8ff" points="684.5,-141.62 681,-131.62 677.5,-141.62 684.5,-141.62"/>
</a>
</g>
</g>
<!-- Node24 -->
<g id="Node000024" class="node">
<title>Node24</title>
<g id="a_Node000024"><a xlink:href="../../dc/dec/symmetries_8h.html" target="_top" xlink:title=" ">
<polygon fill="white" stroke="#666666" points="1502.62,-129.75 1373.38,-129.75 1373.38,-110.5 1502.62,-110.5 1502.62,-129.75"/>
<text xml:space="preserve" text-anchor="middle" x="1438" y="-116.25" font-family="Helvetica,sans-Serif" font-size="10.00">symmetries/symmetries.h</text>
</a>
</g>
</g>
<!-- Node1&#45;&gt;Node24 -->
<g id="edge47_Node000001_Node000024" class="edge">
<title>Node1&#45;&gt;Node24</title>
<g id="a_edge47_Node000001_Node000024"><a xlink:title=" ">
<path fill="none" stroke="#63b8ff" d="M738.73,-171.63C854.75,-165.9 1124.71,-151.44 1361.87,-129.99"/>
<polygon fill="#63b8ff" stroke="#63b8ff" points="1361.99,-133.5 1371.63,-129.1 1361.36,-126.53 1361.99,-133.5"/>
</a>
</g>
</g>
<!-- Node12&#45;&gt;Node13 -->
<g id="edge12_Node000012_Node000013" class="edge">
<title>Node12&#45;&gt;Node13</title>
<g id="a_edge12_Node000012_Node000013"><a xlink:title=" ">
<path fill="none" stroke="#63b8ff" d="M1111,-55.08C1111,-48.57 1111,-39.42 1111,-31.12"/>
<polygon fill="#63b8ff" stroke="#63b8ff" points="1114.5,-31.12 1111,-21.12 1107.5,-31.12 1114.5,-31.12"/>
</a>
</g>
</g>
<!-- Node15&#45;&gt;Node3 -->
<g id="edge15_Node000015_Node000003" class="edge">
<title>Node15&#45;&gt;Node3</title>
<g id="a_edge15_Node000015_Node000003"><a xlink:title=" ">
<path fill="none" stroke="#63b8ff" d="M896.83,-54.84C879.22,-46.54 852.84,-34.11 832.54,-24.54"/>
<polygon fill="#63b8ff" stroke="#63b8ff" points="834.17,-21.44 823.63,-20.35 831.19,-27.78 834.17,-21.44"/>
</a>
</g>
</g>
<!-- Node15&#45;&gt;Node6 -->
<g id="edge16_Node000015_Node000006" class="edge">
<title>Node15&#45;&gt;Node6</title>
<g id="a_edge16_Node000015_Node000006"><a xlink:title=" ">
<path fill="none" stroke="#63b8ff" d="M963.43,-57.71C1045.07,-47.11 1210.65,-25.61 1286.47,-15.76"/>
<polygon fill="#63b8ff" stroke="#63b8ff" points="1286.88,-19.24 1296.34,-14.48 1285.98,-12.29 1286.88,-19.24"/>
</a>
</g>
</g>
<!-- Node15&#45;&gt;Node13 -->
<g id="edge17_Node000015_Node000013" class="edge">
<title>Node15&#45;&gt;Node13</title>
<g id="a_edge17_Node000015_Node000013"><a xlink:title=" ">
<path fill="none" stroke="#63b8ff" d="M949.08,-54.84C983.98,-45.31 1038.83,-30.33 1074.85,-20.5"/>
<polygon fill="#63b8ff" stroke="#63b8ff" points="1075.65,-23.91 1084.38,-17.89 1073.81,-17.15 1075.65,-23.91"/>
</a>
</g>
</g>
<!-- Node15&#45;&gt;Node16 -->
<g id="edge18_Node000015_Node000016" class="edge">
<title>Node15&#45;&gt;Node16</title>
<g id="a_edge18_Node000015_Node000016"><a xlink:title=" ">
<path fill="none" stroke="#63b8ff" d="M868.76,-58.91C767.1,-48.24 529.72,-23.3 442.18,-14.11"/>
<polygon fill="#63b8ff" stroke="#63b8ff" points="442.67,-10.64 432.36,-13.08 441.94,-17.6 442.67,-10.64"/>
</a>
</g>
</g>
<!-- Node17&#45;&gt;Node6 -->
<g id="edge21_Node000017_Node000006" class="edge">
<title>Node17&#45;&gt;Node6</title>
<g id="a_edge21_Node000017_Node000006"><a xlink:title=" ">
<path fill="none" stroke="#63b8ff" d="M1450.55,-54.84C1426.31,-46.24 1389.57,-33.19 1362.26,-23.5"/>
<polygon fill="#63b8ff" stroke="#63b8ff" points="1363.59,-20.26 1353,-20.21 1361.25,-26.85 1363.59,-20.26"/>
</a>
</g>
</g>
<!-- Node17&#45;&gt;Node13 -->
<g id="edge22_Node000017_Node000013" class="edge">
<title>Node17&#45;&gt;Node13</title>
<g id="a_edge22_Node000017_Node000013"><a xlink:title=" ">
<path fill="none" stroke="#63b8ff" d="M1413.67,-54.78C1336.96,-43.59 1209.28,-24.96 1147.16,-15.9"/>
<polygon fill="#63b8ff" stroke="#63b8ff" points="1147.89,-12.47 1137.49,-14.49 1146.88,-19.4 1147.89,-12.47"/>
</a>
</g>
</g>
<!-- Node18&#45;&gt;Node3 -->
<g id="edge24_Node000018_Node000003" class="edge">
<title>Node18&#45;&gt;Node3</title>
<g id="a_edge24_Node000018_Node000003"><a xlink:title=" ">
<path fill="none" stroke="#63b8ff" d="M888.57,-110.16C868.17,-103.37 843.42,-92.14 827,-74.5 815.75,-62.42 809.64,-44.56 806.4,-30.8"/>
<polygon fill="#63b8ff" stroke="#63b8ff" points="809.85,-30.2 804.47,-21.08 802.99,-31.57 809.85,-30.2"/>
</a>
</g>
</g>
<!-- Node18&#45;&gt;Node13 -->
<g id="edge26_Node000018_Node000013" class="edge">
<title>Node18&#45;&gt;Node13</title>
<g id="a_edge26_Node000018_Node000013"><a xlink:title=" ">
<path fill="none" stroke="#63b8ff" d="M903.11,-110.11C878.33,-98.17 842.46,-76.19 860,-55.25 886.97,-23.06 1011.88,-14.07 1074.71,-11.58"/>
<polygon fill="#63b8ff" stroke="#63b8ff" points="1074.66,-15.08 1084.53,-11.22 1074.41,-8.09 1074.66,-15.08"/>
</a>
</g>
</g>
<!-- Node18&#45;&gt;Node15 -->
<g id="edge25_Node000018_Node000015" class="edge">
<title>Node18&#45;&gt;Node15</title>
<g id="a_edge25_Node000018_Node000015"><a xlink:title=" ">
<path fill="none" stroke="#63b8ff" d="M922.68,-110.33C921.69,-103.74 920.29,-94.46 919.03,-86.07"/>
<polygon fill="#63b8ff" stroke="#63b8ff" points="922.52,-85.72 917.57,-76.36 915.6,-86.76 922.52,-85.72"/>
</a>
</g>
</g>
<!-- Node19&#45;&gt;Node6 -->
<g id="edge28_Node000019_Node000006" class="edge">
<title>Node19&#45;&gt;Node6</title>
<g id="a_edge28_Node000019_Node000006"><a xlink:title=" ">
<path fill="none" stroke="#63b8ff" d="M1202.05,-110.25C1224.79,-91.97 1277.13,-49.9 1305.99,-26.71"/>
<polygon fill="#63b8ff" stroke="#63b8ff" points="1308.02,-29.57 1313.62,-20.57 1303.63,-24.11 1308.02,-29.57"/>
</a>
</g>
</g>
<!-- Node19&#45;&gt;Node13 -->
<g id="edge30_Node000019_Node000013" class="edge">
<title>Node19&#45;&gt;Node13</title>
<g id="a_edge30_Node000019_Node000013"><a xlink:title=" ">
<path fill="none" stroke="#63b8ff" d="M1190.51,-110.06C1189.4,-96.9 1185.79,-72.21 1174,-55.25 1165.4,-42.87 1152.19,-32.75 1140.08,-25.3"/>
<polygon fill="#63b8ff" stroke="#63b8ff" points="1142.03,-22.38 1131.61,-20.43 1138.54,-28.45 1142.03,-22.38"/>
</a>
</g>
</g>
<!-- Node19&#45;&gt;Node15 -->
<g id="edge29_Node000019_Node000015" class="edge">
<title>Node19&#45;&gt;Node15</title>
<g id="a_edge29_Node000019_Node000015"><a xlink:title=" ">
<path fill="none" stroke="#63b8ff" d="M1153.63,-111.89C1107.42,-102.94 1028.27,-87.62 974.12,-77.13"/>
<polygon fill="#63b8ff" stroke="#63b8ff" points="974.93,-73.72 964.45,-75.26 973.6,-80.59 974.93,-73.72"/>
</a>
</g>
</g>
<!-- Node20&#45;&gt;Node3 -->
<g id="edge33_Node000020_Node000003" class="edge">
<title>Node20&#45;&gt;Node3</title>
<g id="a_edge33_Node000020_Node000003"><a xlink:title=" ">
<path fill="none" stroke="#63b8ff" d="M622.83,-110.18C644.81,-97.77 685.85,-74.66 721,-55.25 739.51,-45.03 760.44,-33.64 776.52,-24.93"/>
<polygon fill="#63b8ff" stroke="#63b8ff" points="777.86,-28.18 784.99,-20.35 774.53,-22.03 777.86,-28.18"/>
</a>
</g>
</g>
<!-- Node20&#45;&gt;Node4 -->
<g id="edge34_Node000020_Node000004" class="edge">
<title>Node20&#45;&gt;Node4</title>
<g id="a_edge34_Node000020_Node000004"><a xlink:title=" ">
<path fill="none" stroke="#63b8ff" d="M590.74,-112.97C587.86,-112.04 584.86,-111.16 582,-110.5 467.16,-83.82 327.59,-72.22 262.19,-67.97"/>
<polygon fill="#63b8ff" stroke="#63b8ff" points="262.57,-64.49 252.37,-67.36 262.13,-71.48 262.57,-64.49"/>
</a>
</g>
</g>
<!-- Node20&#45;&gt;Node5 -->
<g id="edge35_Node000020_Node000005" class="edge">
<title>Node20&#45;&gt;Node5</title>
<g id="a_edge35_Node000020_Node000005"><a xlink:title=" ">
<path fill="none" stroke="#63b8ff" d="M590.64,-113.31C587.77,-112.34 584.81,-111.37 582,-110.5 542.52,-98.33 497.18,-86.13 464.19,-77.57"/>
<polygon fill="#63b8ff" stroke="#63b8ff" points="465.09,-74.18 454.53,-75.07 463.34,-80.96 465.09,-74.18"/>
</a>
</g>
</g>
<!-- Node20&#45;&gt;Node7 -->
<g id="edge36_Node000020_Node000007" class="edge">
<title>Node20&#45;&gt;Node7</title>
<g id="a_edge36_Node000020_Node000007"><a xlink:title=" ">
<path fill="none" stroke="#63b8ff" d="M598.25,-110.33C590.85,-102.9 580.04,-92.04 570.95,-82.91"/>
<polygon fill="#63b8ff" stroke="#63b8ff" points="573.54,-80.55 564.01,-75.93 568.58,-85.49 573.54,-80.55"/>
</a>
</g>
</g>
<!-- Node20&#45;&gt;Node13 -->
<g id="edge38_Node000020_Node000013" class="edge">
<title>Node20&#45;&gt;Node13</title>
<g id="a_edge38_Node000020_Node000013"><a xlink:title=" ">
<path fill="none" stroke="#63b8ff" d="M623.34,-113.26C626.21,-112.3 629.18,-111.34 632,-110.5 728.2,-81.83 752.79,-76.03 851,-55.25 930.23,-38.48 1024.05,-23.59 1074.51,-15.98"/>
<polygon fill="#63b8ff" stroke="#63b8ff" points="1074.91,-19.46 1084.28,-14.52 1073.87,-12.54 1074.91,-19.46"/>
</a>
</g>
</g>
<!-- Node20&#45;&gt;Node15 -->
<g id="edge37_Node000020_Node000015" class="edge">
<title>Node20&#45;&gt;Node15</title>
<g id="a_edge37_Node000020_Node000015"><a xlink:title=" ">
<path fill="none" stroke="#63b8ff" d="M623.28,-113.05C626.16,-112.1 629.15,-111.21 632,-110.5 708.85,-91.37 799.54,-78.81 857.39,-72.02"/>
<polygon fill="#63b8ff" stroke="#63b8ff" points="857.47,-75.54 867,-70.92 856.67,-68.58 857.47,-75.54"/>
</a>
</g>
</g>
<!-- Node22&#45;&gt;Node3 -->
<g id="edge41_Node000022_Node000003" class="edge">
<title>Node22&#45;&gt;Node3</title>
<g id="a_edge41_Node000022_Node000003"><a xlink:title=" ">
<path fill="none" stroke="#63b8ff" d="M1052.84,-110.14C1036.77,-96.38 1004.03,-70.14 972,-55.25 926.58,-34.14 869.48,-21.7 834.64,-15.53"/>
<polygon fill="#63b8ff" stroke="#63b8ff" points="835.24,-12.08 824.8,-13.85 834.07,-18.98 835.24,-12.08"/>
</a>
</g>
</g>
<!-- Node22&#45;&gt;Node6 -->
<g id="edge42_Node000022_Node000006" class="edge">
<title>Node22&#45;&gt;Node6</title>
<g id="a_edge42_Node000022_Node000006"><a xlink:title=" ">
<path fill="none" stroke="#63b8ff" d="M1085.58,-110.17C1108.03,-101.23 1143.46,-87.06 1174,-74.5 1215.73,-57.34 1263.71,-37.1 1294.41,-24.07"/>
<polygon fill="#63b8ff" stroke="#63b8ff" points="1295.67,-27.34 1303.5,-20.21 1292.93,-20.89 1295.67,-27.34"/>
</a>
</g>
</g>
<!-- Node22&#45;&gt;Node13 -->
<g id="edge44_Node000022_Node000013" class="edge">
<title>Node22&#45;&gt;Node13</title>
<g id="a_edge44_Node000022_Node000013"><a xlink:title=" ">
<path fill="none" stroke="#63b8ff" d="M1057.33,-110.39C1049.82,-97.64 1038.58,-73.46 1048,-55.25 1054.69,-42.32 1067.04,-32.33 1079.04,-25.11"/>
<polygon fill="#63b8ff" stroke="#63b8ff" points="1080.5,-28.3 1087.59,-20.43 1077.14,-22.17 1080.5,-28.3"/>
</a>
</g>
</g>
<!-- Node22&#45;&gt;Node15 -->
<g id="edge43_Node000022_Node000015" class="edge">
<title>Node22&#45;&gt;Node15</title>
<g id="a_edge43_Node000022_Node000015"><a xlink:title=" ">
<path fill="none" stroke="#63b8ff" d="M1038.06,-110.09C1014.31,-101.49 978.29,-88.44 951.54,-78.75"/>
<polygon fill="#63b8ff" stroke="#63b8ff" points="953.08,-75.58 942.48,-75.47 950.69,-82.16 953.08,-75.58"/>
</a>
</g>
</g>
<!-- Node23&#45;&gt;Node15 -->
<g id="edge46_Node000023_Node000015" class="edge">
<title>Node23&#45;&gt;Node15</title>
<g id="a_edge46_Node000023_Node000015"><a xlink:title=" ">
<path fill="none" stroke="#63b8ff" d="M721.13,-110.03C760.84,-101.03 821.78,-87.23 864.92,-77.45"/>
<polygon fill="#63b8ff" stroke="#63b8ff" points="865.58,-80.89 874.56,-75.27 864.03,-74.06 865.58,-80.89"/>
</a>
</g>
</g>
<!-- Node24&#45;&gt;Node6 -->
<g id="edge48_Node000024_Node000006" class="edge">
<title>Node24&#45;&gt;Node6</title>
<g id="a_edge48_Node000024_Node000006"><a xlink:title=" ">
<path fill="none" stroke="#63b8ff" d="M1428.83,-110.25C1410.21,-92.21 1367.67,-51 1343.55,-27.63"/>
<polygon fill="#63b8ff" stroke="#63b8ff" points="1346,-25.12 1336.38,-20.68 1341.13,-30.15 1346,-25.12"/>
</a>
</g>
</g>
<!-- Node24&#45;&gt;Node13 -->
<g id="edge50_Node000024_Node000013" class="edge">
<title>Node24&#45;&gt;Node13</title>
<g id="a_edge50_Node000024_Node000013"><a xlink:title=" ">
<path fill="none" stroke="#63b8ff" d="M1424.57,-110.09C1403.44,-96.28 1360.72,-69.95 1321,-55.25 1262.21,-33.49 1190.03,-21.06 1147.42,-15.09"/>
<polygon fill="#63b8ff" stroke="#63b8ff" points="1148.11,-11.65 1137.73,-13.78 1147.17,-18.59 1148.11,-11.65"/>
</a>
</g>
</g>
<!-- Node24&#45;&gt;Node15 -->
<g id="edge49_Node000024_Node000015" class="edge">
<title>Node24&#45;&gt;Node15</title>
<g id="a_edge49_Node000024_Node000015"><a xlink:title=" ">
<path fill="none" stroke="#63b8ff" d="M1373.13,-111.4C1370.38,-111.09 1367.66,-110.79 1365,-110.5 1225.03,-95.28 1060.27,-79.43 974.53,-71.34"/>
<polygon fill="#63b8ff" stroke="#63b8ff" points="975.01,-67.87 964.73,-70.42 974.35,-74.84 975.01,-67.87"/>
</a>
</g>
</g>
</g>
</svg>

<g id="navigator" transform="translate(0 0)" fill="#404254">
  <rect fill="#f2f5e9" fill-opacity="0.5" stroke="#606060" stroke-width=".5" x="0" y="0" width="60" height="60"/>
  <use id="zoomplus" xlink:href="#zoomPlus" x="17" y="9" onmousedown="handleZoom(evt,'in')"/>
  <use id="zoomminus" xlink:href="#zoomMin" x="42" y="9" onmousedown="handleZoom(evt,'out')"/>
  <use id="reset" xlink:href="#resetDef" x="30" y="36" onmousedown="handleReset()"/>
   <use id="arrowup" xlink:href="#arrowUp" x="0" y="0" onmousedown="handlePan(0,-1)"/>
  <use id="arrowright" xlink:href="#arrowRight" x="0" y="0" onmousedown="handlePan(1,0)"/>
  <use id="arrowdown" xlink:href="#arrowDown" x="0" y="0" onmousedown="handlePan(0,1)"/>
  <use id="arrowleft" xlink:href="#arrowLeft" x="0" y="0" onmousedown="handlePan(-1,0)"/>
</g>
<svg viewBox="0 0 15 15" width="100%" height="30px" preserveAspectRatio="xMaxYMin meet">
 <g id="arrow_out" transform="scale(0.3 0.3)">
  <a xlink:href="get__save__data_8c__incl_org.svg" target="_base">
   <rect id="button" ry="5" rx="5" y="6" x="6" height="38" width="38"
        fill="#f2f5e9" fill-opacity="0.5" stroke="#606060" stroke-width="1.0"/>
   <path id="arrow"
     d="M 11.500037,31.436501 C 11.940474,20.09759 22.043105,11.32322 32.158766,21.979434 L 37.068811,17.246167 C 37.068811,17.246167 37.088388,32 37.088388,32 L 22.160133,31.978069 C 22.160133,31.978069 26.997745,27.140456 26.997745,27.140456 C 18.528582,18.264221 13.291696,25.230495 11.500037,31.436501 z"
     style="fill:#404040;"/>
  </a>
 </g>
</svg>

<style type='text/css'>
<![CDATA[
[data-mouse-over-selected='false'] { opacity: 0.7; }
[data-mouse-over-selected='true']  { opacity: 1.0; }
]]>
</style>
<script type="application/ecmascript"><![CDATA[
document.addEventListener('DOMContentLoaded', (event) => {
  highlightEdges();
  highlightAdjacentNodes();
});
]]></script>
</svg>
