<?xml version="1.0" encoding="UTF-8" standalone="no"?>
<!DOCTYPE svg PUBLIC "-//W3C//DTD SVG 1.1//EN"
 "http://www.w3.org/Graphics/SVG/1.1/DTD/svg11.dtd">
<!-- Generated by graphviz version 14.0.0 (20250921.2048)
 -->
<!-- Title: src/nonloc/Vbare_nloc.c Pages: 1 -->
<!--zoomable 193 -->

<svg id="main" version="1.1" xmlns="http://www.w3.org/2000/svg" xmlns:xlink="http://www.w3.org/1999/xlink" xml:space="preserve" onload="init(evt)">

<style type="text/css"><![CDATA[
.node, .edge {opacity: 0.7;}
.node.selected, .edge.selected {opacity: 1;}
.edge:hover path { stroke: red; }
.edge:hover polygon { stroke: red; fill: red; }
]]></style>

<defs>
  <circle id="rim" cx="0" cy="0" r="7"/>
  <circle id="rim2" cx="0" cy="0" r="3.5"/>
  <g id="zoomPlus">
    <use xlink:href="#rim" fill="#404040"><set attributeName="fill" to="#808080" begin="zoomplus.mouseover" end="zoomplus.mouseout"/></use>
    <path d="M-4,0h8M0,-4v8" fill="none" stroke="white" stroke-width="1.5" pointer-events="none"/>
  </g>
  <g id="zoomMin">
    <use xlink:href="#rim" fill="#404040"><set attributeName="fill" to="#808080" begin="zoomminus.mouseover" end="zoomminus.mouseout"/></use>
    <path d="M-4,0h8" fill="none" stroke="white" stroke-width="1.5" pointer-events="none"/>
  </g>
  <g id="arrowUp" transform="translate(30 24)">
    <use xlink:href="#rim"/>
    <path pointer-events="none" fill="none" stroke="white" stroke-width="1.5" d="M0,-3.0v7 M-2.5,-0.5L0,-3.0L2.5,-0.5"/>
  </g>
  <g id="arrowRight" transform="rotate(90) translate(36 -43)">
    <use xlink:href="#rim"/>
    <path pointer-events="none" fill="none" stroke="white" stroke-width="1.5" d="M0,-3.0v7 M-2.5,-0.5L0,-3.0L2.5,-0.5"/>
  </g>
  <g id="arrowDown" transform="rotate(180) translate(-30 -48)">
    <use xlink:href="#rim"/>
    <path pointer-events="none" fill="none" stroke="white" stroke-width="1.5" d="M0,-3.0v7 M-2.5,-0.5L0,-3.0L2.5,-0.5"/>
  </g>
  <g id="arrowLeft" transform="rotate(270) translate(-36 17)">
    <use xlink:href="#rim"/>
    <path pointer-events="none" fill="none" stroke="white" stroke-width="1.5" d="M0,-3.0v7 M-2.5,-0.5L0,-3.0L2.5,-0.5"/>
  </g>
  <g id="resetDef">
    <use xlink:href="#rim2" fill="#404040"><set attributeName="fill" to="#808080" begin="reset.mouseover" end="reset.mouseout"/></use>
  </g>
</defs>
<script type="application/ecmascript">
var viewWidth = 1148;
var viewHeight = 193;
var sectionId = 'dynsection-0';
</script>
<script type="application/ecmascript" xlink:href="../../svg.min.js"/>
<svg id="graph" class="graph">
<g id="viewport">
<title>src/nonloc/Vbare_nloc.c</title>
<!-- Node1 -->
<g id="Node000001" class="node">
<title>Node1</title>
<g id="a_Node000001"><a xlink:title=" ">
<polygon fill="#999999" stroke="#666666" points="540,-185 419,-185 419,-165.75 540,-165.75 540,-185"/>
<text xml:space="preserve" text-anchor="middle" x="479.5" y="-171.5" font-family="Helvetica,sans-Serif" font-size="10.00">src/nonloc/Vbare_nloc.c</text>
</a>
</g>
</g>
<!-- Node2 -->
<g id="Node000002" class="node">
<title>Node2</title>
<g id="a_Node000002"><a xlink:title=" ">
<polygon fill="#e0e0e0" stroke="#999999" points="61,-129.75 0,-129.75 0,-110.5 61,-110.5 61,-129.75"/>
<text xml:space="preserve" text-anchor="middle" x="30.5" y="-116.25" font-family="Helvetica,sans-Serif" font-size="10.00">complex.h</text>
</a>
</g>
</g>
<!-- Node1&#45;&gt;Node2 -->
<g id="edge1_Node000001_Node000002" class="edge">
<title>Node1&#45;&gt;Node2</title>
<g id="a_edge1_Node000001_Node000002"><a xlink:title=" ">
<path fill="none" stroke="#63b8ff" d="M418.78,-169.85C340.77,-163.58 200.99,-150.78 72.32,-130.06"/>
<polygon fill="#63b8ff" stroke="#63b8ff" points="73.02,-126.62 62.59,-128.47 71.89,-133.53 73.02,-126.62"/>
</a>
</g>
</g>
<!-- Node3 -->
<g id="Node000003" class="node">
<title>Node3</title>
<g id="a_Node000003"><a xlink:title=" ">
<polygon fill="#e0e0e0" stroke="#999999" points="126.25,-129.75 78.75,-129.75 78.75,-110.5 126.25,-110.5 126.25,-129.75"/>
<text xml:space="preserve" text-anchor="middle" x="102.5" y="-116.25" font-family="Helvetica,sans-Serif" font-size="10.00">limits.h</text>
</a>
</g>
</g>
<!-- Node1&#45;&gt;Node3 -->
<g id="edge2_Node000001_Node000003" class="edge">
<title>Node1&#45;&gt;Node3</title>
<g id="a_edge2_Node000001_Node000003"><a xlink:title=" ">
<path fill="none" stroke="#63b8ff" d="M418.54,-168.82C351.85,-162.22 241.63,-149.78 137.59,-129.93"/>
<polygon fill="#63b8ff" stroke="#63b8ff" points="138.54,-126.55 128.06,-128.08 137.21,-133.42 138.54,-126.55"/>
</a>
</g>
</g>
<!-- Node4 -->
<g id="Node000004" class="node">
<title>Node4</title>
<g id="a_Node000004"><a xlink:title=" ">
<polygon fill="#e0e0e0" stroke="#999999" points="190.5,-129.75 144.5,-129.75 144.5,-110.5 190.5,-110.5 190.5,-129.75"/>
<text xml:space="preserve" text-anchor="middle" x="167.5" y="-116.25" font-family="Helvetica,sans-Serif" font-size="10.00">math.h</text>
</a>
</g>
</g>
<!-- Node1&#45;&gt;Node4 -->
<g id="edge3_Node000001_Node000004" class="edge">
<title>Node1&#45;&gt;Node4</title>
<g id="a_edge3_Node000001_Node000004"><a xlink:title=" ">
<path fill="none" stroke="#63b8ff" d="M418.66,-165.72C362.8,-157.48 277.81,-144.23 204.5,-129.75 203.67,-129.59 202.84,-129.42 202,-129.25"/>
<polygon fill="#63b8ff" stroke="#63b8ff" points="202.93,-125.87 192.41,-127.16 201.44,-132.71 202.93,-125.87"/>
</a>
</g>
</g>
<!-- Node5 -->
<g id="Node000005" class="node">
<title>Node5</title>
<g id="a_Node000005"><a xlink:title=" ">
<polygon fill="#e0e0e0" stroke="#999999" points="477.5,-19.25 437.5,-19.25 437.5,0 477.5,0 477.5,-19.25"/>
<text xml:space="preserve" text-anchor="middle" x="457.5" y="-5.75" font-family="Helvetica,sans-Serif" font-size="10.00">mpi.h</text>
</a>
</g>
</g>
<!-- Node1&#45;&gt;Node5 -->
<g id="edge4_Node000001_Node000005" class="edge">
<title>Node1&#45;&gt;Node5</title>
<g id="a_edge4_Node000001_Node000005"><a xlink:title=" ">
<path fill="none" stroke="#63b8ff" d="M418.55,-169.35C365.11,-163.53 293.23,-151.78 275.5,-129.75 228.69,-71.59 362.72,-32.22 426.19,-17.3"/>
<polygon fill="#63b8ff" stroke="#63b8ff" points="426.72,-20.77 435.69,-15.13 425.16,-13.94 426.72,-20.77"/>
</a>
</g>
</g>
<!-- Node6 -->
<g id="Node000006" class="node">
<title>Node6</title>
<g id="a_Node000006"><a xlink:title=" ">
<polygon fill="#e0e0e0" stroke="#999999" points="588.38,-19.25 532.62,-19.25 532.62,0 588.38,0 588.38,-19.25"/>
<text xml:space="preserve" text-anchor="middle" x="560.5" y="-5.75" font-family="Helvetica,sans-Serif" font-size="10.00">stdbool.h</text>
</a>
</g>
</g>
<!-- Node1&#45;&gt;Node6 -->
<g id="edge5_Node000001_Node000006" class="edge">
<title>Node1&#45;&gt;Node6</title>
<g id="a_edge5_Node000001_Node000006"><a xlink:title=" ">
<path fill="none" stroke="#63b8ff" d="M487.59,-165.33C495.04,-156.66 506.04,-142.99 513.5,-129.75 532.1,-96.77 546.75,-54.95 554.48,-30.64"/>
<polygon fill="#63b8ff" stroke="#63b8ff" points="557.81,-31.71 557.42,-21.12 551.13,-29.64 557.81,-31.71"/>
</a>
</g>
</g>
<!-- Node7 -->
<g id="Node000007" class="node">
<title>Node7</title>
<g id="a_Node000007"><a xlink:title=" ">
<polygon fill="#e0e0e0" stroke="#999999" points="332.25,-129.75 284.75,-129.75 284.75,-110.5 332.25,-110.5 332.25,-129.75"/>
<text xml:space="preserve" text-anchor="middle" x="308.5" y="-116.25" font-family="Helvetica,sans-Serif" font-size="10.00">stdlib.h</text>
</a>
</g>
</g>
<!-- Node1&#45;&gt;Node7 -->
<g id="edge6_Node000001_Node000007" class="edge">
<title>Node1&#45;&gt;Node7</title>
<g id="a_edge6_Node000001_Node000007"><a xlink:title=" ">
<path fill="none" stroke="#63b8ff" d="M450.49,-165.34C420.96,-156.15 375.15,-141.88 343.59,-132.05"/>
<polygon fill="#63b8ff" stroke="#63b8ff" points="344.7,-128.73 334.11,-129.1 342.62,-135.42 344.7,-128.73"/>
</a>
</g>
</g>
<!-- Node8 -->
<g id="Node000008" class="node">
<title>Node8</title>
<g id="a_Node000008"><a xlink:title=" ">
<polygon fill="#e0e0e0" stroke="#999999" points="398.62,-129.75 350.38,-129.75 350.38,-110.5 398.62,-110.5 398.62,-129.75"/>
<text xml:space="preserve" text-anchor="middle" x="374.5" y="-116.25" font-family="Helvetica,sans-Serif" font-size="10.00">string.h</text>
</a>
</g>
</g>
<!-- Node1&#45;&gt;Node8 -->
<g id="edge7_Node000001_Node000008" class="edge">
<title>Node1&#45;&gt;Node8</title>
<g id="a_edge7_Node000001_Node000008"><a xlink:title=" ">
<path fill="none" stroke="#63b8ff" d="M461.69,-165.34C445.47,-157.12 421.26,-144.84 402.47,-135.31"/>
<polygon fill="#63b8ff" stroke="#63b8ff" points="404.25,-132.29 393.75,-130.89 401.08,-138.53 404.25,-132.29"/>
</a>
</g>
</g>
<!-- Node9 -->
<g id="Node000009" class="node">
<title>Node9</title>
<g id="a_Node000009"><a xlink:href="../../d9/dd1/_vnonloc_8h.html" target="_top" xlink:title=" ">
<polygon fill="white" stroke="#666666" points="838.25,-129.75 778.75,-129.75 778.75,-110.5 838.25,-110.5 838.25,-129.75"/>
<text xml:space="preserve" text-anchor="middle" x="808.5" y="-116.25" font-family="Helvetica,sans-Serif" font-size="10.00">Vnonloc.h</text>
</a>
</g>
</g>
<!-- Node1&#45;&gt;Node9 -->
<g id="edge8_Node000001_Node000009" class="edge">
<title>Node1&#45;&gt;Node9</title>
<g id="a_edge8_Node000001_Node000009"><a xlink:title=" ">
<path fill="none" stroke="#63b8ff" d="M540.49,-165.52C598.27,-156.96 687.43,-143.33 764.5,-129.75 765.51,-129.57 766.52,-129.39 767.55,-129.21"/>
<polygon fill="#63b8ff" stroke="#63b8ff" points="768.03,-132.68 777.22,-127.4 766.75,-125.8 768.03,-132.68"/>
</a>
</g>
</g>
<!-- Node10 -->
<g id="Node000010" class="node">
<title>Node10</title>
<g id="a_Node000010"><a xlink:href="../../d2/d02/dtypes_8h.html" target="_top" xlink:title=" ">
<polygon fill="white" stroke="#666666" points="504.5,-74.5 410.5,-74.5 410.5,-55.25 504.5,-55.25 504.5,-74.5"/>
<text xml:space="preserve" text-anchor="middle" x="457.5" y="-61" font-family="Helvetica,sans-Serif" font-size="10.00">common/dtypes.h</text>
</a>
</g>
</g>
<!-- Node1&#45;&gt;Node10 -->
<g id="edge18_Node000001_Node000010" class="edge">
<title>Node1&#45;&gt;Node10</title>
<g id="a_edge18_Node000001_Node000010"><a xlink:title=" ">
<path fill="none" stroke="#63b8ff" d="M470.17,-165.48C462.14,-157.13 451.14,-143.84 446.5,-129.75 441.7,-115.19 445.13,-98.03 449.38,-85.16"/>
<polygon fill="#63b8ff" stroke="#63b8ff" points="452.52,-86.76 452.78,-76.17 445.97,-84.29 452.52,-86.76"/>
</a>
</g>
</g>
<!-- Node11 -->
<g id="Node000011" class="node">
<title>Node11</title>
<g id="a_Node000011"><a xlink:href="../../d4/d0a/elph_c_8h.html" target="_top" xlink:title="Core type definitions and configuration for LetzElPhC.">
<polygon fill="white" stroke="#666666" points="833.38,-19.25 783.62,-19.25 783.62,0 833.38,0 833.38,-19.25"/>
<text xml:space="preserve" text-anchor="middle" x="808.5" y="-5.75" font-family="Helvetica,sans-Serif" font-size="10.00">elphC.h</text>
</a>
</g>
</g>
<!-- Node1&#45;&gt;Node11 -->
<g id="edge25_Node000001_Node000011" class="edge">
<title>Node1&#45;&gt;Node11</title>
<g id="a_edge25_Node000001_Node000011"><a xlink:title=" ">
<path fill="none" stroke="#63b8ff" d="M540.15,-171.35C639.38,-165.77 827.49,-152.33 847.5,-129.75 873.48,-100.43 843.64,-53.45 823.64,-28.13"/>
<polygon fill="#63b8ff" stroke="#63b8ff" points="826.61,-26.24 817.55,-20.75 821.21,-30.69 826.61,-26.24"/>
</a>
</g>
</g>
<!-- Node12 -->
<g id="Node000012" class="node">
<title>Node12</title>
<g id="a_Node000012"><a xlink:href="../../da/d41/error_8h.html" target="_top" xlink:title=" ">
<polygon fill="white" stroke="#666666" points="330,-19.25 287,-19.25 287,0 330,0 330,-19.25"/>
<text xml:space="preserve" text-anchor="middle" x="308.5" y="-5.75" font-family="Helvetica,sans-Serif" font-size="10.00">error.h</text>
</a>
</g>
</g>
<!-- Node1&#45;&gt;Node12 -->
<g id="edge19_Node000001_Node000012" class="edge">
<title>Node1&#45;&gt;Node12</title>
<g id="a_edge19_Node000001_Node000012"><a xlink:title=" ">
<path fill="none" stroke="#63b8ff" d="M418.51,-170.27C361.35,-165 281.88,-153.52 262.5,-129.75 237.41,-98.97 269.95,-52.95 291.76,-28.08"/>
<polygon fill="#63b8ff" stroke="#63b8ff" points="294.27,-30.52 298.43,-20.77 289.1,-25.8 294.27,-30.52"/>
</a>
</g>
</g>
<!-- Node13 -->
<g id="Node000013" class="node">
<title>Node13</title>
<g id="a_Node000013"><a xlink:href="../../de/d83/_e_l_p_h__timers_8h.html" target="_top" xlink:title=" ">
<polygon fill="white" stroke="#666666" points="722.12,-129.75 598.88,-129.75 598.88,-110.5 722.12,-110.5 722.12,-129.75"/>
<text xml:space="preserve" text-anchor="middle" x="660.5" y="-116.25" font-family="Helvetica,sans-Serif" font-size="10.00">common/ELPH_timers.h</text>
</a>
</g>
</g>
<!-- Node1&#45;&gt;Node13 -->
<g id="edge15_Node000001_Node000013" class="edge">
<title>Node1&#45;&gt;Node13</title>
<g id="a_edge15_Node000001_Node000013"><a xlink:title=" ">
<path fill="none" stroke="#63b8ff" d="M510.2,-165.34C540.11,-156.54 585.78,-143.11 618.92,-133.36"/>
<polygon fill="#63b8ff" stroke="#63b8ff" points="619.59,-136.81 628.19,-130.63 617.61,-130.09 619.59,-136.81"/>
</a>
</g>
</g>
<!-- Node14 -->
<g id="Node000014" class="node">
<title>Node14</title>
<g id="a_Node000014"><a xlink:href="../../d2/d6f/constants_8h.html" target="_top" xlink:title=" ">
<polygon fill="white" stroke="#666666" points="982.25,-74.5 874.75,-74.5 874.75,-55.25 982.25,-55.25 982.25,-74.5"/>
<text xml:space="preserve" text-anchor="middle" x="928.5" y="-61" font-family="Helvetica,sans-Serif" font-size="10.00">common/constants.h</text>
</a>
</g>
</g>
<!-- Node1&#45;&gt;Node14 -->
<g id="edge16_Node000001_Node000014" class="edge">
<title>Node1&#45;&gt;Node14</title>
<g id="a_edge16_Node000001_Node000014"><a xlink:title=" ">
<path fill="none" stroke="#63b8ff" d="M540.36,-173.43C637.87,-170.97 823.92,-162.04 880.5,-129.75 898.36,-119.56 911.63,-99.76 919.64,-84.89"/>
<polygon fill="#63b8ff" stroke="#63b8ff" points="922.7,-86.58 924.05,-76.08 916.44,-83.45 922.7,-86.58"/>
</a>
</g>
</g>
<!-- Node15 -->
<g id="Node000015" class="node">
<title>Node15</title>
<g id="a_Node000015"><a xlink:href="../../df/def/numerical__func_8h.html" target="_top" xlink:title=" ">
<polygon fill="white" stroke="#666666" points="780.88,-74.5 650.12,-74.5 650.12,-55.25 780.88,-55.25 780.88,-74.5"/>
<text xml:space="preserve" text-anchor="middle" x="715.5" y="-61" font-family="Helvetica,sans-Serif" font-size="10.00">common/numerical_func.h</text>
</a>
</g>
</g>
<!-- Node1&#45;&gt;Node15 -->
<g id="edge20_Node000001_Node000015" class="edge">
<title>Node1&#45;&gt;Node15</title>
<g id="a_edge20_Node000001_Node000015"><a xlink:title=" ">
<path fill="none" stroke="#63b8ff" d="M540.46,-172.29C607.09,-168.57 707.59,-158.26 731.5,-129.75 742.15,-117.05 735.6,-98.23 727.92,-84.31"/>
<polygon fill="#63b8ff" stroke="#63b8ff" points="731.09,-82.79 722.88,-76.09 725.12,-86.45 731.09,-82.79"/>
</a>
</g>
</g>
<!-- Node16 -->
<g id="Node000016" class="node">
<title>Node16</title>
<g id="a_Node000016"><a xlink:href="../../d2/d8d/omp__pragma__def_8h.html" target="_top" xlink:title=" ">
<polygon fill="white" stroke="#666666" points="1140.38,-74.5 1000.62,-74.5 1000.62,-55.25 1140.38,-55.25 1140.38,-74.5"/>
<text xml:space="preserve" text-anchor="middle" x="1070.5" y="-61" font-family="Helvetica,sans-Serif" font-size="10.00">common/omp_pragma_def.h</text>
</a>
</g>
</g>
<!-- Node1&#45;&gt;Node16 -->
<g id="edge23_Node000001_Node000016" class="edge">
<title>Node1&#45;&gt;Node16</title>
<g id="a_edge23_Node000001_Node000016"><a xlink:title=" ">
<path fill="none" stroke="#63b8ff" d="M540.32,-173.05C623.76,-170.09 777.91,-160.55 905.5,-129.75 955.13,-117.77 1009.87,-94.42 1042.16,-79.51"/>
<polygon fill="#63b8ff" stroke="#63b8ff" points="1043.27,-82.86 1050.84,-75.45 1040.3,-76.52 1043.27,-82.86"/>
</a>
</g>
</g>
<!-- Node17 -->
<g id="Node000017" class="node">
<title>Node17</title>
<g id="a_Node000017"><a xlink:href="../../da/d90/fcoeff_8h.html" target="_top" xlink:title=" ">
<polygon fill="white" stroke="#666666" points="504,-129.75 455,-129.75 455,-110.5 504,-110.5 504,-129.75"/>
<text xml:space="preserve" text-anchor="middle" x="479.5" y="-116.25" font-family="Helvetica,sans-Serif" font-size="10.00">fcoeff.h</text>
</a>
</g>
</g>
<!-- Node1&#45;&gt;Node17 -->
<g id="edge26_Node000001_Node000017" class="edge">
<title>Node1&#45;&gt;Node17</title>
<g id="a_edge26_Node000001_Node000017"><a xlink:title=" ">
<path fill="none" stroke="#63b8ff" d="M479.5,-165.58C479.5,-159.07 479.5,-149.92 479.5,-141.62"/>
<polygon fill="#63b8ff" stroke="#63b8ff" points="483,-141.62 479.5,-131.62 476,-141.62 483,-141.62"/>
</a>
</g>
</g>
<!-- Node18 -->
<g id="Node000018" class="node">
<title>Node18</title>
<g id="a_Node000018"><a xlink:href="../../d1/dea/wfc_8h.html" target="_top" xlink:title=" ">
<polygon fill="white" stroke="#666666" points="618.88,-74.5 560.12,-74.5 560.12,-55.25 618.88,-55.25 618.88,-74.5"/>
<text xml:space="preserve" text-anchor="middle" x="589.5" y="-61" font-family="Helvetica,sans-Serif" font-size="10.00">wfc/wfc.h</text>
</a>
</g>
</g>
<!-- Node1&#45;&gt;Node18 -->
<g id="edge28_Node000001_Node000018" class="edge">
<title>Node1&#45;&gt;Node18</title>
<g id="a_edge28_Node000001_Node000018"><a xlink:title=" ">
<path fill="none" stroke="#63b8ff" d="M496.81,-165.36C511.19,-157.32 531.64,-144.54 546.5,-129.75 559.96,-116.36 571.72,-98.16 579.52,-84.62"/>
<polygon fill="#63b8ff" stroke="#63b8ff" points="582.37,-86.7 584.16,-76.26 576.25,-83.31 582.37,-86.7"/>
</a>
</g>
</g>
<!-- Node9&#45;&gt;Node10 -->
<g id="edge9_Node000009_Node000010" class="edge">
<title>Node9&#45;&gt;Node10</title>
<g id="a_edge9_Node000009_Node000010"><a xlink:title=" ">
<path fill="none" stroke="#63b8ff" d="M778.27,-114.54C720.06,-105.71 591.52,-86.21 516.02,-74.75"/>
<polygon fill="#63b8ff" stroke="#63b8ff" points="516.73,-71.32 506.32,-73.28 515.68,-78.24 516.73,-71.32"/>
</a>
</g>
</g>
<!-- Node9&#45;&gt;Node11 -->
<g id="edge14_Node000009_Node000011" class="edge">
<title>Node9&#45;&gt;Node11</title>
<g id="a_edge14_Node000009_Node000011"><a xlink:title=" ">
<path fill="none" stroke="#63b8ff" d="M808.5,-110.25C808.5,-93 808.5,-54.58 808.5,-30.81"/>
<polygon fill="#63b8ff" stroke="#63b8ff" points="812,-31.14 808.5,-21.14 805,-31.14 812,-31.14"/>
</a>
</g>
</g>
<!-- Node10&#45;&gt;Node5 -->
<g id="edge10_Node000010_Node000005" class="edge">
<title>Node10&#45;&gt;Node5</title>
<g id="a_edge10_Node000010_Node000005"><a xlink:title=" ">
<path fill="none" stroke="#63b8ff" d="M457.5,-55.08C457.5,-48.57 457.5,-39.42 457.5,-31.12"/>
<polygon fill="#63b8ff" stroke="#63b8ff" points="461,-31.12 457.5,-21.12 454,-31.12 461,-31.12"/>
</a>
</g>
</g>
<!-- Node10&#45;&gt;Node6 -->
<g id="edge11_Node000010_Node000006" class="edge">
<title>Node10&#45;&gt;Node6</title>
<g id="a_edge11_Node000010_Node000006"><a xlink:title=" ">
<path fill="none" stroke="#63b8ff" d="M474.97,-54.84C490.81,-46.66 514.41,-34.46 532.81,-24.94"/>
<polygon fill="#63b8ff" stroke="#63b8ff" points="534.32,-28.1 541.6,-20.4 531.11,-21.88 534.32,-28.1"/>
</a>
</g>
</g>
<!-- Node10&#45;&gt;Node11 -->
<g id="edge12_Node000010_Node000011" class="edge">
<title>Node10&#45;&gt;Node11</title>
<g id="a_edge12_Node000010_Node000011"><a xlink:title=" ">
<path fill="none" stroke="#63b8ff" d="M504.84,-56.69C575.83,-45.92 708.34,-25.82 772.23,-16.13"/>
<polygon fill="#63b8ff" stroke="#63b8ff" points="772.47,-19.63 781.83,-14.67 771.42,-12.71 772.47,-19.63"/>
</a>
</g>
</g>
<!-- Node10&#45;&gt;Node12 -->
<g id="edge13_Node000010_Node000012" class="edge">
<title>Node10&#45;&gt;Node12</title>
<g id="a_edge13_Node000010_Node000012"><a xlink:title=" ">
<path fill="none" stroke="#63b8ff" d="M432.22,-54.84C407.12,-45.87 368.52,-32.08 341.12,-22.28"/>
<polygon fill="#63b8ff" stroke="#63b8ff" points="342.52,-19.06 331.92,-19 340.16,-25.66 342.52,-19.06"/>
</a>
</g>
</g>
<!-- Node14&#45;&gt;Node11 -->
<g id="edge17_Node000014_Node000011" class="edge">
<title>Node14&#45;&gt;Node11</title>
<g id="a_edge17_Node000014_Node000011"><a xlink:title=" ">
<path fill="none" stroke="#63b8ff" d="M908.14,-54.84C889.27,-46.47 860.91,-33.88 839.27,-24.28"/>
<polygon fill="#63b8ff" stroke="#63b8ff" points="840.9,-21.17 830.34,-20.32 838.06,-27.57 840.9,-21.17"/>
</a>
</g>
</g>
<!-- Node15&#45;&gt;Node6 -->
<g id="edge21_Node000015_Node000006" class="edge">
<title>Node15&#45;&gt;Node6</title>
<g id="a_edge21_Node000015_Node000006"><a xlink:title=" ">
<path fill="none" stroke="#63b8ff" d="M689.21,-54.84C664.04,-46.2 625.85,-33.07 597.59,-23.37"/>
<polygon fill="#63b8ff" stroke="#63b8ff" points="598.95,-20.13 588.35,-20.19 596.67,-26.75 598.95,-20.13"/>
</a>
</g>
</g>
<!-- Node15&#45;&gt;Node11 -->
<g id="edge22_Node000015_Node000011" class="edge">
<title>Node15&#45;&gt;Node11</title>
<g id="a_edge22_Node000015_Node000011"><a xlink:title=" ">
<path fill="none" stroke="#63b8ff" d="M731.28,-54.84C745.44,-46.73 766.48,-34.68 783.03,-25.21"/>
<polygon fill="#63b8ff" stroke="#63b8ff" points="784.39,-28.46 791.33,-20.45 780.92,-22.39 784.39,-28.46"/>
</a>
</g>
</g>
<!-- Node16&#45;&gt;Node11 -->
<g id="edge24_Node000016_Node000011" class="edge">
<title>Node16&#45;&gt;Node11</title>
<g id="a_edge24_Node000016_Node000011"><a xlink:title=" ">
<path fill="none" stroke="#63b8ff" d="M1025.76,-54.78C974.69,-44.4 892.15,-27.63 844.87,-18.02"/>
<polygon fill="#63b8ff" stroke="#63b8ff" points="845.63,-14.6 835.13,-16.04 844.24,-21.46 845.63,-14.6"/>
</a>
</g>
</g>
<!-- Node17&#45;&gt;Node10 -->
<g id="edge27_Node000017_Node000010" class="edge">
<title>Node17&#45;&gt;Node10</title>
<g id="a_edge27_Node000017_Node000010"><a xlink:title=" ">
<path fill="none" stroke="#63b8ff" d="M475.87,-110.33C473.08,-103.59 469.13,-94.02 465.6,-85.49"/>
<polygon fill="#63b8ff" stroke="#63b8ff" points="468.84,-84.16 461.79,-76.26 462.37,-86.84 468.84,-84.16"/>
</a>
</g>
</g>
<!-- Node18&#45;&gt;Node5 -->
<g id="edge29_Node000018_Node000005" class="edge">
<title>Node18&#45;&gt;Node5</title>
<g id="a_edge29_Node000018_Node000005"><a xlink:title=" ">
<path fill="none" stroke="#63b8ff" d="M567.11,-54.84C545.42,-46.09 512.36,-32.76 488.22,-23.02"/>
<polygon fill="#63b8ff" stroke="#63b8ff" points="489.82,-19.89 479.23,-19.39 487.2,-26.38 489.82,-19.89"/>
</a>
</g>
</g>
<!-- Node18&#45;&gt;Node6 -->
<g id="edge30_Node000018_Node000006" class="edge">
<title>Node18&#45;&gt;Node6</title>
<g id="a_edge30_Node000018_Node000006"><a xlink:title=" ">
<path fill="none" stroke="#63b8ff" d="M584.71,-55.08C580.96,-48.19 575.59,-38.34 570.87,-29.66"/>
<polygon fill="#63b8ff" stroke="#63b8ff" points="573.97,-28.05 566.12,-20.94 567.83,-31.39 573.97,-28.05"/>
</a>
</g>
</g>
<!-- Node18&#45;&gt;Node11 -->
<g id="edge31_Node000018_Node000011" class="edge">
<title>Node18&#45;&gt;Node11</title>
<g id="a_edge31_Node000018_Node000011"><a xlink:title=" ">
<path fill="none" stroke="#63b8ff" d="M619.04,-56.69C658.71,-47.05 729.19,-29.91 772.1,-19.48"/>
<polygon fill="#63b8ff" stroke="#63b8ff" points="772.8,-22.91 781.69,-17.14 771.15,-16.11 772.8,-22.91"/>
</a>
</g>
</g>
</g>
</svg>

<g id="navigator" transform="translate(0 0)" fill="#404254">
  <rect fill="#f2f5e9" fill-opacity="0.5" stroke="#606060" stroke-width=".5" x="0" y="0" width="60" height="60"/>
  <use id="zoomplus" xlink:href="#zoomPlus" x="17" y="9" onmousedown="handleZoom(evt,'in')"/>
  <use id="zoomminus" xlink:href="#zoomMin" x="42" y="9" onmousedown="handleZoom(evt,'out')"/>
  <use id="reset" xlink:href="#resetDef" x="30" y="36" onmousedown="handleReset()"/>
   <use id="arrowup" xlink:href="#arrowUp" x="0" y="0" onmousedown="handlePan(0,-1)"/>
  <use id="arrowright" xlink:href="#arrowRight" x="0" y="0" onmousedown="handlePan(1,0)"/>
  <use id="arrowdown" xlink:href="#arrowDown" x="0" y="0" onmousedown="handlePan(0,1)"/>
  <use id="arrowleft" xlink:href="#arrowLeft" x="0" y="0" onmousedown="handlePan(-1,0)"/>
</g>
<svg viewBox="0 0 15 15" width="100%" height="30px" preserveAspectRatio="xMaxYMin meet">
 <g id="arrow_out" transform="scale(0.3 0.3)">
  <a xlink:href="_vbare__nloc_8c__incl_org.svg" target="_base">
   <rect id="button" ry="5" rx="5" y="6" x="6" height="38" width="38"
        fill="#f2f5e9" fill-opacity="0.5" stroke="#606060" stroke-width="1.0"/>
   <path id="arrow"
     d="M 11.500037,31.436501 C 11.940474,20.09759 22.043105,11.32322 32.158766,21.979434 L 37.068811,17.246167 C 37.068811,17.246167 37.088388,32 37.088388,32 L 22.160133,31.978069 C 22.160133,31.978069 26.997745,27.140456 26.997745,27.140456 C 18.528582,18.264221 13.291696,25.230495 11.500037,31.436501 z"
     style="fill:#404040;"/>
  </a>
 </g>
</svg>

<style type='text/css'>
<![CDATA[
[data-mouse-over-selected='false'] { opacity: 0.7; }
[data-mouse-over-selected='true']  { opacity: 1.0; }
]]>
</style>
<script type="application/ecmascript"><![CDATA[
document.addEventListener('DOMContentLoaded', (event) => {
  highlightEdges();
  highlightAdjacentNodes();
});
]]></script>
</svg>
