<?xml version="1.0" encoding="UTF-8" standalone="no"?>
<!DOCTYPE svg PUBLIC "-//W3C//DTD SVG 1.1//EN"
 "http://www.w3.org/Graphics/SVG/1.1/DTD/svg11.dtd">
<!-- Generated by graphviz version 14.0.0 (20250921.2048)
 -->
<!-- Title: src/common/print_info.c Pages: 1 -->
<svg width="628pt" height="193pt"
 viewBox="0.00 0.00 628.00 193.00" xmlns="http://www.w3.org/2000/svg" xmlns:xlink="http://www.w3.org/1999/xlink">
<g id="graph0" class="graph" transform="scale(1 1) rotate(0) translate(4 189)">
<title>src/common/print_info.c</title>
<!-- Node1 -->
<g id="Node000001" class="node">
<title>Node1</title>
<g id="a_Node000001"><a xlink:title=" ">
<polygon fill="#999999" stroke="#666666" points="327.5,-185 206.5,-185 206.5,-165.75 327.5,-165.75 327.5,-185"/>
<text xml:space="preserve" text-anchor="middle" x="267" y="-171.5" font-family="Helvetica,sans-Serif" font-size="10.00">src/common/print_info.c</text>
</a>
</g>
</g>
<!-- Node2 -->
<g id="Node000002" class="node">
<title>Node2</title>
<g id="a_Node000002"><a xlink:href="../../dd/de4/print__info_8h.html" target="_top" xlink:title=" ">
<polygon fill="white" stroke="#666666" points="149,-129.75 85,-129.75 85,-110.5 149,-110.5 149,-129.75"/>
<text xml:space="preserve" text-anchor="middle" x="117" y="-116.25" font-family="Helvetica,sans-Serif" font-size="10.00">print_info.h</text>
</a>
</g>
</g>
<!-- Node1&#45;&gt;Node2 -->
<g id="edge1_Node000001_Node000002" class="edge">
<title>Node1&#45;&gt;Node2</title>
<g id="a_edge1_Node000001_Node000002"><a xlink:title=" ">
<path fill="none" stroke="#63b8ff" d="M241.55,-165.34C217.31,-156.74 180.57,-143.69 153.26,-134"/>
<polygon fill="#63b8ff" stroke="#63b8ff" points="154.59,-130.76 144,-130.71 152.25,-137.35 154.59,-130.76"/>
</a>
</g>
</g>
<!-- Node3 -->
<g id="Node000003" class="node">
<title>Node3</title>
<g id="a_Node000003"><a xlink:title=" ">
<polygon fill="#e0e0e0" stroke="#999999" points="78.62,-74.5 33.38,-74.5 33.38,-55.25 78.62,-55.25 78.62,-74.5"/>
<text xml:space="preserve" text-anchor="middle" x="56" y="-61" font-family="Helvetica,sans-Serif" font-size="10.00">stdio.h</text>
</a>
</g>
</g>
<!-- Node1&#45;&gt;Node3 -->
<g id="edge14_Node000001_Node000003" class="edge">
<title>Node1&#45;&gt;Node3</title>
<g id="a_edge14_Node000001_Node000003"><a xlink:title=" ">
<path fill="none" stroke="#63b8ff" d="M206.47,-166.84C157.91,-159.63 94.84,-147.25 76,-129.75 63.88,-118.5 59.06,-100.02 57.16,-85.82"/>
<polygon fill="#63b8ff" stroke="#63b8ff" points="60.68,-85.88 56.28,-76.25 53.71,-86.52 60.68,-85.88"/>
</a>
</g>
</g>
<!-- Node4 -->
<g id="Node000004" class="node">
<title>Node4</title>
<g id="a_Node000004"><a xlink:href="../../d2/d02/dtypes_8h.html" target="_top" xlink:title=" ">
<polygon fill="white" stroke="#666666" points="188.75,-74.5 135.25,-74.5 135.25,-55.25 188.75,-55.25 188.75,-74.5"/>
<text xml:space="preserve" text-anchor="middle" x="162" y="-61" font-family="Helvetica,sans-Serif" font-size="10.00">dtypes.h</text>
</a>
</g>
</g>
<!-- Node1&#45;&gt;Node4 -->
<g id="edge18_Node000001_Node000004" class="edge">
<title>Node1&#45;&gt;Node4</title>
<g id="a_edge18_Node000001_Node000004"><a xlink:title=" ">
<path fill="none" stroke="#63b8ff" d="M250.1,-165.38C236.08,-157.34 216.21,-144.57 202,-129.75 189.27,-116.47 178.45,-98.5 171.29,-85.01"/>
<polygon fill="#63b8ff" stroke="#63b8ff" points="174.51,-83.61 166.86,-76.28 168.26,-86.78 174.51,-83.61"/>
</a>
</g>
</g>
<!-- Node5 -->
<g id="Node000005" class="node">
<title>Node5</title>
<g id="a_Node000005"><a xlink:title=" ">
<polygon fill="#e0e0e0" stroke="#999999" points="40,-19.25 0,-19.25 0,0 40,0 40,-19.25"/>
<text xml:space="preserve" text-anchor="middle" x="20" y="-5.75" font-family="Helvetica,sans-Serif" font-size="10.00">mpi.h</text>
</a>
</g>
</g>
<!-- Node1&#45;&gt;Node5 -->
<g id="edge10_Node000001_Node000005" class="edge">
<title>Node1&#45;&gt;Node5</title>
<g id="a_edge10_Node000001_Node000005"><a xlink:title=" ">
<path fill="none" stroke="#63b8ff" d="M206.46,-173.35C162.4,-169.91 103.15,-159.45 60,-129.75 35.86,-113.13 33.22,-102.32 24,-74.5 19.33,-60.42 18.45,-43.65 18.67,-30.83"/>
<polygon fill="#63b8ff" stroke="#63b8ff" points="22.15,-31.23 19.09,-21.08 15.16,-30.92 22.15,-31.23"/>
</a>
</g>
</g>
<!-- Node6 -->
<g id="Node000006" class="node">
<title>Node6</title>
<g id="a_Node000006"><a xlink:title=" ">
<polygon fill="#e0e0e0" stroke="#999999" points="256.88,-19.25 201.12,-19.25 201.12,0 256.88,0 256.88,-19.25"/>
<text xml:space="preserve" text-anchor="middle" x="229" y="-5.75" font-family="Helvetica,sans-Serif" font-size="10.00">stdbool.h</text>
</a>
</g>
</g>
<!-- Node1&#45;&gt;Node6 -->
<g id="edge12_Node000001_Node000006" class="edge">
<title>Node1&#45;&gt;Node6</title>
<g id="a_edge12_Node000001_Node000006"><a xlink:title=" ">
<path fill="none" stroke="#63b8ff" d="M258.11,-165.37C250.44,-156.94 239.84,-143.61 235,-129.75 223.42,-96.61 224.54,-55.12 226.63,-30.87"/>
<polygon fill="#63b8ff" stroke="#63b8ff" points="230.09,-31.43 227.62,-21.13 223.12,-30.72 230.09,-31.43"/>
</a>
</g>
</g>
<!-- Node9 -->
<g id="Node000009" class="node">
<title>Node9</title>
<g id="a_Node000009"><a xlink:title=" ">
<polygon fill="#e0e0e0" stroke="#999999" points="290,-129.75 244,-129.75 244,-110.5 290,-110.5 290,-129.75"/>
<text xml:space="preserve" text-anchor="middle" x="267" y="-116.25" font-family="Helvetica,sans-Serif" font-size="10.00">math.h</text>
</a>
</g>
</g>
<!-- Node1&#45;&gt;Node9 -->
<g id="edge9_Node000001_Node000009" class="edge">
<title>Node1&#45;&gt;Node9</title>
<g id="a_edge9_Node000001_Node000009"><a xlink:title=" ">
<path fill="none" stroke="#63b8ff" d="M267,-165.58C267,-159.07 267,-149.92 267,-141.62"/>
<polygon fill="#63b8ff" stroke="#63b8ff" points="270.5,-141.62 267,-131.62 263.5,-141.62 270.5,-141.62"/>
</a>
</g>
</g>
<!-- Node10 -->
<g id="Node000010" class="node">
<title>Node10</title>
<g id="a_Node000010"><a xlink:title=" ">
<polygon fill="#e0e0e0" stroke="#999999" points="359.62,-129.75 308.38,-129.75 308.38,-110.5 359.62,-110.5 359.62,-129.75"/>
<text xml:space="preserve" text-anchor="middle" x="334" y="-116.25" font-family="Helvetica,sans-Serif" font-size="10.00">stdarg.h</text>
</a>
</g>
</g>
<!-- Node1&#45;&gt;Node10 -->
<g id="edge11_Node000001_Node000010" class="edge">
<title>Node1&#45;&gt;Node10</title>
<g id="a_edge11_Node000001_Node000010"><a xlink:title=" ">
<path fill="none" stroke="#63b8ff" d="M278.37,-165.34C288.05,-157.65 302.2,-146.4 313.81,-137.18"/>
<polygon fill="#63b8ff" stroke="#63b8ff" points="315.97,-139.93 321.62,-130.97 311.61,-134.45 315.97,-139.93"/>
</a>
</g>
</g>
<!-- Node11 -->
<g id="Node000011" class="node">
<title>Node11</title>
<g id="a_Node000011"><a xlink:title=" ">
<polygon fill="#e0e0e0" stroke="#999999" points="426.12,-129.75 377.88,-129.75 377.88,-110.5 426.12,-110.5 426.12,-129.75"/>
<text xml:space="preserve" text-anchor="middle" x="402" y="-116.25" font-family="Helvetica,sans-Serif" font-size="10.00">stdint.h</text>
</a>
</g>
</g>
<!-- Node1&#45;&gt;Node11 -->
<g id="edge13_Node000001_Node000011" class="edge">
<title>Node1&#45;&gt;Node11</title>
<g id="a_edge13_Node000001_Node000011"><a xlink:title=" ">
<path fill="none" stroke="#63b8ff" d="M289.9,-165.34C311.43,-156.85 343.91,-144.04 368.38,-134.39"/>
<polygon fill="#63b8ff" stroke="#63b8ff" points="369.56,-137.68 377.58,-130.76 366.99,-131.17 369.56,-137.68"/>
</a>
</g>
</g>
<!-- Node12 -->
<g id="Node000012" class="node">
<title>Node12</title>
<g id="a_Node000012"><a xlink:title=" ">
<polygon fill="#e0e0e0" stroke="#999999" points="491.75,-129.75 444.25,-129.75 444.25,-110.5 491.75,-110.5 491.75,-129.75"/>
<text xml:space="preserve" text-anchor="middle" x="468" y="-116.25" font-family="Helvetica,sans-Serif" font-size="10.00">stdlib.h</text>
</a>
</g>
</g>
<!-- Node1&#45;&gt;Node12 -->
<g id="edge15_Node000001_Node000012" class="edge">
<title>Node1&#45;&gt;Node12</title>
<g id="a_edge15_Node000001_Node000012"><a xlink:title=" ">
<path fill="none" stroke="#63b8ff" d="M301.1,-165.34C337.84,-155.61 396.02,-140.19 433.08,-130.38"/>
<polygon fill="#63b8ff" stroke="#63b8ff" points="433.62,-133.85 442.39,-127.91 431.83,-127.09 433.62,-133.85"/>
</a>
</g>
</g>
<!-- Node13 -->
<g id="Node000013" class="node">
<title>Node13</title>
<g id="a_Node000013"><a xlink:title=" ">
<polygon fill="#e0e0e0" stroke="#999999" points="558.12,-129.75 509.88,-129.75 509.88,-110.5 558.12,-110.5 558.12,-129.75"/>
<text xml:space="preserve" text-anchor="middle" x="534" y="-116.25" font-family="Helvetica,sans-Serif" font-size="10.00">string.h</text>
</a>
</g>
</g>
<!-- Node1&#45;&gt;Node13 -->
<g id="edge16_Node000001_Node000013" class="edge">
<title>Node1&#45;&gt;Node13</title>
<g id="a_edge16_Node000001_Node000013"><a xlink:title=" ">
<path fill="none" stroke="#63b8ff" d="M320.18,-165.28C365.24,-157.34 431.8,-145.07 498.41,-130.22"/>
<polygon fill="#63b8ff" stroke="#63b8ff" points="499.07,-133.66 508.06,-128.05 497.54,-126.83 499.07,-133.66"/>
</a>
</g>
</g>
<!-- Node14 -->
<g id="Node000014" class="node">
<title>Node14</title>
<g id="a_Node000014"><a xlink:title=" ">
<polygon fill="#e0e0e0" stroke="#999999" points="619.5,-129.75 576.5,-129.75 576.5,-110.5 619.5,-110.5 619.5,-129.75"/>
<text xml:space="preserve" text-anchor="middle" x="598" y="-116.25" font-family="Helvetica,sans-Serif" font-size="10.00">time.h</text>
</a>
</g>
</g>
<!-- Node1&#45;&gt;Node14 -->
<g id="edge17_Node000001_Node000014" class="edge">
<title>Node1&#45;&gt;Node14</title>
<g id="a_edge17_Node000001_Node000014"><a xlink:title=" ">
<path fill="none" stroke="#63b8ff" d="M327.73,-167.58C386.11,-160.54 477.01,-148.28 564.82,-129.97"/>
<polygon fill="#63b8ff" stroke="#63b8ff" points="565.53,-133.4 574.59,-127.9 564.08,-126.55 565.53,-133.4"/>
</a>
</g>
</g>
<!-- Node2&#45;&gt;Node3 -->
<g id="edge2_Node000002_Node000003" class="edge">
<title>Node2&#45;&gt;Node3</title>
<g id="a_edge2_Node000002_Node000003"><a xlink:title=" ">
<path fill="none" stroke="#63b8ff" d="M106.65,-110.09C97.92,-102.47 85.21,-91.37 74.7,-82.2"/>
<polygon fill="#63b8ff" stroke="#63b8ff" points="77.17,-79.71 67.34,-75.77 72.57,-84.98 77.17,-79.71"/>
</a>
</g>
</g>
<!-- Node2&#45;&gt;Node4 -->
<g id="edge3_Node000002_Node000004" class="edge">
<title>Node2&#45;&gt;Node4</title>
<g id="a_edge3_Node000002_Node000004"><a xlink:title=" ">
<path fill="none" stroke="#63b8ff" d="M124.43,-110.33C130.58,-103.05 139.51,-92.48 147.13,-83.48"/>
<polygon fill="#63b8ff" stroke="#63b8ff" points="149.65,-85.91 153.43,-76.02 144.3,-81.39 149.65,-85.91"/>
</a>
</g>
</g>
<!-- Node7 -->
<g id="Node000007" class="node">
<title>Node7</title>
<g id="a_Node000007"><a xlink:href="../../d4/d0a/elph_c_8h.html" target="_top" xlink:title="Core type definitions and configuration for LetzElPhC.">
<polygon fill="white" stroke="#666666" points="122.88,-19.25 73.12,-19.25 73.12,0 122.88,0 122.88,-19.25"/>
<text xml:space="preserve" text-anchor="middle" x="98" y="-5.75" font-family="Helvetica,sans-Serif" font-size="10.00">elphC.h</text>
</a>
</g>
</g>
<!-- Node2&#45;&gt;Node7 -->
<g id="edge8_Node000002_Node000007" class="edge">
<title>Node2&#45;&gt;Node7</title>
<g id="a_edge8_Node000002_Node000007"><a xlink:title=" ">
<path fill="none" stroke="#63b8ff" d="M115.45,-110.25C112.43,-93 105.7,-54.58 101.54,-30.81"/>
<polygon fill="#63b8ff" stroke="#63b8ff" points="105.01,-30.36 99.84,-21.12 98.11,-31.57 105.01,-30.36"/>
</a>
</g>
</g>
<!-- Node4&#45;&gt;Node5 -->
<g id="edge4_Node000004_Node000005" class="edge">
<title>Node4&#45;&gt;Node5</title>
<g id="a_edge4_Node000004_Node000005"><a xlink:title=" ">
<path fill="none" stroke="#63b8ff" d="M137.91,-54.84C113.82,-45.81 76.68,-31.88 50.53,-22.07"/>
<polygon fill="#63b8ff" stroke="#63b8ff" points="52.08,-18.92 41.48,-18.68 49.62,-25.47 52.08,-18.92"/>
</a>
</g>
</g>
<!-- Node4&#45;&gt;Node6 -->
<g id="edge5_Node000004_Node000006" class="edge">
<title>Node4&#45;&gt;Node6</title>
<g id="a_edge5_Node000004_Node000006"><a xlink:title=" ">
<path fill="none" stroke="#63b8ff" d="M173.37,-54.84C183.05,-47.15 197.2,-35.9 208.81,-26.68"/>
<polygon fill="#63b8ff" stroke="#63b8ff" points="210.97,-29.43 216.62,-20.47 206.61,-23.95 210.97,-29.43"/>
</a>
</g>
</g>
<!-- Node4&#45;&gt;Node7 -->
<g id="edge6_Node000004_Node000007" class="edge">
<title>Node4&#45;&gt;Node7</title>
<g id="a_edge6_Node000004_Node000007"><a xlink:title=" ">
<path fill="none" stroke="#63b8ff" d="M151.14,-54.84C141.89,-47.15 128.38,-35.9 117.29,-26.68"/>
<polygon fill="#63b8ff" stroke="#63b8ff" points="119.79,-24.2 109.86,-20.49 115.31,-29.58 119.79,-24.2"/>
</a>
</g>
</g>
<!-- Node8 -->
<g id="Node000008" class="node">
<title>Node8</title>
<g id="a_Node000008"><a xlink:href="../../da/d41/error_8h.html" target="_top" xlink:title=" ">
<polygon fill="white" stroke="#666666" points="183.5,-19.25 140.5,-19.25 140.5,0 183.5,0 183.5,-19.25"/>
<text xml:space="preserve" text-anchor="middle" x="162" y="-5.75" font-family="Helvetica,sans-Serif" font-size="10.00">error.h</text>
</a>
</g>
</g>
<!-- Node4&#45;&gt;Node8 -->
<g id="edge7_Node000004_Node000008" class="edge">
<title>Node4&#45;&gt;Node8</title>
<g id="a_edge7_Node000004_Node000008"><a xlink:title=" ">
<path fill="none" stroke="#63b8ff" d="M162,-55.08C162,-48.57 162,-39.42 162,-31.12"/>
<polygon fill="#63b8ff" stroke="#63b8ff" points="165.5,-31.12 162,-21.12 158.5,-31.12 165.5,-31.12"/>
</a>
</g>
</g>
</g>
</svg>
