<?xml version="1.0" encoding="UTF-8" standalone="no"?>
<!DOCTYPE svg PUBLIC "-//W3C//DTD SVG 1.1//EN"
 "http://www.w3.org/Graphics/SVG/1.1/DTD/svg11.dtd">
<!-- Generated by graphviz version 14.0.0 (20250921.2048)
 -->
<!-- Title: invfft3D Pages: 1 -->
<!--zoomable 103 -->

<svg id="main" version="1.1" xmlns="http://www.w3.org/2000/svg" xmlns:xlink="http://www.w3.org/1999/xlink" xml:space="preserve" onload="init(evt)">

<style type="text/css"><![CDATA[
.node, .edge {opacity: 0.7;}
.node.selected, .edge.selected {opacity: 1;}
.edge:hover path { stroke: red; }
.edge:hover polygon { stroke: red; fill: red; }
]]></style>

<defs>
  <circle id="rim" cx="0" cy="0" r="7"/>
  <circle id="rim2" cx="0" cy="0" r="3.5"/>
  <g id="zoomPlus">
    <use xlink:href="#rim" fill="#404040"><set attributeName="fill" to="#808080" begin="zoomplus.mouseover" end="zoomplus.mouseout"/></use>
    <path d="M-4,0h8M0,-4v8" fill="none" stroke="white" stroke-width="1.5" pointer-events="none"/>
  </g>
  <g id="zoomMin">
    <use xlink:href="#rim" fill="#404040"><set attributeName="fill" to="#808080" begin="zoomminus.mouseover" end="zoomminus.mouseout"/></use>
    <path d="M-4,0h8" fill="none" stroke="white" stroke-width="1.5" pointer-events="none"/>
  </g>
  <g id="arrowUp" transform="translate(30 24)">
    <use xlink:href="#rim"/>
    <path pointer-events="none" fill="none" stroke="white" stroke-width="1.5" d="M0,-3.0v7 M-2.5,-0.5L0,-3.0L2.5,-0.5"/>
  </g>
  <g id="arrowRight" transform="rotate(90) translate(36 -43)">
    <use xlink:href="#rim"/>
    <path pointer-events="none" fill="none" stroke="white" stroke-width="1.5" d="M0,-3.0v7 M-2.5,-0.5L0,-3.0L2.5,-0.5"/>
  </g>
  <g id="arrowDown" transform="rotate(180) translate(-30 -48)">
    <use xlink:href="#rim"/>
    <path pointer-events="none" fill="none" stroke="white" stroke-width="1.5" d="M0,-3.0v7 M-2.5,-0.5L0,-3.0L2.5,-0.5"/>
  </g>
  <g id="arrowLeft" transform="rotate(270) translate(-36 17)">
    <use xlink:href="#rim"/>
    <path pointer-events="none" fill="none" stroke="white" stroke-width="1.5" d="M0,-3.0v7 M-2.5,-0.5L0,-3.0L2.5,-0.5"/>
  </g>
  <g id="resetDef">
    <use xlink:href="#rim2" fill="#404040"><set attributeName="fill" to="#808080" begin="reset.mouseover" end="reset.mouseout"/></use>
  </g>
</defs>
<script type="application/ecmascript">
var viewWidth = 563;
var viewHeight = 103;
var sectionId = 'dynsection-9';
</script>
<script type="application/ecmascript" xlink:href="../../svg.min.js"/>
<svg id="graph" class="graph">
<g id="viewport">
<title>invfft3D</title>
<!-- Node1 -->
<g id="Node000001" class="node">
<title>Node1</title>
<g id="a_Node000001"><a xlink:title=" ">
<polygon fill="#999999" stroke="#666666" points="554.75,-57.25 504.25,-57.25 504.25,-38 554.75,-38 554.75,-57.25"/>
<text xml:space="preserve" text-anchor="middle" x="529.5" y="-43.75" font-family="Helvetica,sans-Serif" font-size="10.00">invfft3D</text>
</a>
</g>
</g>
<!-- Node2 -->
<g id="Node000002" class="node">
<title>Node2</title>
<g id="a_Node000002"><a xlink:href="../../d1/d94/d_vpot__add__long__range_8c.html#a0923c770a93d2648a5d75b70fbb9c61c" target="_top" xlink:title=" ">
<polygon fill="white" stroke="#666666" points="468.25,-95.25 372,-95.25 372,-76 468.25,-76 468.25,-95.25"/>
<text xml:space="preserve" text-anchor="middle" x="420.12" y="-81.75" font-family="Helvetica,sans-Serif" font-size="10.00">dV_add_longrange</text>
</a>
</g>
</g>
<!-- Node1&#45;&gt;Node2 -->
<g id="edge1_Node000001_Node000002" class="edge">
<title>Node1&#45;&gt;Node2</title>
<g id="a_edge1_Node000001_Node000002"><a xlink:title=" ">
<path fill="none" stroke="#63b8ff" d="M493.01,-60.18C478.86,-65.19 462.79,-70.88 449.44,-75.6"/>
<polygon fill="#63b8ff" stroke="#63b8ff" points="494.18,-63.48 502.44,-56.85 491.84,-56.88 494.18,-63.48"/>
</a>
</g>
</g>
<!-- Node5 -->
<g id="Node000005" class="node">
<title>Node5</title>
<g id="a_Node000005"><a xlink:href="../../d9/d90/d_vbare__loc_8c.html#a30f21b6035a8a10369610419e98fbe67" target="_top" xlink:title=" ">
<polygon fill="white" stroke="#666666" points="294.38,-57.25 248.38,-57.25 248.38,-38 294.38,-38 294.38,-57.25"/>
<text xml:space="preserve" text-anchor="middle" x="271.38" y="-43.75" font-family="Helvetica,sans-Serif" font-size="10.00">dVlocq</text>
</a>
</g>
</g>
<!-- Node1&#45;&gt;Node5 -->
<g id="edge4_Node000001_Node000005" class="edge">
<title>Node1&#45;&gt;Node5</title>
<g id="a_edge4_Node000001_Node000005"><a xlink:title=" ">
<path fill="none" stroke="#63b8ff" d="M492.58,-47.62C438.82,-47.62 339.03,-47.62 294.65,-47.62"/>
<polygon fill="#63b8ff" stroke="#63b8ff" points="492.43,-51.13 502.43,-47.63 492.43,-44.13 492.43,-51.13"/>
</a>
</g>
</g>
<!-- Node7 -->
<g id="Node000007" class="node">
<title>Node7</title>
<g id="a_Node000007"><a xlink:href="../../d1/d8e/compute___vbare__loc_8c.html#a5f1d51340a8457749225b05b612e4abe" target="_top" xlink:title=" ">
<polygon fill="white" stroke="#666666" points="448.75,-19.25 391.5,-19.25 391.5,0 448.75,0 448.75,-19.25"/>
<text xml:space="preserve" text-anchor="middle" x="420.12" y="-5.75" font-family="Helvetica,sans-Serif" font-size="10.00">elphLocal</text>
</a>
</g>
</g>
<!-- Node1&#45;&gt;Node7 -->
<g id="edge7_Node000001_Node000007" class="edge">
<title>Node1&#45;&gt;Node7</title>
<g id="a_edge7_Node000001_Node000007"><a xlink:title=" ">
<path fill="none" stroke="#63b8ff" d="M493.35,-35.19C478.98,-30.1 462.58,-24.3 449.05,-19.51"/>
<polygon fill="#63b8ff" stroke="#63b8ff" points="491.84,-38.37 502.44,-38.4 494.18,-31.77 491.84,-38.37"/>
</a>
</g>
</g>
<!-- Node3 -->
<g id="Node000003" class="node">
<title>Node3</title>
<g id="a_Node000003"><a xlink:href="../../da/dc2/interpolation__driver_8c.html#aecc42ae41d168b486807b337fcf5b3de" target="_top" xlink:title=" ">
<polygon fill="white" stroke="#666666" points="170.75,-94.25 73,-94.25 73,-75 170.75,-75 170.75,-94.25"/>
<text xml:space="preserve" text-anchor="middle" x="121.88" y="-80.75" font-family="Helvetica,sans-Serif" font-size="10.00">interpolation_driver</text>
</a>
</g>
</g>
<!-- Node2&#45;&gt;Node3 -->
<g id="edge2_Node000002_Node000003" class="edge">
<title>Node2&#45;&gt;Node3</title>
<g id="a_edge2_Node000002_Node000003"><a xlink:title=" ">
<path fill="none" stroke="#63b8ff" d="M360.1,-85.43C304.57,-85.24 222.45,-84.96 170.85,-84.79"/>
<polygon fill="#63b8ff" stroke="#63b8ff" points="360,-88.93 370.01,-85.46 360.03,-81.93 360,-88.93"/>
</a>
</g>
</g>
<!-- Node4 -->
<g id="Node000004" class="node">
<title>Node4</title>
<g id="a_Node000004"><a xlink:href="../../d3/dd5/main__elph_c_8c.html#a0ddf1224851353fc92bfbff6f499fa97" target="_top" xlink:title="Main program entry point.">
<polygon fill="white" stroke="#666666" points="37,-75.25 0,-75.25 0,-56 37,-56 37,-75.25"/>
<text xml:space="preserve" text-anchor="middle" x="18.5" y="-61.75" font-family="Helvetica,sans-Serif" font-size="10.00">main</text>
</a>
</g>
</g>
<!-- Node3&#45;&gt;Node4 -->
<g id="edge3_Node000003_Node000004" class="edge">
<title>Node3&#45;&gt;Node4</title>
<g id="a_edge3_Node000003_Node000004"><a xlink:title=" ">
<path fill="none" stroke="#63b8ff" d="M61.33,-73.46C52.55,-71.82 44.14,-70.24 37.19,-68.94"/>
<polygon fill="#63b8ff" stroke="#63b8ff" points="60.6,-76.89 71.08,-75.29 61.89,-70.01 60.6,-76.89"/>
</a>
</g>
</g>
<!-- Node6 -->
<g id="Node000006" class="node">
<title>Node6</title>
<g id="a_Node000006"><a xlink:href="../../da/d2e/elph__driver_8c.html#ad9f405d41cf090d652dbe1307700665f" target="_top" xlink:title=" ">
<polygon fill="white" stroke="#666666" points="153.5,-57.25 90.25,-57.25 90.25,-38 153.5,-38 153.5,-57.25"/>
<text xml:space="preserve" text-anchor="middle" x="121.88" y="-43.75" font-family="Helvetica,sans-Serif" font-size="10.00">elph_driver</text>
</a>
</g>
</g>
<!-- Node5&#45;&gt;Node6 -->
<g id="edge5_Node000005_Node000006" class="edge">
<title>Node5&#45;&gt;Node6</title>
<g id="a_edge5_Node000005_Node000006"><a xlink:title=" ">
<path fill="none" stroke="#63b8ff" d="M236.55,-47.62C211.69,-47.62 178.18,-47.62 153.99,-47.62"/>
<polygon fill="#63b8ff" stroke="#63b8ff" points="236.46,-51.13 246.46,-47.63 236.46,-44.13 236.46,-51.13"/>
</a>
</g>
</g>
<!-- Node6&#45;&gt;Node4 -->
<g id="edge6_Node000006_Node000004" class="edge">
<title>Node6&#45;&gt;Node4</title>
<g id="a_edge6_Node000006_Node000004"><a xlink:title=" ">
<path fill="none" stroke="#63b8ff" d="M78.61,-55.13C64.16,-57.69 48.77,-60.43 37.32,-62.46"/>
<polygon fill="#63b8ff" stroke="#63b8ff" points="79.18,-58.58 88.42,-53.39 77.96,-51.69 79.18,-58.58"/>
</a>
</g>
</g>
<!-- Node8 -->
<g id="Node000008" class="node">
<title>Node8</title>
<g id="a_Node000008"><a xlink:href="../../d5/dd2/compute__elph__matq_8c.html#ad32ab6f17a3745b7f82151d7f5b927f2" target="_top" xlink:title=" ">
<polygon fill="white" stroke="#666666" points="336,-20.25 206.75,-20.25 206.75,-1 336,-1 336,-20.25"/>
<text xml:space="preserve" text-anchor="middle" x="271.38" y="-6.75" font-family="Helvetica,sans-Serif" font-size="10.00">compute_and_write_elphq</text>
</a>
</g>
</g>
<!-- Node7&#45;&gt;Node8 -->
<g id="edge8_Node000007_Node000008" class="edge">
<title>Node7&#45;&gt;Node8</title>
<g id="a_edge8_Node000007_Node000008"><a xlink:title=" ">
<path fill="none" stroke="#63b8ff" d="M379.98,-9.89C366.59,-9.98 351.24,-10.09 336.41,-10.19"/>
<polygon fill="#63b8ff" stroke="#63b8ff" points="379.69,-13.39 389.66,-9.83 379.64,-6.39 379.69,-13.39"/>
</a>
</g>
</g>
<!-- Node8&#45;&gt;Node6 -->
<g id="edge9_Node000008_Node000006" class="edge">
<title>Node8&#45;&gt;Node6</title>
<g id="a_edge9_Node000008_Node000006"><a xlink:title=" ">
<path fill="none" stroke="#63b8ff" d="M219.01,-23.51C197.26,-28.97 172.65,-35.14 153.77,-39.87"/>
<polygon fill="#63b8ff" stroke="#63b8ff" points="219.75,-26.93 228.6,-21.1 218.05,-20.14 219.75,-26.93"/>
</a>
</g>
</g>
</g>
</svg>

<g id="navigator" transform="translate(0 0)" fill="#404254">
  <rect fill="#f2f5e9" fill-opacity="0.5" stroke="#606060" stroke-width=".5" x="0" y="0" width="60" height="60"/>
  <use id="zoomplus" xlink:href="#zoomPlus" x="17" y="9" onmousedown="handleZoom(evt,'in')"/>
  <use id="zoomminus" xlink:href="#zoomMin" x="42" y="9" onmousedown="handleZoom(evt,'out')"/>
  <use id="reset" xlink:href="#resetDef" x="30" y="36" onmousedown="handleReset()"/>
   <use id="arrowup" xlink:href="#arrowUp" x="0" y="0" onmousedown="handlePan(0,-1)"/>
  <use id="arrowright" xlink:href="#arrowRight" x="0" y="0" onmousedown="handlePan(1,0)"/>
  <use id="arrowdown" xlink:href="#arrowDown" x="0" y="0" onmousedown="handlePan(0,1)"/>
  <use id="arrowleft" xlink:href="#arrowLeft" x="0" y="0" onmousedown="handlePan(-1,0)"/>
</g>
<svg viewBox="0 0 15 15" width="100%" height="30px" preserveAspectRatio="xMaxYMin meet">
 <g id="arrow_out" transform="scale(0.3 0.3)">
  <a xlink:href="fft_8h_ad3a34c33ba91c3026025fdc4ffe3f97b_icgraph_org.svg" target="_base">
   <rect id="button" ry="5" rx="5" y="6" x="6" height="38" width="38"
        fill="#f2f5e9" fill-opacity="0.5" stroke="#606060" stroke-width="1.0"/>
   <path id="arrow"
     d="M 11.500037,31.436501 C 11.940474,20.09759 22.043105,11.32322 32.158766,21.979434 L 37.068811,17.246167 C 37.068811,17.246167 37.088388,32 37.088388,32 L 22.160133,31.978069 C 22.160133,31.978069 26.997745,27.140456 26.997745,27.140456 C 18.528582,18.264221 13.291696,25.230495 11.500037,31.436501 z"
     style="fill:#404040;"/>
  </a>
 </g>
</svg>

<style type='text/css'>
<![CDATA[
[data-mouse-over-selected='false'] { opacity: 0.7; }
[data-mouse-over-selected='true']  { opacity: 1.0; }
]]>
</style>
<script type="application/ecmascript"><![CDATA[
document.addEventListener('DOMContentLoaded', (event) => {
  highlightEdges();
  highlightAdjacentNodes();
});
]]></script>
</svg>
