<?xml version="1.0" encoding="UTF-8" standalone="no"?>
<!DOCTYPE svg PUBLIC "-//W3C//DTD SVG 1.1//EN"
 "http://www.w3.org/Graphics/SVG/1.1/DTD/svg11.dtd">
<!-- Generated by graphviz version 14.0.0 (20250921.2048)
 -->
<!-- Title: fftw_fun Pages: 1 -->
<!--zoomable 283 -->

<svg id="main" version="1.1" xmlns="http://www.w3.org/2000/svg" xmlns:xlink="http://www.w3.org/1999/xlink" xml:space="preserve" onload="init(evt)">

<style type="text/css"><![CDATA[
.node, .edge {opacity: 0.7;}
.node.selected, .edge.selected {opacity: 1;}
.edge:hover path { stroke: red; }
.edge:hover polygon { stroke: red; fill: red; }
]]></style>

<defs>
  <circle id="rim" cx="0" cy="0" r="7"/>
  <circle id="rim2" cx="0" cy="0" r="3.5"/>
  <g id="zoomPlus">
    <use xlink:href="#rim" fill="#404040"><set attributeName="fill" to="#808080" begin="zoomplus.mouseover" end="zoomplus.mouseout"/></use>
    <path d="M-4,0h8M0,-4v8" fill="none" stroke="white" stroke-width="1.5" pointer-events="none"/>
  </g>
  <g id="zoomMin">
    <use xlink:href="#rim" fill="#404040"><set attributeName="fill" to="#808080" begin="zoomminus.mouseover" end="zoomminus.mouseout"/></use>
    <path d="M-4,0h8" fill="none" stroke="white" stroke-width="1.5" pointer-events="none"/>
  </g>
  <g id="arrowUp" transform="translate(30 24)">
    <use xlink:href="#rim"/>
    <path pointer-events="none" fill="none" stroke="white" stroke-width="1.5" d="M0,-3.0v7 M-2.5,-0.5L0,-3.0L2.5,-0.5"/>
  </g>
  <g id="arrowRight" transform="rotate(90) translate(36 -43)">
    <use xlink:href="#rim"/>
    <path pointer-events="none" fill="none" stroke="white" stroke-width="1.5" d="M0,-3.0v7 M-2.5,-0.5L0,-3.0L2.5,-0.5"/>
  </g>
  <g id="arrowDown" transform="rotate(180) translate(-30 -48)">
    <use xlink:href="#rim"/>
    <path pointer-events="none" fill="none" stroke="white" stroke-width="1.5" d="M0,-3.0v7 M-2.5,-0.5L0,-3.0L2.5,-0.5"/>
  </g>
  <g id="arrowLeft" transform="rotate(270) translate(-36 17)">
    <use xlink:href="#rim"/>
    <path pointer-events="none" fill="none" stroke="white" stroke-width="1.5" d="M0,-3.0v7 M-2.5,-0.5L0,-3.0L2.5,-0.5"/>
  </g>
  <g id="resetDef">
    <use xlink:href="#rim2" fill="#404040"><set attributeName="fill" to="#808080" begin="reset.mouseover" end="reset.mouseout"/></use>
  </g>
</defs>
<script type="application/ecmascript">
var viewWidth = 770;
var viewHeight = 283;
var sectionId = 'dynsection-6';
</script>
<script type="application/ecmascript" xlink:href="../../svg.min.js"/>
<svg id="graph" class="graph">
<g id="viewport">
<title>fftw_fun</title>
<!-- Node1 -->
<g id="Node000001" class="node">
<title>Node1</title>
<g id="a_Node000001"><a xlink:title=" ">
<polygon fill="#999999" stroke="#666666" points="761.5,-151.25 710.25,-151.25 710.25,-132 761.5,-132 761.5,-151.25"/>
<text xml:space="preserve" text-anchor="middle" x="735.88" y="-137.75" font-family="Helvetica,sans-Serif" font-size="10.00">fftw_fun</text>
</a>
</g>
</g>
<!-- Node2 -->
<g id="Node000002" class="node">
<title>Node2</title>
<g id="a_Node000002"><a xlink:href="../../d7/d8e/align_8c.html#a00208b13e41d5ba8f2dfbea6dd749ba3" target="_top" xlink:title=" ">
<polygon fill="white" stroke="#666666" points="674.25,-170.25 598.25,-170.25 598.25,-151 674.25,-151 674.25,-170.25"/>
<text xml:space="preserve" text-anchor="middle" x="636.25" y="-156.75" font-family="Helvetica,sans-Serif" font-size="10.00">alignment_len</text>
</a>
</g>
</g>
<!-- Node1&#45;&gt;Node2 -->
<g id="edge1_Node000001_Node000002" class="edge">
<title>Node1&#45;&gt;Node2</title>
<g id="a_edge1_Node000001_Node000002"><a xlink:title=" ">
<path fill="none" stroke="#63b8ff" d="M698.87,-148.63C690.97,-150.17 682.59,-151.8 674.64,-153.35"/>
<polygon fill="#63b8ff" stroke="#63b8ff" points="699.35,-152.1 708.5,-146.76 698.02,-145.23 699.35,-152.1"/>
</a>
</g>
</g>
<!-- Node3 -->
<g id="Node000003" class="node">
<title>Node3</title>
<g id="a_Node000003"><a xlink:href="../../d7/d1a/planner_8c.html#a08f76b4b182067a8a93997877decdb27" target="_top" xlink:title=" ">
<polygon fill="white" stroke="#666666" points="543.5,-170.25 488.5,-170.25 488.5,-151 543.5,-151 543.5,-170.25"/>
<text xml:space="preserve" text-anchor="middle" x="516" y="-156.75" font-family="Helvetica,sans-Serif" font-size="10.00">wfc_plan</text>
</a>
</g>
</g>
<!-- Node1&#45;&gt;Node3 -->
<g id="edge26_Node000001_Node000003" class="edge">
<title>Node1&#45;&gt;Node3</title>
<g id="a_edge26_Node000001_Node000003"><a xlink:title=" ">
<path fill="none" stroke="#63b8ff" d="M698.63,-139.37C671.02,-138.2 632.12,-137.72 598.25,-141.62 579.83,-143.75 559.52,-148.5 543.81,-152.72"/>
<polygon fill="#63b8ff" stroke="#63b8ff" points="698.43,-142.86 708.58,-139.85 698.76,-135.87 698.43,-142.86"/>
</a>
</g>
</g>
<!-- Node8 -->
<g id="Node000008" class="node">
<title>Node8</title>
<g id="a_Node000008"><a xlink:href="../../da/d2e/elph__driver_8c.html#ad9f405d41cf090d652dbe1307700665f" target="_top" xlink:title=" ">
<polygon fill="white" stroke="#666666" points="136.25,-198.25 73,-198.25 73,-179 136.25,-179 136.25,-198.25"/>
<text xml:space="preserve" text-anchor="middle" x="104.62" y="-184.75" font-family="Helvetica,sans-Serif" font-size="10.00">elph_driver</text>
</a>
</g>
</g>
<!-- Node1&#45;&gt;Node8 -->
<g id="edge12_Node000001_Node000008" class="edge">
<title>Node1&#45;&gt;Node8</title>
<g id="a_edge12_Node000001_Node000008"><a xlink:title=" ">
<path fill="none" stroke="#63b8ff" d="M725.72,-162.02C715.79,-181.87 698.11,-211.47 674.25,-228.62 615.13,-271.14 589.82,-274.62 517,-274.62 0,-46.62 0,-46.62 384.62,-274.62 282.49,-274.62 168.29,-221.34 124.29,-198.66"/>
<polygon fill="#63b8ff" stroke="#63b8ff" points="728.88,-163.53 730.01,-153 722.55,-160.53 728.88,-163.53"/>
</a>
</g>
</g>
<!-- Node11 -->
<g id="Node000011" class="node">
<title>Node11</title>
<g id="a_Node000011"><a xlink:href="../../d9/dfc/fwdfft_8c.html#abecc0f888d888e946aa19183d0017d72" target="_top" xlink:title=" ">
<polygon fill="white" stroke="#666666" points="655.12,-19.25 617.38,-19.25 617.38,0 655.12,0 655.12,-19.25"/>
<text xml:space="preserve" text-anchor="middle" x="636.25" y="-5.75" font-family="Helvetica,sans-Serif" font-size="10.00">fft3D</text>
</a>
</g>
</g>
<!-- Node1&#45;&gt;Node11 -->
<g id="edge13_Node000001_Node000011" class="edge">
<title>Node1&#45;&gt;Node11</title>
<g id="a_edge13_Node000001_Node000011"><a xlink:title=" ">
<path fill="none" stroke="#63b8ff" d="M728.39,-121.08C719.62,-96.17 701.84,-54.24 674.25,-27.62 669.01,-22.57 662.07,-18.68 655.62,-15.84"/>
<polygon fill="#63b8ff" stroke="#63b8ff" points="725,-121.98 731.49,-130.36 731.64,-119.76 725,-121.98"/>
</a>
</g>
</g>
<!-- Node12 -->
<g id="Node000012" class="node">
<title>Node12</title>
<g id="a_Node000012"><a xlink:href="../../d1/d31/convolution_8c.html#a7bc535f48e9ce5caeee906d3484f229c" target="_top" xlink:title=" ">
<polygon fill="white" stroke="#666666" points="562.25,-245.25 469.75,-245.25 469.75,-226 562.25,-226 562.25,-245.25"/>
<text xml:space="preserve" text-anchor="middle" x="516" y="-231.75" font-family="Helvetica,sans-Serif" font-size="10.00">fft_convolution3D</text>
</a>
</g>
</g>
<!-- Node1&#45;&gt;Node12 -->
<g id="edge14_Node000001_Node000012" class="edge">
<title>Node1&#45;&gt;Node12</title>
<g id="a_edge14_Node000001_Node000012"><a xlink:title=" ">
<path fill="none" stroke="#63b8ff" d="M720.8,-160.41C709.66,-173.94 692.9,-191.52 674.25,-201.62 639.62,-220.39 595.44,-228.8 562.73,-232.56"/>
<polygon fill="#63b8ff" stroke="#63b8ff" points="723.5,-162.65 726.94,-152.63 718,-158.32 723.5,-162.65"/>
</a>
</g>
</g>
<!-- Node13 -->
<g id="Node000013" class="node">
<title>Node13</title>
<g id="a_Node000013"><a xlink:href="../../d9/d41/interpolation__utilities_8c.html#a7057b91c231575471dc5ebe174f3e217" target="_top" xlink:title=" ">
<polygon fill="white" stroke="#666666" points="660.38,-56.25 612.12,-56.25 612.12,-37 660.38,-37 660.38,-56.25"/>
<text xml:space="preserve" text-anchor="middle" x="636.25" y="-42.75" font-family="Helvetica,sans-Serif" font-size="10.00">fft_q2R</text>
</a>
</g>
</g>
<!-- Node1&#45;&gt;Node13 -->
<g id="edge16_Node000001_Node000013" class="edge">
<title>Node1&#45;&gt;Node13</title>
<g id="a_edge16_Node000001_Node000013"><a xlink:title=" ">
<path fill="none" stroke="#63b8ff" d="M721.16,-122.72C709.65,-107.6 692.25,-86.4 674.25,-70.62 668.38,-65.48 661.31,-60.62 654.93,-56.64"/>
<polygon fill="#63b8ff" stroke="#63b8ff" points="718.13,-124.51 726.91,-130.44 723.75,-120.33 718.13,-124.51"/>
</a>
</g>
</g>
<!-- Node14 -->
<g id="Node000014" class="node">
<title>Node14</title>
<g id="a_Node000014"><a xlink:href="../../dd/dc9/bwdfft_8c.html#ad3a34c33ba91c3026025fdc4ffe3f97b" target="_top" xlink:title=" ">
<polygon fill="white" stroke="#666666" points="541.25,-133.25 490.75,-133.25 490.75,-114 541.25,-114 541.25,-133.25"/>
<text xml:space="preserve" text-anchor="middle" x="516" y="-119.75" font-family="Helvetica,sans-Serif" font-size="10.00">invfft3D</text>
</a>
</g>
</g>
<!-- Node1&#45;&gt;Node14 -->
<g id="edge18_Node000001_Node000014" class="edge">
<title>Node1&#45;&gt;Node14</title>
<g id="a_edge18_Node000001_Node000014"><a xlink:title=" ">
<path fill="none" stroke="#63b8ff" d="M711.74,-125.48C700.88,-118.87 687.45,-111.99 674.25,-108.62 628.4,-96.96 572.94,-107.82 541.64,-116.15"/>
<polygon fill="#63b8ff" stroke="#63b8ff" points="709.69,-128.32 719.99,-130.8 713.48,-122.44 709.69,-128.32"/>
</a>
</g>
</g>
<!-- Node15 -->
<g id="Node000015" class="node">
<title>Node15</title>
<g id="a_Node000015"><a xlink:href="../../d7/d1a/planner_8c.html#ab24a0c92cd3342721b1c491ac85116e6" target="_top" xlink:title=" ">
<polygon fill="white" stroke="#666666" points="562.25,-207.25 469.75,-207.25 469.75,-188 562.25,-188 562.25,-207.25"/>
<text xml:space="preserve" text-anchor="middle" x="516" y="-193.75" font-family="Helvetica,sans-Serif" font-size="10.00">wfc_destroy_plan</text>
</a>
</g>
</g>
<!-- Node1&#45;&gt;Node15 -->
<g id="edge22_Node000001_Node000015" class="edge">
<title>Node1&#45;&gt;Node15</title>
<g id="a_edge22_Node000001_Node000015"><a xlink:title=" ">
<path fill="none" stroke="#63b8ff" d="M713.48,-158.34C702.39,-166.12 688.25,-174.72 674.25,-179.62 638.07,-192.3 594.63,-196.5 562.58,-197.71"/>
<polygon fill="#63b8ff" stroke="#63b8ff" points="715.51,-161.19 721.5,-152.45 711.37,-155.55 715.51,-161.19"/>
</a>
</g>
</g>
<!-- Node2&#45;&gt;Node3 -->
<g id="edge2_Node000002_Node000003" class="edge">
<title>Node2&#45;&gt;Node3</title>
<g id="a_edge2_Node000002_Node000003"><a xlink:title=" ">
<path fill="none" stroke="#63b8ff" d="M586.38,-160.62C571.77,-160.62 556.3,-160.62 543.69,-160.62"/>
<polygon fill="#63b8ff" stroke="#63b8ff" points="586.32,-164.13 596.32,-160.63 586.32,-157.13 586.32,-164.13"/>
</a>
</g>
</g>
<!-- Node4 -->
<g id="Node000004" class="node">
<title>Node4</title>
<g id="a_Node000004"><a xlink:href="../../d1/d94/d_vpot__add__long__range_8c.html#a0923c770a93d2648a5d75b70fbb9c61c" target="_top" xlink:title=" ">
<polygon fill="white" stroke="#666666" points="433.75,-133.25 337.5,-133.25 337.5,-114 433.75,-114 433.75,-133.25"/>
<text xml:space="preserve" text-anchor="middle" x="385.62" y="-119.75" font-family="Helvetica,sans-Serif" font-size="10.00">dV_add_longrange</text>
</a>
</g>
</g>
<!-- Node3&#45;&gt;Node4 -->
<g id="edge3_Node000003_Node000004" class="edge">
<title>Node3&#45;&gt;Node4</title>
<g id="a_edge3_Node000003_Node000004"><a xlink:title=" ">
<path fill="none" stroke="#63b8ff" d="M477.27,-149.75C459.57,-144.65 438.62,-138.61 421.32,-133.62"/>
<polygon fill="#63b8ff" stroke="#63b8ff" points="476.06,-153.04 486.63,-152.45 477.99,-146.32 476.06,-153.04"/>
</a>
</g>
</g>
<!-- Node7 -->
<g id="Node000007" class="node">
<title>Node7</title>
<g id="a_Node000007"><a xlink:href="../../d9/d90/d_vbare__loc_8c.html#a30f21b6035a8a10369610419e98fbe67" target="_top" xlink:title=" ">
<polygon fill="white" stroke="#666666" points="408.62,-170.25 362.62,-170.25 362.62,-151 408.62,-151 408.62,-170.25"/>
<text xml:space="preserve" text-anchor="middle" x="385.62" y="-156.75" font-family="Helvetica,sans-Serif" font-size="10.00">dVlocq</text>
</a>
</g>
</g>
<!-- Node3&#45;&gt;Node7 -->
<g id="edge6_Node000003_Node000007" class="edge">
<title>Node3&#45;&gt;Node7</title>
<g id="a_edge6_Node000003_Node000007"><a xlink:title=" ">
<path fill="none" stroke="#63b8ff" d="M476.7,-160.62C454.55,-160.62 427.46,-160.62 408.8,-160.62"/>
<polygon fill="#63b8ff" stroke="#63b8ff" points="476.57,-164.13 486.57,-160.63 476.57,-157.13 476.57,-164.13"/>
</a>
</g>
</g>
<!-- Node9 -->
<g id="Node000009" class="node">
<title>Node9</title>
<g id="a_Node000009"><a xlink:href="../../d1/d8e/compute___vbare__loc_8c.html#a5f1d51340a8457749225b05b612e4abe" target="_top" xlink:title=" ">
<polygon fill="white" stroke="#666666" points="414.25,-207.25 357,-207.25 357,-188 414.25,-188 414.25,-207.25"/>
<text xml:space="preserve" text-anchor="middle" x="385.62" y="-193.75" font-family="Helvetica,sans-Serif" font-size="10.00">elphLocal</text>
</a>
</g>
</g>
<!-- Node3&#45;&gt;Node9 -->
<g id="edge9_Node000003_Node000009" class="edge">
<title>Node3&#45;&gt;Node9</title>
<g id="a_edge9_Node000003_Node000009"><a xlink:title=" ">
<path fill="none" stroke="#63b8ff" d="M477.11,-171.55C457,-177.34 432.73,-184.34 414.39,-189.62"/>
<polygon fill="#63b8ff" stroke="#63b8ff" points="477.99,-174.93 486.63,-168.8 476.06,-168.21 477.99,-174.93"/>
</a>
</g>
</g>
<!-- Node5 -->
<g id="Node000005" class="node">
<title>Node5</title>
<g id="a_Node000005"><a xlink:href="../../da/dc2/interpolation__driver_8c.html#aecc42ae41d168b486807b337fcf5b3de" target="_top" xlink:title=" ">
<polygon fill="white" stroke="#666666" points="285.75,-132.25 188,-132.25 188,-113 285.75,-113 285.75,-132.25"/>
<text xml:space="preserve" text-anchor="middle" x="236.88" y="-118.75" font-family="Helvetica,sans-Serif" font-size="10.00">interpolation_driver</text>
</a>
</g>
</g>
<!-- Node4&#45;&gt;Node5 -->
<g id="edge4_Node000004_Node000005" class="edge">
<title>Node4&#45;&gt;Node5</title>
<g id="a_edge4_Node000004_Node000005"><a xlink:title=" ">
<path fill="none" stroke="#63b8ff" d="M325.96,-123.23C312.71,-123.13 298.79,-123.04 286.03,-122.95"/>
<polygon fill="#63b8ff" stroke="#63b8ff" points="325.85,-126.72 335.87,-123.29 325.9,-119.72 325.85,-126.72"/>
</a>
</g>
</g>
<!-- Node6 -->
<g id="Node000006" class="node">
<title>Node6</title>
<g id="a_Node000006"><a xlink:href="../../d3/dd5/main__elph_c_8c.html#a0ddf1224851353fc92bfbff6f499fa97" target="_top" xlink:title="Main program entry point.">
<polygon fill="white" stroke="#666666" points="37,-170.25 0,-170.25 0,-151 37,-151 37,-170.25"/>
<text xml:space="preserve" text-anchor="middle" x="18.5" y="-156.75" font-family="Helvetica,sans-Serif" font-size="10.00">main</text>
</a>
</g>
</g>
<!-- Node5&#45;&gt;Node6 -->
<g id="edge5_Node000005_Node000006" class="edge">
<title>Node5&#45;&gt;Node6</title>
<g id="a_edge5_Node000005_Node000006"><a xlink:title=" ">
<path fill="none" stroke="#63b8ff" d="M176.35,-133.08C129.54,-141.3 67.38,-152.22 37.3,-157.5"/>
<polygon fill="#63b8ff" stroke="#63b8ff" points="176.85,-136.54 186.09,-131.37 175.64,-129.65 176.85,-136.54"/>
</a>
</g>
</g>
<!-- Node7&#45;&gt;Node8 -->
<g id="edge7_Node000007_Node000008" class="edge">
<title>Node7&#45;&gt;Node8</title>
<g id="a_edge7_Node000007_Node000008"><a xlink:title=" ">
<path fill="none" stroke="#63b8ff" d="M350.82,-163.18C308.88,-166.45 235.2,-172.56 172.25,-179.62 160.53,-180.94 147.69,-182.62 136.44,-184.17"/>
<polygon fill="#63b8ff" stroke="#63b8ff" points="351.06,-166.67 360.76,-162.41 350.52,-159.69 351.06,-166.67"/>
</a>
</g>
</g>
<!-- Node8&#45;&gt;Node6 -->
<g id="edge8_Node000008_Node000006" class="edge">
<title>Node8&#45;&gt;Node6</title>
<g id="a_edge8_Node000008_Node000006"><a xlink:title=" ">
<path fill="none" stroke="#63b8ff" d="M62.56,-174.96C53.69,-172 44.75,-169.03 37.34,-166.56"/>
<polygon fill="#63b8ff" stroke="#63b8ff" points="61.22,-178.2 71.82,-178.04 63.43,-171.56 61.22,-178.2"/>
</a>
</g>
</g>
<!-- Node10 -->
<g id="Node000010" class="node">
<title>Node10</title>
<g id="a_Node000010"><a xlink:href="../../d5/dd2/compute__elph__matq_8c.html#ad32ab6f17a3745b7f82151d7f5b927f2" target="_top" xlink:title=" ">
<polygon fill="white" stroke="#666666" points="301.5,-208.25 172.25,-208.25 172.25,-189 301.5,-189 301.5,-208.25"/>
<text xml:space="preserve" text-anchor="middle" x="236.88" y="-194.75" font-family="Helvetica,sans-Serif" font-size="10.00">compute_and_write_elphq</text>
</a>
</g>
</g>
<!-- Node9&#45;&gt;Node10 -->
<g id="edge10_Node000009_Node000010" class="edge">
<title>Node9&#45;&gt;Node10</title>
<g id="a_edge10_Node000009_Node000010"><a xlink:title=" ">
<path fill="none" stroke="#63b8ff" d="M345.48,-197.89C332.09,-197.98 316.74,-198.09 301.91,-198.19"/>
<polygon fill="#63b8ff" stroke="#63b8ff" points="345.19,-201.39 355.16,-197.83 345.14,-194.39 345.19,-201.39"/>
</a>
</g>
</g>
<!-- Node10&#45;&gt;Node8 -->
<g id="edge11_Node000010_Node000008" class="edge">
<title>Node10&#45;&gt;Node8</title>
<g id="a_edge11_Node000010_Node000008"><a xlink:title=" ">
<path fill="none" stroke="#63b8ff" d="M160.64,-192.85C152.14,-192.2 143.88,-191.56 136.45,-190.99"/>
<polygon fill="#63b8ff" stroke="#63b8ff" points="160.15,-196.32 170.39,-193.6 160.68,-189.34 160.15,-196.32"/>
</a>
</g>
</g>
<!-- Node12&#45;&gt;Node9 -->
<g id="edge15_Node000012_Node000009" class="edge">
<title>Node12&#45;&gt;Node9</title>
<g id="a_edge15_Node000012_Node000009"><a xlink:title=" ">
<path fill="none" stroke="#63b8ff" d="M470.05,-222.32C451.51,-216.83 430.6,-210.64 414.36,-205.83"/>
<polygon fill="#63b8ff" stroke="#63b8ff" points="468.9,-225.63 479.48,-225.11 470.89,-218.92 468.9,-225.63"/>
</a>
</g>
</g>
<!-- Node13&#45;&gt;Node5 -->
<g id="edge17_Node000013_Node000005" class="edge">
<title>Node13&#45;&gt;Node5</title>
<g id="a_edge17_Node000013_Node000005"><a xlink:title=" ">
<path fill="none" stroke="#63b8ff" d="M600.92,-53.19C530.04,-66.75 367.35,-97.86 286.01,-113.42"/>
<polygon fill="#63b8ff" stroke="#63b8ff" points="601.22,-56.7 610.39,-51.38 599.91,-49.82 601.22,-56.7"/>
</a>
</g>
</g>
<!-- Node14&#45;&gt;Node4 -->
<g id="edge19_Node000014_Node000004" class="edge">
<title>Node14&#45;&gt;Node4</title>
<g id="a_edge19_Node000014_Node000004"><a xlink:title=" ">
<path fill="none" stroke="#63b8ff" d="M479.4,-123.62C465.4,-123.62 449.11,-123.62 434.12,-123.62"/>
<polygon fill="#63b8ff" stroke="#63b8ff" points="479.04,-127.13 489.04,-123.63 479.04,-120.13 479.04,-127.13"/>
</a>
</g>
</g>
<!-- Node14&#45;&gt;Node7 -->
<g id="edge20_Node000014_Node000007" class="edge">
<title>Node14&#45;&gt;Node7</title>
<g id="a_edge20_Node000014_Node000007"><a xlink:title=" ">
<path fill="none" stroke="#63b8ff" d="M479.67,-133.81C457.02,-140.33 428.33,-148.6 408.84,-154.22"/>
<polygon fill="#63b8ff" stroke="#63b8ff" points="480.46,-137.22 489.1,-131.09 478.52,-130.5 480.46,-137.22"/>
</a>
</g>
</g>
<!-- Node14&#45;&gt;Node9 -->
<g id="edge21_Node000014_Node000009" class="edge">
<title>Node14&#45;&gt;Node9</title>
<g id="a_edge21_Node000014_Node000009"><a xlink:title=" ">
<path fill="none" stroke="#63b8ff" d="M480.2,-135.64C476.56,-137.43 473,-139.42 469.75,-141.62 450.49,-154.67 453.1,-166.71 433.75,-179.62 427.92,-183.52 421.14,-186.73 414.56,-189.32"/>
<polygon fill="#63b8ff" stroke="#63b8ff" points="481.39,-138.94 489.15,-131.74 478.59,-132.53 481.39,-138.94"/>
</a>
</g>
</g>
<!-- Node15&#45;&gt;Node4 -->
<g id="edge23_Node000015_Node000004" class="edge">
<title>Node15&#45;&gt;Node4</title>
<g id="a_edge23_Node000015_Node000004"><a xlink:title=" ">
<path fill="none" stroke="#63b8ff" d="M474.55,-182.62C472.9,-181.67 471.29,-180.67 469.75,-179.62 450.49,-166.58 453.1,-154.54 433.75,-141.62 429.09,-138.51 423.81,-135.83 418.52,-133.56"/>
<polygon fill="#63b8ff" stroke="#63b8ff" points="472.52,-185.51 483.03,-186.88 475.67,-179.26 472.52,-185.51"/>
</a>
</g>
</g>
<!-- Node15&#45;&gt;Node7 -->
<g id="edge24_Node000015_Node000007" class="edge">
<title>Node15&#45;&gt;Node7</title>
<g id="a_edge24_Node000015_Node000007"><a xlink:title=" ">
<path fill="none" stroke="#63b8ff" d="M468.88,-184.33C448.4,-178.43 425.26,-171.76 408.75,-167"/>
<polygon fill="#63b8ff" stroke="#63b8ff" points="467.89,-187.69 478.47,-187.1 469.83,-180.96 467.89,-187.69"/>
</a>
</g>
</g>
<!-- Node15&#45;&gt;Node9 -->
<g id="edge25_Node000015_Node000009" class="edge">
<title>Node15&#45;&gt;Node9</title>
<g id="a_edge25_Node000015_Node000009"><a xlink:title=" ">
<path fill="none" stroke="#63b8ff" d="M458.01,-197.62C442.93,-197.62 427.31,-197.62 414.54,-197.62"/>
<polygon fill="#63b8ff" stroke="#63b8ff" points="457.86,-201.13 467.86,-197.63 457.86,-194.13 457.86,-201.13"/>
</a>
</g>
</g>
</g>
</svg>

<g id="navigator" transform="translate(0 0)" fill="#404254">
  <rect fill="#f2f5e9" fill-opacity="0.5" stroke="#606060" stroke-width=".5" x="0" y="0" width="60" height="60"/>
  <use id="zoomplus" xlink:href="#zoomPlus" x="17" y="9" onmousedown="handleZoom(evt,'in')"/>
  <use id="zoomminus" xlink:href="#zoomMin" x="42" y="9" onmousedown="handleZoom(evt,'out')"/>
  <use id="reset" xlink:href="#resetDef" x="30" y="36" onmousedown="handleReset()"/>
   <use id="arrowup" xlink:href="#arrowUp" x="0" y="0" onmousedown="handlePan(0,-1)"/>
  <use id="arrowright" xlink:href="#arrowRight" x="0" y="0" onmousedown="handlePan(1,0)"/>
  <use id="arrowdown" xlink:href="#arrowDown" x="0" y="0" onmousedown="handlePan(0,1)"/>
  <use id="arrowleft" xlink:href="#arrowLeft" x="0" y="0" onmousedown="handlePan(-1,0)"/>
</g>
<svg viewBox="0 0 15 15" width="100%" height="30px" preserveAspectRatio="xMaxYMin meet">
 <g id="arrow_out" transform="scale(0.3 0.3)">
  <a xlink:href="fft_8h_ac250292bf093131ea0c67d14b5c44f15_icgraph_org.svg" target="_base">
   <rect id="button" ry="5" rx="5" y="6" x="6" height="38" width="38"
        fill="#f2f5e9" fill-opacity="0.5" stroke="#606060" stroke-width="1.0"/>
   <path id="arrow"
     d="M 11.500037,31.436501 C 11.940474,20.09759 22.043105,11.32322 32.158766,21.979434 L 37.068811,17.246167 C 37.068811,17.246167 37.088388,32 37.088388,32 L 22.160133,31.978069 C 22.160133,31.978069 26.997745,27.140456 26.997745,27.140456 C 18.528582,18.264221 13.291696,25.230495 11.500037,31.436501 z"
     style="fill:#404040;"/>
  </a>
 </g>
</svg>

<style type='text/css'>
<![CDATA[
[data-mouse-over-selected='false'] { opacity: 0.7; }
[data-mouse-over-selected='true']  { opacity: 1.0; }
]]>
</style>
<script type="application/ecmascript"><![CDATA[
document.addEventListener('DOMContentLoaded', (event) => {
  highlightEdges();
  highlightAdjacentNodes();
});
]]></script>
</svg>
