<?xml version="1.0" encoding="UTF-8" standalone="no"?>
<!DOCTYPE svg PUBLIC "-//W3C//DTD SVG 1.1//EN"
 "http://www.w3.org/Graphics/SVG/1.1/DTD/svg11.dtd">
<!-- Generated by graphviz version 14.0.0 (20250921.2048)
 -->
<!-- Title: su2rotate Pages: 1 -->
<!--zoomable 101 -->

<svg id="main" version="1.1" xmlns="http://www.w3.org/2000/svg" xmlns:xlink="http://www.w3.org/1999/xlink" xml:space="preserve" onload="init(evt)">

<style type="text/css"><![CDATA[
.node, .edge {opacity: 0.7;}
.node.selected, .edge.selected {opacity: 1;}
.edge:hover path { stroke: red; }
.edge:hover polygon { stroke: red; fill: red; }
]]></style>

<defs>
  <circle id="rim" cx="0" cy="0" r="7"/>
  <circle id="rim2" cx="0" cy="0" r="3.5"/>
  <g id="zoomPlus">
    <use xlink:href="#rim" fill="#404040"><set attributeName="fill" to="#808080" begin="zoomplus.mouseover" end="zoomplus.mouseout"/></use>
    <path d="M-4,0h8M0,-4v8" fill="none" stroke="white" stroke-width="1.5" pointer-events="none"/>
  </g>
  <g id="zoomMin">
    <use xlink:href="#rim" fill="#404040"><set attributeName="fill" to="#808080" begin="zoomminus.mouseover" end="zoomminus.mouseout"/></use>
    <path d="M-4,0h8" fill="none" stroke="white" stroke-width="1.5" pointer-events="none"/>
  </g>
  <g id="arrowUp" transform="translate(30 24)">
    <use xlink:href="#rim"/>
    <path pointer-events="none" fill="none" stroke="white" stroke-width="1.5" d="M0,-3.0v7 M-2.5,-0.5L0,-3.0L2.5,-0.5"/>
  </g>
  <g id="arrowRight" transform="rotate(90) translate(36 -43)">
    <use xlink:href="#rim"/>
    <path pointer-events="none" fill="none" stroke="white" stroke-width="1.5" d="M0,-3.0v7 M-2.5,-0.5L0,-3.0L2.5,-0.5"/>
  </g>
  <g id="arrowDown" transform="rotate(180) translate(-30 -48)">
    <use xlink:href="#rim"/>
    <path pointer-events="none" fill="none" stroke="white" stroke-width="1.5" d="M0,-3.0v7 M-2.5,-0.5L0,-3.0L2.5,-0.5"/>
  </g>
  <g id="arrowLeft" transform="rotate(270) translate(-36 17)">
    <use xlink:href="#rim"/>
    <path pointer-events="none" fill="none" stroke="white" stroke-width="1.5" d="M0,-3.0v7 M-2.5,-0.5L0,-3.0L2.5,-0.5"/>
  </g>
  <g id="resetDef">
    <use xlink:href="#rim2" fill="#404040"><set attributeName="fill" to="#808080" begin="reset.mouseover" end="reset.mouseout"/></use>
  </g>
</defs>
<script type="application/ecmascript">
var viewWidth = 538;
var viewHeight = 101;
var sectionId = 'dynsection-1';
</script>
<script type="application/ecmascript" xlink:href="../../svg.min.js"/>
<svg id="graph" class="graph">
<g id="viewport">
<title>su2rotate</title>
<!-- Node1 -->
<g id="Node000001" class="node">
<title>Node1</title>
<g id="a_Node000001"><a xlink:title=" ">
<polygon fill="#999999" stroke="#666666" points="530,-56.25 473.5,-56.25 473.5,-37 530,-37 530,-56.25"/>
<text xml:space="preserve" text-anchor="middle" x="501.75" y="-42.75" font-family="Helvetica,sans-Serif" font-size="10.00">su2rotate</text>
</a>
</g>
</g>
<!-- Node2 -->
<g id="Node000002" class="node">
<title>Node2</title>
<g id="a_Node000002"><a xlink:href="../../d6/db8/_vbare__nloc_8c.html#abeb59b7a11cbc7ffec9b5bb2759ebbdd" target="_top" xlink:title=" ">
<polygon fill="white" stroke="#666666" points="437.5,-93.25 341.25,-93.25 341.25,-74 437.5,-74 437.5,-93.25"/>
<text xml:space="preserve" text-anchor="middle" x="389.38" y="-79.75" font-family="Helvetica,sans-Serif" font-size="10.00">add_elphNonLocal</text>
</a>
</g>
</g>
<!-- Node1&#45;&gt;Node2 -->
<g id="edge1_Node000001_Node000002" class="edge">
<title>Node1&#45;&gt;Node2</title>
<g id="a_edge1_Node000001_Node000002"><a xlink:title=" ">
<path fill="none" stroke="#63b8ff" d="M462.51,-59.44C448.69,-64.08 433.3,-69.23 420.3,-73.59"/>
<polygon fill="#63b8ff" stroke="#63b8ff" points="463.38,-62.84 471.75,-56.35 461.15,-56.21 463.38,-62.84"/>
</a>
</g>
</g>
<!-- Node6 -->
<g id="Node000006" class="node">
<title>Node6</title>
<g id="a_Node000006"><a xlink:href="../../dd/de7/elec__reps_8c.html#a9ad01d68a7d4f87c39a98bf13778cd64" target="_top" xlink:title=" ">
<polygon fill="white" stroke="#666666" points="430.38,-19.25 348.38,-19.25 348.38,0 430.38,0 430.38,-19.25"/>
<text xml:space="preserve" text-anchor="middle" x="389.38" y="-5.75" font-family="Helvetica,sans-Serif" font-size="10.00">electronic_reps</text>
</a>
</g>
</g>
<!-- Node1&#45;&gt;Node6 -->
<g id="edge5_Node000001_Node000006" class="edge">
<title>Node1&#45;&gt;Node6</title>
<g id="a_edge5_Node000001_Node000006"><a xlink:title=" ">
<path fill="none" stroke="#63b8ff" d="M462.51,-33.81C448.69,-29.17 433.3,-24.02 420.3,-19.66"/>
<polygon fill="#63b8ff" stroke="#63b8ff" points="461.15,-37.04 471.75,-36.9 463.38,-30.41 461.15,-37.04"/>
</a>
</g>
</g>
<!-- Node8 -->
<g id="Node000008" class="node">
<title>Node8</title>
<g id="a_Node000008"><a xlink:href="../../d1/d8e/compute___vbare__loc_8c.html#a5f1d51340a8457749225b05b612e4abe" target="_top" xlink:title=" ">
<polygon fill="white" stroke="#666666" points="418,-56.25 360.75,-56.25 360.75,-37 418,-37 418,-56.25"/>
<text xml:space="preserve" text-anchor="middle" x="389.38" y="-42.75" font-family="Helvetica,sans-Serif" font-size="10.00">elphLocal</text>
</a>
</g>
</g>
<!-- Node1&#45;&gt;Node8 -->
<g id="edge8_Node000001_Node000008" class="edge">
<title>Node1&#45;&gt;Node8</title>
<g id="a_edge8_Node000001_Node000008"><a xlink:title=" ">
<path fill="none" stroke="#63b8ff" d="M462.07,-46.62C447.67,-46.62 431.62,-46.62 418.36,-46.62"/>
<polygon fill="#63b8ff" stroke="#63b8ff" points="461.67,-50.13 471.67,-46.63 461.67,-43.13 461.67,-50.13"/>
</a>
</g>
</g>
<!-- Node3 -->
<g id="Node000003" class="node">
<title>Node3</title>
<g id="a_Node000003"><a xlink:href="../../d5/dd2/compute__elph__matq_8c.html#ad32ab6f17a3745b7f82151d7f5b927f2" target="_top" xlink:title=" ">
<polygon fill="white" stroke="#666666" points="303.38,-56.25 174.12,-56.25 174.12,-37 303.38,-37 303.38,-56.25"/>
<text xml:space="preserve" text-anchor="middle" x="238.75" y="-42.75" font-family="Helvetica,sans-Serif" font-size="10.00">compute_and_write_elphq</text>
</a>
</g>
</g>
<!-- Node2&#45;&gt;Node3 -->
<g id="edge2_Node000002_Node000003" class="edge">
<title>Node2&#45;&gt;Node3</title>
<g id="a_edge2_Node000002_Node000003"><a xlink:title=" ">
<path fill="none" stroke="#63b8ff" d="M336.59,-70.73C318.16,-66.14 297.67,-61.05 280.31,-56.72"/>
<polygon fill="#63b8ff" stroke="#63b8ff" points="335.74,-74.13 346.29,-73.15 337.44,-67.34 335.74,-74.13"/>
</a>
</g>
</g>
<!-- Node4 -->
<g id="Node000004" class="node">
<title>Node4</title>
<g id="a_Node000004"><a xlink:href="../../da/d2e/elph__driver_8c.html#ad9f405d41cf090d652dbe1307700665f" target="_top" xlink:title=" ">
<polygon fill="white" stroke="#666666" points="136.25,-37.25 73,-37.25 73,-18 136.25,-18 136.25,-37.25"/>
<text xml:space="preserve" text-anchor="middle" x="104.62" y="-23.75" font-family="Helvetica,sans-Serif" font-size="10.00">elph_driver</text>
</a>
</g>
</g>
<!-- Node3&#45;&gt;Node4 -->
<g id="edge3_Node000003_Node000004" class="edge">
<title>Node3&#45;&gt;Node4</title>
<g id="a_edge3_Node000003_Node000004"><a xlink:title=" ">
<path fill="none" stroke="#63b8ff" d="M162.7,-35.83C153.48,-34.51 144.5,-33.22 136.5,-32.06"/>
<polygon fill="#63b8ff" stroke="#63b8ff" points="162.12,-39.28 172.51,-37.24 163.11,-32.36 162.12,-39.28"/>
</a>
</g>
</g>
<!-- Node5 -->
<g id="Node000005" class="node">
<title>Node5</title>
<g id="a_Node000005"><a xlink:href="../../d3/dd5/main__elph_c_8c.html#a0ddf1224851353fc92bfbff6f499fa97" target="_top" xlink:title="Main program entry point.">
<polygon fill="white" stroke="#666666" points="37,-37.25 0,-37.25 0,-18 37,-18 37,-37.25"/>
<text xml:space="preserve" text-anchor="middle" x="18.5" y="-23.75" font-family="Helvetica,sans-Serif" font-size="10.00">main</text>
</a>
</g>
</g>
<!-- Node4&#45;&gt;Node5 -->
<g id="edge4_Node000004_Node000005" class="edge">
<title>Node4&#45;&gt;Node5</title>
<g id="a_edge4_Node000004_Node000005"><a xlink:title=" ">
<path fill="none" stroke="#63b8ff" d="M61.27,-27.62C52.74,-27.62 44.23,-27.62 37.14,-27.62"/>
<polygon fill="#63b8ff" stroke="#63b8ff" points="61.26,-31.13 71.26,-27.63 61.26,-24.13 61.26,-31.13"/>
</a>
</g>
</g>
<!-- Node7 -->
<g id="Node000007" class="node">
<title>Node7</title>
<g id="a_Node000007"><a xlink:href="../../d5/d9f/compute__dmats_8c.html#aceeb11551c1d6413e6d4b5cae9704493" target="_top" xlink:title=" ">
<polygon fill="white" stroke="#666666" points="305.25,-19.25 172.25,-19.25 172.25,0 305.25,0 305.25,-19.25"/>
<text xml:space="preserve" text-anchor="middle" x="238.75" y="-5.75" font-family="Helvetica,sans-Serif" font-size="10.00">compute_and_write_dmats</text>
</a>
</g>
</g>
<!-- Node6&#45;&gt;Node7 -->
<g id="edge6_Node000006_Node000007" class="edge">
<title>Node6&#45;&gt;Node7</title>
<g id="a_edge6_Node000006_Node000007"><a xlink:title=" ">
<path fill="none" stroke="#63b8ff" d="M336.68,-9.62C326.61,-9.62 315.94,-9.62 305.5,-9.62"/>
<polygon fill="#63b8ff" stroke="#63b8ff" points="336.64,-13.13 346.64,-9.63 336.64,-6.13 336.64,-13.13"/>
</a>
</g>
</g>
<!-- Node7&#45;&gt;Node4 -->
<g id="edge7_Node000007_Node000004" class="edge">
<title>Node7&#45;&gt;Node4</title>
<g id="a_edge7_Node000007_Node000004"><a xlink:title=" ">
<path fill="none" stroke="#63b8ff" d="M160.75,-20.11C152.21,-21.28 143.92,-22.41 136.48,-23.42"/>
<polygon fill="#63b8ff" stroke="#63b8ff" points="161.14,-23.59 170.57,-18.78 160.19,-16.66 161.14,-23.59"/>
</a>
</g>
</g>
<!-- Node8&#45;&gt;Node3 -->
<g id="edge9_Node000008_Node000003" class="edge">
<title>Node8&#45;&gt;Node3</title>
<g id="a_edge9_Node000008_Node000003"><a xlink:title=" ">
<path fill="none" stroke="#63b8ff" d="M349.25,-46.62C335.28,-46.62 319.14,-46.62 303.63,-46.62"/>
<polygon fill="#63b8ff" stroke="#63b8ff" points="348.91,-50.13 358.91,-46.63 348.91,-43.13 348.91,-50.13"/>
</a>
</g>
</g>
</g>
</svg>

<g id="navigator" transform="translate(0 0)" fill="#404254">
  <rect fill="#f2f5e9" fill-opacity="0.5" stroke="#606060" stroke-width=".5" x="0" y="0" width="60" height="60"/>
  <use id="zoomplus" xlink:href="#zoomPlus" x="17" y="9" onmousedown="handleZoom(evt,'in')"/>
  <use id="zoomminus" xlink:href="#zoomMin" x="42" y="9" onmousedown="handleZoom(evt,'out')"/>
  <use id="reset" xlink:href="#resetDef" x="30" y="36" onmousedown="handleReset()"/>
   <use id="arrowup" xlink:href="#arrowUp" x="0" y="0" onmousedown="handlePan(0,-1)"/>
  <use id="arrowright" xlink:href="#arrowRight" x="0" y="0" onmousedown="handlePan(1,0)"/>
  <use id="arrowdown" xlink:href="#arrowDown" x="0" y="0" onmousedown="handlePan(0,1)"/>
  <use id="arrowleft" xlink:href="#arrowLeft" x="0" y="0" onmousedown="handlePan(-1,0)"/>
</g>
<svg viewBox="0 0 15 15" width="100%" height="30px" preserveAspectRatio="xMaxYMin meet">
 <g id="arrow_out" transform="scale(0.3 0.3)">
  <a xlink:href="su2rotate_8c_aa1ec05c745d2b15aa7e535268eee2ca1_icgraph_org.svg" target="_base">
   <rect id="button" ry="5" rx="5" y="6" x="6" height="38" width="38"
        fill="#f2f5e9" fill-opacity="0.5" stroke="#606060" stroke-width="1.0"/>
   <path id="arrow"
     d="M 11.500037,31.436501 C 11.940474,20.09759 22.043105,11.32322 32.158766,21.979434 L 37.068811,17.246167 C 37.068811,17.246167 37.088388,32 37.088388,32 L 22.160133,31.978069 C 22.160133,31.978069 26.997745,27.140456 26.997745,27.140456 C 18.528582,18.264221 13.291696,25.230495 11.500037,31.436501 z"
     style="fill:#404040;"/>
  </a>
 </g>
</svg>

<style type='text/css'>
<![CDATA[
[data-mouse-over-selected='false'] { opacity: 0.7; }
[data-mouse-over-selected='true']  { opacity: 1.0; }
]]>
</style>
<script type="application/ecmascript"><![CDATA[
document.addEventListener('DOMContentLoaded', (event) => {
  highlightEdges();
  highlightAdjacentNodes();
});
]]></script>
</svg>
