<?xml version="1.0" encoding="UTF-8" standalone="no"?>
<!DOCTYPE svg PUBLIC "-//W3C//DTD SVG 1.1//EN"
 "http://www.w3.org/Graphics/SVG/1.1/DTD/svg11.dtd">
<!-- Generated by graphviz version 14.0.0 (20250921.2048)
 -->
<!-- Title: src/fft/align.c Pages: 1 -->
<svg width="333pt" height="138pt"
 viewBox="0.00 0.00 333.00 138.00" xmlns="http://www.w3.org/2000/svg" xmlns:xlink="http://www.w3.org/1999/xlink">

<svg id="main" version="1.1" xmlns="http://www.w3.org/2000/svg" xmlns:xlink="http://www.w3.org/1999/xlink" xml:space="preserve">

<style type="text/css"><![CDATA[
.node, .edge {opacity: 0.7;}
.node.selected, .edge.selected {opacity: 1;}
.edge:hover path { stroke: red; }
.edge:hover polygon { stroke: red; fill: red; }
]]></style>
<script type="application/ecmascript" xlink:href="../../svg.min.js"/>
<svg id="graph" class="graph">
<g id="graph0" class="graph" transform="scale(1 1) rotate(0) translate(4 133.75)">
<title>src/fft/align.c</title>
<!-- Node1 -->
<g id="Node000001" class="node">
<title>Node1</title>
<g id="a_Node000001"><a xlink:title=" ">
<polygon fill="#999999" stroke="#666666" points="202,-129.75 129,-129.75 129,-110.5 202,-110.5 202,-129.75"/>
<text xml:space="preserve" text-anchor="middle" x="165.5" y="-116.25" font-family="Helvetica,sans-Serif" font-size="10.00">src/fft/align.c</text>
</a>
</g>
</g>
<!-- Node2 -->
<g id="Node000002" class="node">
<title>Node2</title>
<g id="a_Node000002"><a xlink:title=" ">
<polygon fill="#e0e0e0" stroke="#999999" points="61,-19.25 0,-19.25 0,0 61,0 61,-19.25"/>
<text xml:space="preserve" text-anchor="middle" x="30.5" y="-5.75" font-family="Helvetica,sans-Serif" font-size="10.00">complex.h</text>
</a>
</g>
</g>
<!-- Node1&#45;&gt;Node2 -->
<g id="edge1_Node000001_Node000002" class="edge">
<title>Node1&#45;&gt;Node2</title>
<g id="a_edge1_Node000001_Node000002"><a xlink:title=" ">
<path fill="none" stroke="#63b8ff" d="M154.45,-110.25C131.71,-91.97 79.37,-49.9 50.51,-26.71"/>
<polygon fill="#63b8ff" stroke="#63b8ff" points="52.87,-24.11 42.88,-20.57 48.48,-29.57 52.87,-24.11"/>
</a>
</g>
</g>
<!-- Node3 -->
<g id="Node000003" class="node">
<title>Node3</title>
<g id="a_Node000003"><a xlink:title=" ">
<polygon fill="#e0e0e0" stroke="#999999" points="125.5,-19.25 79.5,-19.25 79.5,0 125.5,0 125.5,-19.25"/>
<text xml:space="preserve" text-anchor="middle" x="102.5" y="-5.75" font-family="Helvetica,sans-Serif" font-size="10.00">fftw3.h</text>
</a>
</g>
</g>
<!-- Node1&#45;&gt;Node3 -->
<g id="edge2_Node000001_Node000003" class="edge">
<title>Node1&#45;&gt;Node3</title>
<g id="a_edge2_Node000001_Node000003"><a xlink:title=" ">
<path fill="none" stroke="#63b8ff" d="M160.31,-110.24C155.06,-101.24 146.71,-86.9 139.5,-74.5 130.74,-59.42 120.83,-42.31 113.48,-29.6"/>
<polygon fill="#63b8ff" stroke="#63b8ff" points="116.56,-27.94 108.52,-21.04 110.5,-31.44 116.56,-27.94"/>
</a>
</g>
</g>
<!-- Node4 -->
<g id="Node000004" class="node">
<title>Node4</title>
<g id="a_Node000004"><a xlink:href="../../da/d41/error_8h.html" target="_top" xlink:title=" ">
<polygon fill="white" stroke="#666666" points="322.25,-74.5 238.75,-74.5 238.75,-55.25 322.25,-55.25 322.25,-74.5"/>
<text xml:space="preserve" text-anchor="middle" x="280.5" y="-61" font-family="Helvetica,sans-Serif" font-size="10.00">common/error.h</text>
</a>
</g>
</g>
<!-- Node1&#45;&gt;Node4 -->
<g id="edge3_Node000001_Node000004" class="edge">
<title>Node1&#45;&gt;Node4</title>
<g id="a_edge3_Node000001_Node000004"><a xlink:title=" ">
<path fill="none" stroke="#63b8ff" d="M185.01,-110.09C203.02,-101.75 230.02,-89.25 250.73,-79.66"/>
<polygon fill="#63b8ff" stroke="#63b8ff" points="251.92,-82.97 259.52,-75.59 248.98,-76.61 251.92,-82.97"/>
</a>
</g>
</g>
<!-- Node5 -->
<g id="Node000005" class="node">
<title>Node5</title>
<g id="a_Node000005"><a xlink:href="../../d4/d0a/elph_c_8h.html" target="_top" xlink:title="Core type definitions and configuration for LetzElPhC.">
<polygon fill="white" stroke="#666666" points="325.38,-19.25 275.62,-19.25 275.62,0 325.38,0 325.38,-19.25"/>
<text xml:space="preserve" text-anchor="middle" x="300.5" y="-5.75" font-family="Helvetica,sans-Serif" font-size="10.00">elphC.h</text>
</a>
</g>
</g>
<!-- Node1&#45;&gt;Node5 -->
<g id="edge4_Node000001_Node000005" class="edge">
<title>Node1&#45;&gt;Node5</title>
<g id="a_edge4_Node000001_Node000005"><a xlink:title=" ">
<path fill="none" stroke="#63b8ff" d="M173.23,-110.23C184.74,-97.28 207.4,-72.86 229.5,-55.25 243.38,-44.19 260.15,-33.54 273.9,-25.42"/>
<polygon fill="#63b8ff" stroke="#63b8ff" points="275.51,-28.53 282.42,-20.5 272.01,-22.47 275.51,-28.53"/>
</a>
</g>
</g>
<!-- Node6 -->
<g id="Node000006" class="node">
<title>Node6</title>
<g id="a_Node000006"><a xlink:href="../../d7/d76/fft_8h.html" target="_top" xlink:title=" ">
<polygon fill="white" stroke="#666666" points="182.12,-74.5 148.88,-74.5 148.88,-55.25 182.12,-55.25 182.12,-74.5"/>
<text xml:space="preserve" text-anchor="middle" x="165.5" y="-61" font-family="Helvetica,sans-Serif" font-size="10.00">fft.h</text>
</a>
</g>
</g>
<!-- Node1&#45;&gt;Node6 -->
<g id="edge5_Node000001_Node000006" class="edge">
<title>Node1&#45;&gt;Node6</title>
<g id="a_edge5_Node000001_Node000006"><a xlink:title=" ">
<path fill="none" stroke="#63b8ff" d="M165.5,-110.33C165.5,-103.82 165.5,-94.67 165.5,-86.37"/>
<polygon fill="#63b8ff" stroke="#63b8ff" points="169,-86.37 165.5,-76.37 162,-86.37 169,-86.37"/>
</a>
</g>
</g>
<!-- Node6&#45;&gt;Node2 -->
<g id="edge7_Node000006_Node000002" class="edge">
<title>Node6&#45;&gt;Node2</title>
<g id="a_edge7_Node000006_Node000002"><a xlink:title=" ">
<path fill="none" stroke="#63b8ff" d="M148.4,-57.13C127.2,-48.77 90.58,-34.32 63.77,-23.75"/>
<polygon fill="#63b8ff" stroke="#63b8ff" points="65.3,-20.59 54.72,-20.18 62.74,-27.1 65.3,-20.59"/>
</a>
</g>
</g>
<!-- Node6&#45;&gt;Node3 -->
<g id="edge8_Node000006_Node000003" class="edge">
<title>Node6&#45;&gt;Node3</title>
<g id="a_edge8_Node000006_Node000003"><a xlink:title=" ">
<path fill="none" stroke="#63b8ff" d="M154.81,-54.84C145.8,-47.22 132.67,-36.12 121.82,-26.95"/>
<polygon fill="#63b8ff" stroke="#63b8ff" points="124.08,-24.28 114.19,-20.5 119.56,-29.63 124.08,-24.28"/>
</a>
</g>
</g>
<!-- Node6&#45;&gt;Node5 -->
<g id="edge6_Node000006_Node000005" class="edge">
<title>Node6&#45;&gt;Node5</title>
<g id="a_edge6_Node000006_Node000005"><a xlink:title=" ">
<path fill="none" stroke="#63b8ff" d="M182.6,-57.13C203.8,-48.77 240.42,-34.32 267.23,-23.75"/>
<polygon fill="#63b8ff" stroke="#63b8ff" points="268.26,-27.1 276.28,-20.18 265.7,-20.59 268.26,-27.1"/>
</a>
</g>
</g>
<!-- Node7 -->
<g id="Node000007" class="node">
<title>Node7</title>
<g id="a_Node000007"><a xlink:title=" ">
<polygon fill="#e0e0e0" stroke="#999999" points="257.5,-19.25 217.5,-19.25 217.5,0 257.5,0 257.5,-19.25"/>
<text xml:space="preserve" text-anchor="middle" x="237.5" y="-5.75" font-family="Helvetica,sans-Serif" font-size="10.00">mpi.h</text>
</a>
</g>
</g>
<!-- Node6&#45;&gt;Node7 -->
<g id="edge9_Node000006_Node000007" class="edge">
<title>Node6&#45;&gt;Node7</title>
<g id="a_edge9_Node000006_Node000007"><a xlink:title=" ">
<path fill="none" stroke="#63b8ff" d="M177.71,-54.84C188.33,-46.99 203.94,-35.45 216.54,-26.12"/>
<polygon fill="#63b8ff" stroke="#63b8ff" points="218.29,-29.19 224.25,-20.42 214.13,-23.56 218.29,-29.19"/>
</a>
</g>
</g>
<!-- Node8 -->
<g id="Node000008" class="node">
<title>Node8</title>
<g id="a_Node000008"><a xlink:title=" ">
<polygon fill="#e0e0e0" stroke="#999999" points="199.38,-19.25 143.62,-19.25 143.62,0 199.38,0 199.38,-19.25"/>
<text xml:space="preserve" text-anchor="middle" x="171.5" y="-5.75" font-family="Helvetica,sans-Serif" font-size="10.00">stdbool.h</text>
</a>
</g>
</g>
<!-- Node6&#45;&gt;Node8 -->
<g id="edge10_Node000006_Node000008" class="edge">
<title>Node6&#45;&gt;Node8</title>
<g id="a_edge10_Node000006_Node000008"><a xlink:title=" ">
<path fill="none" stroke="#63b8ff" d="M166.49,-55.08C167.23,-48.49 168.28,-39.21 169.22,-30.82"/>
<polygon fill="#63b8ff" stroke="#63b8ff" points="172.68,-31.44 170.32,-21.11 165.72,-30.66 172.68,-31.44"/>
</a>
</g>
</g>
</g>
</svg>
</svg>

<style type='text/css'>
<![CDATA[
[data-mouse-over-selected='false'] { opacity: 0.7; }
[data-mouse-over-selected='true']  { opacity: 1.0; }
]]>
</style>
<script type="application/ecmascript"><![CDATA[
document.addEventListener('DOMContentLoaded', (event) => {
  highlightEdges();
  highlightAdjacentNodes();
});
]]></script>
</svg>
