<?xml version="1.0" encoding="UTF-8" standalone="no"?>
<!DOCTYPE svg PUBLIC "-//W3C//DTD SVG 1.1//EN"
 "http://www.w3.org/Graphics/SVG/1.1/DTD/svg11.dtd">
<!-- Generated by graphviz version 14.0.0 (20250921.2048)
 -->
<!-- Title: src/nonloc/sum_VNL_KKp.c Pages: 1 -->
<svg width="269pt" height="204pt"
 viewBox="0.00 0.00 269.00 204.00" xmlns="http://www.w3.org/2000/svg" xmlns:xlink="http://www.w3.org/1999/xlink">

<svg id="main" version="1.1" xmlns="http://www.w3.org/2000/svg" xmlns:xlink="http://www.w3.org/1999/xlink" xml:space="preserve">

<style type="text/css"><![CDATA[
.node, .edge {opacity: 0.7;}
.node.selected, .edge.selected {opacity: 1;}
.edge:hover path { stroke: red; }
.edge:hover polygon { stroke: red; fill: red; }
]]></style>
<script type="application/ecmascript" xlink:href="../../svg.min.js"/>
<svg id="graph" class="graph">
<g id="graph0" class="graph" transform="scale(1 1) rotate(0) translate(4 200.25)">
<title>src/nonloc/sum_VNL_KKp.c</title>
<!-- Node1 -->
<g id="Node000001" class="node">
<title>Node1</title>
<g id="a_Node000001"><a xlink:title=" ">
<polygon fill="#999999" stroke="#666666" points="260.75,-196.25 153.25,-196.25 153.25,-165.75 260.75,-165.75 260.75,-196.25"/>
<text xml:space="preserve" text-anchor="start" x="161.25" y="-182.75" font-family="Helvetica,sans-Serif" font-size="10.00">src/nonloc/sum_VNL</text>
<text xml:space="preserve" text-anchor="middle" x="207" y="-171.5" font-family="Helvetica,sans-Serif" font-size="10.00">_KKp.c</text>
</a>
</g>
</g>
<!-- Node2 -->
<g id="Node000002" class="node">
<title>Node2</title>
<g id="a_Node000002"><a xlink:href="../../d9/dd1/_vnonloc_8h.html" target="_top" xlink:title=" ">
<polygon fill="white" stroke="#666666" points="207.75,-129.75 148.25,-129.75 148.25,-110.5 207.75,-110.5 207.75,-129.75"/>
<text xml:space="preserve" text-anchor="middle" x="178" y="-116.25" font-family="Helvetica,sans-Serif" font-size="10.00">Vnonloc.h</text>
</a>
</g>
</g>
<!-- Node1&#45;&gt;Node2 -->
<g id="edge1_Node000001_Node000002" class="edge">
<title>Node1&#45;&gt;Node2</title>
<g id="a_edge1_Node000001_Node000002"><a xlink:title=" ">
<path fill="none" stroke="#63b8ff" d="M199.83,-165.45C196.1,-157.86 191.48,-148.49 187.45,-140.32"/>
<polygon fill="#63b8ff" stroke="#63b8ff" points="190.7,-138.98 183.14,-131.56 184.42,-142.08 190.7,-138.98"/>
</a>
</g>
</g>
<!-- Node6 -->
<g id="Node000006" class="node">
<title>Node6</title>
<g id="a_Node000006"><a xlink:href="../../d4/d0a/elph_c_8h.html" target="_top" xlink:title="Core type definitions and configuration for LetzElPhC.">
<polygon fill="white" stroke="#666666" points="241.88,-19.25 192.12,-19.25 192.12,0 241.88,0 241.88,-19.25"/>
<text xml:space="preserve" text-anchor="middle" x="217" y="-5.75" font-family="Helvetica,sans-Serif" font-size="10.00">elphC.h</text>
</a>
</g>
</g>
<!-- Node1&#45;&gt;Node6 -->
<g id="edge8_Node000001_Node000006" class="edge">
<title>Node1&#45;&gt;Node6</title>
<g id="a_edge8_Node000001_Node000006"><a xlink:title=" ">
<path fill="none" stroke="#63b8ff" d="M210.65,-165.6C212.98,-155.61 215.8,-141.97 217,-129.75 220.41,-95.19 219.34,-54.72 218.21,-30.96"/>
<polygon fill="#63b8ff" stroke="#63b8ff" points="221.71,-30.93 217.68,-21.13 214.72,-31.31 221.71,-30.93"/>
</a>
</g>
</g>
<!-- Node3 -->
<g id="Node000003" class="node">
<title>Node3</title>
<g id="a_Node000003"><a xlink:href="../../d2/d02/dtypes_8h.html" target="_top" xlink:title=" ">
<polygon fill="white" stroke="#666666" points="170,-74.5 76,-74.5 76,-55.25 170,-55.25 170,-74.5"/>
<text xml:space="preserve" text-anchor="middle" x="123" y="-61" font-family="Helvetica,sans-Serif" font-size="10.00">common/dtypes.h</text>
</a>
</g>
</g>
<!-- Node2&#45;&gt;Node3 -->
<g id="edge2_Node000002_Node000003" class="edge">
<title>Node2&#45;&gt;Node3</title>
<g id="a_edge2_Node000002_Node000003"><a xlink:title=" ">
<path fill="none" stroke="#63b8ff" d="M168.92,-110.33C161.16,-102.82 149.79,-91.81 140.3,-82.63"/>
<polygon fill="#63b8ff" stroke="#63b8ff" points="142.99,-80.35 133.37,-75.91 138.12,-85.38 142.99,-80.35"/>
</a>
</g>
</g>
<!-- Node2&#45;&gt;Node6 -->
<g id="edge7_Node000002_Node000006" class="edge">
<title>Node2&#45;&gt;Node6</title>
<g id="a_edge7_Node000002_Node000006"><a xlink:title=" ">
<path fill="none" stroke="#63b8ff" d="M181.19,-110.25C187.45,-92.84 201.45,-53.87 209.98,-30.16"/>
<polygon fill="#63b8ff" stroke="#63b8ff" points="213.16,-31.65 213.25,-21.05 206.58,-29.28 213.16,-31.65"/>
</a>
</g>
</g>
<!-- Node4 -->
<g id="Node000004" class="node">
<title>Node4</title>
<g id="a_Node000004"><a xlink:title=" ">
<polygon fill="#e0e0e0" stroke="#999999" points="40,-19.25 0,-19.25 0,0 40,0 40,-19.25"/>
<text xml:space="preserve" text-anchor="middle" x="20" y="-5.75" font-family="Helvetica,sans-Serif" font-size="10.00">mpi.h</text>
</a>
</g>
</g>
<!-- Node3&#45;&gt;Node4 -->
<g id="edge3_Node000003_Node000004" class="edge">
<title>Node3&#45;&gt;Node4</title>
<g id="a_edge3_Node000003_Node000004"><a xlink:title=" ">
<path fill="none" stroke="#63b8ff" d="M105.53,-54.84C89.69,-46.66 66.09,-34.46 47.69,-24.94"/>
<polygon fill="#63b8ff" stroke="#63b8ff" points="49.39,-21.88 38.9,-20.4 46.18,-28.1 49.39,-21.88"/>
</a>
</g>
</g>
<!-- Node5 -->
<g id="Node000005" class="node">
<title>Node5</title>
<g id="a_Node000005"><a xlink:title=" ">
<polygon fill="#e0e0e0" stroke="#999999" points="113.88,-19.25 58.12,-19.25 58.12,0 113.88,0 113.88,-19.25"/>
<text xml:space="preserve" text-anchor="middle" x="86" y="-5.75" font-family="Helvetica,sans-Serif" font-size="10.00">stdbool.h</text>
</a>
</g>
</g>
<!-- Node3&#45;&gt;Node5 -->
<g id="edge4_Node000003_Node000005" class="edge">
<title>Node3&#45;&gt;Node5</title>
<g id="a_edge4_Node000003_Node000005"><a xlink:title=" ">
<path fill="none" stroke="#63b8ff" d="M116.89,-55.08C111.94,-47.96 104.8,-37.68 98.63,-28.8"/>
<polygon fill="#63b8ff" stroke="#63b8ff" points="101.69,-27.07 93.11,-20.85 95.94,-31.06 101.69,-27.07"/>
</a>
</g>
</g>
<!-- Node3&#45;&gt;Node6 -->
<g id="edge5_Node000003_Node000006" class="edge">
<title>Node3&#45;&gt;Node6</title>
<g id="a_edge5_Node000003_Node000006"><a xlink:title=" ">
<path fill="none" stroke="#63b8ff" d="M138.95,-54.84C153.26,-46.73 174.53,-34.68 191.25,-25.21"/>
<polygon fill="#63b8ff" stroke="#63b8ff" points="192.68,-28.42 199.66,-20.45 189.23,-22.33 192.68,-28.42"/>
</a>
</g>
</g>
<!-- Node7 -->
<g id="Node000007" class="node">
<title>Node7</title>
<g id="a_Node000007"><a xlink:href="../../da/d41/error_8h.html" target="_top" xlink:title=" ">
<polygon fill="white" stroke="#666666" points="174.5,-19.25 131.5,-19.25 131.5,0 174.5,0 174.5,-19.25"/>
<text xml:space="preserve" text-anchor="middle" x="153" y="-5.75" font-family="Helvetica,sans-Serif" font-size="10.00">error.h</text>
</a>
</g>
</g>
<!-- Node3&#45;&gt;Node7 -->
<g id="edge6_Node000003_Node000007" class="edge">
<title>Node3&#45;&gt;Node7</title>
<g id="a_edge6_Node000003_Node000007"><a xlink:title=" ">
<path fill="none" stroke="#63b8ff" d="M127.95,-55.08C131.88,-48.11 137.51,-38.12 142.44,-29.37"/>
<polygon fill="#63b8ff" stroke="#63b8ff" points="145.34,-31.36 147.2,-20.93 139.24,-27.92 145.34,-31.36"/>
</a>
</g>
</g>
</g>
</svg>
</svg>

<style type='text/css'>
<![CDATA[
[data-mouse-over-selected='false'] { opacity: 0.7; }
[data-mouse-over-selected='true']  { opacity: 1.0; }
]]>
</style>
<script type="application/ecmascript"><![CDATA[
document.addEventListener('DOMContentLoaded', (event) => {
  highlightEdges();
  highlightAdjacentNodes();
});
]]></script>
</svg>
