<?xml version="1.0" encoding="UTF-8" standalone="no"?>
<!DOCTYPE svg PUBLIC "-//W3C//DTD SVG 1.1//EN"
 "http://www.w3.org/Graphics/SVG/1.1/DTD/svg11.dtd">
<!-- Generated by graphviz version 14.0.0 (20250921.2048)
 -->
<!-- Title: generate_iBZ_kpts Pages: 1 -->
<svg width="228pt" height="64pt"
 viewBox="0.00 0.00 228.00 64.00" xmlns="http://www.w3.org/2000/svg" xmlns:xlink="http://www.w3.org/1999/xlink">
<g id="graph0" class="graph" transform="scale(1 1) rotate(0) translate(4 60.25)">
<title>generate_iBZ_kpts</title>
<!-- Node1 -->
<g id="Node000001" class="node">
<title>Node1</title>
<g id="a_Node000001"><a xlink:title=" ">
<polygon fill="#999999" stroke="#666666" points="97.75,-37.25 0,-37.25 0,-18 97.75,-18 97.75,-37.25"/>
<text xml:space="preserve" text-anchor="middle" x="48.88" y="-23.75" font-family="Helvetica,sans-Serif" font-size="10.00">generate_iBZ_kpts</text>
</a>
</g>
</g>
<!-- Node2 -->
<g id="Node000002" class="node">
<title>Node2</title>
<g id="a_Node000002"><a xlink:href="../../de/d2d/numerical__func_8c.html#a95da0d07e74aa4a00285324f1464224b" target="_top" xlink:title=" ">
<polygon fill="white" stroke="#666666" points="219.5,-56.25 133.75,-56.25 133.75,-37 219.5,-37 219.5,-56.25"/>
<text xml:space="preserve" text-anchor="middle" x="176.62" y="-42.75" font-family="Helvetica,sans-Serif" font-size="10.00">find_kidx_in_list</text>
</a>
</g>
</g>
<!-- Node1&#45;&gt;Node2 -->
<g id="edge1_Node000001_Node000002" class="edge">
<title>Node1&#45;&gt;Node2</title>
<g id="a_edge1_Node000001_Node000002"><a xlink:title=" ">
<path fill="none" stroke="#63b8ff" d="M98.13,-34.92C106.04,-36.11 114.28,-37.36 122.3,-38.57"/>
<polygon fill="#63b8ff" stroke="#63b8ff" points="121.54,-41.99 131.95,-40.03 122.58,-35.07 121.54,-41.99"/>
</a>
</g>
</g>
<!-- Node3 -->
<g id="Node000003" class="node">
<title>Node3</title>
<g id="a_Node000003"><a xlink:href="../../de/d2d/numerical__func_8c.html#adeeb2c0049b8e3663d2d2cc9f7a1cd23" target="_top" xlink:title=" ">
<polygon fill="white" stroke="#666666" points="205.62,-19.25 147.62,-19.25 147.62,0 205.62,0 205.62,-19.25"/>
<text xml:space="preserve" text-anchor="middle" x="176.62" y="-5.75" font-family="Helvetica,sans-Serif" font-size="10.00">MatVec3f</text>
</a>
</g>
</g>
<!-- Node1&#45;&gt;Node3 -->
<g id="edge2_Node000001_Node000003" class="edge">
<title>Node1&#45;&gt;Node3</title>
<g id="a_edge2_Node000001_Node000003"><a xlink:title=" ">
<path fill="none" stroke="#63b8ff" d="M98.13,-20.72C110.73,-18.91 124.16,-16.99 136.23,-15.26"/>
<polygon fill="#63b8ff" stroke="#63b8ff" points="136.42,-18.77 145.83,-13.89 135.43,-11.84 136.42,-18.77"/>
</a>
</g>
</g>
</g>
</svg>
