<?xml version="1.0" encoding="UTF-8" standalone="no"?>
<!DOCTYPE svg PUBLIC "-//W3C//DTD SVG 1.1//EN"
 "http://www.w3.org/Graphics/SVG/1.1/DTD/svg11.dtd">
<!-- Generated by graphviz version 14.0.0 (20250921.2048)
 -->
<!-- Title: rotate_eig_vecs Pages: 1 -->
<svg width="339pt" height="212pt"
 viewBox="0.00 0.00 339.00 212.00" xmlns="http://www.w3.org/2000/svg" xmlns:xlink="http://www.w3.org/1999/xlink">

<svg id="main" version="1.1" xmlns="http://www.w3.org/2000/svg" xmlns:xlink="http://www.w3.org/1999/xlink" xml:space="preserve">

<style type="text/css"><![CDATA[
.node, .edge {opacity: 0.7;}
.node.selected, .edge.selected {opacity: 1;}
.edge:hover path { stroke: red; }
.edge:hover polygon { stroke: red; fill: red; }
]]></style>
<script type="application/ecmascript" xlink:href="../../svg.min.js"/>
<svg id="graph" class="graph">
<g id="graph0" class="graph" transform="scale(1 1) rotate(0) translate(4 208.25)">
<title>rotate_eig_vecs</title>
<!-- Node1 -->
<g id="Node000001" class="node">
<title>Node1</title>
<g id="a_Node000001"><a xlink:title=" ">
<polygon fill="#999999" stroke="#666666" points="85,-111.25 0,-111.25 0,-92 85,-92 85,-111.25"/>
<text xml:space="preserve" text-anchor="middle" x="42.5" y="-97.75" font-family="Helvetica,sans-Serif" font-size="10.00">rotate_eig_vecs</text>
</a>
</g>
</g>
<!-- Node2 -->
<g id="Node000002" class="node">
<title>Node2</title>
<g id="a_Node000002"><a xlink:href="../../da/d97/_e_l_p_h__timers_8c.html#a4846a0dbe6a17751878baf1315af43aa" target="_top" xlink:title=" ">
<polygon fill="white" stroke="#666666" points="216.5,-204.25 121,-204.25 121,-185 216.5,-185 216.5,-204.25"/>
<text xml:space="preserve" text-anchor="middle" x="168.75" y="-190.75" font-family="Helvetica,sans-Serif" font-size="10.00">ELPH_start_clock</text>
</a>
</g>
</g>
<!-- Node1&#45;&gt;Node2 -->
<g id="edge1_Node000001_Node000002" class="edge">
<title>Node1&#45;&gt;Node2</title>
<g id="a_edge1_Node000001_Node000002"><a xlink:title=" ">
<path fill="none" stroke="#63b8ff" d="M51.55,-111.69C64.63,-127.45 91.96,-158.08 121,-176.62 122.81,-177.78 124.71,-178.89 126.67,-179.93"/>
<polygon fill="#63b8ff" stroke="#63b8ff" points="124.81,-182.93 135.35,-184.05 127.81,-176.6 124.81,-182.93"/>
</a>
</g>
</g>
<!-- Node3 -->
<g id="Node000003" class="node">
<title>Node3</title>
<g id="a_Node000003"><a xlink:href="../../da/d97/_e_l_p_h__timers_8c.html#adcc3002449fe62895b6e89571d00ba48" target="_top" xlink:title=" ">
<polygon fill="white" stroke="#666666" points="216.12,-167.25 121.38,-167.25 121.38,-148 216.12,-148 216.12,-167.25"/>
<text xml:space="preserve" text-anchor="middle" x="168.75" y="-153.75" font-family="Helvetica,sans-Serif" font-size="10.00">ELPH_stop_clock</text>
</a>
</g>
</g>
<!-- Node1&#45;&gt;Node3 -->
<g id="edge2_Node000001_Node000003" class="edge">
<title>Node1&#45;&gt;Node3</title>
<g id="a_edge2_Node000001_Node000003"><a xlink:title=" ">
<path fill="none" stroke="#63b8ff" d="M62.71,-111.63C78.26,-119.59 100.81,-130.81 121,-139.62 123.82,-140.86 126.75,-142.09 129.71,-143.3"/>
<polygon fill="#63b8ff" stroke="#63b8ff" points="128.4,-146.55 138.99,-147 130.99,-140.05 128.4,-146.55"/>
</a>
</g>
</g>
<!-- Node4 -->
<g id="Node000004" class="node">
<title>Node4</title>
<g id="a_Node000004"><a xlink:href="../../de/d2d/numerical__func_8c.html#a95da0d07e74aa4a00285324f1464224b" target="_top" xlink:title=" ">
<polygon fill="white" stroke="#666666" points="211.62,-130.25 125.88,-130.25 125.88,-111 211.62,-111 211.62,-130.25"/>
<text xml:space="preserve" text-anchor="middle" x="168.75" y="-116.75" font-family="Helvetica,sans-Serif" font-size="10.00">find_kidx_in_list</text>
</a>
</g>
</g>
<!-- Node1&#45;&gt;Node4 -->
<g id="edge3_Node000001_Node000004" class="edge">
<title>Node1&#45;&gt;Node4</title>
<g id="a_edge3_Node000001_Node000004"><a xlink:title=" ">
<path fill="none" stroke="#63b8ff" d="M85.22,-108C94.54,-109.43 104.56,-110.96 114.28,-112.45"/>
<polygon fill="#63b8ff" stroke="#63b8ff" points="113.6,-115.88 124.01,-113.94 114.65,-108.96 113.6,-115.88"/>
</a>
</g>
</g>
<!-- Node5 -->
<g id="Node000005" class="node">
<title>Node5</title>
<g id="a_Node000005"><a xlink:href="../../dc/d50/blas_8c.html#a93d327b9e3c8bd925ff76d32df39809c" target="_top" xlink:title=" ">
<polygon fill="white" stroke="#666666" points="208.62,-93.25 128.88,-93.25 128.88,-74 208.62,-74 208.62,-93.25"/>
<text xml:space="preserve" text-anchor="middle" x="168.75" y="-79.75" font-family="Helvetica,sans-Serif" font-size="10.00">matmul_cmplx</text>
</a>
</g>
</g>
<!-- Node1&#45;&gt;Node5 -->
<g id="edge4_Node000001_Node000005" class="edge">
<title>Node1&#45;&gt;Node5</title>
<g id="a_edge4_Node000001_Node000005"><a xlink:title=" ">
<path fill="none" stroke="#63b8ff" d="M85.22,-95.58C95.47,-94.1 106.56,-92.49 117.17,-90.95"/>
<polygon fill="#63b8ff" stroke="#63b8ff" points="117.56,-94.43 126.95,-89.54 116.55,-87.51 117.56,-94.43"/>
</a>
</g>
</g>
<!-- Node7 -->
<g id="Node000007" class="node">
<title>Node7</title>
<g id="a_Node000007"><a xlink:href="../../dc/d50/blas_8c.html#afca62df4906b4070e12af84f53906dc8" target="_top" xlink:title=" ">
<polygon fill="white" stroke="#666666" points="204.88,-56.25 132.62,-56.25 132.62,-37 204.88,-37 204.88,-56.25"/>
<text xml:space="preserve" text-anchor="middle" x="168.75" y="-42.75" font-family="Helvetica,sans-Serif" font-size="10.00">matmul_float</text>
</a>
</g>
</g>
<!-- Node1&#45;&gt;Node7 -->
<g id="edge6_Node000001_Node000007" class="edge">
<title>Node1&#45;&gt;Node7</title>
<g id="a_edge6_Node000001_Node000007"><a xlink:title=" ">
<path fill="none" stroke="#63b8ff" d="M63.38,-91.61C78.92,-83.91 101.14,-73.17 121,-64.62 123.82,-63.41 126.76,-62.19 129.72,-60.98"/>
<polygon fill="#63b8ff" stroke="#63b8ff" points="131,-64.24 139.01,-57.3 128.42,-57.73 131,-64.24"/>
</a>
</g>
</g>
<!-- Node8 -->
<g id="Node000008" class="node">
<title>Node8</title>
<g id="a_Node000008"><a xlink:href="../../de/d2d/numerical__func_8c.html#adeeb2c0049b8e3663d2d2cc9f7a1cd23" target="_top" xlink:title=" ">
<polygon fill="white" stroke="#666666" points="197.75,-19.25 139.75,-19.25 139.75,0 197.75,0 197.75,-19.25"/>
<text xml:space="preserve" text-anchor="middle" x="168.75" y="-5.75" font-family="Helvetica,sans-Serif" font-size="10.00">MatVec3f</text>
</a>
</g>
</g>
<!-- Node1&#45;&gt;Node8 -->
<g id="edge8_Node000001_Node000008" class="edge">
<title>Node1&#45;&gt;Node8</title>
<g id="a_edge8_Node000001_Node000008"><a xlink:title=" ">
<path fill="none" stroke="#63b8ff" d="M51.58,-91.71C64.7,-76.16 92.09,-45.95 121,-27.62 123.6,-25.98 126.37,-24.45 129.21,-23.02"/>
<polygon fill="#63b8ff" stroke="#63b8ff" points="130.59,-26.24 138.3,-18.98 127.74,-19.85 130.59,-26.24"/>
</a>
</g>
</g>
<!-- Node6 -->
<g id="Node000006" class="node">
<title>Node6</title>
<g id="a_Node000006"><a xlink:href="../../dc/d50/blas_8c.html#a913bafabc05e83b2aeed88da231a461f" target="_top" xlink:title=" ">
<polygon fill="white" stroke="#666666" points="330.75,-74.25 252.5,-74.25 252.5,-55 330.75,-55 330.75,-74.25"/>
<text xml:space="preserve" text-anchor="middle" x="291.62" y="-60.75" font-family="Helvetica,sans-Serif" font-size="10.00">get_gemmn_T</text>
</a>
</g>
</g>
<!-- Node5&#45;&gt;Node6 -->
<g id="edge5_Node000005_Node000006" class="edge">
<title>Node5&#45;&gt;Node6</title>
<g id="a_edge5_Node000005_Node000006"><a xlink:title=" ">
<path fill="none" stroke="#63b8ff" d="M208.99,-77.46C219.22,-75.85 230.37,-74.1 241.06,-72.42"/>
<polygon fill="#63b8ff" stroke="#63b8ff" points="241.57,-75.88 250.91,-70.87 240.48,-68.96 241.57,-75.88"/>
</a>
</g>
</g>
<!-- Node7&#45;&gt;Node6 -->
<g id="edge7_Node000007_Node000006" class="edge">
<title>Node7&#45;&gt;Node6</title>
<g id="a_edge7_Node000007_Node000006"><a xlink:title=" ">
<path fill="none" stroke="#63b8ff" d="M205.36,-51.93C216.55,-53.59 229.11,-55.46 241.08,-57.25"/>
<polygon fill="#63b8ff" stroke="#63b8ff" points="240.41,-60.69 250.82,-58.7 241.44,-53.76 240.41,-60.69"/>
</a>
</g>
</g>
</g>
</svg>
</svg>

<style type='text/css'>
<![CDATA[
[data-mouse-over-selected='false'] { opacity: 0.7; }
[data-mouse-over-selected='true']  { opacity: 1.0; }
]]>
</style>
<script type="application/ecmascript"><![CDATA[
document.addEventListener('DOMContentLoaded', (event) => {
  highlightEdges();
  highlightAdjacentNodes();
});
]]></script>
</svg>
