<?xml version="1.0" encoding="UTF-8" standalone="no"?>
<!DOCTYPE svg PUBLIC "-//W3C//DTD SVG 1.1//EN"
 "http://www.w3.org/Graphics/SVG/1.1/DTD/svg11.dtd">
<!-- Generated by graphviz version 14.0.0 (20250921.2048)
 -->
<!-- Title: src/common/constants.h Pages: 1 -->
<!--zoomable 94 -->

<svg id="main" version="1.1" xmlns="http://www.w3.org/2000/svg" xmlns:xlink="http://www.w3.org/1999/xlink" xml:space="preserve" onload="init(evt)">

<style type="text/css"><![CDATA[
.node, .edge {opacity: 0.7;}
.node.selected, .edge.selected {opacity: 1;}
.edge:hover path { stroke: red; }
.edge:hover polygon { stroke: red; fill: red; }
]]></style>

<defs>
  <circle id="rim" cx="0" cy="0" r="7"/>
  <circle id="rim2" cx="0" cy="0" r="3.5"/>
  <g id="zoomPlus">
    <use xlink:href="#rim" fill="#404040"><set attributeName="fill" to="#808080" begin="zoomplus.mouseover" end="zoomplus.mouseout"/></use>
    <path d="M-4,0h8M0,-4v8" fill="none" stroke="white" stroke-width="1.5" pointer-events="none"/>
  </g>
  <g id="zoomMin">
    <use xlink:href="#rim" fill="#404040"><set attributeName="fill" to="#808080" begin="zoomminus.mouseover" end="zoomminus.mouseout"/></use>
    <path d="M-4,0h8" fill="none" stroke="white" stroke-width="1.5" pointer-events="none"/>
  </g>
  <g id="arrowUp" transform="translate(30 24)">
    <use xlink:href="#rim"/>
    <path pointer-events="none" fill="none" stroke="white" stroke-width="1.5" d="M0,-3.0v7 M-2.5,-0.5L0,-3.0L2.5,-0.5"/>
  </g>
  <g id="arrowRight" transform="rotate(90) translate(36 -43)">
    <use xlink:href="#rim"/>
    <path pointer-events="none" fill="none" stroke="white" stroke-width="1.5" d="M0,-3.0v7 M-2.5,-0.5L0,-3.0L2.5,-0.5"/>
  </g>
  <g id="arrowDown" transform="rotate(180) translate(-30 -48)">
    <use xlink:href="#rim"/>
    <path pointer-events="none" fill="none" stroke="white" stroke-width="1.5" d="M0,-3.0v7 M-2.5,-0.5L0,-3.0L2.5,-0.5"/>
  </g>
  <g id="arrowLeft" transform="rotate(270) translate(-36 17)">
    <use xlink:href="#rim"/>
    <path pointer-events="none" fill="none" stroke="white" stroke-width="1.5" d="M0,-3.0v7 M-2.5,-0.5L0,-3.0L2.5,-0.5"/>
  </g>
  <g id="resetDef">
    <use xlink:href="#rim2" fill="#404040"><set attributeName="fill" to="#808080" begin="reset.mouseover" end="reset.mouseout"/></use>
  </g>
</defs>
<script type="application/ecmascript">
var viewWidth = 2607;
var viewHeight = 94;
var sectionId = 'dynsection-1';
</script>
<script type="application/ecmascript" xlink:href="../../svg.min.js"/>
<svg id="graph" class="graph">
<g id="viewport">
<title>src/common/constants.h</title>
<!-- Node1 -->
<g id="Node000001" class="node">
<title>Node1</title>
<g id="a_Node000001"><a xlink:title=" ">
<polygon fill="#999999" stroke="#666666" points="1426.5,-85.75 1302.5,-85.75 1302.5,-66.5 1426.5,-66.5 1426.5,-85.75"/>
<text xml:space="preserve" text-anchor="middle" x="1364.5" y="-72.25" font-family="Helvetica,sans-Serif" font-size="10.00">src/common/constants.h</text>
</a>
</g>
</g>
<!-- Node2 -->
<g id="Node000002" class="node">
<title>Node2</title>
<g id="a_Node000002"><a xlink:href="../../de/d2d/numerical__func_8c.html" target="_top" xlink:title=" ">
<polygon fill="white" stroke="#666666" points="115,-30.5 0,-30.5 0,0 115,0 115,-30.5"/>
<text xml:space="preserve" text-anchor="start" x="8" y="-17" font-family="Helvetica,sans-Serif" font-size="10.00">src/common/numerical</text>
<text xml:space="preserve" text-anchor="middle" x="57.5" y="-5.75" font-family="Helvetica,sans-Serif" font-size="10.00">_func.c</text>
</a>
</g>
</g>
<!-- Node1&#45;&gt;Node2 -->
<g id="edge1_Node000001_Node000002" class="edge">
<title>Node1&#45;&gt;Node2</title>
<g id="a_edge1_Node000001_Node000002"><a xlink:title=" ">
<path fill="none" stroke="#63b8ff" d="M1291,-74.19C1060.16,-70.97 351.49,-58.99 123.5,-30.5 120.82,-30.17 118.1,-29.78 115.35,-29.34"/>
<polygon fill="#63b8ff" stroke="#63b8ff" points="1290.72,-77.68 1300.76,-74.32 1290.81,-70.68 1290.72,-77.68"/>
</a>
</g>
</g>
<!-- Node3 -->
<g id="Node000003" class="node">
<title>Node3</title>
<g id="a_Node000003"><a xlink:href="../../d7/d4b/_vloc_g__atom_8c.html" target="_top" xlink:title=" ">
<polygon fill="white" stroke="#666666" points="254,-24.88 133,-24.88 133,-5.63 254,-5.63 254,-24.88"/>
<text xml:space="preserve" text-anchor="middle" x="193.5" y="-11.38" font-family="Helvetica,sans-Serif" font-size="10.00">src/dvloc/VlocG_atom.c</text>
</a>
</g>
</g>
<!-- Node1&#45;&gt;Node3 -->
<g id="edge2_Node000001_Node000003" class="edge">
<title>Node1&#45;&gt;Node3</title>
<g id="a_edge2_Node000001_Node000003"><a xlink:title=" ">
<path fill="none" stroke="#63b8ff" d="M1290.66,-73.71C1077.26,-69.36 462.3,-55.01 262.5,-30.5 252.54,-29.28 241.89,-27.38 232,-25.36"/>
<polygon fill="#63b8ff" stroke="#63b8ff" points="1290.44,-77.2 1300.51,-73.91 1290.58,-70.21 1290.44,-77.2"/>
</a>
</g>
</g>
<!-- Node4 -->
<g id="Node000004" class="node">
<title>Node4</title>
<g id="a_Node000004"><a xlink:href="../../d1/d8e/compute___vbare__loc_8c.html" target="_top" xlink:title=" ">
<polygon fill="white" stroke="#666666" points="399,-30.5 272,-30.5 272,0 399,0 399,-30.5"/>
<text xml:space="preserve" text-anchor="start" x="280" y="-17" font-family="Helvetica,sans-Serif" font-size="10.00">src/dvloc/compute_Vbare</text>
<text xml:space="preserve" text-anchor="middle" x="335.5" y="-5.75" font-family="Helvetica,sans-Serif" font-size="10.00">_loc.c</text>
</a>
</g>
</g>
<!-- Node1&#45;&gt;Node4 -->
<g id="edge3_Node000001_Node000004" class="edge">
<title>Node1&#45;&gt;Node4</title>
<g id="a_edge3_Node000001_Node000004"><a xlink:title=" ">
<path fill="none" stroke="#63b8ff" d="M1290.92,-75.41C1130.05,-75.23 735.22,-70.35 407.5,-30.5 404.84,-30.18 402.14,-29.81 399.41,-29.41"/>
<polygon fill="#63b8ff" stroke="#63b8ff" points="1290.58,-78.91 1300.58,-75.42 1290.58,-71.91 1290.58,-78.91"/>
</a>
</g>
</g>
<!-- Node5 -->
<g id="Node000005" class="node">
<title>Node5</title>
<g id="a_Node000005"><a xlink:href="../../d9/d90/d_vbare__loc_8c.html" target="_top" xlink:title=" ">
<polygon fill="white" stroke="#666666" points="532.38,-24.88 416.62,-24.88 416.62,-5.63 532.38,-5.63 532.38,-24.88"/>
<text xml:space="preserve" text-anchor="middle" x="474.5" y="-11.38" font-family="Helvetica,sans-Serif" font-size="10.00">src/dvloc/dVbare_loc.c</text>
</a>
</g>
</g>
<!-- Node1&#45;&gt;Node5 -->
<g id="edge4_Node000001_Node000005" class="edge">
<title>Node1&#45;&gt;Node5</title>
<g id="a_edge4_Node000001_Node000005"><a xlink:title=" ">
<path fill="none" stroke="#63b8ff" d="M1290.94,-74.96C1146.58,-73.79 816.34,-66.95 541.5,-30.5 531.95,-29.23 521.74,-27.34 512.24,-25.35"/>
<polygon fill="#63b8ff" stroke="#63b8ff" points="1290.71,-78.46 1300.74,-75.03 1290.76,-71.46 1290.71,-78.46"/>
</a>
</g>
</g>
<!-- Node6 -->
<g id="Node000006" class="node">
<title>Node6</title>
<g id="a_Node000006"><a xlink:href="../../d9/def/d_vlong__range__kernel_8c.html" target="_top" xlink:title=" ">
<polygon fill="white" stroke="#666666" points="668.5,-30.5 550.5,-30.5 550.5,0 668.5,0 668.5,-30.5"/>
<text xml:space="preserve" text-anchor="start" x="558.5" y="-17" font-family="Helvetica,sans-Serif" font-size="10.00">src/dvloc/dVlong_range</text>
<text xml:space="preserve" text-anchor="middle" x="609.5" y="-5.75" font-family="Helvetica,sans-Serif" font-size="10.00">_kernel.c</text>
</a>
</g>
</g>
<!-- Node1&#45;&gt;Node6 -->
<g id="edge5_Node000001_Node000006" class="edge">
<title>Node1&#45;&gt;Node6</title>
<g id="a_edge5_Node000001_Node000006"><a xlink:title=" ">
<path fill="none" stroke="#63b8ff" d="M1290.75,-73.76C1164.58,-70.65 899.42,-60.81 677.5,-30.5 674.63,-30.11 671.7,-29.66 668.75,-29.18"/>
<polygon fill="#63b8ff" stroke="#63b8ff" points="1290.56,-77.25 1300.64,-73.99 1290.73,-70.26 1290.56,-77.25"/>
</a>
</g>
</g>
<!-- Node7 -->
<g id="Node000007" class="node">
<title>Node7</title>
<g id="a_Node000007"><a xlink:href="../../d1/d94/d_vpot__add__long__range_8c.html" target="_top" xlink:title=" ">
<polygon fill="white" stroke="#666666" points="792.12,-30.5 686.88,-30.5 686.88,0 792.12,0 792.12,-30.5"/>
<text xml:space="preserve" text-anchor="start" x="694.88" y="-17" font-family="Helvetica,sans-Serif" font-size="10.00">src/dvloc/dVpot_add</text>
<text xml:space="preserve" text-anchor="middle" x="739.5" y="-5.75" font-family="Helvetica,sans-Serif" font-size="10.00">_long_range.c</text>
</a>
</g>
</g>
<!-- Node1&#45;&gt;Node7 -->
<g id="edge6_Node000001_Node000007" class="edge">
<title>Node1&#45;&gt;Node7</title>
<g id="a_edge6_Node000001_Node000007"><a xlink:title=" ">
<path fill="none" stroke="#63b8ff" d="M1290.69,-72.73C1182.73,-68.44 975.65,-57.27 801.5,-30.5 798.55,-30.05 795.54,-29.53 792.5,-28.97"/>
<polygon fill="#63b8ff" stroke="#63b8ff" points="1290.45,-76.22 1300.58,-73.11 1290.72,-69.23 1290.45,-76.22"/>
</a>
</g>
</g>
<!-- Node8 -->
<g id="Node000008" class="node">
<title>Node8</title>
<g id="a_Node000008"><a xlink:href="../../d4/dd4/multiply__eikr_8c.html" target="_top" xlink:title=" ">
<polygon fill="white" stroke="#666666" points="902.75,-30.5 810.25,-30.5 810.25,0 902.75,0 902.75,-30.5"/>
<text xml:space="preserve" text-anchor="start" x="818.25" y="-17" font-family="Helvetica,sans-Serif" font-size="10.00">src/dvloc/multiply</text>
<text xml:space="preserve" text-anchor="middle" x="856.5" y="-5.75" font-family="Helvetica,sans-Serif" font-size="10.00">_eikr.c</text>
</a>
</g>
</g>
<!-- Node1&#45;&gt;Node8 -->
<g id="edge7_Node000001_Node000008" class="edge">
<title>Node1&#45;&gt;Node8</title>
<g id="a_edge7_Node000001_Node000008"><a xlink:title=" ">
<path fill="none" stroke="#63b8ff" d="M1290.9,-71.28C1201.06,-65.79 1044.75,-53.72 912.5,-30.5 909.44,-29.96 906.29,-29.35 903.14,-28.68"/>
<polygon fill="#63b8ff" stroke="#63b8ff" points="1290.62,-74.77 1300.81,-71.87 1291.04,-67.78 1290.62,-74.77"/>
</a>
</g>
</g>
<!-- Node9 -->
<g id="Node000009" class="node">
<title>Node9</title>
<g id="a_Node000009"><a xlink:href="../../da/dc2/interpolation__driver_8c.html" target="_top" xlink:title=" ">
<polygon fill="white" stroke="#666666" points="1061.75,-30.5 921.25,-30.5 921.25,0 1061.75,0 1061.75,-30.5"/>
<text xml:space="preserve" text-anchor="start" x="929.25" y="-17" font-family="Helvetica,sans-Serif" font-size="10.00">src/interpolation/interpolation</text>
<text xml:space="preserve" text-anchor="middle" x="991.5" y="-5.75" font-family="Helvetica,sans-Serif" font-size="10.00">_driver.c</text>
</a>
</g>
</g>
<!-- Node1&#45;&gt;Node9 -->
<g id="edge8_Node000001_Node000009" class="edge">
<title>Node1&#45;&gt;Node9</title>
<g id="a_edge8_Node000001_Node000009"><a xlink:title=" ">
<path fill="none" stroke="#63b8ff" d="M1291,-64.45C1231.69,-55.72 1146.14,-42.83 1071.5,-30.5 1068.44,-29.99 1065.31,-29.47 1062.15,-28.93"/>
<polygon fill="#63b8ff" stroke="#63b8ff" points="1290.23,-67.88 1300.63,-65.87 1291.24,-60.95 1290.23,-67.88"/>
</a>
</g>
</g>
<!-- Node10 -->
<g id="Node000010" class="node">
<title>Node10</title>
<g id="a_Node000010"><a xlink:href="../../d9/d41/interpolation__utilities_8c.html" target="_top" xlink:title=" ">
<polygon fill="white" stroke="#666666" points="1220.75,-30.5 1080.25,-30.5 1080.25,0 1220.75,0 1220.75,-30.5"/>
<text xml:space="preserve" text-anchor="start" x="1088.25" y="-17" font-family="Helvetica,sans-Serif" font-size="10.00">src/interpolation/interpolation</text>
<text xml:space="preserve" text-anchor="middle" x="1150.5" y="-5.75" font-family="Helvetica,sans-Serif" font-size="10.00">_utilities.c</text>
</a>
</g>
</g>
<!-- Node1&#45;&gt;Node10 -->
<g id="edge9_Node000001_Node000010" class="edge">
<title>Node1&#45;&gt;Node10</title>
<g id="a_edge9_Node000001_Node000010"><a xlink:title=" ">
<path fill="none" stroke="#63b8ff" d="M1320.6,-63.05C1286.79,-53.75 1239.9,-40.85 1203.91,-30.94"/>
<polygon fill="#63b8ff" stroke="#63b8ff" points="1319.5,-66.38 1330.07,-65.65 1321.36,-59.63 1319.5,-66.38"/>
</a>
</g>
</g>
<!-- Node11 -->
<g id="Node000011" class="node">
<title>Node11</title>
<g id="a_Node000011"><a xlink:href="../../d2/d5f/wigner__seitz_8c.html" target="_top" xlink:title=" ">
<polygon fill="white" stroke="#666666" points="1355.75,-30.5 1239.25,-30.5 1239.25,0 1355.75,0 1355.75,-30.5"/>
<text xml:space="preserve" text-anchor="start" x="1247.25" y="-17" font-family="Helvetica,sans-Serif" font-size="10.00">src/interpolation/wigner</text>
<text xml:space="preserve" text-anchor="middle" x="1297.5" y="-5.75" font-family="Helvetica,sans-Serif" font-size="10.00">_seitz.c</text>
</a>
</g>
</g>
<!-- Node1&#45;&gt;Node11 -->
<g id="edge10_Node000001_Node000011" class="edge">
<title>Node1&#45;&gt;Node11</title>
<g id="a_edge10_Node000001_Node000011"><a xlink:title=" ">
<path fill="none" stroke="#63b8ff" d="M1345.91,-58.79C1335.92,-50.01 1323.7,-39.27 1314.04,-30.78"/>
<polygon fill="#63b8ff" stroke="#63b8ff" points="1343.36,-61.21 1353.19,-65.18 1347.99,-55.95 1343.36,-61.21"/>
</a>
</g>
</g>
<!-- Node12 -->
<g id="Node000012" class="node">
<title>Node12</title>
<g id="a_Node000012"><a xlink:href="../../da/d77/get__save__data_8c.html" target="_top" xlink:title=" ">
<polygon fill="white" stroke="#666666" points="1489,-24.88 1374,-24.88 1374,-5.63 1489,-5.63 1489,-24.88"/>
<text xml:space="preserve" text-anchor="middle" x="1431.5" y="-11.38" font-family="Helvetica,sans-Serif" font-size="10.00">src/io/get_save_data.c</text>
</a>
</g>
</g>
<!-- Node1&#45;&gt;Node12 -->
<g id="edge11_Node000001_Node000012" class="edge">
<title>Node1&#45;&gt;Node12</title>
<g id="a_edge11_Node000001_Node000012"><a xlink:title=" ">
<path fill="none" stroke="#63b8ff" d="M1383.28,-58.62C1395.57,-47.82 1411.16,-34.12 1421.23,-25.28"/>
<polygon fill="#63b8ff" stroke="#63b8ff" points="1381.01,-55.95 1375.81,-65.18 1385.64,-61.21 1381.01,-55.95"/>
</a>
</g>
</g>
<!-- Node13 -->
<g id="Node000013" class="node">
<title>Node13</title>
<g id="a_Node000013"><a xlink:href="../../d6/db8/_vbare__nloc_8c.html" target="_top" xlink:title=" ">
<polygon fill="white" stroke="#666666" points="1628,-24.88 1507,-24.88 1507,-5.63 1628,-5.63 1628,-24.88"/>
<text xml:space="preserve" text-anchor="middle" x="1567.5" y="-11.38" font-family="Helvetica,sans-Serif" font-size="10.00">src/nonloc/Vbare_nloc.c</text>
</a>
</g>
</g>
<!-- Node1&#45;&gt;Node13 -->
<g id="edge12_Node000001_Node000013" class="edge">
<title>Node1&#45;&gt;Node13</title>
<g id="a_edge12_Node000001_Node000013"><a xlink:title=" ">
<path fill="none" stroke="#63b8ff" d="M1406.65,-62.9C1445.23,-51.71 1501.46,-35.4 1536.19,-25.33"/>
<polygon fill="#63b8ff" stroke="#63b8ff" points="1405.86,-59.49 1397.23,-65.63 1407.81,-66.21 1405.86,-59.49"/>
</a>
</g>
</g>
<!-- Node14 -->
<g id="Node000014" class="node">
<title>Node14</title>
<g id="a_Node000014"><a xlink:href="../../d3/df0/fcoeff_8c.html" target="_top" xlink:title=" ">
<polygon fill="white" stroke="#666666" points="1743,-24.88 1646,-24.88 1646,-5.63 1743,-5.63 1743,-24.88"/>
<text xml:space="preserve" text-anchor="middle" x="1694.5" y="-11.38" font-family="Helvetica,sans-Serif" font-size="10.00">src/nonloc/fcoeff.c</text>
</a>
</g>
</g>
<!-- Node1&#45;&gt;Node14 -->
<g id="edge13_Node000001_Node000014" class="edge">
<title>Node1&#45;&gt;Node14</title>
<g id="a_edge13_Node000001_Node000014"><a xlink:title=" ">
<path fill="none" stroke="#63b8ff" d="M1437.91,-64.81C1493.04,-56.66 1570.29,-44.37 1637.5,-30.5 1644.89,-28.97 1652.77,-27.14 1660.24,-25.3"/>
<polygon fill="#63b8ff" stroke="#63b8ff" points="1437.73,-61.3 1428.34,-66.22 1438.74,-68.23 1437.73,-61.3"/>
</a>
</g>
</g>
<!-- Node15 -->
<g id="Node000015" class="node">
<title>Node15</title>
<g id="a_Node000015"><a xlink:href="../../db/d44/dyn__long__range_8c.html" target="_top" xlink:title=" ">
<polygon fill="white" stroke="#666666" points="1867.5,-30.5 1761.5,-30.5 1761.5,0 1867.5,0 1867.5,-30.5"/>
<text xml:space="preserve" text-anchor="start" x="1769.5" y="-17" font-family="Helvetica,sans-Serif" font-size="10.00">src/phonon/dyn_long</text>
<text xml:space="preserve" text-anchor="middle" x="1814.5" y="-5.75" font-family="Helvetica,sans-Serif" font-size="10.00">_range.c</text>
</a>
</g>
</g>
<!-- Node1&#45;&gt;Node15 -->
<g id="edge14_Node000001_Node000015" class="edge">
<title>Node1&#45;&gt;Node15</title>
<g id="a_edge14_Node000001_Node000015"><a xlink:title=" ">
<path fill="none" stroke="#63b8ff" d="M1438.15,-69.12C1516.46,-62.15 1643.74,-49.19 1752.5,-30.5 1755.33,-30.01 1758.22,-29.48 1761.14,-28.91"/>
<polygon fill="#63b8ff" stroke="#63b8ff" points="1438.13,-65.6 1428.47,-69.97 1438.74,-72.58 1438.13,-65.6"/>
</a>
</g>
</g>
<!-- Node16 -->
<g id="Node000016" class="node">
<title>Node16</title>
<g id="a_Node000016"><a xlink:href="../../dd/de7/elec__reps_8c.html" target="_top" xlink:title=" ">
<polygon fill="white" stroke="#666666" points="1989.75,-30.5 1885.25,-30.5 1885.25,0 1989.75,0 1989.75,-30.5"/>
<text xml:space="preserve" text-anchor="start" x="1893.25" y="-17" font-family="Helvetica,sans-Serif" font-size="10.00">src/symmetries/elec</text>
<text xml:space="preserve" text-anchor="middle" x="1937.5" y="-5.75" font-family="Helvetica,sans-Serif" font-size="10.00">_reps.c</text>
</a>
</g>
</g>
<!-- Node1&#45;&gt;Node16 -->
<g id="edge15_Node000001_Node000016" class="edge">
<title>Node1&#45;&gt;Node16</title>
<g id="a_edge15_Node000001_Node000016"><a xlink:title=" ">
<path fill="none" stroke="#63b8ff" d="M1438.18,-72.01C1538.02,-67.03 1721.61,-55.21 1876.5,-30.5 1879.29,-30.05 1882.15,-29.55 1885.02,-29.01"/>
<polygon fill="#63b8ff" stroke="#63b8ff" points="1438.05,-68.51 1428.23,-72.49 1438.39,-75.5 1438.05,-68.51"/>
</a>
</g>
</g>
<!-- Node17 -->
<g id="Node000017" class="node">
<title>Node17</title>
<g id="a_Node000017"><a xlink:href="../../db/df2/gen__i_b_z__kpts_8c.html" target="_top" xlink:title=" ">
<polygon fill="white" stroke="#666666" points="2109.62,-30.5 2007.38,-30.5 2007.38,0 2109.62,0 2109.62,-30.5"/>
<text xml:space="preserve" text-anchor="start" x="2015.38" y="-17" font-family="Helvetica,sans-Serif" font-size="10.00">src/symmetries/gen</text>
<text xml:space="preserve" text-anchor="middle" x="2058.5" y="-5.75" font-family="Helvetica,sans-Serif" font-size="10.00">_iBZ_kpts.c</text>
</a>
</g>
</g>
<!-- Node1&#45;&gt;Node17 -->
<g id="edge16_Node000001_Node000017" class="edge">
<title>Node1&#45;&gt;Node17</title>
<g id="a_edge16_Node000001_Node000017"><a xlink:title=" ">
<path fill="none" stroke="#63b8ff" d="M1438.42,-73.82C1557.14,-70.85 1797.41,-61.25 1998.5,-30.5 2001.25,-30.08 2004.06,-29.6 2006.89,-29.07"/>
<polygon fill="#63b8ff" stroke="#63b8ff" points="1438.39,-70.32 1428.48,-74.06 1438.56,-77.32 1438.39,-70.32"/>
</a>
</g>
</g>
<!-- Node18 -->
<g id="Node000018" class="node">
<title>Node18</title>
<g id="a_Node000018"><a xlink:href="../../d7/db8/rotate__dvscf_8c.html" target="_top" xlink:title=" ">
<polygon fill="white" stroke="#666666" points="2239.12,-30.5 2127.88,-30.5 2127.88,0 2239.12,0 2239.12,-30.5"/>
<text xml:space="preserve" text-anchor="start" x="2135.88" y="-17" font-family="Helvetica,sans-Serif" font-size="10.00">src/symmetries/rotate</text>
<text xml:space="preserve" text-anchor="middle" x="2183.5" y="-5.75" font-family="Helvetica,sans-Serif" font-size="10.00">_dvscf.c</text>
</a>
</g>
</g>
<!-- Node1&#45;&gt;Node18 -->
<g id="edge17_Node000001_Node000018" class="edge">
<title>Node1&#45;&gt;Node18</title>
<g id="a_edge17_Node000001_Node000018"><a xlink:title=" ">
<path fill="none" stroke="#63b8ff" d="M1438.31,-74.58C1573.75,-72.74 1870.8,-64.77 2118.5,-30.5 2121.48,-30.09 2124.52,-29.61 2127.58,-29.09"/>
<polygon fill="#63b8ff" stroke="#63b8ff" points="1438.36,-71.08 1428.4,-74.71 1438.45,-78.08 1438.36,-71.08"/>
</a>
</g>
</g>
<!-- Node19 -->
<g id="Node000019" class="node">
<title>Node19</title>
<g id="a_Node000019"><a xlink:href="../../dc/d55/rotate__eig__vecs_8c.html" target="_top" xlink:title=" ">
<polygon fill="white" stroke="#666666" points="2368.12,-30.5 2256.88,-30.5 2256.88,0 2368.12,0 2368.12,-30.5"/>
<text xml:space="preserve" text-anchor="start" x="2264.88" y="-17" font-family="Helvetica,sans-Serif" font-size="10.00">src/symmetries/rotate</text>
<text xml:space="preserve" text-anchor="middle" x="2312.5" y="-5.75" font-family="Helvetica,sans-Serif" font-size="10.00">_eig_vecs.c</text>
</a>
</g>
</g>
<!-- Node1&#45;&gt;Node19 -->
<g id="edge18_Node000001_Node000019" class="edge">
<title>Node1&#45;&gt;Node19</title>
<g id="a_edge18_Node000001_Node000019"><a xlink:title=" ">
<path fill="none" stroke="#63b8ff" d="M1438.47,-75.59C1590.79,-75.62 1950.2,-70.94 2248.5,-30.5 2251.09,-30.15 2253.74,-29.74 2256.4,-29.3"/>
<polygon fill="#63b8ff" stroke="#63b8ff" points="1438.51,-72.09 1428.51,-75.58 1438.5,-79.09 1438.51,-72.09"/>
</a>
</g>
</g>
<!-- Node20 -->
<g id="Node000020" class="node">
<title>Node20</title>
<g id="a_Node000020"><a xlink:href="../../dc/d77/su2mat_8c.html" target="_top" xlink:title=" ">
<polygon fill="white" stroke="#666666" points="2478.38,-24.88 2386.62,-24.88 2386.62,-5.63 2478.38,-5.63 2478.38,-24.88"/>
<text xml:space="preserve" text-anchor="middle" x="2432.5" y="-11.38" font-family="Helvetica,sans-Serif" font-size="10.00">src/wfc/su2mat.c</text>
</a>
</g>
</g>
<!-- Node1&#45;&gt;Node20 -->
<g id="edge19_Node000001_Node000020" class="edge">
<title>Node1&#45;&gt;Node20</title>
<g id="a_edge19_Node000001_Node000020"><a xlink:title=" ">
<path fill="none" stroke="#63b8ff" d="M1438.28,-73.88C1639.75,-70.16 2196.26,-57.66 2377.5,-30.5 2385.6,-29.29 2394.22,-27.36 2402.19,-25.31"/>
<polygon fill="#63b8ff" stroke="#63b8ff" points="1438.4,-70.38 1428.47,-74.06 1438.53,-77.38 1438.4,-70.38"/>
</a>
</g>
</g>
<!-- Node21 -->
<g id="Node000021" class="node">
<title>Node21</title>
<g id="a_Node000021"><a xlink:href="../../db/d7a/trans__wfc_8c.html" target="_top" xlink:title=" ">
<polygon fill="white" stroke="#666666" points="2598.62,-24.88 2496.38,-24.88 2496.38,-5.63 2598.62,-5.63 2598.62,-24.88"/>
<text xml:space="preserve" text-anchor="middle" x="2547.5" y="-11.38" font-family="Helvetica,sans-Serif" font-size="10.00">src/wfc/trans_wfc.c</text>
</a>
</g>
</g>
<!-- Node1&#45;&gt;Node21 -->
<g id="edge20_Node000001_Node000021" class="edge">
<title>Node1&#45;&gt;Node21</title>
<g id="a_edge20_Node000001_Node000021"><a xlink:title=" ">
<path fill="none" stroke="#63b8ff" d="M1438.27,-74.06C1654.42,-70.63 2283.81,-58.47 2487.5,-30.5 2496.3,-29.29 2505.71,-27.37 2514.39,-25.32"/>
<polygon fill="#63b8ff" stroke="#63b8ff" points="1438.22,-70.56 1428.28,-74.21 1438.33,-77.56 1438.22,-70.56"/>
</a>
</g>
</g>
</g>
</svg>

<g id="navigator" transform="translate(0 0)" fill="#404254">
  <rect fill="#f2f5e9" fill-opacity="0.5" stroke="#606060" stroke-width=".5" x="0" y="0" width="60" height="60"/>
  <use id="zoomplus" xlink:href="#zoomPlus" x="17" y="9" onmousedown="handleZoom(evt,'in')"/>
  <use id="zoomminus" xlink:href="#zoomMin" x="42" y="9" onmousedown="handleZoom(evt,'out')"/>
  <use id="reset" xlink:href="#resetDef" x="30" y="36" onmousedown="handleReset()"/>
   <use id="arrowup" xlink:href="#arrowUp" x="0" y="0" onmousedown="handlePan(0,-1)"/>
  <use id="arrowright" xlink:href="#arrowRight" x="0" y="0" onmousedown="handlePan(1,0)"/>
  <use id="arrowdown" xlink:href="#arrowDown" x="0" y="0" onmousedown="handlePan(0,1)"/>
  <use id="arrowleft" xlink:href="#arrowLeft" x="0" y="0" onmousedown="handlePan(-1,0)"/>
</g>
<svg viewBox="0 0 15 15" width="100%" height="30px" preserveAspectRatio="xMaxYMin meet">
 <g id="arrow_out" transform="scale(0.3 0.3)">
  <a xlink:href="constants_8h__dep__incl_org.svg" target="_base">
   <rect id="button" ry="5" rx="5" y="6" x="6" height="38" width="38"
        fill="#f2f5e9" fill-opacity="0.5" stroke="#606060" stroke-width="1.0"/>
   <path id="arrow"
     d="M 11.500037,31.436501 C 11.940474,20.09759 22.043105,11.32322 32.158766,21.979434 L 37.068811,17.246167 C 37.068811,17.246167 37.088388,32 37.088388,32 L 22.160133,31.978069 C 22.160133,31.978069 26.997745,27.140456 26.997745,27.140456 C 18.528582,18.264221 13.291696,25.230495 11.500037,31.436501 z"
     style="fill:#404040;"/>
  </a>
 </g>
</svg>

<style type='text/css'>
<![CDATA[
[data-mouse-over-selected='false'] { opacity: 0.7; }
[data-mouse-over-selected='true']  { opacity: 1.0; }
]]>
</style>
<script type="application/ecmascript"><![CDATA[
document.addEventListener('DOMContentLoaded', (event) => {
  highlightEdges();
  highlightAdjacentNodes();
});
]]></script>
</svg>
