<?xml version="1.0" encoding="UTF-8" standalone="no"?>
<!DOCTYPE svg PUBLIC "-//W3C//DTD SVG 1.1//EN"
 "http://www.w3.org/Graphics/SVG/1.1/DTD/svg11.dtd">
<!-- Generated by graphviz version 14.0.0 (20250921.2048)
 -->
<!-- Title: strncpy_custom Pages: 1 -->
<!--zoomable 179 -->

<svg id="main" version="1.1" xmlns="http://www.w3.org/2000/svg" xmlns:xlink="http://www.w3.org/1999/xlink" xml:space="preserve" onload="init(evt)">

<style type="text/css"><![CDATA[
.node, .edge {opacity: 0.7;}
.node.selected, .edge.selected {opacity: 1;}
.edge:hover path { stroke: red; }
.edge:hover polygon { stroke: red; fill: red; }
]]></style>

<defs>
  <circle id="rim" cx="0" cy="0" r="7"/>
  <circle id="rim2" cx="0" cy="0" r="3.5"/>
  <g id="zoomPlus">
    <use xlink:href="#rim" fill="#404040"><set attributeName="fill" to="#808080" begin="zoomplus.mouseover" end="zoomplus.mouseout"/></use>
    <path d="M-4,0h8M0,-4v8" fill="none" stroke="white" stroke-width="1.5" pointer-events="none"/>
  </g>
  <g id="zoomMin">
    <use xlink:href="#rim" fill="#404040"><set attributeName="fill" to="#808080" begin="zoomminus.mouseover" end="zoomminus.mouseout"/></use>
    <path d="M-4,0h8" fill="none" stroke="white" stroke-width="1.5" pointer-events="none"/>
  </g>
  <g id="arrowUp" transform="translate(30 24)">
    <use xlink:href="#rim"/>
    <path pointer-events="none" fill="none" stroke="white" stroke-width="1.5" d="M0,-3.0v7 M-2.5,-0.5L0,-3.0L2.5,-0.5"/>
  </g>
  <g id="arrowRight" transform="rotate(90) translate(36 -43)">
    <use xlink:href="#rim"/>
    <path pointer-events="none" fill="none" stroke="white" stroke-width="1.5" d="M0,-3.0v7 M-2.5,-0.5L0,-3.0L2.5,-0.5"/>
  </g>
  <g id="arrowDown" transform="rotate(180) translate(-30 -48)">
    <use xlink:href="#rim"/>
    <path pointer-events="none" fill="none" stroke="white" stroke-width="1.5" d="M0,-3.0v7 M-2.5,-0.5L0,-3.0L2.5,-0.5"/>
  </g>
  <g id="arrowLeft" transform="rotate(270) translate(-36 17)">
    <use xlink:href="#rim"/>
    <path pointer-events="none" fill="none" stroke="white" stroke-width="1.5" d="M0,-3.0v7 M-2.5,-0.5L0,-3.0L2.5,-0.5"/>
  </g>
  <g id="resetDef">
    <use xlink:href="#rim2" fill="#404040"><set attributeName="fill" to="#808080" begin="reset.mouseover" end="reset.mouseout"/></use>
  </g>
</defs>
<script type="application/ecmascript">
var viewWidth = 539;
var viewHeight = 179;
var sectionId = 'dynsection-5';
</script>
<script type="application/ecmascript" xlink:href="../../svg.min.js"/>
<svg id="graph" class="graph">
<g id="viewport">
<title>strncpy_custom</title>
<!-- Node1 -->
<g id="Node000001" class="node">
<title>Node1</title>
<g id="a_Node000001"><a xlink:title=" ">
<polygon fill="#999999" stroke="#666666" points="530.75,-84.25 445,-84.25 445,-65 530.75,-65 530.75,-84.25"/>
<text xml:space="preserve" text-anchor="middle" x="487.88" y="-70.75" font-family="Helvetica,sans-Serif" font-size="10.00">strncpy_custom</text>
</a>
</g>
</g>
<!-- Node2 -->
<g id="Node000002" class="node">
<title>Node2</title>
<g id="a_Node000002"><a xlink:href="../../d5/d0a/pp__ph__save_8c.html#ae34b6c1d13daf4f125bf37b51efdc457" target="_top" xlink:title=" ">
<polygon fill="white" stroke="#666666" points="299.25,-170.88 198.5,-170.88 198.5,-140.38 299.25,-140.38 299.25,-170.88"/>
<text xml:space="preserve" text-anchor="start" x="206.5" y="-157.38" font-family="Helvetica,sans-Serif" font-size="10.00">create_ph_save_dir</text>
<text xml:space="preserve" text-anchor="middle" x="248.88" y="-146.12" font-family="Helvetica,sans-Serif" font-size="10.00">_pp_qe</text>
</a>
</g>
</g>
<!-- Node1&#45;&gt;Node2 -->
<g id="edge1_Node000001_Node000002" class="edge">
<title>Node1&#45;&gt;Node2</title>
<g id="a_edge1_Node000001_Node000002"><a xlink:title=" ">
<path fill="none" stroke="#63b8ff" d="M466.48,-91.65C451.49,-103.28 430.14,-118.07 409,-126.62 373.99,-140.79 331.84,-148.08 299.72,-151.8"/>
<polygon fill="#63b8ff" stroke="#63b8ff" points="468.54,-94.49 474.16,-85.51 464.16,-89.02 468.54,-94.49"/>
</a>
</g>
</g>
<!-- Node4 -->
<g id="Node000004" class="node">
<title>Node4</title>
<g id="a_Node000004"><a xlink:href="../../dd/def/cli_8c.html#a0f647fa6d3d97da4157fb3087a9fb707" target="_top" xlink:title=" ">
<polygon fill="white" stroke="#666666" points="162.5,-122.25 73,-122.25 73,-103 162.5,-103 162.5,-122.25"/>
<text xml:space="preserve" text-anchor="middle" x="117.75" y="-108.75" font-family="Helvetica,sans-Serif" font-size="10.00">ELPH_cli_parser</text>
</a>
</g>
</g>
<!-- Node1&#45;&gt;Node4 -->
<g id="edge3_Node000001_Node000004" class="edge">
<title>Node1&#45;&gt;Node4</title>
<g id="a_edge3_Node000001_Node000004"><a xlink:title=" ">
<path fill="none" stroke="#63b8ff" d="M439.94,-87.47C429.8,-89.85 419.09,-92.08 409,-93.62 322.4,-106.92 219.86,-110.92 162.77,-112.12"/>
<polygon fill="#63b8ff" stroke="#63b8ff" points="440.73,-90.88 449.61,-85.1 439.06,-84.08 440.73,-90.88"/>
</a>
</g>
</g>
<!-- Node5 -->
<g id="Node000005" class="node">
<title>Node5</title>
<g id="a_Node000005"><a xlink:href="../../dc/de1/input__parser_8c.html#ad86bf596ba7520fd95858eb079a4ca10" target="_top" xlink:title=" ">
<polygon fill="white" stroke="#666666" points="395.88,-84.25 348.38,-84.25 348.38,-65 395.88,-65 395.88,-84.25"/>
<text xml:space="preserve" text-anchor="middle" x="372.12" y="-70.75" font-family="Helvetica,sans-Serif" font-size="10.00">handler</text>
</a>
</g>
</g>
<!-- Node1&#45;&gt;Node5 -->
<g id="edge5_Node000001_Node000005" class="edge">
<title>Node1&#45;&gt;Node5</title>
<g id="a_edge5_Node000001_Node000005"><a xlink:title=" ">
<path fill="none" stroke="#63b8ff" d="M433.25,-74.62C420.28,-74.62 407.08,-74.62 396.37,-74.62"/>
<polygon fill="#63b8ff" stroke="#63b8ff" points="433.01,-78.13 443.01,-74.63 433.01,-71.13 433.01,-78.13"/>
</a>
</g>
</g>
<!-- Node8 -->
<g id="Node000008" class="node">
<title>Node8</title>
<g id="a_Node000008"><a xlink:href="../../dc/de1/input__parser_8c.html#a99ab8503e1c24a55332a1d447e644a8a" target="_top" xlink:title=" ">
<polygon fill="white" stroke="#666666" points="409,-47.25 335.25,-47.25 335.25,-28 409,-28 409,-47.25"/>
<text xml:space="preserve" text-anchor="middle" x="372.12" y="-33.75" font-family="Helvetica,sans-Serif" font-size="10.00">init_usr_input</text>
</a>
</g>
</g>
<!-- Node1&#45;&gt;Node8 -->
<g id="edge9_Node000001_Node000008" class="edge">
<title>Node1&#45;&gt;Node8</title>
<g id="a_edge9_Node000001_Node000008"><a xlink:title=" ">
<path fill="none" stroke="#63b8ff" d="M445.24,-61.08C431.66,-56.66 416.83,-51.84 404.17,-47.72"/>
<polygon fill="#63b8ff" stroke="#63b8ff" points="443.76,-64.28 454.35,-64.05 445.93,-57.62 443.76,-64.28"/>
</a>
</g>
</g>
<!-- Node9 -->
<g id="Node000009" class="node">
<title>Node9</title>
<g id="a_Node000009"><a xlink:href="../../d9/d5a/set__kernel_8c.html#a10888650d243cd09767c7b4662cdc9a1" target="_top" xlink:title=" ">
<polygon fill="white" stroke="#666666" points="279.38,-19.25 218.38,-19.25 218.38,0 279.38,0 279.38,-19.25"/>
<text xml:space="preserve" text-anchor="middle" x="248.88" y="-5.75" font-family="Helvetica,sans-Serif" font-size="10.00">set_kernel</text>
</a>
</g>
</g>
<!-- Node1&#45;&gt;Node9 -->
<g id="edge11_Node000001_Node000009" class="edge">
<title>Node1&#45;&gt;Node9</title>
<g id="a_edge11_Node000001_Node000009"><a xlink:title=" ">
<path fill="none" stroke="#63b8ff" d="M469.22,-57.36C454.45,-44.14 432.14,-26.81 409,-18.62 365.96,-3.4 312.3,-4.06 279.58,-6.46"/>
<polygon fill="#63b8ff" stroke="#63b8ff" points="466.56,-59.67 476.27,-63.92 471.33,-54.55 466.56,-59.67"/>
</a>
</g>
</g>
<!-- Node3 -->
<g id="Node000003" class="node">
<title>Node3</title>
<g id="a_Node000003"><a xlink:href="../../d3/dd5/main__elph_c_8c.html#a0ddf1224851353fc92bfbff6f499fa97" target="_top" xlink:title="Main program entry point.">
<polygon fill="white" stroke="#666666" points="37,-122.25 0,-122.25 0,-103 37,-103 37,-122.25"/>
<text xml:space="preserve" text-anchor="middle" x="18.5" y="-108.75" font-family="Helvetica,sans-Serif" font-size="10.00">main</text>
</a>
</g>
</g>
<!-- Node2&#45;&gt;Node3 -->
<g id="edge2_Node000002_Node000003" class="edge">
<title>Node2&#45;&gt;Node3</title>
<g id="a_edge2_Node000002_Node000003"><a xlink:title=" ">
<path fill="none" stroke="#63b8ff" d="M187.24,-150.39C153.32,-146.69 110.45,-140.74 73,-131.62 60.74,-128.64 47.37,-123.89 37.06,-119.89"/>
<polygon fill="#63b8ff" stroke="#63b8ff" points="186.56,-153.84 196.87,-151.4 187.29,-146.88 186.56,-153.84"/>
</a>
</g>
</g>
<!-- Node4&#45;&gt;Node3 -->
<g id="edge4_Node000004_Node000003" class="edge">
<title>Node4&#45;&gt;Node3</title>
<g id="a_edge4_Node000004_Node000003"><a xlink:title=" ">
<path fill="none" stroke="#63b8ff" d="M61.27,-112.62C52.64,-112.62 44.32,-112.62 37.39,-112.62"/>
<polygon fill="#63b8ff" stroke="#63b8ff" points="61.16,-116.13 71.16,-112.63 61.16,-109.13 61.16,-116.13"/>
</a>
</g>
</g>
<!-- Node6 -->
<g id="Node000006" class="node">
<title>Node6</title>
<g id="a_Node000006"><a xlink:href="../../dc/de1/input__parser_8c.html#ac345bd71762ae94c84a5cafd0249c329" target="_top" xlink:title=" ">
<polygon fill="white" stroke="#666666" points="288.38,-75.25 209.38,-75.25 209.38,-56 288.38,-56 288.38,-75.25"/>
<text xml:space="preserve" text-anchor="middle" x="248.88" y="-61.75" font-family="Helvetica,sans-Serif" font-size="10.00">read_input_file</text>
</a>
</g>
</g>
<!-- Node5&#45;&gt;Node6 -->
<g id="edge6_Node000005_Node000006" class="edge">
<title>Node5&#45;&gt;Node6</title>
<g id="a_edge6_Node000005_Node000006"><a xlink:title=" ">
<path fill="none" stroke="#63b8ff" d="M336.67,-72.07C321.69,-70.96 304.06,-69.65 288.62,-68.5"/>
<polygon fill="#63b8ff" stroke="#63b8ff" points="336.29,-75.55 346.52,-72.8 336.81,-68.57 336.29,-75.55"/>
</a>
</g>
</g>
<!-- Node7 -->
<g id="Node000007" class="node">
<title>Node7</title>
<g id="a_Node000007"><a xlink:href="../../da/d2e/elph__driver_8c.html#ad9f405d41cf090d652dbe1307700665f" target="_top" xlink:title=" ">
<polygon fill="white" stroke="#666666" points="149.38,-75.25 86.12,-75.25 86.12,-56 149.38,-56 149.38,-75.25"/>
<text xml:space="preserve" text-anchor="middle" x="117.75" y="-61.75" font-family="Helvetica,sans-Serif" font-size="10.00">elph_driver</text>
</a>
</g>
</g>
<!-- Node6&#45;&gt;Node7 -->
<g id="edge7_Node000006_Node000007" class="edge">
<title>Node6&#45;&gt;Node7</title>
<g id="a_edge7_Node000006_Node000007"><a xlink:title=" ">
<path fill="none" stroke="#63b8ff" d="M197.64,-65.62C181.47,-65.62 164.04,-65.62 149.68,-65.62"/>
<polygon fill="#63b8ff" stroke="#63b8ff" points="197.62,-69.13 207.62,-65.63 197.62,-62.13 197.62,-69.13"/>
</a>
</g>
</g>
<!-- Node7&#45;&gt;Node3 -->
<g id="edge8_Node000007_Node000003" class="edge">
<title>Node7&#45;&gt;Node3</title>
<g id="a_edge8_Node000007_Node000003"><a xlink:title=" ">
<path fill="none" stroke="#63b8ff" d="M86.13,-80.42C70.13,-88.16 51.1,-97.35 37.48,-103.94"/>
<polygon fill="#63b8ff" stroke="#63b8ff" points="87.28,-83.75 94.76,-76.25 84.24,-77.45 87.28,-83.75"/>
</a>
</g>
</g>
<!-- Node8&#45;&gt;Node6 -->
<g id="edge10_Node000008_Node000006" class="edge">
<title>Node8&#45;&gt;Node6</title>
<g id="a_edge10_Node000008_Node000006"><a xlink:title=" ">
<path fill="none" stroke="#63b8ff" d="M324.08,-48.49C312.32,-51.21 299.84,-54.09 288.53,-56.7"/>
<polygon fill="#63b8ff" stroke="#63b8ff" points="324.64,-51.95 333.6,-46.29 323.07,-45.13 324.64,-51.95"/>
</a>
</g>
</g>
<!-- Node9&#45;&gt;Node7 -->
<g id="edge12_Node000009_Node000007" class="edge">
<title>Node9&#45;&gt;Node7</title>
<g id="a_edge12_Node000009_Node000007"><a xlink:title=" ">
<path fill="none" stroke="#63b8ff" d="M214.26,-24.2C191.58,-34.04 162.22,-46.77 142.07,-55.51"/>
<polygon fill="#63b8ff" stroke="#63b8ff" points="215.62,-27.43 223.4,-20.24 212.83,-21.01 215.62,-27.43"/>
</a>
</g>
</g>
</g>
</svg>

<g id="navigator" transform="translate(0 0)" fill="#404254">
  <rect fill="#f2f5e9" fill-opacity="0.5" stroke="#606060" stroke-width=".5" x="0" y="0" width="60" height="60"/>
  <use id="zoomplus" xlink:href="#zoomPlus" x="17" y="9" onmousedown="handleZoom(evt,'in')"/>
  <use id="zoomminus" xlink:href="#zoomMin" x="42" y="9" onmousedown="handleZoom(evt,'out')"/>
  <use id="reset" xlink:href="#resetDef" x="30" y="36" onmousedown="handleReset()"/>
   <use id="arrowup" xlink:href="#arrowUp" x="0" y="0" onmousedown="handlePan(0,-1)"/>
  <use id="arrowright" xlink:href="#arrowRight" x="0" y="0" onmousedown="handlePan(1,0)"/>
  <use id="arrowdown" xlink:href="#arrowDown" x="0" y="0" onmousedown="handlePan(0,1)"/>
  <use id="arrowleft" xlink:href="#arrowLeft" x="0" y="0" onmousedown="handlePan(-1,0)"/>
</g>
<svg viewBox="0 0 15 15" width="100%" height="30px" preserveAspectRatio="xMaxYMin meet">
 <g id="arrow_out" transform="scale(0.3 0.3)">
  <a xlink:href="string__func_8c_a1a4a6a5319e24099e821a93f83aa124e_icgraph_org.svg" target="_base">
   <rect id="button" ry="5" rx="5" y="6" x="6" height="38" width="38"
        fill="#f2f5e9" fill-opacity="0.5" stroke="#606060" stroke-width="1.0"/>
   <path id="arrow"
     d="M 11.500037,31.436501 C 11.940474,20.09759 22.043105,11.32322 32.158766,21.979434 L 37.068811,17.246167 C 37.068811,17.246167 37.088388,32 37.088388,32 L 22.160133,31.978069 C 22.160133,31.978069 26.997745,27.140456 26.997745,27.140456 C 18.528582,18.264221 13.291696,25.230495 11.500037,31.436501 z"
     style="fill:#404040;"/>
  </a>
 </g>
</svg>

<style type='text/css'>
<![CDATA[
[data-mouse-over-selected='false'] { opacity: 0.7; }
[data-mouse-over-selected='true']  { opacity: 1.0; }
]]>
</style>
<script type="application/ecmascript"><![CDATA[
document.addEventListener('DOMContentLoaded', (event) => {
  highlightEdges();
  highlightAdjacentNodes();
});
]]></script>
</svg>
