<?xml version="1.0" encoding="UTF-8" standalone="no"?>
<!DOCTYPE svg PUBLIC "-//W3C//DTD SVG 1.1//EN"
 "http://www.w3.org/Graphics/SVG/1.1/DTD/svg11.dtd">
<!-- Generated by graphviz version 14.0.0 (20250921.2048)
 -->
<!-- Title: parser_doubles_from_string Pages: 1 -->
<svg width="649pt" height="64pt"
 viewBox="0.00 0.00 649.00 64.00" xmlns="http://www.w3.org/2000/svg" xmlns:xlink="http://www.w3.org/1999/xlink">
<g id="graph0" class="graph" transform="scale(1 1) rotate(0) translate(4 60.25)">
<title>parser_doubles_from_string</title>
<!-- Node1 -->
<g id="Node000001" class="node">
<title>Node1</title>
<g id="a_Node000001"><a xlink:title=" ">
<polygon fill="#999999" stroke="#666666" points="641.25,-42.88 534.5,-42.88 534.5,-12.37 641.25,-12.37 641.25,-42.88"/>
<text xml:space="preserve" text-anchor="start" x="542.5" y="-29.38" font-family="Helvetica,sans-Serif" font-size="10.00">parser_doubles_from</text>
<text xml:space="preserve" text-anchor="middle" x="587.88" y="-18.12" font-family="Helvetica,sans-Serif" font-size="10.00">_string</text>
</a>
</g>
</g>
<!-- Node2 -->
<g id="Node000002" class="node">
<title>Node2</title>
<g id="a_Node000002"><a xlink:href="../../de/d8e/parse__upf_8c.html#a5bb745a5bd6890bc2ec19e8def935905" target="_top" xlink:title=" ">
<polygon fill="white" stroke="#666666" points="498.5,-56.25 434.5,-56.25 434.5,-37 498.5,-37 498.5,-56.25"/>
<text xml:space="preserve" text-anchor="middle" x="466.5" y="-42.75" font-family="Helvetica,sans-Serif" font-size="10.00">parse_upf1</text>
</a>
</g>
</g>
<!-- Node1&#45;&gt;Node2 -->
<g id="edge1_Node000001_Node000002" class="edge">
<title>Node1&#45;&gt;Node2</title>
<g id="a_edge1_Node000001_Node000002"><a xlink:title=" ">
<path fill="none" stroke="#63b8ff" d="M523.04,-37.78C514.58,-39.13 506.24,-40.46 498.68,-41.66"/>
<polygon fill="#63b8ff" stroke="#63b8ff" points="523.35,-41.28 532.67,-36.25 522.25,-34.37 523.35,-41.28"/>
</a>
</g>
</g>
<!-- Node7 -->
<g id="Node000007" class="node">
<title>Node7</title>
<g id="a_Node000007"><a xlink:href="../../de/d8e/parse__upf_8c.html#a9cd499b9e6871a1825bf152ef3adc5d2" target="_top" xlink:title=" ">
<polygon fill="white" stroke="#666666" points="498.5,-19.25 434.5,-19.25 434.5,0 498.5,0 498.5,-19.25"/>
<text xml:space="preserve" text-anchor="middle" x="466.5" y="-5.75" font-family="Helvetica,sans-Serif" font-size="10.00">parse_upf2</text>
</a>
</g>
</g>
<!-- Node1&#45;&gt;Node7 -->
<g id="edge6_Node000001_Node000007" class="edge">
<title>Node1&#45;&gt;Node7</title>
<g id="a_edge6_Node000001_Node000007"><a xlink:title=" ">
<path fill="none" stroke="#63b8ff" d="M523.04,-18C514.58,-16.72 506.24,-15.47 498.68,-14.33"/>
<polygon fill="#63b8ff" stroke="#63b8ff" points="522.26,-21.42 532.67,-19.45 523.3,-14.5 522.26,-21.42"/>
</a>
</g>
</g>
<!-- Node3 -->
<g id="Node000003" class="node">
<title>Node3</title>
<g id="a_Node000003"><a xlink:href="../../de/d8e/parse__upf_8c.html#afc09125eba3ef9508922a0ead1060915" target="_top" xlink:title=" ">
<polygon fill="white" stroke="#666666" points="398.5,-37.25 339.75,-37.25 339.75,-18 398.5,-18 398.5,-37.25"/>
<text xml:space="preserve" text-anchor="middle" x="369.12" y="-23.75" font-family="Helvetica,sans-Serif" font-size="10.00">parse_upf</text>
</a>
</g>
</g>
<!-- Node2&#45;&gt;Node3 -->
<g id="edge2_Node000002_Node000003" class="edge">
<title>Node2&#45;&gt;Node3</title>
<g id="a_edge2_Node000002_Node000003"><a xlink:title=" ">
<path fill="none" stroke="#63b8ff" d="M422.73,-38.1C414.59,-36.48 406.25,-34.82 398.69,-33.32"/>
<polygon fill="#63b8ff" stroke="#63b8ff" points="422.03,-41.53 432.52,-40.06 423.4,-34.67 422.03,-41.53"/>
</a>
</g>
</g>
<!-- Node4 -->
<g id="Node000004" class="node">
<title>Node4</title>
<g id="a_Node000004"><a xlink:href="../../da/d77/get__save__data_8c.html#ab497305a989dd1713ba4c2b4d0f95bd0" target="_top" xlink:title=" ">
<polygon fill="white" stroke="#666666" points="303.75,-37.25 172.25,-37.25 172.25,-18 303.75,-18 303.75,-37.25"/>
<text xml:space="preserve" text-anchor="middle" x="238" y="-23.75" font-family="Helvetica,sans-Serif" font-size="10.00">read_and_alloc_save_data</text>
</a>
</g>
</g>
<!-- Node3&#45;&gt;Node4 -->
<g id="edge3_Node000003_Node000004" class="edge">
<title>Node3&#45;&gt;Node4</title>
<g id="a_edge3_Node000003_Node000004"><a xlink:title=" ">
<path fill="none" stroke="#63b8ff" d="M328,-27.62C320.37,-27.62 312.21,-27.62 304.04,-27.62"/>
<polygon fill="#63b8ff" stroke="#63b8ff" points="327.95,-31.13 337.95,-27.63 327.95,-24.13 327.95,-31.13"/>
</a>
</g>
</g>
<!-- Node5 -->
<g id="Node000005" class="node">
<title>Node5</title>
<g id="a_Node000005"><a xlink:href="../../da/d2e/elph__driver_8c.html#ad9f405d41cf090d652dbe1307700665f" target="_top" xlink:title=" ">
<polygon fill="white" stroke="#666666" points="136.25,-37.25 73,-37.25 73,-18 136.25,-18 136.25,-37.25"/>
<text xml:space="preserve" text-anchor="middle" x="104.62" y="-23.75" font-family="Helvetica,sans-Serif" font-size="10.00">elph_driver</text>
</a>
</g>
</g>
<!-- Node4&#45;&gt;Node5 -->
<g id="edge4_Node000004_Node000005" class="edge">
<title>Node4&#45;&gt;Node5</title>
<g id="a_edge4_Node000004_Node000005"><a xlink:title=" ">
<path fill="none" stroke="#63b8ff" d="M160.78,-27.62C152.25,-27.62 143.96,-27.62 136.51,-27.62"/>
<polygon fill="#63b8ff" stroke="#63b8ff" points="160.57,-31.13 170.57,-27.63 160.57,-24.13 160.57,-31.13"/>
</a>
</g>
</g>
<!-- Node6 -->
<g id="Node000006" class="node">
<title>Node6</title>
<g id="a_Node000006"><a xlink:href="../../d3/dd5/main__elph_c_8c.html#a0ddf1224851353fc92bfbff6f499fa97" target="_top" xlink:title="Main program entry point.">
<polygon fill="white" stroke="#666666" points="37,-37.25 0,-37.25 0,-18 37,-18 37,-37.25"/>
<text xml:space="preserve" text-anchor="middle" x="18.5" y="-23.75" font-family="Helvetica,sans-Serif" font-size="10.00">main</text>
</a>
</g>
</g>
<!-- Node5&#45;&gt;Node6 -->
<g id="edge5_Node000005_Node000006" class="edge">
<title>Node5&#45;&gt;Node6</title>
<g id="a_edge5_Node000005_Node000006"><a xlink:title=" ">
<path fill="none" stroke="#63b8ff" d="M61.27,-27.62C52.74,-27.62 44.23,-27.62 37.14,-27.62"/>
<polygon fill="#63b8ff" stroke="#63b8ff" points="61.26,-31.13 71.26,-27.63 61.26,-24.13 61.26,-31.13"/>
</a>
</g>
</g>
<!-- Node7&#45;&gt;Node3 -->
<g id="edge7_Node000007_Node000003" class="edge">
<title>Node7&#45;&gt;Node3</title>
<g id="a_edge7_Node000007_Node000003"><a xlink:title=" ">
<path fill="none" stroke="#63b8ff" d="M422.73,-17.7C414.59,-19.23 406.25,-20.81 398.69,-22.23"/>
<polygon fill="#63b8ff" stroke="#63b8ff" points="423.34,-21.14 432.52,-15.85 422.04,-14.26 423.34,-21.14"/>
</a>
</g>
</g>
</g>
</svg>
