<?xml version="1.0" encoding="UTF-8" standalone="no"?>
<!DOCTYPE svg PUBLIC "-//W3C//DTD SVG 1.1//EN"
 "http://www.w3.org/Graphics/SVG/1.1/DTD/svg11.dtd">
<!-- Generated by graphviz version 14.0.0 (20250921.2048)
 -->
<!-- Title: SU2mat Pages: 1 -->
<svg width="189pt" height="64pt"
 viewBox="0.00 0.00 189.00 64.00" xmlns="http://www.w3.org/2000/svg" xmlns:xlink="http://www.w3.org/1999/xlink">
<g id="graph0" class="graph" transform="scale(1 1) rotate(0) translate(4 60.25)">
<title>SU2mat</title>
<!-- Node1 -->
<g id="Node000001" class="node">
<title>Node1</title>
<g id="a_Node000001"><a xlink:title=" ">
<polygon fill="#999999" stroke="#666666" points="52,-37.25 0,-37.25 0,-18 52,-18 52,-37.25"/>
<text xml:space="preserve" text-anchor="middle" x="26" y="-23.75" font-family="Helvetica,sans-Serif" font-size="10.00">SU2mat</text>
</a>
</g>
</g>
<!-- Node2 -->
<g id="Node000002" class="node">
<title>Node2</title>
<g id="a_Node000002"><a xlink:href="../../de/d2d/numerical__func_8c.html#af7b464a965e184f893290a977a66c9d1" target="_top" xlink:title=" ">
<polygon fill="white" stroke="#666666" points="156.88,-56.25 111.62,-56.25 111.62,-37 156.88,-37 156.88,-56.25"/>
<text xml:space="preserve" text-anchor="middle" x="134.25" y="-42.75" font-family="Helvetica,sans-Serif" font-size="10.00">det3x3</text>
</a>
</g>
</g>
<!-- Node1&#45;&gt;Node2 -->
<g id="edge1_Node000001_Node000002" class="edge">
<title>Node1&#45;&gt;Node2</title>
<g id="a_edge1_Node000001_Node000002"><a xlink:title=" ">
<path fill="none" stroke="#63b8ff" d="M52.45,-32.18C66.73,-34.73 84.72,-37.95 100.1,-40.7"/>
<polygon fill="#63b8ff" stroke="#63b8ff" points="99.3,-44.11 109.76,-42.42 100.53,-37.22 99.3,-44.11"/>
</a>
</g>
</g>
<!-- Node3 -->
<g id="Node000003" class="node">
<title>Node3</title>
<g id="a_Node000003"><a xlink:href="../../de/d2d/numerical__func_8c.html#a5cb6a4677901df82939f3bb08fe1e5de" target="_top" xlink:title=" ">
<polygon fill="white" stroke="#666666" points="180.5,-19.25 88,-19.25 88,0 180.5,0 180.5,-19.25"/>
<text xml:space="preserve" text-anchor="middle" x="134.25" y="-5.75" font-family="Helvetica,sans-Serif" font-size="10.00">matmul_Cmpl2x2</text>
</a>
</g>
</g>
<!-- Node1&#45;&gt;Node3 -->
<g id="edge2_Node000001_Node000003" class="edge">
<title>Node1&#45;&gt;Node3</title>
<g id="a_edge2_Node000001_Node000003"><a xlink:title=" ">
<path fill="none" stroke="#63b8ff" d="M52.45,-23.31C59.79,-22.07 68.11,-20.66 76.55,-19.23"/>
<polygon fill="#63b8ff" stroke="#63b8ff" points="76.88,-22.72 86.16,-17.6 75.71,-15.82 76.88,-22.72"/>
</a>
</g>
</g>
</g>
</svg>
