<?xml version="1.0" encoding="UTF-8" standalone="no"?>
<!DOCTYPE svg PUBLIC "-//W3C//DTD SVG 1.1//EN"
 "http://www.w3.org/Graphics/SVG/1.1/DTD/svg11.dtd">
<!-- Generated by graphviz version 14.0.0 (20250921.2048)
 -->
<!-- Title: src/fft/transpose.c Pages: 1 -->
<svg width="440pt" height="138pt"
 viewBox="0.00 0.00 440.00 138.00" xmlns="http://www.w3.org/2000/svg" xmlns:xlink="http://www.w3.org/1999/xlink">
<g id="graph0" class="graph" transform="scale(1 1) rotate(0) translate(4 133.75)">
<title>src/fft/transpose.c</title>
<!-- Node1 -->
<g id="Node000001" class="node">
<title>Node1</title>
<g id="a_Node000001"><a xlink:title=" ">
<polygon fill="#999999" stroke="#666666" points="264.25,-129.75 168.75,-129.75 168.75,-110.5 264.25,-110.5 264.25,-129.75"/>
<text xml:space="preserve" text-anchor="middle" x="216.5" y="-116.25" font-family="Helvetica,sans-Serif" font-size="10.00">src/fft/transpose.c</text>
</a>
</g>
</g>
<!-- Node2 -->
<g id="Node000002" class="node">
<title>Node2</title>
<g id="a_Node000002"><a xlink:title=" ">
<polygon fill="#e0e0e0" stroke="#999999" points="61,-19.25 0,-19.25 0,0 61,0 61,-19.25"/>
<text xml:space="preserve" text-anchor="middle" x="30.5" y="-5.75" font-family="Helvetica,sans-Serif" font-size="10.00">complex.h</text>
</a>
</g>
</g>
<!-- Node1&#45;&gt;Node2 -->
<g id="edge1_Node000001_Node000002" class="edge">
<title>Node1&#45;&gt;Node2</title>
<g id="a_edge1_Node000001_Node000002"><a xlink:title=" ">
<path fill="none" stroke="#63b8ff" d="M196.21,-110.14C177.49,-101.63 149.12,-88.14 125.5,-74.5 99.39,-59.41 70.86,-39.77 51.95,-26.27"/>
<polygon fill="#63b8ff" stroke="#63b8ff" points="54.14,-23.54 43.98,-20.54 50.05,-29.22 54.14,-23.54"/>
</a>
</g>
</g>
<!-- Node3 -->
<g id="Node000003" class="node">
<title>Node3</title>
<g id="a_Node000003"><a xlink:title=" ">
<polygon fill="#e0e0e0" stroke="#999999" points="125.5,-19.25 79.5,-19.25 79.5,0 125.5,0 125.5,-19.25"/>
<text xml:space="preserve" text-anchor="middle" x="102.5" y="-5.75" font-family="Helvetica,sans-Serif" font-size="10.00">fftw3.h</text>
</a>
</g>
</g>
<!-- Node1&#45;&gt;Node3 -->
<g id="edge2_Node000001_Node000003" class="edge">
<title>Node1&#45;&gt;Node3</title>
<g id="a_edge2_Node000001_Node000003"><a xlink:title=" ">
<path fill="none" stroke="#63b8ff" d="M197.51,-110.01C182.29,-102.07 160.97,-89.5 145.5,-74.5 131.87,-61.29 120.12,-43.07 112.37,-29.48"/>
<polygon fill="#63b8ff" stroke="#63b8ff" points="115.65,-28.17 107.78,-21.07 109.5,-31.52 115.65,-28.17"/>
</a>
</g>
</g>
<!-- Node4 -->
<g id="Node000004" class="node">
<title>Node4</title>
<g id="a_Node000004"><a xlink:title=" ">
<polygon fill="#e0e0e0" stroke="#999999" points="257.5,-19.25 217.5,-19.25 217.5,0 257.5,0 257.5,-19.25"/>
<text xml:space="preserve" text-anchor="middle" x="237.5" y="-5.75" font-family="Helvetica,sans-Serif" font-size="10.00">mpi.h</text>
</a>
</g>
</g>
<!-- Node1&#45;&gt;Node4 -->
<g id="edge3_Node000001_Node000004" class="edge">
<title>Node1&#45;&gt;Node4</title>
<g id="a_edge3_Node000001_Node000004"><a xlink:title=" ">
<path fill="none" stroke="#63b8ff" d="M218.22,-110.25C221.56,-93 228.99,-54.58 233.59,-30.81"/>
<polygon fill="#63b8ff" stroke="#63b8ff" points="237.01,-31.6 235.47,-21.11 230.13,-30.27 237.01,-31.6"/>
</a>
</g>
</g>
<!-- Node5 -->
<g id="Node000005" class="node">
<title>Node5</title>
<g id="a_Node000005"><a xlink:title=" ">
<polygon fill="#e0e0e0" stroke="#999999" points="330.62,-74.5 282.38,-74.5 282.38,-55.25 330.62,-55.25 330.62,-74.5"/>
<text xml:space="preserve" text-anchor="middle" x="306.5" y="-61" font-family="Helvetica,sans-Serif" font-size="10.00">string.h</text>
</a>
</g>
</g>
<!-- Node1&#45;&gt;Node5 -->
<g id="edge4_Node000001_Node000005" class="edge">
<title>Node1&#45;&gt;Node5</title>
<g id="a_edge4_Node000001_Node000005"><a xlink:title=" ">
<path fill="none" stroke="#63b8ff" d="M231.77,-110.09C245.34,-102.06 265.45,-90.16 281.4,-80.73"/>
<polygon fill="#63b8ff" stroke="#63b8ff" points="283.03,-83.83 289.86,-75.72 279.47,-77.8 283.03,-83.83"/>
</a>
</g>
</g>
<!-- Node6 -->
<g id="Node000006" class="node">
<title>Node6</title>
<g id="a_Node000006"><a xlink:href="../../da/d41/error_8h.html" target="_top" xlink:title=" ">
<polygon fill="white" stroke="#666666" points="432.25,-74.5 348.75,-74.5 348.75,-55.25 432.25,-55.25 432.25,-74.5"/>
<text xml:space="preserve" text-anchor="middle" x="390.5" y="-61" font-family="Helvetica,sans-Serif" font-size="10.00">common/error.h</text>
</a>
</g>
</g>
<!-- Node1&#45;&gt;Node6 -->
<g id="edge5_Node000001_Node000006" class="edge">
<title>Node1&#45;&gt;Node6</title>
<g id="a_edge5_Node000001_Node000006"><a xlink:title=" ">
<path fill="none" stroke="#63b8ff" d="M246.02,-110.09C274.64,-101.33 318.28,-87.98 350.12,-78.23"/>
<polygon fill="#63b8ff" stroke="#63b8ff" points="350.85,-81.67 359.39,-75.4 348.8,-74.98 350.85,-81.67"/>
</a>
</g>
</g>
<!-- Node7 -->
<g id="Node000007" class="node">
<title>Node7</title>
<g id="a_Node000007"><a xlink:href="../../d4/d0a/elph_c_8h.html" target="_top" xlink:title="Core type definitions and configuration for LetzElPhC.">
<polygon fill="white" stroke="#666666" points="325.38,-19.25 275.62,-19.25 275.62,0 325.38,0 325.38,-19.25"/>
<text xml:space="preserve" text-anchor="middle" x="300.5" y="-5.75" font-family="Helvetica,sans-Serif" font-size="10.00">elphC.h</text>
</a>
</g>
</g>
<!-- Node1&#45;&gt;Node7 -->
<g id="edge6_Node000001_Node000007" class="edge">
<title>Node1&#45;&gt;Node7</title>
<g id="a_edge6_Node000001_Node000007"><a xlink:title=" ">
<path fill="none" stroke="#63b8ff" d="M223.37,-110.25C237.16,-92.44 268.4,-52.08 286.61,-28.56"/>
<polygon fill="#63b8ff" stroke="#63b8ff" points="289.25,-30.87 292.6,-20.82 283.72,-26.59 289.25,-30.87"/>
</a>
</g>
</g>
<!-- Node8 -->
<g id="Node000008" class="node">
<title>Node8</title>
<g id="a_Node000008"><a xlink:href="../../d7/d76/fft_8h.html" target="_top" xlink:title=" ">
<polygon fill="white" stroke="#666666" points="188.12,-74.5 154.88,-74.5 154.88,-55.25 188.12,-55.25 188.12,-74.5"/>
<text xml:space="preserve" text-anchor="middle" x="171.5" y="-61" font-family="Helvetica,sans-Serif" font-size="10.00">fft.h</text>
</a>
</g>
</g>
<!-- Node1&#45;&gt;Node8 -->
<g id="edge7_Node000001_Node000008" class="edge">
<title>Node1&#45;&gt;Node8</title>
<g id="a_edge7_Node000001_Node000008"><a xlink:title=" ">
<path fill="none" stroke="#63b8ff" d="M209.07,-110.33C202.92,-103.05 193.99,-92.48 186.37,-83.48"/>
<polygon fill="#63b8ff" stroke="#63b8ff" points="189.2,-81.39 180.07,-76.02 183.85,-85.91 189.2,-81.39"/>
</a>
</g>
</g>
<!-- Node8&#45;&gt;Node2 -->
<g id="edge9_Node000008_Node000002" class="edge">
<title>Node8&#45;&gt;Node2</title>
<g id="a_edge9_Node000008_Node000002"><a xlink:title=" ">
<path fill="none" stroke="#63b8ff" d="M154.49,-57.45C132.51,-49.15 93.69,-34.49 65.32,-23.78"/>
<polygon fill="#63b8ff" stroke="#63b8ff" points="66.65,-20.54 56.06,-20.28 64.18,-27.09 66.65,-20.54"/>
</a>
</g>
</g>
<!-- Node8&#45;&gt;Node3 -->
<g id="edge10_Node000008_Node000003" class="edge">
<title>Node8&#45;&gt;Node3</title>
<g id="a_edge10_Node000008_Node000003"><a xlink:title=" ">
<path fill="none" stroke="#63b8ff" d="M159.8,-54.84C149.72,-47.07 134.96,-35.67 122.94,-26.4"/>
<polygon fill="#63b8ff" stroke="#63b8ff" points="125.29,-23.79 115.23,-20.45 121.01,-29.33 125.29,-23.79"/>
</a>
</g>
</g>
<!-- Node8&#45;&gt;Node4 -->
<g id="edge11_Node000008_Node000004" class="edge">
<title>Node8&#45;&gt;Node4</title>
<g id="a_edge11_Node000008_Node000004"><a xlink:title=" ">
<path fill="none" stroke="#63b8ff" d="M182.7,-54.84C192.24,-47.15 206.17,-35.9 217.61,-26.68"/>
<polygon fill="#63b8ff" stroke="#63b8ff" points="219.71,-29.48 225.29,-20.48 215.31,-24.03 219.71,-29.48"/>
</a>
</g>
</g>
<!-- Node8&#45;&gt;Node7 -->
<g id="edge8_Node000008_Node000007" class="edge">
<title>Node8&#45;&gt;Node7</title>
<g id="a_edge8_Node000008_Node000007"><a xlink:title=" ">
<path fill="none" stroke="#63b8ff" d="M188.36,-56.91C208.47,-48.61 242.54,-34.55 267.86,-24.1"/>
<polygon fill="#63b8ff" stroke="#63b8ff" points="269.14,-27.36 277.05,-20.31 266.47,-20.89 269.14,-27.36"/>
</a>
</g>
</g>
<!-- Node9 -->
<g id="Node000009" class="node">
<title>Node9</title>
<g id="a_Node000009"><a xlink:title=" ">
<polygon fill="#e0e0e0" stroke="#999999" points="199.38,-19.25 143.62,-19.25 143.62,0 199.38,0 199.38,-19.25"/>
<text xml:space="preserve" text-anchor="middle" x="171.5" y="-5.75" font-family="Helvetica,sans-Serif" font-size="10.00">stdbool.h</text>
</a>
</g>
</g>
<!-- Node8&#45;&gt;Node9 -->
<g id="edge12_Node000008_Node000009" class="edge">
<title>Node8&#45;&gt;Node9</title>
<g id="a_edge12_Node000008_Node000009"><a xlink:title=" ">
<path fill="none" stroke="#63b8ff" d="M171.5,-55.08C171.5,-48.57 171.5,-39.42 171.5,-31.12"/>
<polygon fill="#63b8ff" stroke="#63b8ff" points="175,-31.12 171.5,-21.12 168,-31.12 175,-31.12"/>
</a>
</g>
</g>
</g>
</svg>
