<?xml version="1.0" encoding="UTF-8" standalone="no"?>
<!DOCTYPE svg PUBLIC "-//W3C//DTD SVG 1.1//EN"
 "http://www.w3.org/Graphics/SVG/1.1/DTD/svg11.dtd">
<!-- Generated by graphviz version 14.0.0 (20250921.2048)
 -->
<!-- Title: src/symmetries/symmetries.h Pages: 1 -->
<svg width="1480pt" height="94pt"
 viewBox="0.00 0.00 1480.00 94.00" xmlns="http://www.w3.org/2000/svg" xmlns:xlink="http://www.w3.org/1999/xlink">
<g id="graph0" class="graph" transform="scale(1 1) rotate(0) translate(4 89.75)">
<title>src/symmetries/symmetries.h</title>
<!-- Node1 -->
<g id="Node000001" class="node">
<title>Node1</title>
<g id="a_Node000001"><a xlink:title=" ">
<polygon fill="#999999" stroke="#666666" points="844.62,-85.75 698.88,-85.75 698.88,-66.5 844.62,-66.5 844.62,-85.75"/>
<text xml:space="preserve" text-anchor="middle" x="771.75" y="-72.25" font-family="Helvetica,sans-Serif" font-size="10.00">src/symmetries/symmetries.h</text>
</a>
</g>
</g>
<!-- Node2 -->
<g id="Node000002" class="node">
<title>Node2</title>
<g id="a_Node000002"><a xlink:href="../../d5/d9f/compute__dmats_8c.html" target="_top" xlink:title=" ">
<polygon fill="white" stroke="#666666" points="131.5,-24.88 0,-24.88 0,-5.63 131.5,-5.63 131.5,-24.88"/>
<text xml:space="preserve" text-anchor="middle" x="65.75" y="-11.38" font-family="Helvetica,sans-Serif" font-size="10.00">src/elph/compute_dmats.c</text>
</a>
</g>
</g>
<!-- Node1&#45;&gt;Node2 -->
<g id="edge1_Node000001_Node000002" class="edge">
<title>Node1&#45;&gt;Node2</title>
<g id="a_edge1_Node000001_Node000002"><a xlink:title=" ">
<path fill="none" stroke="#63b8ff" d="M687.2,-72.29C565.84,-67.52 335.4,-55.79 140.75,-30.5 130.37,-29.15 119.25,-27.28 108.84,-25.33"/>
<polygon fill="#63b8ff" stroke="#63b8ff" points="686.96,-75.79 697.09,-72.68 687.23,-68.79 686.96,-75.79"/>
</a>
</g>
</g>
<!-- Node3 -->
<g id="Node000003" class="node">
<title>Node3</title>
<g id="a_Node000003"><a xlink:href="../../d5/dd2/compute__elph__matq_8c.html" target="_top" xlink:title=" ">
<polygon fill="white" stroke="#666666" points="263.88,-30.5 149.62,-30.5 149.62,0 263.88,0 263.88,-30.5"/>
<text xml:space="preserve" text-anchor="start" x="157.62" y="-17" font-family="Helvetica,sans-Serif" font-size="10.00">src/elph/compute_elph</text>
<text xml:space="preserve" text-anchor="middle" x="206.75" y="-5.75" font-family="Helvetica,sans-Serif" font-size="10.00">_matq.c</text>
</a>
</g>
</g>
<!-- Node1&#45;&gt;Node3 -->
<g id="edge2_Node000001_Node000003" class="edge">
<title>Node1&#45;&gt;Node3</title>
<g id="a_edge2_Node000001_Node000003"><a xlink:title=" ">
<path fill="none" stroke="#63b8ff" d="M687.2,-70.75C587.65,-64.87 417.5,-52.51 272.75,-30.5 269.97,-30.08 267.13,-29.61 264.27,-29.11"/>
<polygon fill="#63b8ff" stroke="#63b8ff" points="686.99,-74.25 697.18,-71.33 687.4,-67.26 686.99,-74.25"/>
</a>
</g>
</g>
<!-- Node4 -->
<g id="Node000004" class="node">
<title>Node4</title>
<g id="a_Node000004"><a xlink:href="../../da/d2e/elph__driver_8c.html" target="_top" xlink:title=" ">
<polygon fill="white" stroke="#666666" points="389.88,-24.88 281.62,-24.88 281.62,-5.63 389.88,-5.63 389.88,-24.88"/>
<text xml:space="preserve" text-anchor="middle" x="335.75" y="-11.38" font-family="Helvetica,sans-Serif" font-size="10.00">src/elph/elph_driver.c</text>
</a>
</g>
</g>
<!-- Node1&#45;&gt;Node4 -->
<g id="edge3_Node000001_Node000004" class="edge">
<title>Node1&#45;&gt;Node4</title>
<g id="a_edge3_Node000001_Node000004"><a xlink:title=" ">
<path fill="none" stroke="#63b8ff" d="M687.15,-67.52C611.32,-60.11 497.17,-47.47 398.75,-30.5 390.35,-29.05 381.39,-27.21 372.93,-25.33"/>
<polygon fill="#63b8ff" stroke="#63b8ff" points="686.73,-71 697.02,-68.48 687.4,-64.03 686.73,-71"/>
</a>
</g>
</g>
<!-- Node5 -->
<g id="Node000005" class="node">
<title>Node5</title>
<g id="a_Node000005"><a xlink:href="../../da/dc2/interpolation__driver_8c.html" target="_top" xlink:title=" ">
<polygon fill="white" stroke="#666666" points="548,-30.5 407.5,-30.5 407.5,0 548,0 548,-30.5"/>
<text xml:space="preserve" text-anchor="start" x="415.5" y="-17" font-family="Helvetica,sans-Serif" font-size="10.00">src/interpolation/interpolation</text>
<text xml:space="preserve" text-anchor="middle" x="477.75" y="-5.75" font-family="Helvetica,sans-Serif" font-size="10.00">_driver.c</text>
</a>
</g>
</g>
<!-- Node1&#45;&gt;Node5 -->
<g id="edge4_Node000001_Node000005" class="edge">
<title>Node1&#45;&gt;Node5</title>
<g id="a_edge4_Node000001_Node000005"><a xlink:title=" ">
<path fill="none" stroke="#63b8ff" d="M715.44,-63.85C667.87,-54.32 599.51,-40.63 548.3,-30.38"/>
<polygon fill="#63b8ff" stroke="#63b8ff" points="714.48,-67.23 724.97,-65.76 715.85,-60.36 714.48,-67.23"/>
</a>
</g>
</g>
<!-- Node6 -->
<g id="Node000006" class="node">
<title>Node6</title>
<g id="a_Node000006"><a xlink:href="../../da/d77/get__save__data_8c.html" target="_top" xlink:title=" ">
<polygon fill="white" stroke="#666666" points="681.25,-24.88 566.25,-24.88 566.25,-5.63 681.25,-5.63 681.25,-24.88"/>
<text xml:space="preserve" text-anchor="middle" x="623.75" y="-11.38" font-family="Helvetica,sans-Serif" font-size="10.00">src/io/get_save_data.c</text>
</a>
</g>
</g>
<!-- Node1&#45;&gt;Node6 -->
<g id="edge5_Node000001_Node000006" class="edge">
<title>Node1&#45;&gt;Node6</title>
<g id="a_edge5_Node000001_Node000006"><a xlink:title=" ">
<path fill="none" stroke="#63b8ff" d="M738.42,-61.87C710.32,-50.69 670.87,-34.99 646.33,-25.23"/>
<polygon fill="#63b8ff" stroke="#63b8ff" points="736.96,-65.05 747.54,-65.5 739.54,-58.55 736.96,-65.05"/>
</a>
</g>
</g>
<!-- Node7 -->
<g id="Node000007" class="node">
<title>Node7</title>
<g id="a_Node000007"><a xlink:href="../../d2/d7a/_b_z__expand_8c.html" target="_top" xlink:title=" ">
<polygon fill="white" stroke="#666666" points="843.88,-24.88 699.62,-24.88 699.62,-5.63 843.88,-5.63 843.88,-24.88"/>
<text xml:space="preserve" text-anchor="middle" x="771.75" y="-11.38" font-family="Helvetica,sans-Serif" font-size="10.00">src/symmetries/BZ_expand.c</text>
</a>
</g>
</g>
<!-- Node1&#45;&gt;Node7 -->
<g id="edge6_Node000001_Node000007" class="edge">
<title>Node1&#45;&gt;Node7</title>
<g id="a_edge6_Node000001_Node000007"><a xlink:title=" ">
<path fill="none" stroke="#63b8ff" d="M771.75,-54.7C771.75,-44.67 771.75,-33.08 771.75,-25.28"/>
<polygon fill="#63b8ff" stroke="#63b8ff" points="768.25,-54.67 771.75,-64.67 775.25,-54.67 768.25,-54.67"/>
</a>
</g>
</g>
<!-- Node8 -->
<g id="Node000008" class="node">
<title>Node8</title>
<g id="a_Node000008"><a xlink:href="../../dd/de7/elec__reps_8c.html" target="_top" xlink:title=" ">
<polygon fill="white" stroke="#666666" points="966,-30.5 861.5,-30.5 861.5,0 966,0 966,-30.5"/>
<text xml:space="preserve" text-anchor="start" x="869.5" y="-17" font-family="Helvetica,sans-Serif" font-size="10.00">src/symmetries/elec</text>
<text xml:space="preserve" text-anchor="middle" x="913.75" y="-5.75" font-family="Helvetica,sans-Serif" font-size="10.00">_reps.c</text>
</a>
</g>
</g>
<!-- Node1&#45;&gt;Node8 -->
<g id="edge7_Node000001_Node000008" class="edge">
<title>Node1&#45;&gt;Node8</title>
<g id="a_edge7_Node000001_Node000008"><a xlink:title=" ">
<path fill="none" stroke="#63b8ff" d="M804.16,-61.69C826.27,-52.52 855.57,-40.37 878.31,-30.94"/>
<polygon fill="#63b8ff" stroke="#63b8ff" points="802.92,-58.41 795.02,-65.48 805.6,-64.88 802.92,-58.41"/>
</a>
</g>
</g>
<!-- Node9 -->
<g id="Node000009" class="node">
<title>Node9</title>
<g id="a_Node000009"><a xlink:href="../../dd/d37/elphq__expand_8c.html" target="_top" xlink:title=" ">
<polygon fill="white" stroke="#666666" points="1093.62,-30.5 983.88,-30.5 983.88,0 1093.62,0 1093.62,-30.5"/>
<text xml:space="preserve" text-anchor="start" x="991.88" y="-17" font-family="Helvetica,sans-Serif" font-size="10.00">src/symmetries/elphq</text>
<text xml:space="preserve" text-anchor="middle" x="1038.75" y="-5.75" font-family="Helvetica,sans-Serif" font-size="10.00">_expand.c</text>
</a>
</g>
</g>
<!-- Node1&#45;&gt;Node9 -->
<g id="edge8_Node000001_Node000009" class="edge">
<title>Node1&#45;&gt;Node9</title>
<g id="a_edge8_Node000001_Node000009"><a xlink:title=" ">
<path fill="none" stroke="#63b8ff" d="M824.44,-63.58C865.42,-54.6 923.71,-41.79 974.75,-30.5 977.64,-29.86 980.6,-29.2 983.59,-28.54"/>
<polygon fill="#63b8ff" stroke="#63b8ff" points="823.85,-60.13 814.84,-65.69 825.35,-66.97 823.85,-60.13"/>
</a>
</g>
</g>
<!-- Node10 -->
<g id="Node000010" class="node">
<title>Node10</title>
<g id="a_Node000010"><a xlink:href="../../db/df2/gen__i_b_z__kpts_8c.html" target="_top" xlink:title=" ">
<polygon fill="white" stroke="#666666" points="1213.88,-30.5 1111.62,-30.5 1111.62,0 1213.88,0 1213.88,-30.5"/>
<text xml:space="preserve" text-anchor="start" x="1119.62" y="-17" font-family="Helvetica,sans-Serif" font-size="10.00">src/symmetries/gen</text>
<text xml:space="preserve" text-anchor="middle" x="1162.75" y="-5.75" font-family="Helvetica,sans-Serif" font-size="10.00">_iBZ_kpts.c</text>
</a>
</g>
</g>
<!-- Node1&#45;&gt;Node10 -->
<g id="edge9_Node000001_Node000010" class="edge">
<title>Node1&#45;&gt;Node10</title>
<g id="a_edge9_Node000001_Node000010"><a xlink:title=" ">
<path fill="none" stroke="#63b8ff" d="M856.4,-66.06C923.49,-58.31 1019.49,-45.96 1102.75,-30.5 1105.59,-29.97 1108.5,-29.4 1111.43,-28.79"/>
<polygon fill="#63b8ff" stroke="#63b8ff" points="856.09,-62.57 846.55,-67.18 856.89,-69.52 856.09,-62.57"/>
</a>
</g>
</g>
<!-- Node11 -->
<g id="Node000011" class="node">
<title>Node11</title>
<g id="a_Node000011"><a xlink:href="../../d7/db8/rotate__dvscf_8c.html" target="_top" xlink:title=" ">
<polygon fill="white" stroke="#666666" points="1343.38,-30.5 1232.12,-30.5 1232.12,0 1343.38,0 1343.38,-30.5"/>
<text xml:space="preserve" text-anchor="start" x="1240.12" y="-17" font-family="Helvetica,sans-Serif" font-size="10.00">src/symmetries/rotate</text>
<text xml:space="preserve" text-anchor="middle" x="1287.75" y="-5.75" font-family="Helvetica,sans-Serif" font-size="10.00">_dvscf.c</text>
</a>
</g>
</g>
<!-- Node1&#45;&gt;Node11 -->
<g id="edge10_Node000001_Node000011" class="edge">
<title>Node1&#45;&gt;Node11</title>
<g id="a_edge10_Node000001_Node000011"><a xlink:title=" ">
<path fill="none" stroke="#63b8ff" d="M856.47,-69.72C947.39,-63.22 1095.87,-50.61 1222.75,-30.5 1225.72,-30.03 1228.75,-29.51 1231.81,-28.95"/>
<polygon fill="#63b8ff" stroke="#63b8ff" points="856.36,-66.22 846.63,-70.41 856.85,-73.2 856.36,-66.22"/>
</a>
</g>
</g>
<!-- Node12 -->
<g id="Node000012" class="node">
<title>Node12</title>
<g id="a_Node000012"><a xlink:href="../../dc/d55/rotate__eig__vecs_8c.html" target="_top" xlink:title=" ">
<polygon fill="white" stroke="#666666" points="1472.38,-30.5 1361.12,-30.5 1361.12,0 1472.38,0 1472.38,-30.5"/>
<text xml:space="preserve" text-anchor="start" x="1369.12" y="-17" font-family="Helvetica,sans-Serif" font-size="10.00">src/symmetries/rotate</text>
<text xml:space="preserve" text-anchor="middle" x="1416.75" y="-5.75" font-family="Helvetica,sans-Serif" font-size="10.00">_eig_vecs.c</text>
</a>
</g>
</g>
<!-- Node1&#45;&gt;Node12 -->
<g id="edge11_Node000001_Node000012" class="edge">
<title>Node1&#45;&gt;Node12</title>
<g id="a_edge11_Node000001_Node000012"><a xlink:title=" ">
<path fill="none" stroke="#63b8ff" d="M856.4,-72.4C969.89,-67.89 1177.41,-56.62 1352.75,-30.5 1355.34,-30.11 1357.98,-29.68 1360.64,-29.22"/>
<polygon fill="#63b8ff" stroke="#63b8ff" points="856.41,-68.9 846.55,-72.78 856.68,-75.89 856.41,-68.9"/>
</a>
</g>
</g>
</g>
</svg>
