<?xml version="1.0" encoding="UTF-8" standalone="no"?>
<!DOCTYPE svg PUBLIC "-//W3C//DTD SVG 1.1//EN"
 "http://www.w3.org/Graphics/SVG/1.1/DTD/svg11.dtd">
<!-- Generated by graphviz version 14.0.0 (20250921.2048)
 -->
<!-- Title: src/wfc/trans_wfc.c Pages: 1 -->
<svg width="635pt" height="138pt"
 viewBox="0.00 0.00 635.00 138.00" xmlns="http://www.w3.org/2000/svg" xmlns:xlink="http://www.w3.org/1999/xlink">
<g id="graph0" class="graph" transform="scale(1 1) rotate(0) translate(4 133.75)">
<title>src/wfc/trans_wfc.c</title>
<!-- Node1 -->
<g id="Node000001" class="node">
<title>Node1</title>
<g id="a_Node000001"><a xlink:title=" ">
<polygon fill="#999999" stroke="#666666" points="291.62,-129.75 189.38,-129.75 189.38,-110.5 291.62,-110.5 291.62,-129.75"/>
<text xml:space="preserve" text-anchor="middle" x="240.5" y="-116.25" font-family="Helvetica,sans-Serif" font-size="10.00">src/wfc/trans_wfc.c</text>
</a>
</g>
</g>
<!-- Node2 -->
<g id="Node000002" class="node">
<title>Node2</title>
<g id="a_Node000002"><a xlink:title=" ">
<polygon fill="#e0e0e0" stroke="#999999" points="61,-74.5 0,-74.5 0,-55.25 61,-55.25 61,-74.5"/>
<text xml:space="preserve" text-anchor="middle" x="30.5" y="-61" font-family="Helvetica,sans-Serif" font-size="10.00">complex.h</text>
</a>
</g>
</g>
<!-- Node1&#45;&gt;Node2 -->
<g id="edge1_Node000001_Node000002" class="edge">
<title>Node1&#45;&gt;Node2</title>
<g id="a_edge1_Node000001_Node000002"><a xlink:title=" ">
<path fill="none" stroke="#63b8ff" d="M204.88,-110.09C168.13,-100.77 110.87,-86.25 72.08,-76.42"/>
<polygon fill="#63b8ff" stroke="#63b8ff" points="73.19,-73.09 62.63,-74.02 71.47,-79.87 73.19,-73.09"/>
</a>
</g>
</g>
<!-- Node3 -->
<g id="Node000003" class="node">
<title>Node3</title>
<g id="a_Node000003"><a xlink:title=" ">
<polygon fill="#e0e0e0" stroke="#999999" points="141.38,-19.25 85.62,-19.25 85.62,0 141.38,0 141.38,-19.25"/>
<text xml:space="preserve" text-anchor="middle" x="113.5" y="-5.75" font-family="Helvetica,sans-Serif" font-size="10.00">stdbool.h</text>
</a>
</g>
</g>
<!-- Node1&#45;&gt;Node3 -->
<g id="edge2_Node000001_Node000003" class="edge">
<title>Node1&#45;&gt;Node3</title>
<g id="a_edge2_Node000001_Node000003"><a xlink:title=" ">
<path fill="none" stroke="#63b8ff" d="M189.04,-115.85C160.33,-111.07 126.76,-99.95 108.5,-74.5 99.37,-61.78 101.79,-43.73 105.82,-30.07"/>
<polygon fill="#63b8ff" stroke="#63b8ff" points="109.05,-31.45 109.03,-20.86 102.44,-29.15 109.05,-31.45"/>
</a>
</g>
</g>
<!-- Node4 -->
<g id="Node000004" class="node">
<title>Node4</title>
<g id="a_Node000004"><a xlink:href="../../d2/d6f/constants_8h.html" target="_top" xlink:title=" ">
<polygon fill="white" stroke="#666666" points="469.25,-74.5 361.75,-74.5 361.75,-55.25 469.25,-55.25 469.25,-74.5"/>
<text xml:space="preserve" text-anchor="middle" x="415.5" y="-61" font-family="Helvetica,sans-Serif" font-size="10.00">common/constants.h</text>
</a>
</g>
</g>
<!-- Node1&#45;&gt;Node4 -->
<g id="edge3_Node000001_Node000004" class="edge">
<title>Node1&#45;&gt;Node4</title>
<g id="a_edge3_Node000001_Node000004"><a xlink:title=" ">
<path fill="none" stroke="#63b8ff" d="M270.19,-110.09C298.97,-101.33 342.87,-87.98 374.88,-78.23"/>
<polygon fill="#63b8ff" stroke="#63b8ff" points="375.67,-81.65 384.22,-75.39 373.63,-74.96 375.67,-81.65"/>
</a>
</g>
</g>
<!-- Node5 -->
<g id="Node000005" class="node">
<title>Node5</title>
<g id="a_Node000005"><a xlink:href="../../d4/d0a/elph_c_8h.html" target="_top" xlink:title="Core type definitions and configuration for LetzElPhC.">
<polygon fill="white" stroke="#666666" points="358.38,-19.25 308.62,-19.25 308.62,0 358.38,0 358.38,-19.25"/>
<text xml:space="preserve" text-anchor="middle" x="333.5" y="-5.75" font-family="Helvetica,sans-Serif" font-size="10.00">elphC.h</text>
</a>
</g>
</g>
<!-- Node1&#45;&gt;Node5 -->
<g id="edge10_Node000001_Node000005" class="edge">
<title>Node1&#45;&gt;Node5</title>
<g id="a_edge10_Node000001_Node000005"><a xlink:title=" ">
<path fill="none" stroke="#63b8ff" d="M264.74,-110.02C281.02,-102.73 301.74,-90.99 314.5,-74.5 324.37,-61.75 329.12,-43.96 331.41,-30.39"/>
<polygon fill="#63b8ff" stroke="#63b8ff" points="334.82,-31.25 332.68,-20.88 327.88,-30.32 334.82,-31.25"/>
</a>
</g>
</g>
<!-- Node6 -->
<g id="Node000006" class="node">
<title>Node6</title>
<g id="a_Node000006"><a xlink:href="../../df/def/numerical__func_8h.html" target="_top" xlink:title=" ">
<polygon fill="white" stroke="#666666" points="305.88,-74.5 175.12,-74.5 175.12,-55.25 305.88,-55.25 305.88,-74.5"/>
<text xml:space="preserve" text-anchor="middle" x="240.5" y="-61" font-family="Helvetica,sans-Serif" font-size="10.00">common/numerical_func.h</text>
</a>
</g>
</g>
<!-- Node1&#45;&gt;Node6 -->
<g id="edge5_Node000001_Node000006" class="edge">
<title>Node1&#45;&gt;Node6</title>
<g id="a_edge5_Node000001_Node000006"><a xlink:title=" ">
<path fill="none" stroke="#63b8ff" d="M240.5,-110.33C240.5,-103.82 240.5,-94.67 240.5,-86.37"/>
<polygon fill="#63b8ff" stroke="#63b8ff" points="244,-86.37 240.5,-76.37 237,-86.37 244,-86.37"/>
</a>
</g>
</g>
<!-- Node7 -->
<g id="Node000007" class="node">
<title>Node7</title>
<g id="a_Node000007"><a xlink:href="../../d2/d8d/omp__pragma__def_8h.html" target="_top" xlink:title=" ">
<polygon fill="white" stroke="#666666" points="627.38,-74.5 487.62,-74.5 487.62,-55.25 627.38,-55.25 627.38,-74.5"/>
<text xml:space="preserve" text-anchor="middle" x="557.5" y="-61" font-family="Helvetica,sans-Serif" font-size="10.00">common/omp_pragma_def.h</text>
</a>
</g>
</g>
<!-- Node1&#45;&gt;Node7 -->
<g id="edge8_Node000001_Node000007" class="edge">
<title>Node1&#45;&gt;Node7</title>
<g id="a_edge8_Node000001_Node000007"><a xlink:title=" ">
<path fill="none" stroke="#63b8ff" d="M291.78,-110.51C346.36,-101.34 432.85,-86.81 492.24,-76.84"/>
<polygon fill="#63b8ff" stroke="#63b8ff" points="492.6,-80.33 501.88,-75.22 491.44,-73.42 492.6,-80.33"/>
</a>
</g>
</g>
<!-- Node8 -->
<g id="Node000008" class="node">
<title>Node8</title>
<g id="a_Node000008"><a xlink:href="../../d1/dea/wfc_8h.html" target="_top" xlink:title=" ">
<polygon fill="white" stroke="#666666" points="157.5,-74.5 117.5,-74.5 117.5,-55.25 157.5,-55.25 157.5,-74.5"/>
<text xml:space="preserve" text-anchor="middle" x="137.5" y="-61" font-family="Helvetica,sans-Serif" font-size="10.00">wfc.h</text>
</a>
</g>
</g>
<!-- Node1&#45;&gt;Node8 -->
<g id="edge11_Node000001_Node000008" class="edge">
<title>Node1&#45;&gt;Node8</title>
<g id="a_edge11_Node000001_Node000008"><a xlink:title=" ">
<path fill="none" stroke="#63b8ff" d="M223.03,-110.09C207.19,-101.91 183.59,-89.71 165.19,-80.19"/>
<polygon fill="#63b8ff" stroke="#63b8ff" points="166.89,-77.13 156.4,-75.65 163.68,-83.35 166.89,-77.13"/>
</a>
</g>
</g>
<!-- Node4&#45;&gt;Node5 -->
<g id="edge4_Node000004_Node000005" class="edge">
<title>Node4&#45;&gt;Node5</title>
<g id="a_edge4_Node000004_Node000005"><a xlink:title=" ">
<path fill="none" stroke="#63b8ff" d="M401.59,-54.84C389.34,-46.89 371.25,-35.14 356.79,-25.75"/>
<polygon fill="#63b8ff" stroke="#63b8ff" points="359.04,-23.04 348.75,-20.53 355.23,-28.91 359.04,-23.04"/>
</a>
</g>
</g>
<!-- Node6&#45;&gt;Node3 -->
<g id="edge6_Node000006_Node000003" class="edge">
<title>Node6&#45;&gt;Node3</title>
<g id="a_edge6_Node000006_Node000003"><a xlink:title=" ">
<path fill="none" stroke="#63b8ff" d="M218.96,-54.84C198.89,-46.43 168.7,-33.77 145.75,-24.15"/>
<polygon fill="#63b8ff" stroke="#63b8ff" points="147.12,-20.93 136.55,-20.29 144.41,-27.38 147.12,-20.93"/>
</a>
</g>
</g>
<!-- Node6&#45;&gt;Node5 -->
<g id="edge7_Node000006_Node000005" class="edge">
<title>Node6&#45;&gt;Node5</title>
<g id="a_edge7_Node000006_Node000005"><a xlink:title=" ">
<path fill="none" stroke="#63b8ff" d="M256.28,-54.84C270.44,-46.73 291.48,-34.68 308.03,-25.21"/>
<polygon fill="#63b8ff" stroke="#63b8ff" points="309.39,-28.46 316.33,-20.45 305.92,-22.39 309.39,-28.46"/>
</a>
</g>
</g>
<!-- Node7&#45;&gt;Node5 -->
<g id="edge9_Node000007_Node000005" class="edge">
<title>Node7&#45;&gt;Node5</title>
<g id="a_edge9_Node000007_Node000005"><a xlink:title=" ">
<path fill="none" stroke="#63b8ff" d="M519.25,-54.78C477.42,-44.84 410.89,-29.02 369.83,-19.26"/>
<polygon fill="#63b8ff" stroke="#63b8ff" points="370.73,-15.88 360.19,-16.97 369.11,-22.69 370.73,-15.88"/>
</a>
</g>
</g>
<!-- Node8&#45;&gt;Node3 -->
<g id="edge13_Node000008_Node000003" class="edge">
<title>Node8&#45;&gt;Node3</title>
<g id="a_edge13_Node000008_Node000003"><a xlink:title=" ">
<path fill="none" stroke="#63b8ff" d="M133.54,-55.08C130.46,-48.26 126.09,-38.56 122.21,-29.95"/>
<polygon fill="#63b8ff" stroke="#63b8ff" points="125.47,-28.67 118.17,-20.99 119.09,-31.54 125.47,-28.67"/>
</a>
</g>
</g>
<!-- Node8&#45;&gt;Node5 -->
<g id="edge14_Node000008_Node000005" class="edge">
<title>Node8&#45;&gt;Node5</title>
<g id="a_edge14_Node000008_Node000005"><a xlink:title=" ">
<path fill="none" stroke="#63b8ff" d="M157.76,-57.77C160.69,-56.91 163.67,-56.05 166.5,-55.25 211.52,-42.54 263.63,-28.77 297.51,-19.93"/>
<polygon fill="#63b8ff" stroke="#63b8ff" points="298,-23.42 306.79,-17.52 296.24,-16.65 298,-23.42"/>
</a>
</g>
</g>
<!-- Node9 -->
<g id="Node000009" class="node">
<title>Node9</title>
<g id="a_Node000009"><a xlink:title=" ">
<polygon fill="#e0e0e0" stroke="#999999" points="199.5,-19.25 159.5,-19.25 159.5,0 199.5,0 199.5,-19.25"/>
<text xml:space="preserve" text-anchor="middle" x="179.5" y="-5.75" font-family="Helvetica,sans-Serif" font-size="10.00">mpi.h</text>
</a>
</g>
</g>
<!-- Node8&#45;&gt;Node9 -->
<g id="edge12_Node000008_Node000009" class="edge">
<title>Node8&#45;&gt;Node9</title>
<g id="a_edge12_Node000008_Node000009"><a xlink:title=" ">
<path fill="none" stroke="#63b8ff" d="M144.44,-55.08C150.12,-47.88 158.34,-37.46 165.39,-28.51"/>
<polygon fill="#63b8ff" stroke="#63b8ff" points="168.03,-30.82 171.48,-20.8 162.54,-26.48 168.03,-30.82"/>
</a>
</g>
</g>
</g>
</svg>
