<?xml version="1.0" encoding="UTF-8" standalone="no"?>
<!DOCTYPE svg PUBLIC "-//W3C//DTD SVG 1.1//EN"
 "http://www.w3.org/Graphics/SVG/1.1/DTD/svg11.dtd">
<!-- Generated by graphviz version 14.0.0 (20250921.2048)
 -->
<!-- Title: fft_R2q_dvscf Pages: 1 -->
<svg width="217pt" height="101pt"
 viewBox="0.00 0.00 217.00 101.00" xmlns="http://www.w3.org/2000/svg" xmlns:xlink="http://www.w3.org/1999/xlink">
<g id="graph0" class="graph" transform="scale(1 1) rotate(0) translate(4 97.25)">
<title>fft_R2q_dvscf</title>
<!-- Node1 -->
<g id="Node000001" class="node">
<title>Node1</title>
<g id="a_Node000001"><a xlink:title=" ">
<polygon fill="#999999" stroke="#666666" points="77.5,-56.25 0,-56.25 0,-37 77.5,-37 77.5,-56.25"/>
<text xml:space="preserve" text-anchor="middle" x="38.75" y="-42.75" font-family="Helvetica,sans-Serif" font-size="10.00">fft_R2q_dvscf</text>
</a>
</g>
</g>
<!-- Node2 -->
<g id="Node000002" class="node">
<title>Node2</title>
<g id="a_Node000002"><a xlink:href="../../da/d97/_e_l_p_h__timers_8c.html#a4846a0dbe6a17751878baf1315af43aa" target="_top" xlink:title=" ">
<polygon fill="white" stroke="#666666" points="209,-93.25 113.5,-93.25 113.5,-74 209,-74 209,-93.25"/>
<text xml:space="preserve" text-anchor="middle" x="161.25" y="-79.75" font-family="Helvetica,sans-Serif" font-size="10.00">ELPH_start_clock</text>
</a>
</g>
</g>
<!-- Node1&#45;&gt;Node2 -->
<g id="edge1_Node000001_Node000002" class="edge">
<title>Node1&#45;&gt;Node2</title>
<g id="a_edge1_Node000001_Node000002"><a xlink:title=" ">
<path fill="none" stroke="#63b8ff" d="M72.68,-56.74C86.23,-60.9 102.11,-65.77 116.61,-70.23"/>
<polygon fill="#63b8ff" stroke="#63b8ff" points="115.33,-73.49 125.92,-73.08 117.38,-66.8 115.33,-73.49"/>
</a>
</g>
</g>
<!-- Node3 -->
<g id="Node000003" class="node">
<title>Node3</title>
<g id="a_Node000003"><a xlink:href="../../da/d97/_e_l_p_h__timers_8c.html#adcc3002449fe62895b6e89571d00ba48" target="_top" xlink:title=" ">
<polygon fill="white" stroke="#666666" points="208.62,-56.25 113.88,-56.25 113.88,-37 208.62,-37 208.62,-56.25"/>
<text xml:space="preserve" text-anchor="middle" x="161.25" y="-42.75" font-family="Helvetica,sans-Serif" font-size="10.00">ELPH_stop_clock</text>
</a>
</g>
</g>
<!-- Node1&#45;&gt;Node3 -->
<g id="edge2_Node000001_Node000003" class="edge">
<title>Node1&#45;&gt;Node3</title>
<g id="a_edge2_Node000001_Node000003"><a xlink:title=" ">
<path fill="none" stroke="#63b8ff" d="M77.88,-46.62C85.56,-46.62 93.81,-46.62 102,-46.62"/>
<polygon fill="#63b8ff" stroke="#63b8ff" points="101.98,-50.13 111.98,-46.63 101.98,-43.13 101.98,-50.13"/>
</a>
</g>
</g>
<!-- Node4 -->
<g id="Node000004" class="node">
<title>Node4</title>
<g id="a_Node000004"><a xlink:href="../../de/d2d/numerical__func_8c.html#a33dc7889eeb05a7ee40327581d51a3d7" target="_top" xlink:title=" ">
<polygon fill="white" stroke="#666666" points="199.25,-19.25 123.25,-19.25 123.25,0 199.25,0 199.25,-19.25"/>
<text xml:space="preserve" text-anchor="middle" x="161.25" y="-5.75" font-family="Helvetica,sans-Serif" font-size="10.00">get_miller_idx</text>
</a>
</g>
</g>
<!-- Node1&#45;&gt;Node4 -->
<g id="edge3_Node000001_Node000004" class="edge">
<title>Node1&#45;&gt;Node4</title>
<g id="a_edge3_Node000001_Node000004"><a xlink:title=" ">
<path fill="none" stroke="#63b8ff" d="M72.68,-36.51C86.23,-32.35 102.11,-27.48 116.61,-23.02"/>
<polygon fill="#63b8ff" stroke="#63b8ff" points="117.38,-26.45 125.92,-20.17 115.33,-19.76 117.38,-26.45"/>
</a>
</g>
</g>
</g>
</svg>
