<?xml version="1.0" encoding="UTF-8" standalone="no"?>
<!DOCTYPE svg PUBLIC "-//W3C//DTD SVG 1.1//EN"
 "http://www.w3.org/Graphics/SVG/1.1/DTD/svg11.dtd">
<!-- Generated by graphviz version 14.0.0 (20250921.2048)
 -->
<!-- Title: src/io/mpi_bcast.c Pages: 1 -->
<svg width="447pt" height="193pt"
 viewBox="0.00 0.00 447.00 193.00" xmlns="http://www.w3.org/2000/svg" xmlns:xlink="http://www.w3.org/1999/xlink">
<g id="graph0" class="graph" transform="scale(1 1) rotate(0) translate(4 189)">
<title>src/io/mpi_bcast.c</title>
<!-- Node1 -->
<g id="Node000001" class="node">
<title>Node1</title>
<g id="a_Node000001"><a xlink:title=" ">
<polygon fill="#999999" stroke="#666666" points="287.12,-185 190.88,-185 190.88,-165.75 287.12,-165.75 287.12,-185"/>
<text xml:space="preserve" text-anchor="middle" x="239" y="-171.5" font-family="Helvetica,sans-Serif" font-size="10.00">src/io/mpi_bcast.c</text>
</a>
</g>
</g>
<!-- Node2 -->
<g id="Node000002" class="node">
<title>Node2</title>
<g id="a_Node000002"><a xlink:href="../../de/d79/mpi__bcast_8h.html" target="_top" xlink:title=" ">
<polygon fill="white" stroke="#666666" points="143.62,-129.75 74.38,-129.75 74.38,-110.5 143.62,-110.5 143.62,-129.75"/>
<text xml:space="preserve" text-anchor="middle" x="109" y="-116.25" font-family="Helvetica,sans-Serif" font-size="10.00">mpi_bcast.h</text>
</a>
</g>
</g>
<!-- Node1&#45;&gt;Node2 -->
<g id="edge1_Node000001_Node000002" class="edge">
<title>Node1&#45;&gt;Node2</title>
<g id="a_edge1_Node000001_Node000002"><a xlink:title=" ">
<path fill="none" stroke="#63b8ff" d="M216.95,-165.34C196.31,-156.89 165.22,-144.15 141.7,-134.52"/>
<polygon fill="#63b8ff" stroke="#63b8ff" points="143.14,-131.33 132.56,-130.78 140.49,-137.81 143.14,-131.33"/>
</a>
</g>
</g>
<!-- Node3 -->
<g id="Node000003" class="node">
<title>Node3</title>
<g id="a_Node000003"><a xlink:title=" ">
<polygon fill="#e0e0e0" stroke="#999999" points="40,-19.25 0,-19.25 0,0 40,0 40,-19.25"/>
<text xml:space="preserve" text-anchor="middle" x="20" y="-5.75" font-family="Helvetica,sans-Serif" font-size="10.00">mpi.h</text>
</a>
</g>
</g>
<!-- Node1&#45;&gt;Node3 -->
<g id="edge11_Node000001_Node000003" class="edge">
<title>Node1&#45;&gt;Node3</title>
<g id="a_edge11_Node000001_Node000003"><a xlink:title=" ">
<path fill="none" stroke="#63b8ff" d="M190.62,-168.49C141.98,-161.62 71.5,-148.71 52,-129.75 25.08,-103.58 20.02,-57.39 19.51,-30.87"/>
<polygon fill="#63b8ff" stroke="#63b8ff" points="23.01,-31.13 19.54,-21.12 16.01,-31.11 23.01,-31.13"/>
</a>
</g>
</g>
<!-- Node4 -->
<g id="Node000004" class="node">
<title>Node4</title>
<g id="a_Node000004"><a xlink:title=" ">
<polygon fill="#e0e0e0" stroke="#999999" points="211.88,-19.25 156.12,-19.25 156.12,0 211.88,0 211.88,-19.25"/>
<text xml:space="preserve" text-anchor="middle" x="184" y="-5.75" font-family="Helvetica,sans-Serif" font-size="10.00">stdbool.h</text>
</a>
</g>
</g>
<!-- Node1&#45;&gt;Node4 -->
<g id="edge12_Node000001_Node000004" class="edge">
<title>Node1&#45;&gt;Node4</title>
<g id="a_edge12_Node000001_Node000004"><a xlink:title=" ">
<path fill="none" stroke="#63b8ff" d="M241.62,-165.43C247.14,-144.78 258.04,-92.7 240,-55.25 234.09,-42.99 223,-33.05 212.23,-25.7"/>
<polygon fill="#63b8ff" stroke="#63b8ff" points="214.21,-22.81 203.87,-20.47 210.5,-28.74 214.21,-22.81"/>
</a>
</g>
</g>
<!-- Node5 -->
<g id="Node000005" class="node">
<title>Node5</title>
<g id="a_Node000005"><a xlink:href="../../d2/d02/dtypes_8h.html" target="_top" xlink:title=" ">
<polygon fill="white" stroke="#666666" points="231,-74.5 137,-74.5 137,-55.25 231,-55.25 231,-74.5"/>
<text xml:space="preserve" text-anchor="middle" x="184" y="-61" font-family="Helvetica,sans-Serif" font-size="10.00">common/dtypes.h</text>
</a>
</g>
</g>
<!-- Node1&#45;&gt;Node5 -->
<g id="edge14_Node000001_Node000005" class="edge">
<title>Node1&#45;&gt;Node5</title>
<g id="a_edge14_Node000001_Node000005"><a xlink:title=" ">
<path fill="none" stroke="#63b8ff" d="M234.5,-165.5C225.64,-148.01 205.74,-108.77 193.74,-85.09"/>
<polygon fill="#63b8ff" stroke="#63b8ff" points="196.89,-83.56 189.25,-76.23 190.65,-86.73 196.89,-83.56"/>
</a>
</g>
</g>
<!-- Node6 -->
<g id="Node000006" class="node">
<title>Node6</title>
<g id="a_Node000006"><a xlink:href="../../d4/d0a/elph_c_8h.html" target="_top" xlink:title="Core type definitions and configuration for LetzElPhC.">
<polygon fill="white" stroke="#666666" points="107.88,-19.25 58.12,-19.25 58.12,0 107.88,0 107.88,-19.25"/>
<text xml:space="preserve" text-anchor="middle" x="83" y="-5.75" font-family="Helvetica,sans-Serif" font-size="10.00">elphC.h</text>
</a>
</g>
</g>
<!-- Node1&#45;&gt;Node6 -->
<g id="edge16_Node000001_Node000006" class="edge">
<title>Node1&#45;&gt;Node6</title>
<g id="a_edge16_Node000001_Node000006"><a xlink:title=" ">
<path fill="none" stroke="#63b8ff" d="M190.4,-168.57C144.44,-161.97 80.29,-149.46 65,-129.75 42.33,-100.53 59.57,-54.84 72.4,-29.37"/>
<polygon fill="#63b8ff" stroke="#63b8ff" points="75.32,-31.32 76.95,-20.85 69.15,-28.02 75.32,-31.32"/>
</a>
</g>
</g>
<!-- Node7 -->
<g id="Node000007" class="node">
<title>Node7</title>
<g id="a_Node000007"><a xlink:href="../../da/d41/error_8h.html" target="_top" xlink:title=" ">
<polygon fill="white" stroke="#666666" points="295.5,-19.25 252.5,-19.25 252.5,0 295.5,0 295.5,-19.25"/>
<text xml:space="preserve" text-anchor="middle" x="274" y="-5.75" font-family="Helvetica,sans-Serif" font-size="10.00">error.h</text>
</a>
</g>
</g>
<!-- Node1&#45;&gt;Node7 -->
<g id="edge15_Node000001_Node000007" class="edge">
<title>Node1&#45;&gt;Node7</title>
<g id="a_edge15_Node000001_Node000007"><a xlink:title=" ">
<path fill="none" stroke="#63b8ff" d="M248.58,-165.53C256.83,-157.21 268.14,-143.94 273,-129.75 284.35,-96.58 281.11,-55.1 277.62,-30.86"/>
<polygon fill="#63b8ff" stroke="#63b8ff" points="281.09,-30.42 276.04,-21.11 274.18,-31.54 281.09,-30.42"/>
</a>
</g>
</g>
<!-- Node8 -->
<g id="Node000008" class="node">
<title>Node8</title>
<g id="a_Node000008"><a xlink:title=" ">
<polygon fill="#e0e0e0" stroke="#999999" points="372.75,-129.75 325.25,-129.75 325.25,-110.5 372.75,-110.5 372.75,-129.75"/>
<text xml:space="preserve" text-anchor="middle" x="349" y="-116.25" font-family="Helvetica,sans-Serif" font-size="10.00">limits.h</text>
</a>
</g>
</g>
<!-- Node1&#45;&gt;Node8 -->
<g id="edge10_Node000001_Node000008" class="edge">
<title>Node1&#45;&gt;Node8</title>
<g id="a_edge10_Node000001_Node000008"><a xlink:title=" ">
<path fill="none" stroke="#63b8ff" d="M257.66,-165.34C274.73,-157.08 300.24,-144.73 319.97,-135.18"/>
<polygon fill="#63b8ff" stroke="#63b8ff" points="321.41,-138.37 328.89,-130.86 318.36,-132.07 321.41,-138.37"/>
</a>
</g>
</g>
<!-- Node9 -->
<g id="Node000009" class="node">
<title>Node9</title>
<g id="a_Node000009"><a xlink:title=" ">
<polygon fill="#e0e0e0" stroke="#999999" points="438.75,-129.75 391.25,-129.75 391.25,-110.5 438.75,-110.5 438.75,-129.75"/>
<text xml:space="preserve" text-anchor="middle" x="415" y="-116.25" font-family="Helvetica,sans-Serif" font-size="10.00">stdlib.h</text>
</a>
</g>
</g>
<!-- Node1&#45;&gt;Node9 -->
<g id="edge13_Node000001_Node000009" class="edge">
<title>Node1&#45;&gt;Node9</title>
<g id="a_edge13_Node000001_Node000009"><a xlink:title=" ">
<path fill="none" stroke="#63b8ff" d="M268.86,-165.34C299.65,-156.03 347.63,-141.51 380.15,-131.67"/>
<polygon fill="#63b8ff" stroke="#63b8ff" points="380.94,-135.09 389.5,-128.84 378.91,-128.39 380.94,-135.09"/>
</a>
</g>
</g>
<!-- Node2&#45;&gt;Node3 -->
<g id="edge2_Node000002_Node000003" class="edge">
<title>Node2&#45;&gt;Node3</title>
<g id="a_edge2_Node000002_Node000003"><a xlink:title=" ">
<path fill="none" stroke="#63b8ff" d="M101.72,-110.25C87.05,-92.36 53.71,-51.72 34.46,-28.25"/>
<polygon fill="#63b8ff" stroke="#63b8ff" points="37.39,-26.31 28.34,-20.8 31.98,-30.75 37.39,-26.31"/>
</a>
</g>
</g>
<!-- Node2&#45;&gt;Node4 -->
<g id="edge3_Node000002_Node000004" class="edge">
<title>Node2&#45;&gt;Node4</title>
<g id="a_edge3_Node000002_Node000004"><a xlink:title=" ">
<path fill="none" stroke="#63b8ff" d="M109.95,-110.14C111.69,-97.08 116.35,-72.51 128,-55.25 135.88,-43.57 147.75,-33.49 158.54,-25.88"/>
<polygon fill="#63b8ff" stroke="#63b8ff" points="160.34,-28.89 166.74,-20.44 156.47,-23.05 160.34,-28.89"/>
</a>
</g>
</g>
<!-- Node2&#45;&gt;Node5 -->
<g id="edge4_Node000002_Node000005" class="edge">
<title>Node2&#45;&gt;Node5</title>
<g id="a_edge4_Node000002_Node000005"><a xlink:title=" ">
<path fill="none" stroke="#63b8ff" d="M121.72,-110.09C132.71,-102.29 148.84,-90.84 161.93,-81.54"/>
<polygon fill="#63b8ff" stroke="#63b8ff" points="163.85,-84.47 169.98,-75.83 159.8,-78.76 163.85,-84.47"/>
</a>
</g>
</g>
<!-- Node2&#45;&gt;Node6 -->
<g id="edge9_Node000002_Node000006" class="edge">
<title>Node2&#45;&gt;Node6</title>
<g id="a_edge9_Node000002_Node000006"><a xlink:title=" ">
<path fill="none" stroke="#63b8ff" d="M105.9,-110.32C102.83,-101.38 98.15,-87.1 95,-74.5 91.35,-59.89 88.24,-43.14 86.11,-30.47"/>
<polygon fill="#63b8ff" stroke="#63b8ff" points="89.6,-30.18 84.55,-20.87 82.69,-31.3 89.6,-30.18"/>
</a>
</g>
</g>
<!-- Node5&#45;&gt;Node3 -->
<g id="edge5_Node000005_Node000003" class="edge">
<title>Node5&#45;&gt;Node3</title>
<g id="a_edge5_Node000005_Node000003"><a xlink:title=" ">
<path fill="none" stroke="#63b8ff" d="M156.18,-54.84C127.01,-45.37 81.28,-30.52 50.97,-20.68"/>
<polygon fill="#63b8ff" stroke="#63b8ff" points="52.21,-17.4 41.62,-17.65 50.05,-24.06 52.21,-17.4"/>
</a>
</g>
</g>
<!-- Node5&#45;&gt;Node4 -->
<g id="edge6_Node000005_Node000004" class="edge">
<title>Node5&#45;&gt;Node4</title>
<g id="a_edge6_Node000005_Node000004"><a xlink:title=" ">
<path fill="none" stroke="#63b8ff" d="M184,-55.08C184,-48.57 184,-39.42 184,-31.12"/>
<polygon fill="#63b8ff" stroke="#63b8ff" points="187.5,-31.12 184,-21.12 180.5,-31.12 187.5,-31.12"/>
</a>
</g>
</g>
<!-- Node5&#45;&gt;Node6 -->
<g id="edge7_Node000005_Node000006" class="edge">
<title>Node5&#45;&gt;Node6</title>
<g id="a_edge7_Node000005_Node000006"><a xlink:title=" ">
<path fill="none" stroke="#63b8ff" d="M166.87,-54.84C151.34,-46.66 128.2,-34.46 110.16,-24.94"/>
<polygon fill="#63b8ff" stroke="#63b8ff" points="112.03,-21.98 101.56,-20.41 108.77,-28.17 112.03,-21.98"/>
</a>
</g>
</g>
<!-- Node5&#45;&gt;Node7 -->
<g id="edge8_Node000005_Node000007" class="edge">
<title>Node5&#45;&gt;Node7</title>
<g id="a_edge8_Node000005_Node000007"><a xlink:title=" ">
<path fill="none" stroke="#63b8ff" d="M199.27,-54.84C212.84,-46.81 232.95,-34.91 248.9,-25.48"/>
<polygon fill="#63b8ff" stroke="#63b8ff" points="250.53,-28.58 257.36,-20.47 246.97,-22.55 250.53,-28.58"/>
</a>
</g>
</g>
</g>
</svg>
