<?xml version="1.0" encoding="UTF-8" standalone="no"?>
<!DOCTYPE svg PUBLIC "-//W3C//DTD SVG 1.1//EN"
 "http://www.w3.org/Graphics/SVG/1.1/DTD/svg11.dtd">
<!-- Generated by graphviz version 14.0.0 (20250921.2048)
 -->
<!-- Title: src/wfc/wfc.h Pages: 1 -->
<!--zoomable 94 -->

<svg id="main" version="1.1" xmlns="http://www.w3.org/2000/svg" xmlns:xlink="http://www.w3.org/1999/xlink" xml:space="preserve" onload="init(evt)">

<style type="text/css"><![CDATA[
.node, .edge {opacity: 0.7;}
.node.selected, .edge.selected {opacity: 1;}
.edge:hover path { stroke: red; }
.edge:hover polygon { stroke: red; fill: red; }
]]></style>

<defs>
  <circle id="rim" cx="0" cy="0" r="7"/>
  <circle id="rim2" cx="0" cy="0" r="3.5"/>
  <g id="zoomPlus">
    <use xlink:href="#rim" fill="#404040"><set attributeName="fill" to="#808080" begin="zoomplus.mouseover" end="zoomplus.mouseout"/></use>
    <path d="M-4,0h8M0,-4v8" fill="none" stroke="white" stroke-width="1.5" pointer-events="none"/>
  </g>
  <g id="zoomMin">
    <use xlink:href="#rim" fill="#404040"><set attributeName="fill" to="#808080" begin="zoomminus.mouseover" end="zoomminus.mouseout"/></use>
    <path d="M-4,0h8" fill="none" stroke="white" stroke-width="1.5" pointer-events="none"/>
  </g>
  <g id="arrowUp" transform="translate(30 24)">
    <use xlink:href="#rim"/>
    <path pointer-events="none" fill="none" stroke="white" stroke-width="1.5" d="M0,-3.0v7 M-2.5,-0.5L0,-3.0L2.5,-0.5"/>
  </g>
  <g id="arrowRight" transform="rotate(90) translate(36 -43)">
    <use xlink:href="#rim"/>
    <path pointer-events="none" fill="none" stroke="white" stroke-width="1.5" d="M0,-3.0v7 M-2.5,-0.5L0,-3.0L2.5,-0.5"/>
  </g>
  <g id="arrowDown" transform="rotate(180) translate(-30 -48)">
    <use xlink:href="#rim"/>
    <path pointer-events="none" fill="none" stroke="white" stroke-width="1.5" d="M0,-3.0v7 M-2.5,-0.5L0,-3.0L2.5,-0.5"/>
  </g>
  <g id="arrowLeft" transform="rotate(270) translate(-36 17)">
    <use xlink:href="#rim"/>
    <path pointer-events="none" fill="none" stroke="white" stroke-width="1.5" d="M0,-3.0v7 M-2.5,-0.5L0,-3.0L2.5,-0.5"/>
  </g>
  <g id="resetDef">
    <use xlink:href="#rim2" fill="#404040"><set attributeName="fill" to="#808080" begin="reset.mouseover" end="reset.mouseout"/></use>
  </g>
</defs>
<script type="application/ecmascript">
var viewWidth = 1657;
var viewHeight = 94;
var sectionId = 'dynsection-1';
</script>
<script type="application/ecmascript" xlink:href="../../svg.min.js"/>
<svg id="graph" class="graph">
<g id="viewport">
<title>src/wfc/wfc.h</title>
<!-- Node1 -->
<g id="Node000001" class="node">
<title>Node1</title>
<g id="a_Node000001"><a xlink:title=" ">
<polygon fill="#999999" stroke="#666666" points="917.12,-85.75 841.88,-85.75 841.88,-66.5 917.12,-66.5 917.12,-85.75"/>
<text xml:space="preserve" text-anchor="middle" x="879.5" y="-72.25" font-family="Helvetica,sans-Serif" font-size="10.00">src/wfc/wfc.h</text>
</a>
</g>
</g>
<!-- Node2 -->
<g id="Node000002" class="node">
<title>Node2</title>
<g id="a_Node000002"><a xlink:href="../../d1/d8e/compute___vbare__loc_8c.html" target="_top" xlink:title=" ">
<polygon fill="white" stroke="#666666" points="127,-30.5 0,-30.5 0,0 127,0 127,-30.5"/>
<text xml:space="preserve" text-anchor="start" x="8" y="-17" font-family="Helvetica,sans-Serif" font-size="10.00">src/dvloc/compute_Vbare</text>
<text xml:space="preserve" text-anchor="middle" x="63.5" y="-5.75" font-family="Helvetica,sans-Serif" font-size="10.00">_loc.c</text>
</a>
</g>
</g>
<!-- Node1&#45;&gt;Node2 -->
<g id="edge1_Node000001_Node000002" class="edge">
<title>Node1&#45;&gt;Node2</title>
<g id="a_edge1_Node000001_Node000002"><a xlink:title=" ">
<path fill="none" stroke="#63b8ff" d="M830.09,-74.47C710.43,-72.39 395.72,-63.9 135.5,-30.5 132.85,-30.16 130.14,-29.78 127.42,-29.37"/>
<polygon fill="#63b8ff" stroke="#63b8ff" points="829.82,-77.97 839.88,-74.63 829.94,-70.97 829.82,-77.97"/>
</a>
</g>
</g>
<!-- Node3 -->
<g id="Node000003" class="node">
<title>Node3</title>
<g id="a_Node000003"><a xlink:href="../../d1/d94/d_vpot__add__long__range_8c.html" target="_top" xlink:title=" ">
<polygon fill="white" stroke="#666666" points="250.12,-30.5 144.88,-30.5 144.88,0 250.12,0 250.12,-30.5"/>
<text xml:space="preserve" text-anchor="start" x="152.88" y="-17" font-family="Helvetica,sans-Serif" font-size="10.00">src/dvloc/dVpot_add</text>
<text xml:space="preserve" text-anchor="middle" x="197.5" y="-5.75" font-family="Helvetica,sans-Serif" font-size="10.00">_long_range.c</text>
</a>
</g>
</g>
<!-- Node1&#45;&gt;Node3 -->
<g id="edge2_Node000001_Node000003" class="edge">
<title>Node1&#45;&gt;Node3</title>
<g id="a_edge2_Node000001_Node000003"><a xlink:title=" ">
<path fill="none" stroke="#63b8ff" d="M830.34,-74.16C725.09,-71.52 470.38,-62.13 259.5,-30.5 256.55,-30.06 253.53,-29.55 250.5,-29"/>
<polygon fill="#63b8ff" stroke="#63b8ff" points="829.94,-77.65 840.02,-74.39 830.11,-70.65 829.94,-77.65"/>
</a>
</g>
</g>
<!-- Node4 -->
<g id="Node000004" class="node">
<title>Node4</title>
<g id="a_Node000004"><a xlink:href="../../d9/db9/vlocg__table_8c.html" target="_top" xlink:title=" ">
<polygon fill="white" stroke="#666666" points="384.75,-24.88 268.25,-24.88 268.25,-5.63 384.75,-5.63 384.75,-24.88"/>
<text xml:space="preserve" text-anchor="middle" x="326.5" y="-11.38" font-family="Helvetica,sans-Serif" font-size="10.00">src/dvloc/vlocg_table.c</text>
</a>
</g>
</g>
<!-- Node1&#45;&gt;Node4 -->
<g id="edge3_Node000001_Node000004" class="edge">
<title>Node1&#45;&gt;Node4</title>
<g id="a_edge3_Node000001_Node000004"><a xlink:title=" ">
<path fill="none" stroke="#63b8ff" d="M830.12,-72.46C742.17,-67.3 552.79,-54.29 394.5,-30.5 385.2,-29.1 375.25,-27.23 365.91,-25.31"/>
<polygon fill="#63b8ff" stroke="#63b8ff" points="829.89,-75.95 840.08,-73.04 830.3,-68.96 829.89,-75.95"/>
</a>
</g>
</g>
<!-- Node5 -->
<g id="Node000005" class="node">
<title>Node5</title>
<g id="a_Node000005"><a xlink:href="../../da/dc2/interpolation__driver_8c.html" target="_top" xlink:title=" ">
<polygon fill="white" stroke="#666666" points="543.75,-30.5 403.25,-30.5 403.25,0 543.75,0 543.75,-30.5"/>
<text xml:space="preserve" text-anchor="start" x="411.25" y="-17" font-family="Helvetica,sans-Serif" font-size="10.00">src/interpolation/interpolation</text>
<text xml:space="preserve" text-anchor="middle" x="473.5" y="-5.75" font-family="Helvetica,sans-Serif" font-size="10.00">_driver.c</text>
</a>
</g>
</g>
<!-- Node1&#45;&gt;Node5 -->
<g id="edge4_Node000001_Node000005" class="edge">
<title>Node1&#45;&gt;Node5</title>
<g id="a_edge4_Node000001_Node000005"><a xlink:title=" ">
<path fill="none" stroke="#63b8ff" d="M830.31,-69.08C766.24,-61.05 650.79,-46.06 552.5,-30.5 549.75,-30.06 546.94,-29.61 544.11,-29.14"/>
<polygon fill="#63b8ff" stroke="#63b8ff" points="829.8,-72.54 840.16,-70.31 830.67,-65.6 829.8,-72.54"/>
</a>
</g>
</g>
<!-- Node6 -->
<g id="Node000006" class="node">
<title>Node6</title>
<g id="a_Node000006"><a xlink:href="../../d6/db8/_vbare__nloc_8c.html" target="_top" xlink:title=" ">
<polygon fill="white" stroke="#666666" points="683,-24.88 562,-24.88 562,-5.63 683,-5.63 683,-24.88"/>
<text xml:space="preserve" text-anchor="middle" x="622.5" y="-11.38" font-family="Helvetica,sans-Serif" font-size="10.00">src/nonloc/Vbare_nloc.c</text>
</a>
</g>
</g>
<!-- Node1&#45;&gt;Node6 -->
<g id="edge5_Node000001_Node000006" class="edge">
<title>Node1&#45;&gt;Node6</title>
<g id="a_edge5_Node000001_Node000006"><a xlink:title=" ">
<path fill="none" stroke="#63b8ff" d="M830.65,-63.93C781.81,-52.75 707.63,-35.75 662.27,-25.36"/>
<polygon fill="#63b8ff" stroke="#63b8ff" points="829.57,-67.28 840.1,-66.1 831.14,-60.46 829.57,-67.28"/>
</a>
</g>
</g>
<!-- Node7 -->
<g id="Node000007" class="node">
<title>Node7</title>
<g id="a_Node000007"><a xlink:href="../../dd/de7/elec__reps_8c.html" target="_top" xlink:title=" ">
<polygon fill="white" stroke="#666666" points="805.75,-30.5 701.25,-30.5 701.25,0 805.75,0 805.75,-30.5"/>
<text xml:space="preserve" text-anchor="start" x="709.25" y="-17" font-family="Helvetica,sans-Serif" font-size="10.00">src/symmetries/elec</text>
<text xml:space="preserve" text-anchor="middle" x="753.5" y="-5.75" font-family="Helvetica,sans-Serif" font-size="10.00">_reps.c</text>
</a>
</g>
</g>
<!-- Node1&#45;&gt;Node7 -->
<g id="edge6_Node000001_Node000007" class="edge">
<title>Node1&#45;&gt;Node7</title>
<g id="a_edge6_Node000001_Node000007"><a xlink:title=" ">
<path fill="none" stroke="#63b8ff" d="M849.66,-61.18C830.17,-52.08 804.76,-40.2 784.95,-30.94"/>
<polygon fill="#63b8ff" stroke="#63b8ff" points="848.18,-64.35 858.72,-65.41 851.14,-58.01 848.18,-64.35"/>
</a>
</g>
</g>
<!-- Node8 -->
<g id="Node000008" class="node">
<title>Node8</title>
<g id="a_Node000008"><a xlink:href="../../d7/db8/rotate__dvscf_8c.html" target="_top" xlink:title=" ">
<polygon fill="white" stroke="#666666" points="935.12,-30.5 823.88,-30.5 823.88,0 935.12,0 935.12,-30.5"/>
<text xml:space="preserve" text-anchor="start" x="831.88" y="-17" font-family="Helvetica,sans-Serif" font-size="10.00">src/symmetries/rotate</text>
<text xml:space="preserve" text-anchor="middle" x="879.5" y="-5.75" font-family="Helvetica,sans-Serif" font-size="10.00">_dvscf.c</text>
</a>
</g>
</g>
<!-- Node1&#45;&gt;Node8 -->
<g id="edge7_Node000001_Node000008" class="edge">
<title>Node1&#45;&gt;Node8</title>
<g id="a_edge7_Node000001_Node000008"><a xlink:title=" ">
<path fill="none" stroke="#63b8ff" d="M879.5,-54.92C879.5,-46.99 879.5,-38.06 879.5,-30.78"/>
<polygon fill="#63b8ff" stroke="#63b8ff" points="876,-54.67 879.5,-64.67 883,-54.67 876,-54.67"/>
</a>
</g>
</g>
<!-- Node9 -->
<g id="Node000009" class="node">
<title>Node9</title>
<g id="a_Node000009"><a xlink:href="../../d8/dc1/gen__fftbox_8c.html" target="_top" xlink:title=" ">
<polygon fill="white" stroke="#666666" points="1058.12,-24.88 952.88,-24.88 952.88,-5.63 1058.12,-5.63 1058.12,-24.88"/>
<text xml:space="preserve" text-anchor="middle" x="1005.5" y="-11.38" font-family="Helvetica,sans-Serif" font-size="10.00">src/wfc/gen_fftbox.c</text>
</a>
</g>
</g>
<!-- Node1&#45;&gt;Node9 -->
<g id="edge8_Node000001_Node000009" class="edge">
<title>Node1&#45;&gt;Node9</title>
<g id="a_edge8_Node000001_Node000009"><a xlink:title=" ">
<path fill="none" stroke="#63b8ff" d="M909.15,-61.27C932.98,-50.13 965.75,-34.82 986.27,-25.23"/>
<polygon fill="#63b8ff" stroke="#63b8ff" points="907.86,-58.01 900.28,-65.41 910.82,-64.35 907.86,-58.01"/>
</a>
</g>
</g>
<!-- Node10 -->
<g id="Node000010" class="node">
<title>Node10</title>
<g id="a_Node000010"><a xlink:href="../../d7/dd7/rotate___gvecs_8c.html" target="_top" xlink:title=" ">
<polygon fill="white" stroke="#666666" points="1194.5,-24.88 1076.5,-24.88 1076.5,-5.63 1194.5,-5.63 1194.5,-24.88"/>
<text xml:space="preserve" text-anchor="middle" x="1135.5" y="-11.38" font-family="Helvetica,sans-Serif" font-size="10.00">src/wfc/rotate_Gvecs.c</text>
</a>
</g>
</g>
<!-- Node1&#45;&gt;Node10 -->
<g id="edge9_Node000001_Node000010" class="edge">
<title>Node1&#45;&gt;Node10</title>
<g id="a_edge9_Node000001_Node000010"><a xlink:title=" ">
<path fill="none" stroke="#63b8ff" d="M928.75,-63.8C977.44,-52.6 1050.99,-35.69 1095.98,-25.34"/>
<polygon fill="#63b8ff" stroke="#63b8ff" points="927.99,-60.38 919.02,-66.04 929.55,-67.2 927.99,-60.38"/>
</a>
</g>
</g>
<!-- Node11 -->
<g id="Node000011" class="node">
<title>Node11</title>
<g id="a_Node000011"><a xlink:href="../../d8/dfb/sortpw_8c.html" target="_top" xlink:title=" ">
<polygon fill="white" stroke="#666666" points="1300.12,-24.88 1212.88,-24.88 1212.88,-5.63 1300.12,-5.63 1300.12,-24.88"/>
<text xml:space="preserve" text-anchor="middle" x="1256.5" y="-11.38" font-family="Helvetica,sans-Serif" font-size="10.00">src/wfc/sortpw.c</text>
</a>
</g>
</g>
<!-- Node1&#45;&gt;Node11 -->
<g id="edge10_Node000001_Node000011" class="edge">
<title>Node1&#45;&gt;Node11</title>
<g id="a_edge10_Node000001_Node000011"><a xlink:title=" ">
<path fill="none" stroke="#63b8ff" d="M928.47,-70.32C992.2,-63.63 1106.84,-50.07 1203.5,-30.5 1210.6,-29.06 1218.15,-27.22 1225.27,-25.35"/>
<polygon fill="#63b8ff" stroke="#63b8ff" points="928.27,-66.82 918.68,-71.34 928.99,-73.79 928.27,-66.82"/>
</a>
</g>
</g>
<!-- Node12 -->
<g id="Node000012" class="node">
<title>Node12</title>
<g id="a_Node000012"><a xlink:href="../../dc/d77/su2mat_8c.html" target="_top" xlink:title=" ">
<polygon fill="white" stroke="#666666" points="1410.38,-24.88 1318.62,-24.88 1318.62,-5.63 1410.38,-5.63 1410.38,-24.88"/>
<text xml:space="preserve" text-anchor="middle" x="1364.5" y="-11.38" font-family="Helvetica,sans-Serif" font-size="10.00">src/wfc/su2mat.c</text>
</a>
</g>
</g>
<!-- Node1&#45;&gt;Node12 -->
<g id="edge11_Node000001_Node000012" class="edge">
<title>Node1&#45;&gt;Node12</title>
<g id="a_edge11_Node000001_Node000012"><a xlink:title=" ">
<path fill="none" stroke="#63b8ff" d="M928.66,-72.43C1008.89,-67.5 1172.75,-55.17 1309.5,-30.5 1317.07,-29.13 1325.14,-27.28 1332.69,-25.36"/>
<polygon fill="#63b8ff" stroke="#63b8ff" points="928.73,-68.92 918.95,-73.01 929.15,-75.91 928.73,-68.92"/>
</a>
</g>
</g>
<!-- Node13 -->
<g id="Node000013" class="node">
<title>Node13</title>
<g id="a_Node000013"><a xlink:href="../../dd/d51/su2rotate_8c.html" target="_top" xlink:title=" ">
<polygon fill="white" stroke="#666666" points="1528.5,-24.88 1428.5,-24.88 1428.5,-5.63 1528.5,-5.63 1528.5,-24.88"/>
<text xml:space="preserve" text-anchor="middle" x="1478.5" y="-11.38" font-family="Helvetica,sans-Serif" font-size="10.00">src/wfc/su2rotate.c</text>
</a>
</g>
</g>
<!-- Node1&#45;&gt;Node13 -->
<g id="edge12_Node000001_Node000013" class="edge">
<title>Node1&#45;&gt;Node13</title>
<g id="a_edge12_Node000001_Node000013"><a xlink:title=" ">
<path fill="none" stroke="#63b8ff" d="M928.66,-73.6C1023.93,-70.1 1240.08,-59.4 1419.5,-30.5 1427.72,-29.18 1436.48,-27.31 1444.67,-25.37"/>
<polygon fill="#63b8ff" stroke="#63b8ff" points="928.77,-70.1 918.9,-73.95 929.02,-77.09 928.77,-70.1"/>
</a>
</g>
</g>
<!-- Node14 -->
<g id="Node000014" class="node">
<title>Node14</title>
<g id="a_Node000014"><a xlink:href="../../db/d7a/trans__wfc_8c.html" target="_top" xlink:title=" ">
<polygon fill="white" stroke="#666666" points="1648.62,-24.88 1546.38,-24.88 1546.38,-5.63 1648.62,-5.63 1648.62,-24.88"/>
<text xml:space="preserve" text-anchor="middle" x="1597.5" y="-11.38" font-family="Helvetica,sans-Serif" font-size="10.00">src/wfc/trans_wfc.c</text>
</a>
</g>
</g>
<!-- Node1&#45;&gt;Node14 -->
<g id="edge13_Node000001_Node000014" class="edge">
<title>Node1&#45;&gt;Node14</title>
<g id="a_edge13_Node000001_Node000014"><a xlink:title=" ">
<path fill="none" stroke="#63b8ff" d="M928.93,-74.56C1038.92,-72.69 1311.95,-64.69 1537.5,-30.5 1545.97,-29.22 1555,-27.34 1563.42,-25.37"/>
<polygon fill="#63b8ff" stroke="#63b8ff" points="929.03,-71.06 919.08,-74.72 929.14,-78.06 929.03,-71.06"/>
</a>
</g>
</g>
</g>
</svg>

<g id="navigator" transform="translate(0 0)" fill="#404254">
  <rect fill="#f2f5e9" fill-opacity="0.5" stroke="#606060" stroke-width=".5" x="0" y="0" width="60" height="60"/>
  <use id="zoomplus" xlink:href="#zoomPlus" x="17" y="9" onmousedown="handleZoom(evt,'in')"/>
  <use id="zoomminus" xlink:href="#zoomMin" x="42" y="9" onmousedown="handleZoom(evt,'out')"/>
  <use id="reset" xlink:href="#resetDef" x="30" y="36" onmousedown="handleReset()"/>
   <use id="arrowup" xlink:href="#arrowUp" x="0" y="0" onmousedown="handlePan(0,-1)"/>
  <use id="arrowright" xlink:href="#arrowRight" x="0" y="0" onmousedown="handlePan(1,0)"/>
  <use id="arrowdown" xlink:href="#arrowDown" x="0" y="0" onmousedown="handlePan(0,1)"/>
  <use id="arrowleft" xlink:href="#arrowLeft" x="0" y="0" onmousedown="handlePan(-1,0)"/>
</g>
<svg viewBox="0 0 15 15" width="100%" height="30px" preserveAspectRatio="xMaxYMin meet">
 <g id="arrow_out" transform="scale(0.3 0.3)">
  <a xlink:href="wfc_8h__dep__incl_org.svg" target="_base">
   <rect id="button" ry="5" rx="5" y="6" x="6" height="38" width="38"
        fill="#f2f5e9" fill-opacity="0.5" stroke="#606060" stroke-width="1.0"/>
   <path id="arrow"
     d="M 11.500037,31.436501 C 11.940474,20.09759 22.043105,11.32322 32.158766,21.979434 L 37.068811,17.246167 C 37.068811,17.246167 37.088388,32 37.088388,32 L 22.160133,31.978069 C 22.160133,31.978069 26.997745,27.140456 26.997745,27.140456 C 18.528582,18.264221 13.291696,25.230495 11.500037,31.436501 z"
     style="fill:#404040;"/>
  </a>
 </g>
</svg>

<style type='text/css'>
<![CDATA[
[data-mouse-over-selected='false'] { opacity: 0.7; }
[data-mouse-over-selected='true']  { opacity: 1.0; }
]]>
</style>
<script type="application/ecmascript"><![CDATA[
document.addEventListener('DOMContentLoaded', (event) => {
  highlightEdges();
  highlightAdjacentNodes();
});
]]></script>
</svg>
