<?xml version="1.0" encoding="UTF-8" standalone="no"?>
<!DOCTYPE svg PUBLIC "-//W3C//DTD SVG 1.1//EN"
 "http://www.w3.org/Graphics/SVG/1.1/DTD/svg11.dtd">
<!-- Generated by graphviz version 14.0.0 (20250921.2048)
 -->
<!-- Title: matmul_float Pages: 1 -->
<svg width="742pt" height="140pt"
 viewBox="0.00 0.00 742.00 140.00" xmlns="http://www.w3.org/2000/svg" xmlns:xlink="http://www.w3.org/1999/xlink">
<g id="graph0" class="graph" transform="scale(1 1) rotate(0) translate(4 136.25)">
<title>matmul_float</title>
<!-- Node1 -->
<g id="Node000001" class="node">
<title>Node1</title>
<g id="a_Node000001"><a xlink:title=" ">
<polygon fill="#999999" stroke="#666666" points="733.5,-94.25 661.25,-94.25 661.25,-75 733.5,-75 733.5,-94.25"/>
<text xml:space="preserve" text-anchor="middle" x="697.38" y="-80.75" font-family="Helvetica,sans-Serif" font-size="10.00">matmul_float</text>
</a>
</g>
</g>
<!-- Node2 -->
<g id="Node000002" class="node">
<title>Node2</title>
<g id="a_Node000002"><a xlink:href="../../da/d77/get__save__data_8c.html#ab497305a989dd1713ba4c2b4d0f95bd0" target="_top" xlink:title=" ">
<polygon fill="white" stroke="#666666" points="625.25,-94.25 493.75,-94.25 493.75,-75 625.25,-75 625.25,-94.25"/>
<text xml:space="preserve" text-anchor="middle" x="559.5" y="-80.75" font-family="Helvetica,sans-Serif" font-size="10.00">read_and_alloc_save_data</text>
</a>
</g>
</g>
<!-- Node1&#45;&gt;Node2 -->
<g id="edge1_Node000001_Node000002" class="edge">
<title>Node1&#45;&gt;Node2</title>
<g id="a_edge1_Node000001_Node000002"><a xlink:title=" ">
<path fill="none" stroke="#63b8ff" d="M649.66,-84.62C641.93,-84.62 633.78,-84.62 625.69,-84.62"/>
<polygon fill="#63b8ff" stroke="#63b8ff" points="649.52,-88.13 659.52,-84.63 649.52,-81.13 649.52,-88.13"/>
</a>
</g>
</g>
<!-- Node5 -->
<g id="Node000005" class="node">
<title>Node5</title>
<g id="a_Node000005"><a xlink:href="../../dc/d55/rotate__eig__vecs_8c.html#a6c1073c89757bc422e6720d8348c426a" target="_top" xlink:title=" ">
<polygon fill="white" stroke="#666666" points="315.75,-132.25 230.75,-132.25 230.75,-113 315.75,-113 315.75,-132.25"/>
<text xml:space="preserve" text-anchor="middle" x="273.25" y="-118.75" font-family="Helvetica,sans-Serif" font-size="10.00">rotate_eig_vecs</text>
</a>
</g>
</g>
<!-- Node1&#45;&gt;Node5 -->
<g id="edge4_Node000001_Node000005" class="edge">
<title>Node1&#45;&gt;Node5</title>
<g id="a_edge4_Node000001_Node000005"><a xlink:title=" ">
<path fill="none" stroke="#63b8ff" d="M653.51,-97.6C644.27,-99.97 634.49,-102.16 625.25,-103.62 514.65,-121.2 382.26,-123.34 316.15,-123.14"/>
<polygon fill="#63b8ff" stroke="#63b8ff" points="654.25,-101.03 663,-95.05 652.43,-94.27 654.25,-101.03"/>
</a>
</g>
</g>
<!-- Node7 -->
<g id="Node000007" class="node">
<title>Node7</title>
<g id="a_Node000007"><a xlink:href="../../d7/dd7/rotate___gvecs_8c.html#a3777530f5d55d899b796fb4e462b512f" target="_top" xlink:title=" ">
<polygon fill="white" stroke="#666666" points="594.12,-56.25 524.88,-56.25 524.88,-37 594.12,-37 594.12,-56.25"/>
<text xml:space="preserve" text-anchor="middle" x="559.5" y="-42.75" font-family="Helvetica,sans-Serif" font-size="10.00">rotateGvecs</text>
</a>
</g>
</g>
<!-- Node1&#45;&gt;Node7 -->
<g id="edge8_Node000001_Node000007" class="edge">
<title>Node1&#45;&gt;Node7</title>
<g id="a_edge8_Node000001_Node000007"><a xlink:title=" ">
<path fill="none" stroke="#63b8ff" d="M650,-71.65C631.71,-66.54 611.09,-60.77 594.26,-56.07"/>
<polygon fill="#63b8ff" stroke="#63b8ff" points="649,-75.01 659.57,-74.33 650.88,-68.27 649,-75.01"/>
</a>
</g>
</g>
<!-- Node3 -->
<g id="Node000003" class="node">
<title>Node3</title>
<g id="a_Node000003"><a xlink:href="../../da/d2e/elph__driver_8c.html#ad9f405d41cf090d652dbe1307700665f" target="_top" xlink:title=" ">
<polygon fill="white" stroke="#666666" points="153.5,-94.25 90.25,-94.25 90.25,-75 153.5,-75 153.5,-94.25"/>
<text xml:space="preserve" text-anchor="middle" x="121.88" y="-80.75" font-family="Helvetica,sans-Serif" font-size="10.00">elph_driver</text>
</a>
</g>
</g>
<!-- Node2&#45;&gt;Node3 -->
<g id="edge2_Node000002_Node000003" class="edge">
<title>Node2&#45;&gt;Node3</title>
<g id="a_edge2_Node000002_Node000003"><a xlink:title=" ">
<path fill="none" stroke="#63b8ff" d="M482.06,-84.62C384.91,-84.62 221.69,-84.62 153.87,-84.62"/>
<polygon fill="#63b8ff" stroke="#63b8ff" points="481.77,-88.13 491.77,-84.63 481.77,-81.13 481.77,-88.13"/>
</a>
</g>
</g>
<!-- Node4 -->
<g id="Node000004" class="node">
<title>Node4</title>
<g id="a_Node000004"><a xlink:href="../../d3/dd5/main__elph_c_8c.html#a0ddf1224851353fc92bfbff6f499fa97" target="_top" xlink:title="Main program entry point.">
<polygon fill="white" stroke="#666666" points="37,-112.25 0,-112.25 0,-93 37,-93 37,-112.25"/>
<text xml:space="preserve" text-anchor="middle" x="18.5" y="-98.75" font-family="Helvetica,sans-Serif" font-size="10.00">main</text>
</a>
</g>
</g>
<!-- Node3&#45;&gt;Node4 -->
<g id="edge3_Node000003_Node000004" class="edge">
<title>Node3&#45;&gt;Node4</title>
<g id="a_edge3_Node000003_Node000004"><a xlink:title=" ">
<path fill="none" stroke="#63b8ff" d="M78.61,-92.13C64.16,-94.69 48.77,-97.43 37.32,-99.46"/>
<polygon fill="#63b8ff" stroke="#63b8ff" points="79.18,-95.58 88.42,-90.39 77.96,-88.69 79.18,-95.58"/>
</a>
</g>
</g>
<!-- Node5&#45;&gt;Node3 -->
<g id="edge5_Node000005_Node000003" class="edge">
<title>Node5&#45;&gt;Node3</title>
<g id="a_edge5_Node000005_Node000003"><a xlink:title=" ">
<path fill="none" stroke="#63b8ff" d="M221.52,-109.72C199.01,-103.99 173.25,-97.44 153.69,-92.47"/>
<polygon fill="#63b8ff" stroke="#63b8ff" points="220.59,-113.09 231.15,-112.17 222.32,-106.31 220.59,-113.09"/>
</a>
</g>
</g>
<!-- Node6 -->
<g id="Node000006" class="node">
<title>Node6</title>
<g id="a_Node000006"><a xlink:href="../../da/dc2/interpolation__driver_8c.html#aecc42ae41d168b486807b337fcf5b3de" target="_top" xlink:title=" ">
<polygon fill="white" stroke="#666666" points="170.75,-131.25 73,-131.25 73,-112 170.75,-112 170.75,-131.25"/>
<text xml:space="preserve" text-anchor="middle" x="121.88" y="-117.75" font-family="Helvetica,sans-Serif" font-size="10.00">interpolation_driver</text>
</a>
</g>
</g>
<!-- Node5&#45;&gt;Node6 -->
<g id="edge6_Node000005_Node000006" class="edge">
<title>Node5&#45;&gt;Node6</title>
<g id="a_edge6_Node000005_Node000006"><a xlink:title=" ">
<path fill="none" stroke="#63b8ff" d="M219.47,-122.27C203.73,-122.17 186.56,-122.05 171.12,-121.95"/>
<polygon fill="#63b8ff" stroke="#63b8ff" points="219.1,-125.77 229.13,-122.34 219.15,-118.77 219.1,-125.77"/>
</a>
</g>
</g>
<!-- Node6&#45;&gt;Node4 -->
<g id="edge7_Node000006_Node000004" class="edge">
<title>Node6&#45;&gt;Node4</title>
<g id="a_edge7_Node000006_Node000004"><a xlink:title=" ">
<path fill="none" stroke="#63b8ff" d="M61.33,-110.46C52.55,-108.82 44.14,-107.24 37.19,-105.94"/>
<polygon fill="#63b8ff" stroke="#63b8ff" points="60.6,-113.89 71.08,-112.29 61.89,-107.01 60.6,-113.89"/>
</a>
</g>
</g>
<!-- Node8 -->
<g id="Node000008" class="node">
<title>Node8</title>
<g id="a_Node000008"><a xlink:href="../../dd/de7/elec__reps_8c.html#a9ad01d68a7d4f87c39a98bf13778cd64" target="_top" xlink:title=" ">
<polygon fill="white" stroke="#666666" points="457.75,-19.25 375.75,-19.25 375.75,0 457.75,0 457.75,-19.25"/>
<text xml:space="preserve" text-anchor="middle" x="416.75" y="-5.75" font-family="Helvetica,sans-Serif" font-size="10.00">electronic_reps</text>
</a>
</g>
</g>
<!-- Node7&#45;&gt;Node8 -->
<g id="edge9_Node000007_Node000008" class="edge">
<title>Node7&#45;&gt;Node8</title>
<g id="a_edge9_Node000007_Node000008"><a xlink:title=" ">
<path fill="none" stroke="#63b8ff" d="M513.36,-34.76C494.95,-29.92 473.89,-24.38 456.23,-19.74"/>
<polygon fill="#63b8ff" stroke="#63b8ff" points="512.4,-38.13 522.96,-37.28 514.18,-31.36 512.4,-38.13"/>
</a>
</g>
</g>
<!-- Node10 -->
<g id="Node000010" class="node">
<title>Node10</title>
<g id="a_Node000010"><a xlink:href="../../d1/d8e/compute___vbare__loc_8c.html#a5f1d51340a8457749225b05b612e4abe" target="_top" xlink:title=" ">
<polygon fill="white" stroke="#666666" points="445.38,-56.25 388.12,-56.25 388.12,-37 445.38,-37 445.38,-56.25"/>
<text xml:space="preserve" text-anchor="middle" x="416.75" y="-42.75" font-family="Helvetica,sans-Serif" font-size="10.00">elphLocal</text>
</a>
</g>
</g>
<!-- Node7&#45;&gt;Node10 -->
<g id="edge12_Node000007_Node000010" class="edge">
<title>Node7&#45;&gt;Node10</title>
<g id="a_edge12_Node000007_Node000010"><a xlink:title=" ">
<path fill="none" stroke="#63b8ff" d="M512.94,-46.62C490.84,-46.62 465.01,-46.62 445.83,-46.62"/>
<polygon fill="#63b8ff" stroke="#63b8ff" points="512.91,-50.13 522.91,-46.63 512.91,-43.13 512.91,-50.13"/>
</a>
</g>
</g>
<!-- Node9 -->
<g id="Node000009" class="node">
<title>Node9</title>
<g id="a_Node000009"><a xlink:href="../../d5/d9f/compute__dmats_8c.html#aceeb11551c1d6413e6d4b5cae9704493" target="_top" xlink:title=" ">
<polygon fill="white" stroke="#666666" points="339.75,-19.25 206.75,-19.25 206.75,0 339.75,0 339.75,-19.25"/>
<text xml:space="preserve" text-anchor="middle" x="273.25" y="-5.75" font-family="Helvetica,sans-Serif" font-size="10.00">compute_and_write_dmats</text>
</a>
</g>
</g>
<!-- Node8&#45;&gt;Node9 -->
<g id="edge10_Node000008_Node000009" class="edge">
<title>Node8&#45;&gt;Node9</title>
<g id="a_edge10_Node000008_Node000009"><a xlink:title=" ">
<path fill="none" stroke="#63b8ff" d="M364.1,-9.62C356.33,-9.62 348.24,-9.62 340.22,-9.62"/>
<polygon fill="#63b8ff" stroke="#63b8ff" points="364.07,-13.13 374.07,-9.63 364.07,-6.13 364.07,-13.13"/>
</a>
</g>
</g>
<!-- Node9&#45;&gt;Node3 -->
<g id="edge11_Node000009_Node000003" class="edge">
<title>Node9&#45;&gt;Node3</title>
<g id="a_edge11_Node000009_Node000003"><a xlink:title=" ">
<path fill="none" stroke="#63b8ff" d="M217.09,-23.35C213.54,-24.67 210.07,-26.09 206.75,-27.62 179.1,-40.39 150.51,-61.93 134.89,-74.56"/>
<polygon fill="#63b8ff" stroke="#63b8ff" points="218.08,-26.71 226.42,-20.18 215.82,-20.08 218.08,-26.71"/>
</a>
</g>
</g>
<!-- Node11 -->
<g id="Node000011" class="node">
<title>Node11</title>
<g id="a_Node000011"><a xlink:href="../../d5/dd2/compute__elph__matq_8c.html#ad32ab6f17a3745b7f82151d7f5b927f2" target="_top" xlink:title=" ">
<polygon fill="white" stroke="#666666" points="337.88,-56.25 208.62,-56.25 208.62,-37 337.88,-37 337.88,-56.25"/>
<text xml:space="preserve" text-anchor="middle" x="273.25" y="-42.75" font-family="Helvetica,sans-Serif" font-size="10.00">compute_and_write_elphq</text>
</a>
</g>
</g>
<!-- Node10&#45;&gt;Node11 -->
<g id="edge13_Node000010_Node000011" class="edge">
<title>Node10&#45;&gt;Node11</title>
<g id="a_edge13_Node000010_Node000011"><a xlink:title=" ">
<path fill="none" stroke="#63b8ff" d="M376.47,-46.62C364.59,-46.62 351.22,-46.62 338.16,-46.62"/>
<polygon fill="#63b8ff" stroke="#63b8ff" points="376.28,-50.13 386.28,-46.63 376.28,-43.13 376.28,-50.13"/>
</a>
</g>
</g>
<!-- Node11&#45;&gt;Node3 -->
<g id="edge14_Node000011_Node000003" class="edge">
<title>Node11&#45;&gt;Node3</title>
<g id="a_edge14_Node000011_Node000003"><a xlink:title=" ">
<path fill="none" stroke="#63b8ff" d="M221.52,-59.53C199.01,-65.26 173.25,-71.81 153.69,-76.78"/>
<polygon fill="#63b8ff" stroke="#63b8ff" points="222.32,-62.94 231.15,-57.08 220.59,-56.16 222.32,-62.94"/>
</a>
</g>
</g>
</g>
</svg>
