<?xml version="1.0" encoding="UTF-8" standalone="no"?>
<!DOCTYPE svg PUBLIC "-//W3C//DTD SVG 1.1//EN"
 "http://www.w3.org/Graphics/SVG/1.1/DTD/svg11.dtd">
<!-- Generated by graphviz version 14.0.0 (20250921.2048)
 -->
<!-- Title: get_gemmn_T Pages: 1 -->
<svg width="895pt" height="443pt"
 viewBox="0.00 0.00 895.00 443.00" xmlns="http://www.w3.org/2000/svg" xmlns:xlink="http://www.w3.org/1999/xlink">
<g id="graph0" class="graph" transform="scale(1 1) rotate(0) translate(4 439)">
<title>get_gemmn_T</title>
<!-- Node1 -->
<g id="Node000001" class="node">
<title>Node1</title>
<g id="a_Node000001"><a xlink:title=" ">
<polygon fill="#999999" stroke="#666666" points="886.75,-144 808.5,-144 808.5,-124.75 886.75,-124.75 886.75,-144"/>
<text xml:space="preserve" text-anchor="middle" x="847.62" y="-130.5" font-family="Helvetica,sans-Serif" font-size="10.00">get_gemmn_T</text>
</a>
</g>
</g>
<!-- Node2 -->
<g id="Node000002" class="node">
<title>Node2</title>
<g id="a_Node000002"><a xlink:href="../../dc/d50/blas_8c.html#a93d327b9e3c8bd925ff76d32df39809c" target="_top" xlink:title=" ">
<polygon fill="white" stroke="#666666" points="638.38,-200 558.62,-200 558.62,-180.75 638.38,-180.75 638.38,-200"/>
<text xml:space="preserve" text-anchor="middle" x="598.5" y="-186.5" font-family="Helvetica,sans-Serif" font-size="10.00">matmul_cmplx</text>
</a>
</g>
</g>
<!-- Node1&#45;&gt;Node2 -->
<g id="edge1_Node000001_Node000002" class="edge">
<title>Node1&#45;&gt;Node2</title>
<g id="a_edge1_Node000001_Node000002"><a xlink:title=" ">
<path fill="none" stroke="#63b8ff" d="M796.96,-145.63C750.33,-156.19 681.52,-171.79 638.66,-181.5"/>
<polygon fill="#63b8ff" stroke="#63b8ff" points="797.56,-149.08 806.54,-143.46 796.01,-142.25 797.56,-149.08"/>
</a>
</g>
</g>
<!-- Node20 -->
<g id="Node000020" class="node">
<title>Node20</title>
<g id="a_Node000020"><a xlink:href="../../dc/d50/blas_8c.html#afca62df4906b4070e12af84f53906dc8" target="_top" xlink:title=" ">
<polygon fill="white" stroke="#666666" points="772.5,-125 700.25,-125 700.25,-105.75 772.5,-105.75 772.5,-125"/>
<text xml:space="preserve" text-anchor="middle" x="736.38" y="-111.5" font-family="Helvetica,sans-Serif" font-size="10.00">matmul_float</text>
</a>
</g>
</g>
<!-- Node1&#45;&gt;Node20 -->
<g id="edge30_Node000001_Node000020" class="edge">
<title>Node1&#45;&gt;Node20</title>
<g id="a_edge30_Node000001_Node000020"><a xlink:title=" ">
<path fill="none" stroke="#63b8ff" d="M796.88,-125.72C788.83,-124.32 780.62,-122.89 772.99,-121.57"/>
<polygon fill="#63b8ff" stroke="#63b8ff" points="796.16,-129.15 806.62,-127.41 797.36,-122.25 796.16,-129.15"/>
</a>
</g>
</g>
<!-- Node3 -->
<g id="Node000003" class="node">
<title>Node3</title>
<g id="a_Node000003"><a xlink:href="../../d6/db8/_vbare__nloc_8c.html#abeb59b7a11cbc7ffec9b5bb2759ebbdd" target="_top" xlink:title=" ">
<polygon fill="white" stroke="#666666" points="484.38,-163 388.12,-163 388.12,-143.75 484.38,-143.75 484.38,-163"/>
<text xml:space="preserve" text-anchor="middle" x="436.25" y="-149.5" font-family="Helvetica,sans-Serif" font-size="10.00">add_elphNonLocal</text>
</a>
</g>
</g>
<!-- Node2&#45;&gt;Node3 -->
<g id="edge2_Node000002_Node000003" class="edge">
<title>Node2&#45;&gt;Node3</title>
<g id="a_edge2_Node000002_Node000003"><a xlink:title=" ">
<path fill="none" stroke="#63b8ff" d="M547.18,-178.76C525.9,-173.84 501.34,-168.17 480.84,-163.44"/>
<polygon fill="#63b8ff" stroke="#63b8ff" points="546.29,-182.14 556.82,-180.98 547.87,-175.32 546.29,-182.14"/>
</a>
</g>
</g>
<!-- Node7 -->
<g id="Node000007" class="node">
<title>Node7</title>
<g id="a_Node000007"><a xlink:href="../../db/d44/dyn__long__range_8c.html#a5c9bf2378b293980114e987a84c9df49" target="_top" xlink:title=" ">
<polygon fill="white" stroke="#666666" points="496.75,-323.62 375.75,-323.62 375.75,-293.12 496.75,-293.12 496.75,-323.62"/>
<text xml:space="preserve" text-anchor="start" x="383.75" y="-310.12" font-family="Helvetica,sans-Serif" font-size="10.00">add_ph_dyn_long_range</text>
<text xml:space="preserve" text-anchor="middle" x="436.25" y="-298.87" font-family="Helvetica,sans-Serif" font-size="10.00">_internal</text>
</a>
</g>
</g>
<!-- Node2&#45;&gt;Node7 -->
<g id="edge6_Node000002_Node000007" class="edge">
<title>Node2&#45;&gt;Node7</title>
<g id="a_edge6_Node000002_Node000007"><a xlink:title=" ">
<path fill="none" stroke="#63b8ff" d="M580.12,-208.4C560.94,-227.61 528.57,-258.14 496.75,-279.37 489.49,-284.22 481.29,-288.75 473.36,-292.71"/>
<polygon fill="#63b8ff" stroke="#63b8ff" points="582.37,-211.1 586.89,-201.52 577.38,-206.19 582.37,-211.1"/>
</a>
</g>
</g>
<!-- Node11 -->
<g id="Node000011" class="node">
<title>Node11</title>
<g id="a_Node000011"><a xlink:href="../../d1/d94/d_vpot__add__long__range_8c.html#a0923c770a93d2648a5d75b70fbb9c61c" target="_top" xlink:title=" ">
<polygon fill="white" stroke="#666666" points="321.38,-275 225.12,-275 225.12,-255.75 321.38,-255.75 321.38,-275"/>
<text xml:space="preserve" text-anchor="middle" x="273.25" y="-261.5" font-family="Helvetica,sans-Serif" font-size="10.00">dV_add_longrange</text>
</a>
</g>
</g>
<!-- Node2&#45;&gt;Node11 -->
<g id="edge12_Node000002_Node000011" class="edge">
<title>Node2&#45;&gt;Node11</title>
<g id="a_edge12_Node000002_Node000011"><a xlink:title=" ">
<path fill="none" stroke="#63b8ff" d="M574.7,-206.75C555.07,-219.92 525.44,-237.62 496.75,-246.37 438.35,-264.2 367.59,-267.28 321.78,-267.02"/>
<polygon fill="#63b8ff" stroke="#63b8ff" points="576.5,-209.76 582.76,-201.21 572.53,-203.99 576.5,-209.76"/>
</a>
</g>
</g>
<!-- Node12 -->
<g id="Node000012" class="node">
<title>Node12</title>
<g id="a_Node000012"><a xlink:href="../../d9/d90/d_vbare__loc_8c.html#a30f21b6035a8a10369610419e98fbe67" target="_top" xlink:title=" ">
<polygon fill="white" stroke="#666666" points="459.25,-237 413.25,-237 413.25,-217.75 459.25,-217.75 459.25,-237"/>
<text xml:space="preserve" text-anchor="middle" x="436.25" y="-223.5" font-family="Helvetica,sans-Serif" font-size="10.00">dVlocq</text>
</a>
</g>
</g>
<!-- Node2&#45;&gt;Node12 -->
<g id="edge14_Node000002_Node000012" class="edge">
<title>Node2&#45;&gt;Node12</title>
<g id="a_edge14_Node000002_Node000012"><a xlink:title=" ">
<path fill="none" stroke="#63b8ff" d="M547.39,-201.94C518.03,-208.72 482.38,-216.95 459.75,-222.18"/>
<polygon fill="#63b8ff" stroke="#63b8ff" points="547.87,-205.42 556.82,-199.76 546.29,-198.6 547.87,-205.42"/>
</a>
</g>
</g>
<!-- Node13 -->
<g id="Node000013" class="node">
<title>Node13</title>
<g id="a_Node000013"><a xlink:href="../../d9/d66/dvscf__basis__rotation_8c.html#a7c9d8f8e6e444525fce52b867935f86f" target="_top" xlink:title=" ">
<polygon fill="white" stroke="#666666" points="326.62,-435 219.88,-435 219.88,-415.75 326.62,-415.75 326.62,-435"/>
<text xml:space="preserve" text-anchor="middle" x="273.25" y="-421.5" font-family="Helvetica,sans-Serif" font-size="10.00">dVscf_change_basis</text>
</a>
</g>
</g>
<!-- Node2&#45;&gt;Node13 -->
<g id="edge16_Node000002_Node000013" class="edge">
<title>Node2&#45;&gt;Node13</title>
<g id="a_edge16_Node000002_Node000013"><a xlink:title=" ">
<path fill="none" stroke="#63b8ff" d="M591.83,-210.96C580.41,-248.49 550.96,-327.96 496.75,-369.37 447.37,-407.1 375.55,-419.64 326.97,-423.68"/>
<polygon fill="#63b8ff" stroke="#63b8ff" points="595.07,-212.38 594.5,-201.8 588.34,-210.43 595.07,-212.38"/>
</a>
</g>
</g>
<!-- Node14 -->
<g id="Node000014" class="node">
<title>Node14</title>
<g id="a_Node000014"><a xlink:href="../../dd/de7/elec__reps_8c.html#a9ad01d68a7d4f87c39a98bf13778cd64" target="_top" xlink:title=" ">
<polygon fill="white" stroke="#666666" points="477.25,-52 395.25,-52 395.25,-32.75 477.25,-32.75 477.25,-52"/>
<text xml:space="preserve" text-anchor="middle" x="436.25" y="-38.5" font-family="Helvetica,sans-Serif" font-size="10.00">electronic_reps</text>
</a>
</g>
</g>
<!-- Node2&#45;&gt;Node14 -->
<g id="edge18_Node000002_Node000014" class="edge">
<title>Node2&#45;&gt;Node14</title>
<g id="a_edge18_Node000002_Node000014"><a xlink:title=" ">
<path fill="none" stroke="#63b8ff" d="M584.84,-171.25C563.11,-138.96 518.93,-75.63 496.75,-60.37 490.97,-56.4 484.29,-53.28 477.54,-50.84"/>
<polygon fill="#63b8ff" stroke="#63b8ff" points="581.74,-172.92 590.2,-179.29 587.56,-169.03 581.74,-172.92"/>
</a>
</g>
</g>
<!-- Node16 -->
<g id="Node000016" class="node">
<title>Node16</title>
<g id="a_Node000016"><a xlink:href="../../dd/d37/elphq__expand_8c.html#a0ae24af3ba2534ff808508356e40f869" target="_top" xlink:title=" ">
<polygon fill="white" stroke="#666666" points="473.5,-126 399,-126 399,-106.75 473.5,-106.75 473.5,-126"/>
<text xml:space="preserve" text-anchor="middle" x="436.25" y="-112.5" font-family="Helvetica,sans-Serif" font-size="10.00">elph_q_rotate</text>
</a>
</g>
</g>
<!-- Node2&#45;&gt;Node16 -->
<g id="edge21_Node000002_Node000016" class="edge">
<title>Node2&#45;&gt;Node16</title>
<g id="a_edge21_Node000002_Node000016"><a xlink:title=" ">
<path fill="none" stroke="#63b8ff" d="M572.43,-174.45C552.49,-162.29 523.58,-145.74 496.75,-134.37 489.5,-131.3 481.54,-128.52 473.87,-126.11"/>
<polygon fill="#63b8ff" stroke="#63b8ff" points="570.34,-177.28 580.69,-179.57 574.03,-171.33 570.34,-177.28"/>
</a>
</g>
</g>
<!-- Node17 -->
<g id="Node000017" class="node">
<title>Node17</title>
<g id="a_Node000017"><a xlink:href="../../d1/d8e/compute___vbare__loc_8c.html#a5f1d51340a8457749225b05b612e4abe" target="_top" xlink:title=" ">
<polygon fill="white" stroke="#666666" points="464.88,-89 407.62,-89 407.62,-69.75 464.88,-69.75 464.88,-89"/>
<text xml:space="preserve" text-anchor="middle" x="436.25" y="-75.5" font-family="Helvetica,sans-Serif" font-size="10.00">elphLocal</text>
</a>
</g>
</g>
<!-- Node2&#45;&gt;Node17 -->
<g id="edge23_Node000002_Node000017" class="edge">
<title>Node2&#45;&gt;Node17</title>
<g id="a_edge23_Node000002_Node000017"><a xlink:title=" ">
<path fill="none" stroke="#63b8ff" d="M582.07,-171.76C563.76,-150.82 531.33,-117.15 496.75,-97.37 487.1,-91.85 475.58,-87.86 465.27,-85.06"/>
<polygon fill="#63b8ff" stroke="#63b8ff" points="579.3,-173.91 588.46,-179.24 584.62,-169.37 579.3,-173.91"/>
</a>
</g>
</g>
<!-- Node18 -->
<g id="Node000018" class="node">
<title>Node18</title>
<g id="a_Node000018"><a xlink:href="../../d0/dc3/pol__vecs__to__dyn_8c.html#a1bd35bfc68ff331812783d43764d9bf7" target="_top" xlink:title=" ">
<polygon fill="white" stroke="#666666" points="318,-398 228.5,-398 228.5,-378.75 318,-378.75 318,-398"/>
<text xml:space="preserve" text-anchor="middle" x="273.25" y="-384.5" font-family="Helvetica,sans-Serif" font-size="10.00">pol_vecs_to_dyn</text>
</a>
</g>
</g>
<!-- Node2&#45;&gt;Node18 -->
<g id="edge25_Node000002_Node000018" class="edge">
<title>Node2&#45;&gt;Node18</title>
<g id="a_edge25_Node000002_Node000018"><a xlink:title=" ">
<path fill="none" stroke="#63b8ff" d="M588.65,-210.98C574.15,-242.21 542.32,-301.19 496.75,-332.37 442.67,-369.38 366.22,-381.95 318.48,-386.21"/>
<polygon fill="#63b8ff" stroke="#63b8ff" points="591.84,-212.42 592.73,-201.86 585.45,-209.56 591.84,-212.42"/>
</a>
</g>
</g>
<!-- Node19 -->
<g id="Node000019" class="node">
<title>Node19</title>
<g id="a_Node000019"><a xlink:href="../../dc/d55/rotate__eig__vecs_8c.html#a6c1073c89757bc422e6720d8348c426a" target="_top" xlink:title=" ">
<polygon fill="white" stroke="#666666" points="478.75,-200 393.75,-200 393.75,-180.75 478.75,-180.75 478.75,-200"/>
<text xml:space="preserve" text-anchor="middle" x="436.25" y="-186.5" font-family="Helvetica,sans-Serif" font-size="10.00">rotate_eig_vecs</text>
</a>
</g>
</g>
<!-- Node2&#45;&gt;Node19 -->
<g id="edge27_Node000002_Node000019" class="edge">
<title>Node2&#45;&gt;Node19</title>
<g id="a_edge27_Node000002_Node000019"><a xlink:title=" ">
<path fill="none" stroke="#63b8ff" d="M546.91,-190.37C525.09,-190.37 499.88,-190.37 479.13,-190.37"/>
<polygon fill="#63b8ff" stroke="#63b8ff" points="546.78,-193.87 556.78,-190.37 546.78,-186.87 546.78,-193.87"/>
</a>
</g>
</g>
<!-- Node4 -->
<g id="Node000004" class="node">
<title>Node4</title>
<g id="a_Node000004"><a xlink:href="../../d5/dd2/compute__elph__matq_8c.html#ad32ab6f17a3745b7f82151d7f5b927f2" target="_top" xlink:title=" ">
<polygon fill="white" stroke="#666666" points="337.88,-123 208.62,-123 208.62,-103.75 337.88,-103.75 337.88,-123"/>
<text xml:space="preserve" text-anchor="middle" x="273.25" y="-109.5" font-family="Helvetica,sans-Serif" font-size="10.00">compute_and_write_elphq</text>
</a>
</g>
</g>
<!-- Node3&#45;&gt;Node4 -->
<g id="edge3_Node000003_Node000004" class="edge">
<title>Node3&#45;&gt;Node4</title>
<g id="a_edge3_Node000003_Node000004"><a xlink:title=" ">
<path fill="none" stroke="#63b8ff" d="M383.67,-140.56C361.41,-135.03 335.74,-128.65 314.86,-123.46"/>
<polygon fill="#63b8ff" stroke="#63b8ff" points="382.61,-143.9 393.15,-142.91 384.29,-137.11 382.61,-143.9"/>
</a>
</g>
</g>
<!-- Node5 -->
<g id="Node000005" class="node">
<title>Node5</title>
<g id="a_Node000005"><a xlink:href="../../da/d2e/elph__driver_8c.html#ad9f405d41cf090d652dbe1307700665f" target="_top" xlink:title=" ">
<polygon fill="white" stroke="#666666" points="153.5,-142 90.25,-142 90.25,-122.75 153.5,-122.75 153.5,-142"/>
<text xml:space="preserve" text-anchor="middle" x="121.88" y="-128.5" font-family="Helvetica,sans-Serif" font-size="10.00">elph_driver</text>
</a>
</g>
</g>
<!-- Node4&#45;&gt;Node5 -->
<g id="edge4_Node000004_Node000005" class="edge">
<title>Node4&#45;&gt;Node5</title>
<g id="a_edge4_Node000004_Node000005"><a xlink:title=" ">
<path fill="none" stroke="#63b8ff" d="M197.34,-122.9C182.01,-124.85 166.69,-126.8 153.96,-128.42"/>
<polygon fill="#63b8ff" stroke="#63b8ff" points="197.49,-126.41 206.97,-121.68 196.61,-119.47 197.49,-126.41"/>
</a>
</g>
</g>
<!-- Node6 -->
<g id="Node000006" class="node">
<title>Node6</title>
<g id="a_Node000006"><a xlink:href="../../d3/dd5/main__elph_c_8c.html#a0ddf1224851353fc92bfbff6f499fa97" target="_top" xlink:title="Main program entry point.">
<polygon fill="white" stroke="#666666" points="37,-227 0,-227 0,-207.75 37,-207.75 37,-227"/>
<text xml:space="preserve" text-anchor="middle" x="18.5" y="-213.5" font-family="Helvetica,sans-Serif" font-size="10.00">main</text>
</a>
</g>
</g>
<!-- Node5&#45;&gt;Node6 -->
<g id="edge5_Node000005_Node000006" class="edge">
<title>Node5&#45;&gt;Node6</title>
<g id="a_edge5_Node000005_Node000006"><a xlink:title=" ">
<path fill="none" stroke="#63b8ff" d="M100.17,-149.74C79.49,-167.07 48.42,-193.12 31.51,-207.3"/>
<polygon fill="#63b8ff" stroke="#63b8ff" points="102.27,-152.54 107.69,-143.43 97.78,-147.17 102.27,-152.54"/>
</a>
</g>
</g>
<!-- Node8 -->
<g id="Node000008" class="node">
<title>Node8</title>
<g id="a_Node000008"><a xlink:href="../../db/d44/dyn__long__range_8c.html#a8f542a339e339996795dd2eafe9ac1de" target="_top" xlink:title=" ">
<polygon fill="white" stroke="#666666" points="333.75,-312 212.75,-312 212.75,-292.75 333.75,-292.75 333.75,-312"/>
<text xml:space="preserve" text-anchor="middle" x="273.25" y="-298.5" font-family="Helvetica,sans-Serif" font-size="10.00">add_ph_dyn_long_range</text>
</a>
</g>
</g>
<!-- Node7&#45;&gt;Node8 -->
<g id="edge7_Node000007_Node000008" class="edge">
<title>Node7&#45;&gt;Node8</title>
<g id="a_edge7_Node000007_Node000008"><a xlink:title=" ">
<path fill="none" stroke="#63b8ff" d="M364.07,-305.72C354.03,-305.35 343.78,-304.96 333.98,-304.6"/>
<polygon fill="#63b8ff" stroke="#63b8ff" points="363.66,-309.21 373.79,-306.08 363.92,-302.21 363.66,-309.21"/>
</a>
</g>
</g>
<!-- Node10 -->
<g id="Node000010" class="node">
<title>Node10</title>
<g id="a_Node000010"><a xlink:href="../../db/d44/dyn__long__range_8c.html#a370223ca23cf3f439f2c4efea9e09c04" target="_top" xlink:title=" ">
<polygon fill="white" stroke="#666666" points="325.12,-360.62 221.38,-360.62 221.38,-330.12 325.12,-330.12 325.12,-360.62"/>
<text xml:space="preserve" text-anchor="start" x="229.38" y="-347.12" font-family="Helvetica,sans-Serif" font-size="10.00">compute_dyn_lr_asr</text>
<text xml:space="preserve" text-anchor="middle" x="273.25" y="-335.87" font-family="Helvetica,sans-Serif" font-size="10.00">_correction</text>
</a>
</g>
</g>
<!-- Node7&#45;&gt;Node10 -->
<g id="edge10_Node000007_Node000010" class="edge">
<title>Node7&#45;&gt;Node10</title>
<g id="a_edge10_Node000007_Node000010"><a xlink:title=" ">
<path fill="none" stroke="#63b8ff" d="M364.42,-324.65C351.33,-327.66 337.9,-330.74 325.53,-333.59"/>
<polygon fill="#63b8ff" stroke="#63b8ff" points="364.86,-328.14 373.82,-322.49 363.29,-321.32 364.86,-328.14"/>
</a>
</g>
</g>
<!-- Node9 -->
<g id="Node000009" class="node">
<title>Node9</title>
<g id="a_Node000009"><a xlink:href="../../da/dc2/interpolation__driver_8c.html#aecc42ae41d168b486807b337fcf5b3de" target="_top" xlink:title=" ">
<polygon fill="white" stroke="#666666" points="170.75,-312 73,-312 73,-292.75 170.75,-292.75 170.75,-312"/>
<text xml:space="preserve" text-anchor="middle" x="121.88" y="-298.5" font-family="Helvetica,sans-Serif" font-size="10.00">interpolation_driver</text>
</a>
</g>
</g>
<!-- Node8&#45;&gt;Node9 -->
<g id="edge8_Node000008_Node000009" class="edge">
<title>Node8&#45;&gt;Node9</title>
<g id="a_edge8_Node000008_Node000009"><a xlink:title=" ">
<path fill="none" stroke="#63b8ff" d="M200.92,-302.37C190.72,-302.37 180.44,-302.37 170.84,-302.37"/>
<polygon fill="#63b8ff" stroke="#63b8ff" points="200.84,-305.87 210.84,-302.37 200.84,-298.87 200.84,-305.87"/>
</a>
</g>
</g>
<!-- Node9&#45;&gt;Node6 -->
<g id="edge9_Node000009_Node000006" class="edge">
<title>Node9&#45;&gt;Node6</title>
<g id="a_edge9_Node000009_Node000006"><a xlink:title=" ">
<path fill="none" stroke="#63b8ff" d="M100.17,-285.01C79.49,-267.67 48.42,-241.62 31.51,-227.44"/>
<polygon fill="#63b8ff" stroke="#63b8ff" points="97.78,-287.57 107.69,-291.32 102.27,-282.21 97.78,-287.57"/>
</a>
</g>
</g>
<!-- Node10&#45;&gt;Node9 -->
<g id="edge11_Node000010_Node000009" class="edge">
<title>Node10&#45;&gt;Node9</title>
<g id="a_edge11_Node000010_Node000009"><a xlink:title=" ">
<path fill="none" stroke="#63b8ff" d="M210.25,-327.52C192.28,-322.35 173.31,-316.89 157.66,-312.38"/>
<polygon fill="#63b8ff" stroke="#63b8ff" points="209.23,-330.87 219.81,-330.28 211.17,-324.15 209.23,-330.87"/>
</a>
</g>
</g>
<!-- Node11&#45;&gt;Node9 -->
<g id="edge13_Node000011_Node000009" class="edge">
<title>Node11&#45;&gt;Node9</title>
<g id="a_edge13_Node000011_Node000009"><a xlink:title=" ">
<path fill="none" stroke="#63b8ff" d="M220.47,-278.2C201.87,-282.81 181.17,-287.93 163.64,-292.27"/>
<polygon fill="#63b8ff" stroke="#63b8ff" points="221.1,-281.65 229.96,-275.85 219.42,-274.85 221.1,-281.65"/>
</a>
</g>
</g>
<!-- Node12&#45;&gt;Node5 -->
<g id="edge15_Node000012_Node000005" class="edge">
<title>Node12&#45;&gt;Node5</title>
<g id="a_edge15_Node000012_Node000005"><a xlink:title=" ">
<path fill="none" stroke="#63b8ff" d="M401.85,-222.18C356.7,-214.58 274.09,-198.66 206.75,-174.37 182.7,-165.7 156.6,-151.87 140.01,-142.47"/>
<polygon fill="#63b8ff" stroke="#63b8ff" points="401.09,-225.6 411.52,-223.77 402.22,-218.69 401.09,-225.6"/>
</a>
</g>
</g>
<!-- Node13&#45;&gt;Node9 -->
<g id="edge17_Node000013_Node000009" class="edge">
<title>Node13&#45;&gt;Node9</title>
<g id="a_edge17_Node000013_Node000009"><a xlink:title=" ">
<path fill="none" stroke="#63b8ff" d="M212.39,-410.72C210.45,-409.68 208.56,-408.56 206.75,-407.37 168.17,-381.96 139.09,-333.05 127.9,-312.19"/>
<polygon fill="#63b8ff" stroke="#63b8ff" points="210.57,-413.73 221.12,-414.71 213.48,-407.37 210.57,-413.73"/>
</a>
</g>
</g>
<!-- Node15 -->
<g id="Node000015" class="node">
<title>Node15</title>
<g id="a_Node000015"><a xlink:href="../../d5/d9f/compute__dmats_8c.html#aceeb11551c1d6413e6d4b5cae9704493" target="_top" xlink:title=" ">
<polygon fill="white" stroke="#666666" points="339.75,-69 206.75,-69 206.75,-49.75 339.75,-49.75 339.75,-69"/>
<text xml:space="preserve" text-anchor="middle" x="273.25" y="-55.5" font-family="Helvetica,sans-Serif" font-size="10.00">compute_and_write_dmats</text>
</a>
</g>
</g>
<!-- Node14&#45;&gt;Node15 -->
<g id="edge19_Node000014_Node000015" class="edge">
<title>Node14&#45;&gt;Node15</title>
<g id="a_edge19_Node000014_Node000015"><a xlink:title=" ">
<path fill="none" stroke="#63b8ff" d="M383.76,-47.81C369.91,-49.27 354.74,-50.87 340.23,-52.41"/>
<polygon fill="#63b8ff" stroke="#63b8ff" points="383.96,-51.31 393.53,-46.78 383.22,-44.35 383.96,-51.31"/>
</a>
</g>
</g>
<!-- Node15&#45;&gt;Node5 -->
<g id="edge20_Node000015_Node000005" class="edge">
<title>Node15&#45;&gt;Node5</title>
<g id="a_edge20_Node000015_Node000005"><a xlink:title=" ">
<path fill="none" stroke="#63b8ff" d="M241.7,-74.3C212.42,-88.61 169.01,-109.83 143.56,-122.26"/>
<polygon fill="#63b8ff" stroke="#63b8ff" points="242.99,-77.57 250.43,-70.03 239.91,-71.28 242.99,-77.57"/>
</a>
</g>
</g>
<!-- Node16&#45;&gt;Node4 -->
<g id="edge22_Node000016_Node000004" class="edge">
<title>Node16&#45;&gt;Node4</title>
<g id="a_edge22_Node000016_Node000004"><a xlink:title=" ">
<path fill="none" stroke="#63b8ff" d="M387.33,-115.48C371.9,-115.19 354.54,-114.87 338.14,-114.56"/>
<polygon fill="#63b8ff" stroke="#63b8ff" points="387.14,-118.98 397.2,-115.66 387.27,-111.98 387.14,-118.98"/>
</a>
</g>
</g>
<!-- Node17&#45;&gt;Node4 -->
<g id="edge24_Node000017_Node000004" class="edge">
<title>Node17&#45;&gt;Node4</title>
<g id="a_edge24_Node000017_Node000004"><a xlink:title=" ">
<path fill="none" stroke="#63b8ff" d="M396.14,-87.63C373.85,-92.34 345.75,-98.27 322.15,-103.26"/>
<polygon fill="#63b8ff" stroke="#63b8ff" points="396.66,-91.1 405.73,-85.61 395.22,-84.25 396.66,-91.1"/>
</a>
</g>
</g>
<!-- Node18&#45;&gt;Node9 -->
<g id="edge26_Node000018_Node000009" class="edge">
<title>Node18&#45;&gt;Node9</title>
<g id="a_edge26_Node000018_Node000009"><a xlink:title=" ">
<path fill="none" stroke="#63b8ff" d="M218.15,-374.54C214.22,-372.97 210.38,-371.25 206.75,-369.37 176.63,-353.76 146.95,-326.49 132.3,-312.02"/>
<polygon fill="#63b8ff" stroke="#63b8ff" points="216.67,-377.73 227.26,-377.83 219.04,-371.14 216.67,-377.73"/>
</a>
</g>
</g>
<!-- Node19&#45;&gt;Node5 -->
<g id="edge28_Node000019_Node000005" class="edge">
<title>Node19&#45;&gt;Node5</title>
<g id="a_edge28_Node000019_Node000005"><a xlink:title=" ">
<path fill="none" stroke="#63b8ff" d="M382.52,-180.58C316.86,-168.39 206.88,-147.97 153.62,-138.08"/>
<polygon fill="#63b8ff" stroke="#63b8ff" points="381.49,-183.95 391.96,-182.33 382.76,-177.07 381.49,-183.95"/>
</a>
</g>
</g>
<!-- Node19&#45;&gt;Node9 -->
<g id="edge29_Node000019_Node000009" class="edge">
<title>Node19&#45;&gt;Node9</title>
<g id="a_edge29_Node000019_Node000009"><a xlink:title=" ">
<path fill="none" stroke="#63b8ff" d="M382.15,-198C334.72,-206.05 264.08,-221.15 206.75,-246.37 179.02,-258.57 150.47,-279.86 134.86,-292.38"/>
<polygon fill="#63b8ff" stroke="#63b8ff" points="382.6,-201.47 391.9,-196.39 381.46,-194.56 382.6,-201.47"/>
</a>
</g>
</g>
<!-- Node20&#45;&gt;Node19 -->
<g id="edge33_Node000020_Node000019" class="edge">
<title>Node20&#45;&gt;Node19</title>
<g id="a_edge33_Node000020_Node000019"><a xlink:title=" ">
<path fill="none" stroke="#63b8ff" d="M688.95,-127.05C630.84,-141.67 532.28,-166.47 477.32,-180.29"/>
<polygon fill="#63b8ff" stroke="#63b8ff" points="689.69,-130.47 698.54,-124.64 687.99,-123.69 689.69,-130.47"/>
</a>
</g>
</g>
<!-- Node21 -->
<g id="Node000021" class="node">
<title>Node21</title>
<g id="a_Node000021"><a xlink:href="../../da/d77/get__save__data_8c.html#ab497305a989dd1713ba4c2b4d0f95bd0" target="_top" xlink:title=" ">
<polygon fill="white" stroke="#666666" points="664.25,-33 532.75,-33 532.75,-13.75 664.25,-13.75 664.25,-33"/>
<text xml:space="preserve" text-anchor="middle" x="598.5" y="-19.5" font-family="Helvetica,sans-Serif" font-size="10.00">read_and_alloc_save_data</text>
</a>
</g>
</g>
<!-- Node20&#45;&gt;Node21 -->
<g id="edge31_Node000020_Node000021" class="edge">
<title>Node20&#45;&gt;Node21</title>
<g id="a_edge31_Node000020_Node000021"><a xlink:title=" ">
<path fill="none" stroke="#63b8ff" d="M714.68,-98.14C700.79,-86.88 681.86,-72.13 664.25,-60.37 649.39,-50.45 631.74,-40.48 618.62,-33.39"/>
<polygon fill="#63b8ff" stroke="#63b8ff" points="712.3,-100.71 722.25,-104.34 716.74,-95.3 712.3,-100.71"/>
</a>
</g>
</g>
<!-- Node22 -->
<g id="Node000022" class="node">
<title>Node22</title>
<g id="a_Node000022"><a xlink:href="../../d7/dd7/rotate___gvecs_8c.html#a3777530f5d55d899b796fb4e462b512f" target="_top" xlink:title=" ">
<polygon fill="white" stroke="#666666" points="633.12,-89 563.88,-89 563.88,-69.75 633.12,-69.75 633.12,-89"/>
<text xml:space="preserve" text-anchor="middle" x="598.5" y="-75.5" font-family="Helvetica,sans-Serif" font-size="10.00">rotateGvecs</text>
</a>
</g>
</g>
<!-- Node20&#45;&gt;Node22 -->
<g id="edge34_Node000020_Node000022" class="edge">
<title>Node20&#45;&gt;Node22</title>
<g id="a_edge34_Node000020_Node000022"><a xlink:title=" ">
<path fill="none" stroke="#63b8ff" d="M689,-103.09C670.71,-98.24 650.09,-92.78 633.26,-88.32"/>
<polygon fill="#63b8ff" stroke="#63b8ff" points="688,-106.44 698.57,-105.62 689.8,-99.68 688,-106.44"/>
</a>
</g>
</g>
<!-- Node21&#45;&gt;Node5 -->
<g id="edge32_Node000021_Node000005" class="edge">
<title>Node21&#45;&gt;Node5</title>
<g id="a_edge32_Node000021_Node000005"><a xlink:title=" ">
<path fill="none" stroke="#63b8ff" d="M537.46,-11.48C457.34,1.29 313.21,13.16 206.75,-40.37 169.1,-59.31 140.14,-102.78 128.48,-122.42"/>
<polygon fill="#63b8ff" stroke="#63b8ff" points="536.4,-14.85 546.84,-13.03 537.55,-7.94 536.4,-14.85"/>
</a>
</g>
</g>
<!-- Node22&#45;&gt;Node14 -->
<g id="edge35_Node000022_Node000014" class="edge">
<title>Node22&#45;&gt;Node14</title>
<g id="a_edge35_Node000022_Node000014"><a xlink:title=" ">
<path fill="none" stroke="#63b8ff" d="M552.44,-68.97C528.96,-63.55 500.48,-56.97 477.71,-51.71"/>
<polygon fill="#63b8ff" stroke="#63b8ff" points="551.51,-72.35 562.04,-71.19 553.08,-65.53 551.51,-72.35"/>
</a>
</g>
</g>
<!-- Node22&#45;&gt;Node17 -->
<g id="edge36_Node000022_Node000017" class="edge">
<title>Node22&#45;&gt;Node17</title>
<g id="a_edge36_Node000022_Node000017"><a xlink:title=" ">
<path fill="none" stroke="#63b8ff" d="M552.03,-79.37C524.11,-79.37 489.25,-79.37 465.31,-79.37"/>
<polygon fill="#63b8ff" stroke="#63b8ff" points="552,-82.87 562,-79.37 552,-75.87 552,-82.87"/>
</a>
</g>
</g>
</g>
</svg>
