<?xml version="1.0" encoding="UTF-8" standalone="no"?>
<!DOCTYPE svg PUBLIC "-//W3C//DTD SVG 1.1//EN"
 "http://www.w3.org/Graphics/SVG/1.1/DTD/svg11.dtd">
<!-- Generated by graphviz version 14.0.0 (20250921.2048)
 -->
<!-- Title: src/common/error.c Pages: 1 -->
<svg width="238pt" height="83pt"
 viewBox="0.00 0.00 238.00 83.00" xmlns="http://www.w3.org/2000/svg" xmlns:xlink="http://www.w3.org/1999/xlink">
<g id="graph0" class="graph" transform="scale(1 1) rotate(0) translate(4 78.5)">
<title>src/common/error.c</title>
<!-- Node1 -->
<g id="Node000001" class="node">
<title>Node1</title>
<g id="a_Node000001"><a xlink:title=" ">
<polygon fill="#999999" stroke="#666666" points="161.5,-74.5 61.5,-74.5 61.5,-55.25 161.5,-55.25 161.5,-74.5"/>
<text xml:space="preserve" text-anchor="middle" x="111.5" y="-61" font-family="Helvetica,sans-Serif" font-size="10.00">src/common/error.c</text>
</a>
</g>
</g>
<!-- Node2 -->
<g id="Node000002" class="node">
<title>Node2</title>
<g id="a_Node000002"><a xlink:href="../../da/d41/error_8h.html" target="_top" xlink:title=" ">
<polygon fill="white" stroke="#666666" points="43,-19.25 0,-19.25 0,0 43,0 43,-19.25"/>
<text xml:space="preserve" text-anchor="middle" x="21.5" y="-5.75" font-family="Helvetica,sans-Serif" font-size="10.00">error.h</text>
</a>
</g>
</g>
<!-- Node1&#45;&gt;Node2 -->
<g id="edge1_Node000001_Node000002" class="edge">
<title>Node1&#45;&gt;Node2</title>
<g id="a_edge1_Node000001_Node000002"><a xlink:title=" ">
<path fill="none" stroke="#63b8ff" d="M96.23,-54.84C82.66,-46.81 62.55,-34.91 46.6,-25.48"/>
<polygon fill="#63b8ff" stroke="#63b8ff" points="48.53,-22.55 38.14,-20.47 44.97,-28.58 48.53,-22.55"/>
</a>
</g>
</g>
<!-- Node3 -->
<g id="Node000003" class="node">
<title>Node3</title>
<g id="a_Node000003"><a xlink:title=" ">
<polygon fill="#e0e0e0" stroke="#999999" points="101.5,-19.25 61.5,-19.25 61.5,0 101.5,0 101.5,-19.25"/>
<text xml:space="preserve" text-anchor="middle" x="81.5" y="-5.75" font-family="Helvetica,sans-Serif" font-size="10.00">mpi.h</text>
</a>
</g>
</g>
<!-- Node1&#45;&gt;Node3 -->
<g id="edge2_Node000001_Node000003" class="edge">
<title>Node1&#45;&gt;Node3</title>
<g id="a_edge2_Node000001_Node000003"><a xlink:title=" ">
<path fill="none" stroke="#63b8ff" d="M106.55,-55.08C102.62,-48.11 96.99,-38.12 92.06,-29.37"/>
<polygon fill="#63b8ff" stroke="#63b8ff" points="95.26,-27.92 87.3,-20.93 89.16,-31.36 95.26,-27.92"/>
</a>
</g>
</g>
<!-- Node4 -->
<g id="Node000004" class="node">
<title>Node4</title>
<g id="a_Node000004"><a xlink:title=" ">
<polygon fill="#e0e0e0" stroke="#999999" points="165.12,-19.25 119.88,-19.25 119.88,0 165.12,0 165.12,-19.25"/>
<text xml:space="preserve" text-anchor="middle" x="142.5" y="-5.75" font-family="Helvetica,sans-Serif" font-size="10.00">stdio.h</text>
</a>
</g>
</g>
<!-- Node1&#45;&gt;Node4 -->
<g id="edge3_Node000001_Node000004" class="edge">
<title>Node1&#45;&gt;Node4</title>
<g id="a_edge3_Node000001_Node000004"><a xlink:title=" ">
<path fill="none" stroke="#63b8ff" d="M116.62,-55.08C120.68,-48.11 126.49,-38.12 131.59,-29.37"/>
<polygon fill="#63b8ff" stroke="#63b8ff" points="134.5,-31.32 136.51,-20.92 128.45,-27.8 134.5,-31.32"/>
</a>
</g>
</g>
<!-- Node5 -->
<g id="Node000005" class="node">
<title>Node5</title>
<g id="a_Node000005"><a xlink:title=" ">
<polygon fill="#e0e0e0" stroke="#999999" points="230.25,-19.25 182.75,-19.25 182.75,0 230.25,0 230.25,-19.25"/>
<text xml:space="preserve" text-anchor="middle" x="206.5" y="-5.75" font-family="Helvetica,sans-Serif" font-size="10.00">stdlib.h</text>
</a>
</g>
</g>
<!-- Node1&#45;&gt;Node5 -->
<g id="edge4_Node000001_Node000005" class="edge">
<title>Node1&#45;&gt;Node5</title>
<g id="a_edge4_Node000001_Node000005"><a xlink:title=" ">
<path fill="none" stroke="#63b8ff" d="M127.62,-54.84C142.08,-46.73 163.58,-34.68 180.48,-25.21"/>
<polygon fill="#63b8ff" stroke="#63b8ff" points="181.97,-28.39 188.99,-20.44 178.55,-22.28 181.97,-28.39"/>
</a>
</g>
</g>
</g>
</svg>
