<?xml version="1.0" encoding="UTF-8" standalone="no"?>
<!DOCTYPE svg PUBLIC "-//W3C//DTD SVG 1.1//EN"
 "http://www.w3.org/Graphics/SVG/1.1/DTD/svg11.dtd">
<!-- Generated by graphviz version 14.0.0 (20250921.2048)
 -->
<!-- Title: src/symmetries/rotate_dvscf.c Pages: 1 -->
<!--zoomable 204 -->

<svg id="main" version="1.1" xmlns="http://www.w3.org/2000/svg" xmlns:xlink="http://www.w3.org/1999/xlink" xml:space="preserve" onload="init(evt)">

<style type="text/css"><![CDATA[
.node, .edge {opacity: 0.7;}
.node.selected, .edge.selected {opacity: 1;}
.edge:hover path { stroke: red; }
.edge:hover polygon { stroke: red; fill: red; }
]]></style>

<defs>
  <circle id="rim" cx="0" cy="0" r="7"/>
  <circle id="rim2" cx="0" cy="0" r="3.5"/>
  <g id="zoomPlus">
    <use xlink:href="#rim" fill="#404040"><set attributeName="fill" to="#808080" begin="zoomplus.mouseover" end="zoomplus.mouseout"/></use>
    <path d="M-4,0h8M0,-4v8" fill="none" stroke="white" stroke-width="1.5" pointer-events="none"/>
  </g>
  <g id="zoomMin">
    <use xlink:href="#rim" fill="#404040"><set attributeName="fill" to="#808080" begin="zoomminus.mouseover" end="zoomminus.mouseout"/></use>
    <path d="M-4,0h8" fill="none" stroke="white" stroke-width="1.5" pointer-events="none"/>
  </g>
  <g id="arrowUp" transform="translate(30 24)">
    <use xlink:href="#rim"/>
    <path pointer-events="none" fill="none" stroke="white" stroke-width="1.5" d="M0,-3.0v7 M-2.5,-0.5L0,-3.0L2.5,-0.5"/>
  </g>
  <g id="arrowRight" transform="rotate(90) translate(36 -43)">
    <use xlink:href="#rim"/>
    <path pointer-events="none" fill="none" stroke="white" stroke-width="1.5" d="M0,-3.0v7 M-2.5,-0.5L0,-3.0L2.5,-0.5"/>
  </g>
  <g id="arrowDown" transform="rotate(180) translate(-30 -48)">
    <use xlink:href="#rim"/>
    <path pointer-events="none" fill="none" stroke="white" stroke-width="1.5" d="M0,-3.0v7 M-2.5,-0.5L0,-3.0L2.5,-0.5"/>
  </g>
  <g id="arrowLeft" transform="rotate(270) translate(-36 17)">
    <use xlink:href="#rim"/>
    <path pointer-events="none" fill="none" stroke="white" stroke-width="1.5" d="M0,-3.0v7 M-2.5,-0.5L0,-3.0L2.5,-0.5"/>
  </g>
  <g id="resetDef">
    <use xlink:href="#rim2" fill="#404040"><set attributeName="fill" to="#808080" begin="reset.mouseover" end="reset.mouseout"/></use>
  </g>
</defs>
<script type="application/ecmascript">
var viewWidth = 1148;
var viewHeight = 204;
var sectionId = 'dynsection-0';
</script>
<script type="application/ecmascript" xlink:href="../../svg.min.js"/>
<svg id="graph" class="graph">
<g id="viewport">
<title>src/symmetries/rotate_dvscf.c</title>
<!-- Node1 -->
<g id="Node000001" class="node">
<title>Node1</title>
<g id="a_Node000001"><a xlink:title=" ">
<polygon fill="#999999" stroke="#666666" points="519.12,-196.25 407.88,-196.25 407.88,-165.75 519.12,-165.75 519.12,-196.25"/>
<text xml:space="preserve" text-anchor="start" x="415.88" y="-182.75" font-family="Helvetica,sans-Serif" font-size="10.00">src/symmetries/rotate</text>
<text xml:space="preserve" text-anchor="middle" x="463.5" y="-171.5" font-family="Helvetica,sans-Serif" font-size="10.00">_dvscf.c</text>
</a>
</g>
</g>
<!-- Node2 -->
<g id="Node000002" class="node">
<title>Node2</title>
<g id="a_Node000002"><a xlink:title=" ">
<polygon fill="#e0e0e0" stroke="#999999" points="61,-129.75 0,-129.75 0,-110.5 61,-110.5 61,-129.75"/>
<text xml:space="preserve" text-anchor="middle" x="30.5" y="-116.25" font-family="Helvetica,sans-Serif" font-size="10.00">complex.h</text>
</a>
</g>
</g>
<!-- Node1&#45;&gt;Node2 -->
<g id="edge1_Node000001_Node000002" class="edge">
<title>Node1&#45;&gt;Node2</title>
<g id="a_edge1_Node000001_Node000002"><a xlink:title=" ">
<path fill="none" stroke="#63b8ff" d="M407.47,-174.47C333.1,-166.78 197.48,-151.51 72.4,-130.12"/>
<polygon fill="#63b8ff" stroke="#63b8ff" points="73.05,-126.68 62.6,-128.43 71.85,-133.58 73.05,-126.68"/>
</a>
</g>
</g>
<!-- Node3 -->
<g id="Node000003" class="node">
<title>Node3</title>
<g id="a_Node000003"><a xlink:title=" ">
<polygon fill="#e0e0e0" stroke="#999999" points="126.25,-129.75 78.75,-129.75 78.75,-110.5 126.25,-110.5 126.25,-129.75"/>
<text xml:space="preserve" text-anchor="middle" x="102.5" y="-116.25" font-family="Helvetica,sans-Serif" font-size="10.00">limits.h</text>
</a>
</g>
</g>
<!-- Node1&#45;&gt;Node3 -->
<g id="edge2_Node000001_Node000003" class="edge">
<title>Node1&#45;&gt;Node3</title>
<g id="a_edge2_Node000001_Node000003"><a xlink:title=" ">
<path fill="none" stroke="#63b8ff" d="M407.47,-173.21C344.29,-165.16 238.29,-150.45 137.85,-130.05"/>
<polygon fill="#63b8ff" stroke="#63b8ff" points="138.57,-126.62 128.07,-128.03 137.15,-133.48 138.57,-126.62"/>
</a>
</g>
</g>
<!-- Node4 -->
<g id="Node000004" class="node">
<title>Node4</title>
<g id="a_Node000004"><a xlink:title=" ">
<polygon fill="#e0e0e0" stroke="#999999" points="190.5,-129.75 144.5,-129.75 144.5,-110.5 190.5,-110.5 190.5,-129.75"/>
<text xml:space="preserve" text-anchor="middle" x="167.5" y="-116.25" font-family="Helvetica,sans-Serif" font-size="10.00">math.h</text>
</a>
</g>
</g>
<!-- Node1&#45;&gt;Node4 -->
<g id="edge3_Node000001_Node000004" class="edge">
<title>Node1&#45;&gt;Node4</title>
<g id="a_edge3_Node000001_Node000004"><a xlink:title=" ">
<path fill="none" stroke="#63b8ff" d="M407.55,-169.77C355.01,-160.02 274.27,-144.64 204.5,-129.75 203.68,-129.57 202.85,-129.39 202.01,-129.21"/>
<polygon fill="#63b8ff" stroke="#63b8ff" points="202.96,-125.84 192.44,-127.06 201.43,-132.67 202.96,-125.84"/>
</a>
</g>
</g>
<!-- Node5 -->
<g id="Node000005" class="node">
<title>Node5</title>
<g id="a_Node000005"><a xlink:title=" ">
<polygon fill="#e0e0e0" stroke="#999999" points="453.5,-19.25 413.5,-19.25 413.5,0 453.5,0 453.5,-19.25"/>
<text xml:space="preserve" text-anchor="middle" x="433.5" y="-5.75" font-family="Helvetica,sans-Serif" font-size="10.00">mpi.h</text>
</a>
</g>
</g>
<!-- Node1&#45;&gt;Node5 -->
<g id="edge4_Node000001_Node000005" class="edge">
<title>Node1&#45;&gt;Node5</title>
<g id="a_edge4_Node000001_Node000005"><a xlink:title=" ">
<path fill="none" stroke="#63b8ff" d="M407.67,-172.63C358.27,-164.83 291.6,-150.72 275.5,-129.75 235.08,-77.11 345.65,-36.08 402.33,-19.11"/>
<polygon fill="#63b8ff" stroke="#63b8ff" points="403.14,-22.52 411.76,-16.38 401.18,-15.8 403.14,-22.52"/>
</a>
</g>
</g>
<!-- Node6 -->
<g id="Node000006" class="node">
<title>Node6</title>
<g id="a_Node000006"><a xlink:title=" ">
<polygon fill="#e0e0e0" stroke="#999999" points="593.38,-19.25 537.62,-19.25 537.62,0 593.38,0 593.38,-19.25"/>
<text xml:space="preserve" text-anchor="middle" x="565.5" y="-5.75" font-family="Helvetica,sans-Serif" font-size="10.00">stdbool.h</text>
</a>
</g>
</g>
<!-- Node1&#45;&gt;Node6 -->
<g id="edge5_Node000001_Node000006" class="edge">
<title>Node1&#45;&gt;Node6</title>
<g id="a_edge5_Node000001_Node000006"><a xlink:title=" ">
<path fill="none" stroke="#63b8ff" d="M470.42,-165.49C484.08,-137.03 514.3,-74.97 527.5,-55.25 533.84,-45.77 541.92,-36.03 549,-28.08"/>
<polygon fill="#63b8ff" stroke="#63b8ff" points="551.48,-30.55 555.65,-20.81 546.32,-25.82 551.48,-30.55"/>
</a>
</g>
</g>
<!-- Node7 -->
<g id="Node000007" class="node">
<title>Node7</title>
<g id="a_Node000007"><a xlink:title=" ">
<polygon fill="#e0e0e0" stroke="#999999" points="330.12,-129.75 284.88,-129.75 284.88,-110.5 330.12,-110.5 330.12,-129.75"/>
<text xml:space="preserve" text-anchor="middle" x="307.5" y="-116.25" font-family="Helvetica,sans-Serif" font-size="10.00">stdio.h</text>
</a>
</g>
</g>
<!-- Node1&#45;&gt;Node7 -->
<g id="edge6_Node000001_Node000007" class="edge">
<title>Node1&#45;&gt;Node7</title>
<g id="a_edge6_Node000001_Node000007"><a xlink:title=" ">
<path fill="none" stroke="#63b8ff" d="M424.54,-165.3C398.87,-155.61 365.6,-143.05 341.1,-133.8"/>
<polygon fill="#63b8ff" stroke="#63b8ff" points="342.52,-130.6 331.93,-130.34 340.05,-137.15 342.52,-130.6"/>
</a>
</g>
</g>
<!-- Node8 -->
<g id="Node000008" class="node">
<title>Node8</title>
<g id="a_Node000008"><a xlink:title=" ">
<polygon fill="#e0e0e0" stroke="#999999" points="395.25,-129.75 347.75,-129.75 347.75,-110.5 395.25,-110.5 395.25,-129.75"/>
<text xml:space="preserve" text-anchor="middle" x="371.5" y="-116.25" font-family="Helvetica,sans-Serif" font-size="10.00">stdlib.h</text>
</a>
</g>
</g>
<!-- Node1&#45;&gt;Node8 -->
<g id="edge7_Node000001_Node000008" class="edge">
<title>Node1&#45;&gt;Node8</title>
<g id="a_edge7_Node000001_Node000008"><a xlink:title=" ">
<path fill="none" stroke="#63b8ff" d="M440.76,-165.45C426.89,-156.57 409.18,-145.24 395.15,-136.26"/>
<polygon fill="#63b8ff" stroke="#63b8ff" points="397.27,-133.46 386.96,-131.02 393.49,-139.36 397.27,-133.46"/>
</a>
</g>
</g>
<!-- Node9 -->
<g id="Node000009" class="node">
<title>Node9</title>
<g id="a_Node000009"><a xlink:title=" ">
<polygon fill="#e0e0e0" stroke="#999999" points="461.62,-129.75 413.38,-129.75 413.38,-110.5 461.62,-110.5 461.62,-129.75"/>
<text xml:space="preserve" text-anchor="middle" x="437.5" y="-116.25" font-family="Helvetica,sans-Serif" font-size="10.00">string.h</text>
</a>
</g>
</g>
<!-- Node1&#45;&gt;Node9 -->
<g id="edge8_Node000001_Node000009" class="edge">
<title>Node1&#45;&gt;Node9</title>
<g id="a_edge8_Node000001_Node000009"><a xlink:title=" ">
<path fill="none" stroke="#63b8ff" d="M457.07,-165.45C453.76,-157.95 449.68,-148.7 446.1,-140.6"/>
<polygon fill="#63b8ff" stroke="#63b8ff" points="449.36,-139.32 442.12,-131.59 442.96,-142.15 449.36,-139.32"/>
</a>
</g>
</g>
<!-- Node10 -->
<g id="Node000010" class="node">
<title>Node10</title>
<g id="a_Node000010"><a xlink:href="../../d2/d6f/constants_8h.html" target="_top" xlink:title=" ">
<polygon fill="white" stroke="#666666" points="1140.25,-74.5 1032.75,-74.5 1032.75,-55.25 1140.25,-55.25 1140.25,-74.5"/>
<text xml:space="preserve" text-anchor="middle" x="1086.5" y="-61" font-family="Helvetica,sans-Serif" font-size="10.00">common/constants.h</text>
</a>
</g>
</g>
<!-- Node1&#45;&gt;Node10 -->
<g id="edge9_Node000001_Node000010" class="edge">
<title>Node1&#45;&gt;Node10</title>
<g id="a_edge9_Node000001_Node000010"><a xlink:title=" ">
<path fill="none" stroke="#63b8ff" d="M519.36,-176.96C601.48,-171.7 759.27,-158.56 890.5,-129.75 948.88,-116.93 1014.51,-93.65 1053.08,-79.02"/>
<polygon fill="#63b8ff" stroke="#63b8ff" points="1054.18,-82.34 1062.26,-75.5 1051.67,-75.81 1054.18,-82.34"/>
</a>
</g>
</g>
<!-- Node11 -->
<g id="Node000011" class="node">
<title>Node11</title>
<g id="a_Node000011"><a xlink:href="../../d4/d0a/elph_c_8h.html" target="_top" xlink:title="Core type definitions and configuration for LetzElPhC.">
<polygon fill="white" stroke="#666666" points="778.38,-19.25 728.62,-19.25 728.62,0 778.38,0 778.38,-19.25"/>
<text xml:space="preserve" text-anchor="middle" x="753.5" y="-5.75" font-family="Helvetica,sans-Serif" font-size="10.00">elphC.h</text>
</a>
</g>
</g>
<!-- Node1&#45;&gt;Node11 -->
<g id="edge22_Node000001_Node000011" class="edge">
<title>Node1&#45;&gt;Node11</title>
<g id="a_edge22_Node000001_Node000011"><a xlink:title=" ">
<path fill="none" stroke="#63b8ff" d="M519.47,-172.7C612.99,-159.15 794.1,-126.65 827.5,-74.5 841.04,-53.37 814.24,-35.34 789.2,-23.87"/>
<polygon fill="#63b8ff" stroke="#63b8ff" points="790.65,-20.69 780.08,-19.97 787.9,-27.12 790.65,-20.69"/>
</a>
</g>
</g>
<!-- Node12 -->
<g id="Node000012" class="node">
<title>Node12</title>
<g id="a_Node000012"><a xlink:href="../../d2/d02/dtypes_8h.html" target="_top" xlink:title=" ">
<polygon fill="white" stroke="#666666" points="480.5,-74.5 386.5,-74.5 386.5,-55.25 480.5,-55.25 480.5,-74.5"/>
<text xml:space="preserve" text-anchor="middle" x="433.5" y="-61" font-family="Helvetica,sans-Serif" font-size="10.00">common/dtypes.h</text>
</a>
</g>
</g>
<!-- Node1&#45;&gt;Node12 -->
<g id="edge11_Node000001_Node000012" class="edge">
<title>Node1&#45;&gt;Node12</title>
<g id="a_edge11_Node000001_Node000012"><a xlink:title=" ">
<path fill="none" stroke="#63b8ff" d="M468.57,-165.44C472.76,-151.06 477.04,-128.64 470.5,-110.5 466.77,-100.16 459.48,-90.51 452.36,-82.86"/>
<polygon fill="#63b8ff" stroke="#63b8ff" points="454.93,-80.48 445.36,-75.93 450,-85.45 454.93,-80.48"/>
</a>
</g>
</g>
<!-- Node13 -->
<g id="Node000013" class="node">
<title>Node13</title>
<g id="a_Node000013"><a xlink:href="../../da/d41/error_8h.html" target="_top" xlink:title=" ">
<polygon fill="white" stroke="#666666" points="318,-19.25 275,-19.25 275,0 318,0 318,-19.25"/>
<text xml:space="preserve" text-anchor="middle" x="296.5" y="-5.75" font-family="Helvetica,sans-Serif" font-size="10.00">error.h</text>
</a>
</g>
</g>
<!-- Node1&#45;&gt;Node13 -->
<g id="edge16_Node000001_Node000013" class="edge">
<title>Node1&#45;&gt;Node13</title>
<g id="a_edge16_Node000001_Node000013"><a xlink:title=" ">
<path fill="none" stroke="#63b8ff" d="M407.65,-173.63C354.83,-166.32 281.11,-152.34 263.5,-129.75 240.07,-99.71 265.01,-54.04 282.5,-28.87"/>
<polygon fill="#63b8ff" stroke="#63b8ff" points="285.21,-31.09 288.27,-20.95 279.55,-26.97 285.21,-31.09"/>
</a>
</g>
</g>
<!-- Node14 -->
<g id="Node000014" class="node">
<title>Node14</title>
<g id="a_Node000014"><a xlink:href="../../df/def/numerical__func_8h.html" target="_top" xlink:title=" ">
<polygon fill="white" stroke="#666666" points="818.88,-74.5 688.12,-74.5 688.12,-55.25 818.88,-55.25 818.88,-74.5"/>
<text xml:space="preserve" text-anchor="middle" x="753.5" y="-61" font-family="Helvetica,sans-Serif" font-size="10.00">common/numerical_func.h</text>
</a>
</g>
</g>
<!-- Node1&#45;&gt;Node14 -->
<g id="edge17_Node000001_Node000014" class="edge">
<title>Node1&#45;&gt;Node14</title>
<g id="a_edge17_Node000001_Node000014"><a xlink:title=" ">
<path fill="none" stroke="#63b8ff" d="M519.43,-174.3C564.34,-168.03 628.03,-155.23 678.5,-129.75 701.76,-118 723.91,-97.61 738.02,-83.03"/>
<polygon fill="#63b8ff" stroke="#63b8ff" points="740.39,-85.62 744.67,-75.93 735.28,-80.83 740.39,-85.62"/>
</a>
</g>
</g>
<!-- Node15 -->
<g id="Node000015" class="node">
<title>Node15</title>
<g id="a_Node000015"><a xlink:href="../../d2/d8d/omp__pragma__def_8h.html" target="_top" xlink:title=" ">
<polygon fill="white" stroke="#666666" points="1014.38,-74.5 874.62,-74.5 874.62,-55.25 1014.38,-55.25 1014.38,-74.5"/>
<text xml:space="preserve" text-anchor="middle" x="944.5" y="-61" font-family="Helvetica,sans-Serif" font-size="10.00">common/omp_pragma_def.h</text>
</a>
</g>
</g>
<!-- Node1&#45;&gt;Node15 -->
<g id="edge20_Node000001_Node000015" class="edge">
<title>Node1&#45;&gt;Node15</title>
<g id="a_edge20_Node000001_Node000015"><a xlink:title=" ">
<path fill="none" stroke="#63b8ff" d="M519.48,-176.5C613.79,-170.02 799.97,-154.49 860.5,-129.75 886.87,-118.97 912.19,-97.72 928.01,-82.7"/>
<polygon fill="#63b8ff" stroke="#63b8ff" points="930.4,-85.26 935.09,-75.76 925.5,-80.26 930.4,-85.26"/>
</a>
</g>
</g>
<!-- Node16 -->
<g id="Node000016" class="node">
<title>Node16</title>
<g id="a_Node000016"><a xlink:href="../../dc/dec/symmetries_8h.html" target="_top" xlink:title=" ">
<polygon fill="white" stroke="#666666" points="669.12,-129.75 593.88,-129.75 593.88,-110.5 669.12,-110.5 669.12,-129.75"/>
<text xml:space="preserve" text-anchor="middle" x="631.5" y="-116.25" font-family="Helvetica,sans-Serif" font-size="10.00">symmetries.h</text>
</a>
</g>
</g>
<!-- Node1&#45;&gt;Node16 -->
<g id="edge23_Node000001_Node000016" class="edge">
<title>Node1&#45;&gt;Node16</title>
<g id="a_edge23_Node000001_Node000016"><a xlink:title=" ">
<path fill="none" stroke="#63b8ff" d="M505.46,-165.3C533.01,-155.64 568.7,-143.13 595.06,-133.9"/>
<polygon fill="#63b8ff" stroke="#63b8ff" points="596.03,-137.26 604.31,-130.65 593.71,-130.66 596.03,-137.26"/>
</a>
</g>
</g>
<!-- Node17 -->
<g id="Node000017" class="node">
<title>Node17</title>
<g id="a_Node000017"><a xlink:href="../../d1/dea/wfc_8h.html" target="_top" xlink:title=" ">
<polygon fill="white" stroke="#666666" points="594.88,-74.5 536.12,-74.5 536.12,-55.25 594.88,-55.25 594.88,-74.5"/>
<text xml:space="preserve" text-anchor="middle" x="565.5" y="-61" font-family="Helvetica,sans-Serif" font-size="10.00">wfc/wfc.h</text>
</a>
</g>
</g>
<!-- Node1&#45;&gt;Node17 -->
<g id="edge27_Node000001_Node000017" class="edge">
<title>Node1&#45;&gt;Node17</title>
<g id="a_edge27_Node000001_Node000017"><a xlink:title=" ">
<path fill="none" stroke="#63b8ff" d="M495.87,-165.26C511.46,-156.77 529.36,-144.79 541.5,-129.75 551.87,-116.9 558.06,-99.12 561.55,-85.58"/>
<polygon fill="#63b8ff" stroke="#63b8ff" points="564.91,-86.6 563.7,-76.07 558.08,-85.05 564.91,-86.6"/>
</a>
</g>
</g>
<!-- Node10&#45;&gt;Node11 -->
<g id="edge10_Node000010_Node000011" class="edge">
<title>Node10&#45;&gt;Node11</title>
<g id="a_edge10_Node000010_Node000011"><a xlink:title=" ">
<path fill="none" stroke="#63b8ff" d="M1032.26,-55.2C963.98,-44.28 848.56,-25.83 789.97,-16.46"/>
<polygon fill="#63b8ff" stroke="#63b8ff" points="790.63,-13.02 780.2,-14.89 789.52,-19.93 790.63,-13.02"/>
</a>
</g>
</g>
<!-- Node12&#45;&gt;Node5 -->
<g id="edge12_Node000012_Node000005" class="edge">
<title>Node12&#45;&gt;Node5</title>
<g id="a_edge12_Node000012_Node000005"><a xlink:title=" ">
<path fill="none" stroke="#63b8ff" d="M433.5,-55.08C433.5,-48.57 433.5,-39.42 433.5,-31.12"/>
<polygon fill="#63b8ff" stroke="#63b8ff" points="437,-31.12 433.5,-21.12 430,-31.12 437,-31.12"/>
</a>
</g>
</g>
<!-- Node12&#45;&gt;Node6 -->
<g id="edge13_Node000012_Node000006" class="edge">
<title>Node12&#45;&gt;Node6</title>
<g id="a_edge13_Node000012_Node000006"><a xlink:title=" ">
<path fill="none" stroke="#63b8ff" d="M455.89,-54.84C476.94,-46.35 508.7,-33.54 532.62,-23.89"/>
<polygon fill="#63b8ff" stroke="#63b8ff" points="533.63,-27.26 541.59,-20.27 531.01,-20.76 533.63,-27.26"/>
</a>
</g>
</g>
<!-- Node12&#45;&gt;Node11 -->
<g id="edge14_Node000012_Node000011" class="edge">
<title>Node12&#45;&gt;Node11</title>
<g id="a_edge14_Node000012_Node000011"><a xlink:title=" ">
<path fill="none" stroke="#63b8ff" d="M480.72,-56.02C545.13,-45.3 659.15,-26.33 717.26,-16.66"/>
<polygon fill="#63b8ff" stroke="#63b8ff" points="717.66,-20.14 726.95,-15.04 716.51,-13.23 717.66,-20.14"/>
</a>
</g>
</g>
<!-- Node12&#45;&gt;Node13 -->
<g id="edge15_Node000012_Node000013" class="edge">
<title>Node12&#45;&gt;Node13</title>
<g id="a_edge15_Node000012_Node000013"><a xlink:title=" ">
<path fill="none" stroke="#63b8ff" d="M410.26,-54.84C387.92,-46.16 353.94,-32.95 328.94,-23.23"/>
<polygon fill="#63b8ff" stroke="#63b8ff" points="330.49,-20.08 319.9,-19.72 327.96,-26.61 330.49,-20.08"/>
</a>
</g>
</g>
<!-- Node14&#45;&gt;Node6 -->
<g id="edge18_Node000014_Node000006" class="edge">
<title>Node14&#45;&gt;Node6</title>
<g id="a_edge18_Node000014_Node000006"><a xlink:title=" ">
<path fill="none" stroke="#63b8ff" d="M721.61,-54.84C689.28,-45.68 639.21,-31.5 604.53,-21.68"/>
<polygon fill="#63b8ff" stroke="#63b8ff" points="605.88,-18.43 595.31,-19.07 603.98,-25.16 605.88,-18.43"/>
</a>
</g>
</g>
<!-- Node14&#45;&gt;Node11 -->
<g id="edge19_Node000014_Node000011" class="edge">
<title>Node14&#45;&gt;Node11</title>
<g id="a_edge19_Node000014_Node000011"><a xlink:title=" ">
<path fill="none" stroke="#63b8ff" d="M753.5,-55.08C753.5,-48.57 753.5,-39.42 753.5,-31.12"/>
<polygon fill="#63b8ff" stroke="#63b8ff" points="757,-31.12 753.5,-21.12 750,-31.12 757,-31.12"/>
</a>
</g>
</g>
<!-- Node15&#45;&gt;Node11 -->
<g id="edge21_Node000015_Node000011" class="edge">
<title>Node15&#45;&gt;Node11</title>
<g id="a_edge21_Node000015_Node000011"><a xlink:title=" ">
<path fill="none" stroke="#63b8ff" d="M912.1,-54.84C878.1,-45.36 824.79,-30.5 789.5,-20.66"/>
<polygon fill="#63b8ff" stroke="#63b8ff" points="790.76,-17.38 780.18,-18.06 788.88,-24.12 790.76,-17.38"/>
</a>
</g>
</g>
<!-- Node16&#45;&gt;Node6 -->
<g id="edge24_Node000016_Node000006" class="edge">
<title>Node16&#45;&gt;Node6</title>
<g id="a_edge24_Node000016_Node000006"><a xlink:title=" ">
<path fill="none" stroke="#63b8ff" d="M628.47,-110.04C624,-97.26 614.93,-73.52 603.5,-55.25 597.45,-45.58 589.41,-35.82 582.28,-27.9"/>
<polygon fill="#63b8ff" stroke="#63b8ff" points="584.92,-25.6 575.54,-20.68 579.8,-30.38 584.92,-25.6"/>
</a>
</g>
</g>
<!-- Node16&#45;&gt;Node11 -->
<g id="edge26_Node000016_Node000011" class="edge">
<title>Node16&#45;&gt;Node11</title>
<g id="a_edge26_Node000016_Node000011"><a xlink:title=" ">
<path fill="none" stroke="#63b8ff" d="M636.78,-110C644.77,-96.76 660.97,-71.98 679.5,-55.25 692.85,-43.19 709.93,-32.64 724.31,-24.83"/>
<polygon fill="#63b8ff" stroke="#63b8ff" points="725.64,-28.08 732.88,-20.35 722.39,-21.88 725.64,-28.08"/>
</a>
</g>
</g>
<!-- Node16&#45;&gt;Node12 -->
<g id="edge25_Node000016_Node000012" class="edge">
<title>Node16&#45;&gt;Node12</title>
<g id="a_edge25_Node000016_Node000012"><a xlink:title=" ">
<path fill="none" stroke="#63b8ff" d="M597.91,-110.09C564.92,-101.22 514.37,-87.62 478.04,-77.85"/>
<polygon fill="#63b8ff" stroke="#63b8ff" points="479.28,-74.56 468.71,-75.35 477.46,-81.32 479.28,-74.56"/>
</a>
</g>
</g>
<!-- Node17&#45;&gt;Node5 -->
<g id="edge28_Node000017_Node000005" class="edge">
<title>Node17&#45;&gt;Node5</title>
<g id="a_edge28_Node000017_Node000005"><a xlink:title=" ">
<path fill="none" stroke="#63b8ff" d="M543.11,-54.84C521.42,-46.09 488.36,-32.76 464.22,-23.02"/>
<polygon fill="#63b8ff" stroke="#63b8ff" points="465.82,-19.89 455.23,-19.39 463.2,-26.38 465.82,-19.89"/>
</a>
</g>
</g>
<!-- Node17&#45;&gt;Node6 -->
<g id="edge29_Node000017_Node000006" class="edge">
<title>Node17&#45;&gt;Node6</title>
<g id="a_edge29_Node000017_Node000006"><a xlink:title=" ">
<path fill="none" stroke="#63b8ff" d="M565.5,-55.08C565.5,-48.57 565.5,-39.42 565.5,-31.12"/>
<polygon fill="#63b8ff" stroke="#63b8ff" points="569,-31.12 565.5,-21.12 562,-31.12 569,-31.12"/>
</a>
</g>
</g>
<!-- Node17&#45;&gt;Node11 -->
<g id="edge30_Node000017_Node000011" class="edge">
<title>Node17&#45;&gt;Node11</title>
<g id="a_edge30_Node000017_Node000011"><a xlink:title=" ">
<path fill="none" stroke="#63b8ff" d="M595.29,-55.44C628.46,-46.04 682.05,-30.86 717.53,-20.81"/>
<polygon fill="#63b8ff" stroke="#63b8ff" points="718.24,-24.25 726.91,-18.16 716.33,-17.52 718.24,-24.25"/>
</a>
</g>
</g>
</g>
</svg>

<g id="navigator" transform="translate(0 0)" fill="#404254">
  <rect fill="#f2f5e9" fill-opacity="0.5" stroke="#606060" stroke-width=".5" x="0" y="0" width="60" height="60"/>
  <use id="zoomplus" xlink:href="#zoomPlus" x="17" y="9" onmousedown="handleZoom(evt,'in')"/>
  <use id="zoomminus" xlink:href="#zoomMin" x="42" y="9" onmousedown="handleZoom(evt,'out')"/>
  <use id="reset" xlink:href="#resetDef" x="30" y="36" onmousedown="handleReset()"/>
   <use id="arrowup" xlink:href="#arrowUp" x="0" y="0" onmousedown="handlePan(0,-1)"/>
  <use id="arrowright" xlink:href="#arrowRight" x="0" y="0" onmousedown="handlePan(1,0)"/>
  <use id="arrowdown" xlink:href="#arrowDown" x="0" y="0" onmousedown="handlePan(0,1)"/>
  <use id="arrowleft" xlink:href="#arrowLeft" x="0" y="0" onmousedown="handlePan(-1,0)"/>
</g>
<svg viewBox="0 0 15 15" width="100%" height="30px" preserveAspectRatio="xMaxYMin meet">
 <g id="arrow_out" transform="scale(0.3 0.3)">
  <a xlink:href="rotate__dvscf_8c__incl_org.svg" target="_base">
   <rect id="button" ry="5" rx="5" y="6" x="6" height="38" width="38"
        fill="#f2f5e9" fill-opacity="0.5" stroke="#606060" stroke-width="1.0"/>
   <path id="arrow"
     d="M 11.500037,31.436501 C 11.940474,20.09759 22.043105,11.32322 32.158766,21.979434 L 37.068811,17.246167 C 37.068811,17.246167 37.088388,32 37.088388,32 L 22.160133,31.978069 C 22.160133,31.978069 26.997745,27.140456 26.997745,27.140456 C 18.528582,18.264221 13.291696,25.230495 11.500037,31.436501 z"
     style="fill:#404040;"/>
  </a>
 </g>
</svg>

<style type='text/css'>
<![CDATA[
[data-mouse-over-selected='false'] { opacity: 0.7; }
[data-mouse-over-selected='true']  { opacity: 1.0; }
]]>
</style>
<script type="application/ecmascript"><![CDATA[
document.addEventListener('DOMContentLoaded', (event) => {
  highlightEdges();
  highlightAdjacentNodes();
});
]]></script>
</svg>
