<?xml version="1.0" encoding="UTF-8" standalone="no"?>
<!DOCTYPE svg PUBLIC "-//W3C//DTD SVG 1.1//EN"
 "http://www.w3.org/Graphics/SVG/1.1/DTD/svg11.dtd">
<!-- Generated by graphviz version 14.0.0 (20250921.2048)
 -->
<!-- Title: dVlocq Pages: 1 -->
<svg width="339pt" height="362pt"
 viewBox="0.00 0.00 339.00 362.00" xmlns="http://www.w3.org/2000/svg" xmlns:xlink="http://www.w3.org/1999/xlink">

<svg id="main" version="1.1" xmlns="http://www.w3.org/2000/svg" xmlns:xlink="http://www.w3.org/1999/xlink" xml:space="preserve">

<style type="text/css"><![CDATA[
.node, .edge {opacity: 0.7;}
.node.selected, .edge.selected {opacity: 1;}
.edge:hover path { stroke: red; }
.edge:hover polygon { stroke: red; fill: red; }
]]></style>
<script type="application/ecmascript" xlink:href="../../svg.min.js"/>
<svg id="graph" class="graph">
<g id="graph0" class="graph" transform="scale(1 1) rotate(0) translate(4 358.25)">
<title>dVlocq</title>
<!-- Node1 -->
<g id="Node000001" class="node">
<title>Node1</title>
<g id="a_Node000001"><a xlink:title=" ">
<polygon fill="#999999" stroke="#666666" points="46,-187.25 0,-187.25 0,-168 46,-168 46,-187.25"/>
<text xml:space="preserve" text-anchor="middle" x="23" y="-173.75" font-family="Helvetica,sans-Serif" font-size="10.00">dVlocq</text>
</a>
</g>
</g>
<!-- Node2 -->
<g id="Node000002" class="node">
<title>Node2</title>
<g id="a_Node000002"><a xlink:href="../../da/d97/_e_l_p_h__timers_8c.html#a4846a0dbe6a17751878baf1315af43aa" target="_top" xlink:title=" ">
<polygon fill="white" stroke="#666666" points="177.5,-354.25 82,-354.25 82,-335 177.5,-335 177.5,-354.25"/>
<text xml:space="preserve" text-anchor="middle" x="129.75" y="-340.75" font-family="Helvetica,sans-Serif" font-size="10.00">ELPH_start_clock</text>
</a>
</g>
</g>
<!-- Node1&#45;&gt;Node2 -->
<g id="edge1_Node000001_Node000002" class="edge">
<title>Node1&#45;&gt;Node2</title>
<g id="a_edge1_Node000001_Node000002"><a xlink:title=" ">
<path fill="none" stroke="#63b8ff" d="M25.09,-187.45C28.5,-213.68 41.29,-286.07 82,-326.62 82.6,-327.22 83.22,-327.8 83.87,-328.36"/>
<polygon fill="#63b8ff" stroke="#63b8ff" points="81.61,-331.06 91.85,-333.78 85.54,-325.27 81.61,-331.06"/>
</a>
</g>
</g>
<!-- Node3 -->
<g id="Node000003" class="node">
<title>Node3</title>
<g id="a_Node000003"><a xlink:href="../../da/d97/_e_l_p_h__timers_8c.html#adcc3002449fe62895b6e89571d00ba48" target="_top" xlink:title=" ">
<polygon fill="white" stroke="#666666" points="177.12,-317.25 82.38,-317.25 82.38,-298 177.12,-298 177.12,-317.25"/>
<text xml:space="preserve" text-anchor="middle" x="129.75" y="-303.75" font-family="Helvetica,sans-Serif" font-size="10.00">ELPH_stop_clock</text>
</a>
</g>
</g>
<!-- Node1&#45;&gt;Node3 -->
<g id="edge2_Node000001_Node000003" class="edge">
<title>Node1&#45;&gt;Node3</title>
<g id="a_edge2_Node000001_Node000003"><a xlink:title=" ">
<path fill="none" stroke="#63b8ff" d="M26.52,-187.49C32.5,-209 49.54,-260.56 82,-289.62 82.77,-290.31 83.56,-290.97 84.38,-291.61"/>
<polygon fill="#63b8ff" stroke="#63b8ff" points="82.28,-294.42 92.61,-296.74 85.98,-288.48 82.28,-294.42"/>
</a>
</g>
</g>
<!-- Node4 -->
<g id="Node000004" class="node">
<title>Node4</title>
<g id="a_Node000004"><a xlink:href="../../de/d2d/numerical__func_8c.html#a33dc7889eeb05a7ee40327581d51a3d7" target="_top" xlink:title=" ">
<polygon fill="white" stroke="#666666" points="167.75,-280.25 91.75,-280.25 91.75,-261 167.75,-261 167.75,-280.25"/>
<text xml:space="preserve" text-anchor="middle" x="129.75" y="-266.75" font-family="Helvetica,sans-Serif" font-size="10.00">get_miller_idx</text>
</a>
</g>
</g>
<!-- Node1&#45;&gt;Node4 -->
<g id="edge3_Node000001_Node000004" class="edge">
<title>Node1&#45;&gt;Node4</title>
<g id="a_edge3_Node000001_Node000004"><a xlink:title=" ">
<path fill="none" stroke="#63b8ff" d="M29.27,-187.54C38.16,-203.37 57.58,-234.44 82,-252.62 83.31,-253.6 84.68,-254.53 86.09,-255.41"/>
<polygon fill="#63b8ff" stroke="#63b8ff" points="84.05,-258.29 94.52,-259.9 87.34,-252.11 84.05,-258.29"/>
</a>
</g>
</g>
<!-- Node5 -->
<g id="Node000005" class="node">
<title>Node5</title>
<g id="a_Node000005"><a xlink:href="../../d9/d54/parallel_8c.html#a772905c8b6c33d03f3c8eb15bafdb129" target="_top" xlink:title=" ">
<polygon fill="white" stroke="#666666" points="330.75,-112.25 213.5,-112.25 213.5,-93 330.75,-93 330.75,-112.25"/>
<text xml:space="preserve" text-anchor="middle" x="272.12" y="-98.75" font-family="Helvetica,sans-Serif" font-size="10.00">get_mpi_local_size_idx</text>
</a>
</g>
</g>
<!-- Node1&#45;&gt;Node5 -->
<g id="edge4_Node000001_Node000005" class="edge">
<title>Node1&#45;&gt;Node5</title>
<g id="a_edge4_Node000001_Node000005"><a xlink:title=" ">
<path fill="none" stroke="#63b8ff" d="M46.38,-173.07C76.5,-166.71 131.61,-154.3 177.5,-139.62 197.9,-133.1 220.23,-124.34 237.96,-116.98"/>
<polygon fill="#63b8ff" stroke="#63b8ff" points="239.09,-120.31 246.95,-113.2 236.38,-113.85 239.09,-120.31"/>
</a>
</g>
</g>
<!-- Node6 -->
<g id="Node000006" class="node">
<title>Node6</title>
<g id="a_Node000006"><a xlink:href="../../dd/dc9/bwdfft_8c.html#ad3a34c33ba91c3026025fdc4ffe3f97b" target="_top" xlink:title=" ">
<polygon fill="white" stroke="#666666" points="155,-243.25 104.5,-243.25 104.5,-224 155,-224 155,-243.25"/>
<text xml:space="preserve" text-anchor="middle" x="129.75" y="-229.75" font-family="Helvetica,sans-Serif" font-size="10.00">invfft3D</text>
</a>
</g>
</g>
<!-- Node1&#45;&gt;Node6 -->
<g id="edge5_Node000001_Node000006" class="edge">
<title>Node1&#45;&gt;Node6</title>
<g id="a_edge5_Node000001_Node000006"><a xlink:title=" ">
<path fill="none" stroke="#63b8ff" d="M37.33,-187.54C48.78,-195.76 65.93,-207.39 82,-215.62 85.7,-217.52 89.65,-219.34 93.62,-221.04"/>
<polygon fill="#63b8ff" stroke="#63b8ff" points="92.07,-224.19 102.65,-224.67 94.69,-217.69 92.07,-224.19"/>
</a>
</g>
</g>
<!-- Node8 -->
<g id="Node000008" class="node">
<title>Node8</title>
<g id="a_Node000008"><a xlink:href="../../dc/d50/blas_8c.html#a93d327b9e3c8bd925ff76d32df39809c" target="_top" xlink:title=" ">
<polygon fill="white" stroke="#666666" points="169.62,-206.25 89.88,-206.25 89.88,-187 169.62,-187 169.62,-206.25"/>
<text xml:space="preserve" text-anchor="middle" x="129.75" y="-192.75" font-family="Helvetica,sans-Serif" font-size="10.00">matmul_cmplx</text>
</a>
</g>
</g>
<!-- Node1&#45;&gt;Node8 -->
<g id="edge7_Node000001_Node000008" class="edge">
<title>Node1&#45;&gt;Node8</title>
<g id="a_edge7_Node000001_Node000008"><a xlink:title=" ">
<path fill="none" stroke="#63b8ff" d="M46.47,-181.7C55.85,-183.4 67.15,-185.45 78.33,-187.48"/>
<polygon fill="#63b8ff" stroke="#63b8ff" points="77.45,-190.88 87.91,-189.22 78.7,-183.99 77.45,-190.88"/>
</a>
</g>
</g>
<!-- Node10 -->
<g id="Node000010" class="node">
<title>Node10</title>
<g id="a_Node000010"><a xlink:href="../../de/d2d/numerical__func_8c.html#adeeb2c0049b8e3663d2d2cc9f7a1cd23" target="_top" xlink:title=" ">
<polygon fill="white" stroke="#666666" points="158.75,-130.25 100.75,-130.25 100.75,-111 158.75,-111 158.75,-130.25"/>
<text xml:space="preserve" text-anchor="middle" x="129.75" y="-116.75" font-family="Helvetica,sans-Serif" font-size="10.00">MatVec3f</text>
</a>
</g>
</g>
<!-- Node1&#45;&gt;Node10 -->
<g id="edge9_Node000001_Node000010" class="edge">
<title>Node1&#45;&gt;Node10</title>
<g id="a_edge9_Node000001_Node000010"><a xlink:title=" ">
<path fill="none" stroke="#63b8ff" d="M41.15,-167.61C52.64,-160.97 68.14,-152.12 82,-144.62 87.28,-141.77 92.94,-138.79 98.43,-135.95"/>
<polygon fill="#63b8ff" stroke="#63b8ff" points="99.99,-139.09 107.28,-131.41 96.79,-132.86 99.99,-139.09"/>
</a>
</g>
</g>
<!-- Node11 -->
<g id="Node000011" class="node">
<title>Node11</title>
<g id="a_Node000011"><a xlink:href="../../d3/dcb/spline_8c.html#a45a8ed7b3085783bb1a463ff73637a30" target="_top" xlink:title=" ">
<polygon fill="white" stroke="#666666" points="175.62,-93.25 83.88,-93.25 83.88,-74 175.62,-74 175.62,-93.25"/>
<text xml:space="preserve" text-anchor="middle" x="129.75" y="-79.75" font-family="Helvetica,sans-Serif" font-size="10.00">spline_interpolate</text>
</a>
</g>
</g>
<!-- Node1&#45;&gt;Node11 -->
<g id="edge10_Node000001_Node000011" class="edge">
<title>Node1&#45;&gt;Node11</title>
<g id="a_edge10_Node000001_Node000011"><a xlink:title=" ">
<path fill="none" stroke="#63b8ff" d="M29.24,-167.58C38.08,-151.53 57.43,-120.04 82,-101.62 83.3,-100.65 84.67,-99.72 86.08,-98.83"/>
<polygon fill="#63b8ff" stroke="#63b8ff" points="87.33,-102.13 94.51,-94.33 84.04,-95.95 87.33,-102.13"/>
</a>
</g>
</g>
<!-- Node12 -->
<g id="Node000012" class="node">
<title>Node12</title>
<g id="a_Node000012"><a xlink:href="../../d7/d1a/planner_8c.html#ab24a0c92cd3342721b1c491ac85116e6" target="_top" xlink:title=" ">
<polygon fill="white" stroke="#666666" points="176,-56.25 83.5,-56.25 83.5,-37 176,-37 176,-56.25"/>
<text xml:space="preserve" text-anchor="middle" x="129.75" y="-42.75" font-family="Helvetica,sans-Serif" font-size="10.00">wfc_destroy_plan</text>
</a>
</g>
</g>
<!-- Node1&#45;&gt;Node12 -->
<g id="edge11_Node000001_Node000012" class="edge">
<title>Node1&#45;&gt;Node12</title>
<g id="a_edge11_Node000001_Node000012"><a xlink:title=" ">
<path fill="none" stroke="#63b8ff" d="M26.49,-167.68C32.42,-145.97 49.36,-93.96 82,-64.62 82.76,-63.94 83.56,-63.28 84.38,-62.64"/>
<polygon fill="#63b8ff" stroke="#63b8ff" points="85.98,-65.77 92.6,-57.5 82.27,-59.83 85.98,-65.77"/>
</a>
</g>
</g>
<!-- Node13 -->
<g id="Node000013" class="node">
<title>Node13</title>
<g id="a_Node000013"><a xlink:href="../../d7/d1a/planner_8c.html#a08f76b4b182067a8a93997877decdb27" target="_top" xlink:title=" ">
<polygon fill="white" stroke="#666666" points="157.25,-19.25 102.25,-19.25 102.25,0 157.25,0 157.25,-19.25"/>
<text xml:space="preserve" text-anchor="middle" x="129.75" y="-5.75" font-family="Helvetica,sans-Serif" font-size="10.00">wfc_plan</text>
</a>
</g>
</g>
<!-- Node1&#45;&gt;Node13 -->
<g id="edge12_Node000001_Node000013" class="edge">
<title>Node1&#45;&gt;Node13</title>
<g id="a_edge12_Node000001_Node000013"><a xlink:title=" ">
<path fill="none" stroke="#63b8ff" d="M25.07,-167.73C28.42,-141.33 41.1,-68.46 82,-27.62 84.79,-24.84 88.06,-22.47 91.56,-20.47"/>
<polygon fill="#63b8ff" stroke="#63b8ff" points="92.81,-23.75 100.4,-16.36 89.86,-17.4 92.81,-23.75"/>
</a>
</g>
</g>
<!-- Node7 -->
<g id="Node000007" class="node">
<title>Node7</title>
<g id="a_Node000007"><a xlink:href="../../d6/d7a/transpose_8c.html#ab4226b652ad962cca615394112f6d5b6" target="_top" xlink:title=" ">
<polygon fill="white" stroke="#666666" points="313.12,-243.25 231.12,-243.25 231.12,-224 313.12,-224 313.12,-243.25"/>
<text xml:space="preserve" text-anchor="middle" x="272.12" y="-229.75" font-family="Helvetica,sans-Serif" font-size="10.00">bwd_transpose</text>
</a>
</g>
</g>
<!-- Node6&#45;&gt;Node7 -->
<g id="edge6_Node000006_Node000007" class="edge">
<title>Node6&#45;&gt;Node7</title>
<g id="a_edge6_Node000006_Node000007"><a xlink:title=" ">
<path fill="none" stroke="#63b8ff" d="M155.2,-233.62C172.93,-233.62 197.55,-233.62 219.54,-233.62"/>
<polygon fill="#63b8ff" stroke="#63b8ff" points="219.24,-237.13 229.24,-233.63 219.24,-230.13 219.24,-237.13"/>
</a>
</g>
</g>
<!-- Node9 -->
<g id="Node000009" class="node">
<title>Node9</title>
<g id="a_Node000009"><a xlink:href="../../dc/d50/blas_8c.html#a913bafabc05e83b2aeed88da231a461f" target="_top" xlink:title=" ">
<polygon fill="white" stroke="#666666" points="311.25,-206.25 233,-206.25 233,-187 311.25,-187 311.25,-206.25"/>
<text xml:space="preserve" text-anchor="middle" x="272.12" y="-192.75" font-family="Helvetica,sans-Serif" font-size="10.00">get_gemmn_T</text>
</a>
</g>
</g>
<!-- Node8&#45;&gt;Node9 -->
<g id="edge8_Node000008_Node000009" class="edge">
<title>Node8&#45;&gt;Node9</title>
<g id="a_edge8_Node000008_Node000009"><a xlink:title=" ">
<path fill="none" stroke="#63b8ff" d="M169.85,-196.62C185.8,-196.62 204.44,-196.62 221.34,-196.62"/>
<polygon fill="#63b8ff" stroke="#63b8ff" points="221.2,-200.13 231.2,-196.63 221.2,-193.13 221.2,-200.13"/>
</a>
</g>
</g>
<!-- Node13&#45;&gt;Node5 -->
<g id="edge14_Node000013_Node000005" class="edge">
<title>Node13&#45;&gt;Node5</title>
<g id="a_edge14_Node000013_Node000005"><a xlink:title=" ">
<path fill="none" stroke="#63b8ff" d="M157.61,-18.34C164.3,-20.95 171.32,-24.07 177.5,-27.62 205.8,-43.88 234.53,-68.33 252.56,-84.86"/>
<polygon fill="#63b8ff" stroke="#63b8ff" points="250.15,-87.4 259.85,-91.66 254.93,-82.28 250.15,-87.4"/>
</a>
</g>
</g>
<!-- Node14 -->
<g id="Node000014" class="node">
<title>Node14</title>
<g id="a_Node000014"><a xlink:href="../../d7/d8e/align_8c.html#a00208b13e41d5ba8f2dfbea6dd749ba3" target="_top" xlink:title=" ">
<polygon fill="white" stroke="#666666" points="310.12,-19.25 234.12,-19.25 234.12,0 310.12,0 310.12,-19.25"/>
<text xml:space="preserve" text-anchor="middle" x="272.12" y="-5.75" font-family="Helvetica,sans-Serif" font-size="10.00">alignment_len</text>
</a>
</g>
</g>
<!-- Node13&#45;&gt;Node14 -->
<g id="edge13_Node000013_Node000014" class="edge">
<title>Node13&#45;&gt;Node14</title>
<g id="a_edge13_Node000013_Node000014"><a xlink:title=" ">
<path fill="none" stroke="#63b8ff" d="M157.48,-9.62C175.82,-9.62 200.69,-9.62 222.49,-9.62"/>
<polygon fill="#63b8ff" stroke="#63b8ff" points="222.37,-13.13 232.37,-9.63 222.37,-6.13 222.37,-13.13"/>
</a>
</g>
</g>
</g>
</svg>
</svg>

<style type='text/css'>
<![CDATA[
[data-mouse-over-selected='false'] { opacity: 0.7; }
[data-mouse-over-selected='true']  { opacity: 1.0; }
]]>
</style>
<script type="application/ecmascript"><![CDATA[
document.addEventListener('DOMContentLoaded', (event) => {
  highlightEdges();
  highlightAdjacentNodes();
});
]]></script>
</svg>
