<?xml version="1.0" encoding="UTF-8" standalone="no"?>
<!DOCTYPE svg PUBLIC "-//W3C//DTD SVG 1.1//EN"
 "http://www.w3.org/Graphics/SVG/1.1/DTD/svg11.dtd">
<!-- Generated by graphviz version 14.0.0 (20250921.2048)
 -->
<!-- Title: dVlong_range_kernel Pages: 1 -->
<svg width="358pt" height="64pt"
 viewBox="0.00 0.00 358.00 64.00" xmlns="http://www.w3.org/2000/svg" xmlns:xlink="http://www.w3.org/1999/xlink">

<svg id="main" version="1.1" xmlns="http://www.w3.org/2000/svg" xmlns:xlink="http://www.w3.org/1999/xlink" xml:space="preserve">

<style type="text/css"><![CDATA[
.node, .edge {opacity: 0.7;}
.node.selected, .edge.selected {opacity: 1;}
.edge:hover path { stroke: red; }
.edge:hover polygon { stroke: red; fill: red; }
]]></style>
<script type="application/ecmascript" xlink:href="../../svg.min.js"/>
<svg id="graph" class="graph">
<g id="graph0" class="graph" transform="scale(1 1) rotate(0) translate(4 60.25)">
<title>dVlong_range_kernel</title>
<!-- Node1 -->
<g id="Node000001" class="node">
<title>Node1</title>
<g id="a_Node000001"><a xlink:title=" ">
<polygon fill="#999999" stroke="#666666" points="106.75,-37.25 0,-37.25 0,-18 106.75,-18 106.75,-37.25"/>
<text xml:space="preserve" text-anchor="middle" x="53.38" y="-23.75" font-family="Helvetica,sans-Serif" font-size="10.00">dVlong_range_kernel</text>
</a>
</g>
</g>
<!-- Node2 -->
<g id="Node000002" class="node">
<title>Node2</title>
<g id="a_Node000002"><a xlink:href="../../d9/def/d_vlong__range__kernel_8c.html#ab6fc4d219e176d7ee3b31281533f20b0" target="_top" xlink:title=" ">
<polygon fill="white" stroke="#666666" points="255.5,-56.25 142.75,-56.25 142.75,-37 255.5,-37 255.5,-56.25"/>
<text xml:space="preserve" text-anchor="middle" x="199.12" y="-42.75" font-family="Helvetica,sans-Serif" font-size="10.00">long_range_2D_kernel</text>
</a>
</g>
</g>
<!-- Node1&#45;&gt;Node2 -->
<g id="edge1_Node000001_Node000002" class="edge">
<title>Node1&#45;&gt;Node2</title>
<g id="a_edge1_Node000001_Node000002"><a xlink:title=" ">
<path fill="none" stroke="#63b8ff" d="M107.09,-34.59C114.93,-35.63 123.1,-36.71 131.19,-37.78"/>
<polygon fill="#63b8ff" stroke="#63b8ff" points="130.65,-41.24 141.02,-39.08 131.57,-34.3 130.65,-41.24"/>
</a>
</g>
</g>
<!-- Node4 -->
<g id="Node000004" class="node">
<title>Node4</title>
<g id="a_Node000004"><a xlink:href="../../d9/def/d_vlong__range__kernel_8c.html#a13191f35714f8bd3cbfbedc8d37090f9" target="_top" xlink:title=" ">
<polygon fill="white" stroke="#666666" points="255.5,-19.25 142.75,-19.25 142.75,0 255.5,0 255.5,-19.25"/>
<text xml:space="preserve" text-anchor="middle" x="199.12" y="-5.75" font-family="Helvetica,sans-Serif" font-size="10.00">long_range_3D_kernel</text>
</a>
</g>
</g>
<!-- Node1&#45;&gt;Node4 -->
<g id="edge3_Node000001_Node000004" class="edge">
<title>Node1&#45;&gt;Node4</title>
<g id="a_edge3_Node000001_Node000004"><a xlink:title=" ">
<path fill="none" stroke="#63b8ff" d="M107.09,-21.02C114.93,-20.04 123.1,-19.02 131.19,-18.01"/>
<polygon fill="#63b8ff" stroke="#63b8ff" points="131.53,-21.49 141.02,-16.78 130.66,-14.55 131.53,-21.49"/>
</a>
</g>
</g>
<!-- Node3 -->
<g id="Node000003" class="node">
<title>Node3</title>
<g id="a_Node000003"><a xlink:href="../../de/d2d/numerical__func_8c.html#adeeb2c0049b8e3663d2d2cc9f7a1cd23" target="_top" xlink:title=" ">
<polygon fill="white" stroke="#666666" points="349.5,-37.25 291.5,-37.25 291.5,-18 349.5,-18 349.5,-37.25"/>
<text xml:space="preserve" text-anchor="middle" x="320.5" y="-23.75" font-family="Helvetica,sans-Serif" font-size="10.00">MatVec3f</text>
</a>
</g>
</g>
<!-- Node2&#45;&gt;Node3 -->
<g id="edge2_Node000002_Node000003" class="edge">
<title>Node2&#45;&gt;Node3</title>
<g id="a_edge2_Node000002_Node000003"><a xlink:title=" ">
<path fill="none" stroke="#63b8ff" d="M255.97,-37.74C264.11,-36.44 272.34,-35.13 280.07,-33.9"/>
<polygon fill="#63b8ff" stroke="#63b8ff" points="280.49,-37.38 289.82,-32.35 279.39,-30.46 280.49,-37.38"/>
</a>
</g>
</g>
<!-- Node4&#45;&gt;Node3 -->
<g id="edge4_Node000004_Node000003" class="edge">
<title>Node4&#45;&gt;Node3</title>
<g id="a_edge4_Node000004_Node000003"><a xlink:title=" ">
<path fill="none" stroke="#63b8ff" d="M255.97,-18.05C264.11,-19.27 272.34,-20.51 280.07,-21.68"/>
<polygon fill="#63b8ff" stroke="#63b8ff" points="279.41,-25.12 289.82,-23.15 280.45,-18.2 279.41,-25.12"/>
</a>
</g>
</g>
</g>
</svg>
</svg>

<style type='text/css'>
<![CDATA[
[data-mouse-over-selected='false'] { opacity: 0.7; }
[data-mouse-over-selected='true']  { opacity: 1.0; }
]]>
</style>
<script type="application/ecmascript"><![CDATA[
document.addEventListener('DOMContentLoaded', (event) => {
  highlightEdges();
  highlightAdjacentNodes();
});
]]></script>
</svg>
