<?xml version="1.0" encoding="UTF-8" standalone="no"?>
<!DOCTYPE svg PUBLIC "-//W3C//DTD SVG 1.1//EN"
 "http://www.w3.org/Graphics/SVG/1.1/DTD/svg11.dtd">
<!-- Generated by graphviz version 14.0.0 (20250921.2048)
 -->
<!-- Title: elphLocal Pages: 1 -->
<!--zoomable 474 -->

<svg id="main" version="1.1" xmlns="http://www.w3.org/2000/svg" xmlns:xlink="http://www.w3.org/1999/xlink" xml:space="preserve" onload="init(evt)">

<style type="text/css"><![CDATA[
.node, .edge {opacity: 0.7;}
.node.selected, .edge.selected {opacity: 1;}
.edge:hover path { stroke: red; }
.edge:hover polygon { stroke: red; fill: red; }
]]></style>

<defs>
  <circle id="rim" cx="0" cy="0" r="7"/>
  <circle id="rim2" cx="0" cy="0" r="3.5"/>
  <g id="zoomPlus">
    <use xlink:href="#rim" fill="#404040"><set attributeName="fill" to="#808080" begin="zoomplus.mouseover" end="zoomplus.mouseout"/></use>
    <path d="M-4,0h8M0,-4v8" fill="none" stroke="white" stroke-width="1.5" pointer-events="none"/>
  </g>
  <g id="zoomMin">
    <use xlink:href="#rim" fill="#404040"><set attributeName="fill" to="#808080" begin="zoomminus.mouseover" end="zoomminus.mouseout"/></use>
    <path d="M-4,0h8" fill="none" stroke="white" stroke-width="1.5" pointer-events="none"/>
  </g>
  <g id="arrowUp" transform="translate(30 24)">
    <use xlink:href="#rim"/>
    <path pointer-events="none" fill="none" stroke="white" stroke-width="1.5" d="M0,-3.0v7 M-2.5,-0.5L0,-3.0L2.5,-0.5"/>
  </g>
  <g id="arrowRight" transform="rotate(90) translate(36 -43)">
    <use xlink:href="#rim"/>
    <path pointer-events="none" fill="none" stroke="white" stroke-width="1.5" d="M0,-3.0v7 M-2.5,-0.5L0,-3.0L2.5,-0.5"/>
  </g>
  <g id="arrowDown" transform="rotate(180) translate(-30 -48)">
    <use xlink:href="#rim"/>
    <path pointer-events="none" fill="none" stroke="white" stroke-width="1.5" d="M0,-3.0v7 M-2.5,-0.5L0,-3.0L2.5,-0.5"/>
  </g>
  <g id="arrowLeft" transform="rotate(270) translate(-36 17)">
    <use xlink:href="#rim"/>
    <path pointer-events="none" fill="none" stroke="white" stroke-width="1.5" d="M0,-3.0v7 M-2.5,-0.5L0,-3.0L2.5,-0.5"/>
  </g>
  <g id="resetDef">
    <use xlink:href="#rim2" fill="#404040"><set attributeName="fill" to="#808080" begin="reset.mouseover" end="reset.mouseout"/></use>
  </g>
</defs>
<script type="application/ecmascript">
var viewWidth = 464;
var viewHeight = 474;
var sectionId = 'dynsection-13';
</script>
<script type="application/ecmascript" xlink:href="../../svg.min.js"/>
<svg id="graph" class="graph">
<g id="viewport">
<title>elphLocal</title>
<!-- Node1 -->
<g id="Node000001" class="node">
<title>Node1</title>
<g id="a_Node000001"><a xlink:title=" ">
<polygon fill="#999999" stroke="#666666" points="57.25,-243.25 0,-243.25 0,-224 57.25,-224 57.25,-243.25"/>
<text xml:space="preserve" text-anchor="middle" x="28.62" y="-229.75" font-family="Helvetica,sans-Serif" font-size="10.00">elphLocal</text>
</a>
</g>
</g>
<!-- Node2 -->
<g id="Node000002" class="node">
<title>Node2</title>
<g id="a_Node000002"><a xlink:href="../../db/d7a/trans__wfc_8c.html#a481ceff1e11d889b6a9e302c9546b05d" target="_top" xlink:title=" ">
<polygon fill="white" stroke="#666666" points="184.62,-466.25 97.38,-466.25 97.38,-447 184.62,-447 184.62,-466.25"/>
<text xml:space="preserve" text-anchor="middle" x="141" y="-452.75" font-family="Helvetica,sans-Serif" font-size="10.00">apply_trans_wfc</text>
</a>
</g>
</g>
<!-- Node1&#45;&gt;Node2 -->
<g id="edge1_Node000001_Node000002" class="edge">
<title>Node1&#45;&gt;Node2</title>
<g id="a_edge1_Node000001_Node000002"><a xlink:title=" ">
<path fill="none" stroke="#63b8ff" d="M29.8,-243.67C30.91,-276.26 38.77,-380.39 93.25,-438.62 93.62,-439.02 94,-439.41 94.39,-439.79"/>
<polygon fill="#63b8ff" stroke="#63b8ff" points="92.32,-442.61 102.45,-445.69 96.45,-436.96 92.32,-442.61"/>
</a>
</g>
</g>
<!-- Node3 -->
<g id="Node000003" class="node">
<title>Node3</title>
<g id="a_Node000003"><a xlink:href="../../da/d97/_e_l_p_h__timers_8c.html#a4846a0dbe6a17751878baf1315af43aa" target="_top" xlink:title=" ">
<polygon fill="white" stroke="#666666" points="188.75,-429.25 93.25,-429.25 93.25,-410 188.75,-410 188.75,-429.25"/>
<text xml:space="preserve" text-anchor="middle" x="141" y="-415.75" font-family="Helvetica,sans-Serif" font-size="10.00">ELPH_start_clock</text>
</a>
</g>
</g>
<!-- Node1&#45;&gt;Node3 -->
<g id="edge2_Node000001_Node000003" class="edge">
<title>Node1&#45;&gt;Node3</title>
<g id="a_edge2_Node000001_Node000003"><a xlink:title=" ">
<path fill="none" stroke="#63b8ff" d="M30.58,-243.45C33.84,-271.89 47.07,-355.19 93.25,-401.62 93.85,-402.23 94.47,-402.81 95.11,-403.37"/>
<polygon fill="#63b8ff" stroke="#63b8ff" points="92.84,-406.06 103.08,-408.81 96.79,-400.28 92.84,-406.06"/>
</a>
</g>
</g>
<!-- Node4 -->
<g id="Node000004" class="node">
<title>Node4</title>
<g id="a_Node000004"><a xlink:href="../../da/d97/_e_l_p_h__timers_8c.html#adcc3002449fe62895b6e89571d00ba48" target="_top" xlink:title=" ">
<polygon fill="white" stroke="#666666" points="188.38,-392.25 93.62,-392.25 93.62,-373 188.38,-373 188.38,-392.25"/>
<text xml:space="preserve" text-anchor="middle" x="141" y="-378.75" font-family="Helvetica,sans-Serif" font-size="10.00">ELPH_stop_clock</text>
</a>
</g>
</g>
<!-- Node1&#45;&gt;Node4 -->
<g id="edge3_Node000001_Node000004" class="edge">
<title>Node1&#45;&gt;Node4</title>
<g id="a_edge3_Node000001_Node000004"><a xlink:title=" ">
<path fill="none" stroke="#63b8ff" d="M31.82,-243.68C37.59,-267.87 55.45,-329.9 93.25,-364.62 94.01,-365.32 94.79,-365.99 95.6,-366.63"/>
<polygon fill="#63b8ff" stroke="#63b8ff" points="93.47,-369.43 103.79,-371.82 97.21,-363.51 93.47,-369.43"/>
</a>
</g>
</g>
<!-- Node5 -->
<g id="Node000005" class="node">
<title>Node5</title>
<g id="a_Node000005"><a xlink:href="../../d1/d31/convolution_8c.html#a7bc535f48e9ce5caeee906d3484f229c" target="_top" xlink:title=" ">
<polygon fill="white" stroke="#666666" points="187.25,-355.25 94.75,-355.25 94.75,-336 187.25,-336 187.25,-355.25"/>
<text xml:space="preserve" text-anchor="middle" x="141" y="-341.75" font-family="Helvetica,sans-Serif" font-size="10.00">fft_convolution3D</text>
</a>
</g>
</g>
<!-- Node1&#45;&gt;Node5 -->
<g id="edge4_Node000001_Node000005" class="edge">
<title>Node1&#45;&gt;Node5</title>
<g id="a_edge4_Node000001_Node000005"><a xlink:title=" ">
<path fill="none" stroke="#63b8ff" d="M33.88,-243.6C42.43,-262.55 63.48,-303.96 93.25,-327.62 94.36,-328.51 95.52,-329.35 96.72,-330.16"/>
<polygon fill="#63b8ff" stroke="#63b8ff" points="94.69,-333.04 105.13,-334.87 98.12,-326.93 94.69,-333.04"/>
</a>
</g>
</g>
<!-- Node7 -->
<g id="Node000007" class="node">
<title>Node7</title>
<g id="a_Node000007"><a xlink:href="../../dd/dc9/bwdfft_8c.html#ad3a34c33ba91c3026025fdc4ffe3f97b" target="_top" xlink:title=" ">
<polygon fill="white" stroke="#666666" points="166.25,-318.25 115.75,-318.25 115.75,-299 166.25,-299 166.25,-318.25"/>
<text xml:space="preserve" text-anchor="middle" x="141" y="-304.75" font-family="Helvetica,sans-Serif" font-size="10.00">invfft3D</text>
</a>
</g>
</g>
<!-- Node1&#45;&gt;Node7 -->
<g id="edge6_Node000001_Node000007" class="edge">
<title>Node1&#45;&gt;Node7</title>
<g id="a_edge6_Node000001_Node000007"><a xlink:title=" ">
<path fill="none" stroke="#63b8ff" d="M38.65,-243.71C50.25,-256.16 71.49,-277.31 93.25,-290.62 96.88,-292.84 100.82,-294.87 104.83,-296.7"/>
<polygon fill="#63b8ff" stroke="#63b8ff" points="103.45,-299.91 114.03,-300.49 106.12,-293.44 103.45,-299.91"/>
</a>
</g>
</g>
<!-- Node9 -->
<g id="Node000009" class="node">
<title>Node9</title>
<g id="a_Node000009"><a xlink:href="../../dc/d50/blas_8c.html#a93d327b9e3c8bd925ff76d32df39809c" target="_top" xlink:title=" ">
<polygon fill="white" stroke="#666666" points="323.25,-205.25 243.5,-205.25 243.5,-186 323.25,-186 323.25,-205.25"/>
<text xml:space="preserve" text-anchor="middle" x="283.38" y="-191.75" font-family="Helvetica,sans-Serif" font-size="10.00">matmul_cmplx</text>
</a>
</g>
</g>
<!-- Node1&#45;&gt;Node9 -->
<g id="edge8_Node000001_Node000009" class="edge">
<title>Node1&#45;&gt;Node9</title>
<g id="a_edge8_Node000001_Node000009"><a xlink:title=" ">
<path fill="none" stroke="#63b8ff" d="M57.64,-229.41C99.58,-223.11 179.35,-211.11 231.69,-203.25"/>
<polygon fill="#63b8ff" stroke="#63b8ff" points="232.2,-206.71 241.57,-201.76 231.16,-199.79 232.2,-206.71"/>
</a>
</g>
</g>
<!-- Node11 -->
<g id="Node000011" class="node">
<title>Node11</title>
<g id="a_Node000011"><a xlink:href="../../de/d2d/numerical__func_8c.html#adeeb2c0049b8e3663d2d2cc9f7a1cd23" target="_top" xlink:title=" ">
<polygon fill="white" stroke="#666666" points="312.38,-242.25 254.38,-242.25 254.38,-223 312.38,-223 312.38,-242.25"/>
<text xml:space="preserve" text-anchor="middle" x="283.38" y="-228.75" font-family="Helvetica,sans-Serif" font-size="10.00">MatVec3f</text>
</a>
</g>
</g>
<!-- Node1&#45;&gt;Node11 -->
<g id="edge10_Node000001_Node000011" class="edge">
<title>Node1&#45;&gt;Node11</title>
<g id="a_edge10_Node000001_Node000011"><a xlink:title=" ">
<path fill="none" stroke="#63b8ff" d="M57.64,-233.51C102.71,-233.34 191.47,-232.98 242.93,-232.78"/>
<polygon fill="#63b8ff" stroke="#63b8ff" points="242.74,-236.28 252.72,-232.74 242.71,-229.28 242.74,-236.28"/>
</a>
</g>
</g>
<!-- Node12 -->
<g id="Node000012" class="node">
<title>Node12</title>
<g id="a_Node000012"><a xlink:href="../../d7/dd7/rotate___gvecs_8c.html#a3777530f5d55d899b796fb4e462b512f" target="_top" xlink:title=" ">
<polygon fill="white" stroke="#666666" points="175.62,-281.25 106.38,-281.25 106.38,-262 175.62,-262 175.62,-281.25"/>
<text xml:space="preserve" text-anchor="middle" x="141" y="-267.75" font-family="Helvetica,sans-Serif" font-size="10.00">rotateGvecs</text>
</a>
</g>
</g>
<!-- Node1&#45;&gt;Node12 -->
<g id="edge11_Node000001_Node000012" class="edge">
<title>Node1&#45;&gt;Node12</title>
<g id="a_edge11_Node000001_Node000012"><a xlink:title=" ">
<path fill="none" stroke="#63b8ff" d="M57.48,-243.21C70.28,-247.62 85.7,-252.93 99.73,-257.76"/>
<polygon fill="#63b8ff" stroke="#63b8ff" points="98.59,-261.07 109.18,-261.01 100.86,-254.45 98.59,-261.07"/>
</a>
</g>
</g>
<!-- Node15 -->
<g id="Node000015" class="node">
<title>Node15</title>
<g id="a_Node000015"><a xlink:href="../../d8/dfb/sortpw_8c.html#a2fcaf6a94fa8abd8c1cff8aa13328266" target="_top" xlink:title=" ">
<polygon fill="white" stroke="#666666" points="167,-130.25 115,-130.25 115,-111 167,-111 167,-130.25"/>
<text xml:space="preserve" text-anchor="middle" x="141" y="-116.75" font-family="Helvetica,sans-Serif" font-size="10.00">Sort_pw</text>
</a>
</g>
</g>
<!-- Node1&#45;&gt;Node15 -->
<g id="edge16_Node000001_Node000015" class="edge">
<title>Node1&#45;&gt;Node15</title>
<g id="a_edge16_Node000001_Node000015"><a xlink:title=" ">
<path fill="none" stroke="#63b8ff" d="M33.85,-223.54C42.36,-204.39 63.32,-162.54 93.25,-138.62 96.57,-135.97 100.33,-133.68 104.23,-131.7"/>
<polygon fill="#63b8ff" stroke="#63b8ff" points="105.53,-134.95 113.33,-127.77 102.76,-128.52 105.53,-134.95"/>
</a>
</g>
</g>
<!-- Node19 -->
<g id="Node000019" class="node">
<title>Node19</title>
<g id="a_Node000019"><a xlink:href="../../dc/d77/su2mat_8c.html#a54f9aa61f40686918a52909936a101af" target="_top" xlink:title=" ">
<polygon fill="white" stroke="#666666" points="167,-167.25 115,-167.25 115,-148 167,-148 167,-167.25"/>
<text xml:space="preserve" text-anchor="middle" x="141" y="-153.75" font-family="Helvetica,sans-Serif" font-size="10.00">SU2mat</text>
</a>
</g>
</g>
<!-- Node1&#45;&gt;Node19 -->
<g id="edge20_Node000001_Node000019" class="edge">
<title>Node1&#45;&gt;Node19</title>
<g id="a_edge20_Node000001_Node000019"><a xlink:title=" ">
<path fill="none" stroke="#63b8ff" d="M40.34,-223.67C52.57,-212.61 73.44,-194.6 93.25,-181.62 97.87,-178.6 102.92,-175.66 107.94,-172.94"/>
<polygon fill="#63b8ff" stroke="#63b8ff" points="109.44,-176.1 116.71,-168.39 106.22,-169.89 109.44,-176.1"/>
</a>
</g>
</g>
<!-- Node22 -->
<g id="Node000022" class="node">
<title>Node22</title>
<g id="a_Node000022"><a xlink:href="../../dd/d51/su2rotate_8c.html#aa1ec05c745d2b15aa7e535268eee2ca1" target="_top" xlink:title=" ">
<polygon fill="white" stroke="#666666" points="169.25,-93.25 112.75,-93.25 112.75,-74 169.25,-74 169.25,-93.25"/>
<text xml:space="preserve" text-anchor="middle" x="141" y="-79.75" font-family="Helvetica,sans-Serif" font-size="10.00">su2rotate</text>
</a>
</g>
</g>
<!-- Node1&#45;&gt;Node22 -->
<g id="edge23_Node000001_Node000022" class="edge">
<title>Node1&#45;&gt;Node22</title>
<g id="a_edge23_Node000001_Node000022"><a xlink:title=" ">
<path fill="none" stroke="#63b8ff" d="M31.71,-223.85C37.34,-199.73 55.09,-136.79 93.25,-101.62 95.85,-99.23 98.81,-97.14 101.94,-95.32"/>
<polygon fill="#63b8ff" stroke="#63b8ff" points="103.43,-98.48 110.96,-91.03 100.42,-92.16 103.43,-98.48"/>
</a>
</g>
</g>
<!-- Node23 -->
<g id="Node000023" class="node">
<title>Node23</title>
<g id="a_Node000023"><a xlink:href="../../d7/d1a/planner_8c.html#ab24a0c92cd3342721b1c491ac85116e6" target="_top" xlink:title=" ">
<polygon fill="white" stroke="#666666" points="187.25,-56.25 94.75,-56.25 94.75,-37 187.25,-37 187.25,-56.25"/>
<text xml:space="preserve" text-anchor="middle" x="141" y="-42.75" font-family="Helvetica,sans-Serif" font-size="10.00">wfc_destroy_plan</text>
</a>
</g>
</g>
<!-- Node1&#45;&gt;Node23 -->
<g id="edge24_Node000001_Node000023" class="edge">
<title>Node1&#45;&gt;Node23</title>
<g id="a_edge24_Node000001_Node000023"><a xlink:title=" ">
<path fill="none" stroke="#63b8ff" d="M30.56,-223.74C33.77,-195.14 46.87,-111.35 93.25,-64.62 93.85,-64.02 94.47,-63.44 95.11,-62.88"/>
<polygon fill="#63b8ff" stroke="#63b8ff" points="96.79,-65.97 103.07,-57.44 92.84,-60.19 96.79,-65.97"/>
</a>
</g>
</g>
<!-- Node24 -->
<g id="Node000024" class="node">
<title>Node24</title>
<g id="a_Node000024"><a xlink:href="../../d7/d1a/planner_8c.html#a08f76b4b182067a8a93997877decdb27" target="_top" xlink:title=" ">
<polygon fill="white" stroke="#666666" points="168.5,-19.25 113.5,-19.25 113.5,0 168.5,0 168.5,-19.25"/>
<text xml:space="preserve" text-anchor="middle" x="141" y="-5.75" font-family="Helvetica,sans-Serif" font-size="10.00">wfc_plan</text>
</a>
</g>
</g>
<!-- Node1&#45;&gt;Node24 -->
<g id="edge25_Node000001_Node000024" class="edge">
<title>Node1&#45;&gt;Node24</title>
<g id="a_edge25_Node000001_Node000024"><a xlink:title=" ">
<path fill="none" stroke="#63b8ff" d="M29.79,-223.54C30.85,-190.78 38.57,-86.16 93.25,-27.62 96.01,-24.68 99.3,-22.2 102.84,-20.13"/>
<polygon fill="#63b8ff" stroke="#63b8ff" points="104.29,-23.32 111.89,-15.94 101.34,-16.97 104.29,-23.32"/>
</a>
</g>
</g>
<!-- Node6 -->
<g id="Node000006" class="node">
<title>Node6</title>
<g id="a_Node000006"><a xlink:href="../../d6/d7a/transpose_8c.html#aa5ca0505a10ef36d59ddcf5e74af9d7d" target="_top" xlink:title=" ">
<polygon fill="white" stroke="#666666" points="323.25,-390.25 243.5,-390.25 243.5,-371 323.25,-371 323.25,-390.25"/>
<text xml:space="preserve" text-anchor="middle" x="283.38" y="-376.75" font-family="Helvetica,sans-Serif" font-size="10.00">fwd_transpose</text>
</a>
</g>
</g>
<!-- Node5&#45;&gt;Node6 -->
<g id="edge5_Node000005_Node000006" class="edge">
<title>Node5&#45;&gt;Node6</title>
<g id="a_edge5_Node000005_Node000006"><a xlink:title=" ">
<path fill="none" stroke="#63b8ff" d="M182.6,-355.75C198.13,-359.62 216.02,-364.08 232.33,-368.15"/>
<polygon fill="#63b8ff" stroke="#63b8ff" points="231.3,-371.5 241.84,-370.52 232.99,-364.7 231.3,-371.5"/>
</a>
</g>
</g>
<!-- Node8 -->
<g id="Node000008" class="node">
<title>Node8</title>
<g id="a_Node000008"><a xlink:href="../../d6/d7a/transpose_8c.html#ab4226b652ad962cca615394112f6d5b6" target="_top" xlink:title=" ">
<polygon fill="white" stroke="#666666" points="324.38,-353.25 242.38,-353.25 242.38,-334 324.38,-334 324.38,-353.25"/>
<text xml:space="preserve" text-anchor="middle" x="283.38" y="-339.75" font-family="Helvetica,sans-Serif" font-size="10.00">bwd_transpose</text>
</a>
</g>
</g>
<!-- Node7&#45;&gt;Node8 -->
<g id="edge7_Node000007_Node000008" class="edge">
<title>Node7&#45;&gt;Node8</title>
<g id="a_edge7_Node000007_Node000008"><a xlink:title=" ">
<path fill="none" stroke="#63b8ff" d="M166.45,-314.72C184.26,-319.16 209.02,-325.34 231.09,-330.84"/>
<polygon fill="#63b8ff" stroke="#63b8ff" points="229.98,-334.17 240.53,-333.19 231.68,-327.38 229.98,-334.17"/>
</a>
</g>
</g>
<!-- Node10 -->
<g id="Node000010" class="node">
<title>Node10</title>
<g id="a_Node000010"><a xlink:href="../../dc/d50/blas_8c.html#a913bafabc05e83b2aeed88da231a461f" target="_top" xlink:title=" ">
<polygon fill="white" stroke="#666666" points="456.25,-260.25 378,-260.25 378,-241 456.25,-241 456.25,-260.25"/>
<text xml:space="preserve" text-anchor="middle" x="417.12" y="-246.75" font-family="Helvetica,sans-Serif" font-size="10.00">get_gemmn_T</text>
</a>
</g>
</g>
<!-- Node9&#45;&gt;Node10 -->
<g id="edge9_Node000009_Node000010" class="edge">
<title>Node9&#45;&gt;Node10</title>
<g id="a_edge9_Node000009_Node000010"><a xlink:title=" ">
<path fill="none" stroke="#63b8ff" d="M319.74,-205.69C327.17,-208.07 334.9,-210.77 342,-213.62 357.48,-219.86 374.14,-228.04 387.75,-235.12"/>
<polygon fill="#63b8ff" stroke="#63b8ff" points="386.11,-238.21 396.58,-239.8 389.38,-232.03 386.11,-238.21"/>
</a>
</g>
</g>
<!-- Node12&#45;&gt;Node11 -->
<g id="edge15_Node000012_Node000011" class="edge">
<title>Node12&#45;&gt;Node11</title>
<g id="a_edge15_Node000012_Node000011"><a xlink:title=" ">
<path fill="none" stroke="#63b8ff" d="M175.98,-262.18C196.2,-256.57 221.94,-249.41 243.04,-243.55"/>
<polygon fill="#63b8ff" stroke="#63b8ff" points="243.75,-246.99 252.45,-240.94 241.88,-240.24 243.75,-246.99"/>
</a>
</g>
</g>
<!-- Node13 -->
<g id="Node000013" class="node">
<title>Node13</title>
<g id="a_Node000013"><a xlink:href="../../de/d2d/numerical__func_8c.html#af511a32007a9865999d8bcf06cfff1dc" target="_top" xlink:title=" ">
<polygon fill="white" stroke="#666666" points="315.38,-279.25 251.38,-279.25 251.38,-260 315.38,-260 315.38,-279.25"/>
<text xml:space="preserve" text-anchor="middle" x="283.38" y="-265.75" font-family="Helvetica,sans-Serif" font-size="10.00">Gemm3x3f</text>
</a>
</g>
</g>
<!-- Node12&#45;&gt;Node13 -->
<g id="edge12_Node000012_Node000013" class="edge">
<title>Node12&#45;&gt;Node13</title>
<g id="a_edge12_Node000012_Node000013"><a xlink:title=" ">
<path fill="none" stroke="#63b8ff" d="M175.98,-271.14C195.2,-270.87 219.4,-270.52 239.87,-270.23"/>
<polygon fill="#63b8ff" stroke="#63b8ff" points="239.64,-273.73 249.59,-270.09 239.54,-266.73 239.64,-273.73"/>
</a>
</g>
</g>
<!-- Node14 -->
<g id="Node000014" class="node">
<title>Node14</title>
<g id="a_Node000014"><a xlink:href="../../dc/d50/blas_8c.html#afca62df4906b4070e12af84f53906dc8" target="_top" xlink:title=" ">
<polygon fill="white" stroke="#666666" points="319.5,-316.25 247.25,-316.25 247.25,-297 319.5,-297 319.5,-316.25"/>
<text xml:space="preserve" text-anchor="middle" x="283.38" y="-302.75" font-family="Helvetica,sans-Serif" font-size="10.00">matmul_float</text>
</a>
</g>
</g>
<!-- Node12&#45;&gt;Node14 -->
<g id="edge13_Node000012_Node000014" class="edge">
<title>Node12&#45;&gt;Node14</title>
<g id="a_edge13_Node000012_Node000014"><a xlink:title=" ">
<path fill="none" stroke="#63b8ff" d="M175.98,-280.1C194.02,-284.6 216.46,-290.19 236.07,-295.08"/>
<polygon fill="#63b8ff" stroke="#63b8ff" points="235.22,-298.48 245.77,-297.5 236.92,-291.68 235.22,-298.48"/>
</a>
</g>
</g>
<!-- Node14&#45;&gt;Node10 -->
<g id="edge14_Node000014_Node000010" class="edge">
<title>Node14&#45;&gt;Node10</title>
<g id="a_edge14_Node000014_Node000010"><a xlink:title=" ">
<path fill="none" stroke="#63b8ff" d="M319.76,-296.62C327.19,-294.23 334.92,-291.52 342,-288.62 357.89,-282.12 374.99,-273.48 388.75,-266.08"/>
<polygon fill="#63b8ff" stroke="#63b8ff" points="390.13,-269.31 397.23,-261.44 386.77,-263.17 390.13,-269.31"/>
</a>
</g>
</g>
<!-- Node16 -->
<g id="Node000016" class="node">
<title>Node16</title>
<g id="a_Node000016"><a xlink:href="../../d9/d54/parallel_8c.html#a772905c8b6c33d03f3c8eb15bafdb129" target="_top" xlink:title=" ">
<polygon fill="white" stroke="#666666" points="342,-57.25 224.75,-57.25 224.75,-38 342,-38 342,-57.25"/>
<text xml:space="preserve" text-anchor="middle" x="283.38" y="-43.75" font-family="Helvetica,sans-Serif" font-size="10.00">get_mpi_local_size_idx</text>
</a>
</g>
</g>
<!-- Node15&#45;&gt;Node16 -->
<g id="edge17_Node000015_Node000016" class="edge">
<title>Node15&#45;&gt;Node16</title>
<g id="a_edge17_Node000015_Node000016"><a xlink:title=" ">
<path fill="none" stroke="#63b8ff" d="M167.24,-113.17C174.5,-110.44 182.22,-106.94 188.75,-102.62 207.9,-89.99 205.2,-77.64 224.75,-65.62 226.74,-64.4 228.82,-63.26 230.95,-62.19"/>
<polygon fill="#63b8ff" stroke="#63b8ff" points="232.13,-65.49 239.89,-58.28 229.32,-59.08 232.13,-65.49"/>
</a>
</g>
</g>
<!-- Node17 -->
<g id="Node000017" class="node">
<title>Node17</title>
<g id="a_Node000017"><a xlink:href="../../da/d8e/gsort_8c.html#a2d5639e333298697b46460b96fb5afa2" target="_top" xlink:title=" ">
<polygon fill="white" stroke="#666666" points="333,-94.25 233.75,-94.25 233.75,-75 333,-75 333,-94.25"/>
<text xml:space="preserve" text-anchor="middle" x="283.38" y="-80.75" font-family="Helvetica,sans-Serif" font-size="10.00">Sorted_gvecs_idxs</text>
</a>
</g>
</g>
<!-- Node15&#45;&gt;Node17 -->
<g id="edge18_Node000015_Node000017" class="edge">
<title>Node15&#45;&gt;Node17</title>
<g id="a_edge18_Node000015_Node000017"><a xlink:title=" ">
<path fill="none" stroke="#63b8ff" d="M167.42,-114.11C185.38,-109.5 210.06,-103.17 231.95,-97.56"/>
<polygon fill="#63b8ff" stroke="#63b8ff" points="232.81,-100.95 241.63,-95.08 231.07,-94.17 232.81,-100.95"/>
</a>
</g>
</g>
<!-- Node18 -->
<g id="Node000018" class="node">
<title>Node18</title>
<g id="a_Node000018"><a xlink:href="../../da/d8e/gsort_8c.html#ae4011b78967f043178d768cab29ef747" target="_top" xlink:title=" ">
<polygon fill="white" stroke="#666666" points="448,-94.25 386.25,-94.25 386.25,-75 448,-75 448,-94.25"/>
<text xml:space="preserve" text-anchor="middle" x="417.12" y="-80.75" font-family="Helvetica,sans-Serif" font-size="10.00">gsort_cmp</text>
</a>
</g>
</g>
<!-- Node17&#45;&gt;Node18 -->
<g id="edge19_Node000017_Node000018" class="edge">
<title>Node17&#45;&gt;Node18</title>
<g id="a_edge19_Node000017_Node000018"><a xlink:title=" ">
<path fill="none" stroke="#63b8ff" d="M333.43,-84.62C346.88,-84.62 361.32,-84.62 374.32,-84.62"/>
<polygon fill="#63b8ff" stroke="#63b8ff" points="374.26,-88.13 384.26,-84.63 374.26,-81.13 374.26,-88.13"/>
</a>
</g>
</g>
<!-- Node20 -->
<g id="Node000020" class="node">
<title>Node20</title>
<g id="a_Node000020"><a xlink:href="../../de/d2d/numerical__func_8c.html#af7b464a965e184f893290a977a66c9d1" target="_top" xlink:title=" ">
<polygon fill="white" stroke="#666666" points="306,-131.25 260.75,-131.25 260.75,-112 306,-112 306,-131.25"/>
<text xml:space="preserve" text-anchor="middle" x="283.38" y="-117.75" font-family="Helvetica,sans-Serif" font-size="10.00">det3x3</text>
</a>
</g>
</g>
<!-- Node19&#45;&gt;Node20 -->
<g id="edge21_Node000019_Node000020" class="edge">
<title>Node19&#45;&gt;Node20</title>
<g id="a_edge21_Node000019_Node000020"><a xlink:title=" ">
<path fill="none" stroke="#63b8ff" d="M167.42,-151.11C190.44,-145.2 224.49,-136.47 249.56,-130.04"/>
<polygon fill="#63b8ff" stroke="#63b8ff" points="250.09,-133.52 258.91,-127.64 248.35,-126.74 250.09,-133.52"/>
</a>
</g>
</g>
<!-- Node21 -->
<g id="Node000021" class="node">
<title>Node21</title>
<g id="a_Node000021"><a xlink:href="../../de/d2d/numerical__func_8c.html#a5cb6a4677901df82939f3bb08fe1e5de" target="_top" xlink:title=" ">
<polygon fill="white" stroke="#666666" points="329.62,-168.25 237.12,-168.25 237.12,-149 329.62,-149 329.62,-168.25"/>
<text xml:space="preserve" text-anchor="middle" x="283.38" y="-154.75" font-family="Helvetica,sans-Serif" font-size="10.00">matmul_Cmpl2x2</text>
</a>
</g>
</g>
<!-- Node19&#45;&gt;Node21 -->
<g id="edge22_Node000019_Node000021" class="edge">
<title>Node19&#45;&gt;Node21</title>
<g id="a_edge22_Node000019_Node000021"><a xlink:title=" ">
<path fill="none" stroke="#63b8ff" d="M167.42,-157.81C183.61,-157.92 205.26,-158.08 225.4,-158.22"/>
<polygon fill="#63b8ff" stroke="#63b8ff" points="225.17,-161.72 235.19,-158.29 225.22,-154.72 225.17,-161.72"/>
</a>
</g>
</g>
<!-- Node24&#45;&gt;Node16 -->
<g id="edge27_Node000024_Node000016" class="edge">
<title>Node24&#45;&gt;Node16</title>
<g id="a_edge27_Node000024_Node000016"><a xlink:title=" ">
<path fill="none" stroke="#63b8ff" d="M168.73,-16.86C187.16,-21.85 212.17,-28.62 234.04,-34.54"/>
<polygon fill="#63b8ff" stroke="#63b8ff" points="233.11,-37.91 243.68,-37.15 234.94,-31.16 233.11,-37.91"/>
</a>
</g>
</g>
<!-- Node25 -->
<g id="Node000025" class="node">
<title>Node25</title>
<g id="a_Node000025"><a xlink:href="../../d7/d8e/align_8c.html#a00208b13e41d5ba8f2dfbea6dd749ba3" target="_top" xlink:title=" ">
<polygon fill="white" stroke="#666666" points="321.38,-19.25 245.38,-19.25 245.38,0 321.38,0 321.38,-19.25"/>
<text xml:space="preserve" text-anchor="middle" x="283.38" y="-5.75" font-family="Helvetica,sans-Serif" font-size="10.00">alignment_len</text>
</a>
</g>
</g>
<!-- Node24&#45;&gt;Node25 -->
<g id="edge26_Node000024_Node000025" class="edge">
<title>Node24&#45;&gt;Node25</title>
<g id="a_edge26_Node000024_Node000025"><a xlink:title=" ">
<path fill="none" stroke="#63b8ff" d="M168.73,-9.62C187.07,-9.62 211.94,-9.62 233.74,-9.62"/>
<polygon fill="#63b8ff" stroke="#63b8ff" points="233.62,-13.13 243.62,-9.63 233.62,-6.13 233.62,-13.13"/>
</a>
</g>
</g>
</g>
</svg>

<g id="navigator" transform="translate(0 0)" fill="#404254">
  <rect fill="#f2f5e9" fill-opacity="0.5" stroke="#606060" stroke-width=".5" x="0" y="0" width="60" height="60"/>
  <use id="zoomplus" xlink:href="#zoomPlus" x="17" y="9" onmousedown="handleZoom(evt,'in')"/>
  <use id="zoomminus" xlink:href="#zoomMin" x="42" y="9" onmousedown="handleZoom(evt,'out')"/>
  <use id="reset" xlink:href="#resetDef" x="30" y="36" onmousedown="handleReset()"/>
   <use id="arrowup" xlink:href="#arrowUp" x="0" y="0" onmousedown="handlePan(0,-1)"/>
  <use id="arrowright" xlink:href="#arrowRight" x="0" y="0" onmousedown="handlePan(1,0)"/>
  <use id="arrowdown" xlink:href="#arrowDown" x="0" y="0" onmousedown="handlePan(0,1)"/>
  <use id="arrowleft" xlink:href="#arrowLeft" x="0" y="0" onmousedown="handlePan(-1,0)"/>
</g>
<svg viewBox="0 0 15 15" width="100%" height="30px" preserveAspectRatio="xMaxYMin meet">
 <g id="arrow_out" transform="scale(0.3 0.3)">
  <a xlink:href="dvloc_8h_a5f1d51340a8457749225b05b612e4abe_cgraph_org.svg" target="_base">
   <rect id="button" ry="5" rx="5" y="6" x="6" height="38" width="38"
        fill="#f2f5e9" fill-opacity="0.5" stroke="#606060" stroke-width="1.0"/>
   <path id="arrow"
     d="M 11.500037,31.436501 C 11.940474,20.09759 22.043105,11.32322 32.158766,21.979434 L 37.068811,17.246167 C 37.068811,17.246167 37.088388,32 37.088388,32 L 22.160133,31.978069 C 22.160133,31.978069 26.997745,27.140456 26.997745,27.140456 C 18.528582,18.264221 13.291696,25.230495 11.500037,31.436501 z"
     style="fill:#404040;"/>
  </a>
 </g>
</svg>

<style type='text/css'>
<![CDATA[
[data-mouse-over-selected='false'] { opacity: 0.7; }
[data-mouse-over-selected='true']  { opacity: 1.0; }
]]>
</style>
<script type="application/ecmascript"><![CDATA[
document.addEventListener('DOMContentLoaded', (event) => {
  highlightEdges();
  highlightAdjacentNodes();
});
]]></script>
</svg>
