<?xml version="1.0" encoding="UTF-8" standalone="no"?>
<!DOCTYPE svg PUBLIC "-//W3C//DTD SVG 1.1//EN"
 "http://www.w3.org/Graphics/SVG/1.1/DTD/svg11.dtd">
<!-- Generated by graphviz version 14.0.0 (20250921.2048)
 -->
<!-- Title: src Pages: 1 -->
<svg width="387pt" height="336pt"
 viewBox="0.00 0.00 387.00 336.00" xmlns="http://www.w3.org/2000/svg" xmlns:xlink="http://www.w3.org/1999/xlink">

<svg id="main" version="1.1" xmlns="http://www.w3.org/2000/svg" xmlns:xlink="http://www.w3.org/1999/xlink" xml:space="preserve">

<style type="text/css"><![CDATA[
.node, .edge {opacity: 0.7;}
.node.selected, .edge.selected {opacity: 1;}
.edge:hover path { stroke: red; }
.edge:hover polygon { stroke: red; fill: red; }
]]></style>
<script type="application/ecmascript" xlink:href="svg.min.js"/>
<svg id="graph" class="graph">
<g id="graph0" class="graph" transform="scale(1 1) rotate(0) translate(4 331.5)">
<title>src</title>
<g id="clust1" class="cluster">
<title>clusterdir_68267d1309a1af8e8297ef4c3efbcdba</title>
<g id="a_clust1"><a xlink:href="dir_68267d1309a1af8e8297ef4c3efbcdba.html" target="_top">
<polygon fill="#e9eff4" stroke="#404040" stroke-width="2" points="8,-8 8,-319.5 371,-319.5 371,-8 8,-8"/>
</a>
</g>
</g>
<!-- dir_68267d1309a1af8e8297ef4c3efbcdba -->
<g id="node1" class="node">
<title>dir_68267d1309a1af8e8297ef4c3efbcdba</title>
<text xml:space="preserve" text-anchor="middle" x="212" y="-298" font-family="Helvetica,sans-Serif" font-size="10.00">src</text>
</g>
<!-- dir_8be70369326c943bc55eb44fd7a8fb0e -->
<g id="node4" class="node">
<title>dir_8be70369326c943bc55eb44fd7a8fb0e</title>
<g id="a_node4"><a xlink:href="dir_8be70369326c943bc55eb44fd7a8fb0e.html" target="_top" xlink:title="elph">
<polygon fill="#95afc8" stroke="#404040" points="116,-256.25 82,-256.25 82,-237 116,-237 116,-256.25"/>
<text xml:space="preserve" text-anchor="middle" x="99" y="-242.75" font-family="Helvetica,sans-Serif" font-size="10.00">elph</text>
</a>
</g>
</g>
<!-- dir_68267d1309a1af8e8297ef4c3efbcdba&#45;&gt;dir_8be70369326c943bc55eb44fd7a8fb0e -->
<g id="edge3" class="edge">
<title>dir_68267d1309a1af8e8297ef4c3efbcdba&#45;&gt;dir_8be70369326c943bc55eb44fd7a8fb0e</title>
<g id="a_edge3"><a xlink:href="dir_000010_000003.html" target="_top">
<path fill="none" stroke="#63b8ff" d="M197.69,-294.13C179.83,-285.71 148.89,-271.14 126.41,-260.54"/>
<polygon fill="#63b8ff" stroke="#63b8ff" points="128.05,-257.45 117.51,-256.35 125.07,-263.78 128.05,-257.45"/>
</a>
</g>
<g id="a_edge3&#45;headlabel"><a xlink:href="dir_000010_000003.html" target="_top" xlink:title="1">
<text xml:space="preserve" text-anchor="middle" x="131.14" y="-251.89" font-family="Helvetica,sans-Serif" font-size="10.00" fill="#63b8ff">1</text>
</a>
</g>
</g>
<!-- dir_264890e5c091f8c8d7fe1f842870c25e -->
<g id="node6" class="node">
<title>dir_264890e5c091f8c8d7fe1f842870c25e</title>
<g id="a_node6"><a xlink:href="dir_264890e5c091f8c8d7fe1f842870c25e.html" target="_top" xlink:title="interpolation">
<polygon fill="#95afc8" stroke="#404040" points="246.25,-256.25 177.75,-256.25 177.75,-237 246.25,-237 246.25,-256.25"/>
<text xml:space="preserve" text-anchor="middle" x="212" y="-242.75" font-family="Helvetica,sans-Serif" font-size="10.00">interpolation</text>
</a>
</g>
</g>
<!-- dir_68267d1309a1af8e8297ef4c3efbcdba&#45;&gt;dir_264890e5c091f8c8d7fe1f842870c25e -->
<g id="edge1" class="edge">
<title>dir_68267d1309a1af8e8297ef4c3efbcdba&#45;&gt;dir_264890e5c091f8c8d7fe1f842870c25e</title>
<g id="a_edge1"><a xlink:href="dir_000010_000005.html" target="_top">
<path fill="none" stroke="#63b8ff" d="M212,-292.55C212,-285.95 212,-276.44 212,-267.86"/>
<polygon fill="#63b8ff" stroke="#63b8ff" points="215.5,-267.93 212,-257.93 208.5,-267.93 215.5,-267.93"/>
</a>
</g>
<g id="a_edge1&#45;headlabel"><a xlink:href="dir_000010_000005.html" target="_top" xlink:title="1">
<text xml:space="preserve" text-anchor="middle" x="218.34" y="-266.14" font-family="Helvetica,sans-Serif" font-size="10.00" fill="#63b8ff">1</text>
</a>
</g>
</g>
<!-- dir_3063a8768e2da53f763b005cbba32dd2 -->
<g id="node10" class="node">
<title>dir_3063a8768e2da53f763b005cbba32dd2</title>
<g id="a_node10"><a xlink:href="dir_3063a8768e2da53f763b005cbba32dd2.html" target="_top" xlink:title="preprocessor">
<polygon fill="#95afc8" stroke="#404040" points="363.12,-201 290.88,-201 290.88,-181.75 363.12,-181.75 363.12,-201"/>
<text xml:space="preserve" text-anchor="middle" x="327" y="-187.5" font-family="Helvetica,sans-Serif" font-size="10.00">preprocessor</text>
</a>
</g>
</g>
<!-- dir_68267d1309a1af8e8297ef4c3efbcdba&#45;&gt;dir_3063a8768e2da53f763b005cbba32dd2 -->
<g id="edge2" class="edge">
<title>dir_68267d1309a1af8e8297ef4c3efbcdba&#45;&gt;dir_3063a8768e2da53f763b005cbba32dd2</title>
<g id="a_edge2"><a xlink:href="dir_000010_000009.html" target="_top">
<path fill="none" stroke="#63b8ff" d="M221.02,-292.36C239.98,-274.48 284.25,-232.71 309.16,-209.21"/>
<polygon fill="#63b8ff" stroke="#63b8ff" points="311.4,-211.9 316.27,-202.5 306.6,-206.81 311.4,-211.9"/>
</a>
</g>
<g id="a_edge2&#45;headlabel"><a xlink:href="dir_000010_000009.html" target="_top" xlink:title="1">
<text xml:space="preserve" text-anchor="middle" x="311.84" y="-211.52" font-family="Helvetica,sans-Serif" font-size="10.00" fill="#63b8ff">1</text>
</a>
</g>
</g>
<!-- dir_fdedb0aba14d44ce9d99bc100e026e6a -->
<g id="node2" class="node">
<title>dir_fdedb0aba14d44ce9d99bc100e026e6a</title>
<g id="a_node2"><a xlink:href="dir_fdedb0aba14d44ce9d99bc100e026e6a.html" target="_top" xlink:title="common">
<polygon fill="#95afc8" stroke="#404040" points="228.75,-35.25 175.25,-35.25 175.25,-16 228.75,-16 228.75,-35.25"/>
<text xml:space="preserve" text-anchor="middle" x="202" y="-21.75" font-family="Helvetica,sans-Serif" font-size="10.00">common</text>
</a>
</g>
</g>
<!-- dir_5f3ec61295937e5463e78247566bba33 -->
<g id="node3" class="node">
<title>dir_5f3ec61295937e5463e78247566bba33</title>
<g id="a_node3"><a xlink:href="dir_5f3ec61295937e5463e78247566bba33.html" target="_top" xlink:title="dvloc">
<polygon fill="#95afc8" stroke="#404040" points="197.62,-145.75 158.38,-145.75 158.38,-126.5 197.62,-126.5 197.62,-145.75"/>
<text xml:space="preserve" text-anchor="middle" x="178" y="-132.25" font-family="Helvetica,sans-Serif" font-size="10.00">dvloc</text>
</a>
</g>
</g>
<!-- dir_5f3ec61295937e5463e78247566bba33&#45;&gt;dir_fdedb0aba14d44ce9d99bc100e026e6a -->
<g id="edge6" class="edge">
<title>dir_5f3ec61295937e5463e78247566bba33&#45;&gt;dir_fdedb0aba14d44ce9d99bc100e026e6a</title>
<g id="a_edge6"><a xlink:href="dir_000002_000000.html" target="_top">
<path fill="none" stroke="#63b8ff" d="M179.96,-126.25C183.78,-109 192.28,-70.58 197.53,-46.81"/>
<polygon fill="#63b8ff" stroke="#63b8ff" points="200.94,-47.62 199.68,-37.1 194.1,-46.11 200.94,-47.62"/>
</a>
</g>
<g id="a_edge6&#45;headlabel"><a xlink:href="dir_000002_000000.html" target="_top" xlink:title="41">
<text xml:space="preserve" text-anchor="middle" x="203.26" y="-46.39" font-family="Helvetica,sans-Serif" font-size="10.00" fill="#63b8ff">41</text>
</a>
</g>
</g>
<!-- dir_1fbe5abfc91f031908f9b0fcd26c05f0 -->
<g id="node5" class="node">
<title>dir_1fbe5abfc91f031908f9b0fcd26c05f0</title>
<g id="a_node5"><a xlink:href="dir_1fbe5abfc91f031908f9b0fcd26c05f0.html" target="_top" xlink:title="fft">
<polygon fill="#95afc8" stroke="#404040" points="166.4,-90.5 137.6,-90.5 137.6,-71.25 166.4,-71.25 166.4,-90.5"/>
<text xml:space="preserve" text-anchor="middle" x="152" y="-77" font-family="Helvetica,sans-Serif" font-size="10.00">fft</text>
</a>
</g>
</g>
<!-- dir_5f3ec61295937e5463e78247566bba33&#45;&gt;dir_1fbe5abfc91f031908f9b0fcd26c05f0 -->
<g id="edge4" class="edge">
<title>dir_5f3ec61295937e5463e78247566bba33&#45;&gt;dir_1fbe5abfc91f031908f9b0fcd26c05f0</title>
<g id="a_edge4"><a xlink:href="dir_000002_000004.html" target="_top">
<path fill="none" stroke="#63b8ff" d="M173.71,-126.33C170.38,-119.51 165.64,-109.81 161.44,-101.2"/>
<polygon fill="#63b8ff" stroke="#63b8ff" points="164.58,-99.67 157.05,-92.22 158.29,-102.74 164.58,-99.67"/>
</a>
</g>
<g id="a_edge4&#45;headlabel"><a xlink:href="dir_000002_000004.html" target="_top" xlink:title="3">
<text xml:space="preserve" text-anchor="middle" x="168.05" y="-96.42" font-family="Helvetica,sans-Serif" font-size="10.00" fill="#63b8ff">3</text>
</a>
</g>
</g>
<!-- dir_f9a522ad36cbef4b4066cfdd1c852a54 -->
<g id="node12" class="node">
<title>dir_f9a522ad36cbef4b4066cfdd1c852a54</title>
<g id="a_node12"><a xlink:href="dir_f9a522ad36cbef4b4066cfdd1c852a54.html" target="_top" xlink:title="wfc">
<polygon fill="#95afc8" stroke="#404040" points="235.88,-90.5 204.12,-90.5 204.12,-71.25 235.88,-71.25 235.88,-90.5"/>
<text xml:space="preserve" text-anchor="middle" x="220" y="-77" font-family="Helvetica,sans-Serif" font-size="10.00">wfc</text>
</a>
</g>
</g>
<!-- dir_5f3ec61295937e5463e78247566bba33&#45;&gt;dir_f9a522ad36cbef4b4066cfdd1c852a54 -->
<g id="edge5" class="edge">
<title>dir_5f3ec61295937e5463e78247566bba33&#45;&gt;dir_f9a522ad36cbef4b4066cfdd1c852a54</title>
<g id="a_edge5"><a xlink:href="dir_000002_000012.html" target="_top">
<path fill="none" stroke="#63b8ff" d="M184.94,-126.33C190.62,-119.13 198.84,-108.71 205.89,-99.76"/>
<polygon fill="#63b8ff" stroke="#63b8ff" points="208.53,-102.07 211.98,-92.05 203.04,-97.73 208.53,-102.07"/>
</a>
</g>
<g id="a_edge5&#45;headlabel"><a xlink:href="dir_000002_000012.html" target="_top" xlink:title="3">
<text xml:space="preserve" text-anchor="middle" x="209.47" y="-101.58" font-family="Helvetica,sans-Serif" font-size="10.00" fill="#63b8ff">3</text>
</a>
</g>
</g>
<!-- dir_8be70369326c943bc55eb44fd7a8fb0e&#45;&gt;dir_fdedb0aba14d44ce9d99bc100e026e6a -->
<g id="edge12" class="edge">
<title>dir_8be70369326c943bc55eb44fd7a8fb0e&#45;&gt;dir_fdedb0aba14d44ce9d99bc100e026e6a</title>
<g id="a_edge12"><a xlink:href="dir_000003_000000.html" target="_top">
<path fill="none" stroke="#63b8ff" d="M82.17,-236.63C69.51,-228.93 52.87,-216.61 44,-201 27.55,-172.04 22.75,-157.05 36,-126.5 58.37,-74.91 122.31,-48.11 163.99,-35.72"/>
<polygon fill="#63b8ff" stroke="#63b8ff" points="164.71,-39.16 173.39,-33.08 162.81,-32.42 164.71,-39.16"/>
</a>
</g>
<g id="a_edge12&#45;headlabel"><a xlink:href="dir_000003_000000.html" target="_top" xlink:title="19">
<text xml:space="preserve" text-anchor="middle" x="163.47" y="-38.58" font-family="Helvetica,sans-Serif" font-size="10.00" fill="#63b8ff">19</text>
</a>
</g>
</g>
<!-- dir_8be70369326c943bc55eb44fd7a8fb0e&#45;&gt;dir_5f3ec61295937e5463e78247566bba33 -->
<g id="edge9" class="edge">
<title>dir_8be70369326c943bc55eb44fd7a8fb0e&#45;&gt;dir_5f3ec61295937e5463e78247566bba33</title>
<g id="a_edge9"><a xlink:href="dir_000003_000002.html" target="_top">
<path fill="none" stroke="#63b8ff" d="M105.46,-236.75C118.37,-219.02 147.55,-178.94 164.71,-155.38"/>
<polygon fill="#63b8ff" stroke="#63b8ff" points="167.5,-157.49 170.55,-147.35 161.84,-153.37 167.5,-157.49"/>
</a>
</g>
<g id="a_edge9&#45;headlabel"><a xlink:href="dir_000003_000002.html" target="_top" xlink:title="2">
<text xml:space="preserve" text-anchor="middle" x="168.57" y="-156.97" font-family="Helvetica,sans-Serif" font-size="10.00" fill="#63b8ff">2</text>
</a>
</g>
</g>
<!-- dir_8be70369326c943bc55eb44fd7a8fb0e&#45;&gt;dir_1fbe5abfc91f031908f9b0fcd26c05f0 -->
<g id="edge7" class="edge">
<title>dir_8be70369326c943bc55eb44fd7a8fb0e&#45;&gt;dir_1fbe5abfc91f031908f9b0fcd26c05f0</title>
<g id="a_edge7"><a xlink:href="dir_000003_000004.html" target="_top">
<path fill="none" stroke="#63b8ff" d="M89.37,-236.73C68.3,-216.19 21.97,-164.33 47,-126.5 64.47,-100.09 101.06,-89.27 126.08,-84.86"/>
<polygon fill="#63b8ff" stroke="#63b8ff" points="126.44,-88.34 135.8,-83.39 125.39,-81.42 126.44,-88.34"/>
</a>
</g>
<g id="a_edge7&#45;headlabel"><a xlink:href="dir_000003_000004.html" target="_top" xlink:title="1">
<text xml:space="preserve" text-anchor="middle" x="124.8" y="-87.59" font-family="Helvetica,sans-Serif" font-size="10.00" fill="#63b8ff">1</text>
</a>
</g>
</g>
<!-- dir_c184e51c84f2c3f0345bbc8a0d75d3e1 -->
<g id="node7" class="node">
<title>dir_c184e51c84f2c3f0345bbc8a0d75d3e1</title>
<g id="a_node7"><a xlink:href="dir_c184e51c84f2c3f0345bbc8a0d75d3e1.html" target="_top" xlink:title="io">
<polygon fill="#95afc8" stroke="#404040" points="113.4,-201 84.6,-201 84.6,-181.75 113.4,-181.75 113.4,-201"/>
<text xml:space="preserve" text-anchor="middle" x="99" y="-187.5" font-family="Helvetica,sans-Serif" font-size="10.00">io</text>
</a>
</g>
</g>
<!-- dir_8be70369326c943bc55eb44fd7a8fb0e&#45;&gt;dir_c184e51c84f2c3f0345bbc8a0d75d3e1 -->
<g id="edge11" class="edge">
<title>dir_8be70369326c943bc55eb44fd7a8fb0e&#45;&gt;dir_c184e51c84f2c3f0345bbc8a0d75d3e1</title>
<g id="a_edge11"><a xlink:href="dir_000003_000006.html" target="_top">
<path fill="none" stroke="#63b8ff" d="M99,-236.83C99,-230.32 99,-221.17 99,-212.87"/>
<polygon fill="#63b8ff" stroke="#63b8ff" points="102.5,-212.87 99,-202.87 95.5,-212.87 102.5,-212.87"/>
</a>
</g>
<g id="a_edge11&#45;headlabel"><a xlink:href="dir_000003_000006.html" target="_top" xlink:title="2">
<text xml:space="preserve" text-anchor="middle" x="105.34" y="-211.08" font-family="Helvetica,sans-Serif" font-size="10.00" fill="#63b8ff">2</text>
</a>
</g>
</g>
<!-- dir_3f55ef0fbef717d5b6ccfb52d9e6fc00 -->
<g id="node8" class="node">
<title>dir_3f55ef0fbef717d5b6ccfb52d9e6fc00</title>
<g id="a_node8"><a xlink:href="dir_3f55ef0fbef717d5b6ccfb52d9e6fc00.html" target="_top" xlink:title="nonloc">
<polygon fill="#95afc8" stroke="#404040" points="100.25,-145.75 55.75,-145.75 55.75,-126.5 100.25,-126.5 100.25,-145.75"/>
<text xml:space="preserve" text-anchor="middle" x="78" y="-132.25" font-family="Helvetica,sans-Serif" font-size="10.00">nonloc</text>
</a>
</g>
</g>
<!-- dir_8be70369326c943bc55eb44fd7a8fb0e&#45;&gt;dir_3f55ef0fbef717d5b6ccfb52d9e6fc00 -->
<g id="edge8" class="edge">
<title>dir_8be70369326c943bc55eb44fd7a8fb0e&#45;&gt;dir_3f55ef0fbef717d5b6ccfb52d9e6fc00</title>
<g id="a_edge8"><a xlink:href="dir_000003_000007.html" target="_top">
<path fill="none" stroke="#63b8ff" d="M92.68,-236.57C87.04,-227.89 79.2,-214.21 76,-201 72.51,-186.61 73.2,-169.85 74.67,-157.12"/>
<polygon fill="#63b8ff" stroke="#63b8ff" points="78.1,-157.85 76.05,-147.45 71.17,-156.86 78.1,-157.85"/>
</a>
</g>
<g id="a_edge8&#45;headlabel"><a xlink:href="dir_000003_000007.html" target="_top" xlink:title="1">
<text xml:space="preserve" text-anchor="middle" x="80.61" y="-156.43" font-family="Helvetica,sans-Serif" font-size="10.00" fill="#63b8ff">1</text>
</a>
</g>
</g>
<!-- dir_66594d64e62988c3486c2e5ab175cc33 -->
<g id="node11" class="node">
<title>dir_66594d64e62988c3486c2e5ab175cc33</title>
<g id="a_node11"><a xlink:href="dir_66594d64e62988c3486c2e5ab175cc33.html" target="_top" xlink:title="symmetries">
<polygon fill="#95afc8" stroke="#404040" points="282.5,-145.75 215.5,-145.75 215.5,-126.5 282.5,-126.5 282.5,-145.75"/>
<text xml:space="preserve" text-anchor="middle" x="249" y="-132.25" font-family="Helvetica,sans-Serif" font-size="10.00">symmetries</text>
</a>
</g>
</g>
<!-- dir_8be70369326c943bc55eb44fd7a8fb0e&#45;&gt;dir_66594d64e62988c3486c2e5ab175cc33 -->
<g id="edge10" class="edge">
<title>dir_8be70369326c943bc55eb44fd7a8fb0e&#45;&gt;dir_66594d64e62988c3486c2e5ab175cc33</title>
<g id="a_edge10"><a xlink:href="dir_000003_000011.html" target="_top">
<path fill="none" stroke="#63b8ff" d="M111.53,-236.56C137.18,-218.01 195.93,-175.51 227.69,-152.54"/>
<polygon fill="#63b8ff" stroke="#63b8ff" points="229.33,-155.67 235.38,-146.97 225.23,-150 229.33,-155.67"/>
</a>
</g>
<g id="a_edge10&#45;headlabel"><a xlink:href="dir_000003_000011.html" target="_top" xlink:title="3">
<text xml:space="preserve" text-anchor="middle" x="229.31" y="-155.32" font-family="Helvetica,sans-Serif" font-size="10.00" fill="#63b8ff">3</text>
</a>
</g>
</g>
<!-- dir_1fbe5abfc91f031908f9b0fcd26c05f0&#45;&gt;dir_fdedb0aba14d44ce9d99bc100e026e6a -->
<g id="edge13" class="edge">
<title>dir_1fbe5abfc91f031908f9b0fcd26c05f0&#45;&gt;dir_fdedb0aba14d44ce9d99bc100e026e6a</title>
<g id="a_edge13"><a xlink:href="dir_000004_000000.html" target="_top">
<path fill="none" stroke="#63b8ff" d="M160.26,-71.08C167.16,-63.73 177.22,-53.01 185.74,-43.94"/>
<polygon fill="#63b8ff" stroke="#63b8ff" points="188.23,-46.4 192.53,-36.71 183.13,-41.61 188.23,-46.4"/>
</a>
</g>
<g id="a_edge13&#45;headlabel"><a xlink:href="dir_000004_000000.html" target="_top" xlink:title="7">
<text xml:space="preserve" text-anchor="middle" x="188.88" y="-45.98" font-family="Helvetica,sans-Serif" font-size="10.00" fill="#63b8ff">7</text>
</a>
</g>
</g>
<!-- dir_264890e5c091f8c8d7fe1f842870c25e&#45;&gt;dir_fdedb0aba14d44ce9d99bc100e026e6a -->
<g id="edge20" class="edge">
<title>dir_264890e5c091f8c8d7fe1f842870c25e&#45;&gt;dir_fdedb0aba14d44ce9d99bc100e026e6a</title>
<g id="a_edge20"><a xlink:href="dir_000005_000000.html" target="_top">
<path fill="none" stroke="#63b8ff" d="M223.81,-236.73C234.81,-228.18 251.35,-214.58 264,-201 286.19,-177.18 350.92,-97.74 332,-71.25 311.28,-42.23 270.47,-31.89 240.07,-28.3"/>
<polygon fill="#63b8ff" stroke="#63b8ff" points="240.79,-24.85 230.5,-27.38 240.12,-31.82 240.79,-24.85"/>
</a>
</g>
<g id="a_edge20&#45;headlabel"><a xlink:href="dir_000005_000000.html" target="_top" xlink:title="18">
<text xml:space="preserve" text-anchor="middle" x="243.13" y="-18.35" font-family="Helvetica,sans-Serif" font-size="10.00" fill="#63b8ff">18</text>
</a>
</g>
</g>
<!-- dir_264890e5c091f8c8d7fe1f842870c25e&#45;&gt;dir_5f3ec61295937e5463e78247566bba33 -->
<g id="edge15" class="edge">
<title>dir_264890e5c091f8c8d7fe1f842870c25e&#45;&gt;dir_5f3ec61295937e5463e78247566bba33</title>
<g id="a_edge15"><a xlink:href="dir_000005_000002.html" target="_top">
<path fill="none" stroke="#63b8ff" d="M209.22,-236.75C203.79,-219.42 191.66,-180.73 184.22,-156.99"/>
<polygon fill="#63b8ff" stroke="#63b8ff" points="187.6,-156.07 181.27,-147.57 180.92,-158.16 187.6,-156.07"/>
</a>
</g>
<g id="a_edge15&#45;headlabel"><a xlink:href="dir_000005_000002.html" target="_top" xlink:title="1">
<text xml:space="preserve" text-anchor="middle" x="190.94" y="-153.33" font-family="Helvetica,sans-Serif" font-size="10.00" fill="#63b8ff">1</text>
</a>
</g>
</g>
<!-- dir_264890e5c091f8c8d7fe1f842870c25e&#45;&gt;dir_1fbe5abfc91f031908f9b0fcd26c05f0 -->
<g id="edge14" class="edge">
<title>dir_264890e5c091f8c8d7fe1f842870c25e&#45;&gt;dir_1fbe5abfc91f031908f9b0fcd26c05f0</title>
<g id="a_edge14"><a xlink:href="dir_000005_000004.html" target="_top">
<path fill="none" stroke="#63b8ff" d="M203.75,-236.59C189.28,-220.06 159.82,-183.17 149,-145.75 144.88,-131.51 145.88,-114.75 147.77,-101.97"/>
<polygon fill="#63b8ff" stroke="#63b8ff" points="151.19,-102.72 149.54,-92.25 144.3,-101.47 151.19,-102.72"/>
</a>
</g>
<g id="a_edge14&#45;headlabel"><a xlink:href="dir_000005_000004.html" target="_top" xlink:title="1">
<text xml:space="preserve" text-anchor="middle" x="153.61" y="-101.4" font-family="Helvetica,sans-Serif" font-size="10.00" fill="#63b8ff">1</text>
</a>
</g>
</g>
<!-- dir_264890e5c091f8c8d7fe1f842870c25e&#45;&gt;dir_c184e51c84f2c3f0345bbc8a0d75d3e1 -->
<g id="edge17" class="edge">
<title>dir_264890e5c091f8c8d7fe1f842870c25e&#45;&gt;dir_c184e51c84f2c3f0345bbc8a0d75d3e1</title>
<g id="a_edge17"><a xlink:href="dir_000005_000006.html" target="_top">
<path fill="none" stroke="#63b8ff" d="M192.83,-236.59C173.83,-227.64 144.63,-213.88 123.86,-204.09"/>
<polygon fill="#63b8ff" stroke="#63b8ff" points="125.49,-200.99 114.95,-199.89 122.5,-207.32 125.49,-200.99"/>
</a>
</g>
<g id="a_edge17&#45;headlabel"><a xlink:href="dir_000005_000006.html" target="_top" xlink:title="1">
<text xml:space="preserve" text-anchor="middle" x="128.58" y="-195.43" font-family="Helvetica,sans-Serif" font-size="10.00" fill="#63b8ff">1</text>
</a>
</g>
</g>
<!-- dir_e5ad3b97c6311dd2f12ca4dff3e32508 -->
<g id="node9" class="node">
<title>dir_e5ad3b97c6311dd2f12ca4dff3e32508</title>
<g id="a_node9"><a xlink:href="dir_e5ad3b97c6311dd2f12ca4dff3e32508.html" target="_top" xlink:title="phonon">
<polygon fill="#95afc8" stroke="#404040" points="322.75,-90.5 275.25,-90.5 275.25,-71.25 322.75,-71.25 322.75,-90.5"/>
<text xml:space="preserve" text-anchor="middle" x="299" y="-77" font-family="Helvetica,sans-Serif" font-size="10.00">phonon</text>
</a>
</g>
</g>
<!-- dir_264890e5c091f8c8d7fe1f842870c25e&#45;&gt;dir_e5ad3b97c6311dd2f12ca4dff3e32508 -->
<g id="edge18" class="edge">
<title>dir_264890e5c091f8c8d7fe1f842870c25e&#45;&gt;dir_e5ad3b97c6311dd2f12ca4dff3e32508</title>
<g id="a_edge18"><a xlink:href="dir_000005_000008.html" target="_top">
<path fill="none" stroke="#63b8ff" d="M219.63,-236.77C240.67,-212.35 297.97,-145.84 298,-145.75 303.26,-131.91 303.31,-115.13 302.15,-102.25"/>
<polygon fill="#63b8ff" stroke="#63b8ff" points="305.63,-101.9 300.92,-92.41 298.68,-102.77 305.63,-101.9"/>
</a>
</g>
<g id="a_edge18&#45;headlabel"><a xlink:href="dir_000005_000008.html" target="_top" xlink:title="1">
<text xml:space="preserve" text-anchor="middle" x="308.71" y="-99.74" font-family="Helvetica,sans-Serif" font-size="10.00" fill="#63b8ff">1</text>
</a>
</g>
</g>
<!-- dir_264890e5c091f8c8d7fe1f842870c25e&#45;&gt;dir_66594d64e62988c3486c2e5ab175cc33 -->
<g id="edge16" class="edge">
<title>dir_264890e5c091f8c8d7fe1f842870c25e&#45;&gt;dir_66594d64e62988c3486c2e5ab175cc33</title>
<g id="a_edge16"><a xlink:href="dir_000005_000011.html" target="_top">
<path fill="none" stroke="#63b8ff" d="M213.42,-236.76C215.58,-224.26 220.16,-200.84 227,-181.75 230.1,-173.12 234.41,-163.97 238.39,-156.22"/>
<polygon fill="#63b8ff" stroke="#63b8ff" points="241.47,-157.89 243.11,-147.42 235.3,-154.59 241.47,-157.89"/>
</a>
</g>
<g id="a_edge16&#45;headlabel"><a xlink:href="dir_000005_000011.html" target="_top" xlink:title="1">
<text xml:space="preserve" text-anchor="middle" x="242.99" y="-157.19" font-family="Helvetica,sans-Serif" font-size="10.00" fill="#63b8ff">1</text>
</a>
</g>
</g>
<!-- dir_264890e5c091f8c8d7fe1f842870c25e&#45;&gt;dir_f9a522ad36cbef4b4066cfdd1c852a54 -->
<g id="edge19" class="edge">
<title>dir_264890e5c091f8c8d7fe1f842870c25e&#45;&gt;dir_f9a522ad36cbef4b4066cfdd1c852a54</title>
<g id="a_edge19"><a xlink:href="dir_000005_000012.html" target="_top">
<path fill="none" stroke="#63b8ff" d="M215.55,-236.69C221,-223.68 232.36,-199.18 247,-181.75 263.47,-162.14 280.9,-168.83 292,-145.75 303.73,-121.35 271.77,-102.25 246.73,-91.51"/>
<polygon fill="#63b8ff" stroke="#63b8ff" points="248.22,-88.34 237.63,-87.87 245.61,-94.84 248.22,-88.34"/>
</a>
</g>
<g id="a_edge19&#45;headlabel"><a xlink:href="dir_000005_000012.html" target="_top" xlink:title="1">
<text xml:space="preserve" text-anchor="middle" x="251.2" y="-82.6" font-family="Helvetica,sans-Serif" font-size="10.00" fill="#63b8ff">1</text>
</a>
</g>
</g>
<!-- dir_c184e51c84f2c3f0345bbc8a0d75d3e1&#45;&gt;dir_fdedb0aba14d44ce9d99bc100e026e6a -->
<g id="edge24" class="edge">
<title>dir_c184e51c84f2c3f0345bbc8a0d75d3e1&#45;&gt;dir_fdedb0aba14d44ce9d99bc100e026e6a</title>
<g id="a_edge24"><a xlink:href="dir_000006_000000.html" target="_top">
<path fill="none" stroke="#63b8ff" d="M101.06,-181.43C107.27,-154.51 125.65,-75.8 129,-71.25 138.75,-58 153.73,-47.86 167.59,-40.62"/>
<polygon fill="#63b8ff" stroke="#63b8ff" points="169.02,-43.81 176.5,-36.31 165.97,-37.51 169.02,-43.81"/>
</a>
</g>
<g id="a_edge24&#45;headlabel"><a xlink:href="dir_000006_000000.html" target="_top" xlink:title="19">
<text xml:space="preserve" text-anchor="middle" x="168.39" y="-43.4" font-family="Helvetica,sans-Serif" font-size="10.00" fill="#63b8ff">19</text>
</a>
</g>
</g>
<!-- dir_c184e51c84f2c3f0345bbc8a0d75d3e1&#45;&gt;dir_5f3ec61295937e5463e78247566bba33 -->
<g id="edge22" class="edge">
<title>dir_c184e51c84f2c3f0345bbc8a0d75d3e1&#45;&gt;dir_5f3ec61295937e5463e78247566bba33</title>
<g id="a_edge22"><a xlink:href="dir_000006_000002.html" target="_top">
<path fill="none" stroke="#63b8ff" d="M112.4,-181.34C124.09,-173.46 141.3,-161.86 155.16,-152.52"/>
<polygon fill="#63b8ff" stroke="#63b8ff" points="156.94,-155.54 163.28,-147.05 153.03,-149.74 156.94,-155.54"/>
</a>
</g>
<g id="a_edge22&#45;headlabel"><a xlink:href="dir_000006_000002.html" target="_top" xlink:title="1">
<text xml:space="preserve" text-anchor="middle" x="156.8" y="-155.18" font-family="Helvetica,sans-Serif" font-size="10.00" fill="#63b8ff">1</text>
</a>
</g>
</g>
<!-- dir_c184e51c84f2c3f0345bbc8a0d75d3e1&#45;&gt;dir_3f55ef0fbef717d5b6ccfb52d9e6fc00 -->
<g id="edge21" class="edge">
<title>dir_c184e51c84f2c3f0345bbc8a0d75d3e1&#45;&gt;dir_3f55ef0fbef717d5b6ccfb52d9e6fc00</title>
<g id="a_edge21"><a xlink:href="dir_000006_000007.html" target="_top">
<path fill="none" stroke="#63b8ff" d="M95.53,-181.58C92.87,-174.84 89.1,-165.27 85.74,-156.74"/>
<polygon fill="#63b8ff" stroke="#63b8ff" points="89.02,-155.54 82.1,-147.52 82.51,-158.1 89.02,-155.54"/>
</a>
</g>
<g id="a_edge21&#45;headlabel"><a xlink:href="dir_000006_000007.html" target="_top" xlink:title="1">
<text xml:space="preserve" text-anchor="middle" x="92.43" y="-152.56" font-family="Helvetica,sans-Serif" font-size="10.00" fill="#63b8ff">1</text>
</a>
</g>
</g>
<!-- dir_c184e51c84f2c3f0345bbc8a0d75d3e1&#45;&gt;dir_66594d64e62988c3486c2e5ab175cc33 -->
<g id="edge23" class="edge">
<title>dir_c184e51c84f2c3f0345bbc8a0d75d3e1&#45;&gt;dir_66594d64e62988c3486c2e5ab175cc33</title>
<g id="a_edge23"><a xlink:href="dir_000006_000011.html" target="_top">
<path fill="none" stroke="#63b8ff" d="M113.66,-185.17C136.41,-177.1 180.9,-161.3 212.67,-150.02"/>
<polygon fill="#63b8ff" stroke="#63b8ff" points="213.63,-153.39 221.89,-146.75 211.29,-146.8 213.63,-153.39"/>
</a>
</g>
<g id="a_edge23&#45;headlabel"><a xlink:href="dir_000006_000011.html" target="_top" xlink:title="1">
<text xml:space="preserve" text-anchor="middle" x="212.62" y="-152.89" font-family="Helvetica,sans-Serif" font-size="10.00" fill="#63b8ff">1</text>
</a>
</g>
</g>
<!-- dir_3f55ef0fbef717d5b6ccfb52d9e6fc00&#45;&gt;dir_fdedb0aba14d44ce9d99bc100e026e6a -->
<g id="edge26" class="edge">
<title>dir_3f55ef0fbef717d5b6ccfb52d9e6fc00&#45;&gt;dir_fdedb0aba14d44ce9d99bc100e026e6a</title>
<g id="a_edge26"><a xlink:href="dir_000007_000000.html" target="_top">
<path fill="none" stroke="#63b8ff" d="M81.09,-126.21C86.13,-112.8 97.26,-87.27 114,-71.25 128.21,-57.65 147.38,-47.27 164.2,-39.96"/>
<polygon fill="#63b8ff" stroke="#63b8ff" points="165.52,-43.2 173.44,-36.17 162.86,-36.73 165.52,-43.2"/>
</a>
</g>
<g id="a_edge26&#45;headlabel"><a xlink:href="dir_000007_000000.html" target="_top" xlink:title="11">
<text xml:space="preserve" text-anchor="middle" x="164.67" y="-42.74" font-family="Helvetica,sans-Serif" font-size="10.00" fill="#63b8ff">11</text>
</a>
</g>
</g>
<!-- dir_3f55ef0fbef717d5b6ccfb52d9e6fc00&#45;&gt;dir_f9a522ad36cbef4b4066cfdd1c852a54 -->
<g id="edge25" class="edge">
<title>dir_3f55ef0fbef717d5b6ccfb52d9e6fc00&#45;&gt;dir_f9a522ad36cbef4b4066cfdd1c852a54</title>
<g id="a_edge25"><a xlink:href="dir_000007_000012.html" target="_top">
<path fill="none" stroke="#63b8ff" d="M100.5,-126.69C125.68,-117.24 166.45,-101.95 193.25,-91.91"/>
<polygon fill="#63b8ff" stroke="#63b8ff" points="194.24,-95.27 202.37,-88.49 191.78,-88.72 194.24,-95.27"/>
</a>
</g>
<g id="a_edge25&#45;headlabel"><a xlink:href="dir_000007_000012.html" target="_top" xlink:title="1">
<text xml:space="preserve" text-anchor="middle" x="193.29" y="-94.79" font-family="Helvetica,sans-Serif" font-size="10.00" fill="#63b8ff">1</text>
</a>
</g>
</g>
<!-- dir_e5ad3b97c6311dd2f12ca4dff3e32508&#45;&gt;dir_fdedb0aba14d44ce9d99bc100e026e6a -->
<g id="edge27" class="edge">
<title>dir_e5ad3b97c6311dd2f12ca4dff3e32508&#45;&gt;dir_fdedb0aba14d44ce9d99bc100e026e6a</title>
<g id="a_edge27"><a xlink:href="dir_000008_000000.html" target="_top">
<path fill="none" stroke="#63b8ff" d="M282.55,-70.84C267.77,-62.73 245.82,-50.68 228.57,-41.21"/>
<polygon fill="#63b8ff" stroke="#63b8ff" points="230.31,-38.18 219.86,-36.43 226.94,-44.31 230.31,-38.18"/>
</a>
</g>
<g id="a_edge27&#45;headlabel"><a xlink:href="dir_000008_000000.html" target="_top" xlink:title="9">
<text xml:space="preserve" text-anchor="middle" x="233.5" y="-32.81" font-family="Helvetica,sans-Serif" font-size="10.00" fill="#63b8ff">9</text>
</a>
</g>
</g>
<!-- dir_3063a8768e2da53f763b005cbba32dd2&#45;&gt;dir_fdedb0aba14d44ce9d99bc100e026e6a -->
<g id="edge28" class="edge">
<title>dir_3063a8768e2da53f763b005cbba32dd2&#45;&gt;dir_fdedb0aba14d44ce9d99bc100e026e6a</title>
<g id="a_edge28"><a xlink:href="dir_000009_000000.html" target="_top">
<path fill="none" stroke="#63b8ff" d="M332.65,-181.26C345.16,-159.8 372.17,-105.33 347,-71.25 322.72,-38.37 274.58,-28.95 240.44,-26.64"/>
<polygon fill="#63b8ff" stroke="#63b8ff" points="240.68,-23.15 230.52,-26.16 240.34,-30.14 240.68,-23.15"/>
</a>
</g>
<g id="a_edge28&#45;headlabel"><a xlink:href="dir_000009_000000.html" target="_top" xlink:title="7">
<text xml:space="preserve" text-anchor="middle" x="242.9" y="-16.53" font-family="Helvetica,sans-Serif" font-size="10.00" fill="#63b8ff">7</text>
</a>
</g>
</g>
<!-- dir_66594d64e62988c3486c2e5ab175cc33&#45;&gt;dir_fdedb0aba14d44ce9d99bc100e026e6a -->
<g id="edge30" class="edge">
<title>dir_66594d64e62988c3486c2e5ab175cc33&#45;&gt;dir_fdedb0aba14d44ce9d99bc100e026e6a</title>
<g id="a_edge30"><a xlink:href="dir_000011_000000.html" target="_top">
<path fill="none" stroke="#63b8ff" d="M250.28,-126.42C251.76,-113.7 253.06,-89.55 245,-71.25 240.22,-60.4 231.6,-50.63 223.32,-43.01"/>
<polygon fill="#63b8ff" stroke="#63b8ff" points="225.7,-40.45 215.82,-36.63 221.16,-45.77 225.7,-40.45"/>
</a>
</g>
<g id="a_edge30&#45;headlabel"><a xlink:href="dir_000011_000000.html" target="_top" xlink:title="26">
<text xml:space="preserve" text-anchor="middle" x="229.13" y="-35.76" font-family="Helvetica,sans-Serif" font-size="10.00" fill="#63b8ff">26</text>
</a>
</g>
</g>
<!-- dir_66594d64e62988c3486c2e5ab175cc33&#45;&gt;dir_f9a522ad36cbef4b4066cfdd1c852a54 -->
<g id="edge29" class="edge">
<title>dir_66594d64e62988c3486c2e5ab175cc33&#45;&gt;dir_f9a522ad36cbef4b4066cfdd1c852a54</title>
<g id="a_edge29"><a xlink:href="dir_000011_000012.html" target="_top">
<path fill="none" stroke="#63b8ff" d="M244.21,-126.33C240.46,-119.44 235.09,-109.59 230.37,-100.91"/>
<polygon fill="#63b8ff" stroke="#63b8ff" points="233.47,-99.3 225.62,-92.19 227.33,-102.64 233.47,-99.3"/>
</a>
</g>
<g id="a_edge29&#45;headlabel"><a xlink:href="dir_000011_000012.html" target="_top" xlink:title="3">
<text xml:space="preserve" text-anchor="middle" x="236.96" y="-95.89" font-family="Helvetica,sans-Serif" font-size="10.00" fill="#63b8ff">3</text>
</a>
</g>
</g>
<!-- dir_f9a522ad36cbef4b4066cfdd1c852a54&#45;&gt;dir_fdedb0aba14d44ce9d99bc100e026e6a -->
<g id="edge31" class="edge">
<title>dir_f9a522ad36cbef4b4066cfdd1c852a54&#45;&gt;dir_fdedb0aba14d44ce9d99bc100e026e6a</title>
<g id="a_edge31"><a xlink:href="dir_000012_000000.html" target="_top">
<path fill="none" stroke="#63b8ff" d="M217.03,-71.08C214.75,-64.34 211.51,-54.77 208.63,-46.24"/>
<polygon fill="#63b8ff" stroke="#63b8ff" points="212.04,-45.4 205.52,-37.04 205.41,-47.64 212.04,-45.4"/>
</a>
</g>
<g id="a_edge31&#45;headlabel"><a xlink:href="dir_000012_000000.html" target="_top" xlink:title="13">
<text xml:space="preserve" text-anchor="middle" x="215.4" y="-42.58" font-family="Helvetica,sans-Serif" font-size="10.00" fill="#63b8ff">13</text>
</a>
</g>
</g>
</g>
</svg>
</svg>

<style type='text/css'>
<![CDATA[
[data-mouse-over-selected='false'] { opacity: 0.7; }
[data-mouse-over-selected='true']  { opacity: 1.0; }
]]>
</style>
<script type="application/ecmascript"><![CDATA[
document.addEventListener('DOMContentLoaded', (event) => {
  highlightEdges();
  highlightAdjacentNodes();
});
]]></script>
</svg>
