<?xml version="1.0" encoding="UTF-8" standalone="no"?>
<!DOCTYPE svg PUBLIC "-//W3C//DTD SVG 1.1//EN"
 "http://www.w3.org/Graphics/SVG/1.1/DTD/svg11.dtd">
<!-- Generated by graphviz version 14.0.0 (20250921.2048)
 -->
<!-- Title: src/preprocessor/ELPH_copy.h Pages: 1 -->
<svg width="246pt" height="105pt"
 viewBox="0.00 0.00 246.00 105.00" xmlns="http://www.w3.org/2000/svg" xmlns:xlink="http://www.w3.org/1999/xlink">
<g id="graph0" class="graph" transform="scale(1 1) rotate(0) translate(4 101)">
<title>src/preprocessor/ELPH_copy.h</title>
<!-- Node1 -->
<g id="Node000001" class="node">
<title>Node1</title>
<g id="a_Node000001"><a xlink:title=" ">
<polygon fill="#999999" stroke="#666666" points="182,-97 64,-97 64,-66.5 182,-66.5 182,-97"/>
<text xml:space="preserve" text-anchor="start" x="72" y="-83.5" font-family="Helvetica,sans-Serif" font-size="10.00">src/preprocessor/ELPH</text>
<text xml:space="preserve" text-anchor="middle" x="123" y="-72.25" font-family="Helvetica,sans-Serif" font-size="10.00">_copy.h</text>
</a>
</g>
</g>
<!-- Node2 -->
<g id="Node000002" class="node">
<title>Node2</title>
<g id="a_Node000002"><a xlink:href="../../d6/d28/_e_l_p_h__copy_8c.html" target="_top" xlink:title=" ">
<polygon fill="white" stroke="#666666" points="118,-30.5 0,-30.5 0,0 118,0 118,-30.5"/>
<text xml:space="preserve" text-anchor="start" x="8" y="-17" font-family="Helvetica,sans-Serif" font-size="10.00">src/preprocessor/ELPH</text>
<text xml:space="preserve" text-anchor="middle" x="59" y="-5.75" font-family="Helvetica,sans-Serif" font-size="10.00">_copy.c</text>
</a>
</g>
</g>
<!-- Node1&#45;&gt;Node2 -->
<g id="edge1_Node000001_Node000002" class="edge">
<title>Node1&#45;&gt;Node2</title>
<g id="a_edge1_Node000001_Node000002"><a xlink:title=" ">
<path fill="none" stroke="#63b8ff" d="M100.61,-58.19C91.6,-49.11 81.47,-38.9 73.47,-30.83"/>
<polygon fill="#63b8ff" stroke="#63b8ff" points="97.88,-60.41 107.41,-65.04 102.85,-55.48 97.88,-60.41"/>
</a>
</g>
</g>
<!-- Node3 -->
<g id="Node000003" class="node">
<title>Node3</title>
<g id="a_Node000003"><a xlink:href="../../d5/d0a/pp__ph__save_8c.html" target="_top" xlink:title=" ">
<polygon fill="white" stroke="#666666" points="238.12,-30.5 135.88,-30.5 135.88,0 238.12,0 238.12,-30.5"/>
<text xml:space="preserve" text-anchor="start" x="143.88" y="-17" font-family="Helvetica,sans-Serif" font-size="10.00">src/preprocessor/pp</text>
<text xml:space="preserve" text-anchor="middle" x="187" y="-5.75" font-family="Helvetica,sans-Serif" font-size="10.00">_ph_save.c</text>
</a>
</g>
</g>
<!-- Node1&#45;&gt;Node3 -->
<g id="edge2_Node000001_Node000003" class="edge">
<title>Node1&#45;&gt;Node3</title>
<g id="a_edge2_Node000001_Node000003"><a xlink:title=" ">
<path fill="none" stroke="#63b8ff" d="M145.39,-58.19C154.4,-49.11 164.53,-38.9 172.53,-30.83"/>
<polygon fill="#63b8ff" stroke="#63b8ff" points="143.15,-55.48 138.59,-65.04 148.12,-60.41 143.15,-55.48"/>
</a>
</g>
</g>
</g>
</svg>
