<?xml version="1.0" encoding="UTF-8" standalone="no"?>
<!DOCTYPE svg PUBLIC "-//W3C//DTD SVG 1.1//EN"
 "http://www.w3.org/Graphics/SVG/1.1/DTD/svg11.dtd">
<!-- Generated by graphviz version 14.0.0 (20250921.2048)
 -->
<!-- Title: src/fft/fft.h Pages: 1 -->
<svg width="333pt" height="83pt"
 viewBox="0.00 0.00 333.00 83.00" xmlns="http://www.w3.org/2000/svg" xmlns:xlink="http://www.w3.org/1999/xlink">
<g id="graph0" class="graph" transform="scale(1 1) rotate(0) translate(4 78.5)">
<title>src/fft/fft.h</title>
<!-- Node1 -->
<g id="Node000001" class="node">
<title>Node1</title>
<g id="a_Node000001"><a xlink:title=" ">
<polygon fill="#999999" stroke="#666666" points="200.75,-74.5 139,-74.5 139,-55.25 200.75,-55.25 200.75,-74.5"/>
<text xml:space="preserve" text-anchor="middle" x="169.88" y="-61" font-family="Helvetica,sans-Serif" font-size="10.00">src/fft/fft.h</text>
</a>
</g>
</g>
<!-- Node2 -->
<g id="Node000002" class="node">
<title>Node2</title>
<g id="a_Node000002"><a xlink:href="../../d4/d0a/elph_c_8h.html" target="_top" xlink:title="Core type definitions and configuration for LetzElPhC.">
<polygon fill="white" stroke="#666666" points="49.75,-19.25 0,-19.25 0,0 49.75,0 49.75,-19.25"/>
<text xml:space="preserve" text-anchor="middle" x="24.88" y="-5.75" font-family="Helvetica,sans-Serif" font-size="10.00">elphC.h</text>
</a>
</g>
</g>
<!-- Node1&#45;&gt;Node2 -->
<g id="edge1_Node000001_Node000002" class="edge">
<title>Node1&#45;&gt;Node2</title>
<g id="a_edge1_Node000001_Node000002"><a xlink:title=" ">
<path fill="none" stroke="#63b8ff" d="M145.28,-54.84C121.95,-46.27 86.64,-33.31 60.28,-23.63"/>
<polygon fill="#63b8ff" stroke="#63b8ff" points="61.61,-20.39 51.01,-20.22 59.19,-26.96 61.61,-20.39"/>
</a>
</g>
</g>
<!-- Node3 -->
<g id="Node000003" class="node">
<title>Node3</title>
<g id="a_Node000003"><a xlink:title=" ">
<polygon fill="#e0e0e0" stroke="#999999" points="128.38,-19.25 67.38,-19.25 67.38,0 128.38,0 128.38,-19.25"/>
<text xml:space="preserve" text-anchor="middle" x="97.88" y="-5.75" font-family="Helvetica,sans-Serif" font-size="10.00">complex.h</text>
</a>
</g>
</g>
<!-- Node1&#45;&gt;Node3 -->
<g id="edge2_Node000001_Node000003" class="edge">
<title>Node1&#45;&gt;Node3</title>
<g id="a_edge2_Node000001_Node000003"><a xlink:title=" ">
<path fill="none" stroke="#63b8ff" d="M157.66,-54.84C147.05,-46.99 131.44,-35.45 118.83,-26.12"/>
<polygon fill="#63b8ff" stroke="#63b8ff" points="121.25,-23.56 111.13,-20.42 117.08,-29.19 121.25,-23.56"/>
</a>
</g>
</g>
<!-- Node4 -->
<g id="Node000004" class="node">
<title>Node4</title>
<g id="a_Node000004"><a xlink:title=" ">
<polygon fill="#e0e0e0" stroke="#999999" points="192.88,-19.25 146.88,-19.25 146.88,0 192.88,0 192.88,-19.25"/>
<text xml:space="preserve" text-anchor="middle" x="169.88" y="-5.75" font-family="Helvetica,sans-Serif" font-size="10.00">fftw3.h</text>
</a>
</g>
</g>
<!-- Node1&#45;&gt;Node4 -->
<g id="edge3_Node000001_Node000004" class="edge">
<title>Node1&#45;&gt;Node4</title>
<g id="a_edge3_Node000001_Node000004"><a xlink:title=" ">
<path fill="none" stroke="#63b8ff" d="M169.88,-55.08C169.88,-48.57 169.88,-39.42 169.88,-31.12"/>
<polygon fill="#63b8ff" stroke="#63b8ff" points="173.38,-31.12 169.88,-21.12 166.38,-31.12 173.38,-31.12"/>
</a>
</g>
</g>
<!-- Node5 -->
<g id="Node000005" class="node">
<title>Node5</title>
<g id="a_Node000005"><a xlink:title=" ">
<polygon fill="#e0e0e0" stroke="#999999" points="250.88,-19.25 210.88,-19.25 210.88,0 250.88,0 250.88,-19.25"/>
<text xml:space="preserve" text-anchor="middle" x="230.88" y="-5.75" font-family="Helvetica,sans-Serif" font-size="10.00">mpi.h</text>
</a>
</g>
</g>
<!-- Node1&#45;&gt;Node5 -->
<g id="edge4_Node000001_Node000005" class="edge">
<title>Node1&#45;&gt;Node5</title>
<g id="a_edge4_Node000001_Node000005"><a xlink:title=" ">
<path fill="none" stroke="#63b8ff" d="M180.22,-54.84C188.95,-47.22 201.66,-36.12 212.17,-26.95"/>
<polygon fill="#63b8ff" stroke="#63b8ff" points="214.31,-29.73 219.54,-20.52 209.7,-24.46 214.31,-29.73"/>
</a>
</g>
</g>
<!-- Node6 -->
<g id="Node000006" class="node">
<title>Node6</title>
<g id="a_Node000006"><a xlink:title=" ">
<polygon fill="#e0e0e0" stroke="#999999" points="324.75,-19.25 269,-19.25 269,0 324.75,0 324.75,-19.25"/>
<text xml:space="preserve" text-anchor="middle" x="296.88" y="-5.75" font-family="Helvetica,sans-Serif" font-size="10.00">stdbool.h</text>
</a>
</g>
</g>
<!-- Node1&#45;&gt;Node6 -->
<g id="edge5_Node000001_Node000006" class="edge">
<title>Node1&#45;&gt;Node6</title>
<g id="a_edge5_Node000001_Node000006"><a xlink:title=" ">
<path fill="none" stroke="#63b8ff" d="M191.42,-54.84C211.49,-46.43 241.68,-33.77 264.62,-24.15"/>
<polygon fill="#63b8ff" stroke="#63b8ff" points="265.96,-27.38 273.83,-20.29 263.25,-20.93 265.96,-27.38"/>
</a>
</g>
</g>
</g>
</svg>
