<?xml version="1.0" encoding="UTF-8" standalone="no"?>
<!DOCTYPE svg PUBLIC "-//W3C//DTD SVG 1.1//EN"
 "http://www.w3.org/Graphics/SVG/1.1/DTD/svg11.dtd">
<!-- Generated by graphviz version 14.0.0 (20250921.2048)
 -->
<!-- Title: src/io/nc4_def_var.c Pages: 1 -->
<svg width="571pt" height="193pt"
 viewBox="0.00 0.00 571.00 193.00" xmlns="http://www.w3.org/2000/svg" xmlns:xlink="http://www.w3.org/1999/xlink">
<g id="graph0" class="graph" transform="scale(1 1) rotate(0) translate(4 189)">
<title>src/io/nc4_def_var.c</title>
<!-- Node1 -->
<g id="Node000001" class="node">
<title>Node1</title>
<g id="a_Node000001"><a xlink:title=" ">
<polygon fill="#999999" stroke="#666666" points="384.5,-185 280.75,-185 280.75,-165.75 384.5,-165.75 384.5,-185"/>
<text xml:space="preserve" text-anchor="middle" x="332.62" y="-171.5" font-family="Helvetica,sans-Serif" font-size="10.00">src/io/nc4_def_var.c</text>
</a>
</g>
</g>
<!-- Node2 -->
<g id="Node000002" class="node">
<title>Node2</title>
<g id="a_Node000002"><a xlink:title=" ">
<polygon fill="#e0e0e0" stroke="#999999" points="51.25,-74.5 0,-74.5 0,-55.25 51.25,-55.25 51.25,-74.5"/>
<text xml:space="preserve" text-anchor="middle" x="25.62" y="-61" font-family="Helvetica,sans-Serif" font-size="10.00">netcdf.h</text>
</a>
</g>
</g>
<!-- Node1&#45;&gt;Node2 -->
<g id="edge1_Node000001_Node000002" class="edge">
<title>Node1&#45;&gt;Node2</title>
<g id="a_edge1_Node000001_Node000002"><a xlink:title=" ">
<path fill="none" stroke="#63b8ff" d="M296.54,-165.27C264.88,-156.98 217.77,-143.91 177.62,-129.75 134.35,-114.49 85.67,-93.29 55.32,-79.58"/>
<polygon fill="#63b8ff" stroke="#63b8ff" points="56.94,-76.47 46.39,-75.52 54.04,-82.84 56.94,-76.47"/>
</a>
</g>
</g>
<!-- Node3 -->
<g id="Node000003" class="node">
<title>Node3</title>
<g id="a_Node000003"><a xlink:title=" ">
<polygon fill="#e0e0e0" stroke="#999999" points="138.25,-74.5 69,-74.5 69,-55.25 138.25,-55.25 138.25,-74.5"/>
<text xml:space="preserve" text-anchor="middle" x="103.62" y="-61" font-family="Helvetica,sans-Serif" font-size="10.00">netcdf_par.h</text>
</a>
</g>
</g>
<!-- Node1&#45;&gt;Node3 -->
<g id="edge2_Node000001_Node000003" class="edge">
<title>Node1&#45;&gt;Node3</title>
<g id="a_edge2_Node000001_Node000003"><a xlink:title=" ">
<path fill="none" stroke="#63b8ff" d="M305.9,-165.36C282.09,-157.03 246.48,-143.84 216.62,-129.75 184.96,-114.81 150.1,-94.47 127.59,-80.79"/>
<polygon fill="#63b8ff" stroke="#63b8ff" points="129.53,-77.88 119.18,-75.64 125.88,-83.85 129.53,-77.88"/>
</a>
</g>
</g>
<!-- Node4 -->
<g id="Node000004" class="node">
<title>Node4</title>
<g id="a_Node000004"><a xlink:title=" ">
<polygon fill="#e0e0e0" stroke="#999999" points="498.25,-129.75 453,-129.75 453,-110.5 498.25,-110.5 498.25,-129.75"/>
<text xml:space="preserve" text-anchor="middle" x="475.62" y="-116.25" font-family="Helvetica,sans-Serif" font-size="10.00">stdio.h</text>
</a>
</g>
</g>
<!-- Node1&#45;&gt;Node4 -->
<g id="edge3_Node000001_Node000004" class="edge">
<title>Node1&#45;&gt;Node4</title>
<g id="a_edge3_Node000001_Node000004"><a xlink:title=" ">
<path fill="none" stroke="#63b8ff" d="M356.88,-165.34C380.31,-156.62 415.99,-143.33 442.12,-133.6"/>
<polygon fill="#63b8ff" stroke="#63b8ff" points="443.1,-136.97 451.25,-130.2 440.66,-130.41 443.1,-136.97"/>
</a>
</g>
</g>
<!-- Node5 -->
<g id="Node000005" class="node">
<title>Node5</title>
<g id="a_Node000005"><a xlink:title=" ">
<polygon fill="#e0e0e0" stroke="#999999" points="563.38,-129.75 515.88,-129.75 515.88,-110.5 563.38,-110.5 563.38,-129.75"/>
<text xml:space="preserve" text-anchor="middle" x="539.62" y="-116.25" font-family="Helvetica,sans-Serif" font-size="10.00">stdlib.h</text>
</a>
</g>
</g>
<!-- Node1&#45;&gt;Node5 -->
<g id="edge4_Node000001_Node000005" class="edge">
<title>Node1&#45;&gt;Node5</title>
<g id="a_edge4_Node000001_Node000005"><a xlink:title=" ">
<path fill="none" stroke="#63b8ff" d="M368.86,-165.29C401.92,-156.96 452.43,-144.16 504.41,-130.57"/>
<polygon fill="#63b8ff" stroke="#63b8ff" points="505.27,-133.96 514.06,-128.04 503.5,-127.19 505.27,-133.96"/>
</a>
</g>
</g>
<!-- Node6 -->
<g id="Node000006" class="node">
<title>Node6</title>
<g id="a_Node000006"><a xlink:href="../../da/d41/error_8h.html" target="_top" xlink:title=" ">
<polygon fill="white" stroke="#666666" points="453.38,-19.25 369.88,-19.25 369.88,0 453.38,0 453.38,-19.25"/>
<text xml:space="preserve" text-anchor="middle" x="411.62" y="-5.75" font-family="Helvetica,sans-Serif" font-size="10.00">common/error.h</text>
</a>
</g>
</g>
<!-- Node1&#45;&gt;Node6 -->
<g id="edge5_Node000001_Node000006" class="edge">
<title>Node1&#45;&gt;Node6</title>
<g id="a_edge5_Node000001_Node000006"><a xlink:title=" ">
<path fill="none" stroke="#63b8ff" d="M341.79,-165.49C357.95,-149.19 391.16,-112.66 405.62,-74.5 410.9,-60.6 412.3,-43.82 412.44,-30.95"/>
<polygon fill="#63b8ff" stroke="#63b8ff" points="415.94,-31.09 412.28,-21.15 408.94,-31.21 415.94,-31.09"/>
</a>
</g>
</g>
<!-- Node7 -->
<g id="Node000007" class="node">
<title>Node7</title>
<g id="a_Node000007"><a xlink:href="../../dc/dac/io_8h.html" target="_top" xlink:title=" ">
<polygon fill="white" stroke="#666666" points="257.5,-129.75 225.75,-129.75 225.75,-110.5 257.5,-110.5 257.5,-129.75"/>
<text xml:space="preserve" text-anchor="middle" x="241.62" y="-116.25" font-family="Helvetica,sans-Serif" font-size="10.00">io.h</text>
</a>
</g>
</g>
<!-- Node1&#45;&gt;Node7 -->
<g id="edge6_Node000001_Node000007" class="edge">
<title>Node1&#45;&gt;Node7</title>
<g id="a_edge6_Node000001_Node000007"><a xlink:title=" ">
<path fill="none" stroke="#63b8ff" d="M317.19,-165.34C303.46,-157.31 283.13,-145.41 267.01,-135.98"/>
<polygon fill="#63b8ff" stroke="#63b8ff" points="268.84,-133 258.44,-130.97 265.31,-139.04 268.84,-133"/>
</a>
</g>
</g>
<!-- Node7&#45;&gt;Node2 -->
<g id="edge8_Node000007_Node000002" class="edge">
<title>Node7&#45;&gt;Node2</title>
<g id="a_edge8_Node000007_Node000002"><a xlink:title=" ">
<path fill="none" stroke="#63b8ff" d="M225.55,-115.23C195.48,-107.93 128.44,-91.62 62.59,-75.23"/>
<polygon fill="#63b8ff" stroke="#63b8ff" points="63.63,-71.88 53.08,-72.86 61.93,-78.67 63.63,-71.88"/>
</a>
</g>
</g>
<!-- Node7&#45;&gt;Node3 -->
<g id="edge9_Node000007_Node000003" class="edge">
<title>Node7&#45;&gt;Node3</title>
<g id="a_edge9_Node000007_Node000003"><a xlink:title=" ">
<path fill="none" stroke="#63b8ff" d="M225.25,-112.81C203.7,-104.49 165.27,-89.66 137.36,-78.89"/>
<polygon fill="#63b8ff" stroke="#63b8ff" points="138.87,-75.72 128.28,-75.39 136.35,-82.26 138.87,-75.72"/>
</a>
</g>
</g>
<!-- Node8 -->
<g id="Node000008" class="node">
<title>Node8</title>
<g id="a_Node000008"><a xlink:title=" ">
<polygon fill="#e0e0e0" stroke="#999999" points="191.62,-19.25 151.62,-19.25 151.62,0 191.62,0 191.62,-19.25"/>
<text xml:space="preserve" text-anchor="middle" x="171.62" y="-5.75" font-family="Helvetica,sans-Serif" font-size="10.00">mpi.h</text>
</a>
</g>
</g>
<!-- Node7&#45;&gt;Node8 -->
<g id="edge7_Node000007_Node000008" class="edge">
<title>Node7&#45;&gt;Node8</title>
<g id="a_edge7_Node000007_Node000008"><a xlink:title=" ">
<path fill="none" stroke="#63b8ff" d="M225.33,-110.34C212.55,-102.59 195.35,-90.12 185.62,-74.5 177.44,-61.35 174,-44.08 172.58,-30.81"/>
<polygon fill="#63b8ff" stroke="#63b8ff" points="176.09,-30.81 171.85,-21.09 169.11,-31.33 176.09,-30.81"/>
</a>
</g>
</g>
<!-- Node9 -->
<g id="Node000009" class="node">
<title>Node9</title>
<g id="a_Node000009"><a xlink:title=" ">
<polygon fill="#e0e0e0" stroke="#999999" points="396.25,-74.5 345,-74.5 345,-55.25 396.25,-55.25 396.25,-74.5"/>
<text xml:space="preserve" text-anchor="middle" x="370.62" y="-61" font-family="Helvetica,sans-Serif" font-size="10.00">stddef.h</text>
</a>
</g>
</g>
<!-- Node7&#45;&gt;Node9 -->
<g id="edge10_Node000007_Node000009" class="edge">
<title>Node7&#45;&gt;Node9</title>
<g id="a_edge10_Node000007_Node000009"><a xlink:title=" ">
<path fill="none" stroke="#63b8ff" d="M257.96,-112.38C278.13,-104.06 312.9,-89.7 338.49,-79.14"/>
<polygon fill="#63b8ff" stroke="#63b8ff" points="339.52,-82.5 347.43,-75.45 336.85,-76.03 339.52,-82.5"/>
</a>
</g>
</g>
<!-- Node10 -->
<g id="Node000010" class="node">
<title>Node10</title>
<g id="a_Node000010"><a xlink:href="../../d2/d02/dtypes_8h.html" target="_top" xlink:title=" ">
<polygon fill="white" stroke="#666666" points="288.62,-74.5 194.62,-74.5 194.62,-55.25 288.62,-55.25 288.62,-74.5"/>
<text xml:space="preserve" text-anchor="middle" x="241.62" y="-61" font-family="Helvetica,sans-Serif" font-size="10.00">common/dtypes.h</text>
</a>
</g>
</g>
<!-- Node7&#45;&gt;Node10 -->
<g id="edge11_Node000007_Node000010" class="edge">
<title>Node7&#45;&gt;Node10</title>
<g id="a_edge11_Node000007_Node000010"><a xlink:title=" ">
<path fill="none" stroke="#63b8ff" d="M241.62,-110.33C241.62,-103.82 241.62,-94.67 241.62,-86.37"/>
<polygon fill="#63b8ff" stroke="#63b8ff" points="245.13,-86.37 241.63,-76.37 238.13,-86.37 245.13,-86.37"/>
</a>
</g>
</g>
<!-- Node12 -->
<g id="Node000012" class="node">
<title>Node12</title>
<g id="a_Node000012"><a xlink:href="../../d4/d0a/elph_c_8h.html" target="_top" xlink:title="Core type definitions and configuration for LetzElPhC.">
<polygon fill="white" stroke="#666666" points="339.5,-19.25 289.75,-19.25 289.75,0 339.5,0 339.5,-19.25"/>
<text xml:space="preserve" text-anchor="middle" x="314.62" y="-5.75" font-family="Helvetica,sans-Serif" font-size="10.00">elphC.h</text>
</a>
</g>
</g>
<!-- Node7&#45;&gt;Node12 -->
<g id="edge16_Node000007_Node000012" class="edge">
<title>Node7&#45;&gt;Node12</title>
<g id="a_edge16_Node000007_Node000012"><a xlink:title=" ">
<path fill="none" stroke="#63b8ff" d="M258,-110.06C270.64,-102.24 287.62,-89.8 297.62,-74.5 306.19,-61.4 310.45,-44.12 312.57,-30.84"/>
<polygon fill="#63b8ff" stroke="#63b8ff" points="316.02,-31.46 313.82,-21.1 309.07,-30.58 316.02,-31.46"/>
</a>
</g>
</g>
<!-- Node10&#45;&gt;Node6 -->
<g id="edge15_Node000010_Node000006" class="edge">
<title>Node10&#45;&gt;Node6</title>
<g id="a_edge15_Node000010_Node000006"><a xlink:title=" ">
<path fill="none" stroke="#63b8ff" d="M270.46,-54.84C298.3,-46.12 340.7,-32.84 371.76,-23.11"/>
<polygon fill="#63b8ff" stroke="#63b8ff" points="372.7,-26.48 381.2,-20.15 370.61,-19.8 372.7,-26.48"/>
</a>
</g>
</g>
<!-- Node10&#45;&gt;Node8 -->
<g id="edge12_Node000010_Node000008" class="edge">
<title>Node10&#45;&gt;Node8</title>
<g id="a_edge12_Node000010_Node000008"><a xlink:title=" ">
<path fill="none" stroke="#63b8ff" d="M229.75,-54.84C219.53,-47.07 204.55,-35.67 192.36,-26.4"/>
<polygon fill="#63b8ff" stroke="#63b8ff" points="194.61,-23.71 184.53,-20.44 190.37,-29.28 194.61,-23.71"/>
</a>
</g>
</g>
<!-- Node11 -->
<g id="Node000011" class="node">
<title>Node11</title>
<g id="a_Node000011"><a xlink:title=" ">
<polygon fill="#e0e0e0" stroke="#999999" points="269.5,-19.25 213.75,-19.25 213.75,0 269.5,0 269.5,-19.25"/>
<text xml:space="preserve" text-anchor="middle" x="241.62" y="-5.75" font-family="Helvetica,sans-Serif" font-size="10.00">stdbool.h</text>
</a>
</g>
</g>
<!-- Node10&#45;&gt;Node11 -->
<g id="edge13_Node000010_Node000011" class="edge">
<title>Node10&#45;&gt;Node11</title>
<g id="a_edge13_Node000010_Node000011"><a xlink:title=" ">
<path fill="none" stroke="#63b8ff" d="M241.62,-55.08C241.62,-48.57 241.62,-39.42 241.62,-31.12"/>
<polygon fill="#63b8ff" stroke="#63b8ff" points="245.13,-31.12 241.63,-21.12 238.13,-31.12 245.13,-31.12"/>
</a>
</g>
</g>
<!-- Node10&#45;&gt;Node12 -->
<g id="edge14_Node000010_Node000012" class="edge">
<title>Node10&#45;&gt;Node12</title>
<g id="a_edge14_Node000010_Node000012"><a xlink:title=" ">
<path fill="none" stroke="#63b8ff" d="M254.01,-54.84C264.77,-46.99 280.6,-35.45 293.38,-26.12"/>
<polygon fill="#63b8ff" stroke="#63b8ff" points="295.19,-29.14 301.2,-20.42 291.06,-23.48 295.19,-29.14"/>
</a>
</g>
</g>
</g>
</svg>
