<?xml version="1.0" encoding="UTF-8" standalone="no"?>
<!DOCTYPE svg PUBLIC "-//W3C//DTD SVG 1.1//EN"
 "http://www.w3.org/Graphics/SVG/1.1/DTD/svg11.dtd">
<!-- Generated by graphviz version 14.0.0 (20250921.2048)
 -->
<!-- Title: src/elph/compute_dmats.c Pages: 1 -->
<!--zoomable 193 -->

<svg id="main" version="1.1" xmlns="http://www.w3.org/2000/svg" xmlns:xlink="http://www.w3.org/1999/xlink" xml:space="preserve" onload="init(evt)">

<style type="text/css"><![CDATA[
.node, .edge {opacity: 0.7;}
.node.selected, .edge.selected {opacity: 1;}
.edge:hover path { stroke: red; }
.edge:hover polygon { stroke: red; fill: red; }
]]></style>

<defs>
  <circle id="rim" cx="0" cy="0" r="7"/>
  <circle id="rim2" cx="0" cy="0" r="3.5"/>
  <g id="zoomPlus">
    <use xlink:href="#rim" fill="#404040"><set attributeName="fill" to="#808080" begin="zoomplus.mouseover" end="zoomplus.mouseout"/></use>
    <path d="M-4,0h8M0,-4v8" fill="none" stroke="white" stroke-width="1.5" pointer-events="none"/>
  </g>
  <g id="zoomMin">
    <use xlink:href="#rim" fill="#404040"><set attributeName="fill" to="#808080" begin="zoomminus.mouseover" end="zoomminus.mouseout"/></use>
    <path d="M-4,0h8" fill="none" stroke="white" stroke-width="1.5" pointer-events="none"/>
  </g>
  <g id="arrowUp" transform="translate(30 24)">
    <use xlink:href="#rim"/>
    <path pointer-events="none" fill="none" stroke="white" stroke-width="1.5" d="M0,-3.0v7 M-2.5,-0.5L0,-3.0L2.5,-0.5"/>
  </g>
  <g id="arrowRight" transform="rotate(90) translate(36 -43)">
    <use xlink:href="#rim"/>
    <path pointer-events="none" fill="none" stroke="white" stroke-width="1.5" d="M0,-3.0v7 M-2.5,-0.5L0,-3.0L2.5,-0.5"/>
  </g>
  <g id="arrowDown" transform="rotate(180) translate(-30 -48)">
    <use xlink:href="#rim"/>
    <path pointer-events="none" fill="none" stroke="white" stroke-width="1.5" d="M0,-3.0v7 M-2.5,-0.5L0,-3.0L2.5,-0.5"/>
  </g>
  <g id="arrowLeft" transform="rotate(270) translate(-36 17)">
    <use xlink:href="#rim"/>
    <path pointer-events="none" fill="none" stroke="white" stroke-width="1.5" d="M0,-3.0v7 M-2.5,-0.5L0,-3.0L2.5,-0.5"/>
  </g>
  <g id="resetDef">
    <use xlink:href="#rim2" fill="#404040"><set attributeName="fill" to="#808080" begin="reset.mouseover" end="reset.mouseout"/></use>
  </g>
</defs>
<script type="application/ecmascript">
var viewWidth = 831;
var viewHeight = 193;
var sectionId = 'dynsection-0';
</script>
<script type="application/ecmascript" xlink:href="../../svg.min.js"/>
<svg id="graph" class="graph">
<g id="viewport">
<title>src/elph/compute_dmats.c</title>
<!-- Node1 -->
<g id="Node000001" class="node">
<title>Node1</title>
<g id="a_Node000001"><a xlink:title=" ">
<polygon fill="#999999" stroke="#666666" points="357.83,-185 226.33,-185 226.33,-165.75 357.83,-165.75 357.83,-185"/>
<text xml:space="preserve" text-anchor="middle" x="292.08" y="-171.5" font-family="Helvetica,sans-Serif" font-size="10.00">src/elph/compute_dmats.c</text>
</a>
</g>
</g>
<!-- Node2 -->
<g id="Node000002" class="node">
<title>Node2</title>
<g id="a_Node000002"><a xlink:title=" ">
<polygon fill="#e0e0e0" stroke="#999999" points="63.7,-74.5 12.45,-74.5 12.45,-55.25 63.7,-55.25 63.7,-74.5"/>
<text xml:space="preserve" text-anchor="middle" x="38.08" y="-61" font-family="Helvetica,sans-Serif" font-size="10.00">netcdf.h</text>
</a>
</g>
</g>
<!-- Node1&#45;&gt;Node2 -->
<g id="edge1_Node000001_Node000002" class="edge">
<title>Node1&#45;&gt;Node2</title>
<g id="a_edge1_Node000001_Node000002"><a xlink:title=" ">
<path fill="none" stroke="#63b8ff" d="M225.96,-167.38C169.98,-160.33 95.09,-147.88 71.08,-129.75 56.75,-118.94 48.11,-100.13 43.29,-85.71"/>
<polygon fill="#63b8ff" stroke="#63b8ff" points="46.71,-84.95 40.52,-76.36 40,-86.94 46.71,-84.95"/>
</a>
</g>
</g>
<!-- Node3 -->
<g id="Node000003" class="node">
<title>Node3</title>
<g id="a_Node000003"><a xlink:title=" ">
<polygon fill="#e0e0e0" stroke="#999999" points="150.7,-74.5 81.45,-74.5 81.45,-55.25 150.7,-55.25 150.7,-74.5"/>
<text xml:space="preserve" text-anchor="middle" x="116.08" y="-61" font-family="Helvetica,sans-Serif" font-size="10.00">netcdf_par.h</text>
</a>
</g>
</g>
<!-- Node1&#45;&gt;Node3 -->
<g id="edge2_Node000001_Node000003" class="edge">
<title>Node1&#45;&gt;Node3</title>
<g id="a_edge2_Node000001_Node000003"><a xlink:title=" ">
<path fill="none" stroke="#63b8ff" d="M280.18,-165.43C262.93,-152.63 229.79,-128.62 200.08,-110.5 182.03,-99.5 161.04,-88.34 144.55,-79.94"/>
<polygon fill="#63b8ff" stroke="#63b8ff" points="146.3,-76.9 135.8,-75.52 143.15,-83.15 146.3,-76.9"/>
</a>
</g>
</g>
<!-- Node4 -->
<g id="Node000004" class="node">
<title>Node4</title>
<g id="a_Node000004"><a xlink:title=" ">
<polygon fill="#e0e0e0" stroke="#999999" points="125.7,-129.75 80.45,-129.75 80.45,-110.5 125.7,-110.5 125.7,-129.75"/>
<text xml:space="preserve" text-anchor="middle" x="103.08" y="-116.25" font-family="Helvetica,sans-Serif" font-size="10.00">stdio.h</text>
</a>
</g>
</g>
<!-- Node1&#45;&gt;Node4 -->
<g id="edge3_Node000001_Node000004" class="edge">
<title>Node1&#45;&gt;Node4</title>
<g id="a_edge3_Node000001_Node000004"><a xlink:title=" ">
<path fill="none" stroke="#63b8ff" d="M260.01,-165.34C225.86,-155.72 172,-140.54 137.1,-130.71"/>
<polygon fill="#63b8ff" stroke="#63b8ff" points="138.09,-127.35 127.51,-128.01 136.19,-134.09 138.09,-127.35"/>
</a>
</g>
</g>
<!-- Node5 -->
<g id="Node000005" class="node">
<title>Node5</title>
<g id="a_Node000005"><a xlink:title=" ">
<polygon fill="#e0e0e0" stroke="#999999" points="190.83,-129.75 143.33,-129.75 143.33,-110.5 190.83,-110.5 190.83,-129.75"/>
<text xml:space="preserve" text-anchor="middle" x="167.08" y="-116.25" font-family="Helvetica,sans-Serif" font-size="10.00">stdlib.h</text>
</a>
</g>
</g>
<!-- Node1&#45;&gt;Node5 -->
<g id="edge4_Node000001_Node000005" class="edge">
<title>Node1&#45;&gt;Node5</title>
<g id="a_edge4_Node000001_Node000005"><a xlink:title=" ">
<path fill="none" stroke="#63b8ff" d="M270.87,-165.34C251.12,-156.93 221.4,-144.27 198.82,-134.65"/>
<polygon fill="#63b8ff" stroke="#63b8ff" points="200.35,-131.49 189.78,-130.8 197.61,-137.93 200.35,-131.49"/>
</a>
</g>
</g>
<!-- Node6 -->
<g id="Node000006" class="node">
<title>Node6</title>
<g id="a_Node000006"><a xlink:href="../../d2/d02/dtypes_8h.html" target="_top" xlink:title=" ">
<polygon fill="white" stroke="#666666" points="446.08,-74.5 352.08,-74.5 352.08,-55.25 446.08,-55.25 446.08,-74.5"/>
<text xml:space="preserve" text-anchor="middle" x="399.08" y="-61" font-family="Helvetica,sans-Serif" font-size="10.00">common/dtypes.h</text>
</a>
</g>
</g>
<!-- Node1&#45;&gt;Node6 -->
<g id="edge5_Node000001_Node000006" class="edge">
<title>Node1&#45;&gt;Node6</title>
<g id="a_edge5_Node000001_Node000006"><a xlink:title=" ">
<path fill="none" stroke="#63b8ff" d="M296.91,-165.39C304.21,-152.32 319.05,-127.75 336.08,-110.5 347.18,-99.25 361.43,-88.89 373.57,-80.99"/>
<polygon fill="#63b8ff" stroke="#63b8ff" points="375.26,-84.06 381.87,-75.77 371.54,-78.13 375.26,-84.06"/>
</a>
</g>
</g>
<!-- Node9 -->
<g id="Node000009" class="node">
<title>Node9</title>
<g id="a_Node000009"><a xlink:href="../../d4/d0a/elph_c_8h.html" target="_top" xlink:title="Core type definitions and configuration for LetzElPhC.">
<polygon fill="white" stroke="#666666" points="628.95,-19.25 579.2,-19.25 579.2,0 628.95,0 628.95,-19.25"/>
<text xml:space="preserve" text-anchor="middle" x="604.08" y="-5.75" font-family="Helvetica,sans-Serif" font-size="10.00">elphC.h</text>
</a>
</g>
</g>
<!-- Node1&#45;&gt;Node9 -->
<g id="edge22_Node000001_Node000009" class="edge">
<title>Node1&#45;&gt;Node9</title>
<g id="a_edge22_Node000001_Node000009"><a xlink:title=" ">
<path fill="none" stroke="#63b8ff" d="M357.87,-173.22C488.17,-169.25 770.68,-151.73 819.08,-74.5 823.62,-67.25 824.48,-61.89 819.08,-55.25 797,-28.12 696.07,-16.95 640.7,-12.81"/>
<polygon fill="#63b8ff" stroke="#63b8ff" points="641.03,-9.32 630.8,-12.11 640.53,-16.3 641.03,-9.32"/>
</a>
</g>
</g>
<!-- Node10 -->
<g id="Node000010" class="node">
<title>Node10</title>
<g id="a_Node000010"><a xlink:href="../../da/d41/error_8h.html" target="_top" xlink:title=" ">
<polygon fill="white" stroke="#666666" points="182.58,-19.25 139.58,-19.25 139.58,0 182.58,0 182.58,-19.25"/>
<text xml:space="preserve" text-anchor="middle" x="161.08" y="-5.75" font-family="Helvetica,sans-Serif" font-size="10.00">error.h</text>
</a>
</g>
</g>
<!-- Node1&#45;&gt;Node10 -->
<g id="edge10_Node000001_Node000010" class="edge">
<title>Node1&#45;&gt;Node10</title>
<g id="a_edge10_Node000001_Node000010"><a xlink:title=" ">
<path fill="none" stroke="#63b8ff" d="M225.91,-173.77C175.09,-170.65 104.73,-160.42 51.08,-129.75 22.84,-113.61 14.46,-104.97 3.08,-74.5 -16.19,-22.95 75.96,-12.59 127.78,-10.78"/>
<polygon fill="#63b8ff" stroke="#63b8ff" points="127.67,-14.28 137.58,-10.53 127.49,-7.28 127.67,-14.28"/>
</a>
</g>
</g>
<!-- Node11 -->
<g id="Node000011" class="node">
<title>Node11</title>
<g id="a_Node000011"><a xlink:href="../../df/d5c/parallel_8h.html" target="_top" xlink:title=" ">
<polygon fill="white" stroke="#666666" points="440.83,-129.75 345.33,-129.75 345.33,-110.5 440.83,-110.5 440.83,-129.75"/>
<text xml:space="preserve" text-anchor="middle" x="393.08" y="-116.25" font-family="Helvetica,sans-Serif" font-size="10.00">common/parallel.h</text>
</a>
</g>
</g>
<!-- Node1&#45;&gt;Node11 -->
<g id="edge11_Node000001_Node000011" class="edge">
<title>Node1&#45;&gt;Node11</title>
<g id="a_edge11_Node000001_Node000011"><a xlink:title=" ">
<path fill="none" stroke="#63b8ff" d="M309.21,-165.34C324.73,-157.16 347.88,-144.96 365.92,-135.44"/>
<polygon fill="#63b8ff" stroke="#63b8ff" points="367.31,-138.67 374.52,-130.91 364.04,-132.48 367.31,-138.67"/>
</a>
</g>
</g>
<!-- Node12 -->
<g id="Node000012" class="node">
<title>Node12</title>
<g id="a_Node000012"><a xlink:href="../../db/db5/progess__bar_8h.html" target="_top" xlink:title=" ">
<polygon fill="white" stroke="#666666" points="809.7,-74.5 692.45,-74.5 692.45,-55.25 809.7,-55.25 809.7,-74.5"/>
<text xml:space="preserve" text-anchor="middle" x="751.08" y="-61" font-family="Helvetica,sans-Serif" font-size="10.00">common/progess_bar.h</text>
</a>
</g>
</g>
<!-- Node1&#45;&gt;Node12 -->
<g id="edge15_Node000001_Node000012" class="edge">
<title>Node1&#45;&gt;Node12</title>
<g id="a_edge15_Node000001_Node000012"><a xlink:title=" ">
<path fill="none" stroke="#63b8ff" d="M358.08,-171.33C452.42,-166.19 620.54,-153.93 676.08,-129.75 700.23,-119.24 722.47,-98.25 736.35,-83.2"/>
<polygon fill="#63b8ff" stroke="#63b8ff" points="738.84,-85.68 742.86,-75.87 733.6,-81.03 738.84,-85.68"/>
</a>
</g>
</g>
<!-- Node13 -->
<g id="Node000013" class="node">
<title>Node13</title>
<g id="a_Node000013"><a xlink:href="../../dc/d69/elph_8h.html" target="_top" xlink:title=" ">
<polygon fill="white" stroke="#666666" points="501.2,-129.75 458.95,-129.75 458.95,-110.5 501.2,-110.5 501.2,-129.75"/>
<text xml:space="preserve" text-anchor="middle" x="480.08" y="-116.25" font-family="Helvetica,sans-Serif" font-size="10.00">elph.h</text>
</a>
</g>
</g>
<!-- Node1&#45;&gt;Node13 -->
<g id="edge17_Node000001_Node000013" class="edge">
<title>Node1&#45;&gt;Node13</title>
<g id="a_edge17_Node000001_Node000013"><a xlink:title=" ">
<path fill="none" stroke="#63b8ff" d="M324.47,-165.27C354.17,-156.92 399.66,-144.1 447.81,-130.39"/>
<polygon fill="#63b8ff" stroke="#63b8ff" points="448.66,-133.78 457.32,-127.68 446.74,-127.05 448.66,-133.78"/>
</a>
</g>
</g>
<!-- Node14 -->
<g id="Node000014" class="node">
<title>Node14</title>
<g id="a_Node000014"><a xlink:href="../../dc/dac/io_8h.html" target="_top" xlink:title=" ">
<polygon fill="white" stroke="#666666" points="289.2,-129.75 246.95,-129.75 246.95,-110.5 289.2,-110.5 289.2,-129.75"/>
<text xml:space="preserve" text-anchor="middle" x="268.08" y="-116.25" font-family="Helvetica,sans-Serif" font-size="10.00">io/io.h</text>
</a>
</g>
</g>
<!-- Node1&#45;&gt;Node14 -->
<g id="edge23_Node000001_Node000014" class="edge">
<title>Node1&#45;&gt;Node14</title>
<g id="a_edge23_Node000001_Node000014"><a xlink:title=" ">
<path fill="none" stroke="#63b8ff" d="M288.11,-165.58C285.04,-158.76 280.66,-149.06 276.79,-140.45"/>
<polygon fill="#63b8ff" stroke="#63b8ff" points="280.05,-139.17 272.75,-131.49 273.67,-142.04 280.05,-139.17"/>
</a>
</g>
</g>
<!-- Node16 -->
<g id="Node000016" class="node">
<title>Node16</title>
<g id="a_Node000016"><a xlink:href="../../dc/dec/symmetries_8h.html" target="_top" xlink:title=" ">
<polygon fill="white" stroke="#666666" points="666.7,-129.75 537.45,-129.75 537.45,-110.5 666.7,-110.5 666.7,-129.75"/>
<text xml:space="preserve" text-anchor="middle" x="602.08" y="-116.25" font-family="Helvetica,sans-Serif" font-size="10.00">symmetries/symmetries.h</text>
</a>
</g>
</g>
<!-- Node1&#45;&gt;Node16 -->
<g id="edge30_Node000001_Node000016" class="edge">
<title>Node1&#45;&gt;Node16</title>
<g id="a_edge30_Node000001_Node000016"><a xlink:title=" ">
<path fill="none" stroke="#63b8ff" d="M345.01,-165.28C398.43,-156.11 480.97,-141.93 538.04,-132.13"/>
<polygon fill="#63b8ff" stroke="#63b8ff" points="538.34,-135.62 547.6,-130.48 537.16,-128.73 538.34,-135.62"/>
</a>
</g>
</g>
<!-- Node7 -->
<g id="Node000007" class="node">
<title>Node7</title>
<g id="a_Node000007"><a xlink:title=" ">
<polygon fill="#e0e0e0" stroke="#999999" points="381.08,-19.25 341.08,-19.25 341.08,0 381.08,0 381.08,-19.25"/>
<text xml:space="preserve" text-anchor="middle" x="361.08" y="-5.75" font-family="Helvetica,sans-Serif" font-size="10.00">mpi.h</text>
</a>
</g>
</g>
<!-- Node6&#45;&gt;Node7 -->
<g id="edge6_Node000006_Node000007" class="edge">
<title>Node6&#45;&gt;Node7</title>
<g id="a_edge6_Node000006_Node000007"><a xlink:title=" ">
<path fill="none" stroke="#63b8ff" d="M392.8,-55.08C387.72,-47.96 380.38,-37.68 374.04,-28.8"/>
<polygon fill="#63b8ff" stroke="#63b8ff" points="377.02,-26.95 368.37,-20.84 371.33,-31.01 377.02,-26.95"/>
</a>
</g>
</g>
<!-- Node8 -->
<g id="Node000008" class="node">
<title>Node8</title>
<g id="a_Node000008"><a xlink:title=" ">
<polygon fill="#e0e0e0" stroke="#999999" points="560.95,-19.25 505.2,-19.25 505.2,0 560.95,0 560.95,-19.25"/>
<text xml:space="preserve" text-anchor="middle" x="533.08" y="-5.75" font-family="Helvetica,sans-Serif" font-size="10.00">stdbool.h</text>
</a>
</g>
</g>
<!-- Node6&#45;&gt;Node8 -->
<g id="edge7_Node000006_Node000008" class="edge">
<title>Node6&#45;&gt;Node8</title>
<g id="a_edge7_Node000006_Node000008"><a xlink:title=" ">
<path fill="none" stroke="#63b8ff" d="M421.81,-54.84C443.18,-46.35 475.42,-33.54 499.7,-23.89"/>
<polygon fill="#63b8ff" stroke="#63b8ff" points="500.83,-27.21 508.83,-20.26 498.24,-20.7 500.83,-27.21"/>
</a>
</g>
</g>
<!-- Node6&#45;&gt;Node9 -->
<g id="edge8_Node000006_Node000009" class="edge">
<title>Node6&#45;&gt;Node9</title>
<g id="a_edge8_Node000006_Node000009"><a xlink:title=" ">
<path fill="none" stroke="#63b8ff" d="M433.85,-54.84C471.12,-45.16 530.01,-29.86 567.83,-20.04"/>
<polygon fill="#63b8ff" stroke="#63b8ff" points="568.59,-23.46 577.38,-17.56 566.83,-16.68 568.59,-23.46"/>
</a>
</g>
</g>
<!-- Node6&#45;&gt;Node10 -->
<g id="edge9_Node000006_Node000010" class="edge">
<title>Node6&#45;&gt;Node10</title>
<g id="a_edge9_Node000006_Node000010"><a xlink:title=" ">
<path fill="none" stroke="#63b8ff" d="M358.43,-54.78C312.07,-44.41 237.16,-27.65 194.2,-18.04"/>
<polygon fill="#63b8ff" stroke="#63b8ff" points="194.98,-14.62 184.45,-15.86 193.45,-21.45 194.98,-14.62"/>
</a>
</g>
</g>
<!-- Node11&#45;&gt;Node6 -->
<g id="edge13_Node000011_Node000006" class="edge">
<title>Node11&#45;&gt;Node6</title>
<g id="a_edge13_Node000011_Node000006"><a xlink:title=" ">
<path fill="none" stroke="#63b8ff" d="M394.07,-110.33C394.81,-103.74 395.86,-94.46 396.8,-86.07"/>
<polygon fill="#63b8ff" stroke="#63b8ff" points="400.25,-86.69 397.89,-76.36 393.3,-85.91 400.25,-86.69"/>
</a>
</g>
</g>
<!-- Node11&#45;&gt;Node7 -->
<g id="edge12_Node000011_Node000007" class="edge">
<title>Node11&#45;&gt;Node7</title>
<g id="a_edge12_Node000011_Node000007"><a xlink:title=" ">
<path fill="none" stroke="#63b8ff" d="M377.16,-110.08C365.31,-102.34 350.02,-90 343.08,-74.5 336.53,-59.88 342.4,-42.29 349.14,-29.28"/>
<polygon fill="#63b8ff" stroke="#63b8ff" points="352.01,-31.31 353.99,-20.9 345.95,-27.8 352.01,-31.31"/>
</a>
</g>
</g>
<!-- Node11&#45;&gt;Node9 -->
<g id="edge14_Node000011_Node000009" class="edge">
<title>Node11&#45;&gt;Node9</title>
<g id="a_edge14_Node000011_Node000009"><a xlink:title=" ">
<path fill="none" stroke="#63b8ff" d="M410.7,-110.06C447.39,-91.19 532.22,-47.57 576.32,-24.9"/>
<polygon fill="#63b8ff" stroke="#63b8ff" points="577.71,-28.12 585,-20.43 574.51,-21.89 577.71,-28.12"/>
</a>
</g>
</g>
<!-- Node12&#45;&gt;Node9 -->
<g id="edge16_Node000012_Node000009" class="edge">
<title>Node12&#45;&gt;Node9</title>
<g id="a_edge16_Node000012_Node000009"><a xlink:title=" ">
<path fill="none" stroke="#63b8ff" d="M726.14,-54.84C702.38,-46.24 666.37,-33.19 639.61,-23.5"/>
<polygon fill="#63b8ff" stroke="#63b8ff" points="641.15,-20.33 630.56,-20.22 638.77,-26.91 641.15,-20.33"/>
</a>
</g>
</g>
<!-- Node13&#45;&gt;Node6 -->
<g id="edge20_Node000013_Node000006" class="edge">
<title>Node13&#45;&gt;Node6</title>
<g id="a_edge20_Node000013_Node000006"><a xlink:title=" ">
<path fill="none" stroke="#63b8ff" d="M466.34,-110.09C454.35,-102.21 436.7,-90.61 422.49,-81.27"/>
<polygon fill="#63b8ff" stroke="#63b8ff" points="424.43,-78.35 414.15,-75.78 420.58,-84.2 424.43,-78.35"/>
</a>
</g>
</g>
<!-- Node13&#45;&gt;Node7 -->
<g id="edge18_Node000013_Node000007" class="edge">
<title>Node13&#45;&gt;Node7</title>
<g id="a_edge18_Node000013_Node000007"><a xlink:title=" ">
<path fill="none" stroke="#63b8ff" d="M478.72,-110.17C476.26,-96.7 469.85,-71.1 455.08,-55.25 438.21,-37.16 412.51,-25.66 392.23,-18.87"/>
<polygon fill="#63b8ff" stroke="#63b8ff" points="393.36,-15.55 382.78,-15.93 391.29,-22.24 393.36,-15.55"/>
</a>
</g>
</g>
<!-- Node13&#45;&gt;Node8 -->
<g id="edge19_Node000013_Node000008" class="edge">
<title>Node13&#45;&gt;Node8</title>
<g id="a_edge19_Node000013_Node000008"><a xlink:title=" ">
<path fill="none" stroke="#63b8ff" d="M484.41,-110.25C492.95,-92.76 512.12,-53.52 523.69,-29.84"/>
<polygon fill="#63b8ff" stroke="#63b8ff" points="526.77,-31.51 528.01,-20.99 520.48,-28.44 526.77,-31.51"/>
</a>
</g>
</g>
<!-- Node13&#45;&gt;Node9 -->
<g id="edge21_Node000013_Node000009" class="edge">
<title>Node13&#45;&gt;Node9</title>
<g id="a_edge21_Node000013_Node000009"><a xlink:title=" ">
<path fill="none" stroke="#63b8ff" d="M490.22,-110.25C511.02,-92.05 558.77,-50.27 585.35,-27.01"/>
<polygon fill="#63b8ff" stroke="#63b8ff" points="587.43,-29.84 592.65,-20.62 582.82,-24.57 587.43,-29.84"/>
</a>
</g>
</g>
<!-- Node14&#45;&gt;Node2 -->
<g id="edge25_Node000014_Node000002" class="edge">
<title>Node14&#45;&gt;Node2</title>
<g id="a_edge25_Node000014_Node000002"><a xlink:title=" ">
<path fill="none" stroke="#63b8ff" d="M246.57,-114.41C212.29,-106.86 142.88,-91.4 74.94,-75.15"/>
<polygon fill="#63b8ff" stroke="#63b8ff" points="76.06,-71.82 65.52,-72.89 74.43,-78.63 76.06,-71.82"/>
</a>
</g>
</g>
<!-- Node14&#45;&gt;Node3 -->
<g id="edge26_Node000014_Node000003" class="edge">
<title>Node14&#45;&gt;Node3</title>
<g id="a_edge26_Node000014_Node000003"><a xlink:title=" ">
<path fill="none" stroke="#63b8ff" d="M246.62,-111.61C222.24,-103.07 182.03,-88.98 152.67,-78.69"/>
<polygon fill="#63b8ff" stroke="#63b8ff" points="154.02,-75.46 143.43,-75.46 151.71,-82.07 154.02,-75.46"/>
</a>
</g>
</g>
<!-- Node14&#45;&gt;Node6 -->
<g id="edge28_Node000014_Node000006" class="edge">
<title>Node14&#45;&gt;Node6</title>
<g id="a_edge28_Node000014_Node000006"><a xlink:title=" ">
<path fill="none" stroke="#63b8ff" d="M289.41,-110.45C310.29,-101.97 342.36,-88.93 366.44,-79.14"/>
<polygon fill="#63b8ff" stroke="#63b8ff" points="367.52,-82.48 375.47,-75.47 364.89,-75.99 367.52,-82.48"/>
</a>
</g>
</g>
<!-- Node14&#45;&gt;Node7 -->
<g id="edge24_Node000014_Node000007" class="edge">
<title>Node14&#45;&gt;Node7</title>
<g id="a_edge24_Node000014_Node000007"><a xlink:title=" ">
<path fill="none" stroke="#63b8ff" d="M266.09,-110.43C263.61,-97.29 260.92,-72.12 272.08,-55.25 285.21,-35.39 309.97,-23.98 330.05,-17.68"/>
<polygon fill="#63b8ff" stroke="#63b8ff" points="330.79,-21.11 339.46,-15.02 328.88,-14.38 330.79,-21.11"/>
</a>
</g>
</g>
<!-- Node14&#45;&gt;Node9 -->
<g id="edge29_Node000014_Node000009" class="edge">
<title>Node14&#45;&gt;Node9</title>
<g id="a_edge29_Node000014_Node000009"><a xlink:title=" ">
<path fill="none" stroke="#63b8ff" d="M275.35,-110.39C287.68,-96.24 314.18,-68.55 343.08,-55.25 432.61,-14.04 467.55,-38 567.67,-19.49"/>
<polygon fill="#63b8ff" stroke="#63b8ff" points="568.26,-22.94 577.4,-17.58 566.91,-16.07 568.26,-22.94"/>
</a>
</g>
</g>
<!-- Node15 -->
<g id="Node000015" class="node">
<title>Node15</title>
<g id="a_Node000015"><a xlink:title=" ">
<polygon fill="#e0e0e0" stroke="#999999" points="219.7,-74.5 168.45,-74.5 168.45,-55.25 219.7,-55.25 219.7,-74.5"/>
<text xml:space="preserve" text-anchor="middle" x="194.08" y="-61" font-family="Helvetica,sans-Serif" font-size="10.00">stddef.h</text>
</a>
</g>
</g>
<!-- Node14&#45;&gt;Node15 -->
<g id="edge27_Node000014_Node000015" class="edge">
<title>Node14&#45;&gt;Node15</title>
<g id="a_edge27_Node000014_Node000015"><a xlink:title=" ">
<path fill="none" stroke="#63b8ff" d="M255.52,-110.09C244.61,-102.24 228.57,-90.7 215.61,-81.37"/>
<polygon fill="#63b8ff" stroke="#63b8ff" points="217.83,-78.66 207.67,-75.66 213.74,-84.34 217.83,-78.66"/>
</a>
</g>
</g>
<!-- Node16&#45;&gt;Node6 -->
<g id="edge32_Node000016_Node000006" class="edge">
<title>Node16&#45;&gt;Node6</title>
<g id="a_edge32_Node000016_Node000006"><a xlink:title=" ">
<path fill="none" stroke="#63b8ff" d="M567.64,-110.09C533.81,-101.22 481.99,-87.62 444.74,-77.85"/>
<polygon fill="#63b8ff" stroke="#63b8ff" points="445.71,-74.49 435.14,-75.34 443.93,-81.26 445.71,-74.49"/>
</a>
</g>
</g>
<!-- Node16&#45;&gt;Node8 -->
<g id="edge31_Node000016_Node000008" class="edge">
<title>Node16&#45;&gt;Node8</title>
<g id="a_edge31_Node000016_Node000008"><a xlink:title=" ">
<path fill="none" stroke="#63b8ff" d="M596.43,-110.25C585.21,-92.6 559.9,-52.8 544.89,-29.2"/>
<polygon fill="#63b8ff" stroke="#63b8ff" points="547.93,-27.46 539.61,-20.9 542.03,-31.22 547.93,-27.46"/>
</a>
</g>
</g>
<!-- Node16&#45;&gt;Node9 -->
<g id="edge33_Node000016_Node000009" class="edge">
<title>Node16&#45;&gt;Node9</title>
<g id="a_edge33_Node000016_Node000009"><a xlink:title=" ">
<path fill="none" stroke="#63b8ff" d="M613.15,-110.2C622.34,-102.03 634.73,-89.02 640.08,-74.5 646.29,-57.61 634.66,-39.9 623,-27.42"/>
<polygon fill="#63b8ff" stroke="#63b8ff" points="625.81,-25.27 616.22,-20.75 620.9,-30.26 625.81,-25.27"/>
</a>
</g>
</g>
</g>
</svg>

<g id="navigator" transform="translate(0 0)" fill="#404254">
  <rect fill="#f2f5e9" fill-opacity="0.5" stroke="#606060" stroke-width=".5" x="0" y="0" width="60" height="60"/>
  <use id="zoomplus" xlink:href="#zoomPlus" x="17" y="9" onmousedown="handleZoom(evt,'in')"/>
  <use id="zoomminus" xlink:href="#zoomMin" x="42" y="9" onmousedown="handleZoom(evt,'out')"/>
  <use id="reset" xlink:href="#resetDef" x="30" y="36" onmousedown="handleReset()"/>
   <use id="arrowup" xlink:href="#arrowUp" x="0" y="0" onmousedown="handlePan(0,-1)"/>
  <use id="arrowright" xlink:href="#arrowRight" x="0" y="0" onmousedown="handlePan(1,0)"/>
  <use id="arrowdown" xlink:href="#arrowDown" x="0" y="0" onmousedown="handlePan(0,1)"/>
  <use id="arrowleft" xlink:href="#arrowLeft" x="0" y="0" onmousedown="handlePan(-1,0)"/>
</g>
<svg viewBox="0 0 15 15" width="100%" height="30px" preserveAspectRatio="xMaxYMin meet">
 <g id="arrow_out" transform="scale(0.3 0.3)">
  <a xlink:href="compute__dmats_8c__incl_org.svg" target="_base">
   <rect id="button" ry="5" rx="5" y="6" x="6" height="38" width="38"
        fill="#f2f5e9" fill-opacity="0.5" stroke="#606060" stroke-width="1.0"/>
   <path id="arrow"
     d="M 11.500037,31.436501 C 11.940474,20.09759 22.043105,11.32322 32.158766,21.979434 L 37.068811,17.246167 C 37.068811,17.246167 37.088388,32 37.088388,32 L 22.160133,31.978069 C 22.160133,31.978069 26.997745,27.140456 26.997745,27.140456 C 18.528582,18.264221 13.291696,25.230495 11.500037,31.436501 z"
     style="fill:#404040;"/>
  </a>
 </g>
</svg>

<style type='text/css'>
<![CDATA[
[data-mouse-over-selected='false'] { opacity: 0.7; }
[data-mouse-over-selected='true']  { opacity: 1.0; }
]]>
</style>
<script type="application/ecmascript"><![CDATA[
document.addEventListener('DOMContentLoaded', (event) => {
  highlightEdges();
  highlightAdjacentNodes();
});
]]></script>
</svg>
