<?xml version="1.0" encoding="UTF-8" standalone="no"?>
<!DOCTYPE svg PUBLIC "-//W3C//DTD SVG 1.1//EN"
 "http://www.w3.org/Graphics/SVG/1.1/DTD/svg11.dtd">
<!-- Generated by graphviz version 14.0.0 (20250921.2048)
 -->
<!-- Title: src/elph/compute_elph_matq.c Pages: 1 -->
<!--zoomable 204 -->

<svg id="main" version="1.1" xmlns="http://www.w3.org/2000/svg" xmlns:xlink="http://www.w3.org/1999/xlink" xml:space="preserve" onload="init(evt)">

<style type="text/css"><![CDATA[
.node, .edge {opacity: 0.7;}
.node.selected, .edge.selected {opacity: 1;}
.edge:hover path { stroke: red; }
.edge:hover polygon { stroke: red; fill: red; }
]]></style>

<defs>
  <circle id="rim" cx="0" cy="0" r="7"/>
  <circle id="rim2" cx="0" cy="0" r="3.5"/>
  <g id="zoomPlus">
    <use xlink:href="#rim" fill="#404040"><set attributeName="fill" to="#808080" begin="zoomplus.mouseover" end="zoomplus.mouseout"/></use>
    <path d="M-4,0h8M0,-4v8" fill="none" stroke="white" stroke-width="1.5" pointer-events="none"/>
  </g>
  <g id="zoomMin">
    <use xlink:href="#rim" fill="#404040"><set attributeName="fill" to="#808080" begin="zoomminus.mouseover" end="zoomminus.mouseout"/></use>
    <path d="M-4,0h8" fill="none" stroke="white" stroke-width="1.5" pointer-events="none"/>
  </g>
  <g id="arrowUp" transform="translate(30 24)">
    <use xlink:href="#rim"/>
    <path pointer-events="none" fill="none" stroke="white" stroke-width="1.5" d="M0,-3.0v7 M-2.5,-0.5L0,-3.0L2.5,-0.5"/>
  </g>
  <g id="arrowRight" transform="rotate(90) translate(36 -43)">
    <use xlink:href="#rim"/>
    <path pointer-events="none" fill="none" stroke="white" stroke-width="1.5" d="M0,-3.0v7 M-2.5,-0.5L0,-3.0L2.5,-0.5"/>
  </g>
  <g id="arrowDown" transform="rotate(180) translate(-30 -48)">
    <use xlink:href="#rim"/>
    <path pointer-events="none" fill="none" stroke="white" stroke-width="1.5" d="M0,-3.0v7 M-2.5,-0.5L0,-3.0L2.5,-0.5"/>
  </g>
  <g id="arrowLeft" transform="rotate(270) translate(-36 17)">
    <use xlink:href="#rim"/>
    <path pointer-events="none" fill="none" stroke="white" stroke-width="1.5" d="M0,-3.0v7 M-2.5,-0.5L0,-3.0L2.5,-0.5"/>
  </g>
  <g id="resetDef">
    <use xlink:href="#rim2" fill="#404040"><set attributeName="fill" to="#808080" begin="reset.mouseover" end="reset.mouseout"/></use>
  </g>
</defs>
<script type="application/ecmascript">
var viewWidth = 1235;
var viewHeight = 204;
var sectionId = 'dynsection-0';
</script>
<script type="application/ecmascript" xlink:href="../../svg.min.js"/>
<svg id="graph" class="graph">
<g id="viewport">
<title>src/elph/compute_elph_matq.c</title>
<!-- Node1 -->
<g id="Node000001" class="node">
<title>Node1</title>
<g id="a_Node000001"><a xlink:title=" ">
<polygon fill="#999999" stroke="#666666" points="626.47,-196.25 512.22,-196.25 512.22,-165.75 626.47,-165.75 626.47,-196.25"/>
<text xml:space="preserve" text-anchor="start" x="520.22" y="-182.75" font-family="Helvetica,sans-Serif" font-size="10.00">src/elph/compute_elph</text>
<text xml:space="preserve" text-anchor="middle" x="569.34" y="-171.5" font-family="Helvetica,sans-Serif" font-size="10.00">_matq.c</text>
</a>
</g>
</g>
<!-- Node2 -->
<g id="Node000002" class="node">
<title>Node2</title>
<g id="a_Node000002"><a xlink:title=" ">
<polygon fill="#e0e0e0" stroke="#999999" points="467.34,-19.25 427.34,-19.25 427.34,0 467.34,0 467.34,-19.25"/>
<text xml:space="preserve" text-anchor="middle" x="447.34" y="-5.75" font-family="Helvetica,sans-Serif" font-size="10.00">mpi.h</text>
</a>
</g>
</g>
<!-- Node1&#45;&gt;Node2 -->
<g id="edge1_Node000001_Node000002" class="edge">
<title>Node1&#45;&gt;Node2</title>
<g id="a_edge1_Node000001_Node000002"><a xlink:title=" ">
<path fill="none" stroke="#63b8ff" d="M511.85,-180.79C419.69,-180.69 245.26,-174.42 206.34,-129.75 143.21,-57.28 337.59,-24.32 416.04,-14.2"/>
<polygon fill="#63b8ff" stroke="#63b8ff" points="416.16,-17.71 425.66,-13 415.3,-10.76 416.16,-17.71"/>
</a>
</g>
</g>
<!-- Node3 -->
<g id="Node000003" class="node">
<title>Node3</title>
<g id="a_Node000003"><a xlink:title=" ">
<polygon fill="#e0e0e0" stroke="#999999" points="71.97,-129.75 20.72,-129.75 20.72,-110.5 71.97,-110.5 71.97,-129.75"/>
<text xml:space="preserve" text-anchor="middle" x="46.34" y="-116.25" font-family="Helvetica,sans-Serif" font-size="10.00">netcdf.h</text>
</a>
</g>
</g>
<!-- Node1&#45;&gt;Node3 -->
<g id="edge2_Node000001_Node000003" class="edge">
<title>Node1&#45;&gt;Node3</title>
<g id="a_edge2_Node000001_Node000003"><a xlink:title=" ">
<path fill="none" stroke="#63b8ff" d="M511.75,-176.81C422,-171.25 243.23,-157.78 83.24,-130.05"/>
<polygon fill="#63b8ff" stroke="#63b8ff" points="84.19,-126.66 73.74,-128.37 82.98,-133.55 84.19,-126.66"/>
</a>
</g>
</g>
<!-- Node4 -->
<g id="Node000004" class="node">
<title>Node4</title>
<g id="a_Node000004"><a xlink:title=" ">
<polygon fill="#e0e0e0" stroke="#999999" points="158.97,-129.75 89.72,-129.75 89.72,-110.5 158.97,-110.5 158.97,-129.75"/>
<text xml:space="preserve" text-anchor="middle" x="124.34" y="-116.25" font-family="Helvetica,sans-Serif" font-size="10.00">netcdf_par.h</text>
</a>
</g>
</g>
<!-- Node1&#45;&gt;Node4 -->
<g id="edge3_Node000001_Node000004" class="edge">
<title>Node1&#45;&gt;Node4</title>
<g id="a_edge3_Node000001_Node000004"><a xlink:title=" ">
<path fill="none" stroke="#63b8ff" d="M511.84,-173.58C434.68,-164.77 293.42,-147.93 173.34,-129.75 172.35,-129.6 171.35,-129.45 170.34,-129.29"/>
<polygon fill="#63b8ff" stroke="#63b8ff" points="171.3,-125.9 160.87,-127.74 170.17,-132.81 171.3,-125.9"/>
</a>
</g>
</g>
<!-- Node5 -->
<g id="Node000005" class="node">
<title>Node5</title>
<g id="a_Node000005"><a xlink:title=" ">
<polygon fill="#e0e0e0" stroke="#999999" points="959.22,-19.25 903.47,-19.25 903.47,0 959.22,0 959.22,-19.25"/>
<text xml:space="preserve" text-anchor="middle" x="931.34" y="-5.75" font-family="Helvetica,sans-Serif" font-size="10.00">stdbool.h</text>
</a>
</g>
</g>
<!-- Node1&#45;&gt;Node5 -->
<g id="edge4_Node000001_Node000005" class="edge">
<title>Node1&#45;&gt;Node5</title>
<g id="a_edge4_Node000001_Node000005"><a xlink:title=" ">
<path fill="none" stroke="#63b8ff" d="M626.91,-180.59C773.7,-180.65 1155.21,-171.32 1223.34,-74.5 1228.27,-67.5 1228.92,-61.74 1223.34,-55.25 1191.22,-17.84 1042.6,-11.45 970.62,-10.59"/>
<polygon fill="#63b8ff" stroke="#63b8ff" points="970.89,-7.09 960.86,-10.51 970.83,-14.09 970.89,-7.09"/>
</a>
</g>
</g>
<!-- Node6 -->
<g id="Node000006" class="node">
<title>Node6</title>
<g id="a_Node000006"><a xlink:title=" ">
<polygon fill="#e0e0e0" stroke="#999999" points="260.97,-129.75 215.72,-129.75 215.72,-110.5 260.97,-110.5 260.97,-129.75"/>
<text xml:space="preserve" text-anchor="middle" x="238.34" y="-116.25" font-family="Helvetica,sans-Serif" font-size="10.00">stdio.h</text>
</a>
</g>
</g>
<!-- Node1&#45;&gt;Node6 -->
<g id="edge5_Node000001_Node000006" class="edge">
<title>Node1&#45;&gt;Node6</title>
<g id="a_edge5_Node000001_Node000006"><a xlink:title=" ">
<path fill="none" stroke="#63b8ff" d="M511.76,-172.2C453.54,-163.89 360.78,-149.54 272.34,-130.24"/>
<polygon fill="#63b8ff" stroke="#63b8ff" points="273.29,-126.87 262.77,-128.13 271.78,-133.7 273.29,-126.87"/>
</a>
</g>
</g>
<!-- Node7 -->
<g id="Node000007" class="node">
<title>Node7</title>
<g id="a_Node000007"><a xlink:title=" ">
<polygon fill="#e0e0e0" stroke="#999999" points="326.09,-129.75 278.59,-129.75 278.59,-110.5 326.09,-110.5 326.09,-129.75"/>
<text xml:space="preserve" text-anchor="middle" x="302.34" y="-116.25" font-family="Helvetica,sans-Serif" font-size="10.00">stdlib.h</text>
</a>
</g>
</g>
<!-- Node1&#45;&gt;Node7 -->
<g id="edge6_Node000001_Node000007" class="edge">
<title>Node1&#45;&gt;Node7</title>
<g id="a_edge6_Node000001_Node000007"><a xlink:title=" ">
<path fill="none" stroke="#63b8ff" d="M511.96,-168.41C467,-159.17 402.6,-145.56 337.36,-130.15"/>
<polygon fill="#63b8ff" stroke="#63b8ff" points="338.47,-126.82 327.93,-127.91 336.85,-133.63 338.47,-126.82"/>
</a>
</g>
</g>
<!-- Node8 -->
<g id="Node000008" class="node">
<title>Node8</title>
<g id="a_Node000008"><a xlink:title=" ">
<polygon fill="#e0e0e0" stroke="#999999" points="392.47,-129.75 344.22,-129.75 344.22,-110.5 392.47,-110.5 392.47,-129.75"/>
<text xml:space="preserve" text-anchor="middle" x="368.34" y="-116.25" font-family="Helvetica,sans-Serif" font-size="10.00">string.h</text>
</a>
</g>
</g>
<!-- Node1&#45;&gt;Node8 -->
<g id="edge7_Node000001_Node000008" class="edge">
<title>Node1&#45;&gt;Node8</title>
<g id="a_edge7_Node000001_Node000008"><a xlink:title=" ">
<path fill="none" stroke="#63b8ff" d="M519.14,-165.3C483.31,-154.8 435.98,-140.94 403.98,-131.56"/>
<polygon fill="#63b8ff" stroke="#63b8ff" points="404.96,-128.2 394.38,-128.75 403,-134.92 404.96,-128.2"/>
</a>
</g>
</g>
<!-- Node9 -->
<g id="Node000009" class="node">
<title>Node9</title>
<g id="a_Node000009"><a xlink:href="../../d2/d02/dtypes_8h.html" target="_top" xlink:title=" ">
<polygon fill="white" stroke="#666666" points="664.34,-74.5 570.34,-74.5 570.34,-55.25 664.34,-55.25 664.34,-74.5"/>
<text xml:space="preserve" text-anchor="middle" x="617.34" y="-61" font-family="Helvetica,sans-Serif" font-size="10.00">common/dtypes.h</text>
</a>
</g>
</g>
<!-- Node1&#45;&gt;Node9 -->
<g id="edge8_Node000001_Node000009" class="edge">
<title>Node1&#45;&gt;Node9</title>
<g id="a_edge8_Node000001_Node000009"><a xlink:title=" ">
<path fill="none" stroke="#63b8ff" d="M592.97,-165.4C604.77,-156.67 617.87,-144.42 624.34,-129.75 630.48,-115.84 628.09,-98.64 624.53,-85.59"/>
<polygon fill="#63b8ff" stroke="#63b8ff" points="627.98,-84.88 621.59,-76.43 621.31,-87.02 627.98,-84.88"/>
</a>
</g>
</g>
<!-- Node10 -->
<g id="Node000010" class="node">
<title>Node10</title>
<g id="a_Node000010"><a xlink:href="../../d4/d0a/elph_c_8h.html" target="_top" xlink:title="Core type definitions and configuration for LetzElPhC.">
<polygon fill="white" stroke="#666666" points="755.22,-19.25 705.47,-19.25 705.47,0 755.22,0 755.22,-19.25"/>
<text xml:space="preserve" text-anchor="middle" x="730.34" y="-5.75" font-family="Helvetica,sans-Serif" font-size="10.00">elphC.h</text>
</a>
</g>
</g>
<!-- Node1&#45;&gt;Node10 -->
<g id="edge32_Node000001_Node000010" class="edge">
<title>Node1&#45;&gt;Node10</title>
<g id="a_edge32_Node000001_Node000010"><a xlink:title=" ">
<path fill="none" stroke="#63b8ff" d="M626.93,-177.47C738.63,-171.98 975.92,-157.18 1000.34,-129.75 1018.01,-109.91 1000.41,-73.28 978.34,-55.25 946.5,-29.24 827.71,-17.37 766.83,-12.89"/>
<polygon fill="#63b8ff" stroke="#63b8ff" points="767.2,-9.41 756.98,-12.2 766.71,-16.39 767.2,-9.41"/>
</a>
</g>
</g>
<!-- Node11 -->
<g id="Node000011" class="node">
<title>Node11</title>
<g id="a_Node000011"><a xlink:href="../../da/d41/error_8h.html" target="_top" xlink:title=" ">
<polygon fill="white" stroke="#666666" points="220.84,-19.25 177.84,-19.25 177.84,0 220.84,0 220.84,-19.25"/>
<text xml:space="preserve" text-anchor="middle" x="199.34" y="-5.75" font-family="Helvetica,sans-Serif" font-size="10.00">error.h</text>
</a>
</g>
</g>
<!-- Node1&#45;&gt;Node11 -->
<g id="edge13_Node000001_Node000011" class="edge">
<title>Node1&#45;&gt;Node11</title>
<g id="a_edge13_Node000001_Node000011"><a xlink:title=" ">
<path fill="none" stroke="#63b8ff" d="M511.78,-179.12C376,-176.43 44.64,-166.19 11.34,-129.75 -40.18,-73.38 99.9,-33.05 166.45,-17.59"/>
<polygon fill="#63b8ff" stroke="#63b8ff" points="167.12,-21.02 176.11,-15.41 165.58,-14.2 167.12,-21.02"/>
</a>
</g>
</g>
<!-- Node12 -->
<g id="Node000012" class="node">
<title>Node12</title>
<g id="a_Node000012"><a xlink:href="../../df/def/numerical__func_8h.html" target="_top" xlink:title=" ">
<polygon fill="white" stroke="#666666" points="1214.72,-74.5 1083.97,-74.5 1083.97,-55.25 1214.72,-55.25 1214.72,-74.5"/>
<text xml:space="preserve" text-anchor="middle" x="1149.34" y="-61" font-family="Helvetica,sans-Serif" font-size="10.00">common/numerical_func.h</text>
</a>
</g>
</g>
<!-- Node1&#45;&gt;Node12 -->
<g id="edge14_Node000001_Node000012" class="edge">
<title>Node1&#45;&gt;Node12</title>
<g id="a_edge14_Node000001_Node000012"><a xlink:title=" ">
<path fill="none" stroke="#63b8ff" d="M626.88,-180.95C716.07,-180.85 892.13,-174.3 1033.34,-129.75 1068.52,-118.65 1105.16,-96.38 1127.62,-81.3"/>
<polygon fill="#63b8ff" stroke="#63b8ff" points="1129.37,-84.34 1135.64,-75.79 1125.41,-78.57 1129.37,-84.34"/>
</a>
</g>
</g>
<!-- Node13 -->
<g id="Node000013" class="node">
<title>Node13</title>
<g id="a_Node000013"><a xlink:href="../../df/d5c/parallel_8h.html" target="_top" xlink:title=" ">
<polygon fill="white" stroke="#666666" points="506.09,-129.75 410.59,-129.75 410.59,-110.5 506.09,-110.5 506.09,-129.75"/>
<text xml:space="preserve" text-anchor="middle" x="458.34" y="-116.25" font-family="Helvetica,sans-Serif" font-size="10.00">common/parallel.h</text>
</a>
</g>
</g>
<!-- Node1&#45;&gt;Node13 -->
<g id="edge17_Node000001_Node000013" class="edge">
<title>Node1&#45;&gt;Node13</title>
<g id="a_edge17_Node000001_Node000013"><a xlink:title=" ">
<path fill="none" stroke="#63b8ff" d="M541.62,-165.3C524.39,-156.16 502.35,-144.47 485.27,-135.41"/>
<polygon fill="#63b8ff" stroke="#63b8ff" points="487.18,-132.46 476.7,-130.86 483.9,-138.64 487.18,-132.46"/>
</a>
</g>
</g>
<!-- Node14 -->
<g id="Node000014" class="node">
<title>Node14</title>
<g id="a_Node000014"><a xlink:href="../../db/db5/progess__bar_8h.html" target="_top" xlink:title=" ">
<polygon fill="white" stroke="#666666" points="951.97,-74.5 834.72,-74.5 834.72,-55.25 951.97,-55.25 951.97,-74.5"/>
<text xml:space="preserve" text-anchor="middle" x="893.34" y="-61" font-family="Helvetica,sans-Serif" font-size="10.00">common/progess_bar.h</text>
</a>
</g>
</g>
<!-- Node1&#45;&gt;Node14 -->
<g id="edge21_Node000001_Node000014" class="edge">
<title>Node1&#45;&gt;Node14</title>
<g id="a_edge21_Node000001_Node000014"><a xlink:title=" ">
<path fill="none" stroke="#63b8ff" d="M626.71,-177.22C703.49,-172.38 834.24,-159.87 870.34,-129.75 883.22,-119 888.89,-100.47 891.38,-86.12"/>
<polygon fill="#63b8ff" stroke="#63b8ff" points="894.83,-86.77 892.66,-76.39 887.89,-85.85 894.83,-86.77"/>
</a>
</g>
</g>
<!-- Node15 -->
<g id="Node000015" class="node">
<title>Node15</title>
<g id="a_Node000015"><a xlink:href="../../d8/dc9/dvloc_8h.html" target="_top" xlink:title=" ">
<polygon fill="white" stroke="#666666" points="991.22,-129.75 917.47,-129.75 917.47,-110.5 991.22,-110.5 991.22,-129.75"/>
<text xml:space="preserve" text-anchor="middle" x="954.34" y="-116.25" font-family="Helvetica,sans-Serif" font-size="10.00">dvloc/dvloc.h</text>
</a>
</g>
</g>
<!-- Node1&#45;&gt;Node15 -->
<g id="edge23_Node000001_Node000015" class="edge">
<title>Node1&#45;&gt;Node15</title>
<g id="a_edge23_Node000001_Node000015"><a xlink:title=" ">
<path fill="none" stroke="#63b8ff" d="M626.72,-171.69C693.3,-161.98 806.35,-145.25 903.34,-129.75 904.17,-129.62 905.01,-129.48 905.86,-129.35"/>
<polygon fill="#63b8ff" stroke="#63b8ff" points="906.24,-132.83 915.54,-127.76 905.1,-125.92 906.24,-132.83"/>
</a>
</g>
</g>
<!-- Node16 -->
<g id="Node000016" class="node">
<title>Node16</title>
<g id="a_Node000016"><a xlink:href="../../dc/d69/elph_8h.html" target="_top" xlink:title=" ">
<polygon fill="white" stroke="#666666" points="713.47,-129.75 671.22,-129.75 671.22,-110.5 713.47,-110.5 713.47,-129.75"/>
<text xml:space="preserve" text-anchor="middle" x="692.34" y="-116.25" font-family="Helvetica,sans-Serif" font-size="10.00">elph.h</text>
</a>
</g>
</g>
<!-- Node1&#45;&gt;Node16 -->
<g id="edge27_Node000001_Node000016" class="edge">
<title>Node1&#45;&gt;Node16</title>
<g id="a_edge27_Node000001_Node000016"><a xlink:title=" ">
<path fill="none" stroke="#63b8ff" d="M600.06,-165.3C619.42,-156.03 644.27,-144.13 663.3,-135.02"/>
<polygon fill="#63b8ff" stroke="#63b8ff" points="664.6,-138.28 672.11,-130.81 661.58,-131.97 664.6,-138.28"/>
</a>
</g>
</g>
<!-- Node17 -->
<g id="Node000017" class="node">
<title>Node17</title>
<g id="a_Node000017"><a xlink:href="../../d9/dd1/_vnonloc_8h.html" target="_top" xlink:title=" ">
<polygon fill="white" stroke="#666666" points="614.84,-129.75 523.84,-129.75 523.84,-110.5 614.84,-110.5 614.84,-129.75"/>
<text xml:space="preserve" text-anchor="middle" x="569.34" y="-116.25" font-family="Helvetica,sans-Serif" font-size="10.00">nonloc/Vnonloc.h</text>
</a>
</g>
</g>
<!-- Node1&#45;&gt;Node17 -->
<g id="edge33_Node000001_Node000017" class="edge">
<title>Node1&#45;&gt;Node17</title>
<g id="a_edge33_Node000001_Node000017"><a xlink:title=" ">
<path fill="none" stroke="#63b8ff" d="M569.34,-165.45C569.34,-158.21 569.34,-149.34 569.34,-141.44"/>
<polygon fill="#63b8ff" stroke="#63b8ff" points="572.84,-141.71 569.34,-131.71 565.84,-141.71 572.84,-141.71"/>
</a>
</g>
</g>
<!-- Node18 -->
<g id="Node000018" class="node">
<title>Node18</title>
<g id="a_Node000018"><a xlink:href="../../dc/dec/symmetries_8h.html" target="_top" xlink:title=" ">
<polygon fill="white" stroke="#666666" points="860.97,-129.75 731.72,-129.75 731.72,-110.5 860.97,-110.5 860.97,-129.75"/>
<text xml:space="preserve" text-anchor="middle" x="796.34" y="-116.25" font-family="Helvetica,sans-Serif" font-size="10.00">symmetries/symmetries.h</text>
</a>
</g>
</g>
<!-- Node1&#45;&gt;Node18 -->
<g id="edge36_Node000001_Node000018" class="edge">
<title>Node1&#45;&gt;Node18</title>
<g id="a_edge36_Node000001_Node000018"><a xlink:title=" ">
<path fill="none" stroke="#63b8ff" d="M626.04,-165.3C664.31,-155.37 714.2,-142.43 750.07,-133.13"/>
<polygon fill="#63b8ff" stroke="#63b8ff" points="750.93,-136.52 759.73,-130.62 749.17,-129.74 750.93,-136.52"/>
</a>
</g>
</g>
<!-- Node9&#45;&gt;Node2 -->
<g id="edge9_Node000009_Node000002" class="edge">
<title>Node9&#45;&gt;Node2</title>
<g id="a_edge9_Node000009_Node000002"><a xlink:title=" ">
<path fill="none" stroke="#63b8ff" d="M588.5,-54.84C557.96,-45.28 509.91,-30.22 478.51,-20.39"/>
<polygon fill="#63b8ff" stroke="#63b8ff" points="479.79,-17.12 469.21,-17.47 477.7,-23.8 479.79,-17.12"/>
</a>
</g>
</g>
<!-- Node9&#45;&gt;Node5 -->
<g id="edge10_Node000009_Node000005" class="edge">
<title>Node9&#45;&gt;Node5</title>
<g id="a_edge10_Node000009_Node000005"><a xlink:title=" ">
<path fill="none" stroke="#63b8ff" d="M664.69,-55.85C726.72,-45.33 834.36,-27.07 892.09,-17.28"/>
<polygon fill="#63b8ff" stroke="#63b8ff" points="892.51,-20.76 901.79,-15.64 891.34,-13.86 892.51,-20.76"/>
</a>
</g>
</g>
<!-- Node9&#45;&gt;Node10 -->
<g id="edge11_Node000009_Node000010" class="edge">
<title>Node9&#45;&gt;Node10</title>
<g id="a_edge11_Node000009_Node000010"><a xlink:title=" ">
<path fill="none" stroke="#63b8ff" d="M636.51,-54.84C654.12,-46.54 680.5,-34.11 700.81,-24.54"/>
<polygon fill="#63b8ff" stroke="#63b8ff" points="702.16,-27.78 709.71,-20.35 699.17,-21.44 702.16,-27.78"/>
</a>
</g>
</g>
<!-- Node9&#45;&gt;Node11 -->
<g id="edge12_Node000009_Node000011" class="edge">
<title>Node9&#45;&gt;Node11</title>
<g id="a_edge12_Node000009_Node000011"><a xlink:title=" ">
<path fill="none" stroke="#63b8ff" d="M570.2,-57.87C484.85,-47 306.71,-24.3 232.7,-14.87"/>
<polygon fill="#63b8ff" stroke="#63b8ff" points="233.2,-11.41 222.84,-13.62 232.32,-18.35 233.2,-11.41"/>
</a>
</g>
</g>
<!-- Node12&#45;&gt;Node5 -->
<g id="edge15_Node000012_Node000005" class="edge">
<title>Node12&#45;&gt;Node5</title>
<g id="a_edge15_Node000012_Node000005"><a xlink:title=" ">
<path fill="none" stroke="#63b8ff" d="M1112.36,-54.84C1072.92,-45.21 1010.7,-30.01 970.45,-20.18"/>
<polygon fill="#63b8ff" stroke="#63b8ff" points="971.49,-16.83 960.94,-17.86 969.83,-23.63 971.49,-16.83"/>
</a>
</g>
</g>
<!-- Node12&#45;&gt;Node10 -->
<g id="edge16_Node000012_Node000010" class="edge">
<title>Node12&#45;&gt;Node10</title>
<g id="a_edge16_Node000012_Node000010"><a xlink:title=" ">
<path fill="none" stroke="#63b8ff" d="M1083.87,-55.55C994.67,-44.22 837.93,-24.3 767.02,-15.29"/>
<polygon fill="#63b8ff" stroke="#63b8ff" points="767.47,-11.82 757.11,-14.03 766.59,-18.76 767.47,-11.82"/>
</a>
</g>
</g>
<!-- Node13&#45;&gt;Node2 -->
<g id="edge18_Node000013_Node000002" class="edge">
<title>Node13&#45;&gt;Node2</title>
<g id="a_edge18_Node000013_Node000002"><a xlink:title=" ">
<path fill="none" stroke="#63b8ff" d="M457,-110.25C455.68,-101.26 453.66,-86.94 452.34,-74.5 450.81,-60.05 449.54,-43.72 448.66,-31.18"/>
<polygon fill="#63b8ff" stroke="#63b8ff" points="452.16,-30.99 448,-21.25 445.17,-31.46 452.16,-30.99"/>
</a>
</g>
</g>
<!-- Node13&#45;&gt;Node9 -->
<g id="edge19_Node000013_Node000009" class="edge">
<title>Node13&#45;&gt;Node9</title>
<g id="a_edge19_Node000013_Node000009"><a xlink:title=" ">
<path fill="none" stroke="#63b8ff" d="M485.31,-110.09C511.24,-101.41 550.66,-88.21 579.67,-78.49"/>
<polygon fill="#63b8ff" stroke="#63b8ff" points="580.43,-81.93 588.8,-75.43 578.21,-75.29 580.43,-81.93"/>
</a>
</g>
</g>
<!-- Node13&#45;&gt;Node10 -->
<g id="edge20_Node000013_Node000010" class="edge">
<title>Node13&#45;&gt;Node10</title>
<g id="a_edge20_Node000013_Node000010"><a xlink:title=" ">
<path fill="none" stroke="#63b8ff" d="M468.74,-110.1C485.18,-96.28 518.66,-69.97 551.34,-55.25 598.25,-34.13 656.76,-21.95 693.85,-15.8"/>
<polygon fill="#63b8ff" stroke="#63b8ff" points="694.27,-19.27 703.6,-14.25 693.17,-12.36 694.27,-19.27"/>
</a>
</g>
</g>
<!-- Node14&#45;&gt;Node10 -->
<g id="edge22_Node000014_Node000010" class="edge">
<title>Node14&#45;&gt;Node10</title>
<g id="a_edge22_Node000014_Node000010"><a xlink:title=" ">
<path fill="none" stroke="#63b8ff" d="M865.69,-54.84C838.39,-45.92 796.49,-32.23 766.55,-22.45"/>
<polygon fill="#63b8ff" stroke="#63b8ff" points="767.74,-19.16 757.15,-19.38 765.57,-25.82 767.74,-19.16"/>
</a>
</g>
</g>
<!-- Node15&#45;&gt;Node5 -->
<g id="edge24_Node000015_Node000005" class="edge">
<title>Node15&#45;&gt;Node5</title>
<g id="a_edge24_Node000015_Node000005"><a xlink:title=" ">
<path fill="none" stroke="#63b8ff" d="M966.98,-110.1C982.31,-97.97 1004.86,-75.59 994.34,-55.25 987.66,-42.32 975.31,-32.33 963.3,-25.11"/>
<polygon fill="#63b8ff" stroke="#63b8ff" points="965.21,-22.17 954.76,-20.43 961.84,-28.3 965.21,-22.17"/>
</a>
</g>
</g>
<!-- Node15&#45;&gt;Node9 -->
<g id="edge25_Node000015_Node000009" class="edge">
<title>Node15&#45;&gt;Node9</title>
<g id="a_edge25_Node000015_Node000009"><a xlink:title=" ">
<path fill="none" stroke="#63b8ff" d="M916.99,-113.22C858.55,-103.99 745.03,-86.05 675.72,-75.1"/>
<polygon fill="#63b8ff" stroke="#63b8ff" points="676.5,-71.68 666.07,-73.58 675.4,-78.59 676.5,-71.68"/>
</a>
</g>
</g>
<!-- Node15&#45;&gt;Node10 -->
<g id="edge26_Node000015_Node000010" class="edge">
<title>Node15&#45;&gt;Node10</title>
<g id="a_edge26_Node000015_Node000010"><a xlink:title=" ">
<path fill="none" stroke="#63b8ff" d="M959,-110.12C965.28,-96.59 974.27,-70.91 961.34,-55.25 937.08,-25.85 825.41,-15.6 766.68,-12.2"/>
<polygon fill="#63b8ff" stroke="#63b8ff" points="767.03,-8.72 756.85,-11.68 766.65,-15.71 767.03,-8.72"/>
</a>
</g>
</g>
<!-- Node16&#45;&gt;Node2 -->
<g id="edge28_Node000016_Node000002" class="edge">
<title>Node16&#45;&gt;Node2</title>
<g id="a_edge28_Node000016_Node000002"><a xlink:title=" ">
<path fill="none" stroke="#63b8ff" d="M671.02,-113.17C644.71,-105.52 598.86,-91.23 561.34,-74.5 528.97,-60.06 493.64,-39.45 471.03,-25.58"/>
<polygon fill="#63b8ff" stroke="#63b8ff" points="472.94,-22.65 462.59,-20.35 469.25,-28.6 472.94,-22.65"/>
</a>
</g>
</g>
<!-- Node16&#45;&gt;Node5 -->
<g id="edge29_Node000016_Node000005" class="edge">
<title>Node16&#45;&gt;Node5</title>
<g id="a_edge29_Node000016_Node000005"><a xlink:title=" ">
<path fill="none" stroke="#63b8ff" d="M706.83,-110.07C728.26,-96.92 769.91,-72.25 807.34,-55.25 835.16,-42.62 867.7,-31.02 892.47,-22.82"/>
<polygon fill="#63b8ff" stroke="#63b8ff" points="893.39,-26.2 901.81,-19.76 891.22,-19.54 893.39,-26.2"/>
</a>
</g>
</g>
<!-- Node16&#45;&gt;Node9 -->
<g id="edge30_Node000016_Node000009" class="edge">
<title>Node16&#45;&gt;Node9</title>
<g id="a_edge30_Node000016_Node000009"><a xlink:title=" ">
<path fill="none" stroke="#63b8ff" d="M679.62,-110.09C668.63,-102.29 652.5,-90.84 639.41,-81.54"/>
<polygon fill="#63b8ff" stroke="#63b8ff" points="641.54,-78.76 631.36,-75.83 637.49,-84.47 641.54,-78.76"/>
</a>
</g>
</g>
<!-- Node16&#45;&gt;Node10 -->
<g id="edge31_Node000016_Node000010" class="edge">
<title>Node16&#45;&gt;Node10</title>
<g id="a_edge31_Node000016_Node000010"><a xlink:title=" ">
<path fill="none" stroke="#63b8ff" d="M695.45,-110.25C701.52,-92.92 715.07,-54.23 723.39,-30.49"/>
<polygon fill="#63b8ff" stroke="#63b8ff" points="726.69,-31.65 726.69,-21.06 720.08,-29.34 726.69,-31.65"/>
</a>
</g>
</g>
<!-- Node17&#45;&gt;Node9 -->
<g id="edge34_Node000017_Node000009" class="edge">
<title>Node17&#45;&gt;Node9</title>
<g id="a_edge34_Node000017_Node000009"><a xlink:title=" ">
<path fill="none" stroke="#63b8ff" d="M577.27,-110.33C583.9,-102.98 593.56,-92.26 601.73,-83.19"/>
<polygon fill="#63b8ff" stroke="#63b8ff" points="604.13,-85.75 608.23,-75.98 598.93,-81.07 604.13,-85.75"/>
</a>
</g>
</g>
<!-- Node17&#45;&gt;Node10 -->
<g id="edge35_Node000017_Node000010" class="edge">
<title>Node17&#45;&gt;Node10</title>
<g id="a_edge35_Node000017_Node000010"><a xlink:title=" ">
<path fill="none" stroke="#63b8ff" d="M564.61,-110.24C558.21,-96.85 548.93,-71.36 561.34,-55.25 577.41,-34.39 649.32,-21.31 694,-15.04"/>
<polygon fill="#63b8ff" stroke="#63b8ff" points="694.33,-18.53 703.77,-13.73 693.39,-11.59 694.33,-18.53"/>
</a>
</g>
</g>
<!-- Node18&#45;&gt;Node5 -->
<g id="edge37_Node000018_Node000005" class="edge">
<title>Node18&#45;&gt;Node5</title>
<g id="a_edge37_Node000018_Node000005"><a xlink:title=" ">
<path fill="none" stroke="#63b8ff" d="M798.23,-110.07C801.5,-96.47 809.45,-70.7 825.34,-55.25 843.75,-37.35 870.41,-26.17 892.38,-19.48"/>
<polygon fill="#63b8ff" stroke="#63b8ff" points="893.25,-22.87 901.92,-16.79 891.35,-16.14 893.25,-22.87"/>
</a>
</g>
</g>
<!-- Node18&#45;&gt;Node9 -->
<g id="edge38_Node000018_Node000009" class="edge">
<title>Node18&#45;&gt;Node9</title>
<g id="a_edge38_Node000018_Node000009"><a xlink:title=" ">
<path fill="none" stroke="#63b8ff" d="M765.98,-110.09C736.53,-101.33 691.63,-87.98 658.89,-78.23"/>
<polygon fill="#63b8ff" stroke="#63b8ff" points="659.89,-74.88 649.31,-75.38 657.89,-81.59 659.89,-74.88"/>
</a>
</g>
</g>
<!-- Node18&#45;&gt;Node10 -->
<g id="edge39_Node000018_Node000010" class="edge">
<title>Node18&#45;&gt;Node10</title>
<g id="a_edge39_Node000018_Node000010"><a xlink:title=" ">
<path fill="none" stroke="#63b8ff" d="M790.94,-110.25C780.21,-92.6 756,-52.8 741.64,-29.2"/>
<polygon fill="#63b8ff" stroke="#63b8ff" points="744.79,-27.64 736.6,-20.92 738.81,-31.28 744.79,-27.64"/>
</a>
</g>
</g>
</g>
</svg>

<g id="navigator" transform="translate(0 0)" fill="#404254">
  <rect fill="#f2f5e9" fill-opacity="0.5" stroke="#606060" stroke-width=".5" x="0" y="0" width="60" height="60"/>
  <use id="zoomplus" xlink:href="#zoomPlus" x="17" y="9" onmousedown="handleZoom(evt,'in')"/>
  <use id="zoomminus" xlink:href="#zoomMin" x="42" y="9" onmousedown="handleZoom(evt,'out')"/>
  <use id="reset" xlink:href="#resetDef" x="30" y="36" onmousedown="handleReset()"/>
   <use id="arrowup" xlink:href="#arrowUp" x="0" y="0" onmousedown="handlePan(0,-1)"/>
  <use id="arrowright" xlink:href="#arrowRight" x="0" y="0" onmousedown="handlePan(1,0)"/>
  <use id="arrowdown" xlink:href="#arrowDown" x="0" y="0" onmousedown="handlePan(0,1)"/>
  <use id="arrowleft" xlink:href="#arrowLeft" x="0" y="0" onmousedown="handlePan(-1,0)"/>
</g>
<svg viewBox="0 0 15 15" width="100%" height="30px" preserveAspectRatio="xMaxYMin meet">
 <g id="arrow_out" transform="scale(0.3 0.3)">
  <a xlink:href="compute__elph__matq_8c__incl_org.svg" target="_base">
   <rect id="button" ry="5" rx="5" y="6" x="6" height="38" width="38"
        fill="#f2f5e9" fill-opacity="0.5" stroke="#606060" stroke-width="1.0"/>
   <path id="arrow"
     d="M 11.500037,31.436501 C 11.940474,20.09759 22.043105,11.32322 32.158766,21.979434 L 37.068811,17.246167 C 37.068811,17.246167 37.088388,32 37.088388,32 L 22.160133,31.978069 C 22.160133,31.978069 26.997745,27.140456 26.997745,27.140456 C 18.528582,18.264221 13.291696,25.230495 11.500037,31.436501 z"
     style="fill:#404040;"/>
  </a>
 </g>
</svg>

<style type='text/css'>
<![CDATA[
[data-mouse-over-selected='false'] { opacity: 0.7; }
[data-mouse-over-selected='true']  { opacity: 1.0; }
]]>
</style>
<script type="application/ecmascript"><![CDATA[
document.addEventListener('DOMContentLoaded', (event) => {
  highlightEdges();
  highlightAdjacentNodes();
});
]]></script>
</svg>
