<?xml version="1.0" encoding="UTF-8" standalone="no"?>
<!DOCTYPE svg PUBLIC "-//W3C//DTD SVG 1.1//EN"
 "http://www.w3.org/Graphics/SVG/1.1/DTD/svg11.dtd">
<!-- Generated by graphviz version 14.0.0 (20250921.2048)
 -->
<!-- Title: src/common/ELPH_timers.h Pages: 1 -->
<!--zoomable 94 -->

<svg id="main" version="1.1" xmlns="http://www.w3.org/2000/svg" xmlns:xlink="http://www.w3.org/1999/xlink" xml:space="preserve" onload="init(evt)">

<style type="text/css"><![CDATA[
.node, .edge {opacity: 0.7;}
.node.selected, .edge.selected {opacity: 1;}
.edge:hover path { stroke: red; }
.edge:hover polygon { stroke: red; fill: red; }
]]></style>

<defs>
  <circle id="rim" cx="0" cy="0" r="7"/>
  <circle id="rim2" cx="0" cy="0" r="3.5"/>
  <g id="zoomPlus">
    <use xlink:href="#rim" fill="#404040"><set attributeName="fill" to="#808080" begin="zoomplus.mouseover" end="zoomplus.mouseout"/></use>
    <path d="M-4,0h8M0,-4v8" fill="none" stroke="white" stroke-width="1.5" pointer-events="none"/>
  </g>
  <g id="zoomMin">
    <use xlink:href="#rim" fill="#404040"><set attributeName="fill" to="#808080" begin="zoomminus.mouseover" end="zoomminus.mouseout"/></use>
    <path d="M-4,0h8" fill="none" stroke="white" stroke-width="1.5" pointer-events="none"/>
  </g>
  <g id="arrowUp" transform="translate(30 24)">
    <use xlink:href="#rim"/>
    <path pointer-events="none" fill="none" stroke="white" stroke-width="1.5" d="M0,-3.0v7 M-2.5,-0.5L0,-3.0L2.5,-0.5"/>
  </g>
  <g id="arrowRight" transform="rotate(90) translate(36 -43)">
    <use xlink:href="#rim"/>
    <path pointer-events="none" fill="none" stroke="white" stroke-width="1.5" d="M0,-3.0v7 M-2.5,-0.5L0,-3.0L2.5,-0.5"/>
  </g>
  <g id="arrowDown" transform="rotate(180) translate(-30 -48)">
    <use xlink:href="#rim"/>
    <path pointer-events="none" fill="none" stroke="white" stroke-width="1.5" d="M0,-3.0v7 M-2.5,-0.5L0,-3.0L2.5,-0.5"/>
  </g>
  <g id="arrowLeft" transform="rotate(270) translate(-36 17)">
    <use xlink:href="#rim"/>
    <path pointer-events="none" fill="none" stroke="white" stroke-width="1.5" d="M0,-3.0v7 M-2.5,-0.5L0,-3.0L2.5,-0.5"/>
  </g>
  <g id="resetDef">
    <use xlink:href="#rim2" fill="#404040"><set attributeName="fill" to="#808080" begin="reset.mouseover" end="reset.mouseout"/></use>
  </g>
</defs>
<script type="application/ecmascript">
var viewWidth = 2039;
var viewHeight = 94;
var sectionId = 'dynsection-0';
</script>
<script type="application/ecmascript" xlink:href="../../svg.min.js"/>
<svg id="graph" class="graph">
<g id="viewport">
<title>src/common/ELPH_timers.h</title>
<!-- Node1 -->
<g id="Node000001" class="node">
<title>Node1</title>
<g id="a_Node000001"><a xlink:title=" ">
<polygon fill="#999999" stroke="#666666" points="1118.75,-85.75 979,-85.75 979,-66.5 1118.75,-66.5 1118.75,-85.75"/>
<text xml:space="preserve" text-anchor="middle" x="1048.88" y="-72.25" font-family="Helvetica,sans-Serif" font-size="10.00">src/common/ELPH_timers.h</text>
</a>
</g>
</g>
<!-- Node2 -->
<g id="Node000002" class="node">
<title>Node2</title>
<g id="a_Node000002"><a xlink:href="../../da/d97/_e_l_p_h__timers_8c.html" target="_top" xlink:title=" ">
<polygon fill="white" stroke="#666666" points="139.75,-24.88 0,-24.88 0,-5.63 139.75,-5.63 139.75,-24.88"/>
<text xml:space="preserve" text-anchor="middle" x="69.88" y="-11.38" font-family="Helvetica,sans-Serif" font-size="10.00">src/common/ELPH_timers.c</text>
</a>
</g>
</g>
<!-- Node1&#45;&gt;Node2 -->
<g id="edge1_Node000001_Node000002" class="edge">
<title>Node1&#45;&gt;Node2</title>
<g id="a_edge1_Node000001_Node000002"><a xlink:title=" ">
<path fill="none" stroke="#63b8ff" d="M967.47,-74.66C809.11,-72.98 448.7,-65.28 147.88,-30.5 136.8,-29.22 124.92,-27.32 113.86,-25.33"/>
<polygon fill="#63b8ff" stroke="#63b8ff" points="966.97,-78.16 977.01,-74.76 967.04,-71.16 966.97,-78.16"/>
</a>
</g>
</g>
<!-- Node3 -->
<g id="Node000003" class="node">
<title>Node3</title>
<g id="a_Node000003"><a xlink:href="../../d1/d8e/compute___vbare__loc_8c.html" target="_top" xlink:title=" ">
<polygon fill="white" stroke="#666666" points="284.38,-30.5 157.38,-30.5 157.38,0 284.38,0 284.38,-30.5"/>
<text xml:space="preserve" text-anchor="start" x="165.38" y="-17" font-family="Helvetica,sans-Serif" font-size="10.00">src/dvloc/compute_Vbare</text>
<text xml:space="preserve" text-anchor="middle" x="220.88" y="-5.75" font-family="Helvetica,sans-Serif" font-size="10.00">_loc.c</text>
</a>
</g>
</g>
<!-- Node1&#45;&gt;Node3 -->
<g id="edge2_Node000001_Node000003" class="edge">
<title>Node1&#45;&gt;Node3</title>
<g id="a_edge2_Node000001_Node000003"><a xlink:title=" ">
<path fill="none" stroke="#63b8ff" d="M967.4,-73.95C828.47,-71.15 537.06,-61.72 292.88,-30.5 290.22,-30.16 287.52,-29.78 284.79,-29.37"/>
<polygon fill="#63b8ff" stroke="#63b8ff" points="967.17,-77.45 977.23,-74.15 967.3,-70.45 967.17,-77.45"/>
</a>
</g>
</g>
<!-- Node4 -->
<g id="Node000004" class="node">
<title>Node4</title>
<g id="a_Node000004"><a xlink:href="../../d9/d90/d_vbare__loc_8c.html" target="_top" xlink:title=" ">
<polygon fill="white" stroke="#666666" points="417.75,-24.88 302,-24.88 302,-5.63 417.75,-5.63 417.75,-24.88"/>
<text xml:space="preserve" text-anchor="middle" x="359.88" y="-11.38" font-family="Helvetica,sans-Serif" font-size="10.00">src/dvloc/dVbare_loc.c</text>
</a>
</g>
</g>
<!-- Node1&#45;&gt;Node4 -->
<g id="edge3_Node000001_Node000004" class="edge">
<title>Node1&#45;&gt;Node4</title>
<g id="a_edge3_Node000001_Node000004"><a xlink:title=" ">
<path fill="none" stroke="#63b8ff" d="M967.39,-72.86C848.19,-68.74 619.51,-57.76 426.88,-30.5 417.46,-29.17 407.38,-27.28 397.98,-25.3"/>
<polygon fill="#63b8ff" stroke="#63b8ff" points="966.96,-76.35 977.07,-73.19 967.19,-69.35 966.96,-76.35"/>
</a>
</g>
</g>
<!-- Node5 -->
<g id="Node000005" class="node">
<title>Node5</title>
<g id="a_Node000005"><a xlink:href="../../d1/d94/d_vpot__add__long__range_8c.html" target="_top" xlink:title=" ">
<polygon fill="white" stroke="#666666" points="541.5,-30.5 436.25,-30.5 436.25,0 541.5,0 541.5,-30.5"/>
<text xml:space="preserve" text-anchor="start" x="444.25" y="-17" font-family="Helvetica,sans-Serif" font-size="10.00">src/dvloc/dVpot_add</text>
<text xml:space="preserve" text-anchor="middle" x="488.88" y="-5.75" font-family="Helvetica,sans-Serif" font-size="10.00">_long_range.c</text>
</a>
</g>
</g>
<!-- Node1&#45;&gt;Node5 -->
<g id="edge4_Node000001_Node000005" class="edge">
<title>Node1&#45;&gt;Node5</title>
<g id="a_edge4_Node000001_Node000005"><a xlink:title=" ">
<path fill="none" stroke="#63b8ff" d="M967.4,-71.25C868.44,-65.75 696.63,-53.67 550.88,-30.5 547.93,-30.03 544.92,-29.5 541.88,-28.93"/>
<polygon fill="#63b8ff" stroke="#63b8ff" points="967.12,-74.74 977.3,-71.79 967.51,-67.75 967.12,-74.74"/>
</a>
</g>
</g>
<!-- Node6 -->
<g id="Node000006" class="node">
<title>Node6</title>
<g id="a_Node000006"><a xlink:href="../../d9/db9/vlocg__table_8c.html" target="_top" xlink:title=" ">
<polygon fill="white" stroke="#666666" points="676.12,-24.88 559.62,-24.88 559.62,-5.63 676.12,-5.63 676.12,-24.88"/>
<text xml:space="preserve" text-anchor="middle" x="617.88" y="-11.38" font-family="Helvetica,sans-Serif" font-size="10.00">src/dvloc/vlocg_table.c</text>
</a>
</g>
</g>
<!-- Node1&#45;&gt;Node6 -->
<g id="edge5_Node000001_Node000006" class="edge">
<title>Node1&#45;&gt;Node6</title>
<g id="a_edge5_Node000001_Node000006"><a xlink:title=" ">
<path fill="none" stroke="#63b8ff" d="M967.75,-67.24C893.79,-59.56 781.64,-46.69 684.88,-30.5 676.08,-29.03 666.69,-27.2 657.8,-25.34"/>
<polygon fill="#63b8ff" stroke="#63b8ff" points="967.02,-70.68 977.33,-68.22 967.74,-63.72 967.02,-70.68"/>
</a>
</g>
</g>
<!-- Node7 -->
<g id="Node000007" class="node">
<title>Node7</title>
<g id="a_Node000007"><a xlink:href="../../da/d2e/elph__driver_8c.html" target="_top" xlink:title=" ">
<polygon fill="white" stroke="#666666" points="802,-24.88 693.75,-24.88 693.75,-5.63 802,-5.63 802,-24.88"/>
<text xml:space="preserve" text-anchor="middle" x="747.88" y="-11.38" font-family="Helvetica,sans-Serif" font-size="10.00">src/elph/elph_driver.c</text>
</a>
</g>
</g>
<!-- Node1&#45;&gt;Node7 -->
<g id="edge6_Node000001_Node000007" class="edge">
<title>Node1&#45;&gt;Node7</title>
<g id="a_edge6_Node000001_Node000007"><a xlink:title=" ">
<path fill="none" stroke="#63b8ff" d="M986.07,-64.01C938.01,-55.34 870.14,-42.75 810.88,-30.5 803.19,-28.91 794.99,-27.12 787.15,-25.37"/>
<polygon fill="#63b8ff" stroke="#63b8ff" points="985.28,-67.42 995.74,-65.74 986.52,-60.53 985.28,-67.42"/>
</a>
</g>
</g>
<!-- Node8 -->
<g id="Node000008" class="node">
<title>Node8</title>
<g id="a_Node000008"><a xlink:href="../../da/dc2/interpolation__driver_8c.html" target="_top" xlink:title=" ">
<polygon fill="white" stroke="#666666" points="960.12,-30.5 819.62,-30.5 819.62,0 960.12,0 960.12,-30.5"/>
<text xml:space="preserve" text-anchor="start" x="827.62" y="-17" font-family="Helvetica,sans-Serif" font-size="10.00">src/interpolation/interpolation</text>
<text xml:space="preserve" text-anchor="middle" x="889.88" y="-5.75" font-family="Helvetica,sans-Serif" font-size="10.00">_driver.c</text>
</a>
</g>
</g>
<!-- Node1&#45;&gt;Node8 -->
<g id="edge7_Node000001_Node000008" class="edge">
<title>Node1&#45;&gt;Node8</title>
<g id="a_edge7_Node000001_Node000008"><a xlink:title=" ">
<path fill="none" stroke="#63b8ff" d="M1013.6,-62.06C988.72,-52.85 955.37,-40.5 929.56,-30.94"/>
<polygon fill="#63b8ff" stroke="#63b8ff" points="1012.37,-65.34 1022.96,-65.53 1014.8,-58.77 1012.37,-65.34"/>
</a>
</g>
</g>
<!-- Node9 -->
<g id="Node000009" class="node">
<title>Node9</title>
<g id="a_Node000009"><a xlink:href="../../d9/d41/interpolation__utilities_8c.html" target="_top" xlink:title=" ">
<polygon fill="white" stroke="#666666" points="1119.12,-30.5 978.62,-30.5 978.62,0 1119.12,0 1119.12,-30.5"/>
<text xml:space="preserve" text-anchor="start" x="986.62" y="-17" font-family="Helvetica,sans-Serif" font-size="10.00">src/interpolation/interpolation</text>
<text xml:space="preserve" text-anchor="middle" x="1048.88" y="-5.75" font-family="Helvetica,sans-Serif" font-size="10.00">_utilities.c</text>
</a>
</g>
</g>
<!-- Node1&#45;&gt;Node9 -->
<g id="edge8_Node000001_Node000009" class="edge">
<title>Node1&#45;&gt;Node9</title>
<g id="a_edge8_Node000001_Node000009"><a xlink:title=" ">
<path fill="none" stroke="#63b8ff" d="M1048.88,-54.92C1048.88,-46.99 1048.88,-38.06 1048.88,-30.78"/>
<polygon fill="#63b8ff" stroke="#63b8ff" points="1045.38,-54.67 1048.88,-64.67 1052.38,-54.67 1045.38,-54.67"/>
</a>
</g>
</g>
<!-- Node10 -->
<g id="Node000010" class="node">
<title>Node10</title>
<g id="a_Node000010"><a xlink:href="../../d2/d5f/wigner__seitz_8c.html" target="_top" xlink:title=" ">
<polygon fill="white" stroke="#666666" points="1254.12,-30.5 1137.62,-30.5 1137.62,0 1254.12,0 1254.12,-30.5"/>
<text xml:space="preserve" text-anchor="start" x="1145.62" y="-17" font-family="Helvetica,sans-Serif" font-size="10.00">src/interpolation/wigner</text>
<text xml:space="preserve" text-anchor="middle" x="1195.88" y="-5.75" font-family="Helvetica,sans-Serif" font-size="10.00">_seitz.c</text>
</a>
</g>
</g>
<!-- Node1&#45;&gt;Node10 -->
<g id="edge9_Node000001_Node000010" class="edge">
<title>Node1&#45;&gt;Node10</title>
<g id="a_edge9_Node000001_Node000010"><a xlink:title=" ">
<path fill="none" stroke="#63b8ff" d="M1082.11,-61.81C1105.04,-52.63 1135.54,-40.42 1159.19,-30.94"/>
<polygon fill="#63b8ff" stroke="#63b8ff" points="1080.91,-58.52 1072.93,-65.49 1083.51,-65.02 1080.91,-58.52"/>
</a>
</g>
</g>
<!-- Node11 -->
<g id="Node000011" class="node">
<title>Node11</title>
<g id="a_Node000011"><a xlink:href="../../da/d77/get__save__data_8c.html" target="_top" xlink:title=" ">
<polygon fill="white" stroke="#666666" points="1387.38,-24.88 1272.38,-24.88 1272.38,-5.63 1387.38,-5.63 1387.38,-24.88"/>
<text xml:space="preserve" text-anchor="middle" x="1329.88" y="-11.38" font-family="Helvetica,sans-Serif" font-size="10.00">src/io/get_save_data.c</text>
</a>
</g>
</g>
<!-- Node1&#45;&gt;Node11 -->
<g id="edge10_Node000001_Node000011" class="edge">
<title>Node1&#45;&gt;Node11</title>
<g id="a_edge10_Node000001_Node000011"><a xlink:title=" ">
<path fill="none" stroke="#63b8ff" d="M1103.87,-63.72C1147.1,-54.74 1208.84,-41.88 1262.88,-30.5 1270.79,-28.83 1279.22,-27.05 1287.35,-25.32"/>
<polygon fill="#63b8ff" stroke="#63b8ff" points="1103.3,-60.26 1094.22,-65.72 1104.72,-67.12 1103.3,-60.26"/>
</a>
</g>
</g>
<!-- Node12 -->
<g id="Node000012" class="node">
<title>Node12</title>
<g id="a_Node000012"><a xlink:href="../../d6/db8/_vbare__nloc_8c.html" target="_top" xlink:title=" ">
<polygon fill="white" stroke="#666666" points="1526.38,-24.88 1405.38,-24.88 1405.38,-5.63 1526.38,-5.63 1526.38,-24.88"/>
<text xml:space="preserve" text-anchor="middle" x="1465.88" y="-11.38" font-family="Helvetica,sans-Serif" font-size="10.00">src/nonloc/Vbare_nloc.c</text>
</a>
</g>
</g>
<!-- Node1&#45;&gt;Node12 -->
<g id="edge11_Node000001_Node000012" class="edge">
<title>Node1&#45;&gt;Node12</title>
<g id="a_edge11_Node000001_Node000012"><a xlink:title=" ">
<path fill="none" stroke="#63b8ff" d="M1130.14,-66.48C1200.83,-58.53 1305.92,-45.7 1396.88,-30.5 1405.8,-29.01 1415.33,-27.19 1424.38,-25.35"/>
<polygon fill="#63b8ff" stroke="#63b8ff" points="1130.15,-62.95 1120.6,-67.54 1130.92,-69.91 1130.15,-62.95"/>
</a>
</g>
</g>
<!-- Node13 -->
<g id="Node000013" class="node">
<title>Node13</title>
<g id="a_Node000013"><a xlink:href="../../db/d44/dyn__long__range_8c.html" target="_top" xlink:title=" ">
<polygon fill="white" stroke="#666666" points="1650.88,-30.5 1544.88,-30.5 1544.88,0 1650.88,0 1650.88,-30.5"/>
<text xml:space="preserve" text-anchor="start" x="1552.88" y="-17" font-family="Helvetica,sans-Serif" font-size="10.00">src/phonon/dyn_long</text>
<text xml:space="preserve" text-anchor="middle" x="1597.88" y="-5.75" font-family="Helvetica,sans-Serif" font-size="10.00">_range.c</text>
</a>
</g>
</g>
<!-- Node1&#45;&gt;Node13 -->
<g id="edge12_Node000001_Node000013" class="edge">
<title>Node1&#45;&gt;Node13</title>
<g id="a_edge12_Node000001_Node000013"><a xlink:title=" ">
<path fill="none" stroke="#63b8ff" d="M1130.49,-71.01C1227.56,-65.34 1394.29,-53.15 1535.88,-30.5 1538.71,-30.05 1541.61,-29.54 1544.53,-28.99"/>
<polygon fill="#63b8ff" stroke="#63b8ff" points="1130.3,-67.51 1120.51,-71.58 1130.7,-74.5 1130.3,-67.51"/>
</a>
</g>
</g>
<!-- Node14 -->
<g id="Node000014" class="node">
<title>Node14</title>
<g id="a_Node000014"><a xlink:href="../../dd/de7/elec__reps_8c.html" target="_top" xlink:title=" ">
<polygon fill="white" stroke="#666666" points="1773.12,-30.5 1668.62,-30.5 1668.62,0 1773.12,0 1773.12,-30.5"/>
<text xml:space="preserve" text-anchor="start" x="1676.62" y="-17" font-family="Helvetica,sans-Serif" font-size="10.00">src/symmetries/elec</text>
<text xml:space="preserve" text-anchor="middle" x="1720.88" y="-5.75" font-family="Helvetica,sans-Serif" font-size="10.00">_reps.c</text>
</a>
</g>
</g>
<!-- Node1&#45;&gt;Node14 -->
<g id="edge13_Node000001_Node000014" class="edge">
<title>Node1&#45;&gt;Node14</title>
<g id="a_edge13_Node000001_Node000014"><a xlink:title=" ">
<path fill="none" stroke="#63b8ff" d="M1130.3,-73.23C1247.84,-69.57 1471.62,-59.18 1659.88,-30.5 1662.67,-30.07 1665.53,-29.59 1668.4,-29.06"/>
<polygon fill="#63b8ff" stroke="#63b8ff" points="1130.32,-69.73 1120.43,-73.52 1130.53,-76.72 1130.32,-69.73"/>
</a>
</g>
</g>
<!-- Node15 -->
<g id="Node000015" class="node">
<title>Node15</title>
<g id="a_Node000015"><a xlink:href="../../dd/d37/elphq__expand_8c.html" target="_top" xlink:title=" ">
<polygon fill="white" stroke="#666666" points="1900.75,-30.5 1791,-30.5 1791,0 1900.75,0 1900.75,-30.5"/>
<text xml:space="preserve" text-anchor="start" x="1799" y="-17" font-family="Helvetica,sans-Serif" font-size="10.00">src/symmetries/elphq</text>
<text xml:space="preserve" text-anchor="middle" x="1845.88" y="-5.75" font-family="Helvetica,sans-Serif" font-size="10.00">_expand.c</text>
</a>
</g>
</g>
<!-- Node1&#45;&gt;Node15 -->
<g id="edge14_Node000001_Node000015" class="edge">
<title>Node1&#45;&gt;Node15</title>
<g id="a_edge14_Node000001_Node000015"><a xlink:title=" ">
<path fill="none" stroke="#63b8ff" d="M1130.75,-74.36C1266.65,-72.14 1547.11,-63.57 1781.88,-30.5 1784.81,-30.09 1787.8,-29.61 1790.82,-29.09"/>
<polygon fill="#63b8ff" stroke="#63b8ff" points="1130.69,-70.86 1120.75,-74.51 1130.8,-77.86 1130.69,-70.86"/>
</a>
</g>
</g>
<!-- Node16 -->
<g id="Node000016" class="node">
<title>Node16</title>
<g id="a_Node000016"><a xlink:href="../../dc/d55/rotate__eig__vecs_8c.html" target="_top" xlink:title=" ">
<polygon fill="white" stroke="#666666" points="2030.5,-30.5 1919.25,-30.5 1919.25,0 2030.5,0 2030.5,-30.5"/>
<text xml:space="preserve" text-anchor="start" x="1927.25" y="-17" font-family="Helvetica,sans-Serif" font-size="10.00">src/symmetries/rotate</text>
<text xml:space="preserve" text-anchor="middle" x="1974.88" y="-5.75" font-family="Helvetica,sans-Serif" font-size="10.00">_eig_vecs.c</text>
</a>
</g>
</g>
<!-- Node1&#45;&gt;Node16 -->
<g id="edge15_Node000001_Node000016" class="edge">
<title>Node1&#45;&gt;Node16</title>
<g id="a_edge15_Node000001_Node000016"><a xlink:title=" ">
<path fill="none" stroke="#63b8ff" d="M1130.13,-75.34C1283.34,-74.77 1625.14,-68.83 1909.88,-30.5 1912.85,-30.1 1915.89,-29.63 1918.96,-29.12"/>
<polygon fill="#63b8ff" stroke="#63b8ff" points="1130.49,-71.84 1120.5,-75.37 1130.51,-78.84 1130.49,-71.84"/>
</a>
</g>
</g>
</g>
</svg>

<g id="navigator" transform="translate(0 0)" fill="#404254">
  <rect fill="#f2f5e9" fill-opacity="0.5" stroke="#606060" stroke-width=".5" x="0" y="0" width="60" height="60"/>
  <use id="zoomplus" xlink:href="#zoomPlus" x="17" y="9" onmousedown="handleZoom(evt,'in')"/>
  <use id="zoomminus" xlink:href="#zoomMin" x="42" y="9" onmousedown="handleZoom(evt,'out')"/>
  <use id="reset" xlink:href="#resetDef" x="30" y="36" onmousedown="handleReset()"/>
   <use id="arrowup" xlink:href="#arrowUp" x="0" y="0" onmousedown="handlePan(0,-1)"/>
  <use id="arrowright" xlink:href="#arrowRight" x="0" y="0" onmousedown="handlePan(1,0)"/>
  <use id="arrowdown" xlink:href="#arrowDown" x="0" y="0" onmousedown="handlePan(0,1)"/>
  <use id="arrowleft" xlink:href="#arrowLeft" x="0" y="0" onmousedown="handlePan(-1,0)"/>
</g>
<svg viewBox="0 0 15 15" width="100%" height="30px" preserveAspectRatio="xMaxYMin meet">
 <g id="arrow_out" transform="scale(0.3 0.3)">
  <a xlink:href="_e_l_p_h__timers_8h__dep__incl_org.svg" target="_base">
   <rect id="button" ry="5" rx="5" y="6" x="6" height="38" width="38"
        fill="#f2f5e9" fill-opacity="0.5" stroke="#606060" stroke-width="1.0"/>
   <path id="arrow"
     d="M 11.500037,31.436501 C 11.940474,20.09759 22.043105,11.32322 32.158766,21.979434 L 37.068811,17.246167 C 37.068811,17.246167 37.088388,32 37.088388,32 L 22.160133,31.978069 C 22.160133,31.978069 26.997745,27.140456 26.997745,27.140456 C 18.528582,18.264221 13.291696,25.230495 11.500037,31.436501 z"
     style="fill:#404040;"/>
  </a>
 </g>
</svg>

<style type='text/css'>
<![CDATA[
[data-mouse-over-selected='false'] { opacity: 0.7; }
[data-mouse-over-selected='true']  { opacity: 1.0; }
]]>
</style>
<script type="application/ecmascript"><![CDATA[
document.addEventListener('DOMContentLoaded', (event) => {
  highlightEdges();
  highlightAdjacentNodes();
});
]]></script>
</svg>
