<?xml version="1.0" encoding="UTF-8" standalone="no"?>
<!DOCTYPE svg PUBLIC "-//W3C//DTD SVG 1.1//EN"
 "http://www.w3.org/Graphics/SVG/1.1/DTD/svg11.dtd">
<!-- Generated by graphviz version 14.0.0 (20250921.2048)
 -->
<!-- Title: src/dvloc/add_dvscf.c Pages: 1 -->
<svg width="380pt" height="193pt"
 viewBox="0.00 0.00 380.00 193.00" xmlns="http://www.w3.org/2000/svg" xmlns:xlink="http://www.w3.org/1999/xlink">

<svg id="main" version="1.1" xmlns="http://www.w3.org/2000/svg" xmlns:xlink="http://www.w3.org/1999/xlink" xml:space="preserve">

<style type="text/css"><![CDATA[
.node, .edge {opacity: 0.7;}
.node.selected, .edge.selected {opacity: 1;}
.edge:hover path { stroke: red; }
.edge:hover polygon { stroke: red; fill: red; }
]]></style>
<script type="application/ecmascript" xlink:href="../../svg.min.js"/>
<svg id="graph" class="graph">
<g id="graph0" class="graph" transform="scale(1 1) rotate(0) translate(4 189)">
<title>src/dvloc/add_dvscf.c</title>
<!-- Node1 -->
<g id="Node000001" class="node">
<title>Node1</title>
<g id="a_Node000001"><a xlink:title=" ">
<polygon fill="#999999" stroke="#666666" points="228,-185 116,-185 116,-165.75 228,-165.75 228,-185"/>
<text xml:space="preserve" text-anchor="middle" x="172" y="-171.5" font-family="Helvetica,sans-Serif" font-size="10.00">src/dvloc/add_dvscf.c</text>
</a>
</g>
</g>
<!-- Node2 -->
<g id="Node000002" class="node">
<title>Node2</title>
<g id="a_Node000002"><a xlink:title=" ">
<polygon fill="#e0e0e0" stroke="#999999" points="91.5,-129.75 30.5,-129.75 30.5,-110.5 91.5,-110.5 91.5,-129.75"/>
<text xml:space="preserve" text-anchor="middle" x="61" y="-116.25" font-family="Helvetica,sans-Serif" font-size="10.00">complex.h</text>
</a>
</g>
</g>
<!-- Node1&#45;&gt;Node2 -->
<g id="edge1_Node000001_Node000002" class="edge">
<title>Node1&#45;&gt;Node2</title>
<g id="a_edge1_Node000001_Node000002"><a xlink:title=" ">
<path fill="none" stroke="#63b8ff" d="M153.17,-165.34C135.95,-157.08 110.2,-144.73 90.29,-135.18"/>
<polygon fill="#63b8ff" stroke="#63b8ff" points="91.82,-132.03 81.29,-130.86 88.79,-138.34 91.82,-132.03"/>
</a>
</g>
</g>
<!-- Node3 -->
<g id="Node000003" class="node">
<title>Node3</title>
<g id="a_Node000003"><a xlink:href="../../d2/d02/dtypes_8h.html" target="_top" xlink:title=" ">
<polygon fill="white" stroke="#666666" points="125,-74.5 31,-74.5 31,-55.25 125,-55.25 125,-74.5"/>
<text xml:space="preserve" text-anchor="middle" x="78" y="-61" font-family="Helvetica,sans-Serif" font-size="10.00">common/dtypes.h</text>
</a>
</g>
</g>
<!-- Node1&#45;&gt;Node3 -->
<g id="edge2_Node000001_Node000003" class="edge">
<title>Node1&#45;&gt;Node3</title>
<g id="a_edge2_Node000001_Node000003"><a xlink:title=" ">
<path fill="none" stroke="#63b8ff" d="M164.31,-165.5C148.82,-147.61 113.6,-106.97 93.27,-83.5"/>
<polygon fill="#63b8ff" stroke="#63b8ff" points="95.98,-81.29 86.79,-76.02 90.69,-85.87 95.98,-81.29"/>
</a>
</g>
</g>
<!-- Node6 -->
<g id="Node000006" class="node">
<title>Node6</title>
<g id="a_Node000006"><a xlink:href="../../d4/d0a/elph_c_8h.html" target="_top" xlink:title="Core type definitions and configuration for LetzElPhC.">
<polygon fill="white" stroke="#666666" points="278.88,-19.25 229.12,-19.25 229.12,0 278.88,0 278.88,-19.25"/>
<text xml:space="preserve" text-anchor="middle" x="254" y="-5.75" font-family="Helvetica,sans-Serif" font-size="10.00">elphC.h</text>
</a>
</g>
</g>
<!-- Node1&#45;&gt;Node6 -->
<g id="edge13_Node000001_Node000006" class="edge">
<title>Node1&#45;&gt;Node6</title>
<g id="a_edge13_Node000001_Node000006"><a xlink:title=" ">
<path fill="none" stroke="#63b8ff" d="M218.36,-165.31C265.34,-153.4 335.57,-127.42 368,-74.5 388.22,-41.51 330.89,-24.12 290.37,-16.19"/>
<polygon fill="#63b8ff" stroke="#63b8ff" points="291.17,-12.78 280.7,-14.43 289.91,-19.67 291.17,-12.78"/>
</a>
</g>
</g>
<!-- Node8 -->
<g id="Node000008" class="node">
<title>Node8</title>
<g id="a_Node000008"><a xlink:href="../../d2/d8d/omp__pragma__def_8h.html" target="_top" xlink:title=" ">
<polygon fill="white" stroke="#666666" points="358.88,-74.5 219.12,-74.5 219.12,-55.25 358.88,-55.25 358.88,-74.5"/>
<text xml:space="preserve" text-anchor="middle" x="289" y="-61" font-family="Helvetica,sans-Serif" font-size="10.00">common/omp_pragma_def.h</text>
</a>
</g>
</g>
<!-- Node1&#45;&gt;Node8 -->
<g id="edge7_Node000001_Node000008" class="edge">
<title>Node1&#45;&gt;Node8</title>
<g id="a_edge7_Node000001_Node000008"><a xlink:title=" ">
<path fill="none" stroke="#63b8ff" d="M181.57,-165.5C201.11,-147.38 245.86,-105.88 271,-82.57"/>
<polygon fill="#63b8ff" stroke="#63b8ff" points="273.23,-85.27 278.18,-75.91 268.47,-80.14 273.23,-85.27"/>
</a>
</g>
</g>
<!-- Node9 -->
<g id="Node000009" class="node">
<title>Node9</title>
<g id="a_Node000009"><a xlink:href="../../d8/dc9/dvloc_8h.html" target="_top" xlink:title=" ">
<polygon fill="white" stroke="#666666" points="195.75,-129.75 148.25,-129.75 148.25,-110.5 195.75,-110.5 195.75,-129.75"/>
<text xml:space="preserve" text-anchor="middle" x="172" y="-116.25" font-family="Helvetica,sans-Serif" font-size="10.00">dvloc.h</text>
</a>
</g>
</g>
<!-- Node1&#45;&gt;Node9 -->
<g id="edge9_Node000001_Node000009" class="edge">
<title>Node1&#45;&gt;Node9</title>
<g id="a_edge9_Node000001_Node000009"><a xlink:title=" ">
<path fill="none" stroke="#63b8ff" d="M172,-165.58C172,-159.07 172,-149.92 172,-141.62"/>
<polygon fill="#63b8ff" stroke="#63b8ff" points="175.5,-141.62 172,-131.62 168.5,-141.62 175.5,-141.62"/>
</a>
</g>
</g>
<!-- Node4 -->
<g id="Node000004" class="node">
<title>Node4</title>
<g id="a_Node000004"><a xlink:title=" ">
<polygon fill="#e0e0e0" stroke="#999999" points="40,-19.25 0,-19.25 0,0 40,0 40,-19.25"/>
<text xml:space="preserve" text-anchor="middle" x="20" y="-5.75" font-family="Helvetica,sans-Serif" font-size="10.00">mpi.h</text>
</a>
</g>
</g>
<!-- Node3&#45;&gt;Node4 -->
<g id="edge3_Node000003_Node000004" class="edge">
<title>Node3&#45;&gt;Node4</title>
<g id="a_edge3_Node000003_Node000004"><a xlink:title=" ">
<path fill="none" stroke="#63b8ff" d="M68.16,-54.84C59.95,-47.3 48.02,-36.35 38.09,-27.23"/>
<polygon fill="#63b8ff" stroke="#63b8ff" points="40.54,-24.73 30.81,-20.55 35.81,-29.89 40.54,-24.73"/>
</a>
</g>
</g>
<!-- Node5 -->
<g id="Node000005" class="node">
<title>Node5</title>
<g id="a_Node000005"><a xlink:title=" ">
<polygon fill="#e0e0e0" stroke="#999999" points="178.88,-19.25 123.12,-19.25 123.12,0 178.88,0 178.88,-19.25"/>
<text xml:space="preserve" text-anchor="middle" x="151" y="-5.75" font-family="Helvetica,sans-Serif" font-size="10.00">stdbool.h</text>
</a>
</g>
</g>
<!-- Node3&#45;&gt;Node5 -->
<g id="edge4_Node000003_Node000005" class="edge">
<title>Node3&#45;&gt;Node5</title>
<g id="a_edge4_Node000003_Node000005"><a xlink:title=" ">
<path fill="none" stroke="#63b8ff" d="M90.38,-54.84C101.15,-46.99 116.97,-35.45 129.75,-26.12"/>
<polygon fill="#63b8ff" stroke="#63b8ff" points="131.56,-29.14 137.58,-20.42 127.44,-23.48 131.56,-29.14"/>
</a>
</g>
</g>
<!-- Node3&#45;&gt;Node6 -->
<g id="edge5_Node000003_Node000006" class="edge">
<title>Node3&#45;&gt;Node6</title>
<g id="a_edge5_Node000003_Node000006"><a xlink:title=" ">
<path fill="none" stroke="#63b8ff" d="M107.86,-54.84C138.3,-45.63 185.54,-31.34 218.03,-21.51"/>
<polygon fill="#63b8ff" stroke="#63b8ff" points="218.85,-24.92 227.4,-18.67 216.82,-18.22 218.85,-24.92"/>
</a>
</g>
</g>
<!-- Node7 -->
<g id="Node000007" class="node">
<title>Node7</title>
<g id="a_Node000007"><a xlink:href="../../da/d41/error_8h.html" target="_top" xlink:title=" ">
<polygon fill="white" stroke="#666666" points="101.5,-19.25 58.5,-19.25 58.5,0 101.5,0 101.5,-19.25"/>
<text xml:space="preserve" text-anchor="middle" x="80" y="-5.75" font-family="Helvetica,sans-Serif" font-size="10.00">error.h</text>
</a>
</g>
</g>
<!-- Node3&#45;&gt;Node7 -->
<g id="edge6_Node000003_Node000007" class="edge">
<title>Node3&#45;&gt;Node7</title>
<g id="a_edge6_Node000003_Node000007"><a xlink:title=" ">
<path fill="none" stroke="#63b8ff" d="M78.33,-55.08C78.58,-48.49 78.93,-39.21 79.24,-30.82"/>
<polygon fill="#63b8ff" stroke="#63b8ff" points="82.73,-31.25 79.61,-21.12 75.73,-30.98 82.73,-31.25"/>
</a>
</g>
</g>
<!-- Node8&#45;&gt;Node6 -->
<g id="edge8_Node000008_Node000006" class="edge">
<title>Node8&#45;&gt;Node6</title>
<g id="a_edge8_Node000008_Node000006"><a xlink:title=" ">
<path fill="none" stroke="#63b8ff" d="M283.22,-55.08C278.59,-48.03 271.93,-37.9 266.13,-29.08"/>
<polygon fill="#63b8ff" stroke="#63b8ff" points="269.15,-27.31 260.74,-20.87 263.3,-31.15 269.15,-27.31"/>
</a>
</g>
</g>
<!-- Node9&#45;&gt;Node3 -->
<g id="edge11_Node000009_Node000003" class="edge">
<title>Node9&#45;&gt;Node3</title>
<g id="a_edge11_Node000009_Node000003"><a xlink:title=" ">
<path fill="none" stroke="#63b8ff" d="M156.05,-110.09C141.74,-101.98 120.47,-89.93 103.75,-80.46"/>
<polygon fill="#63b8ff" stroke="#63b8ff" points="105.77,-77.58 95.34,-75.7 102.32,-83.67 105.77,-77.58"/>
</a>
</g>
</g>
<!-- Node9&#45;&gt;Node5 -->
<g id="edge10_Node000009_Node000005" class="edge">
<title>Node9&#45;&gt;Node5</title>
<g id="a_edge10_Node000009_Node000005"><a xlink:title=" ">
<path fill="none" stroke="#63b8ff" d="M170.28,-110.25C166.94,-93 159.51,-54.58 154.91,-30.81"/>
<polygon fill="#63b8ff" stroke="#63b8ff" points="158.37,-30.27 153.03,-21.11 151.49,-31.6 158.37,-30.27"/>
</a>
</g>
</g>
<!-- Node9&#45;&gt;Node6 -->
<g id="edge12_Node000009_Node000006" class="edge">
<title>Node9&#45;&gt;Node6</title>
<g id="a_edge12_Node000009_Node000006"><a xlink:title=" ">
<path fill="none" stroke="#63b8ff" d="M176.52,-110.01C183.07,-97.21 195.96,-73.43 210,-55.25 217.62,-45.38 227.23,-35.41 235.52,-27.4"/>
<polygon fill="#63b8ff" stroke="#63b8ff" points="237.85,-30.02 242.75,-20.62 233.06,-24.91 237.85,-30.02"/>
</a>
</g>
</g>
</g>
</svg>
</svg>

<style type='text/css'>
<![CDATA[
[data-mouse-over-selected='false'] { opacity: 0.7; }
[data-mouse-over-selected='true']  { opacity: 1.0; }
]]>
</style>
<script type="application/ecmascript"><![CDATA[
document.addEventListener('DOMContentLoaded', (event) => {
  highlightEdges();
  highlightAdjacentNodes();
});
]]></script>
</svg>
