<?xml version="1.0" encoding="UTF-8" standalone="no"?>
<!DOCTYPE svg PUBLIC "-//W3C//DTD SVG 1.1//EN"
 "http://www.w3.org/Graphics/SVG/1.1/DTD/svg11.dtd">
<!-- Generated by graphviz version 14.0.0 (20250921.2048)
 -->
<!-- Title: read_and_alloc_save_data Pages: 1 -->
<!--zoomable 836 -->

<svg id="main" version="1.1" xmlns="http://www.w3.org/2000/svg" xmlns:xlink="http://www.w3.org/1999/xlink" xml:space="preserve" onload="init(evt)">

<style type="text/css"><![CDATA[
.node, .edge {opacity: 0.7;}
.node.selected, .edge.selected {opacity: 1;}
.edge:hover path { stroke: red; }
.edge:hover polygon { stroke: red; fill: red; }
]]></style>

<defs>
  <circle id="rim" cx="0" cy="0" r="7"/>
  <circle id="rim2" cx="0" cy="0" r="3.5"/>
  <g id="zoomPlus">
    <use xlink:href="#rim" fill="#404040"><set attributeName="fill" to="#808080" begin="zoomplus.mouseover" end="zoomplus.mouseout"/></use>
    <path d="M-4,0h8M0,-4v8" fill="none" stroke="white" stroke-width="1.5" pointer-events="none"/>
  </g>
  <g id="zoomMin">
    <use xlink:href="#rim" fill="#404040"><set attributeName="fill" to="#808080" begin="zoomminus.mouseover" end="zoomminus.mouseout"/></use>
    <path d="M-4,0h8" fill="none" stroke="white" stroke-width="1.5" pointer-events="none"/>
  </g>
  <g id="arrowUp" transform="translate(30 24)">
    <use xlink:href="#rim"/>
    <path pointer-events="none" fill="none" stroke="white" stroke-width="1.5" d="M0,-3.0v7 M-2.5,-0.5L0,-3.0L2.5,-0.5"/>
  </g>
  <g id="arrowRight" transform="rotate(90) translate(36 -43)">
    <use xlink:href="#rim"/>
    <path pointer-events="none" fill="none" stroke="white" stroke-width="1.5" d="M0,-3.0v7 M-2.5,-0.5L0,-3.0L2.5,-0.5"/>
  </g>
  <g id="arrowDown" transform="rotate(180) translate(-30 -48)">
    <use xlink:href="#rim"/>
    <path pointer-events="none" fill="none" stroke="white" stroke-width="1.5" d="M0,-3.0v7 M-2.5,-0.5L0,-3.0L2.5,-0.5"/>
  </g>
  <g id="arrowLeft" transform="rotate(270) translate(-36 17)">
    <use xlink:href="#rim"/>
    <path pointer-events="none" fill="none" stroke="white" stroke-width="1.5" d="M0,-3.0v7 M-2.5,-0.5L0,-3.0L2.5,-0.5"/>
  </g>
  <g id="resetDef">
    <use xlink:href="#rim2" fill="#404040"><set attributeName="fill" to="#808080" begin="reset.mouseover" end="reset.mouseout"/></use>
  </g>
</defs>
<script type="application/ecmascript">
var viewWidth = 582;
var viewHeight = 836;
var sectionId = 'dynsection-10';
</script>
<script type="application/ecmascript" xlink:href="../../svg.min.js"/>
<svg id="graph" class="graph">
<g id="viewport">
<title>read_and_alloc_save_data</title>
<!-- Node1 -->
<g id="Node000001" class="node">
<title>Node1</title>
<g id="a_Node000001"><a xlink:title=" ">
<polygon fill="#999999" stroke="#666666" points="131.5,-410.25 0,-410.25 0,-391 131.5,-391 131.5,-410.25"/>
<text xml:space="preserve" text-anchor="middle" x="65.75" y="-396.75" font-family="Helvetica,sans-Serif" font-size="10.00">read_and_alloc_save_data</text>
</a>
</g>
</g>
<!-- Node2 -->
<g id="Node000002" class="node">
<title>Node2</title>
<g id="a_Node000002"><a xlink:href="../../d3/df0/fcoeff_8c.html#a51c4fcdc7b80cf7bc1ecad7f6fbbcfad" target="_top" xlink:title=" ">
<polygon fill="white" stroke="#666666" points="278,-815.88 167.5,-815.88 167.5,-785.38 278,-785.38 278,-815.88"/>
<text xml:space="preserve" text-anchor="start" x="175.5" y="-802.38" font-family="Helvetica,sans-Serif" font-size="10.00">alloc_and_Compute_f</text>
<text xml:space="preserve" text-anchor="middle" x="222.75" y="-791.12" font-family="Helvetica,sans-Serif" font-size="10.00">_Coeff</text>
</a>
</g>
</g>
<!-- Node1&#45;&gt;Node2 -->
<g id="edge1_Node000001_Node000002" class="edge">
<title>Node1&#45;&gt;Node2</title>
<g id="a_edge1_Node000001_Node000002"><a xlink:title=" ">
<path fill="none" stroke="#63b8ff" d="M66.47,-410.75C65.72,-458.2 68.61,-661.12 167.5,-776.62 167.75,-776.92 168.01,-777.21 168.27,-777.49"/>
<polygon fill="#63b8ff" stroke="#63b8ff" points="165.79,-779.98 175.64,-783.89 170.38,-774.69 165.79,-779.98"/>
</a>
</g>
</g>
<!-- Node6 -->
<g id="Node000006" class="node">
<title>Node6</title>
<g id="a_Node000006"><a xlink:href="../../da/d77/get__save__data_8c.html#ab241283ae68227b8771196167208fbf6" target="_top" xlink:title=" ">
<polygon fill="white" stroke="#666666" points="275,-767.25 170.5,-767.25 170.5,-748 275,-748 275,-767.25"/>
<text xml:space="preserve" text-anchor="middle" x="222.75" y="-753.75" font-family="Helvetica,sans-Serif" font-size="10.00">alloc_and_set_Gvec</text>
</a>
</g>
</g>
<!-- Node1&#45;&gt;Node6 -->
<g id="edge5_Node000001_Node000006" class="edge">
<title>Node1&#45;&gt;Node6</title>
<g id="a_edge5_Node000001_Node000006"><a xlink:title=" ">
<path fill="none" stroke="#63b8ff" d="M66.59,-410.56C66.44,-455.39 71.79,-640.86 167.5,-739.62 167.99,-740.13 168.49,-740.61 169,-741.09"/>
<polygon fill="#63b8ff" stroke="#63b8ff" points="166.85,-743.85 177.04,-746.76 170.88,-738.13 166.85,-743.85"/>
</a>
</g>
</g>
<!-- Node7 -->
<g id="Node000007" class="node">
<title>Node7</title>
<g id="a_Node000007"><a xlink:href="../../d7/df8/mpi__bcast_8c.html#a5323d62c1798fdbcb138f2d862adacd7" target="_top" xlink:title=" ">
<polygon fill="white" stroke="#666666" points="274.62,-730.25 170.88,-730.25 170.88,-711 274.62,-711 274.62,-730.25"/>
<text xml:space="preserve" text-anchor="middle" x="222.75" y="-716.75" font-family="Helvetica,sans-Serif" font-size="10.00">Bcast_local_pseudo</text>
</a>
</g>
</g>
<!-- Node1&#45;&gt;Node7 -->
<g id="edge6_Node000001_Node000007" class="edge">
<title>Node1&#45;&gt;Node7</title>
<g id="a_edge6_Node000001_Node000007"><a xlink:title=" ">
<path fill="none" stroke="#63b8ff" d="M67.01,-410.6C68.67,-452.49 80.67,-615.93 167.5,-702.62 167.99,-703.12 168.5,-703.6 169.02,-704.06"/>
<polygon fill="#63b8ff" stroke="#63b8ff" points="166.92,-706.86 177.13,-709.67 170.9,-701.1 166.92,-706.86"/>
</a>
</g>
</g>
<!-- Node8 -->
<g id="Node000008" class="node">
<title>Node8</title>
<g id="a_Node000008"><a xlink:href="../../d7/df8/mpi__bcast_8c.html#a720570ca279882a81176731dc0deb8d5" target="_top" xlink:title=" ">
<polygon fill="white" stroke="#666666" points="271.62,-693.25 173.88,-693.25 173.88,-674 271.62,-674 271.62,-693.25"/>
<text xml:space="preserve" text-anchor="middle" x="222.75" y="-679.75" font-family="Helvetica,sans-Serif" font-size="10.00">Bcast_symmetries</text>
</a>
</g>
</g>
<!-- Node1&#45;&gt;Node8 -->
<g id="edge7_Node000001_Node000008" class="edge">
<title>Node1&#45;&gt;Node8</title>
<g id="a_edge7_Node000001_Node000008"><a xlink:title=" ">
<path fill="none" stroke="#63b8ff" d="M67.55,-410.69C71.18,-449.49 89.48,-590.89 167.5,-665.62 168.12,-666.22 168.76,-666.79 169.41,-667.34"/>
<polygon fill="#63b8ff" stroke="#63b8ff" points="167.24,-670.11 177.52,-672.7 171.1,-664.27 167.24,-670.11"/>
</a>
</g>
</g>
<!-- Node9 -->
<g id="Node000009" class="node">
<title>Node9</title>
<g id="a_Node000009"><a xlink:href="../../d2/d7a/_b_z__expand_8c.html#a22f62c3ed83f26d7e24bc15cf0013c01" target="_top" xlink:title=" ">
<polygon fill="white" stroke="#666666" points="254.38,-656.25 191.12,-656.25 191.12,-637 254.38,-637 254.38,-656.25"/>
<text xml:space="preserve" text-anchor="middle" x="222.75" y="-642.75" font-family="Helvetica,sans-Serif" font-size="10.00">bz_expand</text>
</a>
</g>
</g>
<!-- Node1&#45;&gt;Node9 -->
<g id="edge8_Node000001_Node000009" class="edge">
<title>Node1&#45;&gt;Node9</title>
<g id="a_edge8_Node000001_Node000009"><a xlink:title=" ">
<path fill="none" stroke="#63b8ff" d="M68.21,-410.49C73.93,-445.56 98,-565.47 167.5,-628.62 171.24,-632.02 175.63,-634.78 180.27,-637.01"/>
<polygon fill="#63b8ff" stroke="#63b8ff" points="178.68,-640.15 189.27,-640.57 181.26,-633.64 178.68,-640.15"/>
</a>
</g>
</g>
<!-- Node12 -->
<g id="Node000012" class="node">
<title>Node12</title>
<g id="a_Node000012"><a xlink:href="../../da/d77/get__save__data_8c.html#a3ff6448428b94c593c0b33bc9bc7fc67" target="_top" xlink:title=" ">
<polygon fill="white" stroke="#666666" points="272.75,-619.25 172.75,-619.25 172.75,-600 272.75,-600 272.75,-619.25"/>
<text xml:space="preserve" text-anchor="middle" x="222.75" y="-605.75" font-family="Helvetica,sans-Serif" font-size="10.00">check_ele_in_array</text>
</a>
</g>
</g>
<!-- Node1&#45;&gt;Node12 -->
<g id="edge11_Node000001_Node000012" class="edge">
<title>Node1&#45;&gt;Node12</title>
<g id="a_edge11_Node000001_Node000012"><a xlink:title=" ">
<path fill="none" stroke="#63b8ff" d="M69.6,-410.49C78.8,-440.7 110.47,-533.1 167.5,-585.62 171.18,-589.01 175.41,-591.98 179.86,-594.56"/>
<polygon fill="#63b8ff" stroke="#63b8ff" points="177.96,-597.52 188.46,-598.93 181.13,-591.28 177.96,-597.52"/>
</a>
</g>
</g>
<!-- Node13 -->
<g id="Node000013" class="node">
<title>Node13</title>
<g id="a_Node000013"><a xlink:href="../../d9/db9/vlocg__table_8c.html#ab6914a7f3451d3d4c5e01f8c5cecd7a8" target="_top" xlink:title=" ">
<polygon fill="white" stroke="#666666" points="271.62,-505.25 173.88,-505.25 173.88,-486 271.62,-486 271.62,-505.25"/>
<text xml:space="preserve" text-anchor="middle" x="222.75" y="-491.75" font-family="Helvetica,sans-Serif" font-size="10.00">create_vlocg_table</text>
</a>
</g>
</g>
<!-- Node1&#45;&gt;Node13 -->
<g id="edge12_Node000001_Node000013" class="edge">
<title>Node1&#45;&gt;Node13</title>
<g id="a_edge12_Node000001_Node000013"><a xlink:title=" ">
<path fill="none" stroke="#63b8ff" d="M79.25,-410.66C97.79,-425.26 133.98,-452.65 167.5,-471.62 173.3,-474.91 179.63,-478.06 185.86,-480.95"/>
<polygon fill="#63b8ff" stroke="#63b8ff" points="184.18,-484.03 194.74,-484.91 187.03,-477.64 184.18,-484.03"/>
</a>
</g>
</g>
<!-- Node14 -->
<g id="Node000014" class="node">
<title>Node14</title>
<g id="a_Node000014"><a xlink:href="../../da/d97/_e_l_p_h__timers_8c.html#a4846a0dbe6a17751878baf1315af43aa" target="_top" xlink:title=" ">
<polygon fill="white" stroke="#666666" points="420.38,-581.25 324.88,-581.25 324.88,-562 420.38,-562 420.38,-581.25"/>
<text xml:space="preserve" text-anchor="middle" x="372.62" y="-567.75" font-family="Helvetica,sans-Serif" font-size="10.00">ELPH_start_clock</text>
</a>
</g>
</g>
<!-- Node1&#45;&gt;Node14 -->
<g id="edge20_Node000001_Node000014" class="edge">
<title>Node1&#45;&gt;Node14</title>
<g id="a_edge20_Node000001_Node000014"><a xlink:title=" ">
<path fill="none" stroke="#63b8ff" d="M70.6,-410.49C81.38,-436.71 114.62,-508.29 167.5,-540.62 211.34,-567.43 270.09,-573.94 313.3,-574.47"/>
<polygon fill="#63b8ff" stroke="#63b8ff" points="313.26,-577.97 323.26,-574.48 313.26,-570.97 313.26,-577.97"/>
</a>
</g>
</g>
<!-- Node15 -->
<g id="Node000015" class="node">
<title>Node15</title>
<g id="a_Node000015"><a xlink:href="../../da/d97/_e_l_p_h__timers_8c.html#adcc3002449fe62895b6e89571d00ba48" target="_top" xlink:title=" ">
<polygon fill="white" stroke="#666666" points="420,-543.25 325.25,-543.25 325.25,-524 420,-524 420,-543.25"/>
<text xml:space="preserve" text-anchor="middle" x="372.62" y="-529.75" font-family="Helvetica,sans-Serif" font-size="10.00">ELPH_stop_clock</text>
</a>
</g>
</g>
<!-- Node1&#45;&gt;Node15 -->
<g id="edge21_Node000001_Node000015" class="edge">
<title>Node1&#45;&gt;Node15</title>
<g id="a_edge21_Node000001_Node000015"><a xlink:title=" ">
<path fill="none" stroke="#63b8ff" d="M71.96,-410.48C84.7,-433.45 119.93,-490.47 167.5,-514.62 212.7,-537.58 270.8,-540.87 313.44,-539.28"/>
<polygon fill="#63b8ff" stroke="#63b8ff" points="313.43,-542.78 323.25,-538.8 313.09,-535.79 313.43,-542.78"/>
</a>
</g>
</g>
<!-- Node16 -->
<g id="Node000016" class="node">
<title>Node16</title>
<g id="a_Node000016"><a xlink:href="../../d9/d54/parallel_8c.html#a772905c8b6c33d03f3c8eb15bafdb129" target="_top" xlink:title=" ">
<polygon fill="white" stroke="#666666" points="431.25,-432.25 314,-432.25 314,-413 431.25,-413 431.25,-432.25"/>
<text xml:space="preserve" text-anchor="middle" x="372.62" y="-418.75" font-family="Helvetica,sans-Serif" font-size="10.00">get_mpi_local_size_idx</text>
</a>
</g>
</g>
<!-- Node1&#45;&gt;Node16 -->
<g id="edge24_Node000001_Node000016" class="edge">
<title>Node1&#45;&gt;Node16</title>
<g id="a_edge24_Node000001_Node000016"><a xlink:title=" ">
<path fill="none" stroke="#63b8ff" d="M122.28,-410.75C136.94,-413.06 152.78,-415.25 167.5,-416.62 212.32,-420.83 262.89,-422.33 302.49,-422.79"/>
<polygon fill="#63b8ff" stroke="#63b8ff" points="302.33,-426.29 312.36,-422.88 302.39,-419.29 302.33,-426.29"/>
</a>
</g>
</g>
<!-- Node20 -->
<g id="Node000020" class="node">
<title>Node20</title>
<g id="a_Node000020"><a xlink:href="../../de/d2d/numerical__func_8c.html#af7b464a965e184f893290a977a66c9d1" target="_top" xlink:title=" ">
<polygon fill="white" stroke="#666666" points="395.25,-393.25 350,-393.25 350,-374 395.25,-374 395.25,-393.25"/>
<text xml:space="preserve" text-anchor="middle" x="372.62" y="-379.75" font-family="Helvetica,sans-Serif" font-size="10.00">det3x3</text>
</a>
</g>
</g>
<!-- Node1&#45;&gt;Node20 -->
<g id="edge19_Node000001_Node000020" class="edge">
<title>Node1&#45;&gt;Node20</title>
<g id="a_edge19_Node000001_Node000020"><a xlink:title=" ">
<path fill="none" stroke="#63b8ff" d="M131.6,-403.63C173.47,-404.83 229.05,-405.03 278,-400.62 298.28,-398.8 320.74,-394.79 338.58,-391.12"/>
<polygon fill="#63b8ff" stroke="#63b8ff" points="339.3,-394.55 348.35,-389.04 337.84,-387.7 339.3,-394.55"/>
</a>
</g>
</g>
<!-- Node21 -->
<g id="Node000021" class="node">
<title>Node21</title>
<g id="a_Node000021"><a xlink:href="../../de/d2d/numerical__func_8c.html#abb53de7790915c6d871d22c8320c2e13" target="_top" xlink:title=" ">
<polygon fill="white" stroke="#666666" points="260,-354.25 185.5,-354.25 185.5,-335 260,-335 260,-354.25"/>
<text xml:space="preserve" text-anchor="middle" x="222.75" y="-340.75" font-family="Helvetica,sans-Serif" font-size="10.00">find_maxfloat</text>
</a>
</g>
</g>
<!-- Node1&#45;&gt;Node21 -->
<g id="edge22_Node000001_Node000021" class="edge">
<title>Node1&#45;&gt;Node21</title>
<g id="a_edge22_Node000001_Node000021"><a xlink:title=" ">
<path fill="none" stroke="#63b8ff" d="M92.32,-390.66C112.62,-382.82 141.77,-371.74 167.5,-362.62 171.48,-361.22 175.63,-359.78 179.78,-358.36"/>
<polygon fill="#63b8ff" stroke="#63b8ff" points="180.9,-361.68 189.26,-355.17 178.66,-355.05 180.9,-361.68"/>
</a>
</g>
</g>
<!-- Node22 -->
<g id="Node000022" class="node">
<title>Node22</title>
<g id="a_Node000022"><a xlink:href="../../de/d2d/numerical__func_8c.html#a1fcce22fd778f8c940e46c827a5ee036" target="_top" xlink:title=" ">
<polygon fill="white" stroke="#666666" points="255.88,-317.25 189.62,-317.25 189.62,-298 255.88,-298 255.88,-317.25"/>
<text xml:space="preserve" text-anchor="middle" x="222.75" y="-303.75" font-family="Helvetica,sans-Serif" font-size="10.00">find_maxint</text>
</a>
</g>
</g>
<!-- Node1&#45;&gt;Node22 -->
<g id="edge23_Node000001_Node000022" class="edge">
<title>Node1&#45;&gt;Node22</title>
<g id="a_edge23_Node000001_Node000022"><a xlink:title=" ">
<path fill="none" stroke="#63b8ff" d="M77.73,-390.56C95.44,-374.79 131.91,-344.16 167.5,-325.62 170.99,-323.81 174.71,-322.12 178.49,-320.56"/>
<polygon fill="#63b8ff" stroke="#63b8ff" points="179.66,-323.86 187.79,-317.07 177.2,-317.31 179.66,-323.86"/>
</a>
</g>
</g>
<!-- Node23 -->
<g id="Node000023" class="node">
<title>Node23</title>
<g id="a_Node000023"><a xlink:href="../../de/d8e/parse__upf_8c.html#aadc2964db48012b538892b8c605e7c22" target="_top" xlink:title=" ">
<polygon fill="white" stroke="#666666" points="266.75,-280.25 178.75,-280.25 178.75,-261 266.75,-261 266.75,-280.25"/>
<text xml:space="preserve" text-anchor="middle" x="222.75" y="-266.75" font-family="Helvetica,sans-Serif" font-size="10.00">get_upf_element</text>
</a>
</g>
</g>
<!-- Node1&#45;&gt;Node23 -->
<g id="edge25_Node000001_Node000023" class="edge">
<title>Node1&#45;&gt;Node23</title>
<g id="a_edge25_Node000001_Node000023"><a xlink:title=" ">
<path fill="none" stroke="#63b8ff" d="M73.03,-390.68C87.22,-368.99 123.95,-317.12 167.5,-288.62 169.13,-287.56 170.82,-286.55 172.57,-285.6"/>
<polygon fill="#63b8ff" stroke="#63b8ff" points="174.01,-288.79 181.58,-281.37 171.04,-282.45 174.01,-288.79"/>
</a>
</g>
</g>
<!-- Node27 -->
<g id="Node000027" class="node">
<title>Node27</title>
<g id="a_Node000027"><a xlink:href="../../da/d77/get__save__data_8c.html#aa73751dc4f316a14d915bf237af143aa" target="_top" xlink:title=" ">
<polygon fill="white" stroke="#666666" points="263.38,-206.25 182.12,-206.25 182.12,-187 263.38,-187 263.38,-206.25"/>
<text xml:space="preserve" text-anchor="middle" x="222.75" y="-192.75" font-family="Helvetica,sans-Serif" font-size="10.00">get_wf_io_pool</text>
</a>
</g>
</g>
<!-- Node1&#45;&gt;Node27 -->
<g id="edge29_Node000001_Node000027" class="edge">
<title>Node1&#45;&gt;Node27</title>
<g id="a_edge29_Node000001_Node000027"><a xlink:title=" ">
<path fill="none" stroke="#63b8ff" d="M69.25,-390.9C77.61,-360.26 107.54,-264.86 167.5,-214.62 168.81,-213.53 170.18,-212.5 171.61,-211.53"/>
<polygon fill="#63b8ff" stroke="#63b8ff" points="173.27,-214.62 180.35,-206.74 169.9,-208.48 173.27,-214.62"/>
</a>
</g>
</g>
<!-- Node28 -->
<g id="Node000028" class="node">
<title>Node28</title>
<g id="a_Node000028"><a xlink:href="../../da/d77/get__save__data_8c.html#a4456d2ccc75453656954f884620dce83" target="_top" xlink:title=" ">
<polygon fill="white" stroke="#666666" points="273.5,-130.25 172,-130.25 172,-111 273.5,-111 273.5,-130.25"/>
<text xml:space="preserve" text-anchor="middle" x="222.75" y="-116.75" font-family="Helvetica,sans-Serif" font-size="10.00">get_wfc_from_save</text>
</a>
</g>
</g>
<!-- Node1&#45;&gt;Node28 -->
<g id="edge30_Node000001_Node000028" class="edge">
<title>Node1&#45;&gt;Node28</title>
<g id="a_edge30_Node000001_Node000028"><a xlink:title=" ">
<path fill="none" stroke="#63b8ff" d="M67.95,-390.6C72.94,-353.18 95.26,-219.94 167.5,-144.62 170.62,-141.37 174.26,-138.53 178.14,-136.06"/>
<polygon fill="#63b8ff" stroke="#63b8ff" points="179.71,-139.19 186.84,-131.35 176.38,-133.03 179.71,-139.19"/>
</a>
</g>
</g>
<!-- Node29 -->
<g id="Node000029" class="node">
<title>Node29</title>
<g id="a_Node000029"><a xlink:href="../../da/d77/get__save__data_8c.html#a4ceb2c003712d55de5a7b78ea45b2d8e" target="_top" xlink:title=" ">
<polygon fill="white" stroke="#666666" points="414.75,-149.25 330.5,-149.25 330.5,-130 414.75,-130 414.75,-149.25"/>
<text xml:space="preserve" text-anchor="middle" x="372.62" y="-135.75" font-family="Helvetica,sans-Serif" font-size="10.00">quick_read_sub</text>
</a>
</g>
</g>
<!-- Node1&#45;&gt;Node29 -->
<g id="edge41_Node000001_Node000029" class="edge">
<title>Node1&#45;&gt;Node29</title>
<g id="a_edge41_Node000001_Node000029"><a xlink:title=" ">
<path fill="none" stroke="#63b8ff" d="M68,-390.64C73.01,-355.19 94.97,-234.53 167.5,-177.62 190.55,-159.54 266.65,-149.1 319.12,-143.89"/>
<polygon fill="#63b8ff" stroke="#63b8ff" points="319.13,-147.4 328.75,-142.97 318.46,-140.43 319.13,-147.4"/>
</a>
</g>
</g>
<!-- Node30 -->
<g id="Node000030" class="node">
<title>Node30</title>
<g id="a_Node000030"><a xlink:href="../../dc/d50/blas_8c.html#afca62df4906b4070e12af84f53906dc8" target="_top" xlink:title=" ">
<polygon fill="white" stroke="#666666" points="258.88,-93.25 186.62,-93.25 186.62,-74 258.88,-74 258.88,-93.25"/>
<text xml:space="preserve" text-anchor="middle" x="222.75" y="-79.75" font-family="Helvetica,sans-Serif" font-size="10.00">matmul_float</text>
</a>
</g>
</g>
<!-- Node1&#45;&gt;Node30 -->
<g id="edge32_Node000001_Node000030" class="edge">
<title>Node1&#45;&gt;Node30</title>
<g id="a_edge32_Node000001_Node000030"><a xlink:title=" ">
<path fill="none" stroke="#63b8ff" d="M67.05,-390.74C68.84,-349.26 81.31,-187.41 167.5,-101.62 170.02,-99.12 172.9,-96.96 175.99,-95.1"/>
<polygon fill="#63b8ff" stroke="#63b8ff" points="177.5,-98.26 185,-90.78 174.47,-91.94 177.5,-98.26"/>
</a>
</g>
</g>
<!-- Node32 -->
<g id="Node000032" class="node">
<title>Node32</title>
<g id="a_Node000032"><a xlink:href="../../de/d8e/parse__upf_8c.html#afc09125eba3ef9508922a0ead1060915" target="_top" xlink:title=" ">
<polygon fill="white" stroke="#666666" points="252.12,-243.25 193.38,-243.25 193.38,-224 252.12,-224 252.12,-243.25"/>
<text xml:space="preserve" text-anchor="middle" x="222.75" y="-229.75" font-family="Helvetica,sans-Serif" font-size="10.00">parse_upf</text>
</a>
</g>
</g>
<!-- Node1&#45;&gt;Node32 -->
<g id="edge34_Node000001_Node000032" class="edge">
<title>Node1&#45;&gt;Node32</title>
<g id="a_edge34_Node000001_Node000032"><a xlink:title=" ">
<path fill="none" stroke="#63b8ff" d="M70.75,-390.63C81.9,-363.99 115.98,-290.66 167.5,-251.62 171.91,-248.28 176.98,-245.54 182.21,-243.3"/>
<polygon fill="#63b8ff" stroke="#63b8ff" points="183.39,-246.59 191.58,-239.88 180.99,-240.02 183.39,-246.59"/>
</a>
</g>
</g>
<!-- Node36 -->
<g id="Node000036" class="node">
<title>Node36</title>
<g id="a_Node000036"><a xlink:href="../../da/d77/get__save__data_8c.html#a5329b6a0ed4b45de60ee5a5e2ed70dce" target="_top" xlink:title=" ">
<polygon fill="white" stroke="#666666" points="254.38,-56.25 191.12,-56.25 191.12,-37 254.38,-37 254.38,-56.25"/>
<text xml:space="preserve" text-anchor="middle" x="222.75" y="-42.75" font-family="Helvetica,sans-Serif" font-size="10.00">quick_read</text>
</a>
</g>
</g>
<!-- Node1&#45;&gt;Node36 -->
<g id="edge40_Node000001_Node000036" class="edge">
<title>Node1&#45;&gt;Node36</title>
<g id="a_edge40_Node000001_Node000036"><a xlink:title=" ">
<path fill="none" stroke="#63b8ff" d="M66.62,-390.77C66.6,-346.34 72.45,-162.48 167.5,-64.62 171.1,-60.92 175.47,-57.98 180.16,-55.64"/>
<polygon fill="#63b8ff" stroke="#63b8ff" points="181.34,-58.94 189.34,-51.99 178.76,-52.44 181.34,-58.94"/>
</a>
</g>
</g>
<!-- Node37 -->
<g id="Node000037" class="node">
<title>Node37</title>
<g id="a_Node000037"><a xlink:href="../../de/d2d/numerical__func_8c.html#aae57dcc2036d6002edd49bf275fd11b6" target="_top" xlink:title=" ">
<polygon fill="white" stroke="#666666" points="264.88,-391.25 180.62,-391.25 180.62,-372 264.88,-372 264.88,-391.25"/>
<text xml:space="preserve" text-anchor="middle" x="222.75" y="-377.75" font-family="Helvetica,sans-Serif" font-size="10.00">reciprocal_vecs</text>
</a>
</g>
</g>
<!-- Node1&#45;&gt;Node37 -->
<g id="edge42_Node000001_Node000037" class="edge">
<title>Node1&#45;&gt;Node37</title>
<g id="a_edge42_Node000001_Node000037"><a xlink:title=" ">
<path fill="none" stroke="#63b8ff" d="M131.59,-392.68C144.03,-391.15 156.93,-389.57 168.94,-388.1"/>
<polygon fill="#63b8ff" stroke="#63b8ff" points="169.14,-391.6 178.64,-386.91 168.29,-384.65 169.14,-391.6"/>
</a>
</g>
</g>
<!-- Node38 -->
<g id="Node000038" class="node">
<title>Node38</title>
<g id="a_Node000038"><a xlink:href="../../de/d2d/numerical__func_8c.html#aac168ae627644537e471f5a7921f781d" target="_top" xlink:title=" ">
<polygon fill="white" stroke="#666666" points="261.5,-19.25 184,-19.25 184,0 261.5,0 261.5,-19.25"/>
<text xml:space="preserve" text-anchor="middle" x="222.75" y="-5.75" font-family="Helvetica,sans-Serif" font-size="10.00">transpose3x3f</text>
</a>
</g>
</g>
<!-- Node1&#45;&gt;Node38 -->
<g id="edge44_Node000001_Node000038" class="edge">
<title>Node1&#45;&gt;Node38</title>
<g id="a_edge44_Node000001_Node000038"><a xlink:title=" ">
<path fill="none" stroke="#63b8ff" d="M66.28,-390.68C64.57,-343.24 63.61,-137.56 167.5,-27.62 169.44,-25.57 171.62,-23.76 173.95,-22.15"/>
<polygon fill="#63b8ff" stroke="#63b8ff" points="175.16,-25.47 182.28,-17.63 171.83,-19.32 175.16,-25.47"/>
</a>
</g>
</g>
<!-- Node3 -->
<g id="Node000003" class="node">
<title>Node3</title>
<g id="a_Node000003"><a xlink:href="../../d3/df0/fcoeff_8c.html#a04bc4a428bf0e2c118083d9030e71354" target="_top" xlink:title=" ">
<polygon fill="white" stroke="#666666" points="400.12,-791.25 345.12,-791.25 345.12,-772 400.12,-772 400.12,-791.25"/>
<text xml:space="preserve" text-anchor="middle" x="372.62" y="-777.75" font-family="Helvetica,sans-Serif" font-size="10.00">CGCoeff</text>
</a>
</g>
</g>
<!-- Node2&#45;&gt;Node3 -->
<g id="edge2_Node000002_Node000003" class="edge">
<title>Node2&#45;&gt;Node3</title>
<g id="a_edge2_Node000002_Node000003"><a xlink:title=" ">
<path fill="none" stroke="#63b8ff" d="M278.39,-793.6C296.84,-791.23 317.02,-788.64 333.86,-786.48"/>
<polygon fill="#63b8ff" stroke="#63b8ff" points="333.96,-789.99 343.43,-785.25 333.07,-783.05 333.96,-789.99"/>
</a>
</g>
</g>
<!-- Node4 -->
<g id="Node000004" class="node">
<title>Node4</title>
<g id="a_Node000004"><a xlink:href="../../d3/df0/fcoeff_8c.html#a81d9ee6d93d690e6d46d4646ba608d5c" target="_top" xlink:title=" ">
<polygon fill="white" stroke="#666666" points="392.62,-828.25 352.62,-828.25 352.62,-809 392.62,-809 392.62,-828.25"/>
<text xml:space="preserve" text-anchor="middle" x="372.62" y="-814.75" font-family="Helvetica,sans-Serif" font-size="10.00">Umat</text>
</a>
</g>
</g>
<!-- Node2&#45;&gt;Node4 -->
<g id="edge3_Node000002_Node000004" class="edge">
<title>Node2&#45;&gt;Node4</title>
<g id="a_edge3_Node000002_Node000004"><a xlink:title=" ">
<path fill="none" stroke="#63b8ff" d="M278.39,-807.28C299.48,-809.84 322.83,-812.69 340.88,-814.88"/>
<polygon fill="#63b8ff" stroke="#63b8ff" points="340.32,-818.34 350.67,-816.07 341.16,-811.39 340.32,-818.34"/>
</a>
</g>
</g>
<!-- Node5 -->
<g id="Node000005" class="node">
<title>Node5</title>
<g id="a_Node000005"><a xlink:href="../../d3/df0/fcoeff_8c.html#a1e1b909d9455dbb18f70edebd569fc28" target="_top" xlink:title=" ">
<polygon fill="white" stroke="#666666" points="540.62,-828.25 500.62,-828.25 500.62,-809 540.62,-809 540.62,-828.25"/>
<text xml:space="preserve" text-anchor="middle" x="520.62" y="-814.75" font-family="Helvetica,sans-Serif" font-size="10.00">Cmat</text>
</a>
</g>
</g>
<!-- Node4&#45;&gt;Node5 -->
<g id="edge4_Node000004_Node000005" class="edge">
<title>Node4&#45;&gt;Node5</title>
<g id="a_edge4_Node000004_Node000005"><a xlink:title=" ">
<path fill="none" stroke="#63b8ff" d="M393.01,-818.62C417.45,-818.62 459.74,-818.62 488.67,-818.62"/>
<polygon fill="#63b8ff" stroke="#63b8ff" points="488.64,-822.13 498.64,-818.63 488.64,-815.13 488.64,-822.13"/>
</a>
</g>
</g>
<!-- Node10 -->
<g id="Node000010" class="node">
<title>Node10</title>
<g id="a_Node000010"><a xlink:href="../../de/d2d/numerical__func_8c.html#a95da0d07e74aa4a00285324f1464224b" target="_top" xlink:title=" ">
<polygon fill="white" stroke="#666666" points="415.5,-637.25 329.75,-637.25 329.75,-618 415.5,-618 415.5,-637.25"/>
<text xml:space="preserve" text-anchor="middle" x="372.62" y="-623.75" font-family="Helvetica,sans-Serif" font-size="10.00">find_kidx_in_list</text>
</a>
</g>
</g>
<!-- Node9&#45;&gt;Node10 -->
<g id="edge9_Node000009_Node000010" class="edge">
<title>Node9&#45;&gt;Node10</title>
<g id="a_edge9_Node000009_Node000010"><a xlink:title=" ">
<path fill="none" stroke="#63b8ff" d="M254.75,-642.64C273.13,-640.28 296.92,-637.22 318.24,-634.48"/>
<polygon fill="#63b8ff" stroke="#63b8ff" points="318.47,-637.98 327.95,-633.24 317.58,-631.04 318.47,-637.98"/>
</a>
</g>
</g>
<!-- Node11 -->
<g id="Node000011" class="node">
<title>Node11</title>
<g id="a_Node000011"><a xlink:href="../../de/d2d/numerical__func_8c.html#adeeb2c0049b8e3663d2d2cc9f7a1cd23" target="_top" xlink:title=" ">
<polygon fill="white" stroke="#666666" points="401.62,-674.25 343.62,-674.25 343.62,-655 401.62,-655 401.62,-674.25"/>
<text xml:space="preserve" text-anchor="middle" x="372.62" y="-660.75" font-family="Helvetica,sans-Serif" font-size="10.00">MatVec3f</text>
</a>
</g>
</g>
<!-- Node9&#45;&gt;Node11 -->
<g id="edge10_Node000009_Node000011" class="edge">
<title>Node9&#45;&gt;Node11</title>
<g id="a_edge10_Node000009_Node000011"><a xlink:title=" ">
<path fill="none" stroke="#63b8ff" d="M254.75,-650.4C277.17,-653.13 307.64,-656.84 331.85,-659.78"/>
<polygon fill="#63b8ff" stroke="#63b8ff" points="331.32,-663.24 341.67,-660.98 332.16,-656.3 331.32,-663.24"/>
</a>
</g>
</g>
<!-- Node13&#45;&gt;Node14 -->
<g id="edge13_Node000013_Node000014" class="edge">
<title>Node13&#45;&gt;Node14</title>
<g id="a_edge13_Node000013_Node000014"><a xlink:title=" ">
<path fill="none" stroke="#63b8ff" d="M237.21,-505.61C254.34,-517.97 285.17,-539.02 314,-552.62 317.75,-554.39 321.7,-556.06 325.71,-557.63"/>
<polygon fill="#63b8ff" stroke="#63b8ff" points="324.34,-560.85 334.93,-561 326.74,-554.28 324.34,-560.85"/>
</a>
</g>
</g>
<!-- Node13&#45;&gt;Node15 -->
<g id="edge14_Node000013_Node000015" class="edge">
<title>Node13&#45;&gt;Node15</title>
<g id="a_edge14_Node000013_Node000015"><a xlink:title=" ">
<path fill="none" stroke="#63b8ff" d="M262.99,-505.71C280.94,-510.32 302.43,-515.84 321.53,-520.75"/>
<polygon fill="#63b8ff" stroke="#63b8ff" points="320.44,-524.08 330.99,-523.18 322.18,-517.3 320.44,-524.08"/>
</a>
</g>
</g>
<!-- Node13&#45;&gt;Node16 -->
<g id="edge15_Node000013_Node000016" class="edge">
<title>Node13&#45;&gt;Node16</title>
<g id="a_edge15_Node000013_Node000016"><a xlink:title=" ">
<path fill="none" stroke="#63b8ff" d="M250.76,-485.53C259.72,-481.7 269.56,-476.96 278,-471.62 295.85,-460.34 295.54,-450.87 314,-440.62 316.36,-439.32 318.82,-438.09 321.35,-436.94"/>
<polygon fill="#63b8ff" stroke="#63b8ff" points="322.62,-440.2 330.58,-433.21 320,-433.71 322.62,-440.2"/>
</a>
</g>
</g>
<!-- Node17 -->
<g id="Node000017" class="node">
<title>Node17</title>
<g id="a_Node000017"><a xlink:href="../../d3/dcb/spline_8c.html#a2a321b037cb6355f79bf6ad4213814b5" target="_top" xlink:title=" ">
<polygon fill="white" stroke="#666666" points="412.12,-469.25 333.12,-469.25 333.12,-450 412.12,-450 412.12,-469.25"/>
<text xml:space="preserve" text-anchor="middle" x="372.62" y="-455.75" font-family="Helvetica,sans-Serif" font-size="10.00">prepare_spline</text>
</a>
</g>
</g>
<!-- Node13&#45;&gt;Node17 -->
<g id="edge16_Node000013_Node000017" class="edge">
<title>Node13&#45;&gt;Node17</title>
<g id="a_edge16_Node000013_Node000017"><a xlink:title=" ">
<path fill="none" stroke="#63b8ff" d="M265.33,-485.5C282.81,-481.25 303.28,-476.26 321.58,-471.81"/>
<polygon fill="#63b8ff" stroke="#63b8ff" points="322.28,-475.24 331.17,-469.47 320.62,-468.44 322.28,-475.24"/>
</a>
</g>
</g>
<!-- Node18 -->
<g id="Node000018" class="node">
<title>Node18</title>
<g id="a_Node000018"><a xlink:href="../../d7/d4b/_vloc_g__atom_8c.html#add0b1159d0f5437a3365e512d83f5d46" target="_top" xlink:title=" ">
<polygon fill="white" stroke="#666666" points="409.88,-506.25 335.38,-506.25 335.38,-487 409.88,-487 409.88,-506.25"/>
<text xml:space="preserve" text-anchor="middle" x="372.62" y="-492.75" font-family="Helvetica,sans-Serif" font-size="10.00">Vloc_Gspace</text>
</a>
</g>
</g>
<!-- Node13&#45;&gt;Node18 -->
<g id="edge17_Node000013_Node000018" class="edge">
<title>Node13&#45;&gt;Node18</title>
<g id="a_edge17_Node000013_Node000018"><a xlink:title=" ">
<path fill="none" stroke="#63b8ff" d="M271.76,-495.95C288.48,-496.06 307.22,-496.19 323.92,-496.3"/>
<polygon fill="#63b8ff" stroke="#63b8ff" points="323.56,-499.8 333.58,-496.37 323.61,-492.8 323.56,-499.8"/>
</a>
</g>
</g>
<!-- Node19 -->
<g id="Node000019" class="node">
<title>Node19</title>
<g id="a_Node000019"><a xlink:href="../../de/d2d/numerical__func_8c.html#acfc7eb8519ce75ef3c61facd19cfa0af" target="_top" xlink:title=" ">
<polygon fill="white" stroke="#666666" points="547,-506.25 494.25,-506.25 494.25,-487 547,-487 547,-506.25"/>
<text xml:space="preserve" text-anchor="middle" x="520.62" y="-492.75" font-family="Helvetica,sans-Serif" font-size="10.00">simpson</text>
</a>
</g>
</g>
<!-- Node18&#45;&gt;Node19 -->
<g id="edge18_Node000018_Node000019" class="edge">
<title>Node18&#45;&gt;Node19</title>
<g id="a_edge18_Node000018_Node000019"><a xlink:title=" ">
<path fill="none" stroke="#63b8ff" d="M410.09,-496.62C432.28,-496.62 460.55,-496.62 482.81,-496.62"/>
<polygon fill="#63b8ff" stroke="#63b8ff" points="482.64,-500.13 492.64,-496.63 482.64,-493.13 482.64,-500.13"/>
</a>
</g>
</g>
<!-- Node24 -->
<g id="Node000024" class="node">
<title>Node24</title>
<g id="a_Node000024"><a xlink:href="../../de/d8e/parse__upf_8c.html#ab1d9b0701dff67e02393ea8a89ef90c8" target="_top" xlink:title=" ">
<polygon fill="white" stroke="#666666" points="419.25,-317.25 326,-317.25 326,-298 419.25,-298 419.25,-317.25"/>
<text xml:space="preserve" text-anchor="middle" x="372.62" y="-303.75" font-family="Helvetica,sans-Serif" font-size="10.00">get_upf1_element</text>
</a>
</g>
</g>
<!-- Node23&#45;&gt;Node24 -->
<g id="edge26_Node000023_Node000024" class="edge">
<title>Node23&#45;&gt;Node24</title>
<g id="a_edge26_Node000023_Node000024"><a xlink:title=" ">
<path fill="none" stroke="#63b8ff" d="M264.16,-280.74C281.44,-285.06 301.82,-290.16 320.16,-294.75"/>
<polygon fill="#63b8ff" stroke="#63b8ff" points="319.25,-298.13 329.8,-297.16 320.95,-291.34 319.25,-298.13"/>
</a>
</g>
</g>
<!-- Node25 -->
<g id="Node000025" class="node">
<title>Node25</title>
<g id="a_Node000025"><a xlink:href="../../de/d8e/parse__upf_8c.html#ab862826dd80312be338f4144653828ac" target="_top" xlink:title=" ">
<polygon fill="white" stroke="#666666" points="419.25,-354.25 326,-354.25 326,-335 419.25,-335 419.25,-354.25"/>
<text xml:space="preserve" text-anchor="middle" x="372.62" y="-340.75" font-family="Helvetica,sans-Serif" font-size="10.00">get_upf2_element</text>
</a>
</g>
</g>
<!-- Node23&#45;&gt;Node25 -->
<g id="edge27_Node000023_Node000025" class="edge">
<title>Node23&#45;&gt;Node25</title>
<g id="a_edge27_Node000023_Node000025"><a xlink:title=" ">
<path fill="none" stroke="#63b8ff" d="M262.19,-280.73C267.7,-282.92 273.14,-285.54 278,-288.62 297.63,-301.11 294.26,-314.31 314,-326.62 315.87,-327.79 317.82,-328.88 319.82,-329.91"/>
<polygon fill="#63b8ff" stroke="#63b8ff" points="318.24,-333.04 328.8,-333.9 321.09,-326.64 318.24,-333.04"/>
</a>
</g>
</g>
<!-- Node26 -->
<g id="Node000026" class="node">
<title>Node26</title>
<g id="a_Node000026"><a xlink:href="../../de/d8e/parse__upf_8c.html#a7af3ed3bbdb8a640d1d0dfa1cba76a1e" target="_top" xlink:title=" ">
<polygon fill="white" stroke="#666666" points="415.12,-280.25 330.12,-280.25 330.12,-261 415.12,-261 415.12,-280.25"/>
<text xml:space="preserve" text-anchor="middle" x="372.62" y="-266.75" font-family="Helvetica,sans-Serif" font-size="10.00">get_upf_version</text>
</a>
</g>
</g>
<!-- Node23&#45;&gt;Node26 -->
<g id="edge28_Node000023_Node000026" class="edge">
<title>Node23&#45;&gt;Node26</title>
<g id="a_edge28_Node000023_Node000026"><a xlink:title=" ">
<path fill="none" stroke="#63b8ff" d="M266.92,-270.62C282.99,-270.62 301.42,-270.62 318.29,-270.62"/>
<polygon fill="#63b8ff" stroke="#63b8ff" points="318.16,-274.13 328.16,-270.63 318.16,-267.13 318.16,-274.13"/>
</a>
</g>
</g>
<!-- Node28&#45;&gt;Node29 -->
<g id="edge31_Node000028_Node000029" class="edge">
<title>Node28&#45;&gt;Node29</title>
<g id="a_edge31_Node000028_Node000029"><a xlink:title=" ">
<path fill="none" stroke="#63b8ff" d="M273.81,-127.06C288.5,-128.94 304.6,-131.01 319.42,-132.92"/>
<polygon fill="#63b8ff" stroke="#63b8ff" points="318.59,-136.34 328.96,-134.14 319.48,-129.4 318.59,-136.34"/>
</a>
</g>
</g>
<!-- Node31 -->
<g id="Node000031" class="node">
<title>Node31</title>
<g id="a_Node000031"><a xlink:href="../../dc/d50/blas_8c.html#a913bafabc05e83b2aeed88da231a461f" target="_top" xlink:title=" ">
<polygon fill="white" stroke="#666666" points="411.75,-93.25 333.5,-93.25 333.5,-74 411.75,-74 411.75,-93.25"/>
<text xml:space="preserve" text-anchor="middle" x="372.62" y="-79.75" font-family="Helvetica,sans-Serif" font-size="10.00">get_gemmn_T</text>
</a>
</g>
</g>
<!-- Node30&#45;&gt;Node31 -->
<g id="edge33_Node000030_Node000031" class="edge">
<title>Node30&#45;&gt;Node31</title>
<g id="a_edge33_Node000030_Node000031"><a xlink:title=" ">
<path fill="none" stroke="#63b8ff" d="M259.17,-83.62C277.9,-83.62 301.2,-83.62 321.73,-83.62"/>
<polygon fill="#63b8ff" stroke="#63b8ff" points="321.61,-87.13 331.61,-83.63 321.61,-80.13 321.61,-87.13"/>
</a>
</g>
</g>
<!-- Node32&#45;&gt;Node26 -->
<g id="edge35_Node000032_Node000026" class="edge">
<title>Node32&#45;&gt;Node26</title>
<g id="a_edge35_Node000032_Node000026"><a xlink:title=" ">
<path fill="none" stroke="#63b8ff" d="M252.61,-240.85C271.81,-245.65 297.57,-252.09 320.21,-257.76"/>
<polygon fill="#63b8ff" stroke="#63b8ff" points="319.35,-261.15 329.9,-260.18 321.05,-254.36 319.35,-261.15"/>
</a>
</g>
</g>
<!-- Node33 -->
<g id="Node000033" class="node">
<title>Node33</title>
<g id="a_Node000033"><a xlink:href="../../de/d8e/parse__upf_8c.html#a5bb745a5bd6890bc2ec19e8def935905" target="_top" xlink:title=" ">
<polygon fill="white" stroke="#666666" points="404.62,-243.25 340.62,-243.25 340.62,-224 404.62,-224 404.62,-243.25"/>
<text xml:space="preserve" text-anchor="middle" x="372.62" y="-229.75" font-family="Helvetica,sans-Serif" font-size="10.00">parse_upf1</text>
</a>
</g>
</g>
<!-- Node32&#45;&gt;Node33 -->
<g id="edge36_Node000032_Node000033" class="edge">
<title>Node32&#45;&gt;Node33</title>
<g id="a_edge36_Node000032_Node000033"><a xlink:title=" ">
<path fill="none" stroke="#63b8ff" d="M252.61,-233.62C274.28,-233.62 304.3,-233.62 328.77,-233.62"/>
<polygon fill="#63b8ff" stroke="#63b8ff" points="328.77,-237.13 338.77,-233.63 328.77,-230.13 328.77,-237.13"/>
</a>
</g>
</g>
<!-- Node35 -->
<g id="Node000035" class="node">
<title>Node35</title>
<g id="a_Node000035"><a xlink:href="../../de/d8e/parse__upf_8c.html#a9cd499b9e6871a1825bf152ef3adc5d2" target="_top" xlink:title=" ">
<polygon fill="white" stroke="#666666" points="404.62,-206.25 340.62,-206.25 340.62,-187 404.62,-187 404.62,-206.25"/>
<text xml:space="preserve" text-anchor="middle" x="372.62" y="-192.75" font-family="Helvetica,sans-Serif" font-size="10.00">parse_upf2</text>
</a>
</g>
</g>
<!-- Node32&#45;&gt;Node35 -->
<g id="edge38_Node000032_Node000035" class="edge">
<title>Node32&#45;&gt;Node35</title>
<g id="a_edge38_Node000032_Node000035"><a xlink:title=" ">
<path fill="none" stroke="#63b8ff" d="M252.61,-226.4C274.48,-220.93 304.85,-213.33 329.44,-207.18"/>
<polygon fill="#63b8ff" stroke="#63b8ff" points="329.96,-210.66 338.81,-204.84 328.26,-203.87 329.96,-210.66"/>
</a>
</g>
</g>
<!-- Node34 -->
<g id="Node000034" class="node">
<title>Node34</title>
<g id="a_Node000034"><a xlink:href="../../d5/d6c/string__func_8c.html#ae5bc26e2f495a460dc6fdf16717b1a4f" target="_top" xlink:title=" ">
<polygon fill="white" stroke="#666666" points="574,-230.88 467.25,-230.88 467.25,-200.38 574,-200.38 574,-230.88"/>
<text xml:space="preserve" text-anchor="start" x="475.25" y="-217.38" font-family="Helvetica,sans-Serif" font-size="10.00">parser_doubles_from</text>
<text xml:space="preserve" text-anchor="middle" x="520.62" y="-206.12" font-family="Helvetica,sans-Serif" font-size="10.00">_string</text>
</a>
</g>
</g>
<!-- Node33&#45;&gt;Node34 -->
<g id="edge37_Node000033_Node000034" class="edge">
<title>Node33&#45;&gt;Node34</title>
<g id="a_edge37_Node000033_Node000034"><a xlink:title=" ">
<path fill="none" stroke="#63b8ff" d="M404.95,-229.76C419.72,-227.94 437.93,-225.7 455.44,-223.54"/>
<polygon fill="#63b8ff" stroke="#63b8ff" points="455.81,-227.02 465.31,-222.32 454.96,-220.07 455.81,-227.02"/>
</a>
</g>
</g>
<!-- Node35&#45;&gt;Node34 -->
<g id="edge39_Node000035_Node000034" class="edge">
<title>Node35&#45;&gt;Node34</title>
<g id="a_edge39_Node000035_Node000034"><a xlink:title=" ">
<path fill="none" stroke="#63b8ff" d="M404.95,-200.7C419.72,-202.62 437.93,-204.99 455.44,-207.27"/>
<polygon fill="#63b8ff" stroke="#63b8ff" points="454.94,-210.74 465.31,-208.56 455.85,-203.8 454.94,-210.74"/>
</a>
</g>
</g>
<!-- Node37&#45;&gt;Node20 -->
<g id="edge43_Node000037_Node000020" class="edge">
<title>Node37&#45;&gt;Node20</title>
<g id="a_edge43_Node000037_Node000020"><a xlink:title=" ">
<path fill="none" stroke="#63b8ff" d="M265.33,-382.19C288.4,-382.5 316.7,-382.88 338.29,-383.17"/>
<polygon fill="#63b8ff" stroke="#63b8ff" points="337.97,-386.67 348.01,-383.31 338.06,-379.67 337.97,-386.67"/>
</a>
</g>
</g>
</g>
</svg>

<g id="navigator" transform="translate(0 0)" fill="#404254">
  <rect fill="#f2f5e9" fill-opacity="0.5" stroke="#606060" stroke-width=".5" x="0" y="0" width="60" height="60"/>
  <use id="zoomplus" xlink:href="#zoomPlus" x="17" y="9" onmousedown="handleZoom(evt,'in')"/>
  <use id="zoomminus" xlink:href="#zoomMin" x="42" y="9" onmousedown="handleZoom(evt,'out')"/>
  <use id="reset" xlink:href="#resetDef" x="30" y="36" onmousedown="handleReset()"/>
   <use id="arrowup" xlink:href="#arrowUp" x="0" y="0" onmousedown="handlePan(0,-1)"/>
  <use id="arrowright" xlink:href="#arrowRight" x="0" y="0" onmousedown="handlePan(1,0)"/>
  <use id="arrowdown" xlink:href="#arrowDown" x="0" y="0" onmousedown="handlePan(0,1)"/>
  <use id="arrowleft" xlink:href="#arrowLeft" x="0" y="0" onmousedown="handlePan(-1,0)"/>
</g>
<svg viewBox="0 0 15 15" width="100%" height="30px" preserveAspectRatio="xMaxYMin meet">
 <g id="arrow_out" transform="scale(0.3 0.3)">
  <a xlink:href="get__save__data_8c_ab497305a989dd1713ba4c2b4d0f95bd0_cgraph_org.svg" target="_base">
   <rect id="button" ry="5" rx="5" y="6" x="6" height="38" width="38"
        fill="#f2f5e9" fill-opacity="0.5" stroke="#606060" stroke-width="1.0"/>
   <path id="arrow"
     d="M 11.500037,31.436501 C 11.940474,20.09759 22.043105,11.32322 32.158766,21.979434 L 37.068811,17.246167 C 37.068811,17.246167 37.088388,32 37.088388,32 L 22.160133,31.978069 C 22.160133,31.978069 26.997745,27.140456 26.997745,27.140456 C 18.528582,18.264221 13.291696,25.230495 11.500037,31.436501 z"
     style="fill:#404040;"/>
  </a>
 </g>
</svg>

<style type='text/css'>
<![CDATA[
[data-mouse-over-selected='false'] { opacity: 0.7; }
[data-mouse-over-selected='true']  { opacity: 1.0; }
]]>
</style>
<script type="application/ecmascript"><![CDATA[
document.addEventListener('DOMContentLoaded', (event) => {
  highlightEdges();
  highlightAdjacentNodes();
});
]]></script>
</svg>
