<?xml version="1.0" encoding="UTF-8" standalone="no"?>
<!DOCTYPE svg PUBLIC "-//W3C//DTD SVG 1.1//EN"
 "http://www.w3.org/Graphics/SVG/1.1/DTD/svg11.dtd">
<!-- Generated by graphviz version 14.0.0 (20250921.2048)
 -->
<!-- Title: src/common/string_func.c Pages: 1 -->
<svg width="443pt" height="138pt"
 viewBox="0.00 0.00 443.00 138.00" xmlns="http://www.w3.org/2000/svg" xmlns:xlink="http://www.w3.org/1999/xlink">
<g id="graph0" class="graph" transform="scale(1 1) rotate(0) translate(4 133.75)">
<title>src/common/string_func.c</title>
<!-- Node1 -->
<g id="Node000001" class="node">
<title>Node1</title>
<g id="a_Node000001"><a xlink:title=" ">
<polygon fill="#999999" stroke="#666666" points="315.5,-129.75 186.25,-129.75 186.25,-110.5 315.5,-110.5 315.5,-129.75"/>
<text xml:space="preserve" text-anchor="middle" x="250.88" y="-116.25" font-family="Helvetica,sans-Serif" font-size="10.00">src/common/string_func.c</text>
</a>
</g>
</g>
<!-- Node2 -->
<g id="Node000002" class="node">
<title>Node2</title>
<g id="a_Node000002"><a xlink:href="../../d3/d10/string__func_8h.html" target="_top" xlink:title=" ">
<polygon fill="white" stroke="#666666" points="137,-74.5 64.75,-74.5 64.75,-55.25 137,-55.25 137,-74.5"/>
<text xml:space="preserve" text-anchor="middle" x="100.88" y="-61" font-family="Helvetica,sans-Serif" font-size="10.00">string_func.h</text>
</a>
</g>
</g>
<!-- Node1&#45;&gt;Node2 -->
<g id="edge1_Node000001_Node000002" class="edge">
<title>Node1&#45;&gt;Node2</title>
<g id="a_edge1_Node000001_Node000002"><a xlink:title=" ">
<path fill="none" stroke="#63b8ff" d="M225.43,-110.09C201.19,-101.49 164.44,-88.44 137.14,-78.75"/>
<polygon fill="#63b8ff" stroke="#63b8ff" points="138.47,-75.51 127.87,-75.46 136.12,-82.1 138.47,-75.51"/>
</a>
</g>
</g>
<!-- Node4 -->
<g id="Node000004" class="node">
<title>Node4</title>
<g id="a_Node000004"><a xlink:title=" ">
<polygon fill="#e0e0e0" stroke="#999999" points="193.5,-19.25 142.25,-19.25 142.25,0 193.5,0 193.5,-19.25"/>
<text xml:space="preserve" text-anchor="middle" x="167.88" y="-5.75" font-family="Helvetica,sans-Serif" font-size="10.00">stddef.h</text>
</a>
</g>
</g>
<!-- Node1&#45;&gt;Node4 -->
<g id="edge6_Node000001_Node000004" class="edge">
<title>Node1&#45;&gt;Node4</title>
<g id="a_edge6_Node000001_Node000004"><a xlink:title=" ">
<path fill="none" stroke="#63b8ff" d="M230.35,-110.14C215.59,-102.65 196.34,-90.62 184.88,-74.5 175.8,-61.74 171.57,-44.45 169.6,-31.07"/>
<polygon fill="#63b8ff" stroke="#63b8ff" points="173.09,-30.77 168.49,-21.22 166.13,-31.55 173.09,-30.77"/>
</a>
</g>
</g>
<!-- Node6 -->
<g id="Node000006" class="node">
<title>Node6</title>
<g id="a_Node000006"><a xlink:title=" ">
<polygon fill="#e0e0e0" stroke="#999999" points="242,-74.5 193.75,-74.5 193.75,-55.25 242,-55.25 242,-74.5"/>
<text xml:space="preserve" text-anchor="middle" x="217.88" y="-61" font-family="Helvetica,sans-Serif" font-size="10.00">ctype.h</text>
</a>
</g>
</g>
<!-- Node1&#45;&gt;Node6 -->
<g id="edge5_Node000001_Node000006" class="edge">
<title>Node1&#45;&gt;Node6</title>
<g id="a_edge5_Node000001_Node000006"><a xlink:title=" ">
<path fill="none" stroke="#63b8ff" d="M245.43,-110.33C241.1,-103.36 234.91,-93.37 229.49,-84.62"/>
<polygon fill="#63b8ff" stroke="#63b8ff" points="232.48,-82.8 224.24,-76.15 226.53,-86.49 232.48,-82.8"/>
</a>
</g>
</g>
<!-- Node7 -->
<g id="Node000007" class="node">
<title>Node7</title>
<g id="a_Node000007"><a xlink:title=" ">
<polygon fill="#e0e0e0" stroke="#999999" points="307.62,-74.5 260.12,-74.5 260.12,-55.25 307.62,-55.25 307.62,-74.5"/>
<text xml:space="preserve" text-anchor="middle" x="283.88" y="-61" font-family="Helvetica,sans-Serif" font-size="10.00">stdlib.h</text>
</a>
</g>
</g>
<!-- Node1&#45;&gt;Node7 -->
<g id="edge7_Node000001_Node000007" class="edge">
<title>Node1&#45;&gt;Node7</title>
<g id="a_edge7_Node000001_Node000007"><a xlink:title=" ">
<path fill="none" stroke="#63b8ff" d="M256.32,-110.33C260.65,-103.36 266.84,-93.37 272.26,-84.62"/>
<polygon fill="#63b8ff" stroke="#63b8ff" points="275.22,-86.49 277.51,-76.15 269.27,-82.8 275.22,-86.49"/>
</a>
</g>
</g>
<!-- Node8 -->
<g id="Node000008" class="node">
<title>Node8</title>
<g id="a_Node000008"><a xlink:title=" ">
<polygon fill="#e0e0e0" stroke="#999999" points="374,-74.5 325.75,-74.5 325.75,-55.25 374,-55.25 374,-74.5"/>
<text xml:space="preserve" text-anchor="middle" x="349.88" y="-61" font-family="Helvetica,sans-Serif" font-size="10.00">string.h</text>
</a>
</g>
</g>
<!-- Node1&#45;&gt;Node8 -->
<g id="edge8_Node000001_Node000008" class="edge">
<title>Node1&#45;&gt;Node8</title>
<g id="a_edge8_Node000001_Node000008"><a xlink:title=" ">
<path fill="none" stroke="#63b8ff" d="M267.67,-110.09C282.89,-101.91 305.57,-89.71 323.26,-80.19"/>
<polygon fill="#63b8ff" stroke="#63b8ff" points="324.52,-83.49 331.67,-75.67 321.2,-77.32 324.52,-83.49"/>
</a>
</g>
</g>
<!-- Node9 -->
<g id="Node000009" class="node">
<title>Node9</title>
<g id="a_Node000009"><a xlink:href="../../da/d41/error_8h.html" target="_top" xlink:title=" ">
<polygon fill="white" stroke="#666666" points="435.38,-74.5 392.38,-74.5 392.38,-55.25 435.38,-55.25 435.38,-74.5"/>
<text xml:space="preserve" text-anchor="middle" x="413.88" y="-61" font-family="Helvetica,sans-Serif" font-size="10.00">error.h</text>
</a>
</g>
</g>
<!-- Node1&#45;&gt;Node9 -->
<g id="edge9_Node000001_Node000009" class="edge">
<title>Node1&#45;&gt;Node9</title>
<g id="a_edge9_Node000001_Node000009"><a xlink:title=" ">
<path fill="none" stroke="#63b8ff" d="M278.53,-110.09C307.04,-100.78 351.46,-86.26 381.57,-76.43"/>
<polygon fill="#63b8ff" stroke="#63b8ff" points="382.49,-79.81 390.91,-73.38 380.32,-73.16 382.49,-79.81"/>
</a>
</g>
</g>
<!-- Node3 -->
<g id="Node000003" class="node">
<title>Node3</title>
<g id="a_Node000003"><a xlink:title=" ">
<polygon fill="#e0e0e0" stroke="#999999" points="55.75,-19.25 0,-19.25 0,0 55.75,0 55.75,-19.25"/>
<text xml:space="preserve" text-anchor="middle" x="27.88" y="-5.75" font-family="Helvetica,sans-Serif" font-size="10.00">stdbool.h</text>
</a>
</g>
</g>
<!-- Node2&#45;&gt;Node3 -->
<g id="edge2_Node000002_Node000003" class="edge">
<title>Node2&#45;&gt;Node3</title>
<g id="a_edge2_Node000002_Node000003"><a xlink:title=" ">
<path fill="none" stroke="#63b8ff" d="M88.49,-54.84C77.73,-46.99 61.9,-35.45 49.12,-26.12"/>
<polygon fill="#63b8ff" stroke="#63b8ff" points="51.44,-23.48 41.3,-20.42 47.31,-29.14 51.44,-23.48"/>
</a>
</g>
</g>
<!-- Node2&#45;&gt;Node4 -->
<g id="edge3_Node000002_Node000004" class="edge">
<title>Node2&#45;&gt;Node4</title>
<g id="a_edge3_Node000002_Node000004"><a xlink:title=" ">
<path fill="none" stroke="#63b8ff" d="M112.24,-54.84C121.92,-47.15 136.07,-35.9 147.68,-26.68"/>
<polygon fill="#63b8ff" stroke="#63b8ff" points="149.84,-29.43 155.49,-20.47 145.49,-23.95 149.84,-29.43"/>
</a>
</g>
</g>
<!-- Node5 -->
<g id="Node000005" class="node">
<title>Node5</title>
<g id="a_Node000005"><a xlink:href="../../d4/d0a/elph_c_8h.html" target="_top" xlink:title="Core type definitions and configuration for LetzElPhC.">
<polygon fill="white" stroke="#666666" points="123.75,-19.25 74,-19.25 74,0 123.75,0 123.75,-19.25"/>
<text xml:space="preserve" text-anchor="middle" x="98.88" y="-5.75" font-family="Helvetica,sans-Serif" font-size="10.00">elphC.h</text>
</a>
</g>
</g>
<!-- Node2&#45;&gt;Node5 -->
<g id="edge4_Node000002_Node000005" class="edge">
<title>Node2&#45;&gt;Node5</title>
<g id="a_edge4_Node000002_Node000005"><a xlink:title=" ">
<path fill="none" stroke="#63b8ff" d="M100.54,-55.08C100.3,-48.49 99.95,-39.21 99.63,-30.82"/>
<polygon fill="#63b8ff" stroke="#63b8ff" points="103.14,-30.98 99.27,-21.12 96.15,-31.25 103.14,-30.98"/>
</a>
</g>
</g>
</g>
</svg>
