<?xml version="1.0" encoding="UTF-8" standalone="no"?>
<!DOCTYPE svg PUBLIC "-//W3C//DTD SVG 1.1//EN"
 "http://www.w3.org/Graphics/SVG/1.1/DTD/svg11.dtd">
<!-- Generated by graphviz version 14.0.0 (20250921.2048)
 -->
<!-- Title: src/io/mpi_bcast.h Pages: 1 -->
<svg width="238pt" height="83pt"
 viewBox="0.00 0.00 238.00 83.00" xmlns="http://www.w3.org/2000/svg" xmlns:xlink="http://www.w3.org/1999/xlink">
<g id="graph0" class="graph" transform="scale(1 1) rotate(0) translate(4 78.5)">
<title>src/io/mpi_bcast.h</title>
<!-- Node1 -->
<g id="Node000001" class="node">
<title>Node1</title>
<g id="a_Node000001"><a xlink:title=" ">
<polygon fill="#999999" stroke="#666666" points="167.62,-74.5 71.38,-74.5 71.38,-55.25 167.62,-55.25 167.62,-74.5"/>
<text xml:space="preserve" text-anchor="middle" x="119.5" y="-61" font-family="Helvetica,sans-Serif" font-size="10.00">src/io/mpi_bcast.h</text>
</a>
</g>
</g>
<!-- Node2 -->
<g id="Node000002" class="node">
<title>Node2</title>
<g id="a_Node000002"><a xlink:href="../../da/d77/get__save__data_8c.html" target="_top" xlink:title=" ">
<polygon fill="white" stroke="#666666" points="115,-19.25 0,-19.25 0,0 115,0 115,-19.25"/>
<text xml:space="preserve" text-anchor="middle" x="57.5" y="-5.75" font-family="Helvetica,sans-Serif" font-size="10.00">src/io/get_save_data.c</text>
</a>
</g>
</g>
<!-- Node1&#45;&gt;Node2 -->
<g id="edge1_Node000001_Node000002" class="edge">
<title>Node1&#45;&gt;Node2</title>
<g id="a_edge1_Node000001_Node000002"><a xlink:title=" ">
<path fill="none" stroke="#63b8ff" d="M100.3,-47.39C89.6,-38.19 76.69,-27.1 67.86,-19.52"/>
<polygon fill="#63b8ff" stroke="#63b8ff" points="97.97,-50 107.83,-53.86 102.53,-44.69 97.97,-50"/>
</a>
</g>
</g>
<!-- Node3 -->
<g id="Node000003" class="node">
<title>Node3</title>
<g id="a_Node000003"><a xlink:href="../../d7/df8/mpi__bcast_8c.html" target="_top" xlink:title=" ">
<polygon fill="white" stroke="#666666" points="229.62,-19.25 133.38,-19.25 133.38,0 229.62,0 229.62,-19.25"/>
<text xml:space="preserve" text-anchor="middle" x="181.5" y="-5.75" font-family="Helvetica,sans-Serif" font-size="10.00">src/io/mpi_bcast.c</text>
</a>
</g>
</g>
<!-- Node1&#45;&gt;Node3 -->
<g id="edge2_Node000001_Node000003" class="edge">
<title>Node1&#45;&gt;Node3</title>
<g id="a_edge2_Node000001_Node000003"><a xlink:title=" ">
<path fill="none" stroke="#63b8ff" d="M138.7,-47.39C149.4,-38.19 162.31,-27.1 171.14,-19.52"/>
<polygon fill="#63b8ff" stroke="#63b8ff" points="136.47,-44.69 131.17,-53.86 141.03,-50 136.47,-44.69"/>
</a>
</g>
</g>
</g>
</svg>
