<?xml version="1.0" encoding="UTF-8" standalone="no"?>
<!DOCTYPE svg PUBLIC "-//W3C//DTD SVG 1.1//EN"
 "http://www.w3.org/Graphics/SVG/1.1/DTD/svg11.dtd">
<!-- Generated by graphviz version 14.0.0 (20250921.2048)
 -->
<!-- Title: src/io/io.h Pages: 1 -->
<svg width="391pt" height="138pt"
 viewBox="0.00 0.00 391.00 138.00" xmlns="http://www.w3.org/2000/svg" xmlns:xlink="http://www.w3.org/1999/xlink">

<svg id="main" version="1.1" xmlns="http://www.w3.org/2000/svg" xmlns:xlink="http://www.w3.org/1999/xlink" xml:space="preserve">

<style type="text/css"><![CDATA[
.node, .edge {opacity: 0.7;}
.node.selected, .edge.selected {opacity: 1;}
.edge:hover path { stroke: red; }
.edge:hover polygon { stroke: red; fill: red; }
]]></style>
<script type="application/ecmascript" xlink:href="../../svg.min.js"/>
<svg id="graph" class="graph">
<g id="graph0" class="graph" transform="scale(1 1) rotate(0) translate(4 133.75)">
<title>src/io/io.h</title>
<!-- Node1 -->
<g id="Node000001" class="node">
<title>Node1</title>
<g id="a_Node000001"><a xlink:title=" ">
<polygon fill="#999999" stroke="#666666" points="185.75,-129.75 127,-129.75 127,-110.5 185.75,-110.5 185.75,-129.75"/>
<text xml:space="preserve" text-anchor="middle" x="156.38" y="-116.25" font-family="Helvetica,sans-Serif" font-size="10.00">src/io/io.h</text>
</a>
</g>
</g>
<!-- Node2 -->
<g id="Node000002" class="node">
<title>Node2</title>
<g id="a_Node000002"><a xlink:title=" ">
<polygon fill="#e0e0e0" stroke="#999999" points="92.38,-19.25 52.38,-19.25 52.38,0 92.38,0 92.38,-19.25"/>
<text xml:space="preserve" text-anchor="middle" x="72.38" y="-5.75" font-family="Helvetica,sans-Serif" font-size="10.00">mpi.h</text>
</a>
</g>
</g>
<!-- Node1&#45;&gt;Node2 -->
<g id="edge1_Node000001_Node000002" class="edge">
<title>Node1&#45;&gt;Node2</title>
<g id="a_edge1_Node000001_Node000002"><a xlink:title=" ">
<path fill="none" stroke="#63b8ff" d="M126.73,-114.68C86.8,-108.01 19.04,-94.09 4.38,-74.5 -10.66,-54.42 17.39,-35.26 41.89,-23.25"/>
<polygon fill="#63b8ff" stroke="#63b8ff" points="43.05,-26.57 50.66,-19.2 40.12,-20.21 43.05,-26.57"/>
</a>
</g>
</g>
<!-- Node3 -->
<g id="Node000003" class="node">
<title>Node3</title>
<g id="a_Node000003"><a xlink:title=" ">
<polygon fill="#e0e0e0" stroke="#999999" points="65,-74.5 13.75,-74.5 13.75,-55.25 65,-55.25 65,-74.5"/>
<text xml:space="preserve" text-anchor="middle" x="39.38" y="-61" font-family="Helvetica,sans-Serif" font-size="10.00">netcdf.h</text>
</a>
</g>
</g>
<!-- Node1&#45;&gt;Node3 -->
<g id="edge2_Node000001_Node000003" class="edge">
<title>Node1&#45;&gt;Node3</title>
<g id="a_edge2_Node000001_Node000003"><a xlink:title=" ">
<path fill="none" stroke="#63b8ff" d="M136.53,-110.09C118.21,-101.75 90.73,-89.25 69.67,-79.66"/>
<polygon fill="#63b8ff" stroke="#63b8ff" points="71.25,-76.54 60.7,-75.58 68.35,-82.91 71.25,-76.54"/>
</a>
</g>
</g>
<!-- Node4 -->
<g id="Node000004" class="node">
<title>Node4</title>
<g id="a_Node000004"><a xlink:title=" ">
<polygon fill="#e0e0e0" stroke="#999999" points="152,-74.5 82.75,-74.5 82.75,-55.25 152,-55.25 152,-74.5"/>
<text xml:space="preserve" text-anchor="middle" x="117.38" y="-61" font-family="Helvetica,sans-Serif" font-size="10.00">netcdf_par.h</text>
</a>
</g>
</g>
<!-- Node1&#45;&gt;Node4 -->
<g id="edge3_Node000001_Node000004" class="edge">
<title>Node1&#45;&gt;Node4</title>
<g id="a_edge3_Node000001_Node000004"><a xlink:title=" ">
<path fill="none" stroke="#63b8ff" d="M149.94,-110.33C144.72,-103.21 137.19,-92.93 130.68,-84.05"/>
<polygon fill="#63b8ff" stroke="#63b8ff" points="133.58,-82.08 124.85,-76.08 127.93,-86.22 133.58,-82.08"/>
</a>
</g>
</g>
<!-- Node5 -->
<g id="Node000005" class="node">
<title>Node5</title>
<g id="a_Node000005"><a xlink:title=" ">
<polygon fill="#e0e0e0" stroke="#999999" points="221,-74.5 169.75,-74.5 169.75,-55.25 221,-55.25 221,-74.5"/>
<text xml:space="preserve" text-anchor="middle" x="195.38" y="-61" font-family="Helvetica,sans-Serif" font-size="10.00">stddef.h</text>
</a>
</g>
</g>
<!-- Node1&#45;&gt;Node5 -->
<g id="edge4_Node000001_Node000005" class="edge">
<title>Node1&#45;&gt;Node5</title>
<g id="a_edge4_Node000001_Node000005"><a xlink:title=" ">
<path fill="none" stroke="#63b8ff" d="M162.82,-110.33C168.03,-103.21 175.56,-92.93 182.07,-84.05"/>
<polygon fill="#63b8ff" stroke="#63b8ff" points="184.82,-86.22 187.9,-76.08 179.17,-82.08 184.82,-86.22"/>
</a>
</g>
</g>
<!-- Node6 -->
<g id="Node000006" class="node">
<title>Node6</title>
<g id="a_Node000006"><a xlink:href="../../d2/d02/dtypes_8h.html" target="_top" xlink:title=" ">
<polygon fill="white" stroke="#666666" points="333.38,-74.5 239.38,-74.5 239.38,-55.25 333.38,-55.25 333.38,-74.5"/>
<text xml:space="preserve" text-anchor="middle" x="286.38" y="-61" font-family="Helvetica,sans-Serif" font-size="10.00">common/dtypes.h</text>
</a>
</g>
</g>
<!-- Node1&#45;&gt;Node6 -->
<g id="edge5_Node000001_Node000006" class="edge">
<title>Node1&#45;&gt;Node6</title>
<g id="a_edge5_Node000001_Node000006"><a xlink:title=" ">
<path fill="none" stroke="#63b8ff" d="M178.43,-110.09C199.07,-101.64 230.16,-88.9 253.68,-79.27"/>
<polygon fill="#63b8ff" stroke="#63b8ff" points="254.89,-82.56 262.81,-75.53 252.23,-76.08 254.89,-82.56"/>
</a>
</g>
</g>
<!-- Node8 -->
<g id="Node000008" class="node">
<title>Node8</title>
<g id="a_Node000008"><a xlink:href="../../d4/d0a/elph_c_8h.html" target="_top" xlink:title="Core type definitions and configuration for LetzElPhC.">
<polygon fill="white" stroke="#666666" points="383.25,-19.25 333.5,-19.25 333.5,0 383.25,0 383.25,-19.25"/>
<text xml:space="preserve" text-anchor="middle" x="358.38" y="-5.75" font-family="Helvetica,sans-Serif" font-size="10.00">elphC.h</text>
</a>
</g>
</g>
<!-- Node1&#45;&gt;Node8 -->
<g id="edge10_Node000001_Node000008" class="edge">
<title>Node1&#45;&gt;Node8</title>
<g id="a_edge10_Node000001_Node000008"><a xlink:title=" ">
<path fill="none" stroke="#63b8ff" d="M185.94,-115.77C232.66,-109.87 320.49,-96.17 342.38,-74.5 353.82,-63.17 357.51,-44.97 358.52,-30.89"/>
<polygon fill="#63b8ff" stroke="#63b8ff" points="362.02,-31.03 358.8,-20.94 355.02,-30.84 362.02,-31.03"/>
</a>
</g>
</g>
<!-- Node6&#45;&gt;Node2 -->
<g id="edge6_Node000006_Node000002" class="edge">
<title>Node6&#45;&gt;Node2</title>
<g id="a_edge6_Node000006_Node000002"><a xlink:title=" ">
<path fill="none" stroke="#63b8ff" d="M250.07,-54.84C209.01,-44.62 142.79,-28.15 103.84,-18.45"/>
<polygon fill="#63b8ff" stroke="#63b8ff" points="104.7,-15.06 94.15,-16.04 103.01,-21.85 104.7,-15.06"/>
</a>
</g>
</g>
<!-- Node7 -->
<g id="Node000007" class="node">
<title>Node7</title>
<g id="a_Node000007"><a xlink:title=" ">
<polygon fill="#e0e0e0" stroke="#999999" points="250.25,-19.25 194.5,-19.25 194.5,0 250.25,0 250.25,-19.25"/>
<text xml:space="preserve" text-anchor="middle" x="222.38" y="-5.75" font-family="Helvetica,sans-Serif" font-size="10.00">stdbool.h</text>
</a>
</g>
</g>
<!-- Node6&#45;&gt;Node7 -->
<g id="edge7_Node000006_Node000007" class="edge">
<title>Node6&#45;&gt;Node7</title>
<g id="a_edge7_Node000006_Node000007"><a xlink:title=" ">
<path fill="none" stroke="#63b8ff" d="M275.52,-54.84C266.27,-47.15 252.75,-35.9 241.67,-26.68"/>
<polygon fill="#63b8ff" stroke="#63b8ff" points="244.16,-24.2 234.24,-20.49 239.68,-29.58 244.16,-24.2"/>
</a>
</g>
</g>
<!-- Node6&#45;&gt;Node8 -->
<g id="edge8_Node000006_Node000008" class="edge">
<title>Node6&#45;&gt;Node8</title>
<g id="a_edge8_Node000006_Node000008"><a xlink:title=" ">
<path fill="none" stroke="#63b8ff" d="M298.59,-54.84C309.2,-46.99 324.81,-35.45 337.42,-26.12"/>
<polygon fill="#63b8ff" stroke="#63b8ff" points="339.17,-29.19 345.13,-20.42 335,-23.56 339.17,-29.19"/>
</a>
</g>
</g>
<!-- Node9 -->
<g id="Node000009" class="node">
<title>Node9</title>
<g id="a_Node000009"><a xlink:href="../../da/d41/error_8h.html" target="_top" xlink:title=" ">
<polygon fill="white" stroke="#666666" points="310.88,-19.25 267.88,-19.25 267.88,0 310.88,0 310.88,-19.25"/>
<text xml:space="preserve" text-anchor="middle" x="289.38" y="-5.75" font-family="Helvetica,sans-Serif" font-size="10.00">error.h</text>
</a>
</g>
</g>
<!-- Node6&#45;&gt;Node9 -->
<g id="edge9_Node000006_Node000009" class="edge">
<title>Node6&#45;&gt;Node9</title>
<g id="a_edge9_Node000006_Node000009"><a xlink:title=" ">
<path fill="none" stroke="#63b8ff" d="M286.87,-55.08C287.24,-48.49 287.77,-39.21 288.24,-30.82"/>
<polygon fill="#63b8ff" stroke="#63b8ff" points="291.72,-31.3 288.78,-21.12 284.73,-30.91 291.72,-31.3"/>
</a>
</g>
</g>
</g>
</svg>
</svg>

<style type='text/css'>
<![CDATA[
[data-mouse-over-selected='false'] { opacity: 0.7; }
[data-mouse-over-selected='true']  { opacity: 1.0; }
]]>
</style>
<script type="application/ecmascript"><![CDATA[
document.addEventListener('DOMContentLoaded', (event) => {
  highlightEdges();
  highlightAdjacentNodes();
});
]]></script>
</svg>
