<?xml version="1.0" encoding="UTF-8" standalone="no"?>
<!DOCTYPE svg PUBLIC "-//W3C//DTD SVG 1.1//EN"
 "http://www.w3.org/Graphics/SVG/1.1/DTD/svg11.dtd">
<!-- Generated by graphviz version 14.0.0 (20250921.2048)
 -->
<!-- Title: src/dvloc/compute_Vbare_loc.c Pages: 1 -->
<svg width="957pt" height="204pt"
 viewBox="0.00 0.00 957.00 204.00" xmlns="http://www.w3.org/2000/svg" xmlns:xlink="http://www.w3.org/1999/xlink">
<g id="graph0" class="graph" transform="scale(1 1) rotate(0) translate(4 200.25)">
<title>src/dvloc/compute_Vbare_loc.c</title>
<!-- Node1 -->
<g id="Node000001" class="node">
<title>Node1</title>
<g id="a_Node000001"><a xlink:title=" ">
<polygon fill="#999999" stroke="#666666" points="522.86,-196.25 395.86,-196.25 395.86,-165.75 522.86,-165.75 522.86,-196.25"/>
<text xml:space="preserve" text-anchor="start" x="403.86" y="-182.75" font-family="Helvetica,sans-Serif" font-size="10.00">src/dvloc/compute_Vbare</text>
<text xml:space="preserve" text-anchor="middle" x="459.36" y="-171.5" font-family="Helvetica,sans-Serif" font-size="10.00">_loc.c</text>
</a>
</g>
</g>
<!-- Node2 -->
<g id="Node000002" class="node">
<title>Node2</title>
<g id="a_Node000002"><a xlink:title=" ">
<polygon fill="#e0e0e0" stroke="#999999" points="704.24,-19.25 648.49,-19.25 648.49,0 704.24,0 704.24,-19.25"/>
<text xml:space="preserve" text-anchor="middle" x="676.36" y="-5.75" font-family="Helvetica,sans-Serif" font-size="10.00">stdbool.h</text>
</a>
</g>
</g>
<!-- Node1&#45;&gt;Node2 -->
<g id="edge1_Node000001_Node000002" class="edge">
<title>Node1&#45;&gt;Node2</title>
<g id="a_edge1_Node000001_Node000002"><a xlink:title=" ">
<path fill="none" stroke="#63b8ff" d="M523.03,-169.83C613.3,-153.96 771.22,-120.29 804.36,-74.5 829.6,-39.63 762,-22.7 715.69,-15.4"/>
<polygon fill="#63b8ff" stroke="#63b8ff" points="716.35,-11.96 705.95,-13.97 715.33,-18.88 716.35,-11.96"/>
</a>
</g>
</g>
<!-- Node3 -->
<g id="Node000003" class="node">
<title>Node3</title>
<g id="a_Node000003"><a xlink:title=" ">
<polygon fill="#e0e0e0" stroke="#999999" points="68.11,-129.75 20.61,-129.75 20.61,-110.5 68.11,-110.5 68.11,-129.75"/>
<text xml:space="preserve" text-anchor="middle" x="44.36" y="-116.25" font-family="Helvetica,sans-Serif" font-size="10.00">stdlib.h</text>
</a>
</g>
</g>
<!-- Node1&#45;&gt;Node3 -->
<g id="edge2_Node000001_Node000003" class="edge">
<title>Node1&#45;&gt;Node3</title>
<g id="a_edge2_Node000001_Node000003"><a xlink:title=" ">
<path fill="none" stroke="#63b8ff" d="M395.57,-174.25C321.59,-166.99 195.84,-152.87 79.61,-130.19"/>
<polygon fill="#63b8ff" stroke="#63b8ff" points="80.37,-126.77 69.88,-128.26 79.01,-133.64 80.37,-126.77"/>
</a>
</g>
</g>
<!-- Node4 -->
<g id="Node000004" class="node">
<title>Node4</title>
<g id="a_Node000004"><a xlink:href="../../de/d83/_e_l_p_h__timers_8h.html" target="_top" xlink:title=" ">
<polygon fill="white" stroke="#666666" points="208.99,-129.75 85.74,-129.75 85.74,-110.5 208.99,-110.5 208.99,-129.75"/>
<text xml:space="preserve" text-anchor="middle" x="147.36" y="-116.25" font-family="Helvetica,sans-Serif" font-size="10.00">common/ELPH_timers.h</text>
</a>
</g>
</g>
<!-- Node1&#45;&gt;Node4 -->
<g id="edge3_Node000001_Node000004" class="edge">
<title>Node1&#45;&gt;Node4</title>
<g id="a_edge3_Node000001_Node000004"><a xlink:title=" ">
<path fill="none" stroke="#63b8ff" d="M395.47,-167.94C340.04,-157.48 260.45,-142.47 206.47,-132.28"/>
<polygon fill="#63b8ff" stroke="#63b8ff" points="207.33,-128.88 196.85,-130.46 206.03,-135.76 207.33,-128.88"/>
</a>
</g>
</g>
<!-- Node5 -->
<g id="Node000005" class="node">
<title>Node5</title>
<g id="a_Node000005"><a xlink:href="../../d2/d6f/constants_8h.html" target="_top" xlink:title=" ">
<polygon fill="white" stroke="#666666" points="298.11,-74.5 190.61,-74.5 190.61,-55.25 298.11,-55.25 298.11,-74.5"/>
<text xml:space="preserve" text-anchor="middle" x="244.36" y="-61" font-family="Helvetica,sans-Serif" font-size="10.00">common/constants.h</text>
</a>
</g>
</g>
<!-- Node1&#45;&gt;Node5 -->
<g id="edge4_Node000001_Node000005" class="edge">
<title>Node1&#45;&gt;Node5</title>
<g id="a_edge4_Node000001_Node000005"><a xlink:title=" ">
<path fill="none" stroke="#63b8ff" d="M395.45,-171.79C343.32,-163.76 275.31,-149.81 256.36,-129.75 245.44,-118.19 242.91,-100.01 242.84,-86"/>
<polygon fill="#63b8ff" stroke="#63b8ff" points="246.33,-86.25 243.23,-76.12 239.33,-85.97 246.33,-86.25"/>
</a>
</g>
</g>
<!-- Node6 -->
<g id="Node000006" class="node">
<title>Node6</title>
<g id="a_Node000006"><a xlink:href="../../d4/d0a/elph_c_8h.html" target="_top" xlink:title="Core type definitions and configuration for LetzElPhC.">
<polygon fill="white" stroke="#666666" points="472.24,-19.25 422.49,-19.25 422.49,0 472.24,0 472.24,-19.25"/>
<text xml:space="preserve" text-anchor="middle" x="447.36" y="-5.75" font-family="Helvetica,sans-Serif" font-size="10.00">elphC.h</text>
</a>
</g>
</g>
<!-- Node1&#45;&gt;Node6 -->
<g id="edge21_Node000001_Node000006" class="edge">
<title>Node1&#45;&gt;Node6</title>
<g id="a_edge21_Node000001_Node000006"><a xlink:title=" ">
<path fill="none" stroke="#63b8ff" d="M452.46,-165.4C443.43,-145.41 428.09,-108.18 422.36,-74.5 420.92,-66.07 420.2,-63.53 422.36,-55.25 424.77,-46.03 429.54,-36.71 434.28,-28.98"/>
<polygon fill="#63b8ff" stroke="#63b8ff" points="437.06,-31.13 439.66,-20.86 431.22,-27.26 437.06,-31.13"/>
</a>
</g>
</g>
<!-- Node7 -->
<g id="Node000007" class="node">
<title>Node7</title>
<g id="a_Node000007"><a xlink:href="../../d2/d02/dtypes_8h.html" target="_top" xlink:title=" ">
<polygon fill="white" stroke="#666666" points="532.36,-74.5 438.36,-74.5 438.36,-55.25 532.36,-55.25 532.36,-74.5"/>
<text xml:space="preserve" text-anchor="middle" x="485.36" y="-61" font-family="Helvetica,sans-Serif" font-size="10.00">common/dtypes.h</text>
</a>
</g>
</g>
<!-- Node1&#45;&gt;Node7 -->
<g id="edge6_Node000001_Node000007" class="edge">
<title>Node1&#45;&gt;Node7</title>
<g id="a_edge6_Node000001_Node000007"><a xlink:title=" ">
<path fill="none" stroke="#63b8ff" d="M485.28,-165.36C497.76,-156.76 511.48,-144.65 518.36,-129.75 525.77,-113.7 514.88,-95.86 503.67,-83.12"/>
<polygon fill="#63b8ff" stroke="#63b8ff" points="506.22,-80.72 496.76,-75.94 501.17,-85.57 506.22,-80.72"/>
</a>
</g>
</g>
<!-- Node9 -->
<g id="Node000009" class="node">
<title>Node9</title>
<g id="a_Node000009"><a xlink:href="../../da/d41/error_8h.html" target="_top" xlink:title=" ">
<polygon fill="white" stroke="#666666" points="227.86,-19.25 184.86,-19.25 184.86,0 227.86,0 227.86,-19.25"/>
<text xml:space="preserve" text-anchor="middle" x="206.36" y="-5.75" font-family="Helvetica,sans-Serif" font-size="10.00">error.h</text>
</a>
</g>
</g>
<!-- Node1&#45;&gt;Node9 -->
<g id="edge11_Node000001_Node000009" class="edge">
<title>Node1&#45;&gt;Node9</title>
<g id="a_edge11_Node000001_Node000009"><a xlink:title=" ">
<path fill="none" stroke="#63b8ff" d="M395.43,-177.46C277.75,-172.13 36.5,-157.86 11.36,-129.75 -41.26,-70.9 105.74,-31.56 173.83,-16.96"/>
<polygon fill="#63b8ff" stroke="#63b8ff" points="174.24,-20.45 183.31,-14.99 172.81,-13.6 174.24,-20.45"/>
</a>
</g>
</g>
<!-- Node10 -->
<g id="Node000010" class="node">
<title>Node10</title>
<g id="a_Node000010"><a xlink:href="../../df/def/numerical__func_8h.html" target="_top" xlink:title=" ">
<polygon fill="white" stroke="#666666" points="718.74,-74.5 587.99,-74.5 587.99,-55.25 718.74,-55.25 718.74,-74.5"/>
<text xml:space="preserve" text-anchor="middle" x="653.36" y="-61" font-family="Helvetica,sans-Serif" font-size="10.00">common/numerical_func.h</text>
</a>
</g>
</g>
<!-- Node1&#45;&gt;Node10 -->
<g id="edge12_Node000001_Node000010" class="edge">
<title>Node1&#45;&gt;Node10</title>
<g id="a_edge12_Node000001_Node000010"><a xlink:title=" ">
<path fill="none" stroke="#63b8ff" d="M484.32,-165.31C521.55,-143.41 591.22,-102.43 628.43,-80.54"/>
<polygon fill="#63b8ff" stroke="#63b8ff" points="629.86,-83.76 636.7,-75.67 626.31,-77.73 629.86,-83.76"/>
</a>
</g>
</g>
<!-- Node11 -->
<g id="Node000011" class="node">
<title>Node11</title>
<g id="a_Node000011"><a xlink:href="../../d2/d8d/omp__pragma__def_8h.html" target="_top" xlink:title=" ">
<polygon fill="white" stroke="#666666" points="405.24,-129.75 265.49,-129.75 265.49,-110.5 405.24,-110.5 405.24,-129.75"/>
<text xml:space="preserve" text-anchor="middle" x="335.36" y="-116.25" font-family="Helvetica,sans-Serif" font-size="10.00">common/omp_pragma_def.h</text>
</a>
</g>
</g>
<!-- Node1&#45;&gt;Node11 -->
<g id="edge15_Node000001_Node000011" class="edge">
<title>Node1&#45;&gt;Node11</title>
<g id="a_edge15_Node000001_Node000011"><a xlink:title=" ">
<path fill="none" stroke="#63b8ff" d="M428.39,-165.3C408.87,-156.03 383.82,-144.13 364.63,-135.02"/>
<polygon fill="#63b8ff" stroke="#63b8ff" points="366.28,-131.93 355.74,-130.8 363.28,-138.25 366.28,-131.93"/>
</a>
</g>
</g>
<!-- Node12 -->
<g id="Node000012" class="node">
<title>Node12</title>
<g id="a_Node000012"><a xlink:href="../../d8/dc9/dvloc_8h.html" target="_top" xlink:title=" ">
<polygon fill="white" stroke="#666666" points="509.11,-129.75 461.61,-129.75 461.61,-110.5 509.11,-110.5 509.11,-129.75"/>
<text xml:space="preserve" text-anchor="middle" x="485.36" y="-116.25" font-family="Helvetica,sans-Serif" font-size="10.00">dvloc.h</text>
</a>
</g>
</g>
<!-- Node1&#45;&gt;Node12 -->
<g id="edge17_Node000001_Node000012" class="edge">
<title>Node1&#45;&gt;Node12</title>
<g id="a_edge17_Node000001_Node000012"><a xlink:title=" ">
<path fill="none" stroke="#63b8ff" d="M465.79,-165.45C469.1,-157.95 473.18,-148.7 476.76,-140.6"/>
<polygon fill="#63b8ff" stroke="#63b8ff" points="479.9,-142.15 480.74,-131.59 473.5,-139.32 479.9,-142.15"/>
</a>
</g>
</g>
<!-- Node13 -->
<g id="Node000013" class="node">
<title>Node13</title>
<g id="a_Node000013"><a xlink:href="../../d7/d76/fft_8h.html" target="_top" xlink:title=" ">
<polygon fill="white" stroke="#666666" points="896.99,-74.5 851.74,-74.5 851.74,-55.25 896.99,-55.25 896.99,-74.5"/>
<text xml:space="preserve" text-anchor="middle" x="874.36" y="-61" font-family="Helvetica,sans-Serif" font-size="10.00">fft/fft.h</text>
</a>
</g>
</g>
<!-- Node1&#45;&gt;Node13 -->
<g id="edge22_Node000001_Node000013" class="edge">
<title>Node1&#45;&gt;Node13</title>
<g id="a_edge22_Node000001_Node000013"><a xlink:title=" ">
<path fill="none" stroke="#63b8ff" d="M523.3,-178.22C617.35,-174.5 787.27,-163.22 837.36,-129.75 853,-119.3 862.87,-99.84 868.44,-85.13"/>
<polygon fill="#63b8ff" stroke="#63b8ff" points="871.62,-86.65 871.53,-76.05 865,-84.39 871.62,-86.65"/>
</a>
</g>
</g>
<!-- Node16 -->
<g id="Node000016" class="node">
<title>Node16</title>
<g id="a_Node000016"><a xlink:href="../../d1/dea/wfc_8h.html" target="_top" xlink:title=" ">
<polygon fill="white" stroke="#666666" points="795.74,-74.5 736.99,-74.5 736.99,-55.25 795.74,-55.25 795.74,-74.5"/>
<text xml:space="preserve" text-anchor="middle" x="766.36" y="-61" font-family="Helvetica,sans-Serif" font-size="10.00">wfc/wfc.h</text>
</a>
</g>
</g>
<!-- Node1&#45;&gt;Node16 -->
<g id="edge28_Node000001_Node000016" class="edge">
<title>Node1&#45;&gt;Node16</title>
<g id="a_edge28_Node000001_Node000016"><a xlink:title=" ">
<path fill="none" stroke="#63b8ff" d="M498.87,-165.31C559.29,-142.85 673.71,-100.32 731.33,-78.9"/>
<polygon fill="#63b8ff" stroke="#63b8ff" points="732.5,-82.2 740.65,-75.43 730.06,-75.64 732.5,-82.2"/>
</a>
</g>
</g>
<!-- Node5&#45;&gt;Node6 -->
<g id="edge5_Node000005_Node000006" class="edge">
<title>Node5&#45;&gt;Node6</title>
<g id="a_edge5_Node000005_Node000006"><a xlink:title=" ">
<path fill="none" stroke="#63b8ff" d="M278.8,-54.84C315.6,-45.19 373.69,-29.95 411.16,-20.12"/>
<polygon fill="#63b8ff" stroke="#63b8ff" points="411.83,-23.56 420.61,-17.64 410.05,-16.79 411.83,-23.56"/>
</a>
</g>
</g>
<!-- Node7&#45;&gt;Node2 -->
<g id="edge8_Node000007_Node000002" class="edge">
<title>Node7&#45;&gt;Node2</title>
<g id="a_edge8_Node000007_Node000002"><a xlink:title=" ">
<path fill="none" stroke="#63b8ff" d="M517.76,-54.84C550.8,-45.63 602.07,-31.34 637.32,-21.51"/>
<polygon fill="#63b8ff" stroke="#63b8ff" points="638.01,-24.95 646.71,-18.89 636.13,-18.21 638.01,-24.95"/>
</a>
</g>
</g>
<!-- Node7&#45;&gt;Node6 -->
<g id="edge9_Node000007_Node000006" class="edge">
<title>Node7&#45;&gt;Node6</title>
<g id="a_edge9_Node000007_Node000006"><a xlink:title=" ">
<path fill="none" stroke="#63b8ff" d="M479.09,-55.08C474,-47.96 466.66,-37.68 460.33,-28.8"/>
<polygon fill="#63b8ff" stroke="#63b8ff" points="463.31,-26.95 454.65,-20.84 457.61,-31.01 463.31,-26.95"/>
</a>
</g>
</g>
<!-- Node8 -->
<g id="Node000008" class="node">
<title>Node8</title>
<g id="a_Node000008"><a xlink:title=" ">
<polygon fill="#e0e0e0" stroke="#999999" points="786.36,-19.25 746.36,-19.25 746.36,0 786.36,0 786.36,-19.25"/>
<text xml:space="preserve" text-anchor="middle" x="766.36" y="-5.75" font-family="Helvetica,sans-Serif" font-size="10.00">mpi.h</text>
</a>
</g>
</g>
<!-- Node7&#45;&gt;Node8 -->
<g id="edge7_Node000007_Node000008" class="edge">
<title>Node7&#45;&gt;Node8</title>
<g id="a_edge7_Node000007_Node000008"><a xlink:title=" ">
<path fill="none" stroke="#63b8ff" d="M532.71,-54.9C590.22,-44 685.63,-25.92 734.84,-16.6"/>
<polygon fill="#63b8ff" stroke="#63b8ff" points="735.37,-20.06 744.54,-14.76 734.06,-13.18 735.37,-20.06"/>
</a>
</g>
</g>
<!-- Node7&#45;&gt;Node9 -->
<g id="edge10_Node000007_Node000009" class="edge">
<title>Node7&#45;&gt;Node9</title>
<g id="a_edge10_Node000007_Node000009"><a xlink:title=" ">
<path fill="none" stroke="#63b8ff" d="M438.03,-54.84C381.59,-44.07 288.7,-26.34 239.44,-16.94"/>
<polygon fill="#63b8ff" stroke="#63b8ff" points="240.15,-13.51 229.67,-15.07 238.84,-20.39 240.15,-13.51"/>
</a>
</g>
</g>
<!-- Node10&#45;&gt;Node2 -->
<g id="edge13_Node000010_Node000002" class="edge">
<title>Node10&#45;&gt;Node2</title>
<g id="a_edge13_Node000010_Node000002"><a xlink:title=" ">
<path fill="none" stroke="#63b8ff" d="M657.16,-55.08C660.1,-48.26 664.3,-38.56 668.01,-29.95"/>
<polygon fill="#63b8ff" stroke="#63b8ff" points="671.13,-31.57 671.88,-21 664.7,-28.79 671.13,-31.57"/>
</a>
</g>
</g>
<!-- Node10&#45;&gt;Node6 -->
<g id="edge14_Node000010_Node000006" class="edge">
<title>Node10&#45;&gt;Node6</title>
<g id="a_edge14_Node000010_Node000006"><a xlink:title=" ">
<path fill="none" stroke="#63b8ff" d="M618.41,-54.84C580.96,-45.16 521.79,-29.86 483.78,-20.04"/>
<polygon fill="#63b8ff" stroke="#63b8ff" points="484.73,-16.67 474.18,-17.56 482.98,-23.45 484.73,-16.67"/>
</a>
</g>
</g>
<!-- Node11&#45;&gt;Node6 -->
<g id="edge16_Node000011_Node000006" class="edge">
<title>Node11&#45;&gt;Node6</title>
<g id="a_edge16_Node000011_Node000006"><a xlink:title=" ">
<path fill="none" stroke="#63b8ff" d="M336.45,-110.22C338.5,-96.81 344.12,-71.29 358.36,-55.25 372.42,-39.4 393.42,-28.5 411.49,-21.44"/>
<polygon fill="#63b8ff" stroke="#63b8ff" points="412.64,-24.75 420.85,-18.05 410.25,-18.17 412.64,-24.75"/>
</a>
</g>
</g>
<!-- Node12&#45;&gt;Node2 -->
<g id="edge18_Node000012_Node000002" class="edge">
<title>Node12&#45;&gt;Node2</title>
<g id="a_edge18_Node000012_Node000002"><a xlink:title=" ">
<path fill="none" stroke="#63b8ff" d="M497.12,-110.2C514.53,-97.2 548.43,-72.71 579.36,-55.25 600,-43.59 624.23,-32.45 643.31,-24.21"/>
<polygon fill="#63b8ff" stroke="#63b8ff" points="644.66,-27.44 652.49,-20.3 641.92,-21 644.66,-27.44"/>
</a>
</g>
</g>
<!-- Node12&#45;&gt;Node6 -->
<g id="edge20_Node000012_Node000006" class="edge">
<title>Node12&#45;&gt;Node6</title>
<g id="a_edge20_Node000012_Node000006"><a xlink:title=" ">
<path fill="none" stroke="#63b8ff" d="M466.77,-110.08C453.65,-102.56 437.08,-90.52 429.36,-74.5 422.41,-60.07 428.32,-42.47 435.17,-29.4"/>
<polygon fill="#63b8ff" stroke="#63b8ff" points="438.08,-31.36 440.12,-20.96 432.04,-27.82 438.08,-31.36"/>
</a>
</g>
</g>
<!-- Node12&#45;&gt;Node7 -->
<g id="edge19_Node000012_Node000007" class="edge">
<title>Node12&#45;&gt;Node7</title>
<g id="a_edge19_Node000012_Node000007"><a xlink:title=" ">
<path fill="none" stroke="#63b8ff" d="M485.36,-110.33C485.36,-103.82 485.36,-94.67 485.36,-86.37"/>
<polygon fill="#63b8ff" stroke="#63b8ff" points="488.86,-86.37 485.36,-76.37 481.86,-86.37 488.86,-86.37"/>
</a>
</g>
</g>
<!-- Node13&#45;&gt;Node2 -->
<g id="edge27_Node000013_Node000002" class="edge">
<title>Node13&#45;&gt;Node2</title>
<g id="a_edge27_Node000013_Node000002"><a xlink:title=" ">
<path fill="none" stroke="#63b8ff" d="M851.26,-57.66C818.04,-48.73 756.33,-32.13 715.81,-21.23"/>
<polygon fill="#63b8ff" stroke="#63b8ff" points="716.76,-17.87 706.19,-18.65 714.94,-24.62 716.76,-17.87"/>
</a>
</g>
</g>
<!-- Node13&#45;&gt;Node6 -->
<g id="edge23_Node000013_Node000006" class="edge">
<title>Node13&#45;&gt;Node6</title>
<g id="a_edge23_Node000013_Node000006"><a xlink:title=" ">
<path fill="none" stroke="#63b8ff" d="M851.4,-61.01C781.25,-52.26 569.32,-25.83 483.76,-15.16"/>
<polygon fill="#63b8ff" stroke="#63b8ff" points="484.41,-11.72 474.06,-13.95 483.55,-18.67 484.41,-11.72"/>
</a>
</g>
</g>
<!-- Node13&#45;&gt;Node8 -->
<g id="edge26_Node000013_Node000008" class="edge">
<title>Node13&#45;&gt;Node8</title>
<g id="a_edge26_Node000013_Node000008"><a xlink:title=" ">
<path fill="none" stroke="#63b8ff" d="M856.04,-54.84C839.28,-46.58 814.23,-34.23 794.86,-24.68"/>
<polygon fill="#63b8ff" stroke="#63b8ff" points="796.65,-21.65 786.13,-20.37 793.55,-27.93 796.65,-21.65"/>
</a>
</g>
</g>
<!-- Node14 -->
<g id="Node000014" class="node">
<title>Node14</title>
<g id="a_Node000014"><a xlink:title=" ">
<polygon fill="#e0e0e0" stroke="#999999" points="884.86,-19.25 823.86,-19.25 823.86,0 884.86,0 884.86,-19.25"/>
<text xml:space="preserve" text-anchor="middle" x="854.36" y="-5.75" font-family="Helvetica,sans-Serif" font-size="10.00">complex.h</text>
</a>
</g>
</g>
<!-- Node13&#45;&gt;Node14 -->
<g id="edge24_Node000013_Node000014" class="edge">
<title>Node13&#45;&gt;Node14</title>
<g id="a_edge24_Node000013_Node000014"><a xlink:title=" ">
<path fill="none" stroke="#63b8ff" d="M871.06,-55.08C868.53,-48.34 864.93,-38.77 861.73,-30.24"/>
<polygon fill="#63b8ff" stroke="#63b8ff" points="865.06,-29.16 858.27,-21.03 858.51,-31.62 865.06,-29.16"/>
</a>
</g>
</g>
<!-- Node15 -->
<g id="Node000015" class="node">
<title>Node15</title>
<g id="a_Node000015"><a xlink:title=" ">
<polygon fill="#e0e0e0" stroke="#999999" points="949.36,-19.25 903.36,-19.25 903.36,0 949.36,0 949.36,-19.25"/>
<text xml:space="preserve" text-anchor="middle" x="926.36" y="-5.75" font-family="Helvetica,sans-Serif" font-size="10.00">fftw3.h</text>
</a>
</g>
</g>
<!-- Node13&#45;&gt;Node15 -->
<g id="edge25_Node000013_Node000015" class="edge">
<title>Node13&#45;&gt;Node15</title>
<g id="a_edge25_Node000013_Node000015"><a xlink:title=" ">
<path fill="none" stroke="#63b8ff" d="M882.95,-55.08C890.2,-47.65 900.81,-36.79 909.73,-27.66"/>
<polygon fill="#63b8ff" stroke="#63b8ff" points="912.05,-30.29 916.53,-20.69 907.04,-25.4 912.05,-30.29"/>
</a>
</g>
</g>
<!-- Node16&#45;&gt;Node2 -->
<g id="edge30_Node000016_Node000002" class="edge">
<title>Node16&#45;&gt;Node2</title>
<g id="a_edge30_Node000016_Node000002"><a xlink:title=" ">
<path fill="none" stroke="#63b8ff" d="M751.09,-54.84C737.52,-46.81 717.41,-34.91 701.46,-25.48"/>
<polygon fill="#63b8ff" stroke="#63b8ff" points="703.39,-22.55 693,-20.47 699.83,-28.58 703.39,-22.55"/>
</a>
</g>
</g>
<!-- Node16&#45;&gt;Node6 -->
<g id="edge31_Node000016_Node000006" class="edge">
<title>Node16&#45;&gt;Node6</title>
<g id="a_edge31_Node000016_Node000006"><a xlink:title=" ">
<path fill="none" stroke="#63b8ff" d="M736.59,-57.1C733.48,-56.45 730.36,-55.82 727.36,-55.25 640.37,-38.71 537.37,-23.38 483.82,-15.73"/>
<polygon fill="#63b8ff" stroke="#63b8ff" points="484.44,-12.28 474.05,-14.34 483.45,-19.21 484.44,-12.28"/>
</a>
</g>
</g>
<!-- Node16&#45;&gt;Node8 -->
<g id="edge29_Node000016_Node000008" class="edge">
<title>Node16&#45;&gt;Node8</title>
<g id="a_edge29_Node000016_Node000008"><a xlink:title=" ">
<path fill="none" stroke="#63b8ff" d="M766.36,-55.08C766.36,-48.57 766.36,-39.42 766.36,-31.12"/>
<polygon fill="#63b8ff" stroke="#63b8ff" points="769.86,-31.12 766.36,-21.12 762.86,-31.12 769.86,-31.12"/>
</a>
</g>
</g>
</g>
</svg>
