<?xml version="1.0" encoding="UTF-8" standalone="no"?>
<!DOCTYPE svg PUBLIC "-//W3C//DTD SVG 1.1//EN"
 "http://www.w3.org/Graphics/SVG/1.1/DTD/svg11.dtd">
<!-- Generated by graphviz version 14.0.0 (20250921.2048)
 -->
<!-- Title: src/common/ELPH_timers.c Pages: 1 -->
<svg width="430pt" height="94pt"
 viewBox="0.00 0.00 430.00 94.00" xmlns="http://www.w3.org/2000/svg" xmlns:xlink="http://www.w3.org/1999/xlink">
<g id="graph0" class="graph" transform="scale(1 1) rotate(0) translate(4 89.75)">
<title>src/common/ELPH_timers.c</title>
<!-- Node1 -->
<g id="Node000001" class="node">
<title>Node1</title>
<g id="a_Node000001"><a xlink:title=" ">
<polygon fill="#999999" stroke="#666666" points="251.25,-85.75 111.5,-85.75 111.5,-66.5 251.25,-66.5 251.25,-85.75"/>
<text xml:space="preserve" text-anchor="middle" x="181.38" y="-72.25" font-family="Helvetica,sans-Serif" font-size="10.00">src/common/ELPH_timers.c</text>
</a>
</g>
</g>
<!-- Node2 -->
<g id="Node000002" class="node">
<title>Node2</title>
<g id="a_Node000002"><a xlink:href="../../de/d83/_e_l_p_h__timers_8h.html" target="_top" xlink:title=" ">
<polygon fill="white" stroke="#666666" points="82.75,-24.88 0,-24.88 0,-5.63 82.75,-5.63 82.75,-24.88"/>
<text xml:space="preserve" text-anchor="middle" x="41.38" y="-11.38" font-family="Helvetica,sans-Serif" font-size="10.00">ELPH_timers.h</text>
</a>
</g>
</g>
<!-- Node1&#45;&gt;Node2 -->
<g id="edge1_Node000001_Node000002" class="edge">
<title>Node1&#45;&gt;Node2</title>
<g id="a_edge1_Node000001_Node000002"><a xlink:title=" ">
<path fill="none" stroke="#63b8ff" d="M159.81,-66.05C136.62,-56.3 99.52,-40.7 73.02,-29.56"/>
<polygon fill="#63b8ff" stroke="#63b8ff" points="74.71,-26.47 64.13,-25.82 71.99,-32.92 74.71,-26.47"/>
</a>
</g>
</g>
<!-- Node3 -->
<g id="Node000003" class="node">
<title>Node3</title>
<g id="a_Node000003"><a xlink:title=" ">
<polygon fill="#e0e0e0" stroke="#999999" points="140.38,-24.88 100.38,-24.88 100.38,-5.63 140.38,-5.63 140.38,-24.88"/>
<text xml:space="preserve" text-anchor="middle" x="120.38" y="-11.38" font-family="Helvetica,sans-Serif" font-size="10.00">mpi.h</text>
</a>
</g>
</g>
<!-- Node1&#45;&gt;Node3 -->
<g id="edge2_Node000001_Node000003" class="edge">
<title>Node1&#45;&gt;Node3</title>
<g id="a_edge2_Node000001_Node000003"><a xlink:title=" ">
<path fill="none" stroke="#63b8ff" d="M172.11,-66.18C163.06,-57.45 149.07,-43.94 137.91,-33.18"/>
<polygon fill="#63b8ff" stroke="#63b8ff" points="140.44,-30.75 130.82,-26.33 135.58,-35.79 140.44,-30.75"/>
</a>
</g>
</g>
<!-- Node4 -->
<g id="Node000004" class="node">
<title>Node4</title>
<g id="a_Node000004"><a xlink:title=" ">
<polygon fill="#e0e0e0" stroke="#999999" points="204,-24.88 158.75,-24.88 158.75,-5.63 204,-5.63 204,-24.88"/>
<text xml:space="preserve" text-anchor="middle" x="181.38" y="-11.38" font-family="Helvetica,sans-Serif" font-size="10.00">stdio.h</text>
</a>
</g>
</g>
<!-- Node1&#45;&gt;Node4 -->
<g id="edge3_Node000001_Node000004" class="edge">
<title>Node1&#45;&gt;Node4</title>
<g id="a_edge3_Node000001_Node000004"><a xlink:title=" ">
<path fill="none" stroke="#63b8ff" d="M181.38,-66.18C181.38,-58.4 181.38,-46.83 181.38,-36.78"/>
<polygon fill="#63b8ff" stroke="#63b8ff" points="184.88,-36.79 181.38,-26.79 177.88,-36.79 184.88,-36.79"/>
</a>
</g>
</g>
<!-- Node5 -->
<g id="Node000005" class="node">
<title>Node5</title>
<g id="a_Node000005"><a xlink:title=" ">
<polygon fill="#e0e0e0" stroke="#999999" points="270.5,-24.88 222.25,-24.88 222.25,-5.63 270.5,-5.63 270.5,-24.88"/>
<text xml:space="preserve" text-anchor="middle" x="246.38" y="-11.38" font-family="Helvetica,sans-Serif" font-size="10.00">string.h</text>
</a>
</g>
</g>
<!-- Node1&#45;&gt;Node5 -->
<g id="edge4_Node000001_Node000005" class="edge">
<title>Node1&#45;&gt;Node5</title>
<g id="a_edge4_Node000001_Node000005"><a xlink:title=" ">
<path fill="none" stroke="#63b8ff" d="M191.25,-66.18C200.98,-57.37 216.1,-43.68 228.04,-32.86"/>
<polygon fill="#63b8ff" stroke="#63b8ff" points="230.23,-35.6 235.29,-26.29 225.53,-30.41 230.23,-35.6"/>
</a>
</g>
</g>
<!-- Node6 -->
<g id="Node000006" class="node">
<title>Node6</title>
<g id="a_Node000006"><a xlink:title=" ">
<polygon fill="#e0e0e0" stroke="#999999" points="421.88,-30.5 288.88,-30.5 288.88,0 421.88,0 421.88,-30.5"/>
<text xml:space="preserve" text-anchor="start" x="296.88" y="-17" font-family="Helvetica,sans-Serif" font-size="10.00">common/ELPH_hash_map</text>
<text xml:space="preserve" text-anchor="middle" x="355.38" y="-5.75" font-family="Helvetica,sans-Serif" font-size="10.00">/ELPH_hmap.h</text>
</a>
</g>
</g>
<!-- Node1&#45;&gt;Node6 -->
<g id="edge5_Node000001_Node000006" class="edge">
<title>Node1&#45;&gt;Node6</title>
<g id="a_edge5_Node000001_Node000006"><a xlink:title=" ">
<path fill="none" stroke="#63b8ff" d="M208.18,-66.05C232.91,-57.69 270.37,-45.01 301.31,-34.54"/>
<polygon fill="#63b8ff" stroke="#63b8ff" points="302.16,-37.95 310.51,-31.43 299.92,-31.32 302.16,-37.95"/>
</a>
</g>
</g>
</g>
</svg>
