<?xml version="1.0" encoding="UTF-8" standalone="no"?>
<!DOCTYPE svg PUBLIC "-//W3C//DTD SVG 1.1//EN"
 "http://www.w3.org/Graphics/SVG/1.1/DTD/svg11.dtd">
<!-- Generated by graphviz version 14.0.0 (20250921.2048)
 -->
<!-- Title: src/interpolation/interpolation_driver.c Pages: 1 -->
<!--zoomable 204 -->

<svg id="main" version="1.1" xmlns="http://www.w3.org/2000/svg" xmlns:xlink="http://www.w3.org/1999/xlink" xml:space="preserve" onload="init(evt)">

<style type="text/css"><![CDATA[
.node, .edge {opacity: 0.7;}
.node.selected, .edge.selected {opacity: 1;}
.edge:hover path { stroke: red; }
.edge:hover polygon { stroke: red; fill: red; }
]]></style>

<defs>
  <circle id="rim" cx="0" cy="0" r="7"/>
  <circle id="rim2" cx="0" cy="0" r="3.5"/>
  <g id="zoomPlus">
    <use xlink:href="#rim" fill="#404040"><set attributeName="fill" to="#808080" begin="zoomplus.mouseover" end="zoomplus.mouseout"/></use>
    <path d="M-4,0h8M0,-4v8" fill="none" stroke="white" stroke-width="1.5" pointer-events="none"/>
  </g>
  <g id="zoomMin">
    <use xlink:href="#rim" fill="#404040"><set attributeName="fill" to="#808080" begin="zoomminus.mouseover" end="zoomminus.mouseout"/></use>
    <path d="M-4,0h8" fill="none" stroke="white" stroke-width="1.5" pointer-events="none"/>
  </g>
  <g id="arrowUp" transform="translate(30 24)">
    <use xlink:href="#rim"/>
    <path pointer-events="none" fill="none" stroke="white" stroke-width="1.5" d="M0,-3.0v7 M-2.5,-0.5L0,-3.0L2.5,-0.5"/>
  </g>
  <g id="arrowRight" transform="rotate(90) translate(36 -43)">
    <use xlink:href="#rim"/>
    <path pointer-events="none" fill="none" stroke="white" stroke-width="1.5" d="M0,-3.0v7 M-2.5,-0.5L0,-3.0L2.5,-0.5"/>
  </g>
  <g id="arrowDown" transform="rotate(180) translate(-30 -48)">
    <use xlink:href="#rim"/>
    <path pointer-events="none" fill="none" stroke="white" stroke-width="1.5" d="M0,-3.0v7 M-2.5,-0.5L0,-3.0L2.5,-0.5"/>
  </g>
  <g id="arrowLeft" transform="rotate(270) translate(-36 17)">
    <use xlink:href="#rim"/>
    <path pointer-events="none" fill="none" stroke="white" stroke-width="1.5" d="M0,-3.0v7 M-2.5,-0.5L0,-3.0L2.5,-0.5"/>
  </g>
  <g id="resetDef">
    <use xlink:href="#rim2" fill="#404040"><set attributeName="fill" to="#808080" begin="reset.mouseover" end="reset.mouseout"/></use>
  </g>
</defs>
<script type="application/ecmascript">
var viewWidth = 2048;
var viewHeight = 204;
var sectionId = 'dynsection-0';
</script>
<script type="application/ecmascript" xlink:href="../../svg.min.js"/>
<svg id="graph" class="graph">
<g id="viewport">
<title>src/interpolation/interpolation_driver.c</title>
<!-- Node1 -->
<g id="Node000001" class="node">
<title>Node1</title>
<g id="a_Node000001"><a xlink:title=" ">
<polygon fill="#999999" stroke="#666666" points="1051.25,-196.25 910.75,-196.25 910.75,-165.75 1051.25,-165.75 1051.25,-196.25"/>
<text xml:space="preserve" text-anchor="start" x="918.75" y="-182.75" font-family="Helvetica,sans-Serif" font-size="10.00">src/interpolation/interpolation</text>
<text xml:space="preserve" text-anchor="middle" x="981" y="-171.5" font-family="Helvetica,sans-Serif" font-size="10.00">_driver.c</text>
</a>
</g>
</g>
<!-- Node2 -->
<g id="Node000002" class="node">
<title>Node2</title>
<g id="a_Node000002"><a xlink:title=" ">
<polygon fill="#e0e0e0" stroke="#999999" points="46,-129.75 0,-129.75 0,-110.5 46,-110.5 46,-129.75"/>
<text xml:space="preserve" text-anchor="middle" x="23" y="-116.25" font-family="Helvetica,sans-Serif" font-size="10.00">math.h</text>
</a>
</g>
</g>
<!-- Node1&#45;&gt;Node2 -->
<g id="edge1_Node000001_Node000002" class="edge">
<title>Node1&#45;&gt;Node2</title>
<g id="a_edge1_Node000001_Node000002"><a xlink:title=" ">
<path fill="none" stroke="#63b8ff" d="M910.4,-180.33C755.57,-180.14 374.87,-174.69 60,-129.75 59.17,-129.63 58.33,-129.5 57.48,-129.37"/>
<polygon fill="#63b8ff" stroke="#63b8ff" points="58.34,-125.97 47.86,-127.51 57.01,-132.84 58.34,-125.97"/>
</a>
</g>
</g>
<!-- Node3 -->
<g id="Node000003" class="node">
<title>Node3</title>
<g id="a_Node000003"><a xlink:title=" ">
<polygon fill="#e0e0e0" stroke="#999999" points="1465,-19.25 1425,-19.25 1425,0 1465,0 1465,-19.25"/>
<text xml:space="preserve" text-anchor="middle" x="1445" y="-5.75" font-family="Helvetica,sans-Serif" font-size="10.00">mpi.h</text>
</a>
</g>
</g>
<!-- Node1&#45;&gt;Node3 -->
<g id="edge2_Node000001_Node000003" class="edge">
<title>Node1&#45;&gt;Node3</title>
<g id="a_edge2_Node000001_Node000003"><a xlink:title=" ">
<path fill="none" stroke="#63b8ff" d="M1051.5,-178.76C1235.32,-175.11 1726.04,-162.49 1885,-129.75 1954.99,-115.33 1995.06,-133.07 2036,-74.5 2040.9,-67.49 2041.82,-61.52 2036,-55.25 1997.78,-14.03 1594.2,-10.67 1476.84,-10.56"/>
<polygon fill="#63b8ff" stroke="#63b8ff" points="1477,-7.06 1467,-10.56 1477,-14.06 1477,-7.06"/>
</a>
</g>
</g>
<!-- Node4 -->
<g id="Node000004" class="node">
<title>Node4</title>
<g id="a_Node000004"><a xlink:title=" ">
<polygon fill="#e0e0e0" stroke="#999999" points="755.88,-19.25 700.12,-19.25 700.12,0 755.88,0 755.88,-19.25"/>
<text xml:space="preserve" text-anchor="middle" x="728" y="-5.75" font-family="Helvetica,sans-Serif" font-size="10.00">stdbool.h</text>
</a>
</g>
</g>
<!-- Node1&#45;&gt;Node4 -->
<g id="edge3_Node000001_Node000004" class="edge">
<title>Node1&#45;&gt;Node4</title>
<g id="a_edge3_Node000001_Node000004"><a xlink:title=" ">
<path fill="none" stroke="#63b8ff" d="M910.31,-178.27C708.74,-173.01 143.65,-156.01 114,-129.75 88.99,-107.6 81.24,-79.7 104,-55.25 143.79,-12.52 557.01,-10.09 688.24,-10.4"/>
<polygon fill="#63b8ff" stroke="#63b8ff" points="688.16,-13.9 698.17,-10.44 688.18,-6.9 688.16,-13.9"/>
</a>
</g>
</g>
<!-- Node5 -->
<g id="Node000005" class="node">
<title>Node5</title>
<g id="a_Node000005"><a xlink:title=" ">
<polygon fill="#e0e0e0" stroke="#999999" points="187.75,-129.75 140.25,-129.75 140.25,-110.5 187.75,-110.5 187.75,-129.75"/>
<text xml:space="preserve" text-anchor="middle" x="164" y="-116.25" font-family="Helvetica,sans-Serif" font-size="10.00">stdlib.h</text>
</a>
</g>
</g>
<!-- Node1&#45;&gt;Node5 -->
<g id="edge4_Node000001_Node000005" class="edge">
<title>Node1&#45;&gt;Node5</title>
<g id="a_edge4_Node000001_Node000005"><a xlink:title=" ">
<path fill="none" stroke="#63b8ff" d="M910.48,-179.99C774.43,-178.99 466.3,-171.97 199.12,-129.75"/>
<polygon fill="#63b8ff" stroke="#63b8ff" points="199.96,-126.34 189.53,-128.22 198.85,-133.25 199.96,-126.34"/>
</a>
</g>
</g>
<!-- Node6 -->
<g id="Node000006" class="node">
<title>Node6</title>
<g id="a_Node000006"><a xlink:title=" ">
<polygon fill="#e0e0e0" stroke="#999999" points="254.12,-129.75 205.88,-129.75 205.88,-110.5 254.12,-110.5 254.12,-129.75"/>
<text xml:space="preserve" text-anchor="middle" x="230" y="-116.25" font-family="Helvetica,sans-Serif" font-size="10.00">string.h</text>
</a>
</g>
</g>
<!-- Node1&#45;&gt;Node6 -->
<g id="edge5_Node000001_Node000006" class="edge">
<title>Node1&#45;&gt;Node6</title>
<g id="a_edge5_Node000001_Node000006"><a xlink:title=" ">
<path fill="none" stroke="#63b8ff" d="M910.43,-179.39C783.12,-177.36 506.59,-168.62 265.49,-129.85"/>
<polygon fill="#63b8ff" stroke="#63b8ff" points="266.33,-126.44 255.89,-128.29 265.2,-133.35 266.33,-126.44"/>
</a>
</g>
</g>
<!-- Node7 -->
<g id="Node000007" class="node">
<title>Node7</title>
<g id="a_Node000007"><a xlink:href="../../de/d83/_e_l_p_h__timers_8h.html" target="_top" xlink:title=" ">
<polygon fill="white" stroke="#666666" points="395.62,-129.75 272.38,-129.75 272.38,-110.5 395.62,-110.5 395.62,-129.75"/>
<text xml:space="preserve" text-anchor="middle" x="334" y="-116.25" font-family="Helvetica,sans-Serif" font-size="10.00">common/ELPH_timers.h</text>
</a>
</g>
</g>
<!-- Node1&#45;&gt;Node7 -->
<g id="edge6_Node000001_Node000007" class="edge">
<title>Node1&#45;&gt;Node7</title>
<g id="a_edge6_Node000001_Node000007"><a xlink:title=" ">
<path fill="none" stroke="#63b8ff" d="M910.62,-174.38C802.78,-165.64 590.21,-147.9 410,-129.75 408.99,-129.65 407.97,-129.54 406.94,-129.44"/>
<polygon fill="#63b8ff" stroke="#63b8ff" points="407.6,-125.99 397.29,-128.43 406.87,-132.95 407.6,-125.99"/>
</a>
</g>
</g>
<!-- Node8 -->
<g id="Node000008" class="node">
<title>Node8</title>
<g id="a_Node000008"><a xlink:href="../../d2/d6f/constants_8h.html" target="_top" xlink:title=" ">
<polygon fill="white" stroke="#666666" points="1479.75,-74.5 1372.25,-74.5 1372.25,-55.25 1479.75,-55.25 1479.75,-74.5"/>
<text xml:space="preserve" text-anchor="middle" x="1426" y="-61" font-family="Helvetica,sans-Serif" font-size="10.00">common/constants.h</text>
</a>
</g>
</g>
<!-- Node1&#45;&gt;Node8 -->
<g id="edge7_Node000001_Node000008" class="edge">
<title>Node1&#45;&gt;Node8</title>
<g id="a_edge7_Node000001_Node000008"><a xlink:title=" ">
<path fill="none" stroke="#63b8ff" d="M1051.57,-180.78C1158.51,-180.49 1354.72,-173.74 1407,-129.75 1419.6,-119.15 1424.06,-100.59 1425.54,-86.21"/>
<polygon fill="#63b8ff" stroke="#63b8ff" points="1429.02,-86.64 1426.11,-76.45 1422.03,-86.23 1429.02,-86.64"/>
</a>
</g>
</g>
<!-- Node9 -->
<g id="Node000009" class="node">
<title>Node9</title>
<g id="a_Node000009"><a xlink:href="../../d4/d0a/elph_c_8h.html" target="_top" xlink:title="Core type definitions and configuration for LetzElPhC.">
<polygon fill="white" stroke="#666666" points="1194.88,-19.25 1145.12,-19.25 1145.12,0 1194.88,0 1194.88,-19.25"/>
<text xml:space="preserve" text-anchor="middle" x="1170" y="-5.75" font-family="Helvetica,sans-Serif" font-size="10.00">elphC.h</text>
</a>
</g>
</g>
<!-- Node1&#45;&gt;Node9 -->
<g id="edge34_Node000001_Node000009" class="edge">
<title>Node1&#45;&gt;Node9</title>
<g id="a_edge34_Node000001_Node000009"><a xlink:title=" ">
<path fill="none" stroke="#63b8ff" d="M1051.65,-179.81C1211.57,-178.64 1590.42,-171.44 1629,-129.75 1688.35,-65.62 1749.46,-124.56 1507,-55.25 1400.38,-24.77 1268.73,-14.99 1206.23,-11.95"/>
<polygon fill="#63b8ff" stroke="#63b8ff" points="1206.69,-8.47 1196.54,-11.51 1206.37,-15.46 1206.69,-8.47"/>
</a>
</g>
</g>
<!-- Node10 -->
<g id="Node000010" class="node">
<title>Node10</title>
<g id="a_Node000010"><a xlink:title=" ">
<polygon fill="#e0e0e0" stroke="#999999" points="718.38,-129.75 599.62,-129.75 599.62,-110.5 718.38,-110.5 718.38,-129.75"/>
<text xml:space="preserve" text-anchor="middle" x="659" y="-116.25" font-family="Helvetica,sans-Serif" font-size="10.00">common/cwalk/cwalk.h</text>
</a>
</g>
</g>
<!-- Node1&#45;&gt;Node10 -->
<g id="edge9_Node000001_Node000010" class="edge">
<title>Node1&#45;&gt;Node10</title>
<g id="a_edge9_Node000001_Node000010"><a xlink:title=" ">
<path fill="none" stroke="#63b8ff" d="M910.34,-167.08C853.3,-156.65 773.9,-142.13 719.7,-132.22"/>
<polygon fill="#63b8ff" stroke="#63b8ff" points="720.49,-128.81 710.03,-130.45 719.23,-135.7 720.49,-128.81"/>
</a>
</g>
</g>
<!-- Node11 -->
<g id="Node000011" class="node">
<title>Node11</title>
<g id="a_Node000011"><a xlink:href="../../d2/d02/dtypes_8h.html" target="_top" xlink:title=" ">
<polygon fill="white" stroke="#666666" points="1142,-74.5 1048,-74.5 1048,-55.25 1142,-55.25 1142,-74.5"/>
<text xml:space="preserve" text-anchor="middle" x="1095" y="-61" font-family="Helvetica,sans-Serif" font-size="10.00">common/dtypes.h</text>
</a>
</g>
</g>
<!-- Node1&#45;&gt;Node11 -->
<g id="edge10_Node000001_Node000011" class="edge">
<title>Node1&#45;&gt;Node11</title>
<g id="a_edge10_Node000001_Node000011"><a xlink:title=" ">
<path fill="none" stroke="#63b8ff" d="M1051.69,-168.41C1073.75,-161.1 1095.75,-149.18 1109,-129.75 1117.99,-116.56 1112.88,-98.59 1106.45,-85.06"/>
<polygon fill="#63b8ff" stroke="#63b8ff" points="1109.55,-83.44 1101.73,-76.29 1103.38,-86.76 1109.55,-83.44"/>
</a>
</g>
</g>
<!-- Node12 -->
<g id="Node000012" class="node">
<title>Node12</title>
<g id="a_Node000012"><a xlink:href="../../da/d41/error_8h.html" target="_top" xlink:title=" ">
<polygon fill="white" stroke="#666666" points="985.5,-19.25 942.5,-19.25 942.5,0 985.5,0 985.5,-19.25"/>
<text xml:space="preserve" text-anchor="middle" x="964" y="-5.75" font-family="Helvetica,sans-Serif" font-size="10.00">error.h</text>
</a>
</g>
</g>
<!-- Node1&#45;&gt;Node12 -->
<g id="edge15_Node000001_Node000012" class="edge">
<title>Node1&#45;&gt;Node12</title>
<g id="a_edge15_Node000001_Node000012"><a xlink:title=" ">
<path fill="none" stroke="#63b8ff" d="M910.4,-178.43C711.22,-173.67 157.59,-157.95 131,-129.75 9.36,-0.7 346.94,-76.56 523,-55.25 675.33,-36.81 857.91,-20.02 931.2,-13.5"/>
<polygon fill="#63b8ff" stroke="#63b8ff" points="931.24,-17.01 940.89,-12.64 930.62,-10.04 931.24,-17.01"/>
</a>
</g>
</g>
<!-- Node13 -->
<g id="Node000013" class="node">
<title>Node13</title>
<g id="a_Node000013"><a xlink:href="../../df/ded/init__dtypes_8h.html" target="_top" xlink:title=" ">
<polygon fill="white" stroke="#666666" points="1100,-129.75 988,-129.75 988,-110.5 1100,-110.5 1100,-129.75"/>
<text xml:space="preserve" text-anchor="middle" x="1044" y="-116.25" font-family="Helvetica,sans-Serif" font-size="10.00">common/init_dtypes.h</text>
</a>
</g>
</g>
<!-- Node1&#45;&gt;Node13 -->
<g id="edge16_Node000001_Node000013" class="edge">
<title>Node1&#45;&gt;Node13</title>
<g id="a_edge16_Node000001_Node000013"><a xlink:title=" ">
<path fill="none" stroke="#63b8ff" d="M996.57,-165.45C1005.52,-157.09 1016.79,-146.55 1026.1,-137.85"/>
<polygon fill="#63b8ff" stroke="#63b8ff" points="1028.27,-140.62 1033.18,-131.23 1023.49,-135.51 1028.27,-140.62"/>
</a>
</g>
</g>
<!-- Node14 -->
<g id="Node000014" class="node">
<title>Node14</title>
<g id="a_Node000014"><a xlink:href="../../df/def/numerical__func_8h.html" target="_top" xlink:title=" ">
<polygon fill="white" stroke="#666666" points="662.38,-74.5 531.62,-74.5 531.62,-55.25 662.38,-55.25 662.38,-74.5"/>
<text xml:space="preserve" text-anchor="middle" x="597" y="-61" font-family="Helvetica,sans-Serif" font-size="10.00">common/numerical_func.h</text>
</a>
</g>
</g>
<!-- Node1&#45;&gt;Node14 -->
<g id="edge19_Node000001_Node000014" class="edge">
<title>Node1&#45;&gt;Node14</title>
<g id="a_edge19_Node000001_Node000014"><a xlink:title=" ">
<path fill="none" stroke="#63b8ff" d="M910.5,-178.59C771.73,-175.09 473.9,-163.67 443,-129.75 414.63,-98.6 468.31,-82.22 519.91,-73.89"/>
<polygon fill="#63b8ff" stroke="#63b8ff" points="520.34,-77.36 529.71,-72.41 519.3,-70.44 520.34,-77.36"/>
</a>
</g>
</g>
<!-- Node15 -->
<g id="Node000015" class="node">
<title>Node15</title>
<g id="a_Node000015"><a xlink:href="../../df/d5c/parallel_8h.html" target="_top" xlink:title=" ">
<polygon fill="white" stroke="#666666" points="1397.75,-129.75 1302.25,-129.75 1302.25,-110.5 1397.75,-110.5 1397.75,-129.75"/>
<text xml:space="preserve" text-anchor="middle" x="1350" y="-116.25" font-family="Helvetica,sans-Serif" font-size="10.00">common/parallel.h</text>
</a>
</g>
</g>
<!-- Node1&#45;&gt;Node15 -->
<g id="edge22_Node000001_Node000015" class="edge">
<title>Node1&#45;&gt;Node15</title>
<g id="a_edge22_Node000001_Node000015"><a xlink:title=" ">
<path fill="none" stroke="#63b8ff" d="M1051.71,-168.72C1121,-157.66 1225.43,-141 1290.56,-130.61"/>
<polygon fill="#63b8ff" stroke="#63b8ff" points="1291.04,-134.08 1300.36,-129.05 1289.93,-127.16 1291.04,-134.08"/>
</a>
</g>
</g>
<!-- Node16 -->
<g id="Node000016" class="node">
<title>Node16</title>
<g id="a_Node000016"><a xlink:href="../../dd/de4/print__info_8h.html" target="_top" xlink:title=" ">
<polygon fill="white" stroke="#666666" points="970.25,-129.75 865.75,-129.75 865.75,-110.5 970.25,-110.5 970.25,-129.75"/>
<text xml:space="preserve" text-anchor="middle" x="918" y="-116.25" font-family="Helvetica,sans-Serif" font-size="10.00">common/print_info.h</text>
</a>
</g>
</g>
<!-- Node1&#45;&gt;Node16 -->
<g id="edge26_Node000001_Node000016" class="edge">
<title>Node1&#45;&gt;Node16</title>
<g id="a_edge26_Node000001_Node000016"><a xlink:title=" ">
<path fill="none" stroke="#63b8ff" d="M965.43,-165.45C956.48,-157.09 945.21,-146.55 935.9,-137.85"/>
<polygon fill="#63b8ff" stroke="#63b8ff" points="938.51,-135.51 928.82,-131.23 933.73,-140.62 938.51,-135.51"/>
</a>
</g>
</g>
<!-- Node18 -->
<g id="Node000018" class="node">
<title>Node18</title>
<g id="a_Node000018"><a xlink:href="../../d8/dc9/dvloc_8h.html" target="_top" xlink:title=" ">
<polygon fill="white" stroke="#666666" points="809.88,-129.75 736.12,-129.75 736.12,-110.5 809.88,-110.5 809.88,-129.75"/>
<text xml:space="preserve" text-anchor="middle" x="773" y="-116.25" font-family="Helvetica,sans-Serif" font-size="10.00">dvloc/dvloc.h</text>
</a>
</g>
</g>
<!-- Node1&#45;&gt;Node18 -->
<g id="edge30_Node000001_Node000018" class="edge">
<title>Node1&#45;&gt;Node18</title>
<g id="a_edge30_Node000001_Node000018"><a xlink:title=" ">
<path fill="none" stroke="#63b8ff" d="M929.05,-165.3C894.28,-155.45 849.06,-142.65 816.25,-133.37"/>
<polygon fill="#63b8ff" stroke="#63b8ff" points="817.24,-130.01 806.66,-130.65 815.33,-136.74 817.24,-130.01"/>
</a>
</g>
</g>
<!-- Node19 -->
<g id="Node000019" class="node">
<title>Node19</title>
<g id="a_Node000019"><a xlink:href="../../d3/d08/interpolation_8h.html" target="_top" xlink:title=" ">
<polygon fill="white" stroke="#666666" points="1530.38,-129.75 1453.62,-129.75 1453.62,-110.5 1530.38,-110.5 1530.38,-129.75"/>
<text xml:space="preserve" text-anchor="middle" x="1492" y="-116.25" font-family="Helvetica,sans-Serif" font-size="10.00">interpolation.h</text>
</a>
</g>
</g>
<!-- Node1&#45;&gt;Node19 -->
<g id="edge35_Node000001_Node000019" class="edge">
<title>Node1&#45;&gt;Node19</title>
<g id="a_edge35_Node000001_Node000019"><a xlink:title=" ">
<path fill="none" stroke="#63b8ff" d="M1051.53,-173.5C1141.76,-164.91 1302.81,-148.62 1440,-129.75 1440.67,-129.66 1441.34,-129.56 1442.01,-129.47"/>
<polygon fill="#63b8ff" stroke="#63b8ff" points="1442.26,-132.97 1451.64,-128.04 1441.23,-126.05 1442.26,-132.97"/>
</a>
</g>
</g>
<!-- Node20 -->
<g id="Node000020" class="node">
<title>Node20</title>
<g id="a_Node000020"><a xlink:href="../../dd/def/interpolation__utilities_8h.html" target="_top" xlink:title=" ">
<polygon fill="white" stroke="#666666" points="1724.38,-74.5 1611.62,-74.5 1611.62,-55.25 1724.38,-55.25 1724.38,-74.5"/>
<text xml:space="preserve" text-anchor="middle" x="1668" y="-61" font-family="Helvetica,sans-Serif" font-size="10.00">interpolation_utilities.h</text>
</a>
</g>
</g>
<!-- Node1&#45;&gt;Node20 -->
<g id="edge39_Node000001_Node000020" class="edge">
<title>Node1&#45;&gt;Node20</title>
<g id="a_edge39_Node000001_Node000020"><a xlink:title=" ">
<path fill="none" stroke="#63b8ff" d="M1051.57,-179.84C1216.99,-178.77 1619.09,-171.81 1662,-129.75 1673.32,-118.65 1673.91,-100.16 1672.2,-85.91"/>
<polygon fill="#63b8ff" stroke="#63b8ff" points="1675.69,-85.55 1670.57,-76.28 1668.79,-86.72 1675.69,-85.55"/>
</a>
</g>
</g>
<!-- Node21 -->
<g id="Node000021" class="node">
<title>Node21</title>
<g id="a_Node000021"><a xlink:href="../../dc/dac/io_8h.html" target="_top" xlink:title=" ">
<polygon fill="white" stroke="#666666" points="1876.12,-129.75 1833.88,-129.75 1833.88,-110.5 1876.12,-110.5 1876.12,-129.75"/>
<text xml:space="preserve" text-anchor="middle" x="1855" y="-116.25" font-family="Helvetica,sans-Serif" font-size="10.00">io/io.h</text>
</a>
</g>
</g>
<!-- Node1&#45;&gt;Node21 -->
<g id="edge41_Node000001_Node000021" class="edge">
<title>Node1&#45;&gt;Node21</title>
<g id="a_edge41_Node000001_Node000021"><a xlink:title=" ">
<path fill="none" stroke="#63b8ff" d="M1051.41,-175.26C1229.86,-163.24 1694.7,-131.92 1822.22,-123.33"/>
<polygon fill="#63b8ff" stroke="#63b8ff" points="1822.24,-126.84 1831.98,-122.68 1821.77,-119.86 1822.24,-126.84"/>
</a>
</g>
</g>
<!-- Node25 -->
<g id="Node000025" class="node">
<title>Node25</title>
<g id="a_Node000025"><a xlink:title=" ">
<polygon fill="#e0e0e0" stroke="#999999" points="1619.75,-129.75 1548.25,-129.75 1548.25,-110.5 1619.75,-110.5 1619.75,-129.75"/>
<text xml:space="preserve" text-anchor="middle" x="1584" y="-116.25" font-family="Helvetica,sans-Serif" font-size="10.00">io/qe/qe_io.h</text>
</a>
</g>
</g>
<!-- Node1&#45;&gt;Node25 -->
<g id="edge48_Node000001_Node000025" class="edge">
<title>Node1&#45;&gt;Node25</title>
<g id="a_edge48_Node000001_Node000025"><a xlink:title=" ">
<path fill="none" stroke="#63b8ff" d="M1051.73,-175.9C1155.73,-169.36 1356.22,-154.86 1536.87,-129.9"/>
<polygon fill="#63b8ff" stroke="#63b8ff" points="1537.27,-133.38 1546.69,-128.53 1536.31,-126.45 1537.27,-133.38"/>
</a>
</g>
</g>
<!-- Node26 -->
<g id="Node000026" class="node">
<title>Node26</title>
<g id="a_Node000026"><a xlink:href="../../d3/d34/phonon_8h.html" target="_top" xlink:title=" ">
<polygon fill="white" stroke="#666666" points="1246.12,-129.75 1155.88,-129.75 1155.88,-110.5 1246.12,-110.5 1246.12,-129.75"/>
<text xml:space="preserve" text-anchor="middle" x="1201" y="-116.25" font-family="Helvetica,sans-Serif" font-size="10.00">phonon/phonon.h</text>
</a>
</g>
</g>
<!-- Node1&#45;&gt;Node26 -->
<g id="edge49_Node000001_Node000026" class="edge">
<title>Node1&#45;&gt;Node26</title>
<g id="a_edge49_Node000001_Node000026"><a xlink:title=" ">
<path fill="none" stroke="#63b8ff" d="M1035.95,-165.3C1073.04,-155.37 1121.39,-142.43 1156.16,-133.13"/>
<polygon fill="#63b8ff" stroke="#63b8ff" points="1156.72,-136.6 1165.47,-130.63 1154.91,-129.84 1156.72,-136.6"/>
</a>
</g>
</g>
<!-- Node27 -->
<g id="Node000027" class="node">
<title>Node27</title>
<g id="a_Node000027"><a xlink:href="../../dc/dec/symmetries_8h.html" target="_top" xlink:title=" ">
<polygon fill="white" stroke="#666666" points="581.62,-129.75 452.38,-129.75 452.38,-110.5 581.62,-110.5 581.62,-129.75"/>
<text xml:space="preserve" text-anchor="middle" x="517" y="-116.25" font-family="Helvetica,sans-Serif" font-size="10.00">symmetries/symmetries.h</text>
</a>
</g>
</g>
<!-- Node1&#45;&gt;Node27 -->
<g id="edge52_Node000001_Node000027" class="edge">
<title>Node1&#45;&gt;Node27</title>
<g id="a_edge52_Node000001_Node000027"><a xlink:title=" ">
<path fill="none" stroke="#63b8ff" d="M910.28,-171.03C824.73,-160.17 681.27,-141.97 593.29,-130.81"/>
<polygon fill="#63b8ff" stroke="#63b8ff" points="593.91,-127.36 583.55,-129.57 593.03,-134.3 593.91,-127.36"/>
</a>
</g>
</g>
<!-- Node28 -->
<g id="Node000028" class="node">
<title>Node28</title>
<g id="a_Node000028"><a xlink:href="../../d1/dea/wfc_8h.html" target="_top" xlink:title=" ">
<polygon fill="white" stroke="#666666" points="890.38,-74.5 831.62,-74.5 831.62,-55.25 890.38,-55.25 890.38,-74.5"/>
<text xml:space="preserve" text-anchor="middle" x="861" y="-61" font-family="Helvetica,sans-Serif" font-size="10.00">wfc/wfc.h</text>
</a>
</g>
</g>
<!-- Node1&#45;&gt;Node28 -->
<g id="edge56_Node000001_Node000028" class="edge">
<title>Node1&#45;&gt;Node28</title>
<g id="a_edge56_Node000001_Node000028"><a xlink:title=" ">
<path fill="none" stroke="#63b8ff" d="M910.51,-167.21C889.8,-159.81 869.39,-148.15 857,-129.75 848.26,-116.78 850.34,-98.76 853.99,-85.17"/>
<polygon fill="#63b8ff" stroke="#63b8ff" points="857.19,-86.63 856.9,-76.04 850.52,-84.5 857.19,-86.63"/>
</a>
</g>
</g>
<!-- Node29 -->
<g id="Node000029" class="node">
<title>Node29</title>
<g id="a_Node000029"><a xlink:href="../../db/d1f/wigner__seitz_8h.html" target="_top" xlink:title=" ">
<polygon fill="white" stroke="#666666" points="1277.5,-74.5 1198.5,-74.5 1198.5,-55.25 1277.5,-55.25 1277.5,-74.5"/>
<text xml:space="preserve" text-anchor="middle" x="1238" y="-61" font-family="Helvetica,sans-Serif" font-size="10.00">wigner_seitz.h</text>
</a>
</g>
</g>
<!-- Node1&#45;&gt;Node29 -->
<g id="edge60_Node000001_Node000029" class="edge">
<title>Node1&#45;&gt;Node29</title>
<g id="a_edge60_Node000001_Node000029"><a xlink:title=" ">
<path fill="none" stroke="#63b8ff" d="M1051.56,-177.02C1123.98,-172.31 1229.57,-160.26 1255,-129.75 1265.65,-116.96 1258.78,-98.16 1250.82,-84.27"/>
<polygon fill="#63b8ff" stroke="#63b8ff" points="1253.92,-82.62 1245.6,-76.06 1248.01,-86.37 1253.92,-82.62"/>
</a>
</g>
</g>
<!-- Node8&#45;&gt;Node9 -->
<g id="edge8_Node000008_Node000009" class="edge">
<title>Node8&#45;&gt;Node9</title>
<g id="a_edge8_Node000008_Node000009"><a xlink:title=" ">
<path fill="none" stroke="#63b8ff" d="M1382.28,-54.78C1332.65,-44.46 1252.59,-27.8 1206.27,-18.17"/>
<polygon fill="#63b8ff" stroke="#63b8ff" points="1207.25,-14.8 1196.75,-16.19 1205.82,-21.65 1207.25,-14.8"/>
</a>
</g>
</g>
<!-- Node11&#45;&gt;Node3 -->
<g id="edge11_Node000011_Node000003" class="edge">
<title>Node11&#45;&gt;Node3</title>
<g id="a_edge11_Node000011_Node000003"><a xlink:title=" ">
<path fill="none" stroke="#63b8ff" d="M1142.2,-56.69C1214.8,-45.65 1351.91,-24.79 1413.57,-15.41"/>
<polygon fill="#63b8ff" stroke="#63b8ff" points="1414,-18.88 1423.36,-13.92 1412.94,-11.96 1414,-18.88"/>
</a>
</g>
</g>
<!-- Node11&#45;&gt;Node4 -->
<g id="edge12_Node000011_Node000004" class="edge">
<title>Node11&#45;&gt;Node4</title>
<g id="a_edge12_Node000011_Node000004"><a xlink:title=" ">
<path fill="none" stroke="#63b8ff" d="M1047.77,-57.02C974.57,-46.4 835.08,-26.16 767.14,-16.3"/>
<polygon fill="#63b8ff" stroke="#63b8ff" points="767.99,-12.89 757.59,-14.92 766.99,-19.82 767.99,-12.89"/>
</a>
</g>
</g>
<!-- Node11&#45;&gt;Node9 -->
<g id="edge13_Node000011_Node000009" class="edge">
<title>Node11&#45;&gt;Node9</title>
<g id="a_edge13_Node000011_Node000009"><a xlink:title=" ">
<path fill="none" stroke="#63b8ff" d="M1107.72,-54.84C1118.71,-47.04 1134.84,-35.59 1147.93,-26.29"/>
<polygon fill="#63b8ff" stroke="#63b8ff" points="1149.85,-29.22 1155.98,-20.58 1145.8,-23.51 1149.85,-29.22"/>
</a>
</g>
</g>
<!-- Node11&#45;&gt;Node12 -->
<g id="edge14_Node000011_Node000012" class="edge">
<title>Node11&#45;&gt;Node12</title>
<g id="a_edge14_Node000011_Node000012"><a xlink:title=" ">
<path fill="none" stroke="#63b8ff" d="M1072.78,-54.84C1051.86,-46.34 1020.27,-33.5 996.52,-23.84"/>
<polygon fill="#63b8ff" stroke="#63b8ff" points="997.88,-20.62 987.3,-20.09 995.24,-27.1 997.88,-20.62"/>
</a>
</g>
</g>
<!-- Node13&#45;&gt;Node9 -->
<g id="edge18_Node000013_Node000009" class="edge">
<title>Node13&#45;&gt;Node9</title>
<g id="a_edge18_Node000013_Node000009"><a xlink:title=" ">
<path fill="none" stroke="#63b8ff" d="M1040.03,-110.33C1034.72,-97.05 1027.22,-71.71 1039,-55.25 1060.33,-25.45 1102.74,-15.32 1133.54,-12"/>
<polygon fill="#63b8ff" stroke="#63b8ff" points="1133.54,-15.51 1143.2,-11.16 1132.94,-8.54 1133.54,-15.51"/>
</a>
</g>
</g>
<!-- Node13&#45;&gt;Node11 -->
<g id="edge17_Node000013_Node000011" class="edge">
<title>Node13&#45;&gt;Node11</title>
<g id="a_edge17_Node000013_Node000011"><a xlink:title=" ">
<path fill="none" stroke="#63b8ff" d="M1052.42,-110.33C1059.54,-102.9 1069.94,-92.04 1078.69,-82.91"/>
<polygon fill="#63b8ff" stroke="#63b8ff" points="1080.96,-85.6 1085.35,-75.95 1075.9,-80.75 1080.96,-85.6"/>
</a>
</g>
</g>
<!-- Node14&#45;&gt;Node4 -->
<g id="edge20_Node000014_Node000004" class="edge">
<title>Node14&#45;&gt;Node4</title>
<g id="a_edge20_Node000014_Node000004"><a xlink:title=" ">
<path fill="none" stroke="#63b8ff" d="M619.22,-54.84C640.02,-46.39 671.35,-33.65 695.05,-24.02"/>
<polygon fill="#63b8ff" stroke="#63b8ff" points="696.32,-27.28 704.27,-20.27 693.68,-20.8 696.32,-27.28"/>
</a>
</g>
</g>
<!-- Node14&#45;&gt;Node9 -->
<g id="edge21_Node000014_Node000009" class="edge">
<title>Node14&#45;&gt;Node9</title>
<g id="a_edge21_Node000014_Node000009"><a xlink:title=" ">
<path fill="none" stroke="#63b8ff" d="M662.73,-57.77C783.95,-46.5 1038.96,-22.8 1133.62,-14.01"/>
<polygon fill="#63b8ff" stroke="#63b8ff" points="1133.72,-17.51 1143.35,-13.1 1133.07,-10.54 1133.72,-17.51"/>
</a>
</g>
</g>
<!-- Node15&#45;&gt;Node3 -->
<g id="edge23_Node000015_Node000003" class="edge">
<title>Node15&#45;&gt;Node3</title>
<g id="a_edge23_Node000015_Node000003"><a xlink:title=" ">
<path fill="none" stroke="#63b8ff" d="M1349.56,-110.35C1349.35,-97.11 1350.76,-71.81 1363,-55.25 1375.55,-38.28 1396.55,-27.03 1414.16,-20.07"/>
<polygon fill="#63b8ff" stroke="#63b8ff" points="1415.22,-23.4 1423.42,-16.7 1412.83,-16.82 1415.22,-23.4"/>
</a>
</g>
</g>
<!-- Node15&#45;&gt;Node9 -->
<g id="edge25_Node000015_Node000009" class="edge">
<title>Node15&#45;&gt;Node9</title>
<g id="a_edge25_Node000015_Node000009"><a xlink:title=" ">
<path fill="none" stroke="#63b8ff" d="M1343.2,-110.08C1332.57,-96.49 1310.74,-70.75 1287,-55.25 1262.01,-38.94 1230.18,-27.29 1206.03,-19.99"/>
<polygon fill="#63b8ff" stroke="#63b8ff" points="1207.23,-16.69 1196.65,-17.27 1205.28,-23.42 1207.23,-16.69"/>
</a>
</g>
</g>
<!-- Node15&#45;&gt;Node11 -->
<g id="edge24_Node000015_Node000011" class="edge">
<title>Node15&#45;&gt;Node11</title>
<g id="a_edge24_Node000015_Node000011"><a xlink:title=" ">
<path fill="none" stroke="#63b8ff" d="M1306.45,-110.03C1263.09,-100.98 1196.4,-87.05 1149.53,-77.26"/>
<polygon fill="#63b8ff" stroke="#63b8ff" points="1150.35,-73.86 1139.85,-75.24 1148.92,-80.71 1150.35,-73.86"/>
</a>
</g>
</g>
<!-- Node16&#45;&gt;Node9 -->
<g id="edge29_Node000016_Node000009" class="edge">
<title>Node16&#45;&gt;Node9</title>
<g id="a_edge29_Node000016_Node000009"><a xlink:title=" ">
<path fill="none" stroke="#63b8ff" d="M917.92,-110.2C918.31,-96.28 921.21,-69.53 937,-55.25 965.43,-29.53 1075.74,-17.62 1133.8,-13.03"/>
<polygon fill="#63b8ff" stroke="#63b8ff" points="1133.79,-16.54 1143.5,-12.3 1133.27,-9.56 1133.79,-16.54"/>
</a>
</g>
</g>
<!-- Node16&#45;&gt;Node11 -->
<g id="edge28_Node000016_Node000011" class="edge">
<title>Node16&#45;&gt;Node11</title>
<g id="a_edge28_Node000016_Node000011"><a xlink:title=" ">
<path fill="none" stroke="#63b8ff" d="M948.03,-110.09C977.14,-101.33 1021.54,-87.98 1053.92,-78.23"/>
<polygon fill="#63b8ff" stroke="#63b8ff" points="1054.81,-81.62 1063.38,-75.39 1052.79,-74.92 1054.81,-81.62"/>
</a>
</g>
</g>
<!-- Node17 -->
<g id="Node000017" class="node">
<title>Node17</title>
<g id="a_Node000017"><a xlink:title=" ">
<polygon fill="#e0e0e0" stroke="#999999" points="991.62,-74.5 946.38,-74.5 946.38,-55.25 991.62,-55.25 991.62,-74.5"/>
<text xml:space="preserve" text-anchor="middle" x="969" y="-61" font-family="Helvetica,sans-Serif" font-size="10.00">stdio.h</text>
</a>
</g>
</g>
<!-- Node16&#45;&gt;Node17 -->
<g id="edge27_Node000016_Node000017" class="edge">
<title>Node16&#45;&gt;Node17</title>
<g id="a_edge27_Node000016_Node000017"><a xlink:title=" ">
<path fill="none" stroke="#63b8ff" d="M926.42,-110.33C933.54,-102.9 943.94,-92.04 952.69,-82.91"/>
<polygon fill="#63b8ff" stroke="#63b8ff" points="954.96,-85.6 959.35,-75.95 949.9,-80.75 954.96,-85.6"/>
</a>
</g>
</g>
<!-- Node18&#45;&gt;Node4 -->
<g id="edge31_Node000018_Node000004" class="edge">
<title>Node18&#45;&gt;Node4</title>
<g id="a_edge31_Node000018_Node000004"><a xlink:title=" ">
<path fill="none" stroke="#63b8ff" d="M769.32,-110.25C762.1,-92.84 745.94,-53.87 736.1,-30.16"/>
<polygon fill="#63b8ff" stroke="#63b8ff" points="739.38,-28.92 732.31,-21.02 732.91,-31.6 739.38,-28.92"/>
</a>
</g>
</g>
<!-- Node18&#45;&gt;Node9 -->
<g id="edge33_Node000018_Node000009" class="edge">
<title>Node18&#45;&gt;Node9</title>
<g id="a_edge33_Node000018_Node000009"><a xlink:title=" ">
<path fill="none" stroke="#63b8ff" d="M777.06,-110.31C784.15,-96.05 800.23,-68.2 823,-55.25 875.47,-25.39 1055.7,-15 1133.62,-11.84"/>
<polygon fill="#63b8ff" stroke="#63b8ff" points="1133.41,-15.35 1143.27,-11.47 1133.14,-8.36 1133.41,-15.35"/>
</a>
</g>
</g>
<!-- Node18&#45;&gt;Node11 -->
<g id="edge32_Node000018_Node000011" class="edge">
<title>Node18&#45;&gt;Node11</title>
<g id="a_edge32_Node000018_Node000011"><a xlink:title=" ">
<path fill="none" stroke="#63b8ff" d="M810.25,-112.96C865.81,-103.78 970.86,-86.4 1036.67,-75.52"/>
<polygon fill="#63b8ff" stroke="#63b8ff" points="1036.89,-79.03 1046.18,-73.95 1035.74,-72.13 1036.89,-79.03"/>
</a>
</g>
</g>
<!-- Node19&#45;&gt;Node3 -->
<g id="edge36_Node000019_Node000003" class="edge">
<title>Node19&#45;&gt;Node3</title>
<g id="a_edge36_Node000019_Node000003"><a xlink:title=" ">
<path fill="none" stroke="#63b8ff" d="M1501.69,-110.21C1514.13,-97.65 1532.89,-74.15 1522,-55.25 1512.06,-38.01 1492.64,-26.82 1475.78,-19.96"/>
<polygon fill="#63b8ff" stroke="#63b8ff" points="1477.22,-16.76 1466.63,-16.58 1474.8,-23.33 1477.22,-16.76"/>
</a>
</g>
</g>
<!-- Node19&#45;&gt;Node9 -->
<g id="edge38_Node000019_Node000009" class="edge">
<title>Node19&#45;&gt;Node9</title>
<g id="a_edge38_Node000019_Node000009"><a xlink:title=" ">
<path fill="none" stroke="#63b8ff" d="M1494.69,-110.39C1498.29,-96.74 1502.76,-70.34 1489,-55.25 1451.8,-14.46 1282.24,-10.04 1206.6,-10.16"/>
<polygon fill="#63b8ff" stroke="#63b8ff" points="1206.8,-6.66 1196.82,-10.2 1206.84,-13.66 1206.8,-6.66"/>
</a>
</g>
</g>
<!-- Node19&#45;&gt;Node11 -->
<g id="edge37_Node000019_Node000011" class="edge">
<title>Node19&#45;&gt;Node11</title>
<g id="a_edge37_Node000019_Node000011"><a xlink:title=" ">
<path fill="none" stroke="#63b8ff" d="M1453.21,-113.92C1383.31,-104.55 1235.84,-84.77 1153.59,-73.73"/>
<polygon fill="#63b8ff" stroke="#63b8ff" points="1154.06,-70.27 1143.68,-72.41 1153.13,-77.2 1154.06,-70.27"/>
</a>
</g>
</g>
<!-- Node20&#45;&gt;Node9 -->
<g id="edge40_Node000020_Node000009" class="edge">
<title>Node20&#45;&gt;Node9</title>
<g id="a_edge40_Node000020_Node000009"><a xlink:title=" ">
<path fill="none" stroke="#63b8ff" d="M1611.47,-56.82C1606.91,-56.28 1602.38,-55.75 1598,-55.25 1453.15,-38.78 1280.44,-21.49 1206.51,-14.2"/>
<polygon fill="#63b8ff" stroke="#63b8ff" points="1206.9,-10.72 1196.61,-13.22 1206.22,-17.69 1206.9,-10.72"/>
</a>
</g>
</g>
<!-- Node21&#45;&gt;Node3 -->
<g id="edge42_Node000021_Node000003" class="edge">
<title>Node21&#45;&gt;Node3</title>
<g id="a_edge42_Node000021_Node000003"><a xlink:title=" ">
<path fill="none" stroke="#63b8ff" d="M1876.4,-110.48C1902.86,-98.61 1942.2,-76.32 1923,-55.25 1892.93,-22.24 1578.28,-13.23 1476.54,-11.16"/>
<polygon fill="#63b8ff" stroke="#63b8ff" points="1476.8,-7.67 1466.73,-10.98 1476.66,-14.67 1476.8,-7.67"/>
</a>
</g>
</g>
<!-- Node21&#45;&gt;Node9 -->
<g id="edge47_Node000021_Node000009" class="edge">
<title>Node21&#45;&gt;Node9</title>
<g id="a_edge47_Node000021_Node000009"><a xlink:title=" ">
<path fill="none" stroke="#63b8ff" d="M1866.29,-110.18C1881.69,-96.95 1905.68,-71.93 1890,-55.25 1878.16,-42.66 1351.17,-18.59 1206.44,-12.21"/>
<polygon fill="#63b8ff" stroke="#63b8ff" points="1206.81,-8.72 1196.67,-11.78 1206.51,-15.72 1206.81,-8.72"/>
</a>
</g>
</g>
<!-- Node21&#45;&gt;Node11 -->
<g id="edge46_Node000021_Node000011" class="edge">
<title>Node21&#45;&gt;Node11</title>
<g id="a_edge46_Node000021_Node000011"><a xlink:title=" ">
<path fill="none" stroke="#63b8ff" d="M1833.46,-117.86C1750.39,-112.96 1442.91,-94.46 1190,-74.5 1178.24,-73.57 1165.67,-72.49 1153.65,-71.42"/>
<polygon fill="#63b8ff" stroke="#63b8ff" points="1154.12,-67.95 1143.84,-70.53 1153.49,-74.92 1154.12,-67.95"/>
</a>
</g>
</g>
<!-- Node22 -->
<g id="Node000022" class="node">
<title>Node22</title>
<g id="a_Node000022"><a xlink:title=" ">
<polygon fill="#e0e0e0" stroke="#999999" points="2026.62,-74.5 1975.38,-74.5 1975.38,-55.25 2026.62,-55.25 2026.62,-74.5"/>
<text xml:space="preserve" text-anchor="middle" x="2001" y="-61" font-family="Helvetica,sans-Serif" font-size="10.00">netcdf.h</text>
</a>
</g>
</g>
<!-- Node21&#45;&gt;Node22 -->
<g id="edge43_Node000021_Node000022" class="edge">
<title>Node21&#45;&gt;Node22</title>
<g id="a_edge43_Node000021_Node000022"><a xlink:title=" ">
<path fill="none" stroke="#63b8ff" d="M1876.54,-111.27C1900,-102.71 1937.88,-88.89 1965.7,-78.75"/>
<polygon fill="#63b8ff" stroke="#63b8ff" points="1966.57,-82.16 1974.77,-75.44 1964.17,-75.58 1966.57,-82.16"/>
</a>
</g>
</g>
<!-- Node23 -->
<g id="Node000023" class="node">
<title>Node23</title>
<g id="a_Node000023"><a xlink:title=" ">
<polygon fill="#e0e0e0" stroke="#999999" points="1811.62,-74.5 1742.38,-74.5 1742.38,-55.25 1811.62,-55.25 1811.62,-74.5"/>
<text xml:space="preserve" text-anchor="middle" x="1777" y="-61" font-family="Helvetica,sans-Serif" font-size="10.00">netcdf_par.h</text>
</a>
</g>
</g>
<!-- Node21&#45;&gt;Node23 -->
<g id="edge44_Node000021_Node000023" class="edge">
<title>Node21&#45;&gt;Node23</title>
<g id="a_edge44_Node000021_Node000023"><a xlink:title=" ">
<path fill="none" stroke="#63b8ff" d="M1841.77,-110.09C1830.23,-102.21 1813.23,-90.61 1799.55,-81.27"/>
<polygon fill="#63b8ff" stroke="#63b8ff" points="1801.78,-78.55 1791.55,-75.81 1797.83,-84.33 1801.78,-78.55"/>
</a>
</g>
</g>
<!-- Node24 -->
<g id="Node000024" class="node">
<title>Node24</title>
<g id="a_Node000024"><a xlink:title=" ">
<polygon fill="#e0e0e0" stroke="#999999" points="1880.62,-74.5 1829.38,-74.5 1829.38,-55.25 1880.62,-55.25 1880.62,-74.5"/>
<text xml:space="preserve" text-anchor="middle" x="1855" y="-61" font-family="Helvetica,sans-Serif" font-size="10.00">stddef.h</text>
</a>
</g>
</g>
<!-- Node21&#45;&gt;Node24 -->
<g id="edge45_Node000021_Node000024" class="edge">
<title>Node21&#45;&gt;Node24</title>
<g id="a_edge45_Node000021_Node000024"><a xlink:title=" ">
<path fill="none" stroke="#63b8ff" d="M1855,-110.33C1855,-103.82 1855,-94.67 1855,-86.37"/>
<polygon fill="#63b8ff" stroke="#63b8ff" points="1858.5,-86.37 1855,-76.37 1851.5,-86.37 1858.5,-86.37"/>
</a>
</g>
</g>
<!-- Node26&#45;&gt;Node9 -->
<g id="edge51_Node000026_Node000009" class="edge">
<title>Node26&#45;&gt;Node9</title>
<g id="a_edge51_Node000026_Node000009"><a xlink:title=" ">
<path fill="none" stroke="#63b8ff" d="M1198.46,-110.25C1193.51,-92.92 1182.46,-54.23 1175.67,-30.49"/>
<polygon fill="#63b8ff" stroke="#63b8ff" points="1179.1,-29.74 1172.99,-21.08 1172.37,-31.66 1179.1,-29.74"/>
</a>
</g>
</g>
<!-- Node26&#45;&gt;Node11 -->
<g id="edge50_Node000026_Node000011" class="edge">
<title>Node26&#45;&gt;Node11</title>
<g id="a_edge50_Node000026_Node000011"><a xlink:title=" ">
<path fill="none" stroke="#63b8ff" d="M1183.02,-110.09C1166.65,-101.87 1142.21,-89.59 1123.24,-80.06"/>
<polygon fill="#63b8ff" stroke="#63b8ff" points="1124.93,-76.99 1114.42,-75.63 1121.79,-83.25 1124.93,-76.99"/>
</a>
</g>
</g>
<!-- Node27&#45;&gt;Node4 -->
<g id="edge53_Node000027_Node000004" class="edge">
<title>Node27&#45;&gt;Node4</title>
<g id="a_edge53_Node000027_Node000004"><a xlink:title=" ">
<path fill="none" stroke="#63b8ff" d="M576.16,-110.04C606.24,-103.49 642.38,-92.53 671,-74.5 689.62,-62.77 705.77,-43.24 716.08,-28.86"/>
<polygon fill="#63b8ff" stroke="#63b8ff" points="718.88,-30.96 721.65,-20.73 713.11,-27 718.88,-30.96"/>
</a>
</g>
</g>
<!-- Node27&#45;&gt;Node9 -->
<g id="edge55_Node000027_Node000009" class="edge">
<title>Node27&#45;&gt;Node9</title>
<g id="a_edge55_Node000027_Node000009"><a xlink:title=" ">
<path fill="none" stroke="#63b8ff" d="M551.25,-110.09C603.79,-96.5 707.59,-70.75 797,-55.25 919.76,-33.97 1067.01,-19.6 1133.84,-13.68"/>
<polygon fill="#63b8ff" stroke="#63b8ff" points="1133.82,-17.19 1143.48,-12.83 1133.21,-10.22 1133.82,-17.19"/>
</a>
</g>
</g>
<!-- Node27&#45;&gt;Node11 -->
<g id="edge54_Node000027_Node000011" class="edge">
<title>Node27&#45;&gt;Node11</title>
<g id="a_edge54_Node000027_Node000011"><a xlink:title=" ">
<path fill="none" stroke="#63b8ff" d="M581.96,-111.45C585.02,-111.12 588.04,-110.8 591,-110.5 772.98,-91.91 818.81,-90.86 1001,-74.5 1012.38,-73.48 1024.54,-72.37 1036.21,-71.3"/>
<polygon fill="#63b8ff" stroke="#63b8ff" points="1036.52,-74.79 1046.16,-70.39 1035.88,-67.82 1036.52,-74.79"/>
</a>
</g>
</g>
<!-- Node28&#45;&gt;Node3 -->
<g id="edge57_Node000028_Node000003" class="edge">
<title>Node28&#45;&gt;Node3</title>
<g id="a_edge57_Node000028_Node000003"><a xlink:title=" ">
<path fill="none" stroke="#63b8ff" d="M890.58,-60.34C904.63,-58.71 921.67,-56.79 937,-55.25 1117.14,-37.12 1333.65,-19.48 1413.47,-13.11"/>
<polygon fill="#63b8ff" stroke="#63b8ff" points="1413.46,-16.63 1423.15,-12.35 1412.9,-9.65 1413.46,-16.63"/>
</a>
</g>
</g>
<!-- Node28&#45;&gt;Node4 -->
<g id="edge58_Node000028_Node000004" class="edge">
<title>Node28&#45;&gt;Node4</title>
<g id="a_edge58_Node000028_Node000004"><a xlink:title=" ">
<path fill="none" stroke="#63b8ff" d="M838.44,-54.84C817.23,-46.35 785.23,-33.54 761.12,-23.89"/>
<polygon fill="#63b8ff" stroke="#63b8ff" points="762.66,-20.73 752.08,-20.27 760.06,-27.23 762.66,-20.73"/>
</a>
</g>
</g>
<!-- Node28&#45;&gt;Node9 -->
<g id="edge59_Node000028_Node000009" class="edge">
<title>Node28&#45;&gt;Node9</title>
<g id="a_edge59_Node000028_Node000009"><a xlink:title=" ">
<path fill="none" stroke="#63b8ff" d="M890.58,-57.81C895.07,-56.93 899.66,-56.05 904,-55.25 985.82,-40.19 1082.18,-24.54 1133.5,-16.37"/>
<polygon fill="#63b8ff" stroke="#63b8ff" points="1133.82,-19.86 1143.15,-14.84 1132.73,-12.95 1133.82,-19.86"/>
</a>
</g>
</g>
<!-- Node29&#45;&gt;Node9 -->
<g id="edge61_Node000029_Node000009" class="edge">
<title>Node29&#45;&gt;Node9</title>
<g id="a_edge61_Node000029_Node000009"><a xlink:title=" ">
<path fill="none" stroke="#63b8ff" d="M1226.46,-54.84C1216.54,-47.07 1201.99,-35.67 1190.14,-26.4"/>
<polygon fill="#63b8ff" stroke="#63b8ff" points="1192.59,-23.87 1182.56,-20.46 1188.27,-29.38 1192.59,-23.87"/>
</a>
</g>
</g>
</g>
</svg>

<g id="navigator" transform="translate(0 0)" fill="#404254">
  <rect fill="#f2f5e9" fill-opacity="0.5" stroke="#606060" stroke-width=".5" x="0" y="0" width="60" height="60"/>
  <use id="zoomplus" xlink:href="#zoomPlus" x="17" y="9" onmousedown="handleZoom(evt,'in')"/>
  <use id="zoomminus" xlink:href="#zoomMin" x="42" y="9" onmousedown="handleZoom(evt,'out')"/>
  <use id="reset" xlink:href="#resetDef" x="30" y="36" onmousedown="handleReset()"/>
   <use id="arrowup" xlink:href="#arrowUp" x="0" y="0" onmousedown="handlePan(0,-1)"/>
  <use id="arrowright" xlink:href="#arrowRight" x="0" y="0" onmousedown="handlePan(1,0)"/>
  <use id="arrowdown" xlink:href="#arrowDown" x="0" y="0" onmousedown="handlePan(0,1)"/>
  <use id="arrowleft" xlink:href="#arrowLeft" x="0" y="0" onmousedown="handlePan(-1,0)"/>
</g>
<svg viewBox="0 0 15 15" width="100%" height="30px" preserveAspectRatio="xMaxYMin meet">
 <g id="arrow_out" transform="scale(0.3 0.3)">
  <a xlink:href="interpolation__driver_8c__incl_org.svg" target="_base">
   <rect id="button" ry="5" rx="5" y="6" x="6" height="38" width="38"
        fill="#f2f5e9" fill-opacity="0.5" stroke="#606060" stroke-width="1.0"/>
   <path id="arrow"
     d="M 11.500037,31.436501 C 11.940474,20.09759 22.043105,11.32322 32.158766,21.979434 L 37.068811,17.246167 C 37.068811,17.246167 37.088388,32 37.088388,32 L 22.160133,31.978069 C 22.160133,31.978069 26.997745,27.140456 26.997745,27.140456 C 18.528582,18.264221 13.291696,25.230495 11.500037,31.436501 z"
     style="fill:#404040;"/>
  </a>
 </g>
</svg>

<style type='text/css'>
<![CDATA[
[data-mouse-over-selected='false'] { opacity: 0.7; }
[data-mouse-over-selected='true']  { opacity: 1.0; }
]]>
</style>
<script type="application/ecmascript"><![CDATA[
document.addEventListener('DOMContentLoaded', (event) => {
  highlightEdges();
  highlightAdjacentNodes();
});
]]></script>
</svg>
