<?xml version="1.0" encoding="UTF-8" standalone="no"?>
<!DOCTYPE svg PUBLIC "-//W3C//DTD SVG 1.1//EN"
 "http://www.w3.org/Graphics/SVG/1.1/DTD/svg11.dtd">
<!-- Generated by graphviz version 14.0.0 (20250921.2048)
 -->
<!-- Title: create_vlocg_table Pages: 1 -->
<svg width="348pt" height="175pt"
 viewBox="0.00 0.00 348.00 175.00" xmlns="http://www.w3.org/2000/svg" xmlns:xlink="http://www.w3.org/1999/xlink">

<svg id="main" version="1.1" xmlns="http://www.w3.org/2000/svg" xmlns:xlink="http://www.w3.org/1999/xlink" xml:space="preserve">

<style type="text/css"><![CDATA[
.node, .edge {opacity: 0.7;}
.node.selected, .edge.selected {opacity: 1;}
.edge:hover path { stroke: red; }
.edge:hover polygon { stroke: red; fill: red; }
]]></style>
<script type="application/ecmascript" xlink:href="../../svg.min.js"/>
<svg id="graph" class="graph">
<g id="graph0" class="graph" transform="scale(1 1) rotate(0) translate(4 171.25)">
<title>create_vlocg_table</title>
<!-- Node1 -->
<g id="Node000001" class="node">
<title>Node1</title>
<g id="a_Node000001"><a xlink:title=" ">
<polygon fill="#999999" stroke="#666666" points="97.75,-93.25 0,-93.25 0,-74 97.75,-74 97.75,-93.25"/>
<text xml:space="preserve" text-anchor="middle" x="48.88" y="-79.75" font-family="Helvetica,sans-Serif" font-size="10.00">create_vlocg_table</text>
</a>
</g>
</g>
<!-- Node2 -->
<g id="Node000002" class="node">
<title>Node2</title>
<g id="a_Node000002"><a xlink:href="../../da/d97/_e_l_p_h__timers_8c.html#a4846a0dbe6a17751878baf1315af43aa" target="_top" xlink:title=" ">
<polygon fill="white" stroke="#666666" points="240.12,-167.25 144.62,-167.25 144.62,-148 240.12,-148 240.12,-167.25"/>
<text xml:space="preserve" text-anchor="middle" x="192.38" y="-153.75" font-family="Helvetica,sans-Serif" font-size="10.00">ELPH_start_clock</text>
</a>
</g>
</g>
<!-- Node1&#45;&gt;Node2 -->
<g id="edge1_Node000001_Node000002" class="edge">
<title>Node1&#45;&gt;Node2</title>
<g id="a_edge1_Node000001_Node000002"><a xlink:title=" ">
<path fill="none" stroke="#63b8ff" d="M62.26,-93.56C78.06,-105.83 106.58,-126.64 133.75,-139.62 136.68,-141.02 139.74,-142.35 142.86,-143.59"/>
<polygon fill="#63b8ff" stroke="#63b8ff" points="141.57,-146.85 152.16,-147 143.98,-140.27 141.57,-146.85"/>
</a>
</g>
</g>
<!-- Node3 -->
<g id="Node000003" class="node">
<title>Node3</title>
<g id="a_Node000003"><a xlink:href="../../da/d97/_e_l_p_h__timers_8c.html#adcc3002449fe62895b6e89571d00ba48" target="_top" xlink:title=" ">
<polygon fill="white" stroke="#666666" points="239.75,-130.25 145,-130.25 145,-111 239.75,-111 239.75,-130.25"/>
<text xml:space="preserve" text-anchor="middle" x="192.38" y="-116.75" font-family="Helvetica,sans-Serif" font-size="10.00">ELPH_stop_clock</text>
</a>
</g>
</g>
<!-- Node1&#45;&gt;Node3 -->
<g id="edge2_Node000001_Node000003" class="edge">
<title>Node1&#45;&gt;Node3</title>
<g id="a_edge2_Node000001_Node000003"><a xlink:title=" ">
<path fill="none" stroke="#63b8ff" d="M88.54,-93.74C104.92,-98.02 124.21,-103.06 141.63,-107.62"/>
<polygon fill="#63b8ff" stroke="#63b8ff" points="140.73,-111 151.29,-110.14 142.5,-104.23 140.73,-111"/>
</a>
</g>
</g>
<!-- Node4 -->
<g id="Node000004" class="node">
<title>Node4</title>
<g id="a_Node000004"><a xlink:href="../../d9/d54/parallel_8c.html#a772905c8b6c33d03f3c8eb15bafdb129" target="_top" xlink:title=" ">
<polygon fill="white" stroke="#666666" points="251,-93.25 133.75,-93.25 133.75,-74 251,-74 251,-93.25"/>
<text xml:space="preserve" text-anchor="middle" x="192.38" y="-79.75" font-family="Helvetica,sans-Serif" font-size="10.00">get_mpi_local_size_idx</text>
</a>
</g>
</g>
<!-- Node1&#45;&gt;Node4 -->
<g id="edge3_Node000001_Node000004" class="edge">
<title>Node1&#45;&gt;Node4</title>
<g id="a_edge3_Node000001_Node000004"><a xlink:title=" ">
<path fill="none" stroke="#63b8ff" d="M98.18,-83.62C105.9,-83.62 114.03,-83.62 122.13,-83.62"/>
<polygon fill="#63b8ff" stroke="#63b8ff" points="122,-87.13 132,-83.63 122,-80.13 122,-87.13"/>
</a>
</g>
</g>
<!-- Node5 -->
<g id="Node000005" class="node">
<title>Node5</title>
<g id="a_Node000005"><a xlink:href="../../d3/dcb/spline_8c.html#a2a321b037cb6355f79bf6ad4213814b5" target="_top" xlink:title=" ">
<polygon fill="white" stroke="#666666" points="231.88,-56.25 152.88,-56.25 152.88,-37 231.88,-37 231.88,-56.25"/>
<text xml:space="preserve" text-anchor="middle" x="192.38" y="-42.75" font-family="Helvetica,sans-Serif" font-size="10.00">prepare_spline</text>
</a>
</g>
</g>
<!-- Node1&#45;&gt;Node5 -->
<g id="edge4_Node000001_Node000005" class="edge">
<title>Node1&#45;&gt;Node5</title>
<g id="a_edge4_Node000001_Node000005"><a xlink:title=" ">
<path fill="none" stroke="#63b8ff" d="M88.54,-73.51C104.92,-69.23 124.21,-64.19 141.63,-59.63"/>
<polygon fill="#63b8ff" stroke="#63b8ff" points="142.5,-63.02 151.29,-57.11 140.73,-56.25 142.5,-63.02"/>
</a>
</g>
</g>
<!-- Node6 -->
<g id="Node000006" class="node">
<title>Node6</title>
<g id="a_Node000006"><a xlink:href="../../d7/d4b/_vloc_g__atom_8c.html#add0b1159d0f5437a3365e512d83f5d46" target="_top" xlink:title=" ">
<polygon fill="white" stroke="#666666" points="229.62,-19.25 155.12,-19.25 155.12,0 229.62,0 229.62,-19.25"/>
<text xml:space="preserve" text-anchor="middle" x="192.38" y="-5.75" font-family="Helvetica,sans-Serif" font-size="10.00">Vloc_Gspace</text>
</a>
</g>
</g>
<!-- Node1&#45;&gt;Node6 -->
<g id="edge5_Node000001_Node000006" class="edge">
<title>Node1&#45;&gt;Node6</title>
<g id="a_edge5_Node000001_Node000006"><a xlink:title=" ">
<path fill="none" stroke="#63b8ff" d="M62.26,-73.69C78.06,-61.42 106.58,-40.61 133.75,-27.62 137.06,-26.04 140.54,-24.56 144.09,-23.17"/>
<polygon fill="#63b8ff" stroke="#63b8ff" points="145.16,-26.51 153.38,-19.83 142.78,-19.92 145.16,-26.51"/>
</a>
</g>
</g>
<!-- Node7 -->
<g id="Node000007" class="node">
<title>Node7</title>
<g id="a_Node000007"><a xlink:href="../../de/d2d/numerical__func_8c.html#acfc7eb8519ce75ef3c61facd19cfa0af" target="_top" xlink:title=" ">
<polygon fill="white" stroke="#666666" points="339.75,-19.25 287,-19.25 287,0 339.75,0 339.75,-19.25"/>
<text xml:space="preserve" text-anchor="middle" x="313.38" y="-5.75" font-family="Helvetica,sans-Serif" font-size="10.00">simpson</text>
</a>
</g>
</g>
<!-- Node6&#45;&gt;Node7 -->
<g id="edge6_Node000006_Node000007" class="edge">
<title>Node6&#45;&gt;Node7</title>
<g id="a_edge6_Node000006_Node000007"><a xlink:title=" ">
<path fill="none" stroke="#63b8ff" d="M230.05,-9.62C244.35,-9.62 260.72,-9.62 275.08,-9.62"/>
<polygon fill="#63b8ff" stroke="#63b8ff" points="275.06,-13.13 285.06,-9.63 275.06,-6.13 275.06,-13.13"/>
</a>
</g>
</g>
</g>
</svg>
</svg>

<style type='text/css'>
<![CDATA[
[data-mouse-over-selected='false'] { opacity: 0.7; }
[data-mouse-over-selected='true']  { opacity: 1.0; }
]]>
</style>
<script type="application/ecmascript"><![CDATA[
document.addEventListener('DOMContentLoaded', (event) => {
  highlightEdges();
  highlightAdjacentNodes();
});
]]></script>
</svg>
