<?xml version="1.0" encoding="UTF-8" standalone="no"?>
<!DOCTYPE svg PUBLIC "-//W3C//DTD SVG 1.1//EN"
 "http://www.w3.org/Graphics/SVG/1.1/DTD/svg11.dtd">
<!-- Generated by graphviz version 14.0.0 (20250921.2048)
 -->
<!-- Title: print_info_msg Pages: 1 -->
<svg width="423pt" height="141pt"
 viewBox="0.00 0.00 423.00 141.00" xmlns="http://www.w3.org/2000/svg" xmlns:xlink="http://www.w3.org/1999/xlink">
<g id="graph0" class="graph" transform="scale(1 1) rotate(0) translate(4 136.97)">
<title>print_info_msg</title>
<!-- Node1 -->
<g id="Node000001" class="node">
<title>Node1</title>
<g id="a_Node000001"><a xlink:title=" ">
<polygon fill="#999999" stroke="#666666" points="415,-77.19 335.25,-77.19 335.25,-57.94 415,-57.94 415,-77.19"/>
<text xml:space="preserve" text-anchor="middle" x="375.12" y="-63.69" font-family="Helvetica,sans-Serif" font-size="10.00">print_info_msg</text>
</a>
</g>
</g>
<!-- Node2 -->
<g id="Node000002" class="node">
<title>Node2</title>
<g id="a_Node000002"><a xlink:href="../../da/d2e/elph__driver_8c.html#ad9f405d41cf090d652dbe1307700665f" target="_top" xlink:title=" ">
<polygon fill="white" stroke="#666666" points="153.5,-77.19 90.25,-77.19 90.25,-57.94 153.5,-57.94 153.5,-77.19"/>
<text xml:space="preserve" text-anchor="middle" x="121.88" y="-63.69" font-family="Helvetica,sans-Serif" font-size="10.00">elph_driver</text>
</a>
</g>
</g>
<!-- Node1&#45;&gt;Node2 -->
<g id="edge1_Node000001_Node000002" class="edge">
<title>Node1&#45;&gt;Node2</title>
<g id="a_edge1_Node000001_Node000002"><a xlink:title=" ">
<path fill="none" stroke="#63b8ff" d="M356.99,-85.56C342.93,-98.92 321.74,-116.09 299.25,-123.57 260.24,-136.54 246.09,-135.5 206.75,-123.57 176.92,-114.53 148.02,-90.99 133.18,-77.48"/>
<polygon fill="#63b8ff" stroke="#63b8ff" points="359.44,-88.06 364.07,-78.52 354.51,-83.09 359.44,-88.06"/>
</a>
</g>
</g>
<!-- Node4 -->
<g id="Node000004" class="node">
<title>Node4</title>
<g id="a_Node000004"><a xlink:href="../../da/dc2/interpolation__driver_8c.html#aecc42ae41d168b486807b337fcf5b3de" target="_top" xlink:title=" ">
<polygon fill="white" stroke="#666666" points="170.75,-21.19 73,-21.19 73,-1.94 170.75,-1.94 170.75,-21.19"/>
<text xml:space="preserve" text-anchor="middle" x="121.88" y="-7.69" font-family="Helvetica,sans-Serif" font-size="10.00">interpolation_driver</text>
</a>
</g>
</g>
<!-- Node1&#45;&gt;Node4 -->
<g id="edge3_Node000001_Node000004" class="edge">
<title>Node1&#45;&gt;Node4</title>
<g id="a_edge3_Node000001_Node000004"><a xlink:title=" ">
<path fill="none" stroke="#63b8ff" d="M356.99,-49.58C342.93,-36.22 321.74,-19.05 299.25,-11.57 257.55,2.3 207.18,0.62 170.97,-3.54"/>
<polygon fill="#63b8ff" stroke="#63b8ff" points="354.51,-52.05 364.07,-56.61 359.44,-47.08 354.51,-52.05"/>
</a>
</g>
</g>
<!-- Node5 -->
<g id="Node000005" class="node">
<title>Node5</title>
<g id="a_Node000005"><a xlink:href="../../d0/d47/print__info_8c.html#adb3b7b0aacb78adf3dfaa7f3c3225a74" target="_top" xlink:title=" ">
<polygon fill="white" stroke="#666666" points="294,-114.19 212,-114.19 212,-94.94 294,-94.94 294,-114.19"/>
<text xml:space="preserve" text-anchor="middle" x="253" y="-100.69" font-family="Helvetica,sans-Serif" font-size="10.00">print_input_info</text>
</a>
</g>
</g>
<!-- Node1&#45;&gt;Node5 -->
<g id="edge5_Node000001_Node000005" class="edge">
<title>Node1&#45;&gt;Node5</title>
<g id="a_edge5_Node000001_Node000005"><a xlink:title=" ">
<path fill="none" stroke="#63b8ff" d="M330.58,-80.98C316.12,-85.43 300.29,-90.31 286.78,-94.47"/>
<polygon fill="#63b8ff" stroke="#63b8ff" points="331.33,-84.41 339.85,-78.13 329.27,-77.72 331.33,-84.41"/>
</a>
</g>
</g>
<!-- Node6 -->
<g id="Node000006" class="node">
<title>Node6</title>
<g id="a_Node000006"><a xlink:href="../../d0/d47/print__info_8c.html#a4756b1a4eef6aa3f288e9cf5d36f9181" target="_top" xlink:title=" ">
<polygon fill="white" stroke="#666666" points="296.62,-77.19 209.38,-77.19 209.38,-57.94 296.62,-57.94 296.62,-77.19"/>
<text xml:space="preserve" text-anchor="middle" x="253" y="-63.69" font-family="Helvetica,sans-Serif" font-size="10.00">print_lattice_info</text>
</a>
</g>
</g>
<!-- Node1&#45;&gt;Node6 -->
<g id="edge7_Node000001_Node000006" class="edge">
<title>Node1&#45;&gt;Node6</title>
<g id="a_edge7_Node000001_Node000006"><a xlink:title=" ">
<path fill="none" stroke="#63b8ff" d="M323.36,-67.57C314.5,-67.57 305.36,-67.57 296.74,-67.57"/>
<polygon fill="#63b8ff" stroke="#63b8ff" points="323.28,-71.07 333.28,-67.57 323.28,-64.07 323.28,-71.07"/>
</a>
</g>
</g>
<!-- Node7 -->
<g id="Node000007" class="node">
<title>Node7</title>
<g id="a_Node000007"><a xlink:href="../../d0/d47/print__info_8c.html#a182cad49479fb16396c2f773341e360d" target="_top" xlink:title=" ">
<polygon fill="white" stroke="#666666" points="299.25,-40.19 206.75,-40.19 206.75,-20.94 299.25,-20.94 299.25,-40.19"/>
<text xml:space="preserve" text-anchor="middle" x="253" y="-26.69" font-family="Helvetica,sans-Serif" font-size="10.00">print_phonon_info</text>
</a>
</g>
</g>
<!-- Node1&#45;&gt;Node7 -->
<g id="edge9_Node000001_Node000007" class="edge">
<title>Node1&#45;&gt;Node7</title>
<g id="a_edge9_Node000001_Node000007"><a xlink:title=" ">
<path fill="none" stroke="#63b8ff" d="M330.58,-54.16C316.12,-49.7 300.29,-44.83 286.78,-40.67"/>
<polygon fill="#63b8ff" stroke="#63b8ff" points="329.27,-57.41 339.85,-57.01 331.33,-50.72 329.27,-57.41"/>
</a>
</g>
</g>
<!-- Node3 -->
<g id="Node000003" class="node">
<title>Node3</title>
<g id="a_Node000003"><a xlink:href="../../d3/dd5/main__elph_c_8c.html#a0ddf1224851353fc92bfbff6f499fa97" target="_top" xlink:title="Main program entry point.">
<polygon fill="white" stroke="#666666" points="37,-39.19 0,-39.19 0,-19.94 37,-19.94 37,-39.19"/>
<text xml:space="preserve" text-anchor="middle" x="18.5" y="-25.69" font-family="Helvetica,sans-Serif" font-size="10.00">main</text>
</a>
</g>
</g>
<!-- Node2&#45;&gt;Node3 -->
<g id="edge2_Node000002_Node000003" class="edge">
<title>Node2&#45;&gt;Node3</title>
<g id="a_edge2_Node000002_Node000003"><a xlink:title=" ">
<path fill="none" stroke="#63b8ff" d="M83.42,-53.53C67.62,-47.61 49.99,-41 37.25,-36.22"/>
<polygon fill="#63b8ff" stroke="#63b8ff" points="81.96,-56.72 92.56,-56.95 84.42,-50.17 81.96,-56.72"/>
</a>
</g>
</g>
<!-- Node4&#45;&gt;Node3 -->
<g id="edge4_Node000004_Node000003" class="edge">
<title>Node4&#45;&gt;Node3</title>
<g id="a_edge4_Node000004_Node000003"><a xlink:title=" ">
<path fill="none" stroke="#63b8ff" d="M61.33,-22.14C52.55,-23.7 44.14,-25.2 37.19,-26.43"/>
<polygon fill="#63b8ff" stroke="#63b8ff" points="61.84,-25.61 71.07,-20.41 60.61,-18.71 61.84,-25.61"/>
</a>
</g>
</g>
<!-- Node5&#45;&gt;Node2 -->
<g id="edge6_Node000005_Node000002" class="edge">
<title>Node5&#45;&gt;Node2</title>
<g id="a_edge6_Node000005_Node000002"><a xlink:title=" ">
<path fill="none" stroke="#63b8ff" d="M205.7,-91.3C188.43,-86.35 169.26,-80.86 153.72,-76.41"/>
<polygon fill="#63b8ff" stroke="#63b8ff" points="204.68,-94.65 215.26,-94.04 206.61,-87.92 204.68,-94.65"/>
</a>
</g>
</g>
<!-- Node6&#45;&gt;Node2 -->
<g id="edge8_Node000006_Node000002" class="edge">
<title>Node6&#45;&gt;Node2</title>
<g id="a_edge8_Node000006_Node000002"><a xlink:title=" ">
<path fill="none" stroke="#63b8ff" d="M197.75,-67.57C182.76,-67.57 167.01,-67.57 153.85,-67.57"/>
<polygon fill="#63b8ff" stroke="#63b8ff" points="197.49,-71.07 207.49,-67.57 197.49,-64.07 197.49,-71.07"/>
</a>
</g>
</g>
<!-- Node7&#45;&gt;Node2 -->
<g id="edge10_Node000007_Node000002" class="edge">
<title>Node7&#45;&gt;Node2</title>
<g id="a_edge10_Node000007_Node000002"><a xlink:title=" ">
<path fill="none" stroke="#63b8ff" d="M205.7,-43.84C188.43,-48.78 169.26,-54.28 153.72,-58.73"/>
<polygon fill="#63b8ff" stroke="#63b8ff" points="206.61,-47.22 215.26,-41.1 204.68,-40.49 206.61,-47.22"/>
</a>
</g>
</g>
</g>
</svg>
