<?xml version="1.0" encoding="UTF-8" standalone="no"?>
<!DOCTYPE svg PUBLIC "-//W3C//DTD SVG 1.1//EN"
 "http://www.w3.org/Graphics/SVG/1.1/DTD/svg11.dtd">
<!-- Generated by graphviz version 14.0.0 (20250921.2048)
 -->
<!-- Title: Pseudo Pages: 1 -->
<svg width="167pt" height="100pt"
 viewBox="0.00 0.00 167.00 100.00" xmlns="http://www.w3.org/2000/svg" xmlns:xlink="http://www.w3.org/1999/xlink">
<g id="graph0" class="graph" transform="scale(1 1) rotate(0) translate(4 95.75)">
<title>Pseudo</title>
<!-- Node1 -->
<g id="Node000001" class="node">
<title>Node1</title>
<g id="a_Node000001"><a xlink:title=" ">
<polygon fill="#999999" stroke="#666666" points="103,-19.25 54,-19.25 54,0 103,0 103,-19.25"/>
<text xml:space="preserve" text-anchor="middle" x="78.5" y="-5.75" font-family="Helvetica,sans-Serif" font-size="10.00">Pseudo</text>
</a>
</g>
</g>
<!-- Node2 -->
<g id="Node000002" class="node">
<title>Node2</title>
<g id="a_Node000002"><a xlink:href="../../dd/d45/structlocal__pseudo.html" target="_top" xlink:title=" ">
<polygon fill="white" stroke="#666666" points="73,-91.75 0,-91.75 0,-72.5 73,-72.5 73,-91.75"/>
<text xml:space="preserve" text-anchor="middle" x="36.5" y="-78.25" font-family="Helvetica,sans-Serif" font-size="10.00">local_pseudo</text>
</a>
</g>
</g>
<!-- Node2&#45;&gt;Node1 -->
<g id="edge1_Node000001_Node000002" class="edge">
<title>Node2&#45;&gt;Node1</title>
<g id="a_edge1_Node000001_Node000002"><a xlink:title=" ">
<path fill="none" stroke="#9a32cd" stroke-dasharray="5,2" d="M36.88,-60.61C37.8,-52.84 39.82,-44.21 44,-37.25 48.37,-29.99 55.52,-23.98 62.18,-19.53"/>
<polygon fill="#9a32cd" stroke="#9a32cd" points="33.39,-60.36 36.27,-70.55 40.38,-60.78 33.39,-60.36"/>
</a>
</g>
<text xml:space="preserve" text-anchor="start" x="47" y="-42" font-family="Helvetica,sans-Serif" font-size="10.00" fill="grey">loc_pseudo</text>
</g>
<!-- Node3 -->
<g id="Node000003" class="node">
<title>Node3</title>
<g id="a_Node000003"><a xlink:href="../../dc/dd2/struct_vloc__table.html" target="_top" xlink:title=" ">
<polygon fill="white" stroke="#666666" points="152.38,-91.75 90.62,-91.75 90.62,-72.5 152.38,-72.5 152.38,-91.75"/>
<text xml:space="preserve" text-anchor="middle" x="121.5" y="-78.25" font-family="Helvetica,sans-Serif" font-size="10.00">Vloc_table</text>
</a>
</g>
</g>
<!-- Node3&#45;&gt;Node1 -->
<g id="edge2_Node000001_Node000003" class="edge">
<title>Node3&#45;&gt;Node1</title>
<g id="a_edge2_Node000001_Node000003"><a xlink:title=" ">
<path fill="none" stroke="#9a32cd" stroke-dasharray="5,2" d="M112.84,-61.77C109.08,-53.95 104.41,-44.98 99.5,-37.25 95.58,-31.09 90.53,-24.65 86.37,-19.65"/>
<polygon fill="#9a32cd" stroke="#9a32cd" points="109.61,-63.12 116.99,-70.72 115.96,-60.18 109.61,-63.12"/>
</a>
</g>
<text xml:space="preserve" text-anchor="start" x="111.8" y="-42" font-family="Helvetica,sans-Serif" font-size="10.00" fill="grey">vloc_table</text>
</g>
</g>
</svg>
