<?xml version="1.0" encoding="UTF-8" standalone="no"?>
<!DOCTYPE svg PUBLIC "-//W3C//DTD SVG 1.1//EN"
 "http://www.w3.org/Graphics/SVG/1.1/DTD/svg11.dtd">
<!-- Generated by graphviz version 14.0.0 (20250921.2048)
 -->
<!-- Title: ELPH_getopt_long_only Pages: 1 -->
<svg width="449pt" height="64pt"
 viewBox="0.00 0.00 449.00 64.00" xmlns="http://www.w3.org/2000/svg" xmlns:xlink="http://www.w3.org/1999/xlink">
<g id="graph0" class="graph" transform="scale(1 1) rotate(0) translate(4 60.25)">
<title>ELPH_getopt_long_only</title>
<!-- Node1 -->
<g id="Node000001" class="node">
<title>Node1</title>
<g id="a_Node000001"><a xlink:title=" ">
<polygon fill="#999999" stroke="#666666" points="121,-37.25 0,-37.25 0,-18 121,-18 121,-37.25"/>
<text xml:space="preserve" text-anchor="middle" x="60.5" y="-23.75" font-family="Helvetica,sans-Serif" font-size="10.00">ELPH_getopt_long_only</text>
</a>
</g>
</g>
<!-- Node2 -->
<g id="Node000002" class="node">
<title>Node2</title>
<g id="a_Node000002"><a xlink:href="../../d3/d2f/_e_l_p_h__getopt__long_8c.html#a8bcfc41ffd83b00297822b5644eb895d" target="_top" xlink:title=" ">
<polygon fill="white" stroke="#666666" points="236.75,-37.25 157,-37.25 157,-18 236.75,-18 236.75,-37.25"/>
<text xml:space="preserve" text-anchor="middle" x="196.88" y="-23.75" font-family="Helvetica,sans-Serif" font-size="10.00">getopt_internal</text>
</a>
</g>
</g>
<!-- Node1&#45;&gt;Node2 -->
<g id="edge1_Node000001_Node000002" class="edge">
<title>Node1&#45;&gt;Node2</title>
<g id="a_edge1_Node000001_Node000002"><a xlink:title=" ">
<path fill="none" stroke="#63b8ff" d="M121.22,-27.62C129.32,-27.62 137.57,-27.62 145.48,-27.62"/>
<polygon fill="#63b8ff" stroke="#63b8ff" points="145.27,-31.13 155.27,-27.63 145.27,-24.13 145.27,-31.13"/>
</a>
</g>
</g>
<!-- Node3 -->
<g id="Node000003" class="node">
<title>Node3</title>
<g id="a_Node000003"><a xlink:href="../../d3/d2f/_e_l_p_h__getopt__long_8c.html#a14371aa40dd013216c8d50e3d90ba5f1" target="_top" xlink:title=" ">
<polygon fill="white" stroke="#666666" points="372.75,-56.25 272.75,-56.25 272.75,-37 372.75,-37 372.75,-56.25"/>
<text xml:space="preserve" text-anchor="middle" x="322.75" y="-42.75" font-family="Helvetica,sans-Serif" font-size="10.00">parse_long_options</text>
</a>
</g>
</g>
<!-- Node2&#45;&gt;Node3 -->
<g id="edge2_Node000002_Node000003" class="edge">
<title>Node2&#45;&gt;Node3</title>
<g id="a_edge2_Node000002_Node000003"><a xlink:title=" ">
<path fill="none" stroke="#63b8ff" d="M237.07,-33.64C244.77,-34.82 253.01,-36.08 261.22,-37.34"/>
<polygon fill="#63b8ff" stroke="#63b8ff" points="260.44,-40.76 270.85,-38.82 261.5,-33.84 260.44,-40.76"/>
</a>
</g>
</g>
<!-- Node4 -->
<g id="Node000004" class="node">
<title>Node4</title>
<g id="a_Node000004"><a xlink:href="../../d3/d2f/_e_l_p_h__getopt__long_8c.html#a9c22539bcd7939ce1f988d443187bd38" target="_top" xlink:title=" ">
<polygon fill="white" stroke="#666666" points="360.38,-19.25 285.12,-19.25 285.12,0 360.38,0 360.38,-19.25"/>
<text xml:space="preserve" text-anchor="middle" x="322.75" y="-5.75" font-family="Helvetica,sans-Serif" font-size="10.00">permute_args</text>
</a>
</g>
</g>
<!-- Node2&#45;&gt;Node4 -->
<g id="edge3_Node000002_Node000004" class="edge">
<title>Node2&#45;&gt;Node4</title>
<g id="a_edge3_Node000002_Node000004"><a xlink:title=" ">
<path fill="none" stroke="#63b8ff" d="M237.07,-21.93C248.67,-20.24 261.51,-18.38 273.61,-16.62"/>
<polygon fill="#63b8ff" stroke="#63b8ff" points="274.03,-20.1 283.42,-15.19 273.02,-13.17 274.03,-20.1"/>
</a>
</g>
</g>
<!-- Node5 -->
<g id="Node000005" class="node">
<title>Node5</title>
<g id="a_Node000005"><a xlink:href="../../d3/d2f/_e_l_p_h__getopt__long_8c.html#ade4a5e5ef73343f680d9c75ddc6c5d24" target="_top" xlink:title=" ">
<polygon fill="white" stroke="#666666" points="440.5,-19.25 408.75,-19.25 408.75,0 440.5,0 440.5,-19.25"/>
<text xml:space="preserve" text-anchor="middle" x="424.62" y="-5.75" font-family="Helvetica,sans-Serif" font-size="10.00">gcd</text>
</a>
</g>
</g>
<!-- Node4&#45;&gt;Node5 -->
<g id="edge4_Node000004_Node000005" class="edge">
<title>Node4&#45;&gt;Node5</title>
<g id="a_edge4_Node000004_Node000005"><a xlink:title=" ">
<path fill="none" stroke="#63b8ff" d="M360.66,-9.62C372.82,-9.62 386.09,-9.62 397.29,-9.62"/>
<polygon fill="#63b8ff" stroke="#63b8ff" points="396.98,-13.13 406.98,-9.63 396.98,-6.13 396.98,-13.13"/>
</a>
</g>
</g>
</g>
</svg>
