<?xml version="1.0" encoding="UTF-8" standalone="no"?>
<!DOCTYPE svg PUBLIC "-//W3C//DTD SVG 1.1//EN"
 "http://www.w3.org/Graphics/SVG/1.1/DTD/svg11.dtd">
<!-- Generated by graphviz version 14.0.0 (20250921.2048)
 -->
<!-- Title: permute_args Pages: 1 -->
<svg width="555pt" height="27pt"
 viewBox="0.00 0.00 555.00 27.00" xmlns="http://www.w3.org/2000/svg" xmlns:xlink="http://www.w3.org/1999/xlink">
<g id="graph0" class="graph" transform="scale(1 1) rotate(0) translate(4 23.25)">
<title>permute_args</title>
<!-- Node1 -->
<g id="Node000001" class="node">
<title>Node1</title>
<g id="a_Node000001"><a xlink:title=" ">
<polygon fill="#999999" stroke="#666666" points="546.5,-19.25 471.25,-19.25 471.25,0 546.5,0 546.5,-19.25"/>
<text xml:space="preserve" text-anchor="middle" x="508.88" y="-5.75" font-family="Helvetica,sans-Serif" font-size="10.00">permute_args</text>
</a>
</g>
</g>
<!-- Node2 -->
<g id="Node000002" class="node">
<title>Node2</title>
<g id="a_Node000002"><a xlink:href="../../d3/d2f/_e_l_p_h__getopt__long_8c.html#a8bcfc41ffd83b00297822b5644eb895d" target="_top" xlink:title=" ">
<polygon fill="white" stroke="#666666" points="435.25,-19.25 355.5,-19.25 355.5,0 435.25,0 435.25,-19.25"/>
<text xml:space="preserve" text-anchor="middle" x="395.38" y="-5.75" font-family="Helvetica,sans-Serif" font-size="10.00">getopt_internal</text>
</a>
</g>
</g>
<!-- Node1&#45;&gt;Node2 -->
<g id="edge1_Node000001_Node000002" class="edge">
<title>Node1&#45;&gt;Node2</title>
<g id="a_edge1_Node000001_Node000002"><a xlink:title=" ">
<path fill="none" stroke="#63b8ff" d="M459.79,-9.62C451.66,-9.62 443.31,-9.62 435.45,-9.62"/>
<polygon fill="#63b8ff" stroke="#63b8ff" points="459.54,-13.13 469.54,-9.63 459.54,-6.13 459.54,-13.13"/>
</a>
</g>
</g>
<!-- Node3 -->
<g id="Node000003" class="node">
<title>Node3</title>
<g id="a_Node000003"><a xlink:href="../../d3/d2f/_e_l_p_h__getopt__long_8c.html#af760468b9c9ebf1314e9194e26ddd97a" target="_top" xlink:title=" ">
<polygon fill="white" stroke="#666666" points="319.5,-19.25 198.5,-19.25 198.5,0 319.5,0 319.5,-19.25"/>
<text xml:space="preserve" text-anchor="middle" x="259" y="-5.75" font-family="Helvetica,sans-Serif" font-size="10.00">ELPH_getopt_long_only</text>
</a>
</g>
</g>
<!-- Node2&#45;&gt;Node3 -->
<g id="edge2_Node000002_Node000003" class="edge">
<title>Node2&#45;&gt;Node3</title>
<g id="a_edge2_Node000002_Node000003"><a xlink:title=" ">
<path fill="none" stroke="#63b8ff" d="M343.9,-9.62C336.02,-9.62 327.82,-9.62 319.76,-9.62"/>
<polygon fill="#63b8ff" stroke="#63b8ff" points="343.63,-13.13 353.63,-9.63 343.63,-6.13 343.63,-13.13"/>
</a>
</g>
</g>
<!-- Node4 -->
<g id="Node000004" class="node">
<title>Node4</title>
<g id="a_Node000004"><a xlink:href="../../dd/def/cli_8c.html#a0f647fa6d3d97da4157fb3087a9fb707" target="_top" xlink:title=" ">
<polygon fill="white" stroke="#666666" points="162.5,-19.25 73,-19.25 73,0 162.5,0 162.5,-19.25"/>
<text xml:space="preserve" text-anchor="middle" x="117.75" y="-5.75" font-family="Helvetica,sans-Serif" font-size="10.00">ELPH_cli_parser</text>
</a>
</g>
</g>
<!-- Node3&#45;&gt;Node4 -->
<g id="edge3_Node000003_Node000004" class="edge">
<title>Node3&#45;&gt;Node4</title>
<g id="a_edge3_Node000003_Node000004"><a xlink:title=" ">
<path fill="none" stroke="#63b8ff" d="M186.87,-9.62C178.59,-9.62 170.34,-9.62 162.58,-9.62"/>
<polygon fill="#63b8ff" stroke="#63b8ff" points="186.62,-13.13 196.62,-9.63 186.62,-6.13 186.62,-13.13"/>
</a>
</g>
</g>
<!-- Node5 -->
<g id="Node000005" class="node">
<title>Node5</title>
<g id="a_Node000005"><a xlink:href="../../d3/dd5/main__elph_c_8c.html#a0ddf1224851353fc92bfbff6f499fa97" target="_top" xlink:title="Main program entry point.">
<polygon fill="white" stroke="#666666" points="37,-19.25 0,-19.25 0,0 37,0 37,-19.25"/>
<text xml:space="preserve" text-anchor="middle" x="18.5" y="-5.75" font-family="Helvetica,sans-Serif" font-size="10.00">main</text>
</a>
</g>
</g>
<!-- Node4&#45;&gt;Node5 -->
<g id="edge4_Node000004_Node000005" class="edge">
<title>Node4&#45;&gt;Node5</title>
<g id="a_edge4_Node000004_Node000005"><a xlink:title=" ">
<path fill="none" stroke="#63b8ff" d="M61.27,-9.62C52.64,-9.62 44.32,-9.62 37.39,-9.62"/>
<polygon fill="#63b8ff" stroke="#63b8ff" points="61.16,-13.13 71.16,-9.63 61.16,-6.13 61.16,-13.13"/>
</a>
</g>
</g>
</g>
</svg>
