<?xml version="1.0" encoding="UTF-8" standalone="no"?>
<!DOCTYPE svg PUBLIC "-//W3C//DTD SVG 1.1//EN"
 "http://www.w3.org/Graphics/SVG/1.1/DTD/svg11.dtd">
<!-- Generated by graphviz version 14.0.0 (20250921.2048)
 -->
<!-- Title: Ylm Pages: 1 -->
<svg width="217pt" height="56pt"
 viewBox="0.00 0.00 217.00 56.00" xmlns="http://www.w3.org/2000/svg" xmlns:xlink="http://www.w3.org/1999/xlink">
<g id="graph0" class="graph" transform="scale(1 1) rotate(0) translate(4 52.07)">
<title>Ylm</title>
<!-- Node1 -->
<g id="Node000001" class="node">
<title>Node1</title>
<g id="a_Node000001"><a xlink:title=" ">
<polygon fill="#999999" stroke="#666666" points="33.25,-47.25 0,-47.25 0,-28 33.25,-28 33.25,-47.25"/>
<text xml:space="preserve" text-anchor="middle" x="16.62" y="-33.75" font-family="Helvetica,sans-Serif" font-size="10.00">Ylm</text>
</a>
</g>
</g>
<!-- Node2 -->
<g id="Node000002" class="node">
<title>Node2</title>
<g id="a_Node000002"><a xlink:href="../../de/d2d/numerical__func_8c.html#ae779062669bf246a73b2c00639b8b9fd" target="_top" xlink:title=" ">
<polygon fill="white" stroke="#666666" points="208.5,-47.25 158,-47.25 158,-28 208.5,-28 208.5,-47.25"/>
<text xml:space="preserve" text-anchor="middle" x="183.25" y="-33.75" font-family="Helvetica,sans-Serif" font-size="10.00">factorial</text>
</a>
</g>
</g>
<!-- Node1&#45;&gt;Node2 -->
<g id="edge1_Node000001_Node000002" class="edge">
<title>Node1&#45;&gt;Node2</title>
<g id="a_edge1_Node000001_Node000002"><a xlink:title=" ">
<path fill="none" stroke="#63b8ff" d="M33.35,-41.09C43.53,-43.16 57.1,-45.57 69.25,-46.62 92.61,-48.65 98.62,-48.36 122,-46.62 129.94,-46.04 138.41,-45.01 146.43,-43.87"/>
<polygon fill="#63b8ff" stroke="#63b8ff" points="146.87,-47.34 156.22,-42.36 145.81,-40.42 146.87,-47.34"/>
</a>
</g>
</g>
<!-- Node3 -->
<g id="Node000003" class="node">
<title>Node3</title>
<g id="a_Node000003"><a xlink:href="../../de/d2d/numerical__func_8c.html#a05eb7f6851ab17f3a79e91a1bb0cf16d" target="_top" xlink:title=" ">
<polygon fill="white" stroke="#666666" points="122,-19.25 69.25,-19.25 69.25,0 122,0 122,-19.25"/>
<text xml:space="preserve" text-anchor="middle" x="95.62" y="-5.75" font-family="Helvetica,sans-Serif" font-size="10.00">legendre</text>
</a>
</g>
</g>
<!-- Node1&#45;&gt;Node3 -->
<g id="edge2_Node000001_Node000003" class="edge">
<title>Node1&#45;&gt;Node3</title>
<g id="a_edge2_Node000001_Node000003"><a xlink:title=" ">
<path fill="none" stroke="#63b8ff" d="M33.58,-31.82C40.77,-29.21 49.57,-26.01 58.23,-22.86"/>
<polygon fill="#63b8ff" stroke="#63b8ff" points="59.37,-26.17 67.57,-19.46 56.98,-19.59 59.37,-26.17"/>
</a>
</g>
</g>
<!-- Node3&#45;&gt;Node2 -->
<g id="edge3_Node000003_Node000002" class="edge">
<title>Node3&#45;&gt;Node2</title>
<g id="a_edge3_Node000003_Node000002"><a xlink:title=" ">
<path fill="none" stroke="#63b8ff" d="M122.32,-18.03C130.04,-20.55 138.65,-23.37 146.88,-26.06"/>
<polygon fill="#63b8ff" stroke="#63b8ff" points="145.72,-29.36 156.31,-29.14 147.9,-22.71 145.72,-29.36"/>
</a>
</g>
</g>
<!-- Node3&#45;&gt;Node3 -->
<g id="edge4_Node000003_Node000003" class="edge">
<title>Node3&#45;&gt;Node3</title>
<g id="a_edge4_Node000003_Node000003"><a xlink:title=" ">
<path fill="none" stroke="#63b8ff" d="M83.26,-19.54C77.62,-28.15 81.74,-37.25 95.62,-37.25 103.22,-37.25 107.89,-34.53 109.65,-30.65"/>
<polygon fill="#63b8ff" stroke="#63b8ff" points="113.15,-30.41 108.22,-21.04 106.23,-31.44 113.15,-30.41"/>
</a>
</g>
</g>
</g>
</svg>
