<?xml version="1.0" encoding="UTF-8" standalone="no"?>
<!DOCTYPE svg PUBLIC "-//W3C//DTD SVG 1.1//EN"
 "http://www.w3.org/Graphics/SVG/1.1/DTD/svg11.dtd">
<!-- Generated by graphviz version 14.0.0 (20250921.2048)
 -->
<!-- Title: Gemm3x3f Pages: 1 -->
<svg width="672pt" height="103pt"
 viewBox="0.00 0.00 672.00 103.00" xmlns="http://www.w3.org/2000/svg" xmlns:xlink="http://www.w3.org/1999/xlink">
<g id="graph0" class="graph" transform="scale(1 1) rotate(0) translate(4 99.25)">
<title>Gemm3x3f</title>
<!-- Node1 -->
<g id="Node000001" class="node">
<title>Node1</title>
<g id="a_Node000001"><a xlink:title=" ">
<polygon fill="#999999" stroke="#666666" points="663.75,-57.25 599.75,-57.25 599.75,-38 663.75,-38 663.75,-57.25"/>
<text xml:space="preserve" text-anchor="middle" x="631.75" y="-43.75" font-family="Helvetica,sans-Serif" font-size="10.00">Gemm3x3f</text>
</a>
</g>
</g>
<!-- Node2 -->
<g id="Node000002" class="node">
<title>Node2</title>
<g id="a_Node000002"><a xlink:href="../../dd/de7/elec__reps_8c.html#a9ad01d68a7d4f87c39a98bf13778cd64" target="_top" xlink:title=" ">
<polygon fill="white" stroke="#666666" points="457.75,-56.25 375.75,-56.25 375.75,-37 457.75,-37 457.75,-56.25"/>
<text xml:space="preserve" text-anchor="middle" x="416.75" y="-42.75" font-family="Helvetica,sans-Serif" font-size="10.00">electronic_reps</text>
</a>
</g>
</g>
<!-- Node1&#45;&gt;Node2 -->
<g id="edge1_Node000001_Node000002" class="edge">
<title>Node1&#45;&gt;Node2</title>
<g id="a_edge1_Node000001_Node000002"><a xlink:title=" ">
<path fill="none" stroke="#63b8ff" d="M588.15,-47.42C550.25,-47.25 495.23,-46.99 458.05,-46.81"/>
<polygon fill="#63b8ff" stroke="#63b8ff" points="587.79,-50.92 597.81,-47.47 587.82,-43.92 587.79,-50.92"/>
</a>
</g>
</g>
<!-- Node6 -->
<g id="Node000006" class="node">
<title>Node6</title>
<g id="a_Node000006"><a xlink:href="../../d7/db8/rotate__dvscf_8c.html#afc7697db9b562c621c6e23a9f849e985" target="_top" xlink:title=" ">
<polygon fill="white" stroke="#666666" points="563.75,-95.25 493.75,-95.25 493.75,-76 563.75,-76 563.75,-95.25"/>
<text xml:space="preserve" text-anchor="middle" x="528.75" y="-81.75" font-family="Helvetica,sans-Serif" font-size="10.00">rotate_dvscf</text>
</a>
</g>
</g>
<!-- Node1&#45;&gt;Node6 -->
<g id="edge5_Node000001_Node000006" class="edge">
<title>Node1&#45;&gt;Node6</title>
<g id="a_edge5_Node000001_Node000006"><a xlink:title=" ">
<path fill="none" stroke="#63b8ff" d="M593.48,-61.65C581.15,-66.29 567.69,-71.35 556.33,-75.63"/>
<polygon fill="#63b8ff" stroke="#63b8ff" points="594.41,-65.04 602.53,-58.24 591.94,-58.49 594.41,-65.04"/>
</a>
</g>
</g>
<!-- Node8 -->
<g id="Node000008" class="node">
<title>Node8</title>
<g id="a_Node000008"><a xlink:href="../../d7/dd7/rotate___gvecs_8c.html#a3777530f5d55d899b796fb4e462b512f" target="_top" xlink:title=" ">
<polygon fill="white" stroke="#666666" points="563.38,-19.25 494.12,-19.25 494.12,0 563.38,0 563.38,-19.25"/>
<text xml:space="preserve" text-anchor="middle" x="528.75" y="-5.75" font-family="Helvetica,sans-Serif" font-size="10.00">rotateGvecs</text>
</a>
</g>
</g>
<!-- Node1&#45;&gt;Node8 -->
<g id="edge8_Node000001_Node000008" class="edge">
<title>Node1&#45;&gt;Node8</title>
<g id="a_edge8_Node000001_Node000008"><a xlink:title=" ">
<path fill="none" stroke="#63b8ff" d="M593.48,-33.6C581.15,-28.96 567.69,-23.9 556.33,-19.62"/>
<polygon fill="#63b8ff" stroke="#63b8ff" points="591.94,-36.76 602.53,-37.01 594.41,-30.21 591.94,-36.76"/>
</a>
</g>
</g>
<!-- Node3 -->
<g id="Node000003" class="node">
<title>Node3</title>
<g id="a_Node000003"><a xlink:href="../../d5/d9f/compute__dmats_8c.html#aceeb11551c1d6413e6d4b5cae9704493" target="_top" xlink:title=" ">
<polygon fill="white" stroke="#666666" points="339.75,-56.25 206.75,-56.25 206.75,-37 339.75,-37 339.75,-56.25"/>
<text xml:space="preserve" text-anchor="middle" x="273.25" y="-42.75" font-family="Helvetica,sans-Serif" font-size="10.00">compute_and_write_dmats</text>
</a>
</g>
</g>
<!-- Node2&#45;&gt;Node3 -->
<g id="edge2_Node000002_Node000003" class="edge">
<title>Node2&#45;&gt;Node3</title>
<g id="a_edge2_Node000002_Node000003"><a xlink:title=" ">
<path fill="none" stroke="#63b8ff" d="M364.1,-46.62C356.33,-46.62 348.24,-46.62 340.22,-46.62"/>
<polygon fill="#63b8ff" stroke="#63b8ff" points="364.07,-50.13 374.07,-46.63 364.07,-43.13 364.07,-50.13"/>
</a>
</g>
</g>
<!-- Node4 -->
<g id="Node000004" class="node">
<title>Node4</title>
<g id="a_Node000004"><a xlink:href="../../da/d2e/elph__driver_8c.html#ad9f405d41cf090d652dbe1307700665f" target="_top" xlink:title=" ">
<polygon fill="white" stroke="#666666" points="153.5,-56.25 90.25,-56.25 90.25,-37 153.5,-37 153.5,-56.25"/>
<text xml:space="preserve" text-anchor="middle" x="121.88" y="-42.75" font-family="Helvetica,sans-Serif" font-size="10.00">elph_driver</text>
</a>
</g>
</g>
<!-- Node3&#45;&gt;Node4 -->
<g id="edge3_Node000003_Node000004" class="edge">
<title>Node3&#45;&gt;Node4</title>
<g id="a_edge3_Node000003_Node000004"><a xlink:title=" ">
<path fill="none" stroke="#63b8ff" d="M195.1,-46.62C180.45,-46.62 165.92,-46.62 153.77,-46.62"/>
<polygon fill="#63b8ff" stroke="#63b8ff" points="194.78,-50.13 204.78,-46.63 194.78,-43.13 194.78,-50.13"/>
</a>
</g>
</g>
<!-- Node5 -->
<g id="Node000005" class="node">
<title>Node5</title>
<g id="a_Node000005"><a xlink:href="../../d3/dd5/main__elph_c_8c.html#a0ddf1224851353fc92bfbff6f499fa97" target="_top" xlink:title="Main program entry point.">
<polygon fill="white" stroke="#666666" points="37,-74.25 0,-74.25 0,-55 37,-55 37,-74.25"/>
<text xml:space="preserve" text-anchor="middle" x="18.5" y="-60.75" font-family="Helvetica,sans-Serif" font-size="10.00">main</text>
</a>
</g>
</g>
<!-- Node4&#45;&gt;Node5 -->
<g id="edge4_Node000004_Node000005" class="edge">
<title>Node4&#45;&gt;Node5</title>
<g id="a_edge4_Node000004_Node000005"><a xlink:title=" ">
<path fill="none" stroke="#63b8ff" d="M78.61,-54.13C64.16,-56.69 48.77,-59.43 37.32,-61.46"/>
<polygon fill="#63b8ff" stroke="#63b8ff" points="79.18,-57.58 88.42,-52.39 77.96,-50.69 79.18,-57.58"/>
</a>
</g>
</g>
<!-- Node7 -->
<g id="Node000007" class="node">
<title>Node7</title>
<g id="a_Node000007"><a xlink:href="../../da/dc2/interpolation__driver_8c.html#aecc42ae41d168b486807b337fcf5b3de" target="_top" xlink:title=" ">
<polygon fill="white" stroke="#666666" points="170.75,-93.25 73,-93.25 73,-74 170.75,-74 170.75,-93.25"/>
<text xml:space="preserve" text-anchor="middle" x="121.88" y="-79.75" font-family="Helvetica,sans-Serif" font-size="10.00">interpolation_driver</text>
</a>
</g>
</g>
<!-- Node6&#45;&gt;Node7 -->
<g id="edge6_Node000006_Node000007" class="edge">
<title>Node6&#45;&gt;Node7</title>
<g id="a_edge6_Node000006_Node000007"><a xlink:title=" ">
<path fill="none" stroke="#63b8ff" d="M482.36,-85.4C405.34,-85.02 249.76,-84.25 170.95,-83.86"/>
<polygon fill="#63b8ff" stroke="#63b8ff" points="482.05,-88.9 492.07,-85.45 482.08,-81.9 482.05,-88.9"/>
</a>
</g>
</g>
<!-- Node7&#45;&gt;Node5 -->
<g id="edge7_Node000007_Node000005" class="edge">
<title>Node7&#45;&gt;Node5</title>
<g id="a_edge7_Node000007_Node000005"><a xlink:title=" ">
<path fill="none" stroke="#63b8ff" d="M61.33,-72.46C52.55,-70.82 44.14,-69.24 37.19,-67.94"/>
<polygon fill="#63b8ff" stroke="#63b8ff" points="60.6,-75.89 71.08,-74.29 61.89,-69.01 60.6,-75.89"/>
</a>
</g>
</g>
<!-- Node8&#45;&gt;Node2 -->
<g id="edge9_Node000008_Node000002" class="edge">
<title>Node8&#45;&gt;Node2</title>
<g id="a_edge9_Node000008_Node000002"><a xlink:title=" ">
<path fill="none" stroke="#63b8ff" d="M487.09,-23.3C474.07,-27.68 459.89,-32.45 447.77,-36.53"/>
<polygon fill="#63b8ff" stroke="#63b8ff" points="487.9,-26.72 496.26,-20.22 485.66,-20.09 487.9,-26.72"/>
</a>
</g>
</g>
<!-- Node9 -->
<g id="Node000009" class="node">
<title>Node9</title>
<g id="a_Node000009"><a xlink:href="../../d1/d8e/compute___vbare__loc_8c.html#a5f1d51340a8457749225b05b612e4abe" target="_top" xlink:title=" ">
<polygon fill="white" stroke="#666666" points="445.38,-19.25 388.12,-19.25 388.12,0 445.38,0 445.38,-19.25"/>
<text xml:space="preserve" text-anchor="middle" x="416.75" y="-5.75" font-family="Helvetica,sans-Serif" font-size="10.00">elphLocal</text>
</a>
</g>
</g>
<!-- Node8&#45;&gt;Node9 -->
<g id="edge10_Node000008_Node000009" class="edge">
<title>Node8&#45;&gt;Node9</title>
<g id="a_edge10_Node000008_Node000009"><a xlink:title=" ">
<path fill="none" stroke="#63b8ff" d="M482.67,-9.62C470.19,-9.62 457.01,-9.62 445.81,-9.62"/>
<polygon fill="#63b8ff" stroke="#63b8ff" points="482.34,-13.13 492.34,-9.63 482.34,-6.13 482.34,-13.13"/>
</a>
</g>
</g>
<!-- Node10 -->
<g id="Node000010" class="node">
<title>Node10</title>
<g id="a_Node000010"><a xlink:href="../../d5/dd2/compute__elph__matq_8c.html#ad32ab6f17a3745b7f82151d7f5b927f2" target="_top" xlink:title=" ">
<polygon fill="white" stroke="#666666" points="337.88,-19.25 208.62,-19.25 208.62,0 337.88,0 337.88,-19.25"/>
<text xml:space="preserve" text-anchor="middle" x="273.25" y="-5.75" font-family="Helvetica,sans-Serif" font-size="10.00">compute_and_write_elphq</text>
</a>
</g>
</g>
<!-- Node9&#45;&gt;Node10 -->
<g id="edge11_Node000009_Node000010" class="edge">
<title>Node9&#45;&gt;Node10</title>
<g id="a_edge11_Node000009_Node000010"><a xlink:title=" ">
<path fill="none" stroke="#63b8ff" d="M376.47,-9.62C364.59,-9.62 351.22,-9.62 338.16,-9.62"/>
<polygon fill="#63b8ff" stroke="#63b8ff" points="376.28,-13.13 386.28,-9.63 376.28,-6.13 376.28,-13.13"/>
</a>
</g>
</g>
<!-- Node10&#45;&gt;Node4 -->
<g id="edge12_Node000010_Node000004" class="edge">
<title>Node10&#45;&gt;Node4</title>
<g id="a_edge12_Node000010_Node000004"><a xlink:title=" ">
<path fill="none" stroke="#63b8ff" d="M220.45,-22.46C198.19,-27.97 172.93,-34.23 153.69,-38.99"/>
<polygon fill="#63b8ff" stroke="#63b8ff" points="221.1,-25.9 229.96,-20.1 219.42,-19.11 221.1,-25.9"/>
</a>
</g>
</g>
</g>
</svg>
