<?xml version="1.0" encoding="UTF-8" standalone="no"?>
<!DOCTYPE svg PUBLIC "-//W3C//DTD SVG 1.1//EN"
 "http://www.w3.org/Graphics/SVG/1.1/DTD/svg11.dtd">
<!-- Generated by graphviz version 14.0.0 (20250921.2048)
 -->
<!-- Title: factorial Pages: 1 -->
<svg width="686pt" height="64pt"
 viewBox="0.00 0.00 686.00 64.00" xmlns="http://www.w3.org/2000/svg" xmlns:xlink="http://www.w3.org/1999/xlink">
<g id="graph0" class="graph" transform="scale(1 1) rotate(0) translate(4 60.25)">
<title>factorial</title>
<!-- Node1 -->
<g id="Node000001" class="node">
<title>Node1</title>
<g id="a_Node000001"><a xlink:title=" ">
<polygon fill="#999999" stroke="#666666" points="678.25,-19.25 627.75,-19.25 627.75,0 678.25,0 678.25,-19.25"/>
<text xml:space="preserve" text-anchor="middle" x="653" y="-5.75" font-family="Helvetica,sans-Serif" font-size="10.00">factorial</text>
</a>
</g>
</g>
<!-- Node2 -->
<g id="Node000002" class="node">
<title>Node2</title>
<g id="a_Node000002"><a xlink:href="../../de/d2d/numerical__func_8c.html#a05eb7f6851ab17f3a79e91a1bb0cf16d" target="_top" xlink:title=" ">
<polygon fill="white" stroke="#666666" points="591.75,-38.25 539,-38.25 539,-19 591.75,-19 591.75,-38.25"/>
<text xml:space="preserve" text-anchor="middle" x="565.38" y="-24.75" font-family="Helvetica,sans-Serif" font-size="10.00">legendre</text>
</a>
</g>
</g>
<!-- Node1&#45;&gt;Node2 -->
<g id="edge1_Node000001_Node000002" class="edge">
<title>Node1&#45;&gt;Node2</title>
<g id="a_edge1_Node000001_Node000002"><a xlink:title=" ">
<path fill="none" stroke="#63b8ff" d="M616.55,-17.49C608.4,-19.3 599.89,-21.19 592.24,-22.89"/>
<polygon fill="#63b8ff" stroke="#63b8ff" points="617.21,-20.93 626.21,-15.35 615.69,-14.1 617.21,-20.93"/>
</a>
</g>
</g>
<!-- Node3 -->
<g id="Node000003" class="node">
<title>Node3</title>
<g id="a_Node000003"><a xlink:href="../../de/d2d/numerical__func_8c.html#abbd3b491506c533dac0178600c56212e" target="_top" xlink:title=" ">
<polygon fill="white" stroke="#666666" points="503,-19.25 469.75,-19.25 469.75,0 503,0 503,-19.25"/>
<text xml:space="preserve" text-anchor="middle" x="486.38" y="-5.75" font-family="Helvetica,sans-Serif" font-size="10.00">Ylm</text>
</a>
</g>
</g>
<!-- Node1&#45;&gt;Node3 -->
<g id="edge8_Node000001_Node000003" class="edge">
<title>Node1&#45;&gt;Node3</title>
<g id="a_edge8_Node000001_Node000003"><a xlink:title=" ">
<path fill="none" stroke="#63b8ff" d="M616.15,-9.62C581.02,-9.62 529.11,-9.62 503.24,-9.62"/>
<polygon fill="#63b8ff" stroke="#63b8ff" points="615.84,-13.13 625.84,-9.63 615.84,-6.13 615.84,-13.13"/>
</a>
</g>
</g>
<!-- Node2&#45;&gt;Node2 -->
<g id="edge2_Node000002_Node000002" class="edge">
<title>Node2&#45;&gt;Node2</title>
<g id="a_edge2_Node000002_Node000002"><a xlink:title=" ">
<path fill="none" stroke="#63b8ff" d="M579.4,-49.65C577.64,-53.53 572.97,-56.25 565.38,-56.25 551.49,-56.25 547.37,-47.15 553.01,-38.54"/>
<polygon fill="#63b8ff" stroke="#63b8ff" points="582.9,-49.41 577.97,-40.04 575.98,-50.44 582.9,-49.41"/>
</a>
</g>
</g>
<!-- Node2&#45;&gt;Node3 -->
<g id="edge3_Node000002_Node000003" class="edge">
<title>Node2&#45;&gt;Node3</title>
<g id="a_edge3_Node000002_Node000003"><a xlink:title=" ">
<path fill="none" stroke="#63b8ff" d="M527.66,-19.57C519.08,-17.45 510.37,-15.3 503.26,-13.55"/>
<polygon fill="#63b8ff" stroke="#63b8ff" points="526.72,-22.94 537.27,-21.94 528.4,-16.14 526.72,-22.94"/>
</a>
</g>
</g>
<!-- Node4 -->
<g id="Node000004" class="node">
<title>Node4</title>
<g id="a_Node000004"><a xlink:href="../../d6/db8/_vbare__nloc_8c.html#abeb59b7a11cbc7ffec9b5bb2759ebbdd" target="_top" xlink:title=" ">
<polygon fill="white" stroke="#666666" points="433.75,-19.25 337.5,-19.25 337.5,0 433.75,0 433.75,-19.25"/>
<text xml:space="preserve" text-anchor="middle" x="385.62" y="-5.75" font-family="Helvetica,sans-Serif" font-size="10.00">add_elphNonLocal</text>
</a>
</g>
</g>
<!-- Node3&#45;&gt;Node4 -->
<g id="edge4_Node000003_Node000004" class="edge">
<title>Node3&#45;&gt;Node4</title>
<g id="a_edge4_Node000003_Node000004"><a xlink:title=" ">
<path fill="none" stroke="#63b8ff" d="M458.21,-9.62C450.7,-9.62 442.33,-9.62 434.03,-9.62"/>
<polygon fill="#63b8ff" stroke="#63b8ff" points="458,-13.13 468,-9.63 458,-6.13 458,-13.13"/>
</a>
</g>
</g>
<!-- Node5 -->
<g id="Node000005" class="node">
<title>Node5</title>
<g id="a_Node000005"><a xlink:href="../../d5/dd2/compute__elph__matq_8c.html#ad32ab6f17a3745b7f82151d7f5b927f2" target="_top" xlink:title=" ">
<polygon fill="white" stroke="#666666" points="301.5,-19.25 172.25,-19.25 172.25,0 301.5,0 301.5,-19.25"/>
<text xml:space="preserve" text-anchor="middle" x="236.88" y="-5.75" font-family="Helvetica,sans-Serif" font-size="10.00">compute_and_write_elphq</text>
</a>
</g>
</g>
<!-- Node4&#45;&gt;Node5 -->
<g id="edge5_Node000004_Node000005" class="edge">
<title>Node4&#45;&gt;Node5</title>
<g id="a_edge5_Node000004_Node000005"><a xlink:title=" ">
<path fill="none" stroke="#63b8ff" d="M325.99,-9.62C318.06,-9.62 309.89,-9.62 301.88,-9.62"/>
<polygon fill="#63b8ff" stroke="#63b8ff" points="325.87,-13.13 335.87,-9.63 325.87,-6.13 325.87,-13.13"/>
</a>
</g>
</g>
<!-- Node6 -->
<g id="Node000006" class="node">
<title>Node6</title>
<g id="a_Node000006"><a xlink:href="../../da/d2e/elph__driver_8c.html#ad9f405d41cf090d652dbe1307700665f" target="_top" xlink:title=" ">
<polygon fill="white" stroke="#666666" points="136.25,-19.25 73,-19.25 73,0 136.25,0 136.25,-19.25"/>
<text xml:space="preserve" text-anchor="middle" x="104.62" y="-5.75" font-family="Helvetica,sans-Serif" font-size="10.00">elph_driver</text>
</a>
</g>
</g>
<!-- Node5&#45;&gt;Node6 -->
<g id="edge6_Node000005_Node000006" class="edge">
<title>Node5&#45;&gt;Node6</title>
<g id="a_edge6_Node000005_Node000006"><a xlink:title=" ">
<path fill="none" stroke="#63b8ff" d="M160.64,-9.62C152.14,-9.62 143.88,-9.62 136.45,-9.62"/>
<polygon fill="#63b8ff" stroke="#63b8ff" points="160.38,-13.13 170.38,-9.63 160.38,-6.13 160.38,-13.13"/>
</a>
</g>
</g>
<!-- Node7 -->
<g id="Node000007" class="node">
<title>Node7</title>
<g id="a_Node000007"><a xlink:href="../../d3/dd5/main__elph_c_8c.html#a0ddf1224851353fc92bfbff6f499fa97" target="_top" xlink:title="Main program entry point.">
<polygon fill="white" stroke="#666666" points="37,-19.25 0,-19.25 0,0 37,0 37,-19.25"/>
<text xml:space="preserve" text-anchor="middle" x="18.5" y="-5.75" font-family="Helvetica,sans-Serif" font-size="10.00">main</text>
</a>
</g>
</g>
<!-- Node6&#45;&gt;Node7 -->
<g id="edge7_Node000006_Node000007" class="edge">
<title>Node6&#45;&gt;Node7</title>
<g id="a_edge7_Node000006_Node000007"><a xlink:title=" ">
<path fill="none" stroke="#63b8ff" d="M61.27,-9.62C52.74,-9.62 44.23,-9.62 37.14,-9.62"/>
<polygon fill="#63b8ff" stroke="#63b8ff" points="61.26,-13.13 71.26,-9.63 61.26,-6.13 61.26,-13.13"/>
</a>
</g>
</g>
</g>
</svg>
