<?xml version="1.0" encoding="UTF-8" standalone="no"?>
<!DOCTYPE svg PUBLIC "-//W3C//DTD SVG 1.1//EN"
 "http://www.w3.org/Graphics/SVG/1.1/DTD/svg11.dtd">
<!-- Generated by graphviz version 14.0.0 (20250921.2048)
 -->
<!-- Title: src/common/init_dtypes.c Pages: 1 -->
<svg width="301pt" height="193pt"
 viewBox="0.00 0.00 301.00 193.00" xmlns="http://www.w3.org/2000/svg" xmlns:xlink="http://www.w3.org/1999/xlink">
<g id="graph0" class="graph" transform="scale(1 1) rotate(0) translate(4 189)">
<title>src/common/init_dtypes.c</title>
<!-- Node1 -->
<g id="Node000001" class="node">
<title>Node1</title>
<g id="a_Node000001"><a xlink:title=" ">
<polygon fill="#999999" stroke="#666666" points="217.25,-185 88.75,-185 88.75,-165.75 217.25,-165.75 217.25,-185"/>
<text xml:space="preserve" text-anchor="middle" x="153" y="-171.5" font-family="Helvetica,sans-Serif" font-size="10.00">src/common/init_dtypes.c</text>
</a>
</g>
</g>
<!-- Node2 -->
<g id="Node000002" class="node">
<title>Node2</title>
<g id="a_Node000002"><a xlink:href="../../df/ded/init__dtypes_8h.html" target="_top" xlink:title=" ">
<polygon fill="white" stroke="#666666" points="188.75,-129.75 117.25,-129.75 117.25,-110.5 188.75,-110.5 188.75,-129.75"/>
<text xml:space="preserve" text-anchor="middle" x="153" y="-116.25" font-family="Helvetica,sans-Serif" font-size="10.00">init_dtypes.h</text>
</a>
</g>
</g>
<!-- Node1&#45;&gt;Node2 -->
<g id="edge1_Node000001_Node000002" class="edge">
<title>Node1&#45;&gt;Node2</title>
<g id="a_edge1_Node000001_Node000002"><a xlink:title=" ">
<path fill="none" stroke="#63b8ff" d="M153,-165.58C153,-159.07 153,-149.92 153,-141.62"/>
<polygon fill="#63b8ff" stroke="#63b8ff" points="156.5,-141.62 153,-131.62 149.5,-141.62 156.5,-141.62"/>
</a>
</g>
</g>
<!-- Node3 -->
<g id="Node000003" class="node">
<title>Node3</title>
<g id="a_Node000003"><a xlink:href="../../d2/d02/dtypes_8h.html" target="_top" xlink:title=" ">
<polygon fill="white" stroke="#666666" points="132.75,-74.5 79.25,-74.5 79.25,-55.25 132.75,-55.25 132.75,-74.5"/>
<text xml:space="preserve" text-anchor="middle" x="106" y="-61" font-family="Helvetica,sans-Serif" font-size="10.00">dtypes.h</text>
</a>
</g>
</g>
<!-- Node1&#45;&gt;Node3 -->
<g id="edge10_Node000001_Node000003" class="edge">
<title>Node1&#45;&gt;Node3</title>
<g id="a_edge10_Node000001_Node000003"><a xlink:title=" ">
<path fill="none" stroke="#63b8ff" d="M139.63,-165.54C128.9,-157.6 114.59,-144.88 108,-129.75 102.02,-116.02 101.79,-99 102.91,-85.99"/>
<polygon fill="#63b8ff" stroke="#63b8ff" points="106.38,-86.43 104.13,-76.08 99.44,-85.58 106.38,-86.43"/>
</a>
</g>
</g>
<!-- Node4 -->
<g id="Node000004" class="node">
<title>Node4</title>
<g id="a_Node000004"><a xlink:title=" ">
<polygon fill="#e0e0e0" stroke="#999999" points="40,-19.25 0,-19.25 0,0 40,0 40,-19.25"/>
<text xml:space="preserve" text-anchor="middle" x="20" y="-5.75" font-family="Helvetica,sans-Serif" font-size="10.00">mpi.h</text>
</a>
</g>
</g>
<!-- Node1&#45;&gt;Node4 -->
<g id="edge8_Node000001_Node000004" class="edge">
<title>Node1&#45;&gt;Node4</title>
<g id="a_edge8_Node000001_Node000004"><a xlink:title=" ">
<path fill="none" stroke="#63b8ff" d="M140.08,-165.4C128.53,-156.99 111.53,-143.67 99,-129.75 70.06,-97.6 43.91,-54 30.16,-29.45"/>
<polygon fill="#63b8ff" stroke="#63b8ff" points="33.37,-28.02 25.48,-20.95 27.24,-31.4 33.37,-28.02"/>
</a>
</g>
</g>
<!-- Node6 -->
<g id="Node000006" class="node">
<title>Node6</title>
<g id="a_Node000006"><a xlink:href="../../d4/d0a/elph_c_8h.html" target="_top" xlink:title="Core type definitions and configuration for LetzElPhC.">
<polygon fill="white" stroke="#666666" points="241.88,-19.25 192.12,-19.25 192.12,0 241.88,0 241.88,-19.25"/>
<text xml:space="preserve" text-anchor="middle" x="217" y="-5.75" font-family="Helvetica,sans-Serif" font-size="10.00">elphC.h</text>
</a>
</g>
</g>
<!-- Node1&#45;&gt;Node6 -->
<g id="edge11_Node000001_Node000006" class="edge">
<title>Node1&#45;&gt;Node6</title>
<g id="a_edge11_Node000001_Node000006"><a xlink:title=" ">
<path fill="none" stroke="#63b8ff" d="M165.88,-165.31C176.31,-157.23 190.47,-144.44 198,-129.75 214.28,-98 217.31,-55.75 217.51,-31.03"/>
<polygon fill="#63b8ff" stroke="#63b8ff" points="221.01,-31.05 217.42,-21.08 214.01,-31.12 221.01,-31.05"/>
</a>
</g>
</g>
<!-- Node8 -->
<g id="Node000008" class="node">
<title>Node8</title>
<g id="a_Node000008"><a xlink:title=" ">
<polygon fill="#e0e0e0" stroke="#999999" points="293.12,-129.75 244.88,-129.75 244.88,-110.5 293.12,-110.5 293.12,-129.75"/>
<text xml:space="preserve" text-anchor="middle" x="269" y="-116.25" font-family="Helvetica,sans-Serif" font-size="10.00">string.h</text>
</a>
</g>
</g>
<!-- Node1&#45;&gt;Node8 -->
<g id="edge9_Node000001_Node000008" class="edge">
<title>Node1&#45;&gt;Node8</title>
<g id="a_edge9_Node000001_Node000008"><a xlink:title=" ">
<path fill="none" stroke="#63b8ff" d="M172.68,-165.34C190.84,-157 218.08,-144.5 238.97,-134.91"/>
<polygon fill="#63b8ff" stroke="#63b8ff" points="240.22,-138.19 247.85,-130.83 237.3,-131.83 240.22,-138.19"/>
</a>
</g>
</g>
<!-- Node2&#45;&gt;Node3 -->
<g id="edge2_Node000002_Node000003" class="edge">
<title>Node2&#45;&gt;Node3</title>
<g id="a_edge2_Node000002_Node000003"><a xlink:title=" ">
<path fill="none" stroke="#63b8ff" d="M145.24,-110.33C138.81,-103.05 129.49,-92.48 121.54,-83.48"/>
<polygon fill="#63b8ff" stroke="#63b8ff" points="124.17,-81.18 114.93,-75.99 118.92,-85.81 124.17,-81.18"/>
</a>
</g>
</g>
<!-- Node2&#45;&gt;Node6 -->
<g id="edge7_Node000002_Node000006" class="edge">
<title>Node2&#45;&gt;Node6</title>
<g id="a_edge7_Node000002_Node000006"><a xlink:title=" ">
<path fill="none" stroke="#63b8ff" d="M158.24,-110.25C168.6,-92.68 191.91,-53.16 205.86,-29.52"/>
<polygon fill="#63b8ff" stroke="#63b8ff" points="208.86,-31.32 210.92,-20.93 202.83,-27.77 208.86,-31.32"/>
</a>
</g>
</g>
<!-- Node3&#45;&gt;Node4 -->
<g id="edge3_Node000003_Node000004" class="edge">
<title>Node3&#45;&gt;Node4</title>
<g id="a_edge3_Node000003_Node000004"><a xlink:title=" ">
<path fill="none" stroke="#63b8ff" d="M91.41,-54.84C78.56,-46.89 59.59,-35.14 44.43,-25.75"/>
<polygon fill="#63b8ff" stroke="#63b8ff" points="46.29,-22.79 35.95,-20.5 42.61,-28.74 46.29,-22.79"/>
</a>
</g>
</g>
<!-- Node5 -->
<g id="Node000005" class="node">
<title>Node5</title>
<g id="a_Node000005"><a xlink:title=" ">
<polygon fill="#e0e0e0" stroke="#999999" points="113.88,-19.25 58.12,-19.25 58.12,0 113.88,0 113.88,-19.25"/>
<text xml:space="preserve" text-anchor="middle" x="86" y="-5.75" font-family="Helvetica,sans-Serif" font-size="10.00">stdbool.h</text>
</a>
</g>
</g>
<!-- Node3&#45;&gt;Node5 -->
<g id="edge4_Node000003_Node000005" class="edge">
<title>Node3&#45;&gt;Node5</title>
<g id="a_edge4_Node000003_Node000005"><a xlink:title=" ">
<path fill="none" stroke="#63b8ff" d="M102.7,-55.08C100.17,-48.34 96.57,-38.77 93.37,-30.24"/>
<polygon fill="#63b8ff" stroke="#63b8ff" points="96.7,-29.16 89.91,-21.03 90.15,-31.62 96.7,-29.16"/>
</a>
</g>
</g>
<!-- Node3&#45;&gt;Node6 -->
<g id="edge5_Node000003_Node000006" class="edge">
<title>Node3&#45;&gt;Node6</title>
<g id="a_edge5_Node000003_Node000006"><a xlink:title=" ">
<path fill="none" stroke="#63b8ff" d="M124.83,-54.84C142.05,-46.58 167.8,-34.23 187.71,-24.68"/>
<polygon fill="#63b8ff" stroke="#63b8ff" points="189.21,-27.84 196.71,-20.36 186.18,-21.53 189.21,-27.84"/>
</a>
</g>
</g>
<!-- Node7 -->
<g id="Node000007" class="node">
<title>Node7</title>
<g id="a_Node000007"><a xlink:href="../../da/d41/error_8h.html" target="_top" xlink:title=" ">
<polygon fill="white" stroke="#666666" points="174.5,-19.25 131.5,-19.25 131.5,0 174.5,0 174.5,-19.25"/>
<text xml:space="preserve" text-anchor="middle" x="153" y="-5.75" font-family="Helvetica,sans-Serif" font-size="10.00">error.h</text>
</a>
</g>
</g>
<!-- Node3&#45;&gt;Node7 -->
<g id="edge6_Node000003_Node000007" class="edge">
<title>Node3&#45;&gt;Node7</title>
<g id="a_edge6_Node000003_Node000007"><a xlink:title=" ">
<path fill="none" stroke="#63b8ff" d="M113.76,-55.08C120.19,-47.8 129.51,-37.23 137.46,-28.23"/>
<polygon fill="#63b8ff" stroke="#63b8ff" points="140.08,-30.56 144.07,-20.74 134.83,-25.93 140.08,-30.56"/>
</a>
</g>
</g>
</g>
</svg>
