<?xml version="1.0" encoding="UTF-8" standalone="no"?>
<!DOCTYPE svg PUBLIC "-//W3C//DTD SVG 1.1//EN"
 "http://www.w3.org/Graphics/SVG/1.1/DTD/svg11.dtd">
<!-- Generated by graphviz version 14.0.0 (20250921.2048)
 -->
<!-- Title: src/wfc/sortpw.c Pages: 1 -->
<svg width="473pt" height="193pt"
 viewBox="0.00 0.00 473.00 193.00" xmlns="http://www.w3.org/2000/svg" xmlns:xlink="http://www.w3.org/1999/xlink">
<g id="graph0" class="graph" transform="scale(1 1) rotate(0) translate(4 189)">
<title>src/wfc/sortpw.c</title>
<!-- Node1 -->
<g id="Node000001" class="node">
<title>Node1</title>
<g id="a_Node000001"><a xlink:title=" ">
<polygon fill="#999999" stroke="#666666" points="259.62,-185 172.38,-185 172.38,-165.75 259.62,-165.75 259.62,-185"/>
<text xml:space="preserve" text-anchor="middle" x="216" y="-171.5" font-family="Helvetica,sans-Serif" font-size="10.00">src/wfc/sortpw.c</text>
</a>
</g>
</g>
<!-- Node2 -->
<g id="Node000002" class="node">
<title>Node2</title>
<g id="a_Node000002"><a xlink:title=" ">
<polygon fill="#e0e0e0" stroke="#999999" points="46,-129.75 0,-129.75 0,-110.5 46,-110.5 46,-129.75"/>
<text xml:space="preserve" text-anchor="middle" x="23" y="-116.25" font-family="Helvetica,sans-Serif" font-size="10.00">math.h</text>
</a>
</g>
</g>
<!-- Node1&#45;&gt;Node2 -->
<g id="edge1_Node000001_Node000002" class="edge">
<title>Node1&#45;&gt;Node2</title>
<g id="a_edge1_Node000001_Node000002"><a xlink:title=" ">
<path fill="none" stroke="#63b8ff" d="M183.26,-165.34C148.23,-155.68 92.9,-140.41 57.29,-130.58"/>
<polygon fill="#63b8ff" stroke="#63b8ff" points="58.49,-127.29 47.92,-128 56.63,-134.04 58.49,-127.29"/>
</a>
</g>
</g>
<!-- Node3 -->
<g id="Node000003" class="node">
<title>Node3</title>
<g id="a_Node000003"><a xlink:title=" ">
<polygon fill="#e0e0e0" stroke="#999999" points="238,-19.25 198,-19.25 198,0 238,0 238,-19.25"/>
<text xml:space="preserve" text-anchor="middle" x="218" y="-5.75" font-family="Helvetica,sans-Serif" font-size="10.00">mpi.h</text>
</a>
</g>
</g>
<!-- Node1&#45;&gt;Node3 -->
<g id="edge2_Node000001_Node000003" class="edge">
<title>Node1&#45;&gt;Node3</title>
<g id="a_edge2_Node000001_Node000003"><a xlink:title=" ">
<path fill="none" stroke="#63b8ff" d="M210.95,-165.49C206.27,-156.73 199.66,-142.79 197,-129.75 189.89,-94.88 201.39,-53.98 209.98,-30.31"/>
<polygon fill="#63b8ff" stroke="#63b8ff" points="213.23,-31.62 213.55,-21.03 206.69,-29.11 213.23,-31.62"/>
</a>
</g>
</g>
<!-- Node4 -->
<g id="Node000004" class="node">
<title>Node4</title>
<g id="a_Node000004"><a xlink:title=" ">
<polygon fill="#e0e0e0" stroke="#999999" points="149.75,-129.75 102.25,-129.75 102.25,-110.5 149.75,-110.5 149.75,-129.75"/>
<text xml:space="preserve" text-anchor="middle" x="126" y="-116.25" font-family="Helvetica,sans-Serif" font-size="10.00">stdlib.h</text>
</a>
</g>
</g>
<!-- Node1&#45;&gt;Node4 -->
<g id="edge3_Node000001_Node000004" class="edge">
<title>Node1&#45;&gt;Node4</title>
<g id="a_edge3_Node000001_Node000004"><a xlink:title=" ">
<path fill="none" stroke="#63b8ff" d="M200.73,-165.34C187.16,-157.31 167.05,-145.41 151.1,-135.98"/>
<polygon fill="#63b8ff" stroke="#63b8ff" points="153.03,-133.05 142.64,-130.97 149.47,-139.08 153.03,-133.05"/>
</a>
</g>
</g>
<!-- Node5 -->
<g id="Node000005" class="node">
<title>Node5</title>
<g id="a_Node000005"><a xlink:href="../../da/d41/error_8h.html" target="_top" xlink:title=" ">
<polygon fill="white" stroke="#666666" points="151.75,-19.25 68.25,-19.25 68.25,0 151.75,0 151.75,-19.25"/>
<text xml:space="preserve" text-anchor="middle" x="110" y="-5.75" font-family="Helvetica,sans-Serif" font-size="10.00">common/error.h</text>
</a>
</g>
</g>
<!-- Node1&#45;&gt;Node5 -->
<g id="edge4_Node000001_Node000005" class="edge">
<title>Node1&#45;&gt;Node5</title>
<g id="a_edge4_Node000001_Node000005"><a xlink:title=" ">
<path fill="none" stroke="#63b8ff" d="M171.95,-170.83C144.34,-166.06 110.73,-155.05 93,-129.75 71.99,-99.78 87.7,-55.05 99.7,-29.79"/>
<polygon fill="#63b8ff" stroke="#63b8ff" points="102.75,-31.53 104.13,-21.03 96.5,-28.37 102.75,-31.53"/>
</a>
</g>
</g>
<!-- Node6 -->
<g id="Node000006" class="node">
<title>Node6</title>
<g id="a_Node000006"><a xlink:href="../../df/d5c/parallel_8h.html" target="_top" xlink:title=" ">
<polygon fill="white" stroke="#666666" points="301.75,-129.75 206.25,-129.75 206.25,-110.5 301.75,-110.5 301.75,-129.75"/>
<text xml:space="preserve" text-anchor="middle" x="254" y="-116.25" font-family="Helvetica,sans-Serif" font-size="10.00">common/parallel.h</text>
</a>
</g>
</g>
<!-- Node1&#45;&gt;Node6 -->
<g id="edge5_Node000001_Node000006" class="edge">
<title>Node1&#45;&gt;Node6</title>
<g id="a_edge5_Node000001_Node000006"><a xlink:title=" ">
<path fill="none" stroke="#63b8ff" d="M222.27,-165.58C227.36,-158.46 234.7,-148.18 241.03,-139.3"/>
<polygon fill="#63b8ff" stroke="#63b8ff" points="243.75,-141.51 246.71,-131.34 238.05,-137.45 243.75,-141.51"/>
</a>
</g>
</g>
<!-- Node9 -->
<g id="Node000009" class="node">
<title>Node9</title>
<g id="a_Node000009"><a xlink:href="../../d4/d0a/elph_c_8h.html" target="_top" xlink:title="Core type definitions and configuration for LetzElPhC.">
<polygon fill="white" stroke="#666666" points="402.88,-19.25 353.12,-19.25 353.12,0 402.88,0 402.88,-19.25"/>
<text xml:space="preserve" text-anchor="middle" x="378" y="-5.75" font-family="Helvetica,sans-Serif" font-size="10.00">elphC.h</text>
</a>
</g>
</g>
<!-- Node1&#45;&gt;Node9 -->
<g id="edge13_Node000001_Node000009" class="edge">
<title>Node1&#45;&gt;Node9</title>
<g id="a_edge13_Node000001_Node000009"><a xlink:title=" ">
<path fill="none" stroke="#63b8ff" d="M259.79,-171.72C318.38,-165.46 419.69,-144.52 461,-74.5 475.21,-50.41 442.37,-32.2 413.89,-21.51"/>
<polygon fill="#63b8ff" stroke="#63b8ff" points="415.32,-18.3 404.73,-18.29 413,-24.91 415.32,-18.3"/>
</a>
</g>
</g>
<!-- Node10 -->
<g id="Node000010" class="node">
<title>Node10</title>
<g id="a_Node000010"><a xlink:href="../../dc/d7d/gsort_8h.html" target="_top" xlink:title=" ">
<polygon fill="white" stroke="#666666" points="452,-74.5 406,-74.5 406,-55.25 452,-55.25 452,-74.5"/>
<text xml:space="preserve" text-anchor="middle" x="429" y="-61" font-family="Helvetica,sans-Serif" font-size="10.00">gsort.h</text>
</a>
</g>
</g>
<!-- Node1&#45;&gt;Node10 -->
<g id="edge14_Node000001_Node000010" class="edge">
<title>Node1&#45;&gt;Node10</title>
<g id="a_edge14_Node000001_Node000010"><a xlink:title=" ">
<path fill="none" stroke="#63b8ff" d="M243.38,-165.39C266.9,-157.27 301.43,-144.37 330,-129.75 357.91,-115.47 387.89,-95.39 407.45,-81.57"/>
<polygon fill="#63b8ff" stroke="#63b8ff" points="409.34,-84.53 415.44,-75.87 405.27,-78.83 409.34,-84.53"/>
</a>
</g>
</g>
<!-- Node11 -->
<g id="Node000011" class="node">
<title>Node11</title>
<g id="a_Node000011"><a xlink:href="../../d1/dea/wfc_8h.html" target="_top" xlink:title=" ">
<polygon fill="white" stroke="#666666" points="350,-74.5 310,-74.5 310,-55.25 350,-55.25 350,-74.5"/>
<text xml:space="preserve" text-anchor="middle" x="330" y="-61" font-family="Helvetica,sans-Serif" font-size="10.00">wfc.h</text>
</a>
</g>
</g>
<!-- Node1&#45;&gt;Node11 -->
<g id="edge16_Node000001_Node000011" class="edge">
<title>Node1&#45;&gt;Node11</title>
<g id="a_edge16_Node000001_Node000011"><a xlink:title=" ">
<path fill="none" stroke="#63b8ff" d="M252.09,-165.32C272.04,-158.59 295.79,-147.43 311,-129.75 321.51,-117.53 326.21,-99.69 328.31,-85.96"/>
<polygon fill="#63b8ff" stroke="#63b8ff" points="331.75,-86.64 329.42,-76.3 324.8,-85.84 331.75,-86.64"/>
</a>
</g>
</g>
<!-- Node6&#45;&gt;Node3 -->
<g id="edge6_Node000006_Node000003" class="edge">
<title>Node6&#45;&gt;Node3</title>
<g id="a_edge6_Node000006_Node000003"><a xlink:title=" ">
<path fill="none" stroke="#63b8ff" d="M247.87,-110.33C242.11,-101.62 233.69,-87.72 229,-74.5 223.98,-60.34 221.21,-43.58 219.7,-30.78"/>
<polygon fill="#63b8ff" stroke="#63b8ff" points="223.2,-30.65 218.73,-21.05 216.24,-31.35 223.2,-30.65"/>
</a>
</g>
</g>
<!-- Node7 -->
<g id="Node000007" class="node">
<title>Node7</title>
<g id="a_Node000007"><a xlink:href="../../d2/d02/dtypes_8h.html" target="_top" xlink:title=" ">
<polygon fill="white" stroke="#666666" points="291.75,-74.5 238.25,-74.5 238.25,-55.25 291.75,-55.25 291.75,-74.5"/>
<text xml:space="preserve" text-anchor="middle" x="265" y="-61" font-family="Helvetica,sans-Serif" font-size="10.00">dtypes.h</text>
</a>
</g>
</g>
<!-- Node6&#45;&gt;Node7 -->
<g id="edge7_Node000006_Node000007" class="edge">
<title>Node6&#45;&gt;Node7</title>
<g id="a_edge7_Node000006_Node000007"><a xlink:title=" ">
<path fill="none" stroke="#63b8ff" d="M255.82,-110.33C257.18,-103.74 259.1,-94.46 260.83,-86.07"/>
<polygon fill="#63b8ff" stroke="#63b8ff" points="264.24,-86.84 262.84,-76.34 257.39,-85.43 264.24,-86.84"/>
</a>
</g>
</g>
<!-- Node6&#45;&gt;Node9 -->
<g id="edge12_Node000006_Node000009" class="edge">
<title>Node6&#45;&gt;Node9</title>
<g id="a_edge12_Node000006_Node000009"><a xlink:title=" ">
<path fill="none" stroke="#63b8ff" d="M296.96,-110.06C318.3,-103.5 342.9,-92.52 359,-74.5 369.74,-62.48 374.42,-44.62 376.45,-30.84"/>
<polygon fill="#63b8ff" stroke="#63b8ff" points="379.9,-31.44 377.51,-21.12 372.95,-30.68 379.9,-31.44"/>
</a>
</g>
</g>
<!-- Node7&#45;&gt;Node3 -->
<g id="edge8_Node000007_Node000003" class="edge">
<title>Node7&#45;&gt;Node3</title>
<g id="a_edge8_Node000007_Node000003"><a xlink:title=" ">
<path fill="none" stroke="#63b8ff" d="M257.24,-55.08C250.81,-47.8 241.49,-37.23 233.54,-28.23"/>
<polygon fill="#63b8ff" stroke="#63b8ff" points="236.17,-25.93 226.93,-20.74 230.92,-30.56 236.17,-25.93"/>
</a>
</g>
</g>
<!-- Node7&#45;&gt;Node5 -->
<g id="edge11_Node000007_Node000005" class="edge">
<title>Node7&#45;&gt;Node5</title>
<g id="a_edge11_Node000007_Node000005"><a xlink:title=" ">
<path fill="none" stroke="#63b8ff" d="M238.71,-54.84C213.54,-46.2 175.35,-33.07 147.09,-23.37"/>
<polygon fill="#63b8ff" stroke="#63b8ff" points="148.45,-20.13 137.85,-20.19 146.17,-26.75 148.45,-20.13"/>
</a>
</g>
</g>
<!-- Node8 -->
<g id="Node000008" class="node">
<title>Node8</title>
<g id="a_Node000008"><a xlink:title=" ">
<polygon fill="#e0e0e0" stroke="#999999" points="319.88,-19.25 264.12,-19.25 264.12,0 319.88,0 319.88,-19.25"/>
<text xml:space="preserve" text-anchor="middle" x="292" y="-5.75" font-family="Helvetica,sans-Serif" font-size="10.00">stdbool.h</text>
</a>
</g>
</g>
<!-- Node7&#45;&gt;Node8 -->
<g id="edge9_Node000007_Node000008" class="edge">
<title>Node7&#45;&gt;Node8</title>
<g id="a_edge9_Node000007_Node000008"><a xlink:title=" ">
<path fill="none" stroke="#63b8ff" d="M269.46,-55.08C272.95,-48.19 277.95,-38.34 282.35,-29.66"/>
<polygon fill="#63b8ff" stroke="#63b8ff" points="285.36,-31.46 286.76,-20.96 279.12,-28.3 285.36,-31.46"/>
</a>
</g>
</g>
<!-- Node7&#45;&gt;Node9 -->
<g id="edge10_Node000007_Node000009" class="edge">
<title>Node7&#45;&gt;Node9</title>
<g id="a_edge10_Node000007_Node000009"><a xlink:title=" ">
<path fill="none" stroke="#63b8ff" d="M284.17,-54.84C301.78,-46.54 328.16,-34.11 348.46,-24.54"/>
<polygon fill="#63b8ff" stroke="#63b8ff" points="349.81,-27.78 357.37,-20.35 346.83,-21.44 349.81,-27.78"/>
</a>
</g>
</g>
<!-- Node10&#45;&gt;Node9 -->
<g id="edge15_Node000010_Node000009" class="edge">
<title>Node10&#45;&gt;Node9</title>
<g id="a_edge15_Node000010_Node000009"><a xlink:title=" ">
<path fill="none" stroke="#63b8ff" d="M420.58,-55.08C413.46,-47.65 403.06,-36.79 394.31,-27.66"/>
<polygon fill="#63b8ff" stroke="#63b8ff" points="397.1,-25.5 387.65,-20.7 392.04,-30.35 397.1,-25.5"/>
</a>
</g>
</g>
<!-- Node11&#45;&gt;Node3 -->
<g id="edge17_Node000011_Node000003" class="edge">
<title>Node11&#45;&gt;Node3</title>
<g id="a_edge17_Node000011_Node000003"><a xlink:title=" ">
<path fill="none" stroke="#63b8ff" d="M311,-54.84C293.54,-46.54 267.4,-34.11 247.28,-24.54"/>
<polygon fill="#63b8ff" stroke="#63b8ff" points="248.99,-21.49 238.46,-20.35 245.99,-27.81 248.99,-21.49"/>
</a>
</g>
</g>
<!-- Node11&#45;&gt;Node8 -->
<g id="edge18_Node000011_Node000008" class="edge">
<title>Node11&#45;&gt;Node8</title>
<g id="a_edge18_Node000011_Node000008"><a xlink:title=" ">
<path fill="none" stroke="#63b8ff" d="M323.73,-55.08C318.64,-47.96 311.3,-37.68 304.97,-28.8"/>
<polygon fill="#63b8ff" stroke="#63b8ff" points="307.95,-26.95 299.29,-20.84 302.25,-31.01 307.95,-26.95"/>
</a>
</g>
</g>
<!-- Node11&#45;&gt;Node9 -->
<g id="edge19_Node000011_Node000009" class="edge">
<title>Node11&#45;&gt;Node9</title>
<g id="a_edge19_Node000011_Node000009"><a xlink:title=" ">
<path fill="none" stroke="#63b8ff" d="M337.93,-55.08C344.56,-47.73 354.22,-37.01 362.39,-27.94"/>
<polygon fill="#63b8ff" stroke="#63b8ff" points="364.79,-30.5 368.89,-20.73 359.59,-25.82 364.79,-30.5"/>
</a>
</g>
</g>
</g>
</svg>
