<?xml version="1.0" encoding="UTF-8" standalone="no"?>
<!DOCTYPE svg PUBLIC "-//W3C//DTD SVG 1.1//EN"
 "http://www.w3.org/Graphics/SVG/1.1/DTD/svg11.dtd">
<!-- Generated by graphviz version 14.0.0 (20250921.2048)
 -->
<!-- Title: src/common/parallel.c Pages: 1 -->
<svg width="301pt" height="193pt"
 viewBox="0.00 0.00 301.00 193.00" xmlns="http://www.w3.org/2000/svg" xmlns:xlink="http://www.w3.org/1999/xlink">
<g id="graph0" class="graph" transform="scale(1 1) rotate(0) translate(4 189)">
<title>src/common/parallel.c</title>
<!-- Node1 -->
<g id="Node000001" class="node">
<title>Node1</title>
<g id="a_Node000001"><a xlink:title=" ">
<polygon fill="#999999" stroke="#666666" points="186.14,-185 74.14,-185 74.14,-165.75 186.14,-165.75 186.14,-185"/>
<text xml:space="preserve" text-anchor="middle" x="130.14" y="-171.5" font-family="Helvetica,sans-Serif" font-size="10.00">src/common/parallel.c</text>
</a>
</g>
</g>
<!-- Node2 -->
<g id="Node000002" class="node">
<title>Node2</title>
<g id="a_Node000002"><a xlink:href="../../df/d5c/parallel_8h.html" target="_top" xlink:title=" ">
<polygon fill="white" stroke="#666666" points="74.64,-129.75 19.64,-129.75 19.64,-110.5 74.64,-110.5 74.64,-129.75"/>
<text xml:space="preserve" text-anchor="middle" x="47.14" y="-116.25" font-family="Helvetica,sans-Serif" font-size="10.00">parallel.h</text>
</a>
</g>
</g>
<!-- Node1&#45;&gt;Node2 -->
<g id="edge1_Node000001_Node000002" class="edge">
<title>Node1&#45;&gt;Node2</title>
<g id="a_edge1_Node000001_Node000002"><a xlink:title=" ">
<path fill="none" stroke="#63b8ff" d="M116.06,-165.34C103.66,-157.39 85.34,-145.64 70.71,-136.25"/>
<polygon fill="#63b8ff" stroke="#63b8ff" points="72.87,-133.47 62.56,-131.02 69.09,-139.37 72.87,-133.47"/>
</a>
</g>
</g>
<!-- Node3 -->
<g id="Node000003" class="node">
<title>Node3</title>
<g id="a_Node000003"><a xlink:title=" ">
<polygon fill="#e0e0e0" stroke="#999999" points="44.14,-19.25 4.14,-19.25 4.14,0 44.14,0 44.14,-19.25"/>
<text xml:space="preserve" text-anchor="middle" x="24.14" y="-5.75" font-family="Helvetica,sans-Serif" font-size="10.00">mpi.h</text>
</a>
</g>
</g>
<!-- Node1&#45;&gt;Node3 -->
<g id="edge9_Node000001_Node000003" class="edge">
<title>Node1&#45;&gt;Node3</title>
<g id="a_edge9_Node000001_Node000003"><a xlink:title=" ">
<path fill="none" stroke="#63b8ff" d="M73.83,-167.42C50.41,-161.44 25.4,-150.33 11.14,-129.75 -9.53,-99.93 3.99,-55.46 14.71,-30.14"/>
<polygon fill="#63b8ff" stroke="#63b8ff" points="17.89,-31.61 18.83,-21.06 11.51,-28.72 17.89,-31.61"/>
</a>
</g>
</g>
<!-- Node4 -->
<g id="Node000004" class="node">
<title>Node4</title>
<g id="a_Node000004"><a xlink:href="../../d2/d02/dtypes_8h.html" target="_top" xlink:title=" ">
<polygon fill="white" stroke="#666666" points="184.89,-74.5 131.39,-74.5 131.39,-55.25 184.89,-55.25 184.89,-74.5"/>
<text xml:space="preserve" text-anchor="middle" x="158.14" y="-61" font-family="Helvetica,sans-Serif" font-size="10.00">dtypes.h</text>
</a>
</g>
</g>
<!-- Node1&#45;&gt;Node4 -->
<g id="edge11_Node000001_Node000004" class="edge">
<title>Node1&#45;&gt;Node4</title>
<g id="a_edge11_Node000001_Node000004"><a xlink:title=" ">
<path fill="none" stroke="#63b8ff" d="M132.43,-165.5C136.9,-148.17 146.88,-109.48 153.01,-85.74"/>
<polygon fill="#63b8ff" stroke="#63b8ff" points="156.33,-86.9 155.44,-76.34 149.55,-85.15 156.33,-86.9"/>
</a>
</g>
</g>
<!-- Node6 -->
<g id="Node000006" class="node">
<title>Node6</title>
<g id="a_Node000006"><a xlink:href="../../d4/d0a/elph_c_8h.html" target="_top" xlink:title="Core type definitions and configuration for LetzElPhC.">
<polygon fill="white" stroke="#666666" points="112.01,-19.25 62.26,-19.25 62.26,0 112.01,0 112.01,-19.25"/>
<text xml:space="preserve" text-anchor="middle" x="87.14" y="-5.75" font-family="Helvetica,sans-Serif" font-size="10.00">elphC.h</text>
</a>
</g>
</g>
<!-- Node1&#45;&gt;Node6 -->
<g id="edge12_Node000001_Node000006" class="edge">
<title>Node1&#45;&gt;Node6</title>
<g id="a_edge12_Node000001_Node000006"><a xlink:title=" ">
<path fill="none" stroke="#63b8ff" d="M127.83,-165.57C121.15,-140.14 101.71,-66.1 92.32,-30.37"/>
<polygon fill="#63b8ff" stroke="#63b8ff" points="95.77,-29.72 89.85,-20.94 89,-31.5 95.77,-29.72"/>
</a>
</g>
</g>
<!-- Node7 -->
<g id="Node000007" class="node">
<title>Node7</title>
<g id="a_Node000007"><a xlink:href="../../da/d41/error_8h.html" target="_top" xlink:title=" ">
<polygon fill="white" stroke="#666666" points="246.64,-19.25 203.64,-19.25 203.64,0 246.64,0 246.64,-19.25"/>
<text xml:space="preserve" text-anchor="middle" x="225.14" y="-5.75" font-family="Helvetica,sans-Serif" font-size="10.00">error.h</text>
</a>
</g>
</g>
<!-- Node1&#45;&gt;Node7 -->
<g id="edge13_Node000001_Node000007" class="edge">
<title>Node1&#45;&gt;Node7</title>
<g id="a_edge13_Node000001_Node000007"><a xlink:title=" ">
<path fill="none" stroke="#63b8ff" d="M136.33,-165.51C148.2,-148.33 174.7,-109.17 194.14,-74.5 202.35,-59.85 210.6,-42.69 216.53,-29.85"/>
<polygon fill="#63b8ff" stroke="#63b8ff" points="219.67,-31.4 220.62,-20.85 213.3,-28.51 219.67,-31.4"/>
</a>
</g>
</g>
<!-- Node8 -->
<g id="Node000008" class="node">
<title>Node8</title>
<g id="a_Node000008"><a xlink:title=" ">
<polygon fill="#e0e0e0" stroke="#999999" points="292.76,-129.75 241.51,-129.75 241.51,-110.5 292.76,-110.5 292.76,-129.75"/>
<text xml:space="preserve" text-anchor="middle" x="267.14" y="-116.25" font-family="Helvetica,sans-Serif" font-size="10.00">stddef.h</text>
</a>
</g>
</g>
<!-- Node1&#45;&gt;Node8 -->
<g id="edge10_Node000001_Node000008" class="edge">
<title>Node1&#45;&gt;Node8</title>
<g id="a_edge10_Node000001_Node000008"><a xlink:title=" ">
<path fill="none" stroke="#63b8ff" d="M153.38,-165.34C175.32,-156.81 208.49,-143.92 233.35,-134.26"/>
<polygon fill="#63b8ff" stroke="#63b8ff" points="234.32,-137.64 242.37,-130.75 231.78,-131.11 234.32,-137.64"/>
</a>
</g>
</g>
<!-- Node2&#45;&gt;Node3 -->
<g id="edge2_Node000002_Node000003" class="edge">
<title>Node2&#45;&gt;Node3</title>
<g id="a_edge2_Node000002_Node000003"><a xlink:title=" ">
<path fill="none" stroke="#63b8ff" d="M45.26,-110.25C41.6,-93 33.46,-54.58 28.42,-30.81"/>
<polygon fill="#63b8ff" stroke="#63b8ff" points="31.86,-30.16 26.36,-21.11 25.01,-31.62 31.86,-30.16"/>
</a>
</g>
</g>
<!-- Node2&#45;&gt;Node4 -->
<g id="edge3_Node000002_Node000004" class="edge">
<title>Node2&#45;&gt;Node4</title>
<g id="a_edge3_Node000002_Node000004"><a xlink:title=" ">
<path fill="none" stroke="#63b8ff" d="M65.97,-110.09C83.19,-101.83 108.94,-89.48 128.85,-79.93"/>
<polygon fill="#63b8ff" stroke="#63b8ff" points="130.35,-83.09 137.85,-75.61 127.32,-76.78 130.35,-83.09"/>
</a>
</g>
</g>
<!-- Node2&#45;&gt;Node6 -->
<g id="edge8_Node000002_Node000006" class="edge">
<title>Node2&#45;&gt;Node6</title>
<g id="a_edge8_Node000002_Node000006"><a xlink:title=" ">
<path fill="none" stroke="#63b8ff" d="M50.41,-110.25C56.83,-92.84 71.19,-53.87 79.94,-30.16"/>
<polygon fill="#63b8ff" stroke="#63b8ff" points="83.12,-31.64 83.3,-21.05 76.55,-29.22 83.12,-31.64"/>
</a>
</g>
</g>
<!-- Node4&#45;&gt;Node3 -->
<g id="edge4_Node000004_Node000003" class="edge">
<title>Node4&#45;&gt;Node3</title>
<g id="a_edge4_Node000004_Node000003"><a xlink:title=" ">
<path fill="none" stroke="#63b8ff" d="M135.41,-54.84C113.26,-46.04 79.44,-32.6 54.89,-22.85"/>
<polygon fill="#63b8ff" stroke="#63b8ff" points="56.34,-19.66 45.75,-19.21 53.75,-26.16 56.34,-19.66"/>
</a>
</g>
</g>
<!-- Node5 -->
<g id="Node000005" class="node">
<title>Node5</title>
<g id="a_Node000005"><a xlink:title=" ">
<polygon fill="#e0e0e0" stroke="#999999" points="186.01,-19.25 130.26,-19.25 130.26,0 186.01,0 186.01,-19.25"/>
<text xml:space="preserve" text-anchor="middle" x="158.14" y="-5.75" font-family="Helvetica,sans-Serif" font-size="10.00">stdbool.h</text>
</a>
</g>
</g>
<!-- Node4&#45;&gt;Node5 -->
<g id="edge5_Node000004_Node000005" class="edge">
<title>Node4&#45;&gt;Node5</title>
<g id="a_edge5_Node000004_Node000005"><a xlink:title=" ">
<path fill="none" stroke="#63b8ff" d="M158.14,-55.08C158.14,-48.57 158.14,-39.42 158.14,-31.12"/>
<polygon fill="#63b8ff" stroke="#63b8ff" points="161.64,-31.12 158.14,-21.12 154.64,-31.12 161.64,-31.12"/>
</a>
</g>
</g>
<!-- Node4&#45;&gt;Node6 -->
<g id="edge6_Node000004_Node000006" class="edge">
<title>Node4&#45;&gt;Node6</title>
<g id="a_edge6_Node000004_Node000006"><a xlink:title=" ">
<path fill="none" stroke="#63b8ff" d="M146.09,-54.84C135.73,-47.07 120.54,-35.67 108.17,-26.4"/>
<polygon fill="#63b8ff" stroke="#63b8ff" points="110.31,-23.63 100.21,-20.43 106.11,-29.23 110.31,-23.63"/>
</a>
</g>
</g>
<!-- Node4&#45;&gt;Node7 -->
<g id="edge7_Node000004_Node000007" class="edge">
<title>Node4&#45;&gt;Node7</title>
<g id="a_edge7_Node000004_Node000007"><a xlink:title=" ">
<path fill="none" stroke="#63b8ff" d="M169.5,-54.84C179.19,-47.15 193.34,-35.9 204.94,-26.68"/>
<polygon fill="#63b8ff" stroke="#63b8ff" points="207.1,-29.43 212.75,-20.47 202.75,-23.95 207.1,-29.43"/>
</a>
</g>
</g>
</g>
</svg>
