<?xml version="1.0" encoding="UTF-8" standalone="no"?>
<!DOCTYPE svg PUBLIC "-//W3C//DTD SVG 1.1//EN"
 "http://www.w3.org/Graphics/SVG/1.1/DTD/svg11.dtd">
<!-- Generated by graphviz version 14.0.0 (20250921.2048)
 -->
<!-- Title: elph_q_rotate Pages: 1 -->
<svg width="328pt" height="101pt"
 viewBox="0.00 0.00 328.00 101.00" xmlns="http://www.w3.org/2000/svg" xmlns:xlink="http://www.w3.org/1999/xlink">
<g id="graph0" class="graph" transform="scale(1 1) rotate(0) translate(4 97.25)">
<title>elph_q_rotate</title>
<!-- Node1 -->
<g id="Node000001" class="node">
<title>Node1</title>
<g id="a_Node000001"><a xlink:title=" ">
<polygon fill="#999999" stroke="#666666" points="74.5,-56.25 0,-56.25 0,-37 74.5,-37 74.5,-56.25"/>
<text xml:space="preserve" text-anchor="middle" x="37.25" y="-42.75" font-family="Helvetica,sans-Serif" font-size="10.00">elph_q_rotate</text>
</a>
</g>
</g>
<!-- Node2 -->
<g id="Node000002" class="node">
<title>Node2</title>
<g id="a_Node000002"><a xlink:href="../../da/d97/_e_l_p_h__timers_8c.html#a4846a0dbe6a17751878baf1315af43aa" target="_top" xlink:title=" ">
<polygon fill="white" stroke="#666666" points="206,-93.25 110.5,-93.25 110.5,-74 206,-74 206,-93.25"/>
<text xml:space="preserve" text-anchor="middle" x="158.25" y="-79.75" font-family="Helvetica,sans-Serif" font-size="10.00">ELPH_start_clock</text>
</a>
</g>
</g>
<!-- Node1&#45;&gt;Node2 -->
<g id="edge1_Node000001_Node000002" class="edge">
<title>Node1&#45;&gt;Node2</title>
<g id="a_edge1_Node000001_Node000002"><a xlink:title=" ">
<path fill="none" stroke="#63b8ff" d="M70.77,-56.74C84.15,-60.9 99.84,-65.77 114.15,-70.23"/>
<polygon fill="#63b8ff" stroke="#63b8ff" points="112.74,-73.45 123.33,-73.08 114.82,-66.77 112.74,-73.45"/>
</a>
</g>
</g>
<!-- Node3 -->
<g id="Node000003" class="node">
<title>Node3</title>
<g id="a_Node000003"><a xlink:href="../../da/d97/_e_l_p_h__timers_8c.html#adcc3002449fe62895b6e89571d00ba48" target="_top" xlink:title=" ">
<polygon fill="white" stroke="#666666" points="205.62,-56.25 110.88,-56.25 110.88,-37 205.62,-37 205.62,-56.25"/>
<text xml:space="preserve" text-anchor="middle" x="158.25" y="-42.75" font-family="Helvetica,sans-Serif" font-size="10.00">ELPH_stop_clock</text>
</a>
</g>
</g>
<!-- Node1&#45;&gt;Node3 -->
<g id="edge2_Node000001_Node000003" class="edge">
<title>Node1&#45;&gt;Node3</title>
<g id="a_edge2_Node000001_Node000003"><a xlink:title=" ">
<path fill="none" stroke="#63b8ff" d="M74.92,-46.62C82.54,-46.62 90.74,-46.62 98.91,-46.62"/>
<polygon fill="#63b8ff" stroke="#63b8ff" points="98.86,-50.13 108.86,-46.63 98.86,-43.13 98.86,-50.13"/>
</a>
</g>
</g>
<!-- Node4 -->
<g id="Node000004" class="node">
<title>Node4</title>
<g id="a_Node000004"><a xlink:href="../../dc/d50/blas_8c.html#a93d327b9e3c8bd925ff76d32df39809c" target="_top" xlink:title=" ">
<polygon fill="white" stroke="#666666" points="198.12,-19.25 118.38,-19.25 118.38,0 198.12,0 198.12,-19.25"/>
<text xml:space="preserve" text-anchor="middle" x="158.25" y="-5.75" font-family="Helvetica,sans-Serif" font-size="10.00">matmul_cmplx</text>
</a>
</g>
</g>
<!-- Node1&#45;&gt;Node4 -->
<g id="edge3_Node000001_Node000004" class="edge">
<title>Node1&#45;&gt;Node4</title>
<g id="a_edge3_Node000001_Node000004"><a xlink:title=" ">
<path fill="none" stroke="#63b8ff" d="M70.77,-36.51C84.15,-32.35 99.84,-27.48 114.15,-23.02"/>
<polygon fill="#63b8ff" stroke="#63b8ff" points="114.82,-26.48 123.33,-20.17 112.74,-19.8 114.82,-26.48"/>
</a>
</g>
</g>
<!-- Node5 -->
<g id="Node000005" class="node">
<title>Node5</title>
<g id="a_Node000005"><a xlink:href="../../dc/d50/blas_8c.html#a913bafabc05e83b2aeed88da231a461f" target="_top" xlink:title=" ">
<polygon fill="white" stroke="#666666" points="320.25,-19.25 242,-19.25 242,0 320.25,0 320.25,-19.25"/>
<text xml:space="preserve" text-anchor="middle" x="281.12" y="-5.75" font-family="Helvetica,sans-Serif" font-size="10.00">get_gemmn_T</text>
</a>
</g>
</g>
<!-- Node4&#45;&gt;Node5 -->
<g id="edge4_Node000004_Node000005" class="edge">
<title>Node4&#45;&gt;Node5</title>
<g id="a_edge4_Node000004_Node000005"><a xlink:title=" ">
<path fill="none" stroke="#63b8ff" d="M198.49,-9.62C208.72,-9.62 219.87,-9.62 230.56,-9.62"/>
<polygon fill="#63b8ff" stroke="#63b8ff" points="230.39,-13.13 240.39,-9.63 230.39,-6.13 230.39,-13.13"/>
</a>
</g>
</g>
</g>
</svg>
