<?xml version="1.0" encoding="UTF-8" standalone="no"?>
<!DOCTYPE svg PUBLIC "-//W3C//DTD SVG 1.1//EN"
 "http://www.w3.org/Graphics/SVG/1.1/DTD/svg11.dtd">
<!-- Generated by graphviz version 14.0.0 (20250921.2048)
 -->
<!-- Title: bz_expand Pages: 1 -->
<svg width="193pt" height="64pt"
 viewBox="0.00 0.00 193.00 64.00" xmlns="http://www.w3.org/2000/svg" xmlns:xlink="http://www.w3.org/1999/xlink">
<g id="graph0" class="graph" transform="scale(1 1) rotate(0) translate(4 60.25)">
<title>bz_expand</title>
<!-- Node1 -->
<g id="Node000001" class="node">
<title>Node1</title>
<g id="a_Node000001"><a xlink:title=" ">
<polygon fill="#999999" stroke="#666666" points="63.25,-37.25 0,-37.25 0,-18 63.25,-18 63.25,-37.25"/>
<text xml:space="preserve" text-anchor="middle" x="31.62" y="-23.75" font-family="Helvetica,sans-Serif" font-size="10.00">bz_expand</text>
</a>
</g>
</g>
<!-- Node2 -->
<g id="Node000002" class="node">
<title>Node2</title>
<g id="a_Node000002"><a xlink:href="../../de/d2d/numerical__func_8c.html#a95da0d07e74aa4a00285324f1464224b" target="_top" xlink:title=" ">
<polygon fill="white" stroke="#666666" points="185,-56.25 99.25,-56.25 99.25,-37 185,-37 185,-56.25"/>
<text xml:space="preserve" text-anchor="middle" x="142.12" y="-42.75" font-family="Helvetica,sans-Serif" font-size="10.00">find_kidx_in_list</text>
</a>
</g>
</g>
<!-- Node1&#45;&gt;Node2 -->
<g id="edge1_Node000001_Node000002" class="edge">
<title>Node1&#45;&gt;Node2</title>
<g id="a_edge1_Node000001_Node000002"><a xlink:title=" ">
<path fill="none" stroke="#63b8ff" d="M63.72,-33.07C71.29,-34.4 79.61,-35.85 87.9,-37.3"/>
<polygon fill="#63b8ff" stroke="#63b8ff" points="87.16,-40.73 97.62,-39.01 88.37,-33.83 87.16,-40.73"/>
</a>
</g>
</g>
<!-- Node3 -->
<g id="Node000003" class="node">
<title>Node3</title>
<g id="a_Node000003"><a xlink:href="../../de/d2d/numerical__func_8c.html#adeeb2c0049b8e3663d2d2cc9f7a1cd23" target="_top" xlink:title=" ">
<polygon fill="white" stroke="#666666" points="171.12,-19.25 113.12,-19.25 113.12,0 171.12,0 171.12,-19.25"/>
<text xml:space="preserve" text-anchor="middle" x="142.12" y="-5.75" font-family="Helvetica,sans-Serif" font-size="10.00">MatVec3f</text>
</a>
</g>
</g>
<!-- Node1&#45;&gt;Node3 -->
<g id="edge2_Node000001_Node000003" class="edge">
<title>Node1&#45;&gt;Node3</title>
<g id="a_edge2_Node000001_Node000003"><a xlink:title=" ">
<path fill="none" stroke="#63b8ff" d="M63.72,-22.47C75.51,-20.51 89.1,-18.26 101.57,-16.19"/>
<polygon fill="#63b8ff" stroke="#63b8ff" points="101.84,-19.69 111.13,-14.6 100.7,-12.78 101.84,-19.69"/>
</a>
</g>
</g>
</g>
</svg>
