<?xml version="1.0" encoding="UTF-8" standalone="no"?>
<!DOCTYPE svg PUBLIC "-//W3C//DTD SVG 1.1//EN"
 "http://www.w3.org/Graphics/SVG/1.1/DTD/svg11.dtd">
<!-- Generated by graphviz version 14.0.0 (20250921.2048)
 -->
<!-- Title: src/fft/planner.c Pages: 1 -->
<!--zoomable 193 -->

<svg id="main" version="1.1" xmlns="http://www.w3.org/2000/svg" xmlns:xlink="http://www.w3.org/1999/xlink" xml:space="preserve" onload="init(evt)">

<style type="text/css"><![CDATA[
.node, .edge {opacity: 0.7;}
.node.selected, .edge.selected {opacity: 1;}
.edge:hover path { stroke: red; }
.edge:hover polygon { stroke: red; fill: red; }
]]></style>

<defs>
  <circle id="rim" cx="0" cy="0" r="7"/>
  <circle id="rim2" cx="0" cy="0" r="3.5"/>
  <g id="zoomPlus">
    <use xlink:href="#rim" fill="#404040"><set attributeName="fill" to="#808080" begin="zoomplus.mouseover" end="zoomplus.mouseout"/></use>
    <path d="M-4,0h8M0,-4v8" fill="none" stroke="white" stroke-width="1.5" pointer-events="none"/>
  </g>
  <g id="zoomMin">
    <use xlink:href="#rim" fill="#404040"><set attributeName="fill" to="#808080" begin="zoomminus.mouseover" end="zoomminus.mouseout"/></use>
    <path d="M-4,0h8" fill="none" stroke="white" stroke-width="1.5" pointer-events="none"/>
  </g>
  <g id="arrowUp" transform="translate(30 24)">
    <use xlink:href="#rim"/>
    <path pointer-events="none" fill="none" stroke="white" stroke-width="1.5" d="M0,-3.0v7 M-2.5,-0.5L0,-3.0L2.5,-0.5"/>
  </g>
  <g id="arrowRight" transform="rotate(90) translate(36 -43)">
    <use xlink:href="#rim"/>
    <path pointer-events="none" fill="none" stroke="white" stroke-width="1.5" d="M0,-3.0v7 M-2.5,-0.5L0,-3.0L2.5,-0.5"/>
  </g>
  <g id="arrowDown" transform="rotate(180) translate(-30 -48)">
    <use xlink:href="#rim"/>
    <path pointer-events="none" fill="none" stroke="white" stroke-width="1.5" d="M0,-3.0v7 M-2.5,-0.5L0,-3.0L2.5,-0.5"/>
  </g>
  <g id="arrowLeft" transform="rotate(270) translate(-36 17)">
    <use xlink:href="#rim"/>
    <path pointer-events="none" fill="none" stroke="white" stroke-width="1.5" d="M0,-3.0v7 M-2.5,-0.5L0,-3.0L2.5,-0.5"/>
  </g>
  <g id="resetDef">
    <use xlink:href="#rim2" fill="#404040"><set attributeName="fill" to="#808080" begin="reset.mouseover" end="reset.mouseout"/></use>
  </g>
</defs>
<script type="application/ecmascript">
var viewWidth = 619;
var viewHeight = 193;
var sectionId = 'dynsection-0';
</script>
<script type="application/ecmascript" xlink:href="../../svg.min.js"/>
<svg id="graph" class="graph">
<g id="viewport">
<title>src/fft/planner.c</title>
<!-- Node1 -->
<g id="Node000001" class="node">
<title>Node1</title>
<g id="a_Node000001"><a xlink:title=" ">
<polygon fill="#999999" stroke="#666666" points="379.49,-185 295.99,-185 295.99,-165.75 379.49,-165.75 379.49,-185"/>
<text xml:space="preserve" text-anchor="middle" x="337.74" y="-171.5" font-family="Helvetica,sans-Serif" font-size="10.00">src/fft/planner.c</text>
</a>
</g>
</g>
<!-- Node2 -->
<g id="Node000002" class="node">
<title>Node2</title>
<g id="a_Node000002"><a xlink:title=" ">
<polygon fill="#e0e0e0" stroke="#999999" points="76.24,-74.5 15.24,-74.5 15.24,-55.25 76.24,-55.25 76.24,-74.5"/>
<text xml:space="preserve" text-anchor="middle" x="45.74" y="-61" font-family="Helvetica,sans-Serif" font-size="10.00">complex.h</text>
</a>
</g>
</g>
<!-- Node1&#45;&gt;Node2 -->
<g id="edge1_Node000001_Node000002" class="edge">
<title>Node1&#45;&gt;Node2</title>
<g id="a_edge1_Node000001_Node000002"><a xlink:title=" ">
<path fill="none" stroke="#63b8ff" d="M295.52,-169.65C254.21,-163.94 190.19,-152.18 138.74,-129.75 110.76,-117.55 82.39,-96.53 64.46,-81.96"/>
<polygon fill="#63b8ff" stroke="#63b8ff" points="67.19,-79.67 57.27,-75.97 62.72,-85.05 67.19,-79.67"/>
</a>
</g>
</g>
<!-- Node3 -->
<g id="Node000003" class="node">
<title>Node3</title>
<g id="a_Node000003"><a xlink:title=" ">
<polygon fill="#e0e0e0" stroke="#999999" points="140.74,-74.5 94.74,-74.5 94.74,-55.25 140.74,-55.25 140.74,-74.5"/>
<text xml:space="preserve" text-anchor="middle" x="117.74" y="-61" font-family="Helvetica,sans-Serif" font-size="10.00">fftw3.h</text>
</a>
</g>
</g>
<!-- Node1&#45;&gt;Node3 -->
<g id="edge2_Node000001_Node000003" class="edge">
<title>Node1&#45;&gt;Node3</title>
<g id="a_edge2_Node000001_Node000003"><a xlink:title=" ">
<path fill="none" stroke="#63b8ff" d="M295.53,-172.01C257.55,-168.06 201.72,-157.57 161.74,-129.75 145.7,-118.58 133.7,-99.54 126.32,-85.14"/>
<polygon fill="#63b8ff" stroke="#63b8ff" points="129.52,-83.72 122.05,-76.2 123.2,-86.73 129.52,-83.72"/>
</a>
</g>
</g>
<!-- Node4 -->
<g id="Node000004" class="node">
<title>Node4</title>
<g id="a_Node000004"><a xlink:title=" ">
<polygon fill="#e0e0e0" stroke="#999999" points="207.74,-19.25 167.74,-19.25 167.74,0 207.74,0 207.74,-19.25"/>
<text xml:space="preserve" text-anchor="middle" x="187.74" y="-5.75" font-family="Helvetica,sans-Serif" font-size="10.00">mpi.h</text>
</a>
</g>
</g>
<!-- Node1&#45;&gt;Node4 -->
<g id="edge3_Node000001_Node000004" class="edge">
<title>Node1&#45;&gt;Node4</title>
<g id="a_edge3_Node000001_Node000004"><a xlink:title=" ">
<path fill="none" stroke="#63b8ff" d="M295.68,-170.71C247.58,-165.55 167.05,-153.93 101.74,-129.75 55.58,-112.66 30.39,-117.12 5.74,-74.5 -26.94,-17.97 95.77,-10.5 156.1,-10.15"/>
<polygon fill="#63b8ff" stroke="#63b8ff" points="155.75,-13.65 165.76,-10.16 155.76,-6.65 155.75,-13.65"/>
</a>
</g>
</g>
<!-- Node5 -->
<g id="Node000005" class="node">
<title>Node5</title>
<g id="a_Node000005"><a xlink:title=" ">
<polygon fill="#e0e0e0" stroke="#999999" points="544.49,-129.75 496.99,-129.75 496.99,-110.5 544.49,-110.5 544.49,-129.75"/>
<text xml:space="preserve" text-anchor="middle" x="520.74" y="-116.25" font-family="Helvetica,sans-Serif" font-size="10.00">stdlib.h</text>
</a>
</g>
</g>
<!-- Node1&#45;&gt;Node5 -->
<g id="edge4_Node000001_Node000005" class="edge">
<title>Node1&#45;&gt;Node5</title>
<g id="a_edge4_Node000001_Node000005"><a xlink:title=" ">
<path fill="none" stroke="#63b8ff" d="M368.79,-165.34C401.22,-155.9 451.99,-141.13 485.81,-131.29"/>
<polygon fill="#63b8ff" stroke="#63b8ff" points="486.5,-134.74 495.12,-128.58 484.54,-128.01 486.5,-134.74"/>
</a>
</g>
</g>
<!-- Node6 -->
<g id="Node000006" class="node">
<title>Node6</title>
<g id="a_Node000006"><a xlink:title=" ">
<polygon fill="#e0e0e0" stroke="#999999" points="610.87,-129.75 562.62,-129.75 562.62,-110.5 610.87,-110.5 610.87,-129.75"/>
<text xml:space="preserve" text-anchor="middle" x="586.74" y="-116.25" font-family="Helvetica,sans-Serif" font-size="10.00">string.h</text>
</a>
</g>
</g>
<!-- Node1&#45;&gt;Node6 -->
<g id="edge5_Node000001_Node000006" class="edge">
<title>Node1&#45;&gt;Node6</title>
<g id="a_edge5_Node000001_Node000006"><a xlink:title=" ">
<path fill="none" stroke="#63b8ff" d="M379.7,-166.38C421.02,-158.35 486.2,-145.3 551.39,-130.21"/>
<polygon fill="#63b8ff" stroke="#63b8ff" points="551.85,-133.7 560.8,-128.02 550.26,-126.88 551.85,-133.7"/>
</a>
</g>
</g>
<!-- Node7 -->
<g id="Node000007" class="node">
<title>Node7</title>
<g id="a_Node000007"><a xlink:href="../../da/d41/error_8h.html" target="_top" xlink:title=" ">
<polygon fill="white" stroke="#666666" points="498.49,-19.25 414.99,-19.25 414.99,0 498.49,0 498.49,-19.25"/>
<text xml:space="preserve" text-anchor="middle" x="456.74" y="-5.75" font-family="Helvetica,sans-Serif" font-size="10.00">common/error.h</text>
</a>
</g>
</g>
<!-- Node1&#45;&gt;Node7 -->
<g id="edge6_Node000001_Node000007" class="edge">
<title>Node1&#45;&gt;Node7</title>
<g id="a_edge6_Node000001_Node000007"><a xlink:title=" ">
<path fill="none" stroke="#63b8ff" d="M360.24,-165.34C376.25,-157.9 397.23,-145.95 410.74,-129.75 435.29,-100.33 447.66,-56.35 453.1,-30.87"/>
<polygon fill="#63b8ff" stroke="#63b8ff" points="456.51,-31.67 455.01,-21.19 449.64,-30.32 456.51,-31.67"/>
</a>
</g>
</g>
<!-- Node8 -->
<g id="Node000008" class="node">
<title>Node8</title>
<g id="a_Node000008"><a xlink:href="../../df/d5c/parallel_8h.html" target="_top" xlink:title=" ">
<polygon fill="white" stroke="#666666" points="385.49,-129.75 289.99,-129.75 289.99,-110.5 385.49,-110.5 385.49,-129.75"/>
<text xml:space="preserve" text-anchor="middle" x="337.74" y="-116.25" font-family="Helvetica,sans-Serif" font-size="10.00">common/parallel.h</text>
</a>
</g>
</g>
<!-- Node1&#45;&gt;Node8 -->
<g id="edge7_Node000001_Node000008" class="edge">
<title>Node1&#45;&gt;Node8</title>
<g id="a_edge7_Node000001_Node000008"><a xlink:title=" ">
<path fill="none" stroke="#63b8ff" d="M337.74,-165.58C337.74,-159.07 337.74,-149.92 337.74,-141.62"/>
<polygon fill="#63b8ff" stroke="#63b8ff" points="341.24,-141.62 337.74,-131.62 334.24,-141.62 341.24,-141.62"/>
</a>
</g>
</g>
<!-- Node11 -->
<g id="Node000011" class="node">
<title>Node11</title>
<g id="a_Node000011"><a xlink:href="../../d4/d0a/elph_c_8h.html" target="_top" xlink:title="Core type definitions and configuration for LetzElPhC.">
<polygon fill="white" stroke="#666666" points="373.62,-19.25 323.87,-19.25 323.87,0 373.62,0 373.62,-19.25"/>
<text xml:space="preserve" text-anchor="middle" x="348.74" y="-5.75" font-family="Helvetica,sans-Serif" font-size="10.00">elphC.h</text>
</a>
</g>
</g>
<!-- Node1&#45;&gt;Node11 -->
<g id="edge15_Node000001_Node000011" class="edge">
<title>Node1&#45;&gt;Node11</title>
<g id="a_edge15_Node000001_Node000011"><a xlink:title=" ">
<path fill="none" stroke="#63b8ff" d="M356.94,-165.25C370.25,-157.77 386.93,-145.79 394.74,-129.75 401.46,-115.97 399.2,-78.7 388.74,-55.25 384.01,-44.64 375.8,-34.8 368.05,-27.08"/>
<polygon fill="#63b8ff" stroke="#63b8ff" points="370.81,-24.86 361.1,-20.62 366.04,-29.99 370.81,-24.86"/>
</a>
</g>
</g>
<!-- Node12 -->
<g id="Node000012" class="node">
<title>Node12</title>
<g id="a_Node000012"><a xlink:href="../../d7/d76/fft_8h.html" target="_top" xlink:title=" ">
<polygon fill="white" stroke="#666666" points="204.37,-129.75 171.12,-129.75 171.12,-110.5 204.37,-110.5 204.37,-129.75"/>
<text xml:space="preserve" text-anchor="middle" x="187.74" y="-116.25" font-family="Helvetica,sans-Serif" font-size="10.00">fft.h</text>
</a>
</g>
</g>
<!-- Node1&#45;&gt;Node12 -->
<g id="edge16_Node000001_Node000012" class="edge">
<title>Node1&#45;&gt;Node12</title>
<g id="a_edge16_Node000001_Node000012"><a xlink:title=" ">
<path fill="none" stroke="#63b8ff" d="M312.3,-165.34C285.26,-155.74 242.68,-140.63 214.98,-130.79"/>
<polygon fill="#63b8ff" stroke="#63b8ff" points="216.48,-127.61 205.89,-127.57 214.14,-134.21 216.48,-127.61"/>
</a>
</g>
</g>
<!-- Node8&#45;&gt;Node4 -->
<g id="edge8_Node000008_Node000004" class="edge">
<title>Node8&#45;&gt;Node4</title>
<g id="a_edge8_Node000008_Node000004"><a xlink:title=" ">
<path fill="none" stroke="#63b8ff" d="M325.21,-110.06C299.56,-91.51 240.81,-49.01 209.06,-26.04"/>
<polygon fill="#63b8ff" stroke="#63b8ff" points="211.51,-23.5 201.36,-20.47 207.41,-29.17 211.51,-23.5"/>
</a>
</g>
</g>
<!-- Node9 -->
<g id="Node000009" class="node">
<title>Node9</title>
<g id="a_Node000009"><a xlink:href="../../d2/d02/dtypes_8h.html" target="_top" xlink:title=" ">
<polygon fill="white" stroke="#666666" points="364.49,-74.5 310.99,-74.5 310.99,-55.25 364.49,-55.25 364.49,-74.5"/>
<text xml:space="preserve" text-anchor="middle" x="337.74" y="-61" font-family="Helvetica,sans-Serif" font-size="10.00">dtypes.h</text>
</a>
</g>
</g>
<!-- Node8&#45;&gt;Node9 -->
<g id="edge9_Node000008_Node000009" class="edge">
<title>Node8&#45;&gt;Node9</title>
<g id="a_edge9_Node000008_Node000009"><a xlink:title=" ">
<path fill="none" stroke="#63b8ff" d="M337.74,-110.33C337.74,-103.82 337.74,-94.67 337.74,-86.37"/>
<polygon fill="#63b8ff" stroke="#63b8ff" points="341.24,-86.37 337.74,-76.37 334.24,-86.37 341.24,-86.37"/>
</a>
</g>
</g>
<!-- Node8&#45;&gt;Node11 -->
<g id="edge14_Node000008_Node000011" class="edge">
<title>Node8&#45;&gt;Node11</title>
<g id="a_edge14_Node000008_Node000011"><a xlink:title=" ">
<path fill="none" stroke="#63b8ff" d="M348.25,-110.08C356.96,-101.82 368.71,-88.77 373.74,-74.5 379.25,-58.91 371.43,-41.43 363.11,-28.71"/>
<polygon fill="#63b8ff" stroke="#63b8ff" points="366.16,-26.95 357.47,-20.88 360.48,-31.04 366.16,-26.95"/>
</a>
</g>
</g>
<!-- Node9&#45;&gt;Node4 -->
<g id="edge10_Node000009_Node000004" class="edge">
<title>Node9&#45;&gt;Node4</title>
<g id="a_edge10_Node000009_Node000004"><a xlink:title=" ">
<path fill="none" stroke="#63b8ff" d="M312.3,-54.84C286.44,-45.66 246.35,-31.43 218.68,-21.61"/>
<polygon fill="#63b8ff" stroke="#63b8ff" points="220.03,-18.37 209.44,-18.33 217.69,-24.97 220.03,-18.37"/>
</a>
</g>
</g>
<!-- Node9&#45;&gt;Node7 -->
<g id="edge13_Node000009_Node000007" class="edge">
<title>Node9&#45;&gt;Node7</title>
<g id="a_edge13_Node000009_Node000007"><a xlink:title=" ">
<path fill="none" stroke="#63b8ff" d="M357.93,-54.84C376.65,-46.47 404.77,-33.88 426.23,-24.28"/>
<polygon fill="#63b8ff" stroke="#63b8ff" points="427.38,-27.6 435.08,-20.32 424.52,-21.21 427.38,-27.6"/>
</a>
</g>
</g>
<!-- Node10 -->
<g id="Node000010" class="node">
<title>Node10</title>
<g id="a_Node000010"><a xlink:title=" ">
<polygon fill="#e0e0e0" stroke="#999999" points="297.62,-19.25 241.87,-19.25 241.87,0 297.62,0 297.62,-19.25"/>
<text xml:space="preserve" text-anchor="middle" x="269.74" y="-5.75" font-family="Helvetica,sans-Serif" font-size="10.00">stdbool.h</text>
</a>
</g>
</g>
<!-- Node9&#45;&gt;Node10 -->
<g id="edge11_Node000009_Node000010" class="edge">
<title>Node9&#45;&gt;Node10</title>
<g id="a_edge11_Node000009_Node000010"><a xlink:title=" ">
<path fill="none" stroke="#63b8ff" d="M326.21,-54.84C316.28,-47.07 301.73,-35.67 289.89,-26.4"/>
<polygon fill="#63b8ff" stroke="#63b8ff" points="292.33,-23.87 282.3,-20.46 288.02,-29.38 292.33,-23.87"/>
</a>
</g>
</g>
<!-- Node9&#45;&gt;Node11 -->
<g id="edge12_Node000009_Node000011" class="edge">
<title>Node9&#45;&gt;Node11</title>
<g id="a_edge12_Node000009_Node000011"><a xlink:title=" ">
<path fill="none" stroke="#63b8ff" d="M339.56,-55.08C340.92,-48.49 342.84,-39.21 344.57,-30.82"/>
<polygon fill="#63b8ff" stroke="#63b8ff" points="347.99,-31.59 346.58,-21.09 341.13,-30.18 347.99,-31.59"/>
</a>
</g>
</g>
<!-- Node12&#45;&gt;Node2 -->
<g id="edge18_Node000012_Node000002" class="edge">
<title>Node12&#45;&gt;Node2</title>
<g id="a_edge18_Node000012_Node000002"><a xlink:title=" ">
<path fill="none" stroke="#63b8ff" d="M170.9,-112.81C148.68,-104.48 109.06,-89.62 80.33,-78.85"/>
<polygon fill="#63b8ff" stroke="#63b8ff" points="81.93,-75.71 71.33,-75.47 79.47,-82.26 81.93,-75.71"/>
</a>
</g>
</g>
<!-- Node12&#45;&gt;Node3 -->
<g id="edge19_Node000012_Node000003" class="edge">
<title>Node12&#45;&gt;Node3</title>
<g id="a_edge19_Node000012_Node000003"><a xlink:title=" ">
<path fill="none" stroke="#63b8ff" d="M175.87,-110.09C165.65,-102.32 150.67,-90.92 138.48,-81.65"/>
<polygon fill="#63b8ff" stroke="#63b8ff" points="140.73,-78.96 130.65,-75.69 136.49,-84.53 140.73,-78.96"/>
</a>
</g>
</g>
<!-- Node12&#45;&gt;Node4 -->
<g id="edge20_Node000012_Node000004" class="edge">
<title>Node12&#45;&gt;Node4</title>
<g id="a_edge20_Node000012_Node000004"><a xlink:title=" ">
<path fill="none" stroke="#63b8ff" d="M187.74,-110.25C187.74,-93 187.74,-54.58 187.74,-30.81"/>
<polygon fill="#63b8ff" stroke="#63b8ff" points="191.24,-31.14 187.74,-21.14 184.24,-31.14 191.24,-31.14"/>
</a>
</g>
</g>
<!-- Node12&#45;&gt;Node10 -->
<g id="edge21_Node000012_Node000010" class="edge">
<title>Node12&#45;&gt;Node10</title>
<g id="a_edge21_Node000012_Node000010"><a xlink:title=" ">
<path fill="none" stroke="#63b8ff" d="M194.45,-110.25C207.91,-92.44 238.41,-52.08 256.19,-28.56"/>
<polygon fill="#63b8ff" stroke="#63b8ff" points="258.79,-30.92 262.03,-20.83 253.21,-26.7 258.79,-30.92"/>
</a>
</g>
</g>
<!-- Node12&#45;&gt;Node11 -->
<g id="edge17_Node000012_Node000011" class="edge">
<title>Node12&#45;&gt;Node11</title>
<g id="a_edge17_Node000012_Node000011"><a xlink:title=" ">
<path fill="none" stroke="#63b8ff" d="M201.19,-110.06C228.85,-91.43 292.33,-48.65 326.31,-25.75"/>
<polygon fill="#63b8ff" stroke="#63b8ff" points="327.85,-28.92 334.19,-20.43 323.94,-23.12 327.85,-28.92"/>
</a>
</g>
</g>
</g>
</svg>

<g id="navigator" transform="translate(0 0)" fill="#404254">
  <rect fill="#f2f5e9" fill-opacity="0.5" stroke="#606060" stroke-width=".5" x="0" y="0" width="60" height="60"/>
  <use id="zoomplus" xlink:href="#zoomPlus" x="17" y="9" onmousedown="handleZoom(evt,'in')"/>
  <use id="zoomminus" xlink:href="#zoomMin" x="42" y="9" onmousedown="handleZoom(evt,'out')"/>
  <use id="reset" xlink:href="#resetDef" x="30" y="36" onmousedown="handleReset()"/>
   <use id="arrowup" xlink:href="#arrowUp" x="0" y="0" onmousedown="handlePan(0,-1)"/>
  <use id="arrowright" xlink:href="#arrowRight" x="0" y="0" onmousedown="handlePan(1,0)"/>
  <use id="arrowdown" xlink:href="#arrowDown" x="0" y="0" onmousedown="handlePan(0,1)"/>
  <use id="arrowleft" xlink:href="#arrowLeft" x="0" y="0" onmousedown="handlePan(-1,0)"/>
</g>
<svg viewBox="0 0 15 15" width="100%" height="30px" preserveAspectRatio="xMaxYMin meet">
 <g id="arrow_out" transform="scale(0.3 0.3)">
  <a xlink:href="planner_8c__incl_org.svg" target="_base">
   <rect id="button" ry="5" rx="5" y="6" x="6" height="38" width="38"
        fill="#f2f5e9" fill-opacity="0.5" stroke="#606060" stroke-width="1.0"/>
   <path id="arrow"
     d="M 11.500037,31.436501 C 11.940474,20.09759 22.043105,11.32322 32.158766,21.979434 L 37.068811,17.246167 C 37.068811,17.246167 37.088388,32 37.088388,32 L 22.160133,31.978069 C 22.160133,31.978069 26.997745,27.140456 26.997745,27.140456 C 18.528582,18.264221 13.291696,25.230495 11.500037,31.436501 z"
     style="fill:#404040;"/>
  </a>
 </g>
</svg>

<style type='text/css'>
<![CDATA[
[data-mouse-over-selected='false'] { opacity: 0.7; }
[data-mouse-over-selected='true']  { opacity: 1.0; }
]]>
</style>
<script type="application/ecmascript"><![CDATA[
document.addEventListener('DOMContentLoaded', (event) => {
  highlightEdges();
  highlightAdjacentNodes();
});
]]></script>
</svg>
