<?xml version="1.0" encoding="UTF-8" standalone="no"?>
<!DOCTYPE svg PUBLIC "-//W3C//DTD SVG 1.1//EN"
 "http://www.w3.org/Graphics/SVG/1.1/DTD/svg11.dtd">
<!-- Generated by graphviz version 14.0.0 (20250921.2048)
 -->
<!-- Title: src/io/parse_upf.c Pages: 1 -->
<!--zoomable 193 -->

<svg id="main" version="1.1" xmlns="http://www.w3.org/2000/svg" xmlns:xlink="http://www.w3.org/1999/xlink" xml:space="preserve" onload="init(evt)">

<style type="text/css"><![CDATA[
.node, .edge {opacity: 0.7;}
.node.selected, .edge.selected {opacity: 1;}
.edge:hover path { stroke: red; }
.edge:hover polygon { stroke: red; fill: red; }
]]></style>

<defs>
  <circle id="rim" cx="0" cy="0" r="7"/>
  <circle id="rim2" cx="0" cy="0" r="3.5"/>
  <g id="zoomPlus">
    <use xlink:href="#rim" fill="#404040"><set attributeName="fill" to="#808080" begin="zoomplus.mouseover" end="zoomplus.mouseout"/></use>
    <path d="M-4,0h8M0,-4v8" fill="none" stroke="white" stroke-width="1.5" pointer-events="none"/>
  </g>
  <g id="zoomMin">
    <use xlink:href="#rim" fill="#404040"><set attributeName="fill" to="#808080" begin="zoomminus.mouseover" end="zoomminus.mouseout"/></use>
    <path d="M-4,0h8" fill="none" stroke="white" stroke-width="1.5" pointer-events="none"/>
  </g>
  <g id="arrowUp" transform="translate(30 24)">
    <use xlink:href="#rim"/>
    <path pointer-events="none" fill="none" stroke="white" stroke-width="1.5" d="M0,-3.0v7 M-2.5,-0.5L0,-3.0L2.5,-0.5"/>
  </g>
  <g id="arrowRight" transform="rotate(90) translate(36 -43)">
    <use xlink:href="#rim"/>
    <path pointer-events="none" fill="none" stroke="white" stroke-width="1.5" d="M0,-3.0v7 M-2.5,-0.5L0,-3.0L2.5,-0.5"/>
  </g>
  <g id="arrowDown" transform="rotate(180) translate(-30 -48)">
    <use xlink:href="#rim"/>
    <path pointer-events="none" fill="none" stroke="white" stroke-width="1.5" d="M0,-3.0v7 M-2.5,-0.5L0,-3.0L2.5,-0.5"/>
  </g>
  <g id="arrowLeft" transform="rotate(270) translate(-36 17)">
    <use xlink:href="#rim"/>
    <path pointer-events="none" fill="none" stroke="white" stroke-width="1.5" d="M0,-3.0v7 M-2.5,-0.5L0,-3.0L2.5,-0.5"/>
  </g>
  <g id="resetDef">
    <use xlink:href="#rim2" fill="#404040"><set attributeName="fill" to="#808080" begin="reset.mouseover" end="reset.mouseout"/></use>
  </g>
</defs>
<script type="application/ecmascript">
var viewWidth = 864;
var viewHeight = 193;
var sectionId = 'dynsection-0';
</script>
<script type="application/ecmascript" xlink:href="../../svg.min.js"/>
<svg id="graph" class="graph">
<g id="viewport">
<title>src/io/parse_upf.c</title>
<!-- Node1 -->
<g id="Node000001" class="node">
<title>Node1</title>
<g id="a_Node000001"><a xlink:title=" ">
<polygon fill="#999999" stroke="#666666" points="552.12,-185 458.12,-185 458.12,-165.75 552.12,-165.75 552.12,-185"/>
<text xml:space="preserve" text-anchor="middle" x="505.12" y="-171.5" font-family="Helvetica,sans-Serif" font-size="10.00">src/io/parse_upf.c</text>
</a>
</g>
</g>
<!-- Node2 -->
<g id="Node000002" class="node">
<title>Node2</title>
<g id="a_Node000002"><a xlink:title=" ">
<polygon fill="#e0e0e0" stroke="#999999" points="48.25,-129.75 0,-129.75 0,-110.5 48.25,-110.5 48.25,-129.75"/>
<text xml:space="preserve" text-anchor="middle" x="24.12" y="-116.25" font-family="Helvetica,sans-Serif" font-size="10.00">ctype.h</text>
</a>
</g>
</g>
<!-- Node1&#45;&gt;Node2 -->
<g id="edge1_Node000001_Node000002" class="edge">
<title>Node1&#45;&gt;Node2</title>
<g id="a_edge1_Node000001_Node000002"><a xlink:title=" ">
<path fill="none" stroke="#63b8ff" d="M457.67,-171.51C376.32,-166.18 205.17,-153.1 62.12,-129.75 61.3,-129.62 60.46,-129.47 59.62,-129.33"/>
<polygon fill="#63b8ff" stroke="#63b8ff" points="60.54,-125.94 50.05,-127.43 59.18,-132.81 60.54,-125.94"/>
</a>
</g>
</g>
<!-- Node3 -->
<g id="Node000003" class="node">
<title>Node3</title>
<g id="a_Node000003"><a xlink:title=" ">
<polygon fill="#e0e0e0" stroke="#999999" points="142,-19.25 86.25,-19.25 86.25,0 142,0 142,-19.25"/>
<text xml:space="preserve" text-anchor="middle" x="114.12" y="-5.75" font-family="Helvetica,sans-Serif" font-size="10.00">stdbool.h</text>
</a>
</g>
</g>
<!-- Node1&#45;&gt;Node3 -->
<g id="edge2_Node000001_Node000003" class="edge">
<title>Node1&#45;&gt;Node3</title>
<g id="a_edge2_Node000001_Node000003"><a xlink:title=" ">
<path fill="none" stroke="#63b8ff" d="M457.68,-172.59C356.41,-168.31 126.42,-155.78 103.12,-129.75 78.62,-102.37 93.24,-55.95 104.61,-29.87"/>
<polygon fill="#63b8ff" stroke="#63b8ff" points="107.76,-31.38 108.81,-20.84 101.42,-28.43 107.76,-31.38"/>
</a>
</g>
</g>
<!-- Node4 -->
<g id="Node000004" class="node">
<title>Node4</title>
<g id="a_Node000004"><a xlink:title=" ">
<polygon fill="#e0e0e0" stroke="#999999" points="616.75,-129.75 571.5,-129.75 571.5,-110.5 616.75,-110.5 616.75,-129.75"/>
<text xml:space="preserve" text-anchor="middle" x="594.12" y="-116.25" font-family="Helvetica,sans-Serif" font-size="10.00">stdio.h</text>
</a>
</g>
</g>
<!-- Node1&#45;&gt;Node4 -->
<g id="edge3_Node000001_Node000004" class="edge">
<title>Node1&#45;&gt;Node4</title>
<g id="a_edge3_Node000001_Node000004"><a xlink:title=" ">
<path fill="none" stroke="#63b8ff" d="M520.22,-165.34C533.65,-157.31 553.54,-145.41 569.3,-135.98"/>
<polygon fill="#63b8ff" stroke="#63b8ff" points="570.87,-139.12 577.65,-130.98 567.28,-133.11 570.87,-139.12"/>
</a>
</g>
</g>
<!-- Node5 -->
<g id="Node000005" class="node">
<title>Node5</title>
<g id="a_Node000005"><a xlink:title=" ">
<polygon fill="#e0e0e0" stroke="#999999" points="681.88,-129.75 634.38,-129.75 634.38,-110.5 681.88,-110.5 681.88,-129.75"/>
<text xml:space="preserve" text-anchor="middle" x="658.12" y="-116.25" font-family="Helvetica,sans-Serif" font-size="10.00">stdlib.h</text>
</a>
</g>
</g>
<!-- Node1&#45;&gt;Node5 -->
<g id="edge4_Node000001_Node000005" class="edge">
<title>Node1&#45;&gt;Node5</title>
<g id="a_edge4_Node000001_Node000005"><a xlink:title=" ">
<path fill="none" stroke="#63b8ff" d="M531.08,-165.34C556.52,-156.49 595.46,-142.94 623.52,-133.17"/>
<polygon fill="#63b8ff" stroke="#63b8ff" points="624.34,-136.59 632.63,-130 622.04,-129.98 624.34,-136.59"/>
</a>
</g>
</g>
<!-- Node6 -->
<g id="Node000006" class="node">
<title>Node6</title>
<g id="a_Node000006"><a xlink:title=" ">
<polygon fill="#e0e0e0" stroke="#999999" points="748.25,-129.75 700,-129.75 700,-110.5 748.25,-110.5 748.25,-129.75"/>
<text xml:space="preserve" text-anchor="middle" x="724.12" y="-116.25" font-family="Helvetica,sans-Serif" font-size="10.00">string.h</text>
</a>
</g>
</g>
<!-- Node1&#45;&gt;Node6 -->
<g id="edge5_Node000001_Node000006" class="edge">
<title>Node1&#45;&gt;Node6</title>
<g id="a_edge5_Node000001_Node000006"><a xlink:title=" ">
<path fill="none" stroke="#63b8ff" d="M544.01,-165.29C579.33,-156.98 633.13,-144.19 688.53,-130.36"/>
<polygon fill="#63b8ff" stroke="#63b8ff" points="689.31,-133.78 698.16,-127.95 687.61,-126.99 689.31,-133.78"/>
</a>
</g>
</g>
<!-- Node7 -->
<g id="Node000007" class="node">
<title>Node7</title>
<g id="a_Node000007"><a xlink:href="../../d2/d02/dtypes_8h.html" target="_top" xlink:title=" ">
<polygon fill="white" stroke="#666666" points="615.12,-74.5 521.12,-74.5 521.12,-55.25 615.12,-55.25 615.12,-74.5"/>
<text xml:space="preserve" text-anchor="middle" x="568.12" y="-61" font-family="Helvetica,sans-Serif" font-size="10.00">common/dtypes.h</text>
</a>
</g>
</g>
<!-- Node1&#45;&gt;Node7 -->
<g id="edge6_Node000001_Node000007" class="edge">
<title>Node1&#45;&gt;Node7</title>
<g id="a_edge6_Node000001_Node000007"><a xlink:title=" ">
<path fill="none" stroke="#63b8ff" d="M507.32,-165.67C510.76,-152.95 518.18,-128.8 529.12,-110.5 535.11,-100.49 543.44,-90.6 550.87,-82.68"/>
<polygon fill="#63b8ff" stroke="#63b8ff" points="553.14,-85.35 557.63,-75.76 548.14,-80.46 553.14,-85.35"/>
</a>
</g>
</g>
<!-- Node9 -->
<g id="Node000009" class="node">
<title>Node9</title>
<g id="a_Node000009"><a xlink:href="../../d4/d0a/elph_c_8h.html" target="_top" xlink:title="Core type definitions and configuration for LetzElPhC.">
<polygon fill="white" stroke="#666666" points="304,-19.25 254.25,-19.25 254.25,0 304,0 304,-19.25"/>
<text xml:space="preserve" text-anchor="middle" x="279.12" y="-5.75" font-family="Helvetica,sans-Serif" font-size="10.00">elphC.h</text>
</a>
</g>
</g>
<!-- Node1&#45;&gt;Node9 -->
<g id="edge16_Node000001_Node000009" class="edge">
<title>Node1&#45;&gt;Node9</title>
<g id="a_edge16_Node000001_Node000009"><a xlink:title=" ">
<path fill="none" stroke="#63b8ff" d="M461.4,-165.28C434.71,-158.37 400.71,-147.05 374.12,-129.75 334.55,-104 303.98,-56.24 289.09,-29.69"/>
<polygon fill="#63b8ff" stroke="#63b8ff" points="292.26,-28.18 284.41,-21.06 286.1,-31.52 292.26,-28.18"/>
</a>
</g>
</g>
<!-- Node10 -->
<g id="Node000010" class="node">
<title>Node10</title>
<g id="a_Node000010"><a xlink:href="../../da/d41/error_8h.html" target="_top" xlink:title=" ">
<polygon fill="white" stroke="#666666" points="626.62,-19.25 583.62,-19.25 583.62,0 626.62,0 626.62,-19.25"/>
<text xml:space="preserve" text-anchor="middle" x="605.12" y="-5.75" font-family="Helvetica,sans-Serif" font-size="10.00">error.h</text>
</a>
</g>
</g>
<!-- Node1&#45;&gt;Node10 -->
<g id="edge11_Node000001_Node000010" class="edge">
<title>Node1&#45;&gt;Node10</title>
<g id="a_edge11_Node000001_Node000010"><a xlink:title=" ">
<path fill="none" stroke="#63b8ff" d="M511.73,-165.3C521.64,-152.12 541.39,-127.41 562.12,-110.5 586.82,-90.36 608.23,-102.11 624.12,-74.5 632.32,-60.26 625.58,-42.16 617.94,-28.86"/>
<polygon fill="#63b8ff" stroke="#63b8ff" points="621.05,-27.22 612.72,-20.68 615.15,-30.99 621.05,-27.22"/>
</a>
</g>
</g>
<!-- Node11 -->
<g id="Node000011" class="node">
<title>Node11</title>
<g id="a_Node000011"><a xlink:href="../../d3/d10/string__func_8h.html" target="_top" xlink:title=" ">
<polygon fill="white" stroke="#666666" points="224.5,-129.75 111.75,-129.75 111.75,-110.5 224.5,-110.5 224.5,-129.75"/>
<text xml:space="preserve" text-anchor="middle" x="168.12" y="-116.25" font-family="Helvetica,sans-Serif" font-size="10.00">common/string_func.h</text>
</a>
</g>
</g>
<!-- Node1&#45;&gt;Node11 -->
<g id="edge12_Node000001_Node000011" class="edge">
<title>Node1&#45;&gt;Node11</title>
<g id="a_edge12_Node000001_Node000011"><a xlink:title=" ">
<path fill="none" stroke="#63b8ff" d="M457.91,-166.91C400.12,-157.78 301.83,-142.25 235.95,-131.84"/>
<polygon fill="#63b8ff" stroke="#63b8ff" points="236.78,-128.43 226.35,-130.33 235.69,-135.34 236.78,-128.43"/>
</a>
</g>
</g>
<!-- Node13 -->
<g id="Node000013" class="node">
<title>Node13</title>
<g id="a_Node000013"><a xlink:href="../../dc/dac/io_8h.html" target="_top" xlink:title=" ">
<polygon fill="white" stroke="#666666" points="415,-129.75 383.25,-129.75 383.25,-110.5 415,-110.5 415,-129.75"/>
<text xml:space="preserve" text-anchor="middle" x="399.12" y="-116.25" font-family="Helvetica,sans-Serif" font-size="10.00">io.h</text>
</a>
</g>
</g>
<!-- Node1&#45;&gt;Node13 -->
<g id="edge17_Node000001_Node000013" class="edge">
<title>Node1&#45;&gt;Node13</title>
<g id="a_edge17_Node000001_Node000013"><a xlink:title=" ">
<path fill="none" stroke="#63b8ff" d="M487.14,-165.34C470.28,-156.87 444.85,-144.09 425.65,-134.45"/>
<polygon fill="#63b8ff" stroke="#63b8ff" points="427.31,-131.37 416.8,-130.01 424.17,-137.62 427.31,-131.37"/>
</a>
</g>
</g>
<!-- Node16 -->
<g id="Node000016" class="node">
<title>Node16</title>
<g id="a_Node000016"><a xlink:title=" ">
<polygon fill="#e0e0e0" stroke="#999999" points="856.25,-129.75 766,-129.75 766,-110.5 856.25,-110.5 856.25,-129.75"/>
<text xml:space="preserve" text-anchor="middle" x="811.12" y="-116.25" font-family="Helvetica,sans-Serif" font-size="10.00">io/ezxml/ezxml.h</text>
</a>
</g>
</g>
<!-- Node1&#45;&gt;Node16 -->
<g id="edge24_Node000001_Node000016" class="edge">
<title>Node1&#45;&gt;Node16</title>
<g id="a_edge24_Node000001_Node000016"><a xlink:title=" ">
<path fill="none" stroke="#63b8ff" d="M552.6,-166.11C607.05,-156.64 696.28,-141.11 754.36,-131"/>
<polygon fill="#63b8ff" stroke="#63b8ff" points="754.79,-134.48 764.05,-129.32 753.59,-127.58 754.79,-134.48"/>
</a>
</g>
</g>
<!-- Node7&#45;&gt;Node3 -->
<g id="edge8_Node000007_Node000003" class="edge">
<title>Node7&#45;&gt;Node3</title>
<g id="a_edge8_Node000007_Node000003"><a xlink:title=" ">
<path fill="none" stroke="#63b8ff" d="M520.79,-56.44C517.86,-56.03 514.95,-55.63 512.12,-55.25 380.9,-37.79 224.71,-21.62 153.28,-14.48"/>
<polygon fill="#63b8ff" stroke="#63b8ff" points="153.96,-11.03 143.67,-13.52 153.27,-17.99 153.96,-11.03"/>
</a>
</g>
</g>
<!-- Node8 -->
<g id="Node000008" class="node">
<title>Node8</title>
<g id="a_Node000008"><a xlink:title=" ">
<polygon fill="#e0e0e0" stroke="#999999" points="460.12,-19.25 420.12,-19.25 420.12,0 460.12,0 460.12,-19.25"/>
<text xml:space="preserve" text-anchor="middle" x="440.12" y="-5.75" font-family="Helvetica,sans-Serif" font-size="10.00">mpi.h</text>
</a>
</g>
</g>
<!-- Node7&#45;&gt;Node8 -->
<g id="edge7_Node000007_Node000008" class="edge">
<title>Node7&#45;&gt;Node8</title>
<g id="a_edge7_Node000007_Node000008"><a xlink:title=" ">
<path fill="none" stroke="#63b8ff" d="M546.41,-54.84C525.6,-46.18 493.99,-33.03 470.65,-23.32"/>
<polygon fill="#63b8ff" stroke="#63b8ff" points="472.23,-20.19 461.65,-19.58 469.54,-26.65 472.23,-20.19"/>
</a>
</g>
</g>
<!-- Node7&#45;&gt;Node9 -->
<g id="edge9_Node000007_Node000009" class="edge">
<title>Node7&#45;&gt;Node9</title>
<g id="a_edge9_Node000007_Node000009"><a xlink:title=" ">
<path fill="none" stroke="#63b8ff" d="M520.73,-55.14C463.11,-44.53 367.17,-26.85 315.21,-17.27"/>
<polygon fill="#63b8ff" stroke="#63b8ff" points="316.17,-13.89 305.7,-15.52 314.9,-20.78 316.17,-13.89"/>
</a>
</g>
</g>
<!-- Node7&#45;&gt;Node10 -->
<g id="edge10_Node000007_Node000010" class="edge">
<title>Node7&#45;&gt;Node10</title>
<g id="a_edge10_Node000007_Node000010"><a xlink:title=" ">
<path fill="none" stroke="#63b8ff" d="M574.23,-55.08C579.19,-47.96 586.33,-37.68 592.5,-28.8"/>
<polygon fill="#63b8ff" stroke="#63b8ff" points="595.19,-31.06 598.02,-20.85 589.44,-27.07 595.19,-31.06"/>
</a>
</g>
</g>
<!-- Node11&#45;&gt;Node3 -->
<g id="edge13_Node000011_Node000003" class="edge">
<title>Node11&#45;&gt;Node3</title>
<g id="a_edge13_Node000011_Node000003"><a xlink:title=" ">
<path fill="none" stroke="#63b8ff" d="M161.27,-110.28C154.72,-101.54 144.88,-87.61 138.12,-74.5 130.81,-60.29 124.54,-43.32 120.24,-30.45"/>
<polygon fill="#63b8ff" stroke="#63b8ff" points="123.61,-29.48 117.22,-21.02 116.94,-31.61 123.61,-29.48"/>
</a>
</g>
</g>
<!-- Node11&#45;&gt;Node9 -->
<g id="edge15_Node000011_Node000009" class="edge">
<title>Node11&#45;&gt;Node9</title>
<g id="a_edge15_Node000011_Node000009"><a xlink:title=" ">
<path fill="none" stroke="#63b8ff" d="M165.82,-110.34C162.89,-97.09 159.5,-71.78 171.12,-55.25 187.45,-32.04 218.17,-20.87 242.68,-15.52"/>
<polygon fill="#63b8ff" stroke="#63b8ff" points="243.14,-18.99 252.3,-13.67 241.81,-12.12 243.14,-18.99"/>
</a>
</g>
</g>
<!-- Node12 -->
<g id="Node000012" class="node">
<title>Node12</title>
<g id="a_Node000012"><a xlink:title=" ">
<polygon fill="#e0e0e0" stroke="#999999" points="231.75,-74.5 180.5,-74.5 180.5,-55.25 231.75,-55.25 231.75,-74.5"/>
<text xml:space="preserve" text-anchor="middle" x="206.12" y="-61" font-family="Helvetica,sans-Serif" font-size="10.00">stddef.h</text>
</a>
</g>
</g>
<!-- Node11&#45;&gt;Node12 -->
<g id="edge14_Node000011_Node000012" class="edge">
<title>Node11&#45;&gt;Node12</title>
<g id="a_edge14_Node000011_Node000012"><a xlink:title=" ">
<path fill="none" stroke="#63b8ff" d="M174.4,-110.33C179.48,-103.21 186.82,-92.93 193.16,-84.05"/>
<polygon fill="#63b8ff" stroke="#63b8ff" points="195.87,-86.26 198.83,-76.09 190.18,-82.2 195.87,-86.26"/>
</a>
</g>
</g>
<!-- Node13&#45;&gt;Node7 -->
<g id="edge22_Node000013_Node000007" class="edge">
<title>Node13&#45;&gt;Node7</title>
<g id="a_edge22_Node000013_Node000007"><a xlink:title=" ">
<path fill="none" stroke="#63b8ff" d="M415.33,-114.02C441.23,-105.86 492.72,-89.63 528.73,-78.29"/>
<polygon fill="#63b8ff" stroke="#63b8ff" points="529.44,-81.73 537.93,-75.39 527.34,-75.06 529.44,-81.73"/>
</a>
</g>
</g>
<!-- Node13&#45;&gt;Node8 -->
<g id="edge18_Node000013_Node000008" class="edge">
<title>Node13&#45;&gt;Node8</title>
<g id="a_edge18_Node000013_Node000008"><a xlink:title=" ">
<path fill="none" stroke="#63b8ff" d="M385.04,-110.04C367.97,-97.86 342.94,-75.42 355.12,-55.25 366.75,-36.02 389.69,-24.67 408.82,-18.23"/>
<polygon fill="#63b8ff" stroke="#63b8ff" points="409.8,-21.59 418.36,-15.35 407.78,-14.89 409.8,-21.59"/>
</a>
</g>
</g>
<!-- Node13&#45;&gt;Node9 -->
<g id="edge23_Node000013_Node000009" class="edge">
<title>Node13&#45;&gt;Node9</title>
<g id="a_edge23_Node000013_Node000009"><a xlink:title=" ">
<path fill="none" stroke="#63b8ff" d="M388.89,-110.32C378.54,-101.38 362.12,-87.09 348.12,-74.5 330.41,-58.55 310.45,-40.02 296.58,-27.03"/>
<polygon fill="#63b8ff" stroke="#63b8ff" points="299.22,-24.71 289.53,-20.42 294.43,-29.82 299.22,-24.71"/>
</a>
</g>
</g>
<!-- Node13&#45;&gt;Node12 -->
<g id="edge21_Node000013_Node000012" class="edge">
<title>Node13&#45;&gt;Node12</title>
<g id="a_edge21_Node000013_Node000012"><a xlink:title=" ">
<path fill="none" stroke="#63b8ff" d="M383,-114.68C352.38,-106.23 285.1,-87.66 242.91,-76.02"/>
<polygon fill="#63b8ff" stroke="#63b8ff" points="244.02,-72.7 233.45,-73.41 242.16,-79.45 244.02,-72.7"/>
</a>
</g>
</g>
<!-- Node14 -->
<g id="Node000014" class="node">
<title>Node14</title>
<g id="a_Node000014"><a xlink:title=" ">
<polygon fill="#e0e0e0" stroke="#999999" points="502.75,-74.5 451.5,-74.5 451.5,-55.25 502.75,-55.25 502.75,-74.5"/>
<text xml:space="preserve" text-anchor="middle" x="477.12" y="-61" font-family="Helvetica,sans-Serif" font-size="10.00">netcdf.h</text>
</a>
</g>
</g>
<!-- Node13&#45;&gt;Node14 -->
<g id="edge19_Node000013_Node000014" class="edge">
<title>Node13&#45;&gt;Node14</title>
<g id="a_edge19_Node000013_Node000014"><a xlink:title=" ">
<path fill="none" stroke="#63b8ff" d="M412.36,-110.09C423.9,-102.21 440.89,-90.61 454.57,-81.27"/>
<polygon fill="#63b8ff" stroke="#63b8ff" points="456.29,-84.33 462.58,-75.81 452.35,-78.55 456.29,-84.33"/>
</a>
</g>
</g>
<!-- Node15 -->
<g id="Node000015" class="node">
<title>Node15</title>
<g id="a_Node000015"><a xlink:title=" ">
<polygon fill="#e0e0e0" stroke="#999999" points="433.75,-74.5 364.5,-74.5 364.5,-55.25 433.75,-55.25 433.75,-74.5"/>
<text xml:space="preserve" text-anchor="middle" x="399.12" y="-61" font-family="Helvetica,sans-Serif" font-size="10.00">netcdf_par.h</text>
</a>
</g>
</g>
<!-- Node13&#45;&gt;Node15 -->
<g id="edge20_Node000013_Node000015" class="edge">
<title>Node13&#45;&gt;Node15</title>
<g id="a_edge20_Node000013_Node000015"><a xlink:title=" ">
<path fill="none" stroke="#63b8ff" d="M399.12,-110.33C399.12,-103.82 399.12,-94.67 399.12,-86.37"/>
<polygon fill="#63b8ff" stroke="#63b8ff" points="402.63,-86.37 399.13,-76.37 395.63,-86.37 402.63,-86.37"/>
</a>
</g>
</g>
</g>
</svg>

<g id="navigator" transform="translate(0 0)" fill="#404254">
  <rect fill="#f2f5e9" fill-opacity="0.5" stroke="#606060" stroke-width=".5" x="0" y="0" width="60" height="60"/>
  <use id="zoomplus" xlink:href="#zoomPlus" x="17" y="9" onmousedown="handleZoom(evt,'in')"/>
  <use id="zoomminus" xlink:href="#zoomMin" x="42" y="9" onmousedown="handleZoom(evt,'out')"/>
  <use id="reset" xlink:href="#resetDef" x="30" y="36" onmousedown="handleReset()"/>
   <use id="arrowup" xlink:href="#arrowUp" x="0" y="0" onmousedown="handlePan(0,-1)"/>
  <use id="arrowright" xlink:href="#arrowRight" x="0" y="0" onmousedown="handlePan(1,0)"/>
  <use id="arrowdown" xlink:href="#arrowDown" x="0" y="0" onmousedown="handlePan(0,1)"/>
  <use id="arrowleft" xlink:href="#arrowLeft" x="0" y="0" onmousedown="handlePan(-1,0)"/>
</g>
<svg viewBox="0 0 15 15" width="100%" height="30px" preserveAspectRatio="xMaxYMin meet">
 <g id="arrow_out" transform="scale(0.3 0.3)">
  <a xlink:href="parse__upf_8c__incl_org.svg" target="_base">
   <rect id="button" ry="5" rx="5" y="6" x="6" height="38" width="38"
        fill="#f2f5e9" fill-opacity="0.5" stroke="#606060" stroke-width="1.0"/>
   <path id="arrow"
     d="M 11.500037,31.436501 C 11.940474,20.09759 22.043105,11.32322 32.158766,21.979434 L 37.068811,17.246167 C 37.068811,17.246167 37.088388,32 37.088388,32 L 22.160133,31.978069 C 22.160133,31.978069 26.997745,27.140456 26.997745,27.140456 C 18.528582,18.264221 13.291696,25.230495 11.500037,31.436501 z"
     style="fill:#404040;"/>
  </a>
 </g>
</svg>

<style type='text/css'>
<![CDATA[
[data-mouse-over-selected='false'] { opacity: 0.7; }
[data-mouse-over-selected='true']  { opacity: 1.0; }
]]>
</style>
<script type="application/ecmascript"><![CDATA[
document.addEventListener('DOMContentLoaded', (event) => {
  highlightEdges();
  highlightAdjacentNodes();
});
]]></script>
</svg>
