<?xml version="1.0" encoding="UTF-8" standalone="no"?>
<!DOCTYPE svg PUBLIC "-//W3C//DTD SVG 1.1//EN"
 "http://www.w3.org/Graphics/SVG/1.1/DTD/svg11.dtd">
<!-- Generated by graphviz version 14.0.0 (20250921.2048)
 -->
<!-- Title: src/elph/elph.h Pages: 1 -->
<svg width="634pt" height="94pt"
 viewBox="0.00 0.00 634.00 94.00" xmlns="http://www.w3.org/2000/svg" xmlns:xlink="http://www.w3.org/1999/xlink">
<g id="graph0" class="graph" transform="scale(1 1) rotate(0) translate(4 89.75)">
<title>src/elph/elph.h</title>
<!-- Node1 -->
<g id="Node000001" class="node">
<title>Node1</title>
<g id="a_Node000001"><a xlink:title=" ">
<polygon fill="#999999" stroke="#666666" points="375.62,-85.75 295.88,-85.75 295.88,-66.5 375.62,-66.5 375.62,-85.75"/>
<text xml:space="preserve" text-anchor="middle" x="335.75" y="-72.25" font-family="Helvetica,sans-Serif" font-size="10.00">src/elph/elph.h</text>
</a>
</g>
</g>
<!-- Node2 -->
<g id="Node000002" class="node">
<title>Node2</title>
<g id="a_Node000002"><a xlink:href="../../d5/d9f/compute__dmats_8c.html" target="_top" xlink:title=" ">
<polygon fill="white" stroke="#666666" points="131.5,-24.88 0,-24.88 0,-5.63 131.5,-5.63 131.5,-24.88"/>
<text xml:space="preserve" text-anchor="middle" x="65.75" y="-11.38" font-family="Helvetica,sans-Serif" font-size="10.00">src/elph/compute_dmats.c</text>
</a>
</g>
</g>
<!-- Node1&#45;&gt;Node2 -->
<g id="edge1_Node000001_Node000002" class="edge">
<title>Node1&#45;&gt;Node2</title>
<g id="a_edge1_Node000001_Node000002"><a xlink:title=" ">
<path fill="none" stroke="#63b8ff" d="M284.45,-63.94C233.11,-52.74 155.09,-35.73 107.43,-25.34"/>
<polygon fill="#63b8ff" stroke="#63b8ff" points="283.62,-67.34 294.14,-66.05 285.12,-60.5 283.62,-67.34"/>
</a>
</g>
</g>
<!-- Node3 -->
<g id="Node000003" class="node">
<title>Node3</title>
<g id="a_Node000003"><a xlink:href="../../d5/dd2/compute__elph__matq_8c.html" target="_top" xlink:title=" ">
<polygon fill="white" stroke="#666666" points="263.88,-30.5 149.62,-30.5 149.62,0 263.88,0 263.88,-30.5"/>
<text xml:space="preserve" text-anchor="start" x="157.62" y="-17" font-family="Helvetica,sans-Serif" font-size="10.00">src/elph/compute_elph</text>
<text xml:space="preserve" text-anchor="middle" x="206.75" y="-5.75" font-family="Helvetica,sans-Serif" font-size="10.00">_matq.c</text>
</a>
</g>
</g>
<!-- Node1&#45;&gt;Node3 -->
<g id="edge2_Node000001_Node000003" class="edge">
<title>Node1&#45;&gt;Node3</title>
<g id="a_edge2_Node000001_Node000003"><a xlink:title=" ">
<path fill="none" stroke="#63b8ff" d="M305.48,-61.31C285.49,-52.19 259.32,-40.24 238.95,-30.94"/>
<polygon fill="#63b8ff" stroke="#63b8ff" points="303.95,-64.46 314.5,-65.43 306.86,-58.09 303.95,-64.46"/>
</a>
</g>
</g>
<!-- Node4 -->
<g id="Node000004" class="node">
<title>Node4</title>
<g id="a_Node000004"><a xlink:href="../../da/d2e/elph__driver_8c.html" target="_top" xlink:title=" ">
<polygon fill="white" stroke="#666666" points="389.88,-24.88 281.62,-24.88 281.62,-5.63 389.88,-5.63 389.88,-24.88"/>
<text xml:space="preserve" text-anchor="middle" x="335.75" y="-11.38" font-family="Helvetica,sans-Serif" font-size="10.00">src/elph/elph_driver.c</text>
</a>
</g>
</g>
<!-- Node1&#45;&gt;Node4 -->
<g id="edge3_Node000001_Node000004" class="edge">
<title>Node1&#45;&gt;Node4</title>
<g id="a_edge3_Node000001_Node000004"><a xlink:title=" ">
<path fill="none" stroke="#63b8ff" d="M335.75,-54.7C335.75,-44.67 335.75,-33.08 335.75,-25.28"/>
<polygon fill="#63b8ff" stroke="#63b8ff" points="332.25,-54.67 335.75,-64.67 339.25,-54.67 332.25,-54.67"/>
</a>
</g>
</g>
<!-- Node5 -->
<g id="Node000005" class="node">
<title>Node5</title>
<g id="a_Node000005"><a xlink:href="../../d9/d5a/set__kernel_8c.html" target="_top" xlink:title=" ">
<polygon fill="white" stroke="#666666" points="515.12,-24.88 408.38,-24.88 408.38,-5.63 515.12,-5.63 515.12,-24.88"/>
<text xml:space="preserve" text-anchor="middle" x="461.75" y="-11.38" font-family="Helvetica,sans-Serif" font-size="10.00">src/elph/set_kernel.c</text>
</a>
</g>
</g>
<!-- Node1&#45;&gt;Node5 -->
<g id="edge4_Node000001_Node000005" class="edge">
<title>Node1&#45;&gt;Node5</title>
<g id="a_edge4_Node000001_Node000005"><a xlink:title=" ">
<path fill="none" stroke="#63b8ff" d="M365.4,-61.27C389.23,-50.13 422,-34.82 442.52,-25.23"/>
<polygon fill="#63b8ff" stroke="#63b8ff" points="364.11,-58.01 356.53,-65.41 367.07,-64.35 364.11,-58.01"/>
</a>
</g>
</g>
<!-- Node6 -->
<g id="Node000006" class="node">
<title>Node6</title>
<g id="a_Node000006"><a xlink:href="../../d3/dd5/main__elph_c_8c.html" target="_top" xlink:title="Main program entry point for LetzElPhC.">
<polygon fill="white" stroke="#666666" points="626,-24.88 533.5,-24.88 533.5,-5.63 626,-5.63 626,-24.88"/>
<text xml:space="preserve" text-anchor="middle" x="579.75" y="-11.38" font-family="Helvetica,sans-Serif" font-size="10.00">src/main_elphC.c</text>
</a>
</g>
</g>
<!-- Node1&#45;&gt;Node6 -->
<g id="edge5_Node000001_Node000006" class="edge">
<title>Node1&#45;&gt;Node6</title>
<g id="a_edge5_Node000001_Node000006"><a xlink:title=" ">
<path fill="none" stroke="#63b8ff" d="M385.44,-63.56C423.37,-54.68 476.91,-42.02 523.75,-30.5 530.47,-28.85 537.64,-27.05 544.52,-25.31"/>
<polygon fill="#63b8ff" stroke="#63b8ff" points="385.09,-60.05 376.15,-65.73 386.69,-66.86 385.09,-60.05"/>
</a>
</g>
</g>
</g>
</svg>
