<?xml version="1.0" encoding="UTF-8" standalone="no"?>
<!DOCTYPE svg PUBLIC "-//W3C//DTD SVG 1.1//EN"
 "http://www.w3.org/Graphics/SVG/1.1/DTD/svg11.dtd">
<!-- Generated by graphviz version 14.0.0 (20250921.2048)
 -->
<!-- Title: src/common/numerical_func.h Pages: 1 -->
<!--zoomable 105 -->

<svg id="main" version="1.1" xmlns="http://www.w3.org/2000/svg" xmlns:xlink="http://www.w3.org/1999/xlink" xml:space="preserve" onload="init(evt)">

<style type="text/css"><![CDATA[
.node, .edge {opacity: 0.7;}
.node.selected, .edge.selected {opacity: 1;}
.edge:hover path { stroke: red; }
.edge:hover polygon { stroke: red; fill: red; }
]]></style>

<defs>
  <circle id="rim" cx="0" cy="0" r="7"/>
  <circle id="rim2" cx="0" cy="0" r="3.5"/>
  <g id="zoomPlus">
    <use xlink:href="#rim" fill="#404040"><set attributeName="fill" to="#808080" begin="zoomplus.mouseover" end="zoomplus.mouseout"/></use>
    <path d="M-4,0h8M0,-4v8" fill="none" stroke="white" stroke-width="1.5" pointer-events="none"/>
  </g>
  <g id="zoomMin">
    <use xlink:href="#rim" fill="#404040"><set attributeName="fill" to="#808080" begin="zoomminus.mouseover" end="zoomminus.mouseout"/></use>
    <path d="M-4,0h8" fill="none" stroke="white" stroke-width="1.5" pointer-events="none"/>
  </g>
  <g id="arrowUp" transform="translate(30 24)">
    <use xlink:href="#rim"/>
    <path pointer-events="none" fill="none" stroke="white" stroke-width="1.5" d="M0,-3.0v7 M-2.5,-0.5L0,-3.0L2.5,-0.5"/>
  </g>
  <g id="arrowRight" transform="rotate(90) translate(36 -43)">
    <use xlink:href="#rim"/>
    <path pointer-events="none" fill="none" stroke="white" stroke-width="1.5" d="M0,-3.0v7 M-2.5,-0.5L0,-3.0L2.5,-0.5"/>
  </g>
  <g id="arrowDown" transform="rotate(180) translate(-30 -48)">
    <use xlink:href="#rim"/>
    <path pointer-events="none" fill="none" stroke="white" stroke-width="1.5" d="M0,-3.0v7 M-2.5,-0.5L0,-3.0L2.5,-0.5"/>
  </g>
  <g id="arrowLeft" transform="rotate(270) translate(-36 17)">
    <use xlink:href="#rim"/>
    <path pointer-events="none" fill="none" stroke="white" stroke-width="1.5" d="M0,-3.0v7 M-2.5,-0.5L0,-3.0L2.5,-0.5"/>
  </g>
  <g id="resetDef">
    <use xlink:href="#rim2" fill="#404040"><set attributeName="fill" to="#808080" begin="reset.mouseover" end="reset.mouseout"/></use>
  </g>
</defs>
<script type="application/ecmascript">
var viewWidth = 3568;
var viewHeight = 105;
var sectionId = 'dynsection-1';
</script>
<script type="application/ecmascript" xlink:href="../../svg.min.js"/>
<svg id="graph" class="graph">
<g id="viewport">
<title>src/common/numerical_func.h</title>
<!-- Node1 -->
<g id="Node000001" class="node">
<title>Node1</title>
<g id="a_Node000001"><a xlink:title=" ">
<polygon fill="#999999" stroke="#666666" points="1881.12,-97 1766.12,-97 1766.12,-66.5 1881.12,-66.5 1881.12,-97"/>
<text xml:space="preserve" text-anchor="start" x="1774.12" y="-83.5" font-family="Helvetica,sans-Serif" font-size="10.00">src/common/numerical</text>
<text xml:space="preserve" text-anchor="middle" x="1823.62" y="-72.25" font-family="Helvetica,sans-Serif" font-size="10.00">_func.h</text>
</a>
</g>
</g>
<!-- Node2 -->
<g id="Node000002" class="node">
<title>Node2</title>
<g id="a_Node000002"><a xlink:href="../../dc/d50/blas_8c.html" target="_top" xlink:title=" ">
<polygon fill="white" stroke="#666666" points="99.25,-24.88 0,-24.88 0,-5.63 99.25,-5.63 99.25,-24.88"/>
<text xml:space="preserve" text-anchor="middle" x="49.62" y="-11.38" font-family="Helvetica,sans-Serif" font-size="10.00">src/common/blas.c</text>
</a>
</g>
</g>
<!-- Node1&#45;&gt;Node2 -->
<g id="edge1_Node000001_Node000002" class="edge">
<title>Node1&#45;&gt;Node2</title>
<g id="a_edge1_Node000001_Node000002"><a xlink:title=" ">
<path fill="none" stroke="#63b8ff" d="M1754.7,-80.68C1476.29,-80.08 434.05,-74.87 107.62,-30.5 98.99,-29.33 89.78,-27.39 81.3,-25.32"/>
<polygon fill="#63b8ff" stroke="#63b8ff" points="1754.31,-84.18 1764.32,-80.7 1754.33,-77.18 1754.31,-84.18"/>
</a>
</g>
</g>
<!-- Node3 -->
<g id="Node000003" class="node">
<title>Node3</title>
<g id="a_Node000003"><a xlink:href="../../de/d2d/numerical__func_8c.html" target="_top" xlink:title=" ">
<polygon fill="white" stroke="#666666" points="232.12,-30.5 117.12,-30.5 117.12,0 232.12,0 232.12,-30.5"/>
<text xml:space="preserve" text-anchor="start" x="125.12" y="-17" font-family="Helvetica,sans-Serif" font-size="10.00">src/common/numerical</text>
<text xml:space="preserve" text-anchor="middle" x="174.62" y="-5.75" font-family="Helvetica,sans-Serif" font-size="10.00">_func.c</text>
</a>
</g>
</g>
<!-- Node1&#45;&gt;Node3 -->
<g id="edge2_Node000001_Node000003" class="edge">
<title>Node1&#45;&gt;Node3</title>
<g id="a_edge2_Node000001_Node000003"><a xlink:title=" ">
<path fill="none" stroke="#63b8ff" d="M1754.53,-80.19C1489.93,-77.79 541,-66.8 241.62,-30.5 238.67,-30.14 235.66,-29.72 232.62,-29.24"/>
<polygon fill="#63b8ff" stroke="#63b8ff" points="1754.33,-83.69 1764.36,-80.28 1754.39,-76.69 1754.33,-83.69"/>
</a>
</g>
</g>
<!-- Node4 -->
<g id="Node000004" class="node">
<title>Node4</title>
<g id="a_Node000004"><a xlink:href="../../d3/dcb/spline_8c.html" target="_top" xlink:title=" ">
<polygon fill="white" stroke="#666666" points="357,-24.88 250.25,-24.88 250.25,-5.63 357,-5.63 357,-24.88"/>
<text xml:space="preserve" text-anchor="middle" x="303.62" y="-11.38" font-family="Helvetica,sans-Serif" font-size="10.00">src/common/spline.c</text>
</a>
</g>
</g>
<!-- Node1&#45;&gt;Node4 -->
<g id="edge3_Node000001_Node000004" class="edge">
<title>Node1&#45;&gt;Node4</title>
<g id="a_edge3_Node000001_Node000004"><a xlink:title=" ">
<path fill="none" stroke="#63b8ff" d="M1754.54,-80.12C1503.39,-77.57 639.23,-66.32 365.62,-30.5 356.54,-29.31 346.82,-27.39 337.85,-25.35"/>
<polygon fill="#63b8ff" stroke="#63b8ff" points="1754.13,-83.62 1764.17,-80.22 1754.2,-76.62 1754.13,-83.62"/>
</a>
</g>
</g>
<!-- Node5 -->
<g id="Node000005" class="node">
<title>Node5</title>
<g id="a_Node000005"><a xlink:href="../../d7/d4b/_vloc_g__atom_8c.html" target="_top" xlink:title=" ">
<polygon fill="white" stroke="#666666" points="496.12,-24.88 375.12,-24.88 375.12,-5.63 496.12,-5.63 496.12,-24.88"/>
<text xml:space="preserve" text-anchor="middle" x="435.62" y="-11.38" font-family="Helvetica,sans-Serif" font-size="10.00">src/dvloc/VlocG_atom.c</text>
</a>
</g>
</g>
<!-- Node1&#45;&gt;Node5 -->
<g id="edge4_Node000001_Node000005" class="edge">
<title>Node1&#45;&gt;Node5</title>
<g id="a_edge4_Node000001_Node000005"><a xlink:title=" ">
<path fill="none" stroke="#63b8ff" d="M1754.2,-79.62C1518.51,-75.56 750.01,-60.3 504.62,-30.5 494.67,-29.29 484.01,-27.39 474.12,-25.37"/>
<polygon fill="#63b8ff" stroke="#63b8ff" points="1754.11,-83.12 1764.17,-79.79 1754.23,-76.12 1754.11,-83.12"/>
</a>
</g>
</g>
<!-- Node6 -->
<g id="Node000006" class="node">
<title>Node6</title>
<g id="a_Node000006"><a xlink:href="../../d1/d8e/compute___vbare__loc_8c.html" target="_top" xlink:title=" ">
<polygon fill="white" stroke="#666666" points="641.12,-30.5 514.12,-30.5 514.12,0 641.12,0 641.12,-30.5"/>
<text xml:space="preserve" text-anchor="start" x="522.12" y="-17" font-family="Helvetica,sans-Serif" font-size="10.00">src/dvloc/compute_Vbare</text>
<text xml:space="preserve" text-anchor="middle" x="577.62" y="-5.75" font-family="Helvetica,sans-Serif" font-size="10.00">_loc.c</text>
</a>
</g>
</g>
<!-- Node1&#45;&gt;Node6 -->
<g id="edge5_Node000001_Node000006" class="edge">
<title>Node1&#45;&gt;Node6</title>
<g id="a_edge5_Node000001_Node000006"><a xlink:title=" ">
<path fill="none" stroke="#63b8ff" d="M1754.41,-81.46C1572.61,-82.54 1066.82,-80.42 649.62,-30.5 646.97,-30.18 644.26,-29.82 641.53,-29.42"/>
<polygon fill="#63b8ff" stroke="#63b8ff" points="1754.16,-84.96 1764.14,-81.4 1754.12,-77.96 1754.16,-84.96"/>
</a>
</g>
</g>
<!-- Node7 -->
<g id="Node000007" class="node">
<title>Node7</title>
<g id="a_Node000007"><a xlink:href="../../d9/d90/d_vbare__loc_8c.html" target="_top" xlink:title=" ">
<polygon fill="white" stroke="#666666" points="774.5,-24.88 658.75,-24.88 658.75,-5.63 774.5,-5.63 774.5,-24.88"/>
<text xml:space="preserve" text-anchor="middle" x="716.62" y="-11.38" font-family="Helvetica,sans-Serif" font-size="10.00">src/dvloc/dVbare_loc.c</text>
</a>
</g>
</g>
<!-- Node1&#45;&gt;Node7 -->
<g id="edge6_Node000001_Node000007" class="edge">
<title>Node1&#45;&gt;Node7</title>
<g id="a_edge6_Node000001_Node000007"><a xlink:title=" ">
<path fill="none" stroke="#63b8ff" d="M1754.5,-81.25C1587.12,-81.62 1147.07,-77.62 783.62,-30.5 773.95,-29.25 763.6,-27.33 754,-25.31"/>
<polygon fill="#63b8ff" stroke="#63b8ff" points="1754.33,-84.75 1764.32,-81.22 1754.31,-77.75 1754.33,-84.75"/>
</a>
</g>
</g>
<!-- Node8 -->
<g id="Node000008" class="node">
<title>Node8</title>
<g id="a_Node000008"><a xlink:href="../../d9/def/d_vlong__range__kernel_8c.html" target="_top" xlink:title=" ">
<polygon fill="white" stroke="#666666" points="910.62,-30.5 792.62,-30.5 792.62,0 910.62,0 910.62,-30.5"/>
<text xml:space="preserve" text-anchor="start" x="800.62" y="-17" font-family="Helvetica,sans-Serif" font-size="10.00">src/dvloc/dVlong_range</text>
<text xml:space="preserve" text-anchor="middle" x="851.62" y="-5.75" font-family="Helvetica,sans-Serif" font-size="10.00">_kernel.c</text>
</a>
</g>
</g>
<!-- Node1&#45;&gt;Node8 -->
<g id="edge7_Node000001_Node000008" class="edge">
<title>Node1&#45;&gt;Node8</title>
<g id="a_edge7_Node000001_Node000008"><a xlink:title=" ">
<path fill="none" stroke="#63b8ff" d="M1754.29,-80.46C1602.39,-79.03 1229.08,-71.29 919.62,-30.5 916.75,-30.12 913.83,-29.69 910.87,-29.22"/>
<polygon fill="#63b8ff" stroke="#63b8ff" points="1754.16,-83.95 1764.19,-80.54 1754.22,-76.96 1754.16,-83.95"/>
</a>
</g>
</g>
<!-- Node9 -->
<g id="Node000009" class="node">
<title>Node9</title>
<g id="a_Node000009"><a xlink:href="../../d1/d94/d_vpot__add__long__range_8c.html" target="_top" xlink:title=" ">
<polygon fill="white" stroke="#666666" points="1034.25,-30.5 929,-30.5 929,0 1034.25,0 1034.25,-30.5"/>
<text xml:space="preserve" text-anchor="start" x="937" y="-17" font-family="Helvetica,sans-Serif" font-size="10.00">src/dvloc/dVpot_add</text>
<text xml:space="preserve" text-anchor="middle" x="981.62" y="-5.75" font-family="Helvetica,sans-Serif" font-size="10.00">_long_range.c</text>
</a>
</g>
</g>
<!-- Node1&#45;&gt;Node9 -->
<g id="edge8_Node000001_Node000009" class="edge">
<title>Node1&#45;&gt;Node9</title>
<g id="a_edge8_Node000001_Node000009"><a xlink:title=" ">
<path fill="none" stroke="#63b8ff" d="M1754.47,-80.13C1617.74,-78.05 1303.5,-69.09 1042.62,-30.5 1039.94,-30.1 1037.19,-29.65 1034.42,-29.15"/>
<polygon fill="#63b8ff" stroke="#63b8ff" points="1754.4,-83.63 1764.45,-80.27 1754.5,-76.63 1754.4,-83.63"/>
</a>
</g>
</g>
<!-- Node10 -->
<g id="Node000010" class="node">
<title>Node10</title>
<g id="a_Node000010"><a xlink:href="../../d9/d66/dvscf__basis__rotation_8c.html" target="_top" xlink:title=" ">
<polygon fill="white" stroke="#666666" points="1163.25,-30.5 1052,-30.5 1052,0 1163.25,0 1163.25,-30.5"/>
<text xml:space="preserve" text-anchor="start" x="1060" y="-17" font-family="Helvetica,sans-Serif" font-size="10.00">src/dvloc/dvscf_basis</text>
<text xml:space="preserve" text-anchor="middle" x="1107.62" y="-5.75" font-family="Helvetica,sans-Serif" font-size="10.00">_rotation.c</text>
</a>
</g>
</g>
<!-- Node1&#45;&gt;Node10 -->
<g id="edge9_Node000001_Node000010" class="edge">
<title>Node1&#45;&gt;Node10</title>
<g id="a_edge9_Node000001_Node000010"><a xlink:title=" ">
<path fill="none" stroke="#63b8ff" d="M1754.38,-78.56C1635.04,-74.09 1383.17,-61.55 1172.62,-30.5 1169.65,-30.06 1166.61,-29.57 1163.55,-29.03"/>
<polygon fill="#63b8ff" stroke="#63b8ff" points="1754.22,-82.06 1764.34,-78.93 1754.47,-75.06 1754.22,-82.06"/>
</a>
</g>
</g>
<!-- Node11 -->
<g id="Node000011" class="node">
<title>Node11</title>
<g id="a_Node000011"><a xlink:href="../../d9/db9/vlocg__table_8c.html" target="_top" xlink:title=" ">
<polygon fill="white" stroke="#666666" points="1297.88,-24.88 1181.38,-24.88 1181.38,-5.63 1297.88,-5.63 1297.88,-24.88"/>
<text xml:space="preserve" text-anchor="middle" x="1239.62" y="-11.38" font-family="Helvetica,sans-Serif" font-size="10.00">src/dvloc/vlocg_table.c</text>
</a>
</g>
</g>
<!-- Node1&#45;&gt;Node11 -->
<g id="edge10_Node000001_Node000011" class="edge">
<title>Node1&#45;&gt;Node11</title>
<g id="a_edge10_Node000001_Node000011"><a xlink:title=" ">
<path fill="none" stroke="#63b8ff" d="M1754.6,-76.52C1655.18,-69.87 1466.08,-55.13 1306.62,-30.5 1297.58,-29.1 1287.91,-27.26 1278.81,-25.36"/>
<polygon fill="#63b8ff" stroke="#63b8ff" points="1754.26,-80.01 1764.47,-77.18 1754.72,-73.02 1754.26,-80.01"/>
</a>
</g>
</g>
<!-- Node12 -->
<g id="Node000012" class="node">
<title>Node12</title>
<g id="a_Node000012"><a xlink:href="../../d5/dd2/compute__elph__matq_8c.html" target="_top" xlink:title=" ">
<polygon fill="white" stroke="#666666" points="1429.75,-30.5 1315.5,-30.5 1315.5,0 1429.75,0 1429.75,-30.5"/>
<text xml:space="preserve" text-anchor="start" x="1323.5" y="-17" font-family="Helvetica,sans-Serif" font-size="10.00">src/elph/compute_elph</text>
<text xml:space="preserve" text-anchor="middle" x="1372.62" y="-5.75" font-family="Helvetica,sans-Serif" font-size="10.00">_matq.c</text>
</a>
</g>
</g>
<!-- Node1&#45;&gt;Node12 -->
<g id="edge11_Node000001_Node000012" class="edge">
<title>Node1&#45;&gt;Node12</title>
<g id="a_edge11_Node000001_Node000012"><a xlink:title=" ">
<path fill="none" stroke="#63b8ff" d="M1754.66,-73.49C1677.42,-64.96 1548.62,-49.52 1438.62,-30.5 1435.85,-30.02 1433.02,-29.51 1430.16,-28.97"/>
<polygon fill="#63b8ff" stroke="#63b8ff" points="1753.85,-76.92 1764.17,-74.54 1754.61,-69.97 1753.85,-76.92"/>
</a>
</g>
</g>
<!-- Node13 -->
<g id="Node000013" class="node">
<title>Node13</title>
<g id="a_Node000013"><a xlink:href="../../da/dc2/interpolation__driver_8c.html" target="_top" xlink:title=" ">
<polygon fill="white" stroke="#666666" points="1587.88,-30.5 1447.38,-30.5 1447.38,0 1587.88,0 1587.88,-30.5"/>
<text xml:space="preserve" text-anchor="start" x="1455.38" y="-17" font-family="Helvetica,sans-Serif" font-size="10.00">src/interpolation/interpolation</text>
<text xml:space="preserve" text-anchor="middle" x="1517.62" y="-5.75" font-family="Helvetica,sans-Serif" font-size="10.00">_driver.c</text>
</a>
</g>
</g>
<!-- Node1&#45;&gt;Node13 -->
<g id="edge12_Node000001_Node000013" class="edge">
<title>Node1&#45;&gt;Node13</title>
<g id="a_edge12_Node000001_Node000013"><a xlink:title=" ">
<path fill="none" stroke="#63b8ff" d="M1754.69,-66.22C1704.76,-55.69 1637.5,-41.52 1587.37,-30.95"/>
<polygon fill="#63b8ff" stroke="#63b8ff" points="1753.72,-69.59 1764.23,-68.23 1755.16,-62.74 1753.72,-69.59"/>
</a>
</g>
</g>
<!-- Node14 -->
<g id="Node000014" class="node">
<title>Node14</title>
<g id="a_Node000014"><a xlink:href="../../d9/d41/interpolation__utilities_8c.html" target="_top" xlink:title=" ">
<polygon fill="white" stroke="#666666" points="1746.88,-30.5 1606.38,-30.5 1606.38,0 1746.88,0 1746.88,-30.5"/>
<text xml:space="preserve" text-anchor="start" x="1614.38" y="-17" font-family="Helvetica,sans-Serif" font-size="10.00">src/interpolation/interpolation</text>
<text xml:space="preserve" text-anchor="middle" x="1676.62" y="-5.75" font-family="Helvetica,sans-Serif" font-size="10.00">_utilities.c</text>
</a>
</g>
</g>
<!-- Node1&#45;&gt;Node14 -->
<g id="edge13_Node000001_Node000014" class="edge">
<title>Node1&#45;&gt;Node14</title>
<g id="a_edge13_Node000001_Node000014"><a xlink:title=" ">
<path fill="none" stroke="#63b8ff" d="M1780.02,-61.62C1757.65,-51.8 1730.82,-40.03 1710.1,-30.94"/>
<polygon fill="#63b8ff" stroke="#63b8ff" points="1778.32,-64.69 1788.88,-65.51 1781.13,-58.28 1778.32,-64.69"/>
</a>
</g>
</g>
<!-- Node15 -->
<g id="Node000015" class="node">
<title>Node15</title>
<g id="a_Node000015"><a xlink:href="../../d2/d5f/wigner__seitz_8c.html" target="_top" xlink:title=" ">
<polygon fill="white" stroke="#666666" points="1881.88,-30.5 1765.38,-30.5 1765.38,0 1881.88,0 1881.88,-30.5"/>
<text xml:space="preserve" text-anchor="start" x="1773.38" y="-17" font-family="Helvetica,sans-Serif" font-size="10.00">src/interpolation/wigner</text>
<text xml:space="preserve" text-anchor="middle" x="1823.62" y="-5.75" font-family="Helvetica,sans-Serif" font-size="10.00">_seitz.c</text>
</a>
</g>
</g>
<!-- Node1&#45;&gt;Node15 -->
<g id="edge14_Node000001_Node000015" class="edge">
<title>Node1&#45;&gt;Node15</title>
<g id="a_edge14_Node000001_Node000015"><a xlink:title=" ">
<path fill="none" stroke="#63b8ff" d="M1823.62,-54.81C1823.62,-46.64 1823.62,-37.91 1823.62,-30.83"/>
<polygon fill="#63b8ff" stroke="#63b8ff" points="1820.13,-54.6 1823.63,-64.6 1827.13,-54.6 1820.13,-54.6"/>
</a>
</g>
</g>
<!-- Node16 -->
<g id="Node000016" class="node">
<title>Node16</title>
<g id="a_Node000016"><a xlink:href="../../da/d77/get__save__data_8c.html" target="_top" xlink:title=" ">
<polygon fill="white" stroke="#666666" points="2015.12,-24.88 1900.12,-24.88 1900.12,-5.63 2015.12,-5.63 2015.12,-24.88"/>
<text xml:space="preserve" text-anchor="middle" x="1957.62" y="-11.38" font-family="Helvetica,sans-Serif" font-size="10.00">src/io/get_save_data.c</text>
</a>
</g>
</g>
<!-- Node1&#45;&gt;Node16 -->
<g id="edge15_Node000001_Node000016" class="edge">
<title>Node1&#45;&gt;Node16</title>
<g id="a_edge15_Node000001_Node000016"><a xlink:title=" ">
<path fill="none" stroke="#63b8ff" d="M1864.27,-61.19C1889.1,-49.24 1919.67,-34.52 1938.91,-25.26"/>
<polygon fill="#63b8ff" stroke="#63b8ff" points="1862.89,-57.97 1855.4,-65.46 1865.92,-64.27 1862.89,-57.97"/>
</a>
</g>
</g>
<!-- Node17 -->
<g id="Node000017" class="node">
<title>Node17</title>
<g id="a_Node000017"><a xlink:href="../../d6/db8/_vbare__nloc_8c.html" target="_top" xlink:title=" ">
<polygon fill="white" stroke="#666666" points="2154.12,-24.88 2033.12,-24.88 2033.12,-5.63 2154.12,-5.63 2154.12,-24.88"/>
<text xml:space="preserve" text-anchor="middle" x="2093.62" y="-11.38" font-family="Helvetica,sans-Serif" font-size="10.00">src/nonloc/Vbare_nloc.c</text>
</a>
</g>
</g>
<!-- Node1&#45;&gt;Node17 -->
<g id="edge16_Node000001_Node000017" class="edge">
<title>Node1&#45;&gt;Node17</title>
<g id="a_edge16_Node000001_Node000017"><a xlink:title=" ">
<path fill="none" stroke="#63b8ff" d="M1892.66,-64.26C1944.51,-51.87 2013.56,-35.38 2055.74,-25.3"/>
<polygon fill="#63b8ff" stroke="#63b8ff" points="1891.93,-60.83 1883.02,-66.56 1893.56,-67.64 1891.93,-60.83"/>
</a>
</g>
</g>
<!-- Node18 -->
<g id="Node000018" class="node">
<title>Node18</title>
<g id="a_Node000018"><a xlink:href="../../db/d44/dyn__long__range_8c.html" target="_top" xlink:title=" ">
<polygon fill="white" stroke="#666666" points="2278.62,-30.5 2172.62,-30.5 2172.62,0 2278.62,0 2278.62,-30.5"/>
<text xml:space="preserve" text-anchor="start" x="2180.62" y="-17" font-family="Helvetica,sans-Serif" font-size="10.00">src/phonon/dyn_long</text>
<text xml:space="preserve" text-anchor="middle" x="2225.62" y="-5.75" font-family="Helvetica,sans-Serif" font-size="10.00">_range.c</text>
</a>
</g>
</g>
<!-- Node1&#45;&gt;Node18 -->
<g id="edge17_Node000001_Node000018" class="edge">
<title>Node1&#45;&gt;Node18</title>
<g id="a_edge17_Node000001_Node000018"><a xlink:title=" ">
<path fill="none" stroke="#63b8ff" d="M1892.74,-72.17C1961.62,-63.23 2070.31,-48.09 2163.62,-30.5 2166.45,-29.97 2169.34,-29.4 2172.25,-28.8"/>
<polygon fill="#63b8ff" stroke="#63b8ff" points="1892.58,-68.66 1883.11,-73.41 1893.48,-75.6 1892.58,-68.66"/>
</a>
</g>
</g>
<!-- Node19 -->
<g id="Node000019" class="node">
<title>Node19</title>
<g id="a_Node000019"><a xlink:href="../../d0/dc3/pol__vecs__to__dyn_8c.html" target="_top" xlink:title=" ">
<polygon fill="white" stroke="#666666" points="2402.62,-30.5 2296.62,-30.5 2296.62,0 2402.62,0 2402.62,-30.5"/>
<text xml:space="preserve" text-anchor="start" x="2304.62" y="-17" font-family="Helvetica,sans-Serif" font-size="10.00">src/phonon/pol_vecs</text>
<text xml:space="preserve" text-anchor="middle" x="2349.62" y="-5.75" font-family="Helvetica,sans-Serif" font-size="10.00">_to_dyn.c</text>
</a>
</g>
</g>
<!-- Node1&#45;&gt;Node19 -->
<g id="edge18_Node000001_Node000019" class="edge">
<title>Node1&#45;&gt;Node19</title>
<g id="a_edge18_Node000001_Node000019"><a xlink:title=" ">
<path fill="none" stroke="#63b8ff" d="M1892.69,-75.83C1983.65,-68.77 2148.36,-53.96 2287.62,-30.5 2290.46,-30.02 2293.35,-29.5 2296.27,-28.93"/>
<polygon fill="#63b8ff" stroke="#63b8ff" points="1892.64,-72.32 1882.94,-76.58 1893.18,-79.3 1892.64,-72.32"/>
</a>
</g>
</g>
<!-- Node20 -->
<g id="Node000020" class="node">
<title>Node20</title>
<g id="a_Node000020"><a xlink:href="../../d2/d7a/_b_z__expand_8c.html" target="_top" xlink:title=" ">
<polygon fill="white" stroke="#666666" points="2564.75,-24.88 2420.5,-24.88 2420.5,-5.63 2564.75,-5.63 2564.75,-24.88"/>
<text xml:space="preserve" text-anchor="middle" x="2492.62" y="-11.38" font-family="Helvetica,sans-Serif" font-size="10.00">src/symmetries/BZ_expand.c</text>
</a>
</g>
</g>
<!-- Node1&#45;&gt;Node20 -->
<g id="edge19_Node000001_Node000020" class="edge">
<title>Node1&#45;&gt;Node20</title>
<g id="a_edge19_Node000001_Node000020"><a xlink:title=" ">
<path fill="none" stroke="#63b8ff" d="M1892.66,-76.85C2002.74,-70.17 2224.7,-54.88 2411.62,-30.5 2422.53,-29.08 2434.2,-27.22 2445.19,-25.32"/>
<polygon fill="#63b8ff" stroke="#63b8ff" points="1892.68,-73.34 1882.91,-77.43 1893.1,-80.33 1892.68,-73.34"/>
</a>
</g>
</g>
<!-- Node21 -->
<g id="Node000021" class="node">
<title>Node21</title>
<g id="a_Node000021"><a xlink:href="../../dd/de7/elec__reps_8c.html" target="_top" xlink:title=" ">
<polygon fill="white" stroke="#666666" points="2686.88,-30.5 2582.38,-30.5 2582.38,0 2686.88,0 2686.88,-30.5"/>
<text xml:space="preserve" text-anchor="start" x="2590.38" y="-17" font-family="Helvetica,sans-Serif" font-size="10.00">src/symmetries/elec</text>
<text xml:space="preserve" text-anchor="middle" x="2634.62" y="-5.75" font-family="Helvetica,sans-Serif" font-size="10.00">_reps.c</text>
</a>
</g>
</g>
<!-- Node1&#45;&gt;Node21 -->
<g id="edge20_Node000001_Node000021" class="edge">
<title>Node1&#45;&gt;Node21</title>
<g id="a_edge20_Node000001_Node000021"><a xlink:title=" ">
<path fill="none" stroke="#63b8ff" d="M1892.53,-79.87C2025.12,-77.35 2324.68,-67.67 2573.62,-30.5 2576.42,-30.08 2579.28,-29.6 2582.16,-29.08"/>
<polygon fill="#63b8ff" stroke="#63b8ff" points="1892.81,-76.36 1882.88,-80.04 1892.94,-83.36 1892.81,-76.36"/>
</a>
</g>
</g>
<!-- Node22 -->
<g id="Node000022" class="node">
<title>Node22</title>
<g id="a_Node000022"><a xlink:href="../../dd/d37/elphq__expand_8c.html" target="_top" xlink:title=" ">
<polygon fill="white" stroke="#666666" points="2814.5,-30.5 2704.75,-30.5 2704.75,0 2814.5,0 2814.5,-30.5"/>
<text xml:space="preserve" text-anchor="start" x="2712.75" y="-17" font-family="Helvetica,sans-Serif" font-size="10.00">src/symmetries/elphq</text>
<text xml:space="preserve" text-anchor="middle" x="2759.62" y="-5.75" font-family="Helvetica,sans-Serif" font-size="10.00">_expand.c</text>
</a>
</g>
</g>
<!-- Node1&#45;&gt;Node22 -->
<g id="edge21_Node000001_Node000022" class="edge">
<title>Node1&#45;&gt;Node22</title>
<g id="a_edge21_Node000001_Node000022"><a xlink:title=" ">
<path fill="none" stroke="#63b8ff" d="M1892.72,-80.55C2040.68,-79.29 2398.84,-71.82 2695.62,-30.5 2698.56,-30.09 2701.55,-29.62 2704.57,-29.1"/>
<polygon fill="#63b8ff" stroke="#63b8ff" points="1893.08,-77.05 1883.1,-80.62 1893.13,-84.05 1893.08,-77.05"/>
</a>
</g>
</g>
<!-- Node23 -->
<g id="Node000023" class="node">
<title>Node23</title>
<g id="a_Node000023"><a xlink:href="../../db/df2/gen__i_b_z__kpts_8c.html" target="_top" xlink:title=" ">
<polygon fill="white" stroke="#666666" points="2934.75,-30.5 2832.5,-30.5 2832.5,0 2934.75,0 2934.75,-30.5"/>
<text xml:space="preserve" text-anchor="start" x="2840.5" y="-17" font-family="Helvetica,sans-Serif" font-size="10.00">src/symmetries/gen</text>
<text xml:space="preserve" text-anchor="middle" x="2883.62" y="-5.75" font-family="Helvetica,sans-Serif" font-size="10.00">_iBZ_kpts.c</text>
</a>
</g>
</g>
<!-- Node1&#45;&gt;Node23 -->
<g id="edge22_Node000001_Node000023" class="edge">
<title>Node1&#45;&gt;Node23</title>
<g id="a_edge22_Node000001_Node000023"><a xlink:title=" ">
<path fill="none" stroke="#63b8ff" d="M1892.57,-78.93C2088.03,-73.51 2643.3,-56.22 2823.62,-30.5 2826.38,-30.11 2829.2,-29.65 2832.03,-29.14"/>
<polygon fill="#63b8ff" stroke="#63b8ff" points="1892.73,-75.42 1882.83,-79.2 1892.92,-82.42 1892.73,-75.42"/>
</a>
</g>
</g>
<!-- Node24 -->
<g id="Node000024" class="node">
<title>Node24</title>
<g id="a_Node000024"><a xlink:href="../../d7/db8/rotate__dvscf_8c.html" target="_top" xlink:title=" ">
<polygon fill="white" stroke="#666666" points="3064.25,-30.5 2953,-30.5 2953,0 3064.25,0 3064.25,-30.5"/>
<text xml:space="preserve" text-anchor="start" x="2961" y="-17" font-family="Helvetica,sans-Serif" font-size="10.00">src/symmetries/rotate</text>
<text xml:space="preserve" text-anchor="middle" x="3008.62" y="-5.75" font-family="Helvetica,sans-Serif" font-size="10.00">_dvscf.c</text>
</a>
</g>
</g>
<!-- Node1&#45;&gt;Node24 -->
<g id="edge23_Node000001_Node000024" class="edge">
<title>Node1&#45;&gt;Node24</title>
<g id="a_edge23_Node000001_Node000024"><a xlink:title=" ">
<path fill="none" stroke="#63b8ff" d="M1892.72,-79.2C2103.9,-74.21 2738.84,-57.34 2943.62,-30.5 2946.6,-30.11 2949.65,-29.65 2952.71,-29.14"/>
<polygon fill="#63b8ff" stroke="#63b8ff" points="1892.93,-75.69 1883.01,-79.43 1893.09,-82.69 1892.93,-75.69"/>
</a>
</g>
</g>
<!-- Node25 -->
<g id="Node000025" class="node">
<title>Node25</title>
<g id="a_Node000025"><a xlink:href="../../dc/d55/rotate__eig__vecs_8c.html" target="_top" xlink:title=" ">
<polygon fill="white" stroke="#666666" points="3193.25,-30.5 3082,-30.5 3082,0 3193.25,0 3193.25,-30.5"/>
<text xml:space="preserve" text-anchor="start" x="3090" y="-17" font-family="Helvetica,sans-Serif" font-size="10.00">src/symmetries/rotate</text>
<text xml:space="preserve" text-anchor="middle" x="3137.62" y="-5.75" font-family="Helvetica,sans-Serif" font-size="10.00">_eig_vecs.c</text>
</a>
</g>
</g>
<!-- Node1&#45;&gt;Node25 -->
<g id="edge24_Node000001_Node000025" class="edge">
<title>Node1&#45;&gt;Node25</title>
<g id="a_edge24_Node000001_Node000025"><a xlink:title=" ">
<path fill="none" stroke="#63b8ff" d="M1892.86,-79.6C2120.2,-75.56 2842.49,-60.63 3073.62,-30.5 3076.22,-30.16 3078.87,-29.77 3081.53,-29.33"/>
<polygon fill="#63b8ff" stroke="#63b8ff" points="1892.9,-76.1 1882.97,-79.77 1893.03,-83.1 1892.9,-76.1"/>
</a>
</g>
</g>
<!-- Node26 -->
<g id="Node000026" class="node">
<title>Node26</title>
<g id="a_Node000026"><a xlink:href="../../d7/dd7/rotate___gvecs_8c.html" target="_top" xlink:title=" ">
<polygon fill="white" stroke="#666666" points="3329.62,-24.88 3211.62,-24.88 3211.62,-5.63 3329.62,-5.63 3329.62,-24.88"/>
<text xml:space="preserve" text-anchor="middle" x="3270.62" y="-11.38" font-family="Helvetica,sans-Serif" font-size="10.00">src/wfc/rotate_Gvecs.c</text>
</a>
</g>
</g>
<!-- Node1&#45;&gt;Node26 -->
<g id="edge25_Node000001_Node000026" class="edge">
<title>Node1&#45;&gt;Node26</title>
<g id="a_edge25_Node000001_Node000026"><a xlink:title=" ">
<path fill="none" stroke="#63b8ff" d="M1892.92,-79.79C2135.4,-76.17 2944.96,-61.96 3202.62,-30.5 3212.56,-29.29 3223.2,-27.36 3233.05,-25.32"/>
<polygon fill="#63b8ff" stroke="#63b8ff" points="1892.93,-76.28 1882.98,-79.93 1893.04,-83.28 1892.93,-76.28"/>
</a>
</g>
</g>
<!-- Node27 -->
<g id="Node000027" class="node">
<title>Node27</title>
<g id="a_Node000027"><a xlink:href="../../dc/d77/su2mat_8c.html" target="_top" xlink:title=" ">
<polygon fill="white" stroke="#666666" points="3439.5,-24.88 3347.75,-24.88 3347.75,-5.63 3439.5,-5.63 3439.5,-24.88"/>
<text xml:space="preserve" text-anchor="middle" x="3393.62" y="-11.38" font-family="Helvetica,sans-Serif" font-size="10.00">src/wfc/su2mat.c</text>
</a>
</g>
</g>
<!-- Node1&#45;&gt;Node27 -->
<g id="edge26_Node000001_Node000027" class="edge">
<title>Node1&#45;&gt;Node27</title>
<g id="a_edge26_Node000001_Node000027"><a xlink:title=" ">
<path fill="none" stroke="#63b8ff" d="M1892.81,-80.48C2150.44,-79.15 3053.88,-71.6 3338.62,-30.5 3346.83,-29.32 3355.57,-27.38 3363.61,-25.3"/>
<polygon fill="#63b8ff" stroke="#63b8ff" points="1892.89,-76.98 1882.91,-80.53 1892.93,-83.98 1892.89,-76.98"/>
</a>
</g>
</g>
<!-- Node28 -->
<g id="Node000028" class="node">
<title>Node28</title>
<g id="a_Node000028"><a xlink:href="../../db/d7a/trans__wfc_8c.html" target="_top" xlink:title=" ">
<polygon fill="white" stroke="#666666" points="3559.75,-24.88 3457.5,-24.88 3457.5,-5.63 3559.75,-5.63 3559.75,-24.88"/>
<text xml:space="preserve" text-anchor="middle" x="3508.62" y="-11.38" font-family="Helvetica,sans-Serif" font-size="10.00">src/wfc/trans_wfc.c</text>
</a>
</g>
</g>
<!-- Node1&#45;&gt;Node28 -->
<g id="edge27_Node000001_Node000028" class="edge">
<title>Node1&#45;&gt;Node28</title>
<g id="a_edge27_Node000001_Node000028"><a xlink:title=" ">
<path fill="none" stroke="#63b8ff" d="M1892.41,-80.48C2161.17,-79.11 3140.73,-71.4 3448.62,-30.5 3457.43,-29.33 3466.84,-27.42 3475.53,-25.37"/>
<polygon fill="#63b8ff" stroke="#63b8ff" points="1892.77,-76.97 1882.78,-80.52 1892.8,-83.97 1892.77,-76.97"/>
</a>
</g>
</g>
</g>
</svg>

<g id="navigator" transform="translate(0 0)" fill="#404254">
  <rect fill="#f2f5e9" fill-opacity="0.5" stroke="#606060" stroke-width=".5" x="0" y="0" width="60" height="60"/>
  <use id="zoomplus" xlink:href="#zoomPlus" x="17" y="9" onmousedown="handleZoom(evt,'in')"/>
  <use id="zoomminus" xlink:href="#zoomMin" x="42" y="9" onmousedown="handleZoom(evt,'out')"/>
  <use id="reset" xlink:href="#resetDef" x="30" y="36" onmousedown="handleReset()"/>
   <use id="arrowup" xlink:href="#arrowUp" x="0" y="0" onmousedown="handlePan(0,-1)"/>
  <use id="arrowright" xlink:href="#arrowRight" x="0" y="0" onmousedown="handlePan(1,0)"/>
  <use id="arrowdown" xlink:href="#arrowDown" x="0" y="0" onmousedown="handlePan(0,1)"/>
  <use id="arrowleft" xlink:href="#arrowLeft" x="0" y="0" onmousedown="handlePan(-1,0)"/>
</g>
<svg viewBox="0 0 15 15" width="100%" height="30px" preserveAspectRatio="xMaxYMin meet">
 <g id="arrow_out" transform="scale(0.3 0.3)">
  <a xlink:href="numerical__func_8h__dep__incl_org.svg" target="_base">
   <rect id="button" ry="5" rx="5" y="6" x="6" height="38" width="38"
        fill="#f2f5e9" fill-opacity="0.5" stroke="#606060" stroke-width="1.0"/>
   <path id="arrow"
     d="M 11.500037,31.436501 C 11.940474,20.09759 22.043105,11.32322 32.158766,21.979434 L 37.068811,17.246167 C 37.068811,17.246167 37.088388,32 37.088388,32 L 22.160133,31.978069 C 22.160133,31.978069 26.997745,27.140456 26.997745,27.140456 C 18.528582,18.264221 13.291696,25.230495 11.500037,31.436501 z"
     style="fill:#404040;"/>
  </a>
 </g>
</svg>

<style type='text/css'>
<![CDATA[
[data-mouse-over-selected='false'] { opacity: 0.7; }
[data-mouse-over-selected='true']  { opacity: 1.0; }
]]>
</style>
<script type="application/ecmascript"><![CDATA[
document.addEventListener('DOMContentLoaded', (event) => {
  highlightEdges();
  highlightAdjacentNodes();
});
]]></script>
</svg>
