<?xml version="1.0" encoding="UTF-8" standalone="no"?>
<!DOCTYPE svg PUBLIC "-//W3C//DTD SVG 1.1//EN"
 "http://www.w3.org/Graphics/SVG/1.1/DTD/svg11.dtd">
<!-- Generated by graphviz version 14.0.0 (20250921.2048)
 -->
<!-- Title: src/dvloc/vlocg_table.c Pages: 1 -->
<svg width="839pt" height="193pt"
 viewBox="0.00 0.00 839.00 193.00" xmlns="http://www.w3.org/2000/svg" xmlns:xlink="http://www.w3.org/1999/xlink">
<g id="graph0" class="graph" transform="scale(1 1) rotate(0) translate(4 189)">
<title>src/dvloc/vlocg_table.c</title>
<!-- Node1 -->
<g id="Node000001" class="node">
<title>Node1</title>
<g id="a_Node000001"><a xlink:title=" ">
<polygon fill="#999999" stroke="#666666" points="453.25,-185 336.75,-185 336.75,-165.75 453.25,-165.75 453.25,-185"/>
<text xml:space="preserve" text-anchor="middle" x="395" y="-171.5" font-family="Helvetica,sans-Serif" font-size="10.00">src/dvloc/vlocg_table.c</text>
</a>
</g>
</g>
<!-- Node2 -->
<g id="Node000002" class="node">
<title>Node2</title>
<g id="a_Node000002"><a xlink:title=" ">
<polygon fill="#e0e0e0" stroke="#999999" points="46,-129.75 0,-129.75 0,-110.5 46,-110.5 46,-129.75"/>
<text xml:space="preserve" text-anchor="middle" x="23" y="-116.25" font-family="Helvetica,sans-Serif" font-size="10.00">math.h</text>
</a>
</g>
</g>
<!-- Node1&#45;&gt;Node2 -->
<g id="edge1_Node000001_Node000002" class="edge">
<title>Node1&#45;&gt;Node2</title>
<g id="a_edge1_Node000001_Node000002"><a xlink:title=" ">
<path fill="none" stroke="#63b8ff" d="M336.33,-168.3C269.24,-160.95 156.24,-147.34 60,-129.75 59.17,-129.6 58.34,-129.44 57.49,-129.28"/>
<polygon fill="#63b8ff" stroke="#63b8ff" points="58.4,-125.89 47.9,-127.26 56.96,-132.74 58.4,-125.89"/>
</a>
</g>
</g>
<!-- Node3 -->
<g id="Node000003" class="node">
<title>Node3</title>
<g id="a_Node000003"><a xlink:title=" ">
<polygon fill="#e0e0e0" stroke="#999999" points="433,-19.25 393,-19.25 393,0 433,0 433,-19.25"/>
<text xml:space="preserve" text-anchor="middle" x="413" y="-5.75" font-family="Helvetica,sans-Serif" font-size="10.00">mpi.h</text>
</a>
</g>
</g>
<!-- Node1&#45;&gt;Node3 -->
<g id="edge2_Node000001_Node000003" class="edge">
<title>Node1&#45;&gt;Node3</title>
<g id="a_edge2_Node000001_Node000003"><a xlink:title=" ">
<path fill="none" stroke="#63b8ff" d="M375.81,-165.25C362.5,-157.77 345.82,-145.79 338,-129.75 334.25,-122.06 335.51,-118.69 338,-110.5 348.24,-76.8 375.68,-45.66 394.37,-27.4"/>
<polygon fill="#63b8ff" stroke="#63b8ff" points="396.75,-29.96 401.63,-20.55 391.95,-24.87 396.75,-29.96"/>
</a>
</g>
</g>
<!-- Node4 -->
<g id="Node000004" class="node">
<title>Node4</title>
<g id="a_Node000004"><a xlink:title=" ">
<polygon fill="#e0e0e0" stroke="#999999" points="149.75,-129.75 102.25,-129.75 102.25,-110.5 149.75,-110.5 149.75,-129.75"/>
<text xml:space="preserve" text-anchor="middle" x="126" y="-116.25" font-family="Helvetica,sans-Serif" font-size="10.00">stdlib.h</text>
</a>
</g>
</g>
<!-- Node1&#45;&gt;Node4 -->
<g id="edge3_Node000001_Node000004" class="edge">
<title>Node1&#45;&gt;Node4</title>
<g id="a_edge3_Node000001_Node000004"><a xlink:title=" ">
<path fill="none" stroke="#63b8ff" d="M340.16,-165.28C294.5,-157.44 227.56,-145.3 161.15,-130.35"/>
<polygon fill="#63b8ff" stroke="#63b8ff" points="162.07,-126.97 151.54,-128.16 160.51,-133.79 162.07,-126.97"/>
</a>
</g>
</g>
<!-- Node5 -->
<g id="Node000005" class="node">
<title>Node5</title>
<g id="a_Node000005"><a xlink:href="../../de/d83/_e_l_p_h__timers_8h.html" target="_top" xlink:title=" ">
<polygon fill="white" stroke="#666666" points="290.62,-129.75 167.38,-129.75 167.38,-110.5 290.62,-110.5 290.62,-129.75"/>
<text xml:space="preserve" text-anchor="middle" x="229" y="-116.25" font-family="Helvetica,sans-Serif" font-size="10.00">common/ELPH_timers.h</text>
</a>
</g>
</g>
<!-- Node1&#45;&gt;Node5 -->
<g id="edge4_Node000001_Node000005" class="edge">
<title>Node1&#45;&gt;Node5</title>
<g id="a_edge4_Node000001_Node000005"><a xlink:title=" ">
<path fill="none" stroke="#63b8ff" d="M366.84,-165.34C339.65,-156.62 298.26,-143.34 267.93,-133.61"/>
<polygon fill="#63b8ff" stroke="#63b8ff" points="269.33,-130.39 258.74,-130.66 267.19,-137.05 269.33,-130.39"/>
</a>
</g>
</g>
<!-- Node6 -->
<g id="Node000006" class="node">
<title>Node6</title>
<g id="a_Node000006"><a xlink:href="../../d2/d02/dtypes_8h.html" target="_top" xlink:title=" ">
<polygon fill="white" stroke="#666666" points="517,-74.5 423,-74.5 423,-55.25 517,-55.25 517,-74.5"/>
<text xml:space="preserve" text-anchor="middle" x="470" y="-61" font-family="Helvetica,sans-Serif" font-size="10.00">common/dtypes.h</text>
</a>
</g>
</g>
<!-- Node1&#45;&gt;Node6 -->
<g id="edge5_Node000001_Node000006" class="edge">
<title>Node1&#45;&gt;Node6</title>
<g id="a_edge5_Node000001_Node000006"><a xlink:title=" ">
<path fill="none" stroke="#63b8ff" d="M411.61,-165.34C424.44,-157.53 441.71,-145.09 452,-129.75 460.75,-116.7 465.29,-99.42 467.62,-86.12"/>
<polygon fill="#63b8ff" stroke="#63b8ff" points="471.06,-86.76 469.02,-76.36 464.13,-85.76 471.06,-86.76"/>
</a>
</g>
</g>
<!-- Node8 -->
<g id="Node000008" class="node">
<title>Node8</title>
<g id="a_Node000008"><a xlink:href="../../d4/d0a/elph_c_8h.html" target="_top" xlink:title="Core type definitions and configuration for LetzElPhC.">
<polygon fill="white" stroke="#666666" points="616.88,-19.25 567.12,-19.25 567.12,0 616.88,0 616.88,-19.25"/>
<text xml:space="preserve" text-anchor="middle" x="592" y="-5.75" font-family="Helvetica,sans-Serif" font-size="10.00">elphC.h</text>
</a>
</g>
</g>
<!-- Node1&#45;&gt;Node8 -->
<g id="edge22_Node000001_Node000008" class="edge">
<title>Node1&#45;&gt;Node8</title>
<g id="a_edge22_Node000001_Node000008"><a xlink:title=" ">
<path fill="none" stroke="#63b8ff" d="M448.97,-165.32C498.73,-153.75 569.62,-128.36 602,-74.5 610.05,-61.11 606.39,-43.39 601.37,-30.01"/>
<polygon fill="#63b8ff" stroke="#63b8ff" points="604.65,-28.78 597.47,-20.98 598.22,-31.55 604.65,-28.78"/>
</a>
</g>
</g>
<!-- Node9 -->
<g id="Node000009" class="node">
<title>Node9</title>
<g id="a_Node000009"><a xlink:href="../../da/d41/error_8h.html" target="_top" xlink:title=" ">
<polygon fill="white" stroke="#666666" points="263.5,-19.25 220.5,-19.25 220.5,0 263.5,0 263.5,-19.25"/>
<text xml:space="preserve" text-anchor="middle" x="242" y="-5.75" font-family="Helvetica,sans-Serif" font-size="10.00">error.h</text>
</a>
</g>
</g>
<!-- Node1&#45;&gt;Node9 -->
<g id="edge10_Node000001_Node000009" class="edge">
<title>Node1&#45;&gt;Node9</title>
<g id="a_edge10_Node000001_Node000009"><a xlink:title=" ">
<path fill="none" stroke="#63b8ff" d="M336.56,-174.42C257.79,-173.08 123.82,-165.46 93,-129.75 51.8,-82.02 154.29,-39.4 209.53,-20.68"/>
<polygon fill="#63b8ff" stroke="#63b8ff" points="210.38,-24.09 218.78,-17.64 208.18,-17.44 210.38,-24.09"/>
</a>
</g>
</g>
<!-- Node10 -->
<g id="Node000010" class="node">
<title>Node10</title>
<g id="a_Node000010"><a xlink:href="../../df/def/numerical__func_8h.html" target="_top" xlink:title=" ">
<polygon fill="white" stroke="#666666" points="817.38,-74.5 686.62,-74.5 686.62,-55.25 817.38,-55.25 817.38,-74.5"/>
<text xml:space="preserve" text-anchor="middle" x="752" y="-61" font-family="Helvetica,sans-Serif" font-size="10.00">common/numerical_func.h</text>
</a>
</g>
</g>
<!-- Node1&#45;&gt;Node10 -->
<g id="edge11_Node000001_Node000010" class="edge">
<title>Node1&#45;&gt;Node10</title>
<g id="a_edge11_Node000001_Node000010"><a xlink:title=" ">
<path fill="none" stroke="#63b8ff" d="M453.44,-171.41C531.47,-166.55 664.65,-154.79 706,-129.75 723.33,-119.26 736.01,-99.5 743.62,-84.73"/>
<polygon fill="#63b8ff" stroke="#63b8ff" points="746.63,-86.53 747.79,-76 740.32,-83.52 746.63,-86.53"/>
</a>
</g>
</g>
<!-- Node11 -->
<g id="Node000011" class="node">
<title>Node11</title>
<g id="a_Node000011"><a xlink:href="../../df/d5c/parallel_8h.html" target="_top" xlink:title=" ">
<polygon fill="white" stroke="#666666" points="442.75,-129.75 347.25,-129.75 347.25,-110.5 442.75,-110.5 442.75,-129.75"/>
<text xml:space="preserve" text-anchor="middle" x="395" y="-116.25" font-family="Helvetica,sans-Serif" font-size="10.00">common/parallel.h</text>
</a>
</g>
</g>
<!-- Node1&#45;&gt;Node11 -->
<g id="edge14_Node000001_Node000011" class="edge">
<title>Node1&#45;&gt;Node11</title>
<g id="a_edge14_Node000001_Node000011"><a xlink:title=" ">
<path fill="none" stroke="#63b8ff" d="M395,-165.58C395,-159.07 395,-149.92 395,-141.62"/>
<polygon fill="#63b8ff" stroke="#63b8ff" points="398.5,-141.62 395,-131.62 391.5,-141.62 398.5,-141.62"/>
</a>
</g>
</g>
<!-- Node12 -->
<g id="Node000012" class="node">
<title>Node12</title>
<g id="a_Node000012"><a xlink:href="../../d8/dc9/dvloc_8h.html" target="_top" xlink:title=" ">
<polygon fill="white" stroke="#666666" points="696.75,-129.75 649.25,-129.75 649.25,-110.5 696.75,-110.5 696.75,-129.75"/>
<text xml:space="preserve" text-anchor="middle" x="673" y="-116.25" font-family="Helvetica,sans-Serif" font-size="10.00">dvloc.h</text>
</a>
</g>
</g>
<!-- Node1&#45;&gt;Node12 -->
<g id="edge18_Node000001_Node000012" class="edge">
<title>Node1&#45;&gt;Node12</title>
<g id="a_edge18_Node000001_Node000012"><a xlink:title=" ">
<path fill="none" stroke="#63b8ff" d="M447.08,-165.3C495.77,-156.67 570.46,-143.07 635,-129.75 635.99,-129.55 636.98,-129.34 637.99,-129.12"/>
<polygon fill="#63b8ff" stroke="#63b8ff" points="638.41,-132.62 647.43,-127.07 636.91,-125.78 638.41,-132.62"/>
</a>
</g>
</g>
<!-- Node13 -->
<g id="Node000013" class="node">
<title>Node13</title>
<g id="a_Node000013"><a xlink:href="../../d1/dea/wfc_8h.html" target="_top" xlink:title=" ">
<polygon fill="white" stroke="#666666" points="593.38,-74.5 534.62,-74.5 534.62,-55.25 593.38,-55.25 593.38,-74.5"/>
<text xml:space="preserve" text-anchor="middle" x="564" y="-61" font-family="Helvetica,sans-Serif" font-size="10.00">wfc/wfc.h</text>
</a>
</g>
</g>
<!-- Node1&#45;&gt;Node13 -->
<g id="edge23_Node000001_Node000013" class="edge">
<title>Node1&#45;&gt;Node13</title>
<g id="a_edge23_Node000001_Node000013"><a xlink:title=" ">
<path fill="none" stroke="#63b8ff" d="M410.68,-165.41C425.97,-156.59 449.8,-142.6 470,-129.75 495.11,-113.77 523.28,-94.43 542.17,-81.25"/>
<polygon fill="#63b8ff" stroke="#63b8ff" points="543.97,-84.27 550.15,-75.67 539.95,-78.54 543.97,-84.27"/>
</a>
</g>
</g>
<!-- Node6&#45;&gt;Node3 -->
<g id="edge6_Node000006_Node000003" class="edge">
<title>Node6&#45;&gt;Node3</title>
<g id="a_edge6_Node000006_Node000003"><a xlink:title=" ">
<path fill="none" stroke="#63b8ff" d="M460.33,-54.84C452.26,-47.3 440.53,-36.35 430.78,-27.23"/>
<polygon fill="#63b8ff" stroke="#63b8ff" points="433.33,-24.83 423.63,-20.56 428.55,-29.94 433.33,-24.83"/>
</a>
</g>
</g>
<!-- Node7 -->
<g id="Node000007" class="node">
<title>Node7</title>
<g id="a_Node000007"><a xlink:title=" ">
<polygon fill="#e0e0e0" stroke="#999999" points="748.88,-19.25 693.12,-19.25 693.12,0 748.88,0 748.88,-19.25"/>
<text xml:space="preserve" text-anchor="middle" x="721" y="-5.75" font-family="Helvetica,sans-Serif" font-size="10.00">stdbool.h</text>
</a>
</g>
</g>
<!-- Node6&#45;&gt;Node7 -->
<g id="edge7_Node000006_Node000007" class="edge">
<title>Node6&#45;&gt;Node7</title>
<g id="a_edge7_Node000006_Node000007"><a xlink:title=" ">
<path fill="none" stroke="#63b8ff" d="M512.86,-54.78C560.23,-44.73 635.88,-28.68 681.75,-18.95"/>
<polygon fill="#63b8ff" stroke="#63b8ff" points="682.2,-22.43 691.26,-16.93 680.75,-15.59 682.2,-22.43"/>
</a>
</g>
</g>
<!-- Node6&#45;&gt;Node8 -->
<g id="edge8_Node000006_Node000008" class="edge">
<title>Node6&#45;&gt;Node8</title>
<g id="a_edge8_Node000006_Node000008"><a xlink:title=" ">
<path fill="none" stroke="#63b8ff" d="M490.7,-54.84C509.89,-46.47 538.71,-33.88 560.72,-24.28"/>
<polygon fill="#63b8ff" stroke="#63b8ff" points="562.05,-27.52 569.82,-20.31 559.25,-21.1 562.05,-27.52"/>
</a>
</g>
</g>
<!-- Node6&#45;&gt;Node9 -->
<g id="edge9_Node000006_Node000009" class="edge">
<title>Node6&#45;&gt;Node9</title>
<g id="a_edge9_Node000006_Node000009"><a xlink:title=" ">
<path fill="none" stroke="#63b8ff" d="M431.06,-54.78C387.1,-44.51 316.31,-27.98 274.97,-18.32"/>
<polygon fill="#63b8ff" stroke="#63b8ff" points="275.89,-14.95 265.36,-16.08 274.3,-21.76 275.89,-14.95"/>
</a>
</g>
</g>
<!-- Node10&#45;&gt;Node7 -->
<g id="edge12_Node000010_Node000007" class="edge">
<title>Node10&#45;&gt;Node7</title>
<g id="a_edge12_Node000010_Node000007"><a xlink:title=" ">
<path fill="none" stroke="#63b8ff" d="M746.88,-55.08C742.82,-48.11 737.01,-38.12 731.91,-29.37"/>
<polygon fill="#63b8ff" stroke="#63b8ff" points="735.05,-27.8 726.99,-20.92 729,-31.32 735.05,-27.8"/>
</a>
</g>
</g>
<!-- Node10&#45;&gt;Node8 -->
<g id="edge13_Node000010_Node000008" class="edge">
<title>Node10&#45;&gt;Node8</title>
<g id="a_edge13_Node000010_Node000008"><a xlink:title=" ">
<path fill="none" stroke="#63b8ff" d="M724.86,-54.84C698.14,-45.95 657.17,-32.32 627.8,-22.54"/>
<polygon fill="#63b8ff" stroke="#63b8ff" points="629.19,-19.31 618.6,-19.48 626.98,-25.96 629.19,-19.31"/>
</a>
</g>
</g>
<!-- Node11&#45;&gt;Node3 -->
<g id="edge15_Node000011_Node000003" class="edge">
<title>Node11&#45;&gt;Node3</title>
<g id="a_edge15_Node000011_Node000003"><a xlink:title=" ">
<path fill="none" stroke="#63b8ff" d="M390.17,-110.31C384,-97.85 374.82,-74.49 381,-55.25 384.16,-45.42 390.37,-35.92 396.49,-28.24"/>
<polygon fill="#63b8ff" stroke="#63b8ff" points="399.09,-30.58 402.96,-20.72 393.78,-26.01 399.09,-30.58"/>
</a>
</g>
</g>
<!-- Node11&#45;&gt;Node6 -->
<g id="edge16_Node000011_Node000006" class="edge">
<title>Node11&#45;&gt;Node6</title>
<g id="a_edge16_Node000011_Node000006"><a xlink:title=" ">
<path fill="none" stroke="#63b8ff" d="M407.72,-110.09C418.71,-102.29 434.84,-90.84 447.93,-81.54"/>
<polygon fill="#63b8ff" stroke="#63b8ff" points="449.85,-84.47 455.98,-75.83 445.8,-78.76 449.85,-84.47"/>
</a>
</g>
</g>
<!-- Node11&#45;&gt;Node8 -->
<g id="edge17_Node000011_Node000008" class="edge">
<title>Node11&#45;&gt;Node8</title>
<g id="a_edge17_Node000011_Node000008"><a xlink:title=" ">
<path fill="none" stroke="#63b8ff" d="M395.01,-110.3C395.54,-96.53 398.62,-69.97 414,-55.25 434.11,-36 509.74,-22.23 555.69,-15.44"/>
<polygon fill="#63b8ff" stroke="#63b8ff" points="556.07,-18.92 565.47,-14.03 555.07,-11.99 556.07,-18.92"/>
</a>
</g>
</g>
<!-- Node12&#45;&gt;Node6 -->
<g id="edge20_Node000012_Node000006" class="edge">
<title>Node12&#45;&gt;Node6</title>
<g id="a_edge20_Node000012_Node000006"><a xlink:title=" ">
<path fill="none" stroke="#63b8ff" d="M648.92,-112.81C616.11,-104.2 556.74,-88.63 515.43,-77.79"/>
<polygon fill="#63b8ff" stroke="#63b8ff" points="516.58,-74.48 506.02,-75.32 514.81,-81.25 516.58,-74.48"/>
</a>
</g>
</g>
<!-- Node12&#45;&gt;Node7 -->
<g id="edge19_Node000012_Node000007" class="edge">
<title>Node12&#45;&gt;Node7</title>
<g id="a_edge19_Node000012_Node000007"><a xlink:title=" ">
<path fill="none" stroke="#63b8ff" d="M696.97,-115.66C735.99,-109.47 810.48,-95.2 826,-74.5 846.97,-46.53 798.1,-28.2 760.19,-18.63"/>
<polygon fill="#63b8ff" stroke="#63b8ff" points="761.37,-15.31 750.83,-16.4 759.75,-22.12 761.37,-15.31"/>
</a>
</g>
</g>
<!-- Node12&#45;&gt;Node8 -->
<g id="edge21_Node000012_Node000008" class="edge">
<title>Node12&#45;&gt;Node8</title>
<g id="a_edge21_Node000012_Node000008"><a xlink:title=" ">
<path fill="none" stroke="#63b8ff" d="M668.45,-110.03C661.86,-97.26 648.93,-73.51 635,-55.25 627.52,-45.45 618.13,-35.49 610.03,-27.46"/>
<polygon fill="#63b8ff" stroke="#63b8ff" points="612.61,-25.1 602.99,-20.68 607.76,-30.14 612.61,-25.1"/>
</a>
</g>
</g>
<!-- Node13&#45;&gt;Node3 -->
<g id="edge24_Node000013_Node000003" class="edge">
<title>Node13&#45;&gt;Node3</title>
<g id="a_edge24_Node000013_Node000003"><a xlink:title=" ">
<path fill="none" stroke="#63b8ff" d="M538.38,-54.84C512.35,-45.66 472,-31.43 444.14,-21.61"/>
<polygon fill="#63b8ff" stroke="#63b8ff" points="445.43,-18.35 434.83,-18.32 443.1,-24.95 445.43,-18.35"/>
</a>
</g>
</g>
<!-- Node13&#45;&gt;Node7 -->
<g id="edge25_Node000013_Node000007" class="edge">
<title>Node13&#45;&gt;Node7</title>
<g id="a_edge25_Node000013_Node000007"><a xlink:title=" ">
<path fill="none" stroke="#63b8ff" d="M590.63,-54.84C616.12,-46.2 654.81,-33.07 683.43,-23.37"/>
<polygon fill="#63b8ff" stroke="#63b8ff" points="684.46,-26.72 692.8,-20.19 682.21,-20.09 684.46,-26.72"/>
</a>
</g>
</g>
<!-- Node13&#45;&gt;Node8 -->
<g id="edge26_Node000013_Node000008" class="edge">
<title>Node13&#45;&gt;Node8</title>
<g id="a_edge26_Node000013_Node000008"><a xlink:title=" ">
<path fill="none" stroke="#63b8ff" d="M568.62,-55.08C572.25,-48.19 577.43,-38.34 581.99,-29.66"/>
<polygon fill="#63b8ff" stroke="#63b8ff" points="585.02,-31.43 586.57,-20.95 578.82,-28.17 585.02,-31.43"/>
</a>
</g>
</g>
</g>
</svg>
