<?xml version="1.0" encoding="UTF-8" standalone="no"?>
<!DOCTYPE svg PUBLIC "-//W3C//DTD SVG 1.1//EN"
 "http://www.w3.org/Graphics/SVG/1.1/DTD/svg11.dtd">
<!-- Generated by graphviz version 14.0.0 (20250921.2048)
 -->
<!-- Title: CGCoeff Pages: 1 -->
<svg width="549pt" height="39pt"
 viewBox="0.00 0.00 549.00 39.00" xmlns="http://www.w3.org/2000/svg" xmlns:xlink="http://www.w3.org/1999/xlink">
<g id="graph0" class="graph" transform="scale(1 1) rotate(0) translate(4 34.5)">
<title>CGCoeff</title>
<!-- Node1 -->
<g id="Node000001" class="node">
<title>Node1</title>
<g id="a_Node000001"><a xlink:title=" ">
<polygon fill="#999999" stroke="#666666" points="541.25,-24.88 486.25,-24.88 486.25,-5.63 541.25,-5.63 541.25,-24.88"/>
<text xml:space="preserve" text-anchor="middle" x="513.75" y="-11.38" font-family="Helvetica,sans-Serif" font-size="10.00">CGCoeff</text>
</a>
</g>
</g>
<!-- Node2 -->
<g id="Node000002" class="node">
<title>Node2</title>
<g id="a_Node000002"><a xlink:href="../../d3/df0/fcoeff_8c.html#a51c4fcdc7b80cf7bc1ecad7f6fbbcfad" target="_top" xlink:title=" ">
<polygon fill="white" stroke="#666666" points="450.25,-30.5 339.75,-30.5 339.75,0 450.25,0 450.25,-30.5"/>
<text xml:space="preserve" text-anchor="start" x="347.75" y="-17" font-family="Helvetica,sans-Serif" font-size="10.00">alloc_and_Compute_f</text>
<text xml:space="preserve" text-anchor="middle" x="395" y="-5.75" font-family="Helvetica,sans-Serif" font-size="10.00">_Coeff</text>
</a>
</g>
</g>
<!-- Node1&#45;&gt;Node2 -->
<g id="edge1_Node000001_Node000002" class="edge">
<title>Node1&#45;&gt;Node2</title>
<g id="a_edge1_Node000001_Node000002"><a xlink:title=" ">
<path fill="none" stroke="#63b8ff" d="M474.65,-15.25C466.86,-15.25 458.53,-15.25 450.3,-15.25"/>
<polygon fill="#63b8ff" stroke="#63b8ff" points="474.45,-18.75 484.45,-15.25 474.45,-11.75 474.45,-18.75"/>
</a>
</g>
</g>
<!-- Node3 -->
<g id="Node000003" class="node">
<title>Node3</title>
<g id="a_Node000003"><a xlink:href="../../da/d77/get__save__data_8c.html#ab497305a989dd1713ba4c2b4d0f95bd0" target="_top" xlink:title=" ">
<polygon fill="white" stroke="#666666" points="303.75,-24.88 172.25,-24.88 172.25,-5.63 303.75,-5.63 303.75,-24.88"/>
<text xml:space="preserve" text-anchor="middle" x="238" y="-11.38" font-family="Helvetica,sans-Serif" font-size="10.00">read_and_alloc_save_data</text>
</a>
</g>
</g>
<!-- Node2&#45;&gt;Node3 -->
<g id="edge2_Node000002_Node000003" class="edge">
<title>Node2&#45;&gt;Node3</title>
<g id="a_edge2_Node000002_Node000003"><a xlink:title=" ">
<path fill="none" stroke="#63b8ff" d="M327.92,-15.25C320.01,-15.25 311.93,-15.25 304.04,-15.25"/>
<polygon fill="#63b8ff" stroke="#63b8ff" points="327.84,-18.75 337.84,-15.25 327.84,-11.75 327.84,-18.75"/>
</a>
</g>
</g>
<!-- Node4 -->
<g id="Node000004" class="node">
<title>Node4</title>
<g id="a_Node000004"><a xlink:href="../../da/d2e/elph__driver_8c.html#ad9f405d41cf090d652dbe1307700665f" target="_top" xlink:title=" ">
<polygon fill="white" stroke="#666666" points="136.25,-24.88 73,-24.88 73,-5.63 136.25,-5.63 136.25,-24.88"/>
<text xml:space="preserve" text-anchor="middle" x="104.62" y="-11.38" font-family="Helvetica,sans-Serif" font-size="10.00">elph_driver</text>
</a>
</g>
</g>
<!-- Node3&#45;&gt;Node4 -->
<g id="edge3_Node000003_Node000004" class="edge">
<title>Node3&#45;&gt;Node4</title>
<g id="a_edge3_Node000003_Node000004"><a xlink:title=" ">
<path fill="none" stroke="#63b8ff" d="M160.78,-15.25C152.25,-15.25 143.96,-15.25 136.51,-15.25"/>
<polygon fill="#63b8ff" stroke="#63b8ff" points="160.57,-18.75 170.57,-15.25 160.57,-11.75 160.57,-18.75"/>
</a>
</g>
</g>
<!-- Node5 -->
<g id="Node000005" class="node">
<title>Node5</title>
<g id="a_Node000005"><a xlink:href="../../d3/dd5/main__elph_c_8c.html#a0ddf1224851353fc92bfbff6f499fa97" target="_top" xlink:title="Main program entry point.">
<polygon fill="white" stroke="#666666" points="37,-24.88 0,-24.88 0,-5.63 37,-5.63 37,-24.88"/>
<text xml:space="preserve" text-anchor="middle" x="18.5" y="-11.38" font-family="Helvetica,sans-Serif" font-size="10.00">main</text>
</a>
</g>
</g>
<!-- Node4&#45;&gt;Node5 -->
<g id="edge4_Node000004_Node000005" class="edge">
<title>Node4&#45;&gt;Node5</title>
<g id="a_edge4_Node000004_Node000005"><a xlink:title=" ">
<path fill="none" stroke="#63b8ff" d="M61.27,-15.25C52.74,-15.25 44.23,-15.25 37.14,-15.25"/>
<polygon fill="#63b8ff" stroke="#63b8ff" points="61.26,-18.75 71.26,-15.25 61.26,-11.75 61.26,-18.75"/>
</a>
</g>
</g>
</g>
</svg>
