<?xml version="1.0" encoding="UTF-8" standalone="no"?>
<!DOCTYPE svg PUBLIC "-//W3C//DTD SVG 1.1//EN"
 "http://www.w3.org/Graphics/SVG/1.1/DTD/svg11.dtd">
<!-- Generated by graphviz version 14.0.0 (20250921.2048)
 -->
<!-- Title: ELPH_start_clock Pages: 1 -->
<!--zoomable 578 -->

<svg id="main" version="1.1" xmlns="http://www.w3.org/2000/svg" xmlns:xlink="http://www.w3.org/1999/xlink" xml:space="preserve" onload="init(evt)">

<style type="text/css"><![CDATA[
.node, .edge {opacity: 0.7;}
.node.selected, .edge.selected {opacity: 1;}
.edge:hover path { stroke: red; }
.edge:hover polygon { stroke: red; fill: red; }
]]></style>

<defs>
  <circle id="rim" cx="0" cy="0" r="7"/>
  <circle id="rim2" cx="0" cy="0" r="3.5"/>
  <g id="zoomPlus">
    <use xlink:href="#rim" fill="#404040"><set attributeName="fill" to="#808080" begin="zoomplus.mouseover" end="zoomplus.mouseout"/></use>
    <path d="M-4,0h8M0,-4v8" fill="none" stroke="white" stroke-width="1.5" pointer-events="none"/>
  </g>
  <g id="zoomMin">
    <use xlink:href="#rim" fill="#404040"><set attributeName="fill" to="#808080" begin="zoomminus.mouseover" end="zoomminus.mouseout"/></use>
    <path d="M-4,0h8" fill="none" stroke="white" stroke-width="1.5" pointer-events="none"/>
  </g>
  <g id="arrowUp" transform="translate(30 24)">
    <use xlink:href="#rim"/>
    <path pointer-events="none" fill="none" stroke="white" stroke-width="1.5" d="M0,-3.0v7 M-2.5,-0.5L0,-3.0L2.5,-0.5"/>
  </g>
  <g id="arrowRight" transform="rotate(90) translate(36 -43)">
    <use xlink:href="#rim"/>
    <path pointer-events="none" fill="none" stroke="white" stroke-width="1.5" d="M0,-3.0v7 M-2.5,-0.5L0,-3.0L2.5,-0.5"/>
  </g>
  <g id="arrowDown" transform="rotate(180) translate(-30 -48)">
    <use xlink:href="#rim"/>
    <path pointer-events="none" fill="none" stroke="white" stroke-width="1.5" d="M0,-3.0v7 M-2.5,-0.5L0,-3.0L2.5,-0.5"/>
  </g>
  <g id="arrowLeft" transform="rotate(270) translate(-36 17)">
    <use xlink:href="#rim"/>
    <path pointer-events="none" fill="none" stroke="white" stroke-width="1.5" d="M0,-3.0v7 M-2.5,-0.5L0,-3.0L2.5,-0.5"/>
  </g>
  <g id="resetDef">
    <use xlink:href="#rim2" fill="#404040"><set attributeName="fill" to="#808080" begin="reset.mouseover" end="reset.mouseout"/></use>
  </g>
</defs>
<script type="application/ecmascript">
var viewWidth = 636;
var viewHeight = 578;
var sectionId = 'dynsection-1';
</script>
<script type="application/ecmascript" xlink:href="../../svg.min.js"/>
<svg id="graph" class="graph">
<g id="viewport">
<title>ELPH_start_clock</title>
<!-- Node1 -->
<g id="Node000001" class="node">
<title>Node1</title>
<g id="a_Node000001"><a xlink:title=" ">
<polygon fill="#999999" stroke="#666666" points="628.25,-308.26 532.75,-308.26 532.75,-289.01 628.25,-289.01 628.25,-308.26"/>
<text xml:space="preserve" text-anchor="middle" x="580.5" y="-294.76" font-family="Helvetica,sans-Serif" font-size="10.00">ELPH_start_clock</text>
</a>
</g>
</g>
<!-- Node2 -->
<g id="Node000002" class="node">
<title>Node2</title>
<g id="a_Node000002"><a xlink:href="../../d6/db8/_vbare__nloc_8c.html#abeb59b7a11cbc7ffec9b5bb2759ebbdd" target="_top" xlink:title=" ">
<polygon fill="white" stroke="#666666" points="484.38,-570.26 388.12,-570.26 388.12,-551.01 484.38,-551.01 484.38,-570.26"/>
<text xml:space="preserve" text-anchor="middle" x="436.25" y="-556.76" font-family="Helvetica,sans-Serif" font-size="10.00">add_elphNonLocal</text>
</a>
</g>
</g>
<!-- Node1&#45;&gt;Node2 -->
<g id="edge1_Node000001_Node000002" class="edge">
<title>Node1&#45;&gt;Node2</title>
<g id="a_edge1_Node000001_Node000002"><a xlink:title=" ">
<path fill="none" stroke="#63b8ff" d="M578.55,-320.15C575.28,-367.34 560.81,-480.67 496.75,-542.64 493.26,-546.01 489.16,-548.76 484.77,-550.99"/>
<polygon fill="#63b8ff" stroke="#63b8ff" points="582.04,-320.38 579.12,-310.2 575.05,-319.98 582.04,-320.38"/>
</a>
</g>
</g>
<!-- Node6 -->
<g id="Node000006" class="node">
<title>Node6</title>
<g id="a_Node000006"><a xlink:href="../../db/d44/dyn__long__range_8c.html#a5c9bf2378b293980114e987a84c9df49" target="_top" xlink:title=" ">
<polygon fill="white" stroke="#666666" points="496.75,-232.89 375.75,-232.89 375.75,-202.39 496.75,-202.39 496.75,-232.89"/>
<text xml:space="preserve" text-anchor="start" x="383.75" y="-219.39" font-family="Helvetica,sans-Serif" font-size="10.00">add_ph_dyn_long_range</text>
<text xml:space="preserve" text-anchor="middle" x="436.25" y="-208.14" font-family="Helvetica,sans-Serif" font-size="10.00">_internal</text>
</a>
</g>
</g>
<!-- Node1&#45;&gt;Node6 -->
<g id="edge5_Node000001_Node000006" class="edge">
<title>Node1&#45;&gt;Node6</title>
<g id="a_edge5_Node000001_Node000006"><a xlink:title=" ">
<path fill="none" stroke="#63b8ff" d="M555.23,-282.42C538.95,-271.78 516.89,-257.83 496.75,-246.64 488.51,-242.06 479.45,-237.44 470.93,-233.27"/>
<polygon fill="#63b8ff" stroke="#63b8ff" points="553,-285.14 563.28,-287.72 556.85,-279.3 553,-285.14"/>
</a>
</g>
</g>
<!-- Node10 -->
<g id="Node000010" class="node">
<title>Node10</title>
<g id="a_Node000010"><a xlink:href="../../d2/d5f/wigner__seitz_8c.html#a065617971e0c965c1cd8024894403332" target="_top" xlink:title=" ">
<polygon fill="white" stroke="#666666" points="484.38,-183.89 388.12,-183.89 388.12,-153.39 484.38,-153.39 484.38,-183.89"/>
<text xml:space="preserve" text-anchor="start" x="396.12" y="-170.39" font-family="Helvetica,sans-Serif" font-size="10.00">build_wigner_seitz</text>
<text xml:space="preserve" text-anchor="middle" x="436.25" y="-159.14" font-family="Helvetica,sans-Serif" font-size="10.00">_vectors</text>
</a>
</g>
</g>
<!-- Node1&#45;&gt;Node10 -->
<g id="edge11_Node000001_Node000010" class="edge">
<title>Node1&#45;&gt;Node10</title>
<g id="a_edge11_Node000001_Node000010"><a xlink:title=" ">
<path fill="none" stroke="#63b8ff" d="M568.19,-278.81C554.09,-255.64 528,-217.42 496.75,-193.64 492.11,-190.11 486.91,-186.98 481.55,-184.24"/>
<polygon fill="#63b8ff" stroke="#63b8ff" points="565.09,-280.45 573.19,-287.28 571.12,-276.89 565.09,-280.45"/>
</a>
</g>
</g>
<!-- Node11 -->
<g id="Node000011" class="node">
<title>Node11</title>
<g id="a_Node000011"><a xlink:href="../../d9/db9/vlocg__table_8c.html#ab6914a7f3451d3d4c5e01f8c5cecd7a8" target="_top" xlink:title=" ">
<polygon fill="white" stroke="#666666" points="485.12,-420.26 387.38,-420.26 387.38,-401.01 485.12,-401.01 485.12,-420.26"/>
<text xml:space="preserve" text-anchor="middle" x="436.25" y="-406.76" font-family="Helvetica,sans-Serif" font-size="10.00">create_vlocg_table</text>
</a>
</g>
</g>
<!-- Node1&#45;&gt;Node11 -->
<g id="edge13_Node000001_Node000011" class="edge">
<title>Node1&#45;&gt;Node11</title>
<g id="a_edge13_Node000001_Node000011"><a xlink:title=" ">
<path fill="none" stroke="#63b8ff" d="M567.26,-318.1C552.88,-339.41 527.1,-373.12 496.75,-392.64 491.85,-395.79 486.37,-398.41 480.77,-400.59"/>
<polygon fill="#63b8ff" stroke="#63b8ff" points="570.16,-320.05 572.71,-309.76 564.3,-316.22 570.16,-320.05"/>
</a>
</g>
</g>
<!-- Node12 -->
<g id="Node000012" class="node">
<title>Node12</title>
<g id="a_Node000012"><a xlink:href="../../da/d77/get__save__data_8c.html#ab497305a989dd1713ba4c2b4d0f95bd0" target="_top" xlink:title=" ">
<polygon fill="white" stroke="#666666" points="339,-422.26 207.5,-422.26 207.5,-403.01 339,-403.01 339,-422.26"/>
<text xml:space="preserve" text-anchor="middle" x="273.25" y="-408.76" font-family="Helvetica,sans-Serif" font-size="10.00">read_and_alloc_save_data</text>
</a>
</g>
</g>
<!-- Node1&#45;&gt;Node12 -->
<g id="edge34_Node000001_Node000012" class="edge">
<title>Node1&#45;&gt;Node12</title>
<g id="a_edge34_Node000001_Node000012"><a xlink:title=" ">
<path fill="none" stroke="#63b8ff" d="M573.48,-319.29C563.33,-349.85 539.6,-406.03 496.75,-429.64 432.45,-465.07 341.43,-438.73 298.48,-422.66"/>
<polygon fill="#63b8ff" stroke="#63b8ff" points="576.72,-320.65 576.37,-310.06 570.04,-318.56 576.72,-320.65"/>
</a>
</g>
</g>
<!-- Node13 -->
<g id="Node000013" class="node">
<title>Node13</title>
<g id="a_Node000013"><a xlink:href="../../d1/d94/d_vpot__add__long__range_8c.html#a0923c770a93d2648a5d75b70fbb9c61c" target="_top" xlink:title=" ">
<polygon fill="white" stroke="#666666" points="321.38,-74.26 225.12,-74.26 225.12,-55.01 321.38,-55.01 321.38,-74.26"/>
<text xml:space="preserve" text-anchor="middle" x="273.25" y="-60.76" font-family="Helvetica,sans-Serif" font-size="10.00">dV_add_longrange</text>
</a>
</g>
</g>
<!-- Node1&#45;&gt;Node13 -->
<g id="edge16_Node000001_Node000013" class="edge">
<title>Node1&#45;&gt;Node13</title>
<g id="a_edge16_Node000001_Node000013"><a xlink:title=" ">
<path fill="none" stroke="#63b8ff" d="M577.26,-277.69C571.7,-236.78 553.33,-146.37 496.75,-101.64 470.33,-80.75 378.97,-71.23 321.86,-67.23"/>
<polygon fill="#63b8ff" stroke="#63b8ff" points="573.76,-277.9 578.44,-287.4 580.71,-277.05 573.76,-277.9"/>
</a>
</g>
</g>
<!-- Node14 -->
<g id="Node000014" class="node">
<title>Node14</title>
<g id="a_Node000014"><a xlink:href="../../d9/d90/d_vbare__loc_8c.html#a30f21b6035a8a10369610419e98fbe67" target="_top" xlink:title=" ">
<polygon fill="white" stroke="#666666" points="459.25,-383.26 413.25,-383.26 413.25,-364.01 459.25,-364.01 459.25,-383.26"/>
<text xml:space="preserve" text-anchor="middle" x="436.25" y="-369.76" font-family="Helvetica,sans-Serif" font-size="10.00">dVlocq</text>
</a>
</g>
</g>
<!-- Node1&#45;&gt;Node14 -->
<g id="edge18_Node000001_Node000014" class="edge">
<title>Node1&#45;&gt;Node14</title>
<g id="a_edge18_Node000001_Node000014"><a xlink:title=" ">
<path fill="none" stroke="#63b8ff" d="M559.05,-315.41C542.94,-327.93 519.48,-344.7 496.75,-355.64 484.98,-361.3 471.05,-365.63 459.62,-368.62"/>
<polygon fill="#63b8ff" stroke="#63b8ff" points="560.78,-318.5 566.44,-309.54 556.43,-313.02 560.78,-318.5"/>
</a>
</g>
</g>
<!-- Node15 -->
<g id="Node000015" class="node">
<title>Node15</title>
<g id="a_Node000015"><a xlink:href="../../dd/de7/elec__reps_8c.html#a9ad01d68a7d4f87c39a98bf13778cd64" target="_top" xlink:title=" ">
<polygon fill="white" stroke="#666666" points="477.25,-346.26 395.25,-346.26 395.25,-327.01 477.25,-327.01 477.25,-346.26"/>
<text xml:space="preserve" text-anchor="middle" x="436.25" y="-332.76" font-family="Helvetica,sans-Serif" font-size="10.00">electronic_reps</text>
</a>
</g>
</g>
<!-- Node1&#45;&gt;Node15 -->
<g id="edge20_Node000001_Node000015" class="edge">
<title>Node1&#45;&gt;Node15</title>
<g id="a_edge20_Node000001_Node000015"><a xlink:title=" ">
<path fill="none" stroke="#63b8ff" d="M530.67,-311.68C512.34,-316.58 491.81,-322.06 474.68,-326.64"/>
<polygon fill="#63b8ff" stroke="#63b8ff" points="531.53,-315.07 540.29,-309.11 529.73,-308.31 531.53,-315.07"/>
</a>
</g>
</g>
<!-- Node17 -->
<g id="Node000017" class="node">
<title>Node17</title>
<g id="a_Node000017"><a xlink:href="../../dd/d37/elphq__expand_8c.html#a0ae24af3ba2534ff808508356e40f869" target="_top" xlink:title=" ">
<polygon fill="white" stroke="#666666" points="473.5,-533.26 399,-533.26 399,-514.01 473.5,-514.01 473.5,-533.26"/>
<text xml:space="preserve" text-anchor="middle" x="436.25" y="-519.76" font-family="Helvetica,sans-Serif" font-size="10.00">elph_q_rotate</text>
</a>
</g>
</g>
<!-- Node1&#45;&gt;Node17 -->
<g id="edge23_Node000001_Node000017" class="edge">
<title>Node1&#45;&gt;Node17</title>
<g id="a_edge23_Node000001_Node000017"><a xlink:title=" ">
<path fill="none" stroke="#63b8ff" d="M577.1,-319.71C571.24,-361.37 552.33,-454.67 496.75,-505.64 490.39,-511.47 482.19,-515.42 473.93,-518.09"/>
<polygon fill="#63b8ff" stroke="#63b8ff" points="580.54,-320.4 578.34,-310.04 573.6,-319.52 580.54,-320.4"/>
</a>
</g>
</g>
<!-- Node18 -->
<g id="Node000018" class="node">
<title>Node18</title>
<g id="a_Node000018"><a xlink:href="../../d1/d8e/compute___vbare__loc_8c.html#a5f1d51340a8457749225b05b612e4abe" target="_top" xlink:title=" ">
<polygon fill="white" stroke="#666666" points="464.88,-496.26 407.62,-496.26 407.62,-477.01 464.88,-477.01 464.88,-496.26"/>
<text xml:space="preserve" text-anchor="middle" x="436.25" y="-482.76" font-family="Helvetica,sans-Serif" font-size="10.00">elphLocal</text>
</a>
</g>
</g>
<!-- Node1&#45;&gt;Node18 -->
<g id="edge25_Node000001_Node000018" class="edge">
<title>Node1&#45;&gt;Node18</title>
<g id="a_edge25_Node000001_Node000018"><a xlink:title=" ">
<path fill="none" stroke="#63b8ff" d="M574.14,-319.63C564.35,-354 540.45,-422.46 496.75,-462.64 487.98,-470.7 476.14,-476.22 465.34,-479.91"/>
<polygon fill="#63b8ff" stroke="#63b8ff" points="577.49,-320.66 576.72,-310.09 570.73,-318.83 577.49,-320.66"/>
</a>
</g>
</g>
<!-- Node19 -->
<g id="Node000019" class="node">
<title>Node19</title>
<g id="a_Node000019"><a xlink:href="../../d9/d41/interpolation__utilities_8c.html#a7057b91c231575471dc5ebe174f3e217" target="_top" xlink:title=" ">
<polygon fill="white" stroke="#666666" points="297.38,-111.26 249.12,-111.26 249.12,-92.01 297.38,-92.01 297.38,-111.26"/>
<text xml:space="preserve" text-anchor="middle" x="273.25" y="-97.76" font-family="Helvetica,sans-Serif" font-size="10.00">fft_q2R</text>
</a>
</g>
</g>
<!-- Node1&#45;&gt;Node19 -->
<g id="edge27_Node000001_Node000019" class="edge">
<title>Node1&#45;&gt;Node19</title>
<g id="a_edge27_Node000001_Node000019"><a xlink:title=" ">
<path fill="none" stroke="#63b8ff" d="M574.54,-277.97C565.34,-244.33 542.26,-178.12 496.75,-144.64 435.91,-99.87 341.17,-98.07 297.61,-99.96"/>
<polygon fill="#63b8ff" stroke="#63b8ff" points="571.06,-278.5 576.95,-287.31 577.84,-276.75 571.06,-278.5"/>
</a>
</g>
</g>
<!-- Node20 -->
<g id="Node000020" class="node">
<title>Node20</title>
<g id="a_Node000020"><a xlink:href="../../d9/d41/interpolation__utilities_8c.html#adb86c42dd68a4cb0a0e01c7f07231b98" target="_top" xlink:title=" ">
<polygon fill="white" stroke="#666666" points="312,-29.26 234.5,-29.26 234.5,-10.01 312,-10.01 312,-29.26"/>
<text xml:space="preserve" text-anchor="middle" x="273.25" y="-15.76" font-family="Helvetica,sans-Serif" font-size="10.00">fft_R2q_dvscf</text>
</a>
</g>
</g>
<!-- Node1&#45;&gt;Node20 -->
<g id="edge29_Node000001_Node000020" class="edge">
<title>Node1&#45;&gt;Node20</title>
<g id="a_edge29_Node000001_Node000020"><a xlink:title=" ">
<path fill="none" stroke="#63b8ff" d="M580.36,-277.3C581.15,-225.23 575.1,-91.49 496.75,-30.64 443.6,10.64 359.91,0.89 311.75,-9.6"/>
<polygon fill="#63b8ff" stroke="#63b8ff" points="576.86,-277.08 580.09,-287.17 583.86,-277.27 576.86,-277.08"/>
</a>
</g>
</g>
<!-- Node21 -->
<g id="Node000021" class="node">
<title>Node21</title>
<g id="a_Node000021"><a xlink:href="../../d9/d41/interpolation__utilities_8c.html#a6996965c06846d1cb1ad4c84c333d3f5" target="_top" xlink:title=" ">
<polygon fill="white" stroke="#666666" points="307.88,-272.26 238.62,-272.26 238.62,-253.01 307.88,-253.01 307.88,-272.26"/>
<text xml:space="preserve" text-anchor="middle" x="273.25" y="-258.76" font-family="Helvetica,sans-Serif" font-size="10.00">fft_R2q_dyn</text>
</a>
</g>
</g>
<!-- Node1&#45;&gt;Node21 -->
<g id="edge31_Node000001_Node000021" class="edge">
<title>Node1&#45;&gt;Node21</title>
<g id="a_edge31_Node000001_Node000021"><a xlink:title=" ">
<path fill="none" stroke="#63b8ff" d="M521.12,-291.75C457.99,-284.31 359.52,-272.69 308.1,-266.63"/>
<polygon fill="#63b8ff" stroke="#63b8ff" points="520.63,-295.22 530.97,-292.91 521.45,-288.27 520.63,-295.22"/>
</a>
</g>
</g>
<!-- Node22 -->
<g id="Node000022" class="node">
<title>Node22</title>
<g id="a_Node000022"><a xlink:href="../../da/d97/_e_l_p_h__timers_8c.html#ac281c572246060804e13f54964dce86d" target="_top" xlink:title=" ">
<polygon fill="white" stroke="#666666" points="457.75,-59.26 414.75,-59.26 414.75,-40.01 457.75,-40.01 457.75,-59.26"/>
<text xml:space="preserve" text-anchor="middle" x="436.25" y="-45.76" font-family="Helvetica,sans-Serif" font-size="10.00">map_t</text>
</a>
</g>
</g>
<!-- Node1&#45;&gt;Node22 -->
<g id="edge33_Node000001_Node000022" class="edge">
<title>Node1&#45;&gt;Node22</title>
<g id="a_edge33_Node000001_Node000022"><a xlink:title=" ">
<path fill="none" stroke="#63b8ff" d="M577.4,-277.4C571.98,-233.59 553.7,-132.38 496.75,-73.64 486.44,-63 470.78,-56.94 458.12,-53.57"/>
<polygon fill="#63b8ff" stroke="#63b8ff" points="573.9,-277.55 578.49,-287.1 580.85,-276.77 573.9,-277.55"/>
</a>
</g>
</g>
<!-- Node23 -->
<g id="Node000023" class="node">
<title>Node23</title>
<g id="a_Node000023"><a xlink:href="../../dc/d55/rotate__eig__vecs_8c.html#a6c1073c89757bc422e6720d8348c426a" target="_top" xlink:title=" ">
<polygon fill="white" stroke="#666666" points="315.75,-309.26 230.75,-309.26 230.75,-290.01 315.75,-290.01 315.75,-309.26"/>
<text xml:space="preserve" text-anchor="middle" x="273.25" y="-295.76" font-family="Helvetica,sans-Serif" font-size="10.00">rotate_eig_vecs</text>
</a>
</g>
</g>
<!-- Node1&#45;&gt;Node23 -->
<g id="edge35_Node000001_Node000023" class="edge">
<title>Node1&#45;&gt;Node23</title>
<g id="a_edge35_Node000001_Node000023"><a xlink:title=" ">
<path fill="none" stroke="#63b8ff" d="M521.28,-298.83C461.23,-299.03 369.07,-299.33 315.93,-299.5"/>
<polygon fill="#63b8ff" stroke="#63b8ff" points="520.97,-302.33 530.96,-298.8 520.95,-295.33 520.97,-302.33"/>
</a>
</g>
</g>
<!-- Node3 -->
<g id="Node000003" class="node">
<title>Node3</title>
<g id="a_Node000003"><a xlink:href="../../d5/dd2/compute__elph__matq_8c.html#ad32ab6f17a3745b7f82151d7f5b927f2" target="_top" xlink:title=" ">
<polygon fill="white" stroke="#666666" points="337.88,-514.26 208.62,-514.26 208.62,-495.01 337.88,-495.01 337.88,-514.26"/>
<text xml:space="preserve" text-anchor="middle" x="273.25" y="-500.76" font-family="Helvetica,sans-Serif" font-size="10.00">compute_and_write_elphq</text>
</a>
</g>
</g>
<!-- Node2&#45;&gt;Node3 -->
<g id="edge2_Node000002_Node000003" class="edge">
<title>Node2&#45;&gt;Node3</title>
<g id="a_edge2_Node000002_Node000003"><a xlink:title=" ">
<path fill="none" stroke="#63b8ff" d="M389.63,-547.17C384.93,-545.68 380.24,-544.15 375.75,-542.64 349.55,-533.78 319.97,-522.57 299.53,-514.62"/>
<polygon fill="#63b8ff" stroke="#63b8ff" points="388.49,-550.48 399.08,-550.09 390.56,-543.79 388.49,-550.48"/>
</a>
</g>
</g>
<!-- Node4 -->
<g id="Node000004" class="node">
<title>Node4</title>
<g id="a_Node000004"><a xlink:href="../../da/d2e/elph__driver_8c.html#ad9f405d41cf090d652dbe1307700665f" target="_top" xlink:title=" ">
<polygon fill="white" stroke="#666666" points="153.5,-365.26 90.25,-365.26 90.25,-346.01 153.5,-346.01 153.5,-365.26"/>
<text xml:space="preserve" text-anchor="middle" x="121.88" y="-351.76" font-family="Helvetica,sans-Serif" font-size="10.00">elph_driver</text>
</a>
</g>
</g>
<!-- Node3&#45;&gt;Node4 -->
<g id="edge3_Node000003_Node000004" class="edge">
<title>Node3&#45;&gt;Node4</title>
<g id="a_edge3_Node000003_Node000004"><a xlink:title=" ">
<path fill="none" stroke="#63b8ff" d="M254.48,-486.91C222.87,-455.38 157.84,-390.51 132.91,-365.65"/>
<polygon fill="#63b8ff" stroke="#63b8ff" points="251.83,-489.21 261.38,-493.79 256.77,-484.25 251.83,-489.21"/>
</a>
</g>
</g>
<!-- Node5 -->
<g id="Node000005" class="node">
<title>Node5</title>
<g id="a_Node000005"><a xlink:href="../../d3/dd5/main__elph_c_8c.html#a0ddf1224851353fc92bfbff6f499fa97" target="_top" xlink:title="Main program entry point.">
<polygon fill="white" stroke="#666666" points="37,-269.26 0,-269.26 0,-250.01 37,-250.01 37,-269.26"/>
<text xml:space="preserve" text-anchor="middle" x="18.5" y="-255.76" font-family="Helvetica,sans-Serif" font-size="10.00">main</text>
</a>
</g>
</g>
<!-- Node4&#45;&gt;Node5 -->
<g id="edge4_Node000004_Node000005" class="edge">
<title>Node4&#45;&gt;Node5</title>
<g id="a_edge4_Node000004_Node000005"><a xlink:title=" ">
<path fill="none" stroke="#63b8ff" d="M102.18,-337.93C80.97,-317.85 47.12,-285.8 30.06,-269.64"/>
<polygon fill="#63b8ff" stroke="#63b8ff" points="99.64,-340.35 109.31,-344.69 104.45,-335.27 99.64,-340.35"/>
</a>
</g>
</g>
<!-- Node7 -->
<g id="Node000007" class="node">
<title>Node7</title>
<g id="a_Node000007"><a xlink:href="../../db/d44/dyn__long__range_8c.html#a8f542a339e339996795dd2eafe9ac1de" target="_top" xlink:title=" ">
<polygon fill="white" stroke="#666666" points="333.75,-235.26 212.75,-235.26 212.75,-216.01 333.75,-216.01 333.75,-235.26"/>
<text xml:space="preserve" text-anchor="middle" x="273.25" y="-221.76" font-family="Helvetica,sans-Serif" font-size="10.00">add_ph_dyn_long_range</text>
</a>
</g>
</g>
<!-- Node6&#45;&gt;Node7 -->
<g id="edge6_Node000006_Node000007" class="edge">
<title>Node6&#45;&gt;Node7</title>
<g id="a_edge6_Node000006_Node000007"><a xlink:title=" ">
<path fill="none" stroke="#63b8ff" d="M364.07,-221.17C354.03,-221.67 343.78,-222.18 333.98,-222.67"/>
<polygon fill="#63b8ff" stroke="#63b8ff" points="363.97,-224.68 373.79,-220.69 363.63,-217.69 363.97,-224.68"/>
</a>
</g>
</g>
<!-- Node9 -->
<g id="Node000009" class="node">
<title>Node9</title>
<g id="a_Node000009"><a xlink:href="../../db/d44/dyn__long__range_8c.html#a370223ca23cf3f439f2c4efea9e09c04" target="_top" xlink:title=" ">
<polygon fill="white" stroke="#666666" points="325.12,-197.89 221.38,-197.89 221.38,-167.39 325.12,-167.39 325.12,-197.89"/>
<text xml:space="preserve" text-anchor="start" x="229.38" y="-184.39" font-family="Helvetica,sans-Serif" font-size="10.00">compute_dyn_lr_asr</text>
<text xml:space="preserve" text-anchor="middle" x="273.25" y="-173.14" font-family="Helvetica,sans-Serif" font-size="10.00">_correction</text>
</a>
</g>
</g>
<!-- Node6&#45;&gt;Node9 -->
<g id="edge9_Node000006_Node000009" class="edge">
<title>Node6&#45;&gt;Node9</title>
<g id="a_edge9_Node000006_Node000009"><a xlink:title=" ">
<path fill="none" stroke="#63b8ff" d="M364.42,-202.24C351.33,-199.4 337.9,-196.48 325.53,-193.79"/>
<polygon fill="#63b8ff" stroke="#63b8ff" points="363.31,-205.58 373.82,-204.28 364.79,-198.74 363.31,-205.58"/>
</a>
</g>
</g>
<!-- Node8 -->
<g id="Node000008" class="node">
<title>Node8</title>
<g id="a_Node000008"><a xlink:href="../../da/dc2/interpolation__driver_8c.html#aecc42ae41d168b486807b337fcf5b3de" target="_top" xlink:title=" ">
<polygon fill="white" stroke="#666666" points="170.75,-192.26 73,-192.26 73,-173.01 170.75,-173.01 170.75,-192.26"/>
<text xml:space="preserve" text-anchor="middle" x="121.88" y="-178.76" font-family="Helvetica,sans-Serif" font-size="10.00">interpolation_driver</text>
</a>
</g>
</g>
<!-- Node7&#45;&gt;Node8 -->
<g id="edge7_Node000007_Node000008" class="edge">
<title>Node7&#45;&gt;Node8</title>
<g id="a_edge7_Node000007_Node000008"><a xlink:title=" ">
<path fill="none" stroke="#63b8ff" d="M226.44,-212.45C204.39,-206.1 178.38,-198.62 157.94,-192.73"/>
<polygon fill="#63b8ff" stroke="#63b8ff" points="225.2,-215.73 235.77,-215.14 227.13,-209.01 225.2,-215.73"/>
</a>
</g>
</g>
<!-- Node8&#45;&gt;Node5 -->
<g id="edge8_Node000008_Node000005" class="edge">
<title>Node8&#45;&gt;Node5</title>
<g id="a_edge8_Node000008_Node000005"><a xlink:title=" ">
<path fill="none" stroke="#63b8ff" d="M98.53,-199.61C78.39,-214.9 49.45,-236.89 32.76,-249.57"/>
<polygon fill="#63b8ff" stroke="#63b8ff" points="100.57,-202.46 106.42,-193.62 96.34,-196.88 100.57,-202.46"/>
</a>
</g>
</g>
<!-- Node9&#45;&gt;Node8 -->
<g id="edge10_Node000009_Node000008" class="edge">
<title>Node9&#45;&gt;Node8</title>
<g id="a_edge10_Node000009_Node000008"><a xlink:title=" ">
<path fill="none" stroke="#63b8ff" d="M210.02,-182.64C197.02,-182.64 183.51,-182.64 171.11,-182.64"/>
<polygon fill="#63b8ff" stroke="#63b8ff" points="209.75,-186.14 219.75,-182.64 209.75,-179.14 209.75,-186.14"/>
</a>
</g>
</g>
<!-- Node10&#45;&gt;Node8 -->
<g id="edge12_Node000010_Node000008" class="edge">
<title>Node10&#45;&gt;Node8</title>
<g id="a_edge12_Node000010_Node000008"><a xlink:title=" ">
<path fill="none" stroke="#63b8ff" d="M376.41,-160.19C330.1,-154.95 264.03,-150.6 206.75,-158.64 187.7,-161.31 166.91,-167.24 150.79,-172.53"/>
<polygon fill="#63b8ff" stroke="#63b8ff" points="375.9,-163.65 386.24,-161.35 376.72,-156.7 375.9,-163.65"/>
</a>
</g>
</g>
<!-- Node11&#45;&gt;Node12 -->
<g id="edge14_Node000011_Node000012" class="edge">
<title>Node11&#45;&gt;Node12</title>
<g id="a_edge14_Node000011_Node000012"><a xlink:title=" ">
<path fill="none" stroke="#63b8ff" d="M375.47,-411.38C363.74,-411.53 351.39,-411.68 339.5,-411.83"/>
<polygon fill="#63b8ff" stroke="#63b8ff" points="375.48,-414.88 385.43,-411.26 375.39,-407.88 375.48,-414.88"/>
</a>
</g>
</g>
<!-- Node12&#45;&gt;Node4 -->
<g id="edge15_Node000012_Node000004" class="edge">
<title>Node12&#45;&gt;Node4</title>
<g id="a_edge15_Node000012_Node000004"><a xlink:title=" ">
<path fill="none" stroke="#63b8ff" d="M233.92,-398.77C224.99,-395.48 215.52,-391.97 206.75,-388.64 187,-381.14 164.76,-372.37 148.14,-365.76"/>
<polygon fill="#63b8ff" stroke="#63b8ff" points="232.45,-401.96 243.05,-402.1 234.86,-395.38 232.45,-401.96"/>
</a>
</g>
</g>
<!-- Node13&#45;&gt;Node8 -->
<g id="edge17_Node000013_Node000008" class="edge">
<title>Node13&#45;&gt;Node8</title>
<g id="a_edge17_Node000013_Node000008"><a xlink:title=" ">
<path fill="none" stroke="#63b8ff" d="M214.4,-78.35C211.75,-79.65 209.18,-81.08 206.75,-82.64 169.37,-106.62 140.06,-152.5 128.38,-172.69"/>
<polygon fill="#63b8ff" stroke="#63b8ff" points="215.71,-81.59 223.56,-74.49 212.99,-75.14 215.71,-81.59"/>
</a>
</g>
</g>
<!-- Node14&#45;&gt;Node4 -->
<g id="edge19_Node000014_Node000004" class="edge">
<title>Node14&#45;&gt;Node4</title>
<g id="a_edge19_Node000014_Node000004"><a xlink:title=" ">
<path fill="none" stroke="#63b8ff" d="M401.5,-371.69C340.44,-368.17 212.5,-360.8 153.67,-357.41"/>
<polygon fill="#63b8ff" stroke="#63b8ff" points="401.09,-375.18 411.27,-372.26 401.49,-368.19 401.09,-375.18"/>
</a>
</g>
</g>
<!-- Node16 -->
<g id="Node000016" class="node">
<title>Node16</title>
<g id="a_Node000016"><a xlink:href="../../d5/d9f/compute__dmats_8c.html#aceeb11551c1d6413e6d4b5cae9704493" target="_top" xlink:title=" ">
<polygon fill="white" stroke="#666666" points="339.75,-346.26 206.75,-346.26 206.75,-327.01 339.75,-327.01 339.75,-346.26"/>
<text xml:space="preserve" text-anchor="middle" x="273.25" y="-332.76" font-family="Helvetica,sans-Serif" font-size="10.00">compute_and_write_dmats</text>
</a>
</g>
</g>
<!-- Node15&#45;&gt;Node16 -->
<g id="edge21_Node000015_Node000016" class="edge">
<title>Node15&#45;&gt;Node16</title>
<g id="a_edge21_Node000015_Node000016"><a xlink:title=" ">
<path fill="none" stroke="#63b8ff" d="M383.76,-336.64C369.91,-336.64 354.74,-336.64 340.23,-336.64"/>
<polygon fill="#63b8ff" stroke="#63b8ff" points="383.52,-340.14 393.52,-336.64 383.52,-333.14 383.52,-340.14"/>
</a>
</g>
</g>
<!-- Node16&#45;&gt;Node4 -->
<g id="edge22_Node000016_Node000004" class="edge">
<title>Node16&#45;&gt;Node4</title>
<g id="a_edge22_Node000016_Node000004"><a xlink:title=" ">
<path fill="none" stroke="#63b8ff" d="M195.1,-346.45C180.45,-348.32 165.92,-350.16 153.77,-351.71"/>
<polygon fill="#63b8ff" stroke="#63b8ff" points="195.32,-349.95 204.8,-345.22 194.43,-343.01 195.32,-349.95"/>
</a>
</g>
</g>
<!-- Node17&#45;&gt;Node3 -->
<g id="edge24_Node000017_Node000003" class="edge">
<title>Node17&#45;&gt;Node3</title>
<g id="a_edge24_Node000017_Node000003"><a xlink:title=" ">
<path fill="none" stroke="#63b8ff" d="M387.33,-517.98C371.9,-516.16 354.54,-514.11 338.14,-512.18"/>
<polygon fill="#63b8ff" stroke="#63b8ff" points="386.87,-521.45 397.21,-519.15 387.69,-514.5 386.87,-521.45"/>
</a>
</g>
</g>
<!-- Node18&#45;&gt;Node3 -->
<g id="edge26_Node000018_Node000003" class="edge">
<title>Node18&#45;&gt;Node3</title>
<g id="a_edge26_Node000018_Node000003"><a xlink:title=" ">
<path fill="none" stroke="#63b8ff" d="M395.84,-491.04C378.55,-492.98 357.79,-495.3 338.37,-497.47"/>
<polygon fill="#63b8ff" stroke="#63b8ff" points="396.15,-494.53 405.7,-489.94 395.37,-487.57 396.15,-494.53"/>
</a>
</g>
</g>
<!-- Node19&#45;&gt;Node8 -->
<g id="edge28_Node000019_Node000008" class="edge">
<title>Node19&#45;&gt;Node8</title>
<g id="a_edge28_Node000019_Node000008"><a xlink:title=" ">
<path fill="none" stroke="#63b8ff" d="M238.18,-112.33C227.86,-116.04 216.64,-120.56 206.75,-125.64 179.81,-139.46 151.21,-160.44 135.34,-172.72"/>
<polygon fill="#63b8ff" stroke="#63b8ff" points="239.18,-115.69 247.5,-109.12 236.9,-109.07 239.18,-115.69"/>
</a>
</g>
</g>
<!-- Node20&#45;&gt;Node8 -->
<g id="edge30_Node000020_Node000008" class="edge">
<title>Node20&#45;&gt;Node8</title>
<g id="a_edge30_Node000020_Node000008"><a xlink:title=" ">
<path fill="none" stroke="#63b8ff" d="M224.75,-34.19C218.31,-37.35 212.09,-41.14 206.75,-45.64 163.01,-82.45 135.54,-148.16 126.33,-172.88"/>
<polygon fill="#63b8ff" stroke="#63b8ff" points="225.82,-37.54 233.56,-30.32 223,-31.13 225.82,-37.54"/>
</a>
</g>
</g>
<!-- Node21&#45;&gt;Node8 -->
<g id="edge32_Node000021_Node000008" class="edge">
<title>Node21&#45;&gt;Node8</title>
<g id="a_edge32_Node000021_Node000008"><a xlink:title=" ">
<path fill="none" stroke="#63b8ff" d="M227.41,-252.69C220.33,-250.45 213.22,-247.78 206.75,-244.64 177.92,-230.63 148.86,-206.35 133.67,-192.7"/>
<polygon fill="#63b8ff" stroke="#63b8ff" points="226.37,-256.04 236.95,-255.45 228.31,-249.31 226.37,-256.04"/>
</a>
</g>
</g>
<!-- Node23&#45;&gt;Node4 -->
<g id="edge36_Node000023_Node000004" class="edge">
<title>Node23&#45;&gt;Node4</title>
<g id="a_edge36_Node000023_Node000004"><a xlink:title=" ">
<path fill="none" stroke="#63b8ff" d="M221.09,-312.86C216.21,-314.37 211.37,-315.97 206.75,-317.64 184.35,-325.73 159.61,-337.28 142.84,-345.51"/>
<polygon fill="#63b8ff" stroke="#63b8ff" points="221.71,-316.32 230.3,-310.12 219.72,-309.61 221.71,-316.32"/>
</a>
</g>
</g>
<!-- Node23&#45;&gt;Node8 -->
<g id="edge37_Node000023_Node000008" class="edge">
<title>Node23&#45;&gt;Node8</title>
<g id="a_edge37_Node000023_Node000008"><a xlink:title=" ">
<path fill="none" stroke="#63b8ff" d="M219.71,-288.31C215.17,-286.41 210.78,-284.21 206.75,-281.64 169.53,-257.88 140.14,-212.47 128.4,-192.49"/>
<polygon fill="#63b8ff" stroke="#63b8ff" points="218.45,-291.58 229.05,-291.68 220.83,-284.99 218.45,-291.58"/>
</a>
</g>
</g>
</g>
</svg>

<g id="navigator" transform="translate(0 0)" fill="#404254">
  <rect fill="#f2f5e9" fill-opacity="0.5" stroke="#606060" stroke-width=".5" x="0" y="0" width="60" height="60"/>
  <use id="zoomplus" xlink:href="#zoomPlus" x="17" y="9" onmousedown="handleZoom(evt,'in')"/>
  <use id="zoomminus" xlink:href="#zoomMin" x="42" y="9" onmousedown="handleZoom(evt,'out')"/>
  <use id="reset" xlink:href="#resetDef" x="30" y="36" onmousedown="handleReset()"/>
   <use id="arrowup" xlink:href="#arrowUp" x="0" y="0" onmousedown="handlePan(0,-1)"/>
  <use id="arrowright" xlink:href="#arrowRight" x="0" y="0" onmousedown="handlePan(1,0)"/>
  <use id="arrowdown" xlink:href="#arrowDown" x="0" y="0" onmousedown="handlePan(0,1)"/>
  <use id="arrowleft" xlink:href="#arrowLeft" x="0" y="0" onmousedown="handlePan(-1,0)"/>
</g>
<svg viewBox="0 0 15 15" width="100%" height="30px" preserveAspectRatio="xMaxYMin meet">
 <g id="arrow_out" transform="scale(0.3 0.3)">
  <a xlink:href="_e_l_p_h__timers_8h_a4846a0dbe6a17751878baf1315af43aa_icgraph_org.svg" target="_base">
   <rect id="button" ry="5" rx="5" y="6" x="6" height="38" width="38"
        fill="#f2f5e9" fill-opacity="0.5" stroke="#606060" stroke-width="1.0"/>
   <path id="arrow"
     d="M 11.500037,31.436501 C 11.940474,20.09759 22.043105,11.32322 32.158766,21.979434 L 37.068811,17.246167 C 37.068811,17.246167 37.088388,32 37.088388,32 L 22.160133,31.978069 C 22.160133,31.978069 26.997745,27.140456 26.997745,27.140456 C 18.528582,18.264221 13.291696,25.230495 11.500037,31.436501 z"
     style="fill:#404040;"/>
  </a>
 </g>
</svg>

<style type='text/css'>
<![CDATA[
[data-mouse-over-selected='false'] { opacity: 0.7; }
[data-mouse-over-selected='true']  { opacity: 1.0; }
]]>
</style>
<script type="application/ecmascript"><![CDATA[
document.addEventListener('DOMContentLoaded', (event) => {
  highlightEdges();
  highlightAdjacentNodes();
});
]]></script>
</svg>
