<?xml version="1.0" encoding="UTF-8" standalone="no"?>
<!DOCTYPE svg PUBLIC "-//W3C//DTD SVG 1.1//EN"
 "http://www.w3.org/Graphics/SVG/1.1/DTD/svg11.dtd">
<!-- Generated by graphviz version 14.0.0 (20250921.2048)
 -->
<!-- Title: src/nonloc/fcoeff.c Pages: 1 -->
<svg width="458pt" height="193pt"
 viewBox="0.00 0.00 458.00 193.00" xmlns="http://www.w3.org/2000/svg" xmlns:xlink="http://www.w3.org/1999/xlink">

<svg id="main" version="1.1" xmlns="http://www.w3.org/2000/svg" xmlns:xlink="http://www.w3.org/1999/xlink" xml:space="preserve">

<style type="text/css"><![CDATA[
.node, .edge {opacity: 0.7;}
.node.selected, .edge.selected {opacity: 1;}
.edge:hover path { stroke: red; }
.edge:hover polygon { stroke: red; fill: red; }
]]></style>
<script type="application/ecmascript" xlink:href="../../svg.min.js"/>
<svg id="graph" class="graph">
<g id="graph0" class="graph" transform="scale(1 1) rotate(0) translate(4 189)">
<title>src/nonloc/fcoeff.c</title>
<!-- Node1 -->
<g id="Node000001" class="node">
<title>Node1</title>
<g id="a_Node000001"><a xlink:title=" ">
<polygon fill="#999999" stroke="#666666" points="259.38,-185 162.38,-185 162.38,-165.75 259.38,-165.75 259.38,-185"/>
<text xml:space="preserve" text-anchor="middle" x="210.88" y="-171.5" font-family="Helvetica,sans-Serif" font-size="10.00">src/nonloc/fcoeff.c</text>
</a>
</g>
</g>
<!-- Node2 -->
<g id="Node000002" class="node">
<title>Node2</title>
<g id="a_Node000002"><a xlink:href="../../da/d90/fcoeff_8h.html" target="_top" xlink:title=" ">
<polygon fill="white" stroke="#666666" points="144.38,-129.75 95.38,-129.75 95.38,-110.5 144.38,-110.5 144.38,-129.75"/>
<text xml:space="preserve" text-anchor="middle" x="119.88" y="-116.25" font-family="Helvetica,sans-Serif" font-size="10.00">fcoeff.h</text>
</a>
</g>
</g>
<!-- Node1&#45;&gt;Node2 -->
<g id="edge1_Node000001_Node000002" class="edge">
<title>Node1&#45;&gt;Node2</title>
<g id="a_edge1_Node000001_Node000002"><a xlink:title=" ">
<path fill="none" stroke="#63b8ff" d="M195.44,-165.34C181.71,-157.31 161.38,-145.41 145.26,-135.98"/>
<polygon fill="#63b8ff" stroke="#63b8ff" points="147.09,-133 136.69,-130.97 143.56,-139.04 147.09,-133"/>
</a>
</g>
</g>
<!-- Node3 -->
<g id="Node000003" class="node">
<title>Node3</title>
<g id="a_Node000003"><a xlink:href="../../d2/d02/dtypes_8h.html" target="_top" xlink:title=" ">
<polygon fill="white" stroke="#666666" points="144.88,-74.5 50.87,-74.5 50.87,-55.25 144.88,-55.25 144.88,-74.5"/>
<text xml:space="preserve" text-anchor="middle" x="97.88" y="-61" font-family="Helvetica,sans-Serif" font-size="10.00">common/dtypes.h</text>
</a>
</g>
</g>
<!-- Node1&#45;&gt;Node3 -->
<g id="edge13_Node000001_Node000003" class="edge">
<title>Node1&#45;&gt;Node3</title>
<g id="a_edge13_Node000001_Node000003"><a xlink:title=" ">
<path fill="none" stroke="#63b8ff" d="M162.13,-170.15C135.2,-165.04 103.85,-153.9 86.88,-129.75 77.67,-116.66 82.09,-98.41 87.83,-84.76"/>
<polygon fill="#63b8ff" stroke="#63b8ff" points="90.88,-86.5 92.04,-75.97 84.57,-83.47 90.88,-86.5"/>
</a>
</g>
</g>
<!-- Node5 -->
<g id="Node000005" class="node">
<title>Node5</title>
<g id="a_Node000005"><a xlink:title=" ">
<polygon fill="#e0e0e0" stroke="#999999" points="55.75,-19.25 0,-19.25 0,0 55.75,0 55.75,-19.25"/>
<text xml:space="preserve" text-anchor="middle" x="27.88" y="-5.75" font-family="Helvetica,sans-Serif" font-size="10.00">stdbool.h</text>
</a>
</g>
</g>
<!-- Node1&#45;&gt;Node5 -->
<g id="edge9_Node000001_Node000005" class="edge">
<title>Node1&#45;&gt;Node5</title>
<g id="a_edge9_Node000001_Node000005"><a xlink:title=" ">
<path fill="none" stroke="#63b8ff" d="M161.91,-166.14C135,-159.72 102.24,-148.6 77.88,-129.75 46.48,-105.46 34.6,-57.82 30.25,-30.73"/>
<polygon fill="#63b8ff" stroke="#63b8ff" points="33.75,-30.5 28.92,-21.07 26.82,-31.46 33.75,-30.5"/>
</a>
</g>
</g>
<!-- Node6 -->
<g id="Node000006" class="node">
<title>Node6</title>
<g id="a_Node000006"><a xlink:href="../../d4/d0a/elph_c_8h.html" target="_top" xlink:title="Core type definitions and configuration for LetzElPhC.">
<polygon fill="white" stroke="#666666" points="279.75,-19.25 230,-19.25 230,0 279.75,0 279.75,-19.25"/>
<text xml:space="preserve" text-anchor="middle" x="254.88" y="-5.75" font-family="Helvetica,sans-Serif" font-size="10.00">elphC.h</text>
</a>
</g>
</g>
<!-- Node1&#45;&gt;Node6 -->
<g id="edge15_Node000001_Node000006" class="edge">
<title>Node1&#45;&gt;Node6</title>
<g id="a_edge15_Node000001_Node000006"><a xlink:title=" ">
<path fill="none" stroke="#63b8ff" d="M259.67,-171.93C320.01,-167.76 417.5,-156.91 439.88,-129.75 486.85,-72.73 357.28,-33.88 291.09,-18.29"/>
<polygon fill="#63b8ff" stroke="#63b8ff" points="291.91,-14.88 281.38,-16.07 290.35,-21.71 291.91,-14.88"/>
</a>
</g>
</g>
<!-- Node7 -->
<g id="Node000007" class="node">
<title>Node7</title>
<g id="a_Node000007"><a xlink:href="../../da/d41/error_8h.html" target="_top" xlink:title=" ">
<polygon fill="white" stroke="#666666" points="187.38,-19.25 144.38,-19.25 144.38,0 187.38,0 187.38,-19.25"/>
<text xml:space="preserve" text-anchor="middle" x="165.88" y="-5.75" font-family="Helvetica,sans-Serif" font-size="10.00">error.h</text>
</a>
</g>
</g>
<!-- Node1&#45;&gt;Node7 -->
<g id="edge14_Node000001_Node000007" class="edge">
<title>Node1&#45;&gt;Node7</title>
<g id="a_edge14_Node000001_Node000007"><a xlink:title=" ">
<path fill="none" stroke="#63b8ff" d="M208.46,-165.57C201.47,-140.14 181.12,-66.1 171.3,-30.37"/>
<polygon fill="#63b8ff" stroke="#63b8ff" points="174.73,-29.65 168.71,-20.93 167.98,-31.5 174.73,-29.65"/>
</a>
</g>
</g>
<!-- Node8 -->
<g id="Node000008" class="node">
<title>Node8</title>
<g id="a_Node000008"><a xlink:title=" ">
<polygon fill="#e0e0e0" stroke="#999999" points="300.38,-129.75 239.38,-129.75 239.38,-110.5 300.38,-110.5 300.38,-129.75"/>
<text xml:space="preserve" text-anchor="middle" x="269.88" y="-116.25" font-family="Helvetica,sans-Serif" font-size="10.00">complex.h</text>
</a>
</g>
</g>
<!-- Node1&#45;&gt;Node8 -->
<g id="edge7_Node000001_Node000008" class="edge">
<title>Node1&#45;&gt;Node8</title>
<g id="a_edge7_Node000001_Node000008"><a xlink:title=" ">
<path fill="none" stroke="#63b8ff" d="M220.88,-165.34C229.24,-157.8 241.37,-146.85 251.48,-137.73"/>
<polygon fill="#63b8ff" stroke="#63b8ff" points="253.81,-140.34 258.89,-131.04 249.12,-135.14 253.81,-140.34"/>
</a>
</g>
</g>
<!-- Node9 -->
<g id="Node000009" class="node">
<title>Node9</title>
<g id="a_Node000009"><a xlink:title=" ">
<polygon fill="#e0e0e0" stroke="#999999" points="364.88,-129.75 318.88,-129.75 318.88,-110.5 364.88,-110.5 364.88,-129.75"/>
<text xml:space="preserve" text-anchor="middle" x="341.88" y="-116.25" font-family="Helvetica,sans-Serif" font-size="10.00">math.h</text>
</a>
</g>
</g>
<!-- Node1&#45;&gt;Node9 -->
<g id="edge8_Node000001_Node000009" class="edge">
<title>Node1&#45;&gt;Node9</title>
<g id="a_edge8_Node000001_Node000009"><a xlink:title=" ">
<path fill="none" stroke="#63b8ff" d="M233.1,-165.34C253.89,-156.89 285.22,-144.15 308.93,-134.52"/>
<polygon fill="#63b8ff" stroke="#63b8ff" points="310.2,-137.78 318.14,-130.77 307.56,-131.3 310.2,-137.78"/>
</a>
</g>
</g>
<!-- Node10 -->
<g id="Node000010" class="node">
<title>Node10</title>
<g id="a_Node000010"><a xlink:title=" ">
<polygon fill="#e0e0e0" stroke="#999999" points="430.62,-129.75 383.12,-129.75 383.12,-110.5 430.62,-110.5 430.62,-129.75"/>
<text xml:space="preserve" text-anchor="middle" x="406.88" y="-116.25" font-family="Helvetica,sans-Serif" font-size="10.00">stdlib.h</text>
</a>
</g>
</g>
<!-- Node1&#45;&gt;Node10 -->
<g id="edge10_Node000001_Node000010" class="edge">
<title>Node1&#45;&gt;Node10</title>
<g id="a_edge10_Node000001_Node000010"><a xlink:title=" ">
<path fill="none" stroke="#63b8ff" d="M244.12,-165.34C279.6,-155.7 335.58,-140.5 371.76,-130.67"/>
<polygon fill="#63b8ff" stroke="#63b8ff" points="372.56,-134.07 381.3,-128.07 370.73,-127.32 372.56,-134.07"/>
</a>
</g>
</g>
<!-- Node11 -->
<g id="Node000011" class="node">
<title>Node11</title>
<g id="a_Node000011"><a xlink:href="../../d2/d6f/constants_8h.html" target="_top" xlink:title=" ">
<polygon fill="white" stroke="#666666" points="308.62,-74.5 201.12,-74.5 201.12,-55.25 308.62,-55.25 308.62,-74.5"/>
<text xml:space="preserve" text-anchor="middle" x="254.88" y="-61" font-family="Helvetica,sans-Serif" font-size="10.00">common/constants.h</text>
</a>
</g>
</g>
<!-- Node1&#45;&gt;Node11 -->
<g id="edge11_Node000001_Node000011" class="edge">
<title>Node1&#45;&gt;Node11</title>
<g id="a_edge11_Node000001_Node000011"><a xlink:title=" ">
<path fill="none" stroke="#63b8ff" d="M213.08,-165.51C216.32,-153 222.85,-129.56 230.88,-110.5 234.54,-101.79 239.35,-92.54 243.71,-84.73"/>
<polygon fill="#63b8ff" stroke="#63b8ff" points="246.68,-86.58 248.63,-76.17 240.61,-83.09 246.68,-86.58"/>
</a>
</g>
</g>
<!-- Node2&#45;&gt;Node3 -->
<g id="edge2_Node000002_Node000003" class="edge">
<title>Node2&#45;&gt;Node3</title>
<g id="a_edge2_Node000002_Node000003"><a xlink:title=" ">
<path fill="none" stroke="#63b8ff" d="M116.24,-110.33C113.46,-103.59 109.5,-94.02 105.98,-85.49"/>
<polygon fill="#63b8ff" stroke="#63b8ff" points="109.22,-84.16 102.16,-76.26 102.75,-86.84 109.22,-84.16"/>
</a>
</g>
</g>
<!-- Node4 -->
<g id="Node000004" class="node">
<title>Node4</title>
<g id="a_Node000004"><a xlink:title=" ">
<polygon fill="#e0e0e0" stroke="#999999" points="117.88,-19.25 77.88,-19.25 77.88,0 117.88,0 117.88,-19.25"/>
<text xml:space="preserve" text-anchor="middle" x="97.88" y="-5.75" font-family="Helvetica,sans-Serif" font-size="10.00">mpi.h</text>
</a>
</g>
</g>
<!-- Node3&#45;&gt;Node4 -->
<g id="edge3_Node000003_Node000004" class="edge">
<title>Node3&#45;&gt;Node4</title>
<g id="a_edge3_Node000003_Node000004"><a xlink:title=" ">
<path fill="none" stroke="#63b8ff" d="M97.88,-55.08C97.88,-48.57 97.88,-39.42 97.88,-31.12"/>
<polygon fill="#63b8ff" stroke="#63b8ff" points="101.38,-31.12 97.88,-21.12 94.38,-31.12 101.38,-31.12"/>
</a>
</g>
</g>
<!-- Node3&#45;&gt;Node5 -->
<g id="edge4_Node000003_Node000005" class="edge">
<title>Node3&#45;&gt;Node5</title>
<g id="a_edge4_Node000003_Node000005"><a xlink:title=" ">
<path fill="none" stroke="#63b8ff" d="M86,-54.84C75.78,-47.07 60.8,-35.67 48.61,-26.4"/>
<polygon fill="#63b8ff" stroke="#63b8ff" points="50.86,-23.71 40.78,-20.44 46.62,-29.28 50.86,-23.71"/>
</a>
</g>
</g>
<!-- Node3&#45;&gt;Node6 -->
<g id="edge5_Node000003_Node000006" class="edge">
<title>Node3&#45;&gt;Node6</title>
<g id="a_edge5_Node000003_Node000006"><a xlink:title=" ">
<path fill="none" stroke="#63b8ff" d="M124.51,-54.84C150.46,-46.04 190.1,-32.6 218.85,-22.84"/>
<polygon fill="#63b8ff" stroke="#63b8ff" points="219.89,-26.19 228.24,-19.66 217.64,-19.56 219.89,-26.19"/>
</a>
</g>
</g>
<!-- Node3&#45;&gt;Node7 -->
<g id="edge6_Node000003_Node000007" class="edge">
<title>Node3&#45;&gt;Node7</title>
<g id="a_edge6_Node000003_Node000007"><a xlink:title=" ">
<path fill="none" stroke="#63b8ff" d="M109.41,-54.84C119.34,-47.07 133.89,-35.67 145.73,-26.4"/>
<polygon fill="#63b8ff" stroke="#63b8ff" points="147.6,-29.38 153.32,-20.46 143.29,-23.87 147.6,-29.38"/>
</a>
</g>
</g>
<!-- Node11&#45;&gt;Node6 -->
<g id="edge12_Node000011_Node000006" class="edge">
<title>Node11&#45;&gt;Node6</title>
<g id="a_edge12_Node000011_Node000006"><a xlink:title=" ">
<path fill="none" stroke="#63b8ff" d="M254.88,-55.08C254.88,-48.57 254.88,-39.42 254.88,-31.12"/>
<polygon fill="#63b8ff" stroke="#63b8ff" points="258.38,-31.12 254.88,-21.12 251.38,-31.12 258.38,-31.12"/>
</a>
</g>
</g>
</g>
</svg>
</svg>

<style type='text/css'>
<![CDATA[
[data-mouse-over-selected='false'] { opacity: 0.7; }
[data-mouse-over-selected='true']  { opacity: 1.0; }
]]>
</style>
<script type="application/ecmascript"><![CDATA[
document.addEventListener('DOMContentLoaded', (event) => {
  highlightEdges();
  highlightAdjacentNodes();
});
]]></script>
</svg>
