<?xml version="1.0" encoding="UTF-8" standalone="no"?>
<!DOCTYPE svg PUBLIC "-//W3C//DTD SVG 1.1//EN"
 "http://www.w3.org/Graphics/SVG/1.1/DTD/svg11.dtd">
<!-- Generated by graphviz version 14.0.0 (20250921.2048)
 -->
<!-- Title: build_wigner_seitz_vectors Pages: 1 -->
<svg width="346pt" height="212pt"
 viewBox="0.00 0.00 346.00 212.00" xmlns="http://www.w3.org/2000/svg" xmlns:xlink="http://www.w3.org/1999/xlink">
<g id="graph0" class="graph" transform="scale(1 1) rotate(0) translate(4 208.25)">
<title>build_wigner_seitz_vectors</title>
<!-- Node1 -->
<g id="Node000001" class="node">
<title>Node1</title>
<g id="a_Node000001"><a xlink:title=" ">
<polygon fill="#999999" stroke="#666666" points="96.25,-116.88 0,-116.88 0,-86.38 96.25,-86.38 96.25,-116.88"/>
<text xml:space="preserve" text-anchor="start" x="8" y="-103.38" font-family="Helvetica,sans-Serif" font-size="10.00">build_wigner_seitz</text>
<text xml:space="preserve" text-anchor="middle" x="48.12" y="-92.12" font-family="Helvetica,sans-Serif" font-size="10.00">_vectors</text>
</a>
</g>
</g>
<!-- Node2 -->
<g id="Node000002" class="node">
<title>Node2</title>
<g id="a_Node000002"><a xlink:href="../../da/d97/_e_l_p_h__timers_8c.html#a4846a0dbe6a17751878baf1315af43aa" target="_top" xlink:title=" ">
<polygon fill="white" stroke="#666666" points="242.38,-204.25 146.88,-204.25 146.88,-185 242.38,-185 242.38,-204.25"/>
<text xml:space="preserve" text-anchor="middle" x="194.62" y="-190.75" font-family="Helvetica,sans-Serif" font-size="10.00">ELPH_start_clock</text>
</a>
</g>
</g>
<!-- Node1&#45;&gt;Node2 -->
<g id="edge1_Node000001_Node000002" class="edge">
<title>Node1&#45;&gt;Node2</title>
<g id="a_edge1_Node000001_Node000002"><a xlink:title=" ">
<path fill="none" stroke="#63b8ff" d="M62.28,-117.08C77.49,-134.02 104.08,-160.88 132.25,-176.62 134.58,-177.93 137.02,-179.14 139.51,-180.28"/>
<polygon fill="#63b8ff" stroke="#63b8ff" points="138.05,-183.46 148.63,-183.94 140.66,-176.97 138.05,-183.46"/>
</a>
</g>
</g>
<!-- Node3 -->
<g id="Node000003" class="node">
<title>Node3</title>
<g id="a_Node000003"><a xlink:href="../../da/d97/_e_l_p_h__timers_8c.html#adcc3002449fe62895b6e89571d00ba48" target="_top" xlink:title=" ">
<polygon fill="white" stroke="#666666" points="242,-167.25 147.25,-167.25 147.25,-148 242,-148 242,-167.25"/>
<text xml:space="preserve" text-anchor="middle" x="194.62" y="-153.75" font-family="Helvetica,sans-Serif" font-size="10.00">ELPH_stop_clock</text>
</a>
</g>
</g>
<!-- Node1&#45;&gt;Node3 -->
<g id="edge2_Node000001_Node000003" class="edge">
<title>Node1&#45;&gt;Node3</title>
<g id="a_edge2_Node000001_Node000003"><a xlink:title=" ">
<path fill="none" stroke="#63b8ff" d="M80.65,-117.33C96,-124.64 114.86,-133.14 132.25,-139.62 136.4,-141.17 140.75,-142.68 145.14,-144.11"/>
<polygon fill="#63b8ff" stroke="#63b8ff" points="143.99,-147.42 154.57,-147.07 146.08,-140.74 143.99,-147.42"/>
</a>
</g>
</g>
<!-- Node4 -->
<g id="Node000004" class="node">
<title>Node4</title>
<g id="a_Node000004"><a xlink:href="../../de/d2d/numerical__func_8c.html#a33dc7889eeb05a7ee40327581d51a3d7" target="_top" xlink:title=" ">
<polygon fill="white" stroke="#666666" points="232.62,-130.25 156.62,-130.25 156.62,-111 232.62,-111 232.62,-130.25"/>
<text xml:space="preserve" text-anchor="middle" x="194.62" y="-116.75" font-family="Helvetica,sans-Serif" font-size="10.00">get_miller_idx</text>
</a>
</g>
</g>
<!-- Node1&#45;&gt;Node4 -->
<g id="edge3_Node000001_Node000004" class="edge">
<title>Node1&#45;&gt;Node4</title>
<g id="a_edge3_Node000001_Node000004"><a xlink:title=" ">
<path fill="none" stroke="#63b8ff" d="M96.44,-107.85C112.07,-109.9 129.48,-112.19 145.19,-114.26"/>
<polygon fill="#63b8ff" stroke="#63b8ff" points="144.41,-117.68 154.78,-115.52 145.32,-110.74 144.41,-117.68"/>
</a>
</g>
</g>
<!-- Node5 -->
<g id="Node000005" class="node">
<title>Node5</title>
<g id="a_Node000005"><a xlink:href="../../d2/d5f/wigner__seitz_8c.html#a99556055f3d4c0ee897298c8d4457082" target="_top" xlink:title=" ">
<polygon fill="white" stroke="#666666" points="257,-93.25 132.25,-93.25 132.25,-74 257,-74 257,-93.25"/>
<text xml:space="preserve" text-anchor="middle" x="194.62" y="-79.75" font-family="Helvetica,sans-Serif" font-size="10.00">get_ws_nearest_superlat</text>
</a>
</g>
</g>
<!-- Node1&#45;&gt;Node5 -->
<g id="edge4_Node000001_Node000005" class="edge">
<title>Node1&#45;&gt;Node5</title>
<g id="a_edge4_Node000001_Node000005"><a xlink:title=" ">
<path fill="none" stroke="#63b8ff" d="M96.44,-95.73C104.25,-94.76 112.5,-93.73 120.76,-92.7"/>
<polygon fill="#63b8ff" stroke="#63b8ff" points="121,-96.2 130.49,-91.49 120.14,-89.25 121,-96.2"/>
</a>
</g>
</g>
<!-- Node6 -->
<g id="Node000006" class="node">
<title>Node6</title>
<g id="a_Node000006"><a xlink:href="../../de/d2d/numerical__func_8c.html#aae57dcc2036d6002edd49bf275fd11b6" target="_top" xlink:title=" ">
<polygon fill="white" stroke="#666666" points="236.75,-56.25 152.5,-56.25 152.5,-37 236.75,-37 236.75,-56.25"/>
<text xml:space="preserve" text-anchor="middle" x="194.62" y="-42.75" font-family="Helvetica,sans-Serif" font-size="10.00">reciprocal_vecs</text>
</a>
</g>
</g>
<!-- Node1&#45;&gt;Node6 -->
<g id="edge5_Node000001_Node000006" class="edge">
<title>Node1&#45;&gt;Node6</title>
<g id="a_edge5_Node000001_Node000006"><a xlink:title=" ">
<path fill="none" stroke="#63b8ff" d="M81.48,-86.02C96.69,-78.99 115.2,-70.89 132.25,-64.62 136.59,-63.03 141.14,-61.48 145.72,-60"/>
<polygon fill="#63b8ff" stroke="#63b8ff" points="146.41,-63.45 154.92,-57.14 144.33,-56.76 146.41,-63.45"/>
</a>
</g>
</g>
<!-- Node8 -->
<g id="Node000008" class="node">
<title>Node8</title>
<g id="a_Node000008"><a xlink:href="../../d2/d5f/wigner__seitz_8c.html#a632fc223bad2dc3bc634e43e6d7704b0" target="_top" xlink:title=" ">
<polygon fill="white" stroke="#666666" points="234.5,-19.25 154.75,-19.25 154.75,0 234.5,0 234.5,-19.25"/>
<text xml:space="preserve" text-anchor="middle" x="194.62" y="-5.75" font-family="Helvetica,sans-Serif" font-size="10.00">setup_ws_tree</text>
</a>
</g>
</g>
<!-- Node1&#45;&gt;Node8 -->
<g id="edge7_Node000001_Node000008" class="edge">
<title>Node1&#45;&gt;Node8</title>
<g id="a_edge7_Node000001_Node000008"><a xlink:title=" ">
<path fill="none" stroke="#63b8ff" d="M62.6,-86.08C77.9,-69.36 104.37,-43.09 132.25,-27.62 135.86,-25.62 139.72,-23.82 143.67,-22.21"/>
<polygon fill="#63b8ff" stroke="#63b8ff" points="144.65,-25.58 152.85,-18.87 142.26,-19 144.65,-25.58"/>
</a>
</g>
</g>
<!-- Node7 -->
<g id="Node000007" class="node">
<title>Node7</title>
<g id="a_Node000007"><a xlink:href="../../de/d2d/numerical__func_8c.html#af7b464a965e184f893290a977a66c9d1" target="_top" xlink:title=" ">
<polygon fill="white" stroke="#666666" points="338.25,-56.25 293,-56.25 293,-37 338.25,-37 338.25,-56.25"/>
<text xml:space="preserve" text-anchor="middle" x="315.62" y="-42.75" font-family="Helvetica,sans-Serif" font-size="10.00">det3x3</text>
</a>
</g>
</g>
<!-- Node6&#45;&gt;Node7 -->
<g id="edge6_Node000006_Node000007" class="edge">
<title>Node6&#45;&gt;Node7</title>
<g id="a_edge6_Node000006_Node000007"><a xlink:title=" ">
<path fill="none" stroke="#63b8ff" d="M237.25,-46.62C251.66,-46.62 267.61,-46.62 281.27,-46.62"/>
<polygon fill="#63b8ff" stroke="#63b8ff" points="281.07,-50.13 291.07,-46.63 281.07,-43.13 281.07,-50.13"/>
</a>
</g>
</g>
</g>
</svg>
