<?xml version="1.0" encoding="UTF-8" standalone="no"?>
<!DOCTYPE svg PUBLIC "-//W3C//DTD SVG 1.1//EN"
 "http://www.w3.org/Graphics/SVG/1.1/DTD/svg11.dtd">
<!-- Generated by graphviz version 14.0.0 (20250921.2048)
 -->
<!-- Title: ELPH_cli_parser Pages: 1 -->
<svg width="574pt" height="83pt"
 viewBox="0.00 0.00 574.00 83.00" xmlns="http://www.w3.org/2000/svg" xmlns:xlink="http://www.w3.org/1999/xlink">
<g id="graph0" class="graph" transform="scale(1 1) rotate(0) translate(4 79.25)">
<title>ELPH_cli_parser</title>
<!-- Node1 -->
<g id="Node000001" class="node">
<title>Node1</title>
<g id="a_Node000001"><a xlink:title=" ">
<polygon fill="#999999" stroke="#666666" points="89.5,-37.25 0,-37.25 0,-18 89.5,-18 89.5,-37.25"/>
<text xml:space="preserve" text-anchor="middle" x="44.75" y="-23.75" font-family="Helvetica,sans-Serif" font-size="10.00">ELPH_cli_parser</text>
</a>
</g>
</g>
<!-- Node2 -->
<g id="Node000002" class="node">
<title>Node2</title>
<g id="a_Node000002"><a xlink:href="../../d3/d2f/_e_l_p_h__getopt__long_8c.html#af760468b9c9ebf1314e9194e26ddd97a" target="_top" xlink:title=" ">
<polygon fill="white" stroke="#666666" points="246.5,-56.25 125.5,-56.25 125.5,-37 246.5,-37 246.5,-56.25"/>
<text xml:space="preserve" text-anchor="middle" x="186" y="-42.75" font-family="Helvetica,sans-Serif" font-size="10.00">ELPH_getopt_long_only</text>
</a>
</g>
</g>
<!-- Node1&#45;&gt;Node2 -->
<g id="edge1_Node000001_Node000002" class="edge">
<title>Node1&#45;&gt;Node2</title>
<g id="a_edge1_Node000001_Node000002"><a xlink:title=" ">
<path fill="none" stroke="#63b8ff" d="M89.81,-33.64C97.53,-34.69 105.74,-35.81 113.98,-36.93"/>
<polygon fill="#63b8ff" stroke="#63b8ff" points="113.31,-40.38 123.69,-38.26 114.25,-33.44 113.31,-40.38"/>
</a>
</g>
</g>
<!-- Node7 -->
<g id="Node000007" class="node">
<title>Node7</title>
<g id="a_Node000007"><a xlink:href="../../d5/d6c/string__func_8c.html#a1a4a6a5319e24099e821a93f83aa124e" target="_top" xlink:title=" ">
<polygon fill="white" stroke="#666666" points="228.88,-19.25 143.12,-19.25 143.12,0 228.88,0 228.88,-19.25"/>
<text xml:space="preserve" text-anchor="middle" x="186" y="-5.75" font-family="Helvetica,sans-Serif" font-size="10.00">strncpy_custom</text>
</a>
</g>
</g>
<!-- Node1&#45;&gt;Node7 -->
<g id="edge6_Node000001_Node000007" class="edge">
<title>Node1&#45;&gt;Node7</title>
<g id="a_edge6_Node000001_Node000007"><a xlink:title=" ">
<path fill="none" stroke="#63b8ff" d="M89.81,-21.93C103.01,-20.22 117.63,-18.33 131.37,-16.56"/>
<polygon fill="#63b8ff" stroke="#63b8ff" points="131.68,-20.05 141.15,-15.29 130.79,-13.1 131.68,-20.05"/>
</a>
</g>
</g>
<!-- Node3 -->
<g id="Node000003" class="node">
<title>Node3</title>
<g id="a_Node000003"><a xlink:href="../../d3/d2f/_e_l_p_h__getopt__long_8c.html#a8bcfc41ffd83b00297822b5644eb895d" target="_top" xlink:title=" ">
<polygon fill="white" stroke="#666666" points="362.25,-56.25 282.5,-56.25 282.5,-37 362.25,-37 362.25,-56.25"/>
<text xml:space="preserve" text-anchor="middle" x="322.38" y="-42.75" font-family="Helvetica,sans-Serif" font-size="10.00">getopt_internal</text>
</a>
</g>
</g>
<!-- Node2&#45;&gt;Node3 -->
<g id="edge2_Node000002_Node000003" class="edge">
<title>Node2&#45;&gt;Node3</title>
<g id="a_edge2_Node000002_Node000003"><a xlink:title=" ">
<path fill="none" stroke="#63b8ff" d="M246.72,-46.62C254.82,-46.62 263.07,-46.62 270.98,-46.62"/>
<polygon fill="#63b8ff" stroke="#63b8ff" points="270.77,-50.13 280.77,-46.63 270.77,-43.13 270.77,-50.13"/>
</a>
</g>
</g>
<!-- Node4 -->
<g id="Node000004" class="node">
<title>Node4</title>
<g id="a_Node000004"><a xlink:href="../../d3/d2f/_e_l_p_h__getopt__long_8c.html#a14371aa40dd013216c8d50e3d90ba5f1" target="_top" xlink:title=" ">
<polygon fill="white" stroke="#666666" points="498.25,-75.25 398.25,-75.25 398.25,-56 498.25,-56 498.25,-75.25"/>
<text xml:space="preserve" text-anchor="middle" x="448.25" y="-61.75" font-family="Helvetica,sans-Serif" font-size="10.00">parse_long_options</text>
</a>
</g>
</g>
<!-- Node3&#45;&gt;Node4 -->
<g id="edge3_Node000003_Node000004" class="edge">
<title>Node3&#45;&gt;Node4</title>
<g id="a_edge3_Node000003_Node000004"><a xlink:title=" ">
<path fill="none" stroke="#63b8ff" d="M362.57,-52.64C370.27,-53.82 378.51,-55.08 386.72,-56.34"/>
<polygon fill="#63b8ff" stroke="#63b8ff" points="385.94,-59.76 396.35,-57.82 387,-52.84 385.94,-59.76"/>
</a>
</g>
</g>
<!-- Node5 -->
<g id="Node000005" class="node">
<title>Node5</title>
<g id="a_Node000005"><a xlink:href="../../d3/d2f/_e_l_p_h__getopt__long_8c.html#a9c22539bcd7939ce1f988d443187bd38" target="_top" xlink:title=" ">
<polygon fill="white" stroke="#666666" points="485.88,-38.25 410.62,-38.25 410.62,-19 485.88,-19 485.88,-38.25"/>
<text xml:space="preserve" text-anchor="middle" x="448.25" y="-24.75" font-family="Helvetica,sans-Serif" font-size="10.00">permute_args</text>
</a>
</g>
</g>
<!-- Node3&#45;&gt;Node5 -->
<g id="edge4_Node000003_Node000005" class="edge">
<title>Node3&#45;&gt;Node5</title>
<g id="a_edge4_Node000003_Node000005"><a xlink:title=" ">
<path fill="none" stroke="#63b8ff" d="M362.57,-40.93C374.17,-39.24 387.01,-37.38 399.11,-35.62"/>
<polygon fill="#63b8ff" stroke="#63b8ff" points="399.53,-39.1 408.92,-34.19 398.52,-32.17 399.53,-39.1"/>
</a>
</g>
</g>
<!-- Node6 -->
<g id="Node000006" class="node">
<title>Node6</title>
<g id="a_Node000006"><a xlink:href="../../d3/d2f/_e_l_p_h__getopt__long_8c.html#ade4a5e5ef73343f680d9c75ddc6c5d24" target="_top" xlink:title=" ">
<polygon fill="white" stroke="#666666" points="566,-38.25 534.25,-38.25 534.25,-19 566,-19 566,-38.25"/>
<text xml:space="preserve" text-anchor="middle" x="550.12" y="-24.75" font-family="Helvetica,sans-Serif" font-size="10.00">gcd</text>
</a>
</g>
</g>
<!-- Node5&#45;&gt;Node6 -->
<g id="edge5_Node000005_Node000006" class="edge">
<title>Node5&#45;&gt;Node6</title>
<g id="a_edge5_Node000005_Node000006"><a xlink:title=" ">
<path fill="none" stroke="#63b8ff" d="M486.16,-28.62C498.32,-28.62 511.59,-28.62 522.79,-28.62"/>
<polygon fill="#63b8ff" stroke="#63b8ff" points="522.48,-32.13 532.48,-28.63 522.48,-25.13 522.48,-32.13"/>
</a>
</g>
</g>
</g>
</svg>
