<?xml version="1.0" encoding="UTF-8" standalone="no"?>
<!DOCTYPE svg PUBLIC "-//W3C//DTD SVG 1.1//EN"
 "http://www.w3.org/Graphics/SVG/1.1/DTD/svg11.dtd">
<!-- Generated by graphviz version 14.0.0 (20250921.2048)
 -->
<!-- Title: create_ph_save_dir_pp_qe Pages: 1 -->
<svg width="364pt" height="175pt"
 viewBox="0.00 0.00 364.00 175.00" xmlns="http://www.w3.org/2000/svg" xmlns:xlink="http://www.w3.org/1999/xlink">
<g id="graph0" class="graph" transform="scale(1 1) rotate(0) translate(4 171.25)">
<title>create_ph_save_dir_pp_qe</title>
<!-- Node1 -->
<g id="Node000001" class="node">
<title>Node1</title>
<g id="a_Node000001"><a xlink:title=" ">
<polygon fill="#999999" stroke="#666666" points="100.75,-98.88 0,-98.88 0,-68.38 100.75,-68.38 100.75,-98.88"/>
<text xml:space="preserve" text-anchor="start" x="8" y="-85.38" font-family="Helvetica,sans-Serif" font-size="10.00">create_ph_save_dir</text>
<text xml:space="preserve" text-anchor="middle" x="50.38" y="-74.12" font-family="Helvetica,sans-Serif" font-size="10.00">_pp_qe</text>
</a>
</g>
</g>
<!-- Node2 -->
<g id="Node000002" class="node">
<title>Node2</title>
<g id="a_Node000002"><a xlink:href="../../d6/d28/_e_l_p_h__copy_8c.html#a6d8dfaab1ef5c7cd740406299e6210fc" target="_top" xlink:title=" ">
<polygon fill="white" stroke="#666666" points="213.5,-167.25 153.25,-167.25 153.25,-148 213.5,-148 213.5,-167.25"/>
<text xml:space="preserve" text-anchor="middle" x="183.38" y="-153.75" font-family="Helvetica,sans-Serif" font-size="10.00">copy_files</text>
</a>
</g>
</g>
<!-- Node1&#45;&gt;Node2 -->
<g id="edge1_Node000001_Node000002" class="edge">
<title>Node1&#45;&gt;Node2</title>
<g id="a_edge1_Node000001_Node000002"><a xlink:title=" ">
<path fill="none" stroke="#63b8ff" d="M72.39,-99.16C89.23,-111.18 113.77,-127.72 136.75,-139.62 139.11,-140.85 141.57,-142.04 144.08,-143.19"/>
<polygon fill="#63b8ff" stroke="#63b8ff" points="142.51,-146.33 153.08,-147.07 145.27,-139.9 142.51,-146.33"/>
</a>
</g>
</g>
<!-- Node3 -->
<g id="Node000003" class="node">
<title>Node3</title>
<g id="a_Node000003"><a xlink:href="../../d5/d0a/pp__ph__save_8c.html#a799f5e5b9f53bfec84dc69ffb11dcd83" target="_top" xlink:title=" ">
<polygon fill="white" stroke="#666666" points="218.75,-130.25 148,-130.25 148,-111 218.75,-111 218.75,-130.25"/>
<text xml:space="preserve" text-anchor="middle" x="183.38" y="-116.75" font-family="Helvetica,sans-Serif" font-size="10.00">find_nqpools</text>
</a>
</g>
</g>
<!-- Node1&#45;&gt;Node3 -->
<g id="edge2_Node000001_Node000003" class="edge">
<title>Node1&#45;&gt;Node3</title>
<g id="a_edge2_Node000001_Node000003"><a xlink:title=" ">
<path fill="none" stroke="#63b8ff" d="M100.9,-97.61C112.76,-100.96 125.36,-104.52 137.02,-107.82"/>
<polygon fill="#63b8ff" stroke="#63b8ff" points="135.83,-111.12 146.4,-110.47 137.73,-104.38 135.83,-111.12"/>
</a>
</g>
</g>
<!-- Node5 -->
<g id="Node000005" class="node">
<title>Node5</title>
<g id="a_Node000005"><a xlink:href="../../d5/d6c/string__func_8c.html#afda14833a45e70f3ee1d24d5d59571f5" target="_top" xlink:title=" ">
<polygon fill="white" stroke="#666666" points="221.75,-93.25 145,-93.25 145,-74 221.75,-74 221.75,-93.25"/>
<text xml:space="preserve" text-anchor="middle" x="183.38" y="-79.75" font-family="Helvetica,sans-Serif" font-size="10.00">lowercase_str</text>
</a>
</g>
</g>
<!-- Node1&#45;&gt;Node5 -->
<g id="edge4_Node000001_Node000005" class="edge">
<title>Node1&#45;&gt;Node5</title>
<g id="a_edge4_Node000001_Node000005"><a xlink:title=" ">
<path fill="none" stroke="#63b8ff" d="M100.9,-83.62C111.54,-83.62 122.78,-83.62 133.4,-83.62"/>
<polygon fill="#63b8ff" stroke="#63b8ff" points="133.11,-87.13 143.11,-83.63 133.11,-80.13 133.11,-87.13"/>
</a>
</g>
</g>
<!-- Node6 -->
<g id="Node000006" class="node">
<title>Node6</title>
<g id="a_Node000006"><a xlink:href="../../d5/d6c/string__func_8c.html#afda0edad06b587873b08886ac5e2d887" target="_top" xlink:title=" ">
<polygon fill="white" stroke="#666666" points="230,-56.25 136.75,-56.25 136.75,-37 230,-37 230,-56.25"/>
<text xml:space="preserve" text-anchor="middle" x="183.38" y="-42.75" font-family="Helvetica,sans-Serif" font-size="10.00">str_replace_chars</text>
</a>
</g>
</g>
<!-- Node1&#45;&gt;Node6 -->
<g id="edge5_Node000001_Node000006" class="edge">
<title>Node1&#45;&gt;Node6</title>
<g id="a_edge5_Node000001_Node000006"><a xlink:title=" ">
<path fill="none" stroke="#63b8ff" d="M100.9,-69.64C112.31,-66.41 124.41,-63 135.7,-59.81"/>
<polygon fill="#63b8ff" stroke="#63b8ff" points="136.53,-63.21 145.2,-57.12 134.63,-56.47 136.53,-63.21"/>
</a>
</g>
</g>
<!-- Node7 -->
<g id="Node000007" class="node">
<title>Node7</title>
<g id="a_Node000007"><a xlink:href="../../d5/d6c/string__func_8c.html#a1a4a6a5319e24099e821a93f83aa124e" target="_top" xlink:title=" ">
<polygon fill="white" stroke="#666666" points="226.25,-19.25 140.5,-19.25 140.5,0 226.25,0 226.25,-19.25"/>
<text xml:space="preserve" text-anchor="middle" x="183.38" y="-5.75" font-family="Helvetica,sans-Serif" font-size="10.00">strncpy_custom</text>
</a>
</g>
</g>
<!-- Node1&#45;&gt;Node7 -->
<g id="edge6_Node000001_Node000007" class="edge">
<title>Node1&#45;&gt;Node7</title>
<g id="a_edge6_Node000001_Node000007"><a xlink:title=" ">
<path fill="none" stroke="#63b8ff" d="M72.39,-68.09C89.23,-56.07 113.77,-39.53 136.75,-27.62 139.11,-26.4 141.57,-25.21 144.08,-24.06"/>
<polygon fill="#63b8ff" stroke="#63b8ff" points="145.27,-27.35 153.08,-20.18 142.51,-20.92 145.27,-27.35"/>
</a>
</g>
</g>
<!-- Node4 -->
<g id="Node000004" class="node">
<title>Node4</title>
<g id="a_Node000004"><a xlink:href="../../d6/d28/_e_l_p_h__copy_8c.html#a3d5d07e9ee71623629ca08ba0ed7886f" target="_top" xlink:title=" ">
<polygon fill="white" stroke="#666666" points="355.5,-130.25 266,-130.25 266,-111 355.5,-111 355.5,-130.25"/>
<text xml:space="preserve" text-anchor="middle" x="310.75" y="-116.75" font-family="Helvetica,sans-Serif" font-size="10.00">check_dir_exists</text>
</a>
</g>
</g>
<!-- Node3&#45;&gt;Node4 -->
<g id="edge3_Node000003_Node000004" class="edge">
<title>Node3&#45;&gt;Node4</title>
<g id="a_edge3_Node000003_Node000004"><a xlink:title=" ">
<path fill="none" stroke="#63b8ff" d="M218.97,-120.62C229.95,-120.62 242.39,-120.62 254.45,-120.62"/>
<polygon fill="#63b8ff" stroke="#63b8ff" points="254.34,-124.13 264.34,-120.63 254.34,-117.13 254.34,-124.13"/>
</a>
</g>
</g>
</g>
</svg>
