<?xml version="1.0" encoding="UTF-8" standalone="no"?>
<!DOCTYPE svg PUBLIC "-//W3C//DTD SVG 1.1//EN"
 "http://www.w3.org/Graphics/SVG/1.1/DTD/svg11.dtd">
<!-- Generated by graphviz version 14.0.0 (20250921.2048)
 -->
<!-- Title: src/dvloc/dVpot_add_long_range.c Pages: 1 -->
<svg width="1261pt" height="204pt"
 viewBox="0.00 0.00 1261.00 204.00" xmlns="http://www.w3.org/2000/svg" xmlns:xlink="http://www.w3.org/1999/xlink">
<g id="graph0" class="graph" transform="scale(1 1) rotate(0) translate(4 200.25)">
<title>src/dvloc/dVpot_add_long_range.c</title>
<!-- Node1 -->
<g id="Node000001" class="node">
<title>Node1</title>
<g id="a_Node000001"><a xlink:title=" ">
<polygon fill="#999999" stroke="#666666" points="628.12,-196.25 522.88,-196.25 522.88,-165.75 628.12,-165.75 628.12,-196.25"/>
<text xml:space="preserve" text-anchor="start" x="530.88" y="-182.75" font-family="Helvetica,sans-Serif" font-size="10.00">src/dvloc/dVpot_add</text>
<text xml:space="preserve" text-anchor="middle" x="575.5" y="-171.5" font-family="Helvetica,sans-Serif" font-size="10.00">_long_range.c</text>
</a>
</g>
</g>
<!-- Node2 -->
<g id="Node000002" class="node">
<title>Node2</title>
<g id="a_Node000002"><a xlink:title=" ">
<polygon fill="#e0e0e0" stroke="#999999" points="61,-19.25 0,-19.25 0,0 61,0 61,-19.25"/>
<text xml:space="preserve" text-anchor="middle" x="30.5" y="-5.75" font-family="Helvetica,sans-Serif" font-size="10.00">complex.h</text>
</a>
</g>
</g>
<!-- Node1&#45;&gt;Node2 -->
<g id="edge1_Node000001_Node000002" class="edge">
<title>Node1&#45;&gt;Node2</title>
<g id="a_edge1_Node000001_Node000002"><a xlink:title=" ">
<path fill="none" stroke="#63b8ff" d="M522.58,-178.14C420.07,-173.87 198.44,-161.22 129.5,-129.75 84.99,-109.44 53.75,-57.83 39.39,-29.67"/>
<polygon fill="#63b8ff" stroke="#63b8ff" points="42.62,-28.32 35.09,-20.87 36.33,-31.39 42.62,-28.32"/>
</a>
</g>
</g>
<!-- Node3 -->
<g id="Node000003" class="node">
<title>Node3</title>
<g id="a_Node000003"><a xlink:title=" ">
<polygon fill="#e0e0e0" stroke="#999999" points="1046.5,-129.75 1000.5,-129.75 1000.5,-110.5 1046.5,-110.5 1046.5,-129.75"/>
<text xml:space="preserve" text-anchor="middle" x="1023.5" y="-116.25" font-family="Helvetica,sans-Serif" font-size="10.00">math.h</text>
</a>
</g>
</g>
<!-- Node1&#45;&gt;Node3 -->
<g id="edge2_Node000001_Node000003" class="edge">
<title>Node1&#45;&gt;Node3</title>
<g id="a_edge2_Node000001_Node000003"><a xlink:title=" ">
<path fill="none" stroke="#63b8ff" d="M628.32,-175.37C706.82,-168.08 858.74,-152.38 986.5,-129.75 987.33,-129.6 988.17,-129.45 989.01,-129.29"/>
<polygon fill="#63b8ff" stroke="#63b8ff" points="989.53,-132.76 998.61,-127.29 988.1,-125.9 989.53,-132.76"/>
</a>
</g>
</g>
<!-- Node4 -->
<g id="Node000004" class="node">
<title>Node4</title>
<g id="a_Node000004"><a xlink:title=" ">
<polygon fill="#e0e0e0" stroke="#999999" points="227.38,-19.25 171.62,-19.25 171.62,0 227.38,0 227.38,-19.25"/>
<text xml:space="preserve" text-anchor="middle" x="199.5" y="-5.75" font-family="Helvetica,sans-Serif" font-size="10.00">stdbool.h</text>
</a>
</g>
</g>
<!-- Node1&#45;&gt;Node4 -->
<g id="edge3_Node000001_Node000004" class="edge">
<title>Node1&#45;&gt;Node4</title>
<g id="a_edge3_Node000001_Node000004"><a xlink:title=" ">
<path fill="none" stroke="#63b8ff" d="M522.4,-177.36C405.1,-170.25 130.16,-146.14 78.5,-74.5 54.84,-41.69 116.19,-24.27 159.93,-16.28"/>
<polygon fill="#63b8ff" stroke="#63b8ff" points="160.4,-19.75 169.67,-14.61 159.22,-12.85 160.4,-19.75"/>
</a>
</g>
</g>
<!-- Node5 -->
<g id="Node000005" class="node">
<title>Node5</title>
<g id="a_Node000005"><a xlink:title=" ">
<polygon fill="#e0e0e0" stroke="#999999" points="1112.25,-129.75 1064.75,-129.75 1064.75,-110.5 1112.25,-110.5 1112.25,-129.75"/>
<text xml:space="preserve" text-anchor="middle" x="1088.5" y="-116.25" font-family="Helvetica,sans-Serif" font-size="10.00">stdlib.h</text>
</a>
</g>
</g>
<!-- Node1&#45;&gt;Node5 -->
<g id="edge4_Node000001_Node000005" class="edge">
<title>Node1&#45;&gt;Node5</title>
<g id="a_edge4_Node000001_Node000005"><a xlink:title=" ">
<path fill="none" stroke="#63b8ff" d="M628.43,-177.09C715.27,-171.73 893.52,-158.34 1053.45,-129.85"/>
<polygon fill="#63b8ff" stroke="#63b8ff" points="1053.74,-133.35 1062.95,-128.13 1052.49,-126.47 1053.74,-133.35"/>
</a>
</g>
</g>
<!-- Node6 -->
<g id="Node000006" class="node">
<title>Node6</title>
<g id="a_Node000006"><a xlink:href="../../de/d83/_e_l_p_h__timers_8h.html" target="_top" xlink:title=" ">
<polygon fill="white" stroke="#666666" points="1253.12,-129.75 1129.88,-129.75 1129.88,-110.5 1253.12,-110.5 1253.12,-129.75"/>
<text xml:space="preserve" text-anchor="middle" x="1191.5" y="-116.25" font-family="Helvetica,sans-Serif" font-size="10.00">common/ELPH_timers.h</text>
</a>
</g>
</g>
<!-- Node1&#45;&gt;Node6 -->
<g id="edge5_Node000001_Node000006" class="edge">
<title>Node1&#45;&gt;Node6</title>
<g id="a_edge5_Node000001_Node000006"><a xlink:title=" ">
<path fill="none" stroke="#63b8ff" d="M628.26,-175.69C723.81,-167.76 932.17,-149.93 1118.3,-130.07"/>
<polygon fill="#63b8ff" stroke="#63b8ff" points="1118.6,-133.56 1128.17,-129.01 1117.85,-126.6 1118.6,-133.56"/>
</a>
</g>
</g>
<!-- Node7 -->
<g id="Node000007" class="node">
<title>Node7</title>
<g id="a_Node000007"><a xlink:href="../../d2/d6f/constants_8h.html" target="_top" xlink:title=" ">
<polygon fill="white" stroke="#666666" points="748.25,-74.5 640.75,-74.5 640.75,-55.25 748.25,-55.25 748.25,-74.5"/>
<text xml:space="preserve" text-anchor="middle" x="694.5" y="-61" font-family="Helvetica,sans-Serif" font-size="10.00">common/constants.h</text>
</a>
</g>
</g>
<!-- Node1&#45;&gt;Node7 -->
<g id="edge6_Node000001_Node000007" class="edge">
<title>Node1&#45;&gt;Node7</title>
<g id="a_edge6_Node000001_Node000007"><a xlink:title=" ">
<path fill="none" stroke="#63b8ff" d="M592.77,-165.39C604.24,-155.54 619.51,-142.13 632.5,-129.75 648.68,-114.33 666.37,-95.95 678.69,-82.87"/>
<polygon fill="#63b8ff" stroke="#63b8ff" points="680.97,-85.56 685.25,-75.87 675.86,-80.77 680.97,-85.56"/>
</a>
</g>
</g>
<!-- Node8 -->
<g id="Node000008" class="node">
<title>Node8</title>
<g id="a_Node000008"><a xlink:href="../../d4/d0a/elph_c_8h.html" target="_top" xlink:title="Core type definitions and configuration for LetzElPhC.">
<polygon fill="white" stroke="#666666" points="524.38,-19.25 474.62,-19.25 474.62,0 524.38,0 524.38,-19.25"/>
<text xml:space="preserve" text-anchor="middle" x="499.5" y="-5.75" font-family="Helvetica,sans-Serif" font-size="10.00">elphC.h</text>
</a>
</g>
</g>
<!-- Node1&#45;&gt;Node8 -->
<g id="edge27_Node000001_Node000008" class="edge">
<title>Node1&#45;&gt;Node8</title>
<g id="a_edge27_Node000001_Node000008"><a xlink:title=" ">
<path fill="none" stroke="#63b8ff" d="M628.39,-178.17C743.47,-172.43 999.75,-149.03 915.5,-55.25 890.34,-27.24 633.02,-15.33 536.13,-11.81"/>
<polygon fill="#63b8ff" stroke="#63b8ff" points="536.5,-8.32 526.39,-11.47 536.26,-15.32 536.5,-8.32"/>
</a>
</g>
</g>
<!-- Node9 -->
<g id="Node000009" class="node">
<title>Node9</title>
<g id="a_Node000009"><a xlink:href="../../d2/d02/dtypes_8h.html" target="_top" xlink:title=" ">
<polygon fill="white" stroke="#666666" points="546.5,-74.5 452.5,-74.5 452.5,-55.25 546.5,-55.25 546.5,-74.5"/>
<text xml:space="preserve" text-anchor="middle" x="499.5" y="-61" font-family="Helvetica,sans-Serif" font-size="10.00">common/dtypes.h</text>
</a>
</g>
</g>
<!-- Node1&#45;&gt;Node9 -->
<g id="edge8_Node000001_Node000009" class="edge">
<title>Node1&#45;&gt;Node9</title>
<g id="a_edge8_Node000001_Node000009"><a xlink:title=" ">
<path fill="none" stroke="#63b8ff" d="M553.54,-165.33C541.62,-156.34 527.52,-143.87 518.5,-129.75 510,-116.45 505.16,-99.19 502.5,-85.96"/>
<polygon fill="#63b8ff" stroke="#63b8ff" points="505.98,-85.53 500.82,-76.27 499.08,-86.72 505.98,-85.53"/>
</a>
</g>
</g>
<!-- Node11 -->
<g id="Node000011" class="node">
<title>Node11</title>
<g id="a_Node000011"><a xlink:href="../../da/d41/error_8h.html" target="_top" xlink:title=" ">
<polygon fill="white" stroke="#666666" points="789,-19.25 746,-19.25 746,0 789,0 789,-19.25"/>
<text xml:space="preserve" text-anchor="middle" x="767.5" y="-5.75" font-family="Helvetica,sans-Serif" font-size="10.00">error.h</text>
</a>
</g>
</g>
<!-- Node1&#45;&gt;Node11 -->
<g id="edge13_Node000001_Node000011" class="edge">
<title>Node1&#45;&gt;Node11</title>
<g id="a_edge13_Node000001_Node000011"><a xlink:title=" ">
<path fill="none" stroke="#63b8ff" d="M628.32,-179.9C715.9,-178.55 885.6,-170.58 926.5,-129.75 950.07,-106.22 954.78,-81.66 934.5,-55.25 918.3,-34.16 844.48,-20.88 800.59,-14.71"/>
<polygon fill="#63b8ff" stroke="#63b8ff" points="801.22,-11.26 790.84,-13.39 800.28,-18.2 801.22,-11.26"/>
</a>
</g>
</g>
<!-- Node12 -->
<g id="Node000012" class="node">
<title>Node12</title>
<g id="a_Node000012"><a xlink:href="../../df/def/numerical__func_8h.html" target="_top" xlink:title=" ">
<polygon fill="white" stroke="#666666" points="396.88,-74.5 266.12,-74.5 266.12,-55.25 396.88,-55.25 396.88,-74.5"/>
<text xml:space="preserve" text-anchor="middle" x="331.5" y="-61" font-family="Helvetica,sans-Serif" font-size="10.00">common/numerical_func.h</text>
</a>
</g>
</g>
<!-- Node1&#45;&gt;Node12 -->
<g id="edge14_Node000001_Node000012" class="edge">
<title>Node1&#45;&gt;Node12</title>
<g id="a_edge14_Node000001_Node000012"><a xlink:title=" ">
<path fill="none" stroke="#63b8ff" d="M522.74,-170.89C487.44,-163.31 440.8,-150.37 403.5,-129.75 381.22,-117.43 359.95,-97.15 346.39,-82.75"/>
<polygon fill="#63b8ff" stroke="#63b8ff" points="349.35,-80.8 340.02,-75.78 344.18,-85.52 349.35,-80.8"/>
</a>
</g>
</g>
<!-- Node13 -->
<g id="Node000013" class="node">
<title>Node13</title>
<g id="a_Node000013"><a xlink:href="../../d2/d8d/omp__pragma__def_8h.html" target="_top" xlink:title=" ">
<polygon fill="white" stroke="#666666" points="906.38,-74.5 766.62,-74.5 766.62,-55.25 906.38,-55.25 906.38,-74.5"/>
<text xml:space="preserve" text-anchor="middle" x="836.5" y="-61" font-family="Helvetica,sans-Serif" font-size="10.00">common/omp_pragma_def.h</text>
</a>
</g>
</g>
<!-- Node1&#45;&gt;Node13 -->
<g id="edge17_Node000001_Node000013" class="edge">
<title>Node1&#45;&gt;Node13</title>
<g id="a_edge17_Node000001_Node000013"><a xlink:title=" ">
<path fill="none" stroke="#63b8ff" d="M609.09,-165.31C660.03,-143.04 756.11,-101.02 805.49,-79.44"/>
<polygon fill="#63b8ff" stroke="#63b8ff" points="806.7,-82.73 814.46,-75.51 803.9,-76.31 806.7,-82.73"/>
</a>
</g>
</g>
<!-- Node14 -->
<g id="Node000014" class="node">
<title>Node14</title>
<g id="a_Node000014"><a xlink:href="../../df/d5c/parallel_8h.html" target="_top" xlink:title=" ">
<polygon fill="white" stroke="#666666" points="623.25,-129.75 527.75,-129.75 527.75,-110.5 623.25,-110.5 623.25,-129.75"/>
<text xml:space="preserve" text-anchor="middle" x="575.5" y="-116.25" font-family="Helvetica,sans-Serif" font-size="10.00">common/parallel.h</text>
</a>
</g>
</g>
<!-- Node1&#45;&gt;Node14 -->
<g id="edge19_Node000001_Node000014" class="edge">
<title>Node1&#45;&gt;Node14</title>
<g id="a_edge19_Node000001_Node000014"><a xlink:title=" ">
<path fill="none" stroke="#63b8ff" d="M575.5,-165.45C575.5,-158.21 575.5,-149.34 575.5,-141.44"/>
<polygon fill="#63b8ff" stroke="#63b8ff" points="579,-141.71 575.5,-131.71 572,-141.71 579,-141.71"/>
</a>
</g>
</g>
<!-- Node15 -->
<g id="Node000015" class="node">
<title>Node15</title>
<g id="a_Node000015"><a xlink:href="../../d8/dc9/dvloc_8h.html" target="_top" xlink:title=" ">
<polygon fill="white" stroke="#666666" points="460.25,-129.75 412.75,-129.75 412.75,-110.5 460.25,-110.5 460.25,-129.75"/>
<text xml:space="preserve" text-anchor="middle" x="436.5" y="-116.25" font-family="Helvetica,sans-Serif" font-size="10.00">dvloc.h</text>
</a>
</g>
</g>
<!-- Node1&#45;&gt;Node15 -->
<g id="edge23_Node000001_Node000015" class="edge">
<title>Node1&#45;&gt;Node15</title>
<g id="a_edge23_Node000001_Node000015"><a xlink:title=" ">
<path fill="none" stroke="#63b8ff" d="M540.78,-165.3C518.5,-155.85 489.78,-143.69 468.12,-134.52"/>
<polygon fill="#63b8ff" stroke="#63b8ff" points="469.78,-131.42 459.21,-130.74 467.05,-137.87 469.78,-131.42"/>
</a>
</g>
</g>
<!-- Node16 -->
<g id="Node000016" class="node">
<title>Node16</title>
<g id="a_Node000016"><a xlink:href="../../d7/d76/fft_8h.html" target="_top" xlink:title=" ">
<polygon fill="white" stroke="#666666" points="133.12,-74.5 87.88,-74.5 87.88,-55.25 133.12,-55.25 133.12,-74.5"/>
<text xml:space="preserve" text-anchor="middle" x="110.5" y="-61" font-family="Helvetica,sans-Serif" font-size="10.00">fft/fft.h</text>
</a>
</g>
</g>
<!-- Node1&#45;&gt;Node16 -->
<g id="edge28_Node000001_Node000016" class="edge">
<title>Node1&#45;&gt;Node16</title>
<g id="a_edge28_Node000001_Node000016"><a xlink:title=" ">
<path fill="none" stroke="#63b8ff" d="M522.76,-171.43C470.36,-162.52 387.88,-147.41 317.5,-129.75 255.65,-114.23 184.92,-91.25 144.21,-77.5"/>
<polygon fill="#63b8ff" stroke="#63b8ff" points="145.58,-74.27 134.99,-74.36 143.33,-80.89 145.58,-74.27"/>
</a>
</g>
</g>
<!-- Node18 -->
<g id="Node000018" class="node">
<title>Node18</title>
<g id="a_Node000018"><a xlink:href="../../d1/dea/wfc_8h.html" target="_top" xlink:title=" ">
<polygon fill="white" stroke="#666666" points="247.88,-74.5 189.12,-74.5 189.12,-55.25 247.88,-55.25 247.88,-74.5"/>
<text xml:space="preserve" text-anchor="middle" x="218.5" y="-61" font-family="Helvetica,sans-Serif" font-size="10.00">wfc/wfc.h</text>
</a>
</g>
</g>
<!-- Node1&#45;&gt;Node18 -->
<g id="edge34_Node000001_Node000018" class="edge">
<title>Node1&#45;&gt;Node18</title>
<g id="a_edge34_Node000001_Node000018"><a xlink:title=" ">
<path fill="none" stroke="#63b8ff" d="M522.58,-169.07C481.48,-160.05 423.28,-146.1 373.5,-129.75 328.92,-115.11 279.03,-93.58 248.18,-79.64"/>
<polygon fill="#63b8ff" stroke="#63b8ff" points="249.66,-76.47 239.11,-75.5 246.75,-82.84 249.66,-76.47"/>
</a>
</g>
</g>
<!-- Node7&#45;&gt;Node8 -->
<g id="edge7_Node000007_Node000008" class="edge">
<title>Node7&#45;&gt;Node8</title>
<g id="a_edge7_Node000007_Node000008"><a xlink:title=" ">
<path fill="none" stroke="#63b8ff" d="M661.42,-54.84C626.52,-45.31 571.67,-30.33 535.65,-20.5"/>
<polygon fill="#63b8ff" stroke="#63b8ff" points="536.69,-17.15 526.12,-17.89 534.85,-23.91 536.69,-17.15"/>
</a>
</g>
</g>
<!-- Node9&#45;&gt;Node4 -->
<g id="edge10_Node000009_Node000004" class="edge">
<title>Node9&#45;&gt;Node4</title>
<g id="a_edge10_Node000009_Node000004"><a xlink:title=" ">
<path fill="none" stroke="#63b8ff" d="M452.29,-55.5C393.29,-45.02 293.41,-27.29 238.52,-17.55"/>
<polygon fill="#63b8ff" stroke="#63b8ff" points="239.47,-14.16 229.01,-15.86 238.25,-21.06 239.47,-14.16"/>
</a>
</g>
</g>
<!-- Node9&#45;&gt;Node8 -->
<g id="edge11_Node000009_Node000008" class="edge">
<title>Node9&#45;&gt;Node8</title>
<g id="a_edge11_Node000009_Node000008"><a xlink:title=" ">
<path fill="none" stroke="#63b8ff" d="M499.5,-55.08C499.5,-48.57 499.5,-39.42 499.5,-31.12"/>
<polygon fill="#63b8ff" stroke="#63b8ff" points="503,-31.12 499.5,-21.12 496,-31.12 503,-31.12"/>
</a>
</g>
</g>
<!-- Node10 -->
<g id="Node000010" class="node">
<title>Node10</title>
<g id="a_Node000010"><a xlink:title=" ">
<polygon fill="#e0e0e0" stroke="#999999" points="380.5,-19.25 340.5,-19.25 340.5,0 380.5,0 380.5,-19.25"/>
<text xml:space="preserve" text-anchor="middle" x="360.5" y="-5.75" font-family="Helvetica,sans-Serif" font-size="10.00">mpi.h</text>
</a>
</g>
</g>
<!-- Node9&#45;&gt;Node10 -->
<g id="edge9_Node000009_Node000010" class="edge">
<title>Node9&#45;&gt;Node10</title>
<g id="a_edge9_Node000009_Node000010"><a xlink:title=" ">
<path fill="none" stroke="#63b8ff" d="M475.92,-54.84C452.58,-45.9 416.72,-32.16 391.17,-22.37"/>
<polygon fill="#63b8ff" stroke="#63b8ff" points="392.58,-19.17 381.99,-18.86 390.08,-25.7 392.58,-19.17"/>
</a>
</g>
</g>
<!-- Node9&#45;&gt;Node11 -->
<g id="edge12_Node000009_Node000011" class="edge">
<title>Node9&#45;&gt;Node11</title>
<g id="a_edge12_Node000009_Node000011"><a xlink:title=" ">
<path fill="none" stroke="#63b8ff" d="M545.27,-54.78C599.02,-44.1 686.86,-26.65 734.41,-17.2"/>
<polygon fill="#63b8ff" stroke="#63b8ff" points="734.98,-20.66 744.11,-15.27 733.62,-13.79 734.98,-20.66"/>
</a>
</g>
</g>
<!-- Node12&#45;&gt;Node4 -->
<g id="edge15_Node000012_Node000004" class="edge">
<title>Node12&#45;&gt;Node4</title>
<g id="a_edge15_Node000012_Node000004"><a xlink:title=" ">
<path fill="none" stroke="#63b8ff" d="M309.11,-54.84C288.06,-46.35 256.3,-33.54 232.38,-23.89"/>
<polygon fill="#63b8ff" stroke="#63b8ff" points="233.99,-20.76 223.41,-20.27 231.37,-27.26 233.99,-20.76"/>
</a>
</g>
</g>
<!-- Node12&#45;&gt;Node8 -->
<g id="edge16_Node000012_Node000008" class="edge">
<title>Node12&#45;&gt;Node8</title>
<g id="a_edge16_Node000012_Node000008"><a xlink:title=" ">
<path fill="none" stroke="#63b8ff" d="M360,-54.84C388.51,-45.8 432.47,-31.87 463.41,-22.06"/>
<polygon fill="#63b8ff" stroke="#63b8ff" points="464.25,-25.47 472.72,-19.11 462.13,-18.8 464.25,-25.47"/>
</a>
</g>
</g>
<!-- Node13&#45;&gt;Node8 -->
<g id="edge18_Node000013_Node000008" class="edge">
<title>Node13&#45;&gt;Node8</title>
<g id="a_edge18_Node000013_Node000008"><a xlink:title=" ">
<path fill="none" stroke="#63b8ff" d="M778.95,-54.78C709.3,-43.78 594.13,-25.58 535.79,-16.36"/>
<polygon fill="#63b8ff" stroke="#63b8ff" points="536.49,-12.93 526.06,-14.82 535.4,-19.84 536.49,-12.93"/>
</a>
</g>
</g>
<!-- Node14&#45;&gt;Node8 -->
<g id="edge22_Node000014_Node000008" class="edge">
<title>Node14&#45;&gt;Node8</title>
<g id="a_edge22_Node000014_Node000008"><a xlink:title=" ">
<path fill="none" stroke="#63b8ff" d="M581.09,-110.16C588.43,-97.12 599.2,-72.58 588.5,-55.25 576.96,-36.56 554.95,-25.43 535.71,-18.96"/>
<polygon fill="#63b8ff" stroke="#63b8ff" points="536.83,-15.64 526.25,-16.1 534.81,-22.34 536.83,-15.64"/>
</a>
</g>
</g>
<!-- Node14&#45;&gt;Node9 -->
<g id="edge21_Node000014_Node000009" class="edge">
<title>Node14&#45;&gt;Node9</title>
<g id="a_edge21_Node000014_Node000009"><a xlink:title=" ">
<path fill="none" stroke="#63b8ff" d="M562.61,-110.09C551.47,-102.29 535.13,-90.84 521.86,-81.54"/>
<polygon fill="#63b8ff" stroke="#63b8ff" points="523.89,-78.69 513.7,-75.82 519.88,-84.43 523.89,-78.69"/>
</a>
</g>
</g>
<!-- Node14&#45;&gt;Node10 -->
<g id="edge20_Node000014_Node000010" class="edge">
<title>Node14&#45;&gt;Node10</title>
<g id="a_edge20_Node000014_Node000010"><a xlink:title=" ">
<path fill="none" stroke="#63b8ff" d="M575.37,-110.25C574.66,-96.41 571.2,-69.76 555.5,-55.25 531.94,-33.47 440.81,-19.88 391.92,-14.01"/>
<polygon fill="#63b8ff" stroke="#63b8ff" points="392.59,-10.56 382.25,-12.89 391.78,-17.52 392.59,-10.56"/>
</a>
</g>
</g>
<!-- Node15&#45;&gt;Node4 -->
<g id="edge24_Node000015_Node000004" class="edge">
<title>Node15&#45;&gt;Node4</title>
<g id="a_edge24_Node000015_Node000004"><a xlink:title=" ">
<path fill="none" stroke="#63b8ff" d="M412.34,-118.7C354.38,-117.11 210.04,-109.64 180.5,-74.5 169.7,-61.66 177.24,-42.86 185.8,-28.99"/>
<polygon fill="#63b8ff" stroke="#63b8ff" points="188.66,-31 191.41,-20.76 182.88,-27.05 188.66,-31"/>
</a>
</g>
</g>
<!-- Node15&#45;&gt;Node8 -->
<g id="edge26_Node000015_Node000008" class="edge">
<title>Node15&#45;&gt;Node8</title>
<g id="a_edge26_Node000015_Node000008"><a xlink:title=" ">
<path fill="none" stroke="#63b8ff" d="M435.42,-110.23C434.29,-97.27 433.81,-72.84 443.5,-55.25 450.16,-43.16 461.57,-33.17 472.37,-25.72"/>
<polygon fill="#63b8ff" stroke="#63b8ff" points="474.12,-28.75 480.67,-20.43 470.36,-22.85 474.12,-28.75"/>
</a>
</g>
</g>
<!-- Node15&#45;&gt;Node9 -->
<g id="edge25_Node000015_Node000009" class="edge">
<title>Node15&#45;&gt;Node9</title>
<g id="a_edge25_Node000015_Node000009"><a xlink:title=" ">
<path fill="none" stroke="#63b8ff" d="M447.19,-110.09C456.2,-102.47 469.33,-91.37 480.18,-82.2"/>
<polygon fill="#63b8ff" stroke="#63b8ff" points="482.44,-84.88 487.81,-75.75 477.92,-79.53 482.44,-84.88"/>
</a>
</g>
</g>
<!-- Node16&#45;&gt;Node2 -->
<g id="edge30_Node000016_Node000002" class="edge">
<title>Node16&#45;&gt;Node2</title>
<g id="a_edge30_Node000016_Node000002"><a xlink:title=" ">
<path fill="none" stroke="#63b8ff" d="M96.93,-54.84C85.09,-46.96 67.66,-35.36 53.63,-26.02"/>
<polygon fill="#63b8ff" stroke="#63b8ff" points="55.66,-23.17 45.4,-20.54 51.78,-29 55.66,-23.17"/>
</a>
</g>
</g>
<!-- Node16&#45;&gt;Node4 -->
<g id="edge33_Node000016_Node000004" class="edge">
<title>Node16&#45;&gt;Node4</title>
<g id="a_edge33_Node000016_Node000004"><a xlink:title=" ">
<path fill="none" stroke="#63b8ff" d="M125.6,-54.84C139.02,-46.81 158.91,-34.91 174.67,-25.48"/>
<polygon fill="#63b8ff" stroke="#63b8ff" points="176.25,-28.62 183.03,-20.48 172.65,-22.61 176.25,-28.62"/>
</a>
</g>
</g>
<!-- Node16&#45;&gt;Node8 -->
<g id="edge29_Node000016_Node000008" class="edge">
<title>Node16&#45;&gt;Node8</title>
<g id="a_edge29_Node000016_Node000008"><a xlink:title=" ">
<path fill="none" stroke="#63b8ff" d="M133.38,-60.74C198.21,-51.87 383.54,-26.5 462.81,-15.65"/>
<polygon fill="#63b8ff" stroke="#63b8ff" points="463.22,-19.12 472.65,-14.3 462.27,-12.19 463.22,-19.12"/>
</a>
</g>
</g>
<!-- Node16&#45;&gt;Node10 -->
<g id="edge32_Node000016_Node000010" class="edge">
<title>Node16&#45;&gt;Node10</title>
<g id="a_edge32_Node000016_Node000010"><a xlink:title=" ">
<path fill="none" stroke="#63b8ff" d="M133.57,-58.96C178.65,-49.36 278.46,-28.1 329.35,-17.26"/>
<polygon fill="#63b8ff" stroke="#63b8ff" points="329.77,-20.75 338.83,-15.24 328.32,-13.9 329.77,-20.75"/>
</a>
</g>
</g>
<!-- Node17 -->
<g id="Node000017" class="node">
<title>Node17</title>
<g id="a_Node000017"><a xlink:title=" ">
<polygon fill="#e0e0e0" stroke="#999999" points="133.5,-19.25 87.5,-19.25 87.5,0 133.5,0 133.5,-19.25"/>
<text xml:space="preserve" text-anchor="middle" x="110.5" y="-5.75" font-family="Helvetica,sans-Serif" font-size="10.00">fftw3.h</text>
</a>
</g>
</g>
<!-- Node16&#45;&gt;Node17 -->
<g id="edge31_Node000016_Node000017" class="edge">
<title>Node16&#45;&gt;Node17</title>
<g id="a_edge31_Node000016_Node000017"><a xlink:title=" ">
<path fill="none" stroke="#63b8ff" d="M110.5,-55.08C110.5,-48.57 110.5,-39.42 110.5,-31.12"/>
<polygon fill="#63b8ff" stroke="#63b8ff" points="114,-31.12 110.5,-21.12 107,-31.12 114,-31.12"/>
</a>
</g>
</g>
<!-- Node18&#45;&gt;Node4 -->
<g id="edge36_Node000018_Node000004" class="edge">
<title>Node18&#45;&gt;Node4</title>
<g id="a_edge36_Node000018_Node000004"><a xlink:title=" ">
<path fill="none" stroke="#63b8ff" d="M215.36,-55.08C212.96,-48.34 209.54,-38.77 206.5,-30.24"/>
<polygon fill="#63b8ff" stroke="#63b8ff" points="209.87,-29.28 203.21,-21.03 203.28,-31.63 209.87,-29.28"/>
</a>
</g>
</g>
<!-- Node18&#45;&gt;Node8 -->
<g id="edge37_Node000018_Node000008" class="edge">
<title>Node18&#45;&gt;Node8</title>
<g id="a_edge37_Node000018_Node000008"><a xlink:title=" ">
<path fill="none" stroke="#63b8ff" d="M248.29,-57.17C251.4,-56.51 254.51,-55.86 257.5,-55.25 330.26,-40.5 415.75,-25.21 463.16,-16.91"/>
<polygon fill="#63b8ff" stroke="#63b8ff" points="463.62,-20.39 472.87,-15.22 462.42,-13.49 463.62,-20.39"/>
</a>
</g>
</g>
<!-- Node18&#45;&gt;Node10 -->
<g id="edge35_Node000018_Node000010" class="edge">
<title>Node18&#45;&gt;Node10</title>
<g id="a_edge35_Node000018_Node000010"><a xlink:title=" ">
<path fill="none" stroke="#63b8ff" d="M242.59,-54.84C266.68,-45.81 303.82,-31.88 329.97,-22.07"/>
<polygon fill="#63b8ff" stroke="#63b8ff" points="330.88,-25.47 339.02,-18.68 328.42,-18.92 330.88,-25.47"/>
</a>
</g>
</g>
</g>
</svg>
