<?xml version="1.0" encoding="UTF-8" standalone="no"?>
<!DOCTYPE svg PUBLIC "-//W3C//DTD SVG 1.1//EN"
 "http://www.w3.org/Graphics/SVG/1.1/DTD/svg11.dtd">
<!-- Generated by graphviz version 14.0.0 (20250921.2048)
 -->
<!-- Title: lowercase_str Pages: 1 -->
<svg width="477pt" height="76pt"
 viewBox="0.00 0.00 477.00 76.00" xmlns="http://www.w3.org/2000/svg" xmlns:xlink="http://www.w3.org/1999/xlink">
<g id="graph0" class="graph" transform="scale(1 1) rotate(0) translate(4 71.88)">
<title>lowercase_str</title>
<!-- Node1 -->
<g id="Node000001" class="node">
<title>Node1</title>
<g id="a_Node000001"><a xlink:title=" ">
<polygon fill="#999999" stroke="#666666" points="469.25,-40.25 392.5,-40.25 392.5,-21 469.25,-21 469.25,-40.25"/>
<text xml:space="preserve" text-anchor="middle" x="430.88" y="-26.75" font-family="Helvetica,sans-Serif" font-size="10.00">lowercase_str</text>
</a>
</g>
</g>
<!-- Node2 -->
<g id="Node000002" class="node">
<title>Node2</title>
<g id="a_Node000002"><a xlink:href="../../d5/d0a/pp__ph__save_8c.html#ae34b6c1d13daf4f125bf37b51efdc457" target="_top" xlink:title=" ">
<polygon fill="white" stroke="#666666" points="273,-67.88 172.25,-67.88 172.25,-37.38 273,-37.38 273,-67.88"/>
<text xml:space="preserve" text-anchor="start" x="180.25" y="-54.38" font-family="Helvetica,sans-Serif" font-size="10.00">create_ph_save_dir</text>
<text xml:space="preserve" text-anchor="middle" x="222.62" y="-43.12" font-family="Helvetica,sans-Serif" font-size="10.00">_pp_qe</text>
</a>
</g>
</g>
<!-- Node1&#45;&gt;Node2 -->
<g id="edge1_Node000001_Node000002" class="edge">
<title>Node1&#45;&gt;Node2</title>
<g id="a_edge1_Node000001_Node000002"><a xlink:title=" ">
<path fill="none" stroke="#63b8ff" d="M381,-35.84C348.5,-39.31 305.94,-43.84 273.28,-47.33"/>
<polygon fill="#63b8ff" stroke="#63b8ff" points="380.97,-39.36 390.54,-34.82 380.23,-32.4 380.97,-39.36"/>
</a>
</g>
</g>
<!-- Node4 -->
<g id="Node000004" class="node">
<title>Node4</title>
<g id="a_Node000004"><a xlink:href="../../dc/de1/input__parser_8c.html#ad86bf596ba7520fd95858eb079a4ca10" target="_top" xlink:title=" ">
<polygon fill="white" stroke="#666666" points="356.5,-21.25 309,-21.25 309,-2 356.5,-2 356.5,-21.25"/>
<text xml:space="preserve" text-anchor="middle" x="332.75" y="-7.75" font-family="Helvetica,sans-Serif" font-size="10.00">handler</text>
</a>
</g>
</g>
<!-- Node1&#45;&gt;Node4 -->
<g id="edge3_Node000001_Node000004" class="edge">
<title>Node1&#45;&gt;Node4</title>
<g id="a_edge3_Node000001_Node000004"><a xlink:title=" ">
<path fill="none" stroke="#63b8ff" d="M381.13,-20.99C372.69,-19.32 364.28,-17.66 356.94,-16.21"/>
<polygon fill="#63b8ff" stroke="#63b8ff" points="380.19,-24.37 390.67,-22.88 381.54,-17.5 380.19,-24.37"/>
</a>
</g>
</g>
<!-- Node3 -->
<g id="Node000003" class="node">
<title>Node3</title>
<g id="a_Node000003"><a xlink:href="../../d3/dd5/main__elph_c_8c.html#a0ddf1224851353fc92bfbff6f499fa97" target="_top" xlink:title="Main program entry point.">
<polygon fill="white" stroke="#666666" points="37,-40.25 0,-40.25 0,-21 37,-21 37,-40.25"/>
<text xml:space="preserve" text-anchor="middle" x="18.5" y="-26.75" font-family="Helvetica,sans-Serif" font-size="10.00">main</text>
</a>
</g>
</g>
<!-- Node2&#45;&gt;Node3 -->
<g id="edge2_Node000002_Node000003" class="edge">
<title>Node2&#45;&gt;Node3</title>
<g id="a_edge2_Node000002_Node000003"><a xlink:title=" ">
<path fill="none" stroke="#63b8ff" d="M160.57,-45.98C118.15,-41.36 64.52,-35.53 37.22,-32.55"/>
<polygon fill="#63b8ff" stroke="#63b8ff" points="160.1,-49.45 170.42,-47.05 160.85,-42.49 160.1,-49.45"/>
</a>
</g>
</g>
<!-- Node5 -->
<g id="Node000005" class="node">
<title>Node5</title>
<g id="a_Node000005"><a xlink:href="../../dc/de1/input__parser_8c.html#ac345bd71762ae94c84a5cafd0249c329" target="_top" xlink:title=" ">
<polygon fill="white" stroke="#666666" points="262.12,-19.25 183.12,-19.25 183.12,0 262.12,0 262.12,-19.25"/>
<text xml:space="preserve" text-anchor="middle" x="222.62" y="-5.75" font-family="Helvetica,sans-Serif" font-size="10.00">read_input_file</text>
</a>
</g>
</g>
<!-- Node4&#45;&gt;Node5 -->
<g id="edge4_Node000004_Node000005" class="edge">
<title>Node4&#45;&gt;Node5</title>
<g id="a_edge4_Node000004_Node000005"><a xlink:title=" ">
<path fill="none" stroke="#63b8ff" d="M297.17,-10.99C286.13,-10.78 273.85,-10.55 262.52,-10.34"/>
<polygon fill="#63b8ff" stroke="#63b8ff" points="296.98,-14.48 307.04,-11.17 297.11,-7.48 296.98,-14.48"/>
</a>
</g>
</g>
<!-- Node6 -->
<g id="Node000006" class="node">
<title>Node6</title>
<g id="a_Node000006"><a xlink:href="../../da/d2e/elph__driver_8c.html#ad9f405d41cf090d652dbe1307700665f" target="_top" xlink:title=" ">
<polygon fill="white" stroke="#666666" points="136.25,-21.25 73,-21.25 73,-2 136.25,-2 136.25,-21.25"/>
<text xml:space="preserve" text-anchor="middle" x="104.62" y="-7.75" font-family="Helvetica,sans-Serif" font-size="10.00">elph_driver</text>
</a>
</g>
</g>
<!-- Node5&#45;&gt;Node6 -->
<g id="edge5_Node000005_Node000006" class="edge">
<title>Node5&#45;&gt;Node6</title>
<g id="a_edge5_Node000005_Node000006"><a xlink:title=" ">
<path fill="none" stroke="#63b8ff" d="M171.5,-10.49C159.64,-10.69 147.32,-10.91 136.59,-11.09"/>
<polygon fill="#63b8ff" stroke="#63b8ff" points="171.22,-13.99 181.16,-10.32 171.1,-7 171.22,-13.99"/>
</a>
</g>
</g>
<!-- Node6&#45;&gt;Node3 -->
<g id="edge6_Node000006_Node000003" class="edge">
<title>Node6&#45;&gt;Node3</title>
<g id="a_edge6_Node000006_Node000003"><a xlink:title=" ">
<path fill="none" stroke="#63b8ff" d="M61.56,-21.13C52.94,-23.07 44.31,-25.02 37.14,-26.64"/>
<polygon fill="#63b8ff" stroke="#63b8ff" points="62.32,-24.54 71.3,-18.93 60.78,-17.71 62.32,-24.54"/>
</a>
</g>
</g>
</g>
</svg>
