<?xml version="1.0" encoding="UTF-8" standalone="no"?>
<!DOCTYPE svg PUBLIC "-//W3C//DTD SVG 1.1//EN"
 "http://www.w3.org/Graphics/SVG/1.1/DTD/svg11.dtd">
<!-- Generated by graphviz version 14.0.0 (20250921.2048)
 -->
<!-- Title: src/wfc/su2rotate.c Pages: 1 -->
<svg width="318pt" height="138pt"
 viewBox="0.00 0.00 318.00 138.00" xmlns="http://www.w3.org/2000/svg" xmlns:xlink="http://www.w3.org/1999/xlink">
<g id="graph0" class="graph" transform="scale(1 1) rotate(0) translate(4 133.75)">
<title>src/wfc/su2rotate.c</title>
<!-- Node1 -->
<g id="Node000001" class="node">
<title>Node1</title>
<g id="a_Node000001"><a xlink:title=" ">
<polygon fill="#999999" stroke="#666666" points="217.88,-129.75 117.88,-129.75 117.88,-110.5 217.88,-110.5 217.88,-129.75"/>
<text xml:space="preserve" text-anchor="middle" x="167.88" y="-116.25" font-family="Helvetica,sans-Serif" font-size="10.00">src/wfc/su2rotate.c</text>
</a>
</g>
</g>
<!-- Node2 -->
<g id="Node000002" class="node">
<title>Node2</title>
<g id="a_Node000002"><a xlink:href="../../d2/d8d/omp__pragma__def_8h.html" target="_top" xlink:title=" ">
<polygon fill="white" stroke="#666666" points="139.75,-74.5 0,-74.5 0,-55.25 139.75,-55.25 139.75,-74.5"/>
<text xml:space="preserve" text-anchor="middle" x="69.88" y="-61" font-family="Helvetica,sans-Serif" font-size="10.00">common/omp_pragma_def.h</text>
</a>
</g>
</g>
<!-- Node1&#45;&gt;Node2 -->
<g id="edge1_Node000001_Node000002" class="edge">
<title>Node1&#45;&gt;Node2</title>
<g id="a_edge1_Node000001_Node000002"><a xlink:title=" ">
<path fill="none" stroke="#63b8ff" d="M151.25,-110.09C136.19,-101.91 113.73,-89.71 96.22,-80.19"/>
<polygon fill="#63b8ff" stroke="#63b8ff" points="98.37,-77.37 87.91,-75.68 95.03,-83.52 98.37,-77.37"/>
</a>
</g>
</g>
<!-- Node3 -->
<g id="Node000003" class="node">
<title>Node3</title>
<g id="a_Node000003"><a xlink:href="../../d4/d0a/elph_c_8h.html" target="_top" xlink:title="Core type definitions and configuration for LetzElPhC.">
<polygon fill="white" stroke="#666666" points="177.75,-19.25 128,-19.25 128,0 177.75,0 177.75,-19.25"/>
<text xml:space="preserve" text-anchor="middle" x="152.88" y="-5.75" font-family="Helvetica,sans-Serif" font-size="10.00">elphC.h</text>
</a>
</g>
</g>
<!-- Node1&#45;&gt;Node3 -->
<g id="edge3_Node000001_Node000003" class="edge">
<title>Node1&#45;&gt;Node3</title>
<g id="a_edge3_Node000001_Node000003"><a xlink:title=" ">
<path fill="none" stroke="#63b8ff" d="M166.65,-110.25C164.26,-93 158.95,-54.58 155.67,-30.81"/>
<polygon fill="#63b8ff" stroke="#63b8ff" points="159.16,-30.55 154.33,-21.13 152.23,-31.51 159.16,-30.55"/>
</a>
</g>
</g>
<!-- Node4 -->
<g id="Node000004" class="node">
<title>Node4</title>
<g id="a_Node000004"><a xlink:href="../../d1/dea/wfc_8h.html" target="_top" xlink:title=" ">
<polygon fill="white" stroke="#666666" points="235.88,-74.5 195.88,-74.5 195.88,-55.25 235.88,-55.25 235.88,-74.5"/>
<text xml:space="preserve" text-anchor="middle" x="215.88" y="-61" font-family="Helvetica,sans-Serif" font-size="10.00">wfc.h</text>
</a>
</g>
</g>
<!-- Node1&#45;&gt;Node4 -->
<g id="edge4_Node000001_Node000004" class="edge">
<title>Node1&#45;&gt;Node4</title>
<g id="a_edge4_Node000001_Node000004"><a xlink:title=" ">
<path fill="none" stroke="#63b8ff" d="M175.8,-110.33C182.43,-102.98 192.09,-92.26 200.26,-83.19"/>
<polygon fill="#63b8ff" stroke="#63b8ff" points="202.67,-85.75 206.76,-75.98 197.47,-81.07 202.67,-85.75"/>
</a>
</g>
</g>
<!-- Node2&#45;&gt;Node3 -->
<g id="edge2_Node000002_Node000003" class="edge">
<title>Node2&#45;&gt;Node3</title>
<g id="a_edge2_Node000002_Node000003"><a xlink:title=" ">
<path fill="none" stroke="#63b8ff" d="M83.95,-54.84C96.36,-46.89 114.67,-35.14 129.3,-25.75"/>
<polygon fill="#63b8ff" stroke="#63b8ff" points="130.93,-28.87 137.45,-20.52 127.15,-22.97 130.93,-28.87"/>
</a>
</g>
</g>
<!-- Node4&#45;&gt;Node3 -->
<g id="edge7_Node000004_Node000003" class="edge">
<title>Node4&#45;&gt;Node3</title>
<g id="a_edge7_Node000004_Node000003"><a xlink:title=" ">
<path fill="none" stroke="#63b8ff" d="M205.19,-54.84C196.17,-47.22 183.04,-36.12 172.19,-26.95"/>
<polygon fill="#63b8ff" stroke="#63b8ff" points="174.46,-24.28 164.56,-20.5 169.94,-29.63 174.46,-24.28"/>
</a>
</g>
</g>
<!-- Node5 -->
<g id="Node000005" class="node">
<title>Node5</title>
<g id="a_Node000005"><a xlink:title=" ">
<polygon fill="#e0e0e0" stroke="#999999" points="235.88,-19.25 195.88,-19.25 195.88,0 235.88,0 235.88,-19.25"/>
<text xml:space="preserve" text-anchor="middle" x="215.88" y="-5.75" font-family="Helvetica,sans-Serif" font-size="10.00">mpi.h</text>
</a>
</g>
</g>
<!-- Node4&#45;&gt;Node5 -->
<g id="edge5_Node000004_Node000005" class="edge">
<title>Node4&#45;&gt;Node5</title>
<g id="a_edge5_Node000004_Node000005"><a xlink:title=" ">
<path fill="none" stroke="#63b8ff" d="M215.88,-55.08C215.88,-48.57 215.88,-39.42 215.88,-31.12"/>
<polygon fill="#63b8ff" stroke="#63b8ff" points="219.38,-31.12 215.88,-21.12 212.38,-31.12 219.38,-31.12"/>
</a>
</g>
</g>
<!-- Node6 -->
<g id="Node000006" class="node">
<title>Node6</title>
<g id="a_Node000006"><a xlink:title=" ">
<polygon fill="#e0e0e0" stroke="#999999" points="309.75,-19.25 254,-19.25 254,0 309.75,0 309.75,-19.25"/>
<text xml:space="preserve" text-anchor="middle" x="281.88" y="-5.75" font-family="Helvetica,sans-Serif" font-size="10.00">stdbool.h</text>
</a>
</g>
</g>
<!-- Node4&#45;&gt;Node6 -->
<g id="edge6_Node000004_Node000006" class="edge">
<title>Node4&#45;&gt;Node6</title>
<g id="a_edge6_Node000004_Node000006"><a xlink:title=" ">
<path fill="none" stroke="#63b8ff" d="M227.07,-54.84C236.61,-47.15 250.55,-35.9 261.98,-26.68"/>
<polygon fill="#63b8ff" stroke="#63b8ff" points="264.08,-29.48 269.67,-20.48 259.69,-24.03 264.08,-29.48"/>
</a>
</g>
</g>
</g>
</svg>
