<?xml version="1.0" encoding="UTF-8" standalone="no"?>
<!DOCTYPE svg PUBLIC "-//W3C//DTD SVG 1.1//EN"
 "http://www.w3.org/Graphics/SVG/1.1/DTD/svg11.dtd">
<!-- Generated by graphviz version 14.0.0 (20250921.2048)
 -->
<!-- Title: src/interpolation/wigner_seitz.c Pages: 1 -->
<svg width="978pt" height="149pt"
 viewBox="0.00 0.00 978.00 149.00" xmlns="http://www.w3.org/2000/svg" xmlns:xlink="http://www.w3.org/1999/xlink">
<g id="graph0" class="graph" transform="scale(1 1) rotate(0) translate(4 145)">
<title>src/interpolation/wigner_seitz.c</title>
<!-- Node1 -->
<g id="Node000001" class="node">
<title>Node1</title>
<g id="a_Node000001"><a xlink:title=" ">
<polygon fill="#999999" stroke="#666666" points="398.75,-141 282.25,-141 282.25,-110.5 398.75,-110.5 398.75,-141"/>
<text xml:space="preserve" text-anchor="start" x="290.25" y="-127.5" font-family="Helvetica,sans-Serif" font-size="10.00">src/interpolation/wigner</text>
<text xml:space="preserve" text-anchor="middle" x="340.5" y="-116.25" font-family="Helvetica,sans-Serif" font-size="10.00">_seitz.c</text>
</a>
</g>
</g>
<!-- Node2 -->
<g id="Node000002" class="node">
<title>Node2</title>
<g id="a_Node000002"><a xlink:href="../../db/d1f/wigner__seitz_8h.html" target="_top" xlink:title=" ">
<polygon fill="white" stroke="#666666" points="79,-74.5 0,-74.5 0,-55.25 79,-55.25 79,-74.5"/>
<text xml:space="preserve" text-anchor="middle" x="39.5" y="-61" font-family="Helvetica,sans-Serif" font-size="10.00">wigner_seitz.h</text>
</a>
</g>
</g>
<!-- Node1&#45;&gt;Node2 -->
<g id="edge1_Node000001_Node000002" class="edge">
<title>Node1&#45;&gt;Node2</title>
<g id="a_edge1_Node000001_Node000002"><a xlink:title=" ">
<path fill="none" stroke="#63b8ff" d="M282.11,-113.33C226.52,-102.46 143.69,-86.26 90.64,-75.88"/>
<polygon fill="#63b8ff" stroke="#63b8ff" points="91.44,-72.47 80.95,-73.98 90.1,-79.34 91.44,-72.47"/>
</a>
</g>
</g>
<!-- Node3 -->
<g id="Node000003" class="node">
<title>Node3</title>
<g id="a_Node000003"><a xlink:href="../../d4/d0a/elph_c_8h.html" target="_top" xlink:title="Core type definitions and configuration for LetzElPhC.">
<polygon fill="white" stroke="#666666" points="341.38,-19.25 291.62,-19.25 291.62,0 341.38,0 341.38,-19.25"/>
<text xml:space="preserve" text-anchor="middle" x="316.5" y="-5.75" font-family="Helvetica,sans-Serif" font-size="10.00">elphC.h</text>
</a>
</g>
</g>
<!-- Node1&#45;&gt;Node3 -->
<g id="edge14_Node000001_Node000003" class="edge">
<title>Node1&#45;&gt;Node3</title>
<g id="a_edge14_Node000001_Node000003"><a xlink:title=" ">
<path fill="none" stroke="#63b8ff" d="M281.84,-119.07C225.3,-112.25 145.58,-98.58 126.5,-74.5 84.81,-21.88 213.85,-12.29 279.98,-10.76"/>
<polygon fill="#63b8ff" stroke="#63b8ff" points="279.71,-14.27 289.65,-10.59 279.59,-7.27 279.71,-14.27"/>
</a>
</g>
</g>
<!-- Node4 -->
<g id="Node000004" class="node">
<title>Node4</title>
<g id="a_Node000004"><a xlink:title=" ">
<polygon fill="#e0e0e0" stroke="#999999" points="183.25,-74.5 135.75,-74.5 135.75,-55.25 183.25,-55.25 183.25,-74.5"/>
<text xml:space="preserve" text-anchor="middle" x="159.5" y="-61" font-family="Helvetica,sans-Serif" font-size="10.00">limits.h</text>
</a>
</g>
</g>
<!-- Node1&#45;&gt;Node4 -->
<g id="edge3_Node000001_Node000004" class="edge">
<title>Node1&#45;&gt;Node4</title>
<g id="a_edge3_Node000001_Node000004"><a xlink:title=" ">
<path fill="none" stroke="#63b8ff" d="M295.29,-110.05C264.05,-99.88 223.1,-86.56 194.37,-77.22"/>
<polygon fill="#63b8ff" stroke="#63b8ff" points="195.66,-73.96 185.07,-74.19 193.49,-80.61 195.66,-73.96"/>
</a>
</g>
</g>
<!-- Node5 -->
<g id="Node000005" class="node">
<title>Node5</title>
<g id="a_Node000005"><a xlink:title=" ">
<polygon fill="#e0e0e0" stroke="#999999" points="247.5,-74.5 201.5,-74.5 201.5,-55.25 247.5,-55.25 247.5,-74.5"/>
<text xml:space="preserve" text-anchor="middle" x="224.5" y="-61" font-family="Helvetica,sans-Serif" font-size="10.00">math.h</text>
</a>
</g>
</g>
<!-- Node1&#45;&gt;Node5 -->
<g id="edge4_Node000001_Node000005" class="edge">
<title>Node1&#45;&gt;Node5</title>
<g id="a_edge4_Node000001_Node000005"><a xlink:title=" ">
<path fill="none" stroke="#63b8ff" d="M311.53,-110.05C293.44,-100.86 270.27,-89.11 252.39,-80.03"/>
<polygon fill="#63b8ff" stroke="#63b8ff" points="254.14,-76.99 243.64,-75.59 250.97,-83.24 254.14,-76.99"/>
</a>
</g>
</g>
<!-- Node6 -->
<g id="Node000006" class="node">
<title>Node6</title>
<g id="a_Node000006"><a xlink:title=" ">
<polygon fill="#e0e0e0" stroke="#999999" points="313.25,-74.5 265.75,-74.5 265.75,-55.25 313.25,-55.25 313.25,-74.5"/>
<text xml:space="preserve" text-anchor="middle" x="289.5" y="-61" font-family="Helvetica,sans-Serif" font-size="10.00">stdlib.h</text>
</a>
</g>
</g>
<!-- Node1&#45;&gt;Node6 -->
<g id="edge5_Node000001_Node000006" class="edge">
<title>Node1&#45;&gt;Node6</title>
<g id="a_edge5_Node000001_Node000006"><a xlink:title=" ">
<path fill="none" stroke="#63b8ff" d="M327.89,-110.2C320.87,-102.09 312.09,-91.95 304.69,-83.41"/>
<polygon fill="#63b8ff" stroke="#63b8ff" points="307.55,-81.36 298.35,-76.1 302.26,-85.95 307.55,-81.36"/>
</a>
</g>
</g>
<!-- Node7 -->
<g id="Node000007" class="node">
<title>Node7</title>
<g id="a_Node000007"><a xlink:href="../../de/d83/_e_l_p_h__timers_8h.html" target="_top" xlink:title=" ">
<polygon fill="white" stroke="#666666" points="454.12,-74.5 330.88,-74.5 330.88,-55.25 454.12,-55.25 454.12,-74.5"/>
<text xml:space="preserve" text-anchor="middle" x="392.5" y="-61" font-family="Helvetica,sans-Serif" font-size="10.00">common/ELPH_timers.h</text>
</a>
</g>
</g>
<!-- Node1&#45;&gt;Node7 -->
<g id="edge6_Node000001_Node000007" class="edge">
<title>Node1&#45;&gt;Node7</title>
<g id="a_edge6_Node000001_Node000007"><a xlink:title=" ">
<path fill="none" stroke="#63b8ff" d="M353.35,-110.2C360.51,-102.09 369.47,-91.95 377.01,-83.41"/>
<polygon fill="#63b8ff" stroke="#63b8ff" points="379.49,-85.9 383.48,-76.09 374.24,-81.26 379.49,-85.9"/>
</a>
</g>
</g>
<!-- Node8 -->
<g id="Node000008" class="node">
<title>Node8</title>
<g id="a_Node000008"><a xlink:href="../../d2/d6f/constants_8h.html" target="_top" xlink:title=" ">
<polygon fill="white" stroke="#666666" points="579.25,-74.5 471.75,-74.5 471.75,-55.25 579.25,-55.25 579.25,-74.5"/>
<text xml:space="preserve" text-anchor="middle" x="525.5" y="-61" font-family="Helvetica,sans-Serif" font-size="10.00">common/constants.h</text>
</a>
</g>
</g>
<!-- Node1&#45;&gt;Node8 -->
<g id="edge7_Node000001_Node000008" class="edge">
<title>Node1&#45;&gt;Node8</title>
<g id="a_edge7_Node000001_Node000008"><a xlink:title=" ">
<path fill="none" stroke="#63b8ff" d="M386.71,-110.05C417.36,-100.29 457.15,-87.63 486.26,-78.36"/>
<polygon fill="#63b8ff" stroke="#63b8ff" points="486.95,-81.82 495.41,-75.45 484.82,-75.15 486.95,-81.82"/>
</a>
</g>
</g>
<!-- Node9 -->
<g id="Node000009" class="node">
<title>Node9</title>
<g id="a_Node000009"><a xlink:href="../../da/d41/error_8h.html" target="_top" xlink:title=" ">
<polygon fill="white" stroke="#666666" points="681.25,-74.5 597.75,-74.5 597.75,-55.25 681.25,-55.25 681.25,-74.5"/>
<text xml:space="preserve" text-anchor="middle" x="639.5" y="-61" font-family="Helvetica,sans-Serif" font-size="10.00">common/error.h</text>
</a>
</g>
</g>
<!-- Node1&#45;&gt;Node9 -->
<g id="edge9_Node000001_Node000009" class="edge">
<title>Node1&#45;&gt;Node9</title>
<g id="a_edge9_Node000001_Node000009"><a xlink:title=" ">
<path fill="none" stroke="#63b8ff" d="M399.22,-113.19C453.56,-102.49 533.67,-86.71 586.21,-76.37"/>
<polygon fill="#63b8ff" stroke="#63b8ff" points="586.69,-79.84 595.83,-74.47 585.34,-72.97 586.69,-79.84"/>
</a>
</g>
</g>
<!-- Node10 -->
<g id="Node000010" class="node">
<title>Node10</title>
<g id="a_Node000010"><a xlink:title=" ">
<polygon fill="#e0e0e0" stroke="#999999" points="821.38,-74.5 699.62,-74.5 699.62,-55.25 821.38,-55.25 821.38,-74.5"/>
<text xml:space="preserve" text-anchor="middle" x="760.5" y="-61" font-family="Helvetica,sans-Serif" font-size="10.00">common/kdtree/kdtree.h</text>
</a>
</g>
</g>
<!-- Node1&#45;&gt;Node10 -->
<g id="edge10_Node000001_Node000010" class="edge">
<title>Node1&#45;&gt;Node10</title>
<g id="a_edge10_Node000001_Node000010"><a xlink:title=" ">
<path fill="none" stroke="#63b8ff" d="M398.9,-116.56C474.46,-105.97 606.09,-87.52 687.98,-76.04"/>
<polygon fill="#63b8ff" stroke="#63b8ff" points="688.27,-79.53 697.69,-74.68 687.3,-72.6 688.27,-79.53"/>
</a>
</g>
</g>
<!-- Node11 -->
<g id="Node000011" class="node">
<title>Node11</title>
<g id="a_Node000011"><a xlink:href="../../df/def/numerical__func_8h.html" target="_top" xlink:title=" ">
<polygon fill="white" stroke="#666666" points="969.88,-74.5 839.12,-74.5 839.12,-55.25 969.88,-55.25 969.88,-74.5"/>
<text xml:space="preserve" text-anchor="middle" x="904.5" y="-61" font-family="Helvetica,sans-Serif" font-size="10.00">common/numerical_func.h</text>
</a>
</g>
</g>
<!-- Node1&#45;&gt;Node11 -->
<g id="edge11_Node000001_Node000011" class="edge">
<title>Node1&#45;&gt;Node11</title>
<g id="a_edge11_Node000001_Node000011"><a xlink:title=" ">
<path fill="none" stroke="#63b8ff" d="M398.98,-119.02C488.82,-110.15 666.51,-92.39 827.66,-74.8"/>
<polygon fill="#63b8ff" stroke="#63b8ff" points="827.67,-78.32 837.23,-73.75 826.91,-71.36 827.67,-78.32"/>
</a>
</g>
</g>
<!-- Node2&#45;&gt;Node3 -->
<g id="edge2_Node000002_Node000003" class="edge">
<title>Node2&#45;&gt;Node3</title>
<g id="a_edge2_Node000002_Node000003"><a xlink:title=" ">
<path fill="none" stroke="#63b8ff" d="M79.48,-56.19C133.39,-45.83 228.57,-27.53 280.4,-17.56"/>
<polygon fill="#63b8ff" stroke="#63b8ff" points="280.74,-21.06 289.9,-15.74 279.42,-14.19 280.74,-21.06"/>
</a>
</g>
</g>
<!-- Node8&#45;&gt;Node3 -->
<g id="edge8_Node000008_Node000003" class="edge">
<title>Node8&#45;&gt;Node3</title>
<g id="a_edge8_Node000008_Node000003"><a xlink:title=" ">
<path fill="none" stroke="#63b8ff" d="M490.05,-54.84C451.67,-45.07 390.82,-29.56 352.31,-19.75"/>
<polygon fill="#63b8ff" stroke="#63b8ff" points="353.62,-16.47 343.07,-17.39 351.9,-23.26 353.62,-16.47"/>
</a>
</g>
</g>
<!-- Node11&#45;&gt;Node3 -->
<g id="edge13_Node000011_Node000003" class="edge">
<title>Node11&#45;&gt;Node3</title>
<g id="a_edge13_Node000011_Node000003"><a xlink:title=" ">
<path fill="none" stroke="#63b8ff" d="M838.74,-56.11C835.96,-55.81 833.2,-55.52 830.5,-55.25 651.71,-37.07 437.45,-19.98 353.14,-13.43"/>
<polygon fill="#63b8ff" stroke="#63b8ff" points="353.41,-9.94 343.17,-12.66 352.87,-16.92 353.41,-9.94"/>
</a>
</g>
</g>
<!-- Node12 -->
<g id="Node000012" class="node">
<title>Node12</title>
<g id="a_Node000012"><a xlink:title=" ">
<polygon fill="#e0e0e0" stroke="#999999" points="932.38,-19.25 876.62,-19.25 876.62,0 932.38,0 932.38,-19.25"/>
<text xml:space="preserve" text-anchor="middle" x="904.5" y="-5.75" font-family="Helvetica,sans-Serif" font-size="10.00">stdbool.h</text>
</a>
</g>
</g>
<!-- Node11&#45;&gt;Node12 -->
<g id="edge12_Node000011_Node000012" class="edge">
<title>Node11&#45;&gt;Node12</title>
<g id="a_edge12_Node000011_Node000012"><a xlink:title=" ">
<path fill="none" stroke="#63b8ff" d="M904.5,-55.08C904.5,-48.57 904.5,-39.42 904.5,-31.12"/>
<polygon fill="#63b8ff" stroke="#63b8ff" points="908,-31.12 904.5,-21.12 901,-31.12 908,-31.12"/>
</a>
</g>
</g>
</g>
</svg>
