<?xml version="1.0" encoding="UTF-8" standalone="no"?>
<!DOCTYPE svg PUBLIC "-//W3C//DTD SVG 1.1//EN"
 "http://www.w3.org/Graphics/SVG/1.1/DTD/svg11.dtd">
<!-- Generated by graphviz version 14.0.0 (20250921.2048)
 -->
<!-- Title: src/interpolation/wigner_seitz.c Pages: 1 -->
<!--zoomable 149 -->

<svg id="main" version="1.1" xmlns="http://www.w3.org/2000/svg" xmlns:xlink="http://www.w3.org/1999/xlink" xml:space="preserve" onload="init(evt)">

<style type="text/css"><![CDATA[
.node, .edge {opacity: 0.7;}
.node.selected, .edge.selected {opacity: 1;}
.edge:hover path { stroke: red; }
.edge:hover polygon { stroke: red; fill: red; }
]]></style>

<defs>
  <circle id="rim" cx="0" cy="0" r="7"/>
  <circle id="rim2" cx="0" cy="0" r="3.5"/>
  <g id="zoomPlus">
    <use xlink:href="#rim" fill="#404040"><set attributeName="fill" to="#808080" begin="zoomplus.mouseover" end="zoomplus.mouseout"/></use>
    <path d="M-4,0h8M0,-4v8" fill="none" stroke="white" stroke-width="1.5" pointer-events="none"/>
  </g>
  <g id="zoomMin">
    <use xlink:href="#rim" fill="#404040"><set attributeName="fill" to="#808080" begin="zoomminus.mouseover" end="zoomminus.mouseout"/></use>
    <path d="M-4,0h8" fill="none" stroke="white" stroke-width="1.5" pointer-events="none"/>
  </g>
  <g id="arrowUp" transform="translate(30 24)">
    <use xlink:href="#rim"/>
    <path pointer-events="none" fill="none" stroke="white" stroke-width="1.5" d="M0,-3.0v7 M-2.5,-0.5L0,-3.0L2.5,-0.5"/>
  </g>
  <g id="arrowRight" transform="rotate(90) translate(36 -43)">
    <use xlink:href="#rim"/>
    <path pointer-events="none" fill="none" stroke="white" stroke-width="1.5" d="M0,-3.0v7 M-2.5,-0.5L0,-3.0L2.5,-0.5"/>
  </g>
  <g id="arrowDown" transform="rotate(180) translate(-30 -48)">
    <use xlink:href="#rim"/>
    <path pointer-events="none" fill="none" stroke="white" stroke-width="1.5" d="M0,-3.0v7 M-2.5,-0.5L0,-3.0L2.5,-0.5"/>
  </g>
  <g id="arrowLeft" transform="rotate(270) translate(-36 17)">
    <use xlink:href="#rim"/>
    <path pointer-events="none" fill="none" stroke="white" stroke-width="1.5" d="M0,-3.0v7 M-2.5,-0.5L0,-3.0L2.5,-0.5"/>
  </g>
  <g id="resetDef">
    <use xlink:href="#rim2" fill="#404040"><set attributeName="fill" to="#808080" begin="reset.mouseover" end="reset.mouseout"/></use>
  </g>
</defs>
<script type="application/ecmascript">
var viewWidth = 978;
var viewHeight = 149;
var sectionId = 'dynsection-0';
</script>
<script type="application/ecmascript" xlink:href="../../svg.min.js"/>
<svg id="graph" class="graph">
<g id="viewport">
<title>src/interpolation/wigner_seitz.c</title>
<!-- Node1 -->
<g id="Node000001" class="node">
<title>Node1</title>
<g id="a_Node000001"><a xlink:title=" ">
<polygon fill="#999999" stroke="#666666" points="398.75,-141 282.25,-141 282.25,-110.5 398.75,-110.5 398.75,-141"/>
<text xml:space="preserve" text-anchor="start" x="290.25" y="-127.5" font-family="Helvetica,sans-Serif" font-size="10.00">src/interpolation/wigner</text>
<text xml:space="preserve" text-anchor="middle" x="340.5" y="-116.25" font-family="Helvetica,sans-Serif" font-size="10.00">_seitz.c</text>
</a>
</g>
</g>
<!-- Node2 -->
<g id="Node000002" class="node">
<title>Node2</title>
<g id="a_Node000002"><a xlink:href="../../db/d1f/wigner__seitz_8h.html" target="_top" xlink:title=" ">
<polygon fill="white" stroke="#666666" points="79,-74.5 0,-74.5 0,-55.25 79,-55.25 79,-74.5"/>
<text xml:space="preserve" text-anchor="middle" x="39.5" y="-61" font-family="Helvetica,sans-Serif" font-size="10.00">wigner_seitz.h</text>
</a>
</g>
</g>
<!-- Node1&#45;&gt;Node2 -->
<g id="edge1_Node000001_Node000002" class="edge">
<title>Node1&#45;&gt;Node2</title>
<g id="a_edge1_Node000001_Node000002"><a xlink:title=" ">
<path fill="none" stroke="#63b8ff" d="M282.11,-113.33C226.52,-102.46 143.69,-86.26 90.64,-75.88"/>
<polygon fill="#63b8ff" stroke="#63b8ff" points="91.44,-72.47 80.95,-73.98 90.1,-79.34 91.44,-72.47"/>
</a>
</g>
</g>
<!-- Node3 -->
<g id="Node000003" class="node">
<title>Node3</title>
<g id="a_Node000003"><a xlink:href="../../d4/d0a/elph_c_8h.html" target="_top" xlink:title="Core type definitions and configuration for LetzElPhC.">
<polygon fill="white" stroke="#666666" points="341.38,-19.25 291.62,-19.25 291.62,0 341.38,0 341.38,-19.25"/>
<text xml:space="preserve" text-anchor="middle" x="316.5" y="-5.75" font-family="Helvetica,sans-Serif" font-size="10.00">elphC.h</text>
</a>
</g>
</g>
<!-- Node1&#45;&gt;Node3 -->
<g id="edge14_Node000001_Node000003" class="edge">
<title>Node1&#45;&gt;Node3</title>
<g id="a_edge14_Node000001_Node000003"><a xlink:title=" ">
<path fill="none" stroke="#63b8ff" d="M281.84,-119.07C225.3,-112.25 145.58,-98.58 126.5,-74.5 84.81,-21.88 213.85,-12.29 279.98,-10.76"/>
<polygon fill="#63b8ff" stroke="#63b8ff" points="279.71,-14.27 289.65,-10.59 279.59,-7.27 279.71,-14.27"/>
</a>
</g>
</g>
<!-- Node4 -->
<g id="Node000004" class="node">
<title>Node4</title>
<g id="a_Node000004"><a xlink:title=" ">
<polygon fill="#e0e0e0" stroke="#999999" points="183.25,-74.5 135.75,-74.5 135.75,-55.25 183.25,-55.25 183.25,-74.5"/>
<text xml:space="preserve" text-anchor="middle" x="159.5" y="-61" font-family="Helvetica,sans-Serif" font-size="10.00">limits.h</text>
</a>
</g>
</g>
<!-- Node1&#45;&gt;Node4 -->
<g id="edge3_Node000001_Node000004" class="edge">
<title>Node1&#45;&gt;Node4</title>
<g id="a_edge3_Node000001_Node000004"><a xlink:title=" ">
<path fill="none" stroke="#63b8ff" d="M295.29,-110.05C264.05,-99.88 223.1,-86.56 194.37,-77.22"/>
<polygon fill="#63b8ff" stroke="#63b8ff" points="195.66,-73.96 185.07,-74.19 193.49,-80.61 195.66,-73.96"/>
</a>
</g>
</g>
<!-- Node5 -->
<g id="Node000005" class="node">
<title>Node5</title>
<g id="a_Node000005"><a xlink:title=" ">
<polygon fill="#e0e0e0" stroke="#999999" points="247.5,-74.5 201.5,-74.5 201.5,-55.25 247.5,-55.25 247.5,-74.5"/>
<text xml:space="preserve" text-anchor="middle" x="224.5" y="-61" font-family="Helvetica,sans-Serif" font-size="10.00">math.h</text>
</a>
</g>
</g>
<!-- Node1&#45;&gt;Node5 -->
<g id="edge4_Node000001_Node000005" class="edge">
<title>Node1&#45;&gt;Node5</title>
<g id="a_edge4_Node000001_Node000005"><a xlink:title=" ">
<path fill="none" stroke="#63b8ff" d="M311.53,-110.05C293.44,-100.86 270.27,-89.11 252.39,-80.03"/>
<polygon fill="#63b8ff" stroke="#63b8ff" points="254.14,-76.99 243.64,-75.59 250.97,-83.24 254.14,-76.99"/>
</a>
</g>
</g>
<!-- Node6 -->
<g id="Node000006" class="node">
<title>Node6</title>
<g id="a_Node000006"><a xlink:title=" ">
<polygon fill="#e0e0e0" stroke="#999999" points="313.25,-74.5 265.75,-74.5 265.75,-55.25 313.25,-55.25 313.25,-74.5"/>
<text xml:space="preserve" text-anchor="middle" x="289.5" y="-61" font-family="Helvetica,sans-Serif" font-size="10.00">stdlib.h</text>
</a>
</g>
</g>
<!-- Node1&#45;&gt;Node6 -->
<g id="edge5_Node000001_Node000006" class="edge">
<title>Node1&#45;&gt;Node6</title>
<g id="a_edge5_Node000001_Node000006"><a xlink:title=" ">
<path fill="none" stroke="#63b8ff" d="M327.89,-110.2C320.87,-102.09 312.09,-91.95 304.69,-83.41"/>
<polygon fill="#63b8ff" stroke="#63b8ff" points="307.55,-81.36 298.35,-76.1 302.26,-85.95 307.55,-81.36"/>
</a>
</g>
</g>
<!-- Node7 -->
<g id="Node000007" class="node">
<title>Node7</title>
<g id="a_Node000007"><a xlink:href="../../de/d83/_e_l_p_h__timers_8h.html" target="_top" xlink:title=" ">
<polygon fill="white" stroke="#666666" points="454.12,-74.5 330.88,-74.5 330.88,-55.25 454.12,-55.25 454.12,-74.5"/>
<text xml:space="preserve" text-anchor="middle" x="392.5" y="-61" font-family="Helvetica,sans-Serif" font-size="10.00">common/ELPH_timers.h</text>
</a>
</g>
</g>
<!-- Node1&#45;&gt;Node7 -->
<g id="edge6_Node000001_Node000007" class="edge">
<title>Node1&#45;&gt;Node7</title>
<g id="a_edge6_Node000001_Node000007"><a xlink:title=" ">
<path fill="none" stroke="#63b8ff" d="M353.35,-110.2C360.51,-102.09 369.47,-91.95 377.01,-83.41"/>
<polygon fill="#63b8ff" stroke="#63b8ff" points="379.49,-85.9 383.48,-76.09 374.24,-81.26 379.49,-85.9"/>
</a>
</g>
</g>
<!-- Node8 -->
<g id="Node000008" class="node">
<title>Node8</title>
<g id="a_Node000008"><a xlink:href="../../d2/d6f/constants_8h.html" target="_top" xlink:title=" ">
<polygon fill="white" stroke="#666666" points="579.25,-74.5 471.75,-74.5 471.75,-55.25 579.25,-55.25 579.25,-74.5"/>
<text xml:space="preserve" text-anchor="middle" x="525.5" y="-61" font-family="Helvetica,sans-Serif" font-size="10.00">common/constants.h</text>
</a>
</g>
</g>
<!-- Node1&#45;&gt;Node8 -->
<g id="edge7_Node000001_Node000008" class="edge">
<title>Node1&#45;&gt;Node8</title>
<g id="a_edge7_Node000001_Node000008"><a xlink:title=" ">
<path fill="none" stroke="#63b8ff" d="M386.71,-110.05C417.36,-100.29 457.15,-87.63 486.26,-78.36"/>
<polygon fill="#63b8ff" stroke="#63b8ff" points="486.95,-81.82 495.41,-75.45 484.82,-75.15 486.95,-81.82"/>
</a>
</g>
</g>
<!-- Node9 -->
<g id="Node000009" class="node">
<title>Node9</title>
<g id="a_Node000009"><a xlink:href="../../da/d41/error_8h.html" target="_top" xlink:title=" ">
<polygon fill="white" stroke="#666666" points="681.25,-74.5 597.75,-74.5 597.75,-55.25 681.25,-55.25 681.25,-74.5"/>
<text xml:space="preserve" text-anchor="middle" x="639.5" y="-61" font-family="Helvetica,sans-Serif" font-size="10.00">common/error.h</text>
</a>
</g>
</g>
<!-- Node1&#45;&gt;Node9 -->
<g id="edge9_Node000001_Node000009" class="edge">
<title>Node1&#45;&gt;Node9</title>
<g id="a_edge9_Node000001_Node000009"><a xlink:title=" ">
<path fill="none" stroke="#63b8ff" d="M399.22,-113.19C453.56,-102.49 533.67,-86.71 586.21,-76.37"/>
<polygon fill="#63b8ff" stroke="#63b8ff" points="586.69,-79.84 595.83,-74.47 585.34,-72.97 586.69,-79.84"/>
</a>
</g>
</g>
<!-- Node10 -->
<g id="Node000010" class="node">
<title>Node10</title>
<g id="a_Node000010"><a xlink:title=" ">
<polygon fill="#e0e0e0" stroke="#999999" points="821.38,-74.5 699.62,-74.5 699.62,-55.25 821.38,-55.25 821.38,-74.5"/>
<text xml:space="preserve" text-anchor="middle" x="760.5" y="-61" font-family="Helvetica,sans-Serif" font-size="10.00">common/kdtree/kdtree.h</text>
</a>
</g>
</g>
<!-- Node1&#45;&gt;Node10 -->
<g id="edge10_Node000001_Node000010" class="edge">
<title>Node1&#45;&gt;Node10</title>
<g id="a_edge10_Node000001_Node000010"><a xlink:title=" ">
<path fill="none" stroke="#63b8ff" d="M398.9,-116.56C474.46,-105.97 606.09,-87.52 687.98,-76.04"/>
<polygon fill="#63b8ff" stroke="#63b8ff" points="688.27,-79.53 697.69,-74.68 687.3,-72.6 688.27,-79.53"/>
</a>
</g>
</g>
<!-- Node11 -->
<g id="Node000011" class="node">
<title>Node11</title>
<g id="a_Node000011"><a xlink:href="../../df/def/numerical__func_8h.html" target="_top" xlink:title=" ">
<polygon fill="white" stroke="#666666" points="969.88,-74.5 839.12,-74.5 839.12,-55.25 969.88,-55.25 969.88,-74.5"/>
<text xml:space="preserve" text-anchor="middle" x="904.5" y="-61" font-family="Helvetica,sans-Serif" font-size="10.00">common/numerical_func.h</text>
</a>
</g>
</g>
<!-- Node1&#45;&gt;Node11 -->
<g id="edge11_Node000001_Node000011" class="edge">
<title>Node1&#45;&gt;Node11</title>
<g id="a_edge11_Node000001_Node000011"><a xlink:title=" ">
<path fill="none" stroke="#63b8ff" d="M398.98,-119.02C488.82,-110.15 666.51,-92.39 827.66,-74.8"/>
<polygon fill="#63b8ff" stroke="#63b8ff" points="827.67,-78.32 837.23,-73.75 826.91,-71.36 827.67,-78.32"/>
</a>
</g>
</g>
<!-- Node2&#45;&gt;Node3 -->
<g id="edge2_Node000002_Node000003" class="edge">
<title>Node2&#45;&gt;Node3</title>
<g id="a_edge2_Node000002_Node000003"><a xlink:title=" ">
<path fill="none" stroke="#63b8ff" d="M79.48,-56.19C133.39,-45.83 228.57,-27.53 280.4,-17.56"/>
<polygon fill="#63b8ff" stroke="#63b8ff" points="280.74,-21.06 289.9,-15.74 279.42,-14.19 280.74,-21.06"/>
</a>
</g>
</g>
<!-- Node8&#45;&gt;Node3 -->
<g id="edge8_Node000008_Node000003" class="edge">
<title>Node8&#45;&gt;Node3</title>
<g id="a_edge8_Node000008_Node000003"><a xlink:title=" ">
<path fill="none" stroke="#63b8ff" d="M490.05,-54.84C451.67,-45.07 390.82,-29.56 352.31,-19.75"/>
<polygon fill="#63b8ff" stroke="#63b8ff" points="353.62,-16.47 343.07,-17.39 351.9,-23.26 353.62,-16.47"/>
</a>
</g>
</g>
<!-- Node11&#45;&gt;Node3 -->
<g id="edge13_Node000011_Node000003" class="edge">
<title>Node11&#45;&gt;Node3</title>
<g id="a_edge13_Node000011_Node000003"><a xlink:title=" ">
<path fill="none" stroke="#63b8ff" d="M838.74,-56.11C835.96,-55.81 833.2,-55.52 830.5,-55.25 651.71,-37.07 437.45,-19.98 353.14,-13.43"/>
<polygon fill="#63b8ff" stroke="#63b8ff" points="353.41,-9.94 343.17,-12.66 352.87,-16.92 353.41,-9.94"/>
</a>
</g>
</g>
<!-- Node12 -->
<g id="Node000012" class="node">
<title>Node12</title>
<g id="a_Node000012"><a xlink:title=" ">
<polygon fill="#e0e0e0" stroke="#999999" points="932.38,-19.25 876.62,-19.25 876.62,0 932.38,0 932.38,-19.25"/>
<text xml:space="preserve" text-anchor="middle" x="904.5" y="-5.75" font-family="Helvetica,sans-Serif" font-size="10.00">stdbool.h</text>
</a>
</g>
</g>
<!-- Node11&#45;&gt;Node12 -->
<g id="edge12_Node000011_Node000012" class="edge">
<title>Node11&#45;&gt;Node12</title>
<g id="a_edge12_Node000011_Node000012"><a xlink:title=" ">
<path fill="none" stroke="#63b8ff" d="M904.5,-55.08C904.5,-48.57 904.5,-39.42 904.5,-31.12"/>
<polygon fill="#63b8ff" stroke="#63b8ff" points="908,-31.12 904.5,-21.12 901,-31.12 908,-31.12"/>
</a>
</g>
</g>
</g>
</svg>

<g id="navigator" transform="translate(0 0)" fill="#404254">
  <rect fill="#f2f5e9" fill-opacity="0.5" stroke="#606060" stroke-width=".5" x="0" y="0" width="60" height="60"/>
  <use id="zoomplus" xlink:href="#zoomPlus" x="17" y="9" onmousedown="handleZoom(evt,'in')"/>
  <use id="zoomminus" xlink:href="#zoomMin" x="42" y="9" onmousedown="handleZoom(evt,'out')"/>
  <use id="reset" xlink:href="#resetDef" x="30" y="36" onmousedown="handleReset()"/>
   <use id="arrowup" xlink:href="#arrowUp" x="0" y="0" onmousedown="handlePan(0,-1)"/>
  <use id="arrowright" xlink:href="#arrowRight" x="0" y="0" onmousedown="handlePan(1,0)"/>
  <use id="arrowdown" xlink:href="#arrowDown" x="0" y="0" onmousedown="handlePan(0,1)"/>
  <use id="arrowleft" xlink:href="#arrowLeft" x="0" y="0" onmousedown="handlePan(-1,0)"/>
</g>
<svg viewBox="0 0 15 15" width="100%" height="30px" preserveAspectRatio="xMaxYMin meet">
 <g id="arrow_out" transform="scale(0.3 0.3)">
  <a xlink:href="wigner__seitz_8c__incl_org.svg" target="_base">
   <rect id="button" ry="5" rx="5" y="6" x="6" height="38" width="38"
        fill="#f2f5e9" fill-opacity="0.5" stroke="#606060" stroke-width="1.0"/>
   <path id="arrow"
     d="M 11.500037,31.436501 C 11.940474,20.09759 22.043105,11.32322 32.158766,21.979434 L 37.068811,17.246167 C 37.068811,17.246167 37.088388,32 37.088388,32 L 22.160133,31.978069 C 22.160133,31.978069 26.997745,27.140456 26.997745,27.140456 C 18.528582,18.264221 13.291696,25.230495 11.500037,31.436501 z"
     style="fill:#404040;"/>
  </a>
 </g>
</svg>

<style type='text/css'>
<![CDATA[
[data-mouse-over-selected='false'] { opacity: 0.7; }
[data-mouse-over-selected='true']  { opacity: 1.0; }
]]>
</style>
<script type="application/ecmascript"><![CDATA[
document.addEventListener('DOMContentLoaded', (event) => {
  highlightEdges();
  highlightAdjacentNodes();
});
]]></script>
</svg>
