<?xml version="1.0" encoding="UTF-8" standalone="no"?>
<!DOCTYPE svg PUBLIC "-//W3C//DTD SVG 1.1//EN"
 "http://www.w3.org/Graphics/SVG/1.1/DTD/svg11.dtd">
<!-- Generated by graphviz version 14.0.0 (20250921.2048)
 -->
<!-- Title: src/io/write_basic_data.c Pages: 1 -->
<svg width="647pt" height="204pt"
 viewBox="0.00 0.00 647.00 204.00" xmlns="http://www.w3.org/2000/svg" xmlns:xlink="http://www.w3.org/1999/xlink">
<g id="graph0" class="graph" transform="scale(1 1) rotate(0) translate(4 200.25)">
<title>src/io/write_basic_data.c</title>
<!-- Node1 -->
<g id="Node000001" class="node">
<title>Node1</title>
<g id="a_Node000001"><a xlink:title=" ">
<polygon fill="#999999" stroke="#666666" points="376.88,-196.25 284.38,-196.25 284.38,-165.75 376.88,-165.75 376.88,-196.25"/>
<text xml:space="preserve" text-anchor="start" x="292.38" y="-182.75" font-family="Helvetica,sans-Serif" font-size="10.00">src/io/write_basic</text>
<text xml:space="preserve" text-anchor="middle" x="330.62" y="-171.5" font-family="Helvetica,sans-Serif" font-size="10.00">_data.c</text>
</a>
</g>
</g>
<!-- Node2 -->
<g id="Node000002" class="node">
<title>Node2</title>
<g id="a_Node000002"><a xlink:title=" ">
<polygon fill="#e0e0e0" stroke="#999999" points="51.25,-74.5 0,-74.5 0,-55.25 51.25,-55.25 51.25,-74.5"/>
<text xml:space="preserve" text-anchor="middle" x="25.62" y="-61" font-family="Helvetica,sans-Serif" font-size="10.00">netcdf.h</text>
</a>
</g>
</g>
<!-- Node1&#45;&gt;Node2 -->
<g id="edge1_Node000001_Node000002" class="edge">
<title>Node1&#45;&gt;Node2</title>
<g id="a_edge1_Node000001_Node000002"><a xlink:title=" ">
<path fill="none" stroke="#63b8ff" d="M284.03,-168.74C248.81,-159.68 199.52,-145.84 157.62,-129.75 119.82,-115.23 78.03,-94.09 51.8,-80.16"/>
<polygon fill="#63b8ff" stroke="#63b8ff" points="53.7,-77.21 43.23,-75.57 50.39,-83.38 53.7,-77.21"/>
</a>
</g>
</g>
<!-- Node3 -->
<g id="Node000003" class="node">
<title>Node3</title>
<g id="a_Node000003"><a xlink:title=" ">
<polygon fill="#e0e0e0" stroke="#999999" points="138.25,-74.5 69,-74.5 69,-55.25 138.25,-55.25 138.25,-74.5"/>
<text xml:space="preserve" text-anchor="middle" x="103.62" y="-61" font-family="Helvetica,sans-Serif" font-size="10.00">netcdf_par.h</text>
</a>
</g>
</g>
<!-- Node1&#45;&gt;Node3 -->
<g id="edge2_Node000001_Node000003" class="edge">
<title>Node1&#45;&gt;Node3</title>
<g id="a_edge2_Node000001_Node000003"><a xlink:title=" ">
<path fill="none" stroke="#63b8ff" d="M283.91,-166.51C256.52,-157.75 221.71,-145.11 192.62,-129.75 166.94,-116.19 140.23,-96.07 122.85,-82.05"/>
<polygon fill="#63b8ff" stroke="#63b8ff" points="125.35,-79.57 115.4,-75.93 120.9,-84.98 125.35,-79.57"/>
</a>
</g>
</g>
<!-- Node4 -->
<g id="Node000004" class="node">
<title>Node4</title>
<g id="a_Node000004"><a xlink:title=" ">
<polygon fill="#e0e0e0" stroke="#999999" points="207.25,-74.5 156,-74.5 156,-55.25 207.25,-55.25 207.25,-74.5"/>
<text xml:space="preserve" text-anchor="middle" x="181.62" y="-61" font-family="Helvetica,sans-Serif" font-size="10.00">stddef.h</text>
</a>
</g>
</g>
<!-- Node1&#45;&gt;Node4 -->
<g id="edge3_Node000001_Node000004" class="edge">
<title>Node1&#45;&gt;Node4</title>
<g id="a_edge3_Node000001_Node000004"><a xlink:title=" ">
<path fill="none" stroke="#63b8ff" d="M284.14,-169.35C259.73,-161.76 230.8,-149.34 210.62,-129.75 198.32,-117.81 190.78,-99.69 186.49,-85.79"/>
<polygon fill="#63b8ff" stroke="#63b8ff" points="189.93,-85.11 183.91,-76.39 183.18,-86.96 189.93,-85.11"/>
</a>
</g>
</g>
<!-- Node5 -->
<g id="Node000005" class="node">
<title>Node5</title>
<g id="a_Node000005"><a xlink:title=" ">
<polygon fill="#e0e0e0" stroke="#999999" points="507.25,-129.75 462,-129.75 462,-110.5 507.25,-110.5 507.25,-129.75"/>
<text xml:space="preserve" text-anchor="middle" x="484.62" y="-116.25" font-family="Helvetica,sans-Serif" font-size="10.00">stdio.h</text>
</a>
</g>
</g>
<!-- Node1&#45;&gt;Node5 -->
<g id="edge4_Node000001_Node000005" class="edge">
<title>Node1&#45;&gt;Node5</title>
<g id="a_edge4_Node000001_Node000005"><a xlink:title=" ">
<path fill="none" stroke="#63b8ff" d="M369.09,-165.3C394.43,-155.61 427.27,-143.05 451.46,-133.8"/>
<polygon fill="#63b8ff" stroke="#63b8ff" points="452.4,-137.19 460.49,-130.35 449.9,-130.65 452.4,-137.19"/>
</a>
</g>
</g>
<!-- Node6 -->
<g id="Node000006" class="node">
<title>Node6</title>
<g id="a_Node000006"><a xlink:title=" ">
<polygon fill="#e0e0e0" stroke="#999999" points="572.38,-129.75 524.88,-129.75 524.88,-110.5 572.38,-110.5 572.38,-129.75"/>
<text xml:space="preserve" text-anchor="middle" x="548.62" y="-116.25" font-family="Helvetica,sans-Serif" font-size="10.00">stdlib.h</text>
</a>
</g>
</g>
<!-- Node1&#45;&gt;Node6 -->
<g id="edge5_Node000001_Node000006" class="edge">
<title>Node1&#45;&gt;Node6</title>
<g id="a_edge5_Node000001_Node000006"><a xlink:title=" ">
<path fill="none" stroke="#63b8ff" d="M377.12,-167.44C418.03,-156.39 476.69,-140.55 513.7,-130.56"/>
<polygon fill="#63b8ff" stroke="#63b8ff" points="514.25,-134.03 522.99,-128.05 512.42,-127.28 514.25,-134.03"/>
</a>
</g>
</g>
<!-- Node7 -->
<g id="Node000007" class="node">
<title>Node7</title>
<g id="a_Node000007"><a xlink:title=" ">
<polygon fill="#e0e0e0" stroke="#999999" points="638.75,-129.75 590.5,-129.75 590.5,-110.5 638.75,-110.5 638.75,-129.75"/>
<text xml:space="preserve" text-anchor="middle" x="614.62" y="-116.25" font-family="Helvetica,sans-Serif" font-size="10.00">string.h</text>
</a>
</g>
</g>
<!-- Node1&#45;&gt;Node7 -->
<g id="edge6_Node000001_Node000007" class="edge">
<title>Node1&#45;&gt;Node7</title>
<g id="a_edge6_Node000001_Node000007"><a xlink:title=" ">
<path fill="none" stroke="#63b8ff" d="M377.06,-171.54C425.2,-162.58 502.89,-147.61 578.95,-130.27"/>
<polygon fill="#63b8ff" stroke="#63b8ff" points="579.72,-133.68 588.68,-128.03 578.15,-126.86 579.72,-133.68"/>
</a>
</g>
</g>
<!-- Node8 -->
<g id="Node000008" class="node">
<title>Node8</title>
<g id="a_Node000008"><a xlink:href="../../d2/d02/dtypes_8h.html" target="_top" xlink:title=" ">
<polygon fill="white" stroke="#666666" points="433.62,-74.5 339.62,-74.5 339.62,-55.25 433.62,-55.25 433.62,-74.5"/>
<text xml:space="preserve" text-anchor="middle" x="386.62" y="-61" font-family="Helvetica,sans-Serif" font-size="10.00">common/dtypes.h</text>
</a>
</g>
</g>
<!-- Node1&#45;&gt;Node8 -->
<g id="edge7_Node000001_Node000008" class="edge">
<title>Node1&#45;&gt;Node8</title>
<g id="a_edge7_Node000001_Node000008"><a xlink:title=" ">
<path fill="none" stroke="#63b8ff" d="M337.72,-165.55C347.74,-145.12 366.06,-107.79 377.21,-85.06"/>
<polygon fill="#63b8ff" stroke="#63b8ff" points="380.24,-86.83 381.51,-76.31 373.96,-83.74 380.24,-86.83"/>
</a>
</g>
</g>
<!-- Node11 -->
<g id="Node000011" class="node">
<title>Node11</title>
<g id="a_Node000011"><a xlink:href="../../d4/d0a/elph_c_8h.html" target="_top" xlink:title="Core type definitions and configuration for LetzElPhC.">
<polygon fill="white" stroke="#666666" points="336.5,-19.25 286.75,-19.25 286.75,0 336.5,0 336.5,-19.25"/>
<text xml:space="preserve" text-anchor="middle" x="311.62" y="-5.75" font-family="Helvetica,sans-Serif" font-size="10.00">elphC.h</text>
</a>
</g>
</g>
<!-- Node1&#45;&gt;Node11 -->
<g id="edge13_Node000001_Node000011" class="edge">
<title>Node1&#45;&gt;Node11</title>
<g id="a_edge13_Node000001_Node000011"><a xlink:title=" ">
<path fill="none" stroke="#63b8ff" d="M328.97,-165.27C325.58,-135.01 317.81,-65.8 313.93,-31.16"/>
<polygon fill="#63b8ff" stroke="#63b8ff" points="317.41,-30.79 312.82,-21.24 310.45,-31.57 317.41,-30.79"/>
</a>
</g>
</g>
<!-- Node12 -->
<g id="Node000012" class="node">
<title>Node12</title>
<g id="a_Node000012"><a xlink:href="../../da/d41/error_8h.html" target="_top" xlink:title=" ">
<polygon fill="white" stroke="#666666" points="479.12,-19.25 436.12,-19.25 436.12,0 479.12,0 479.12,-19.25"/>
<text xml:space="preserve" text-anchor="middle" x="457.62" y="-5.75" font-family="Helvetica,sans-Serif" font-size="10.00">error.h</text>
</a>
</g>
</g>
<!-- Node1&#45;&gt;Node12 -->
<g id="edge12_Node000001_Node000012" class="edge">
<title>Node1&#45;&gt;Node12</title>
<g id="a_edge12_Node000001_Node000012"><a xlink:title=" ">
<path fill="none" stroke="#63b8ff" d="M352.83,-165.28C378.49,-147.06 420.08,-113.61 442.62,-74.5 450.39,-61.04 454.13,-43.79 455.94,-30.61"/>
<polygon fill="#63b8ff" stroke="#63b8ff" points="459.39,-31.3 456.99,-20.98 452.43,-30.54 459.39,-31.3"/>
</a>
</g>
</g>
<!-- Node13 -->
<g id="Node000013" class="node">
<title>Node13</title>
<g id="a_Node000013"><a xlink:href="../../dc/dac/io_8h.html" target="_top" xlink:title=" ">
<polygon fill="white" stroke="#666666" points="251.5,-129.75 219.75,-129.75 219.75,-110.5 251.5,-110.5 251.5,-129.75"/>
<text xml:space="preserve" text-anchor="middle" x="235.62" y="-116.25" font-family="Helvetica,sans-Serif" font-size="10.00">io.h</text>
</a>
</g>
</g>
<!-- Node1&#45;&gt;Node13 -->
<g id="edge14_Node000001_Node000013" class="edge">
<title>Node1&#45;&gt;Node13</title>
<g id="a_edge14_Node000001_Node000013"><a xlink:title=" ">
<path fill="none" stroke="#63b8ff" d="M307.14,-165.45C292.82,-156.57 274.54,-145.24 260.04,-136.26"/>
<polygon fill="#63b8ff" stroke="#63b8ff" points="261.9,-133.29 251.56,-131 258.21,-139.24 261.9,-133.29"/>
</a>
</g>
</g>
<!-- Node9 -->
<g id="Node000009" class="node">
<title>Node9</title>
<g id="a_Node000009"><a xlink:title=" ">
<polygon fill="#e0e0e0" stroke="#999999" points="262.62,-19.25 222.62,-19.25 222.62,0 262.62,0 262.62,-19.25"/>
<text xml:space="preserve" text-anchor="middle" x="242.62" y="-5.75" font-family="Helvetica,sans-Serif" font-size="10.00">mpi.h</text>
</a>
</g>
</g>
<!-- Node8&#45;&gt;Node9 -->
<g id="edge8_Node000008_Node000009" class="edge">
<title>Node8&#45;&gt;Node9</title>
<g id="a_edge8_Node000008_Node000009"><a xlink:title=" ">
<path fill="none" stroke="#63b8ff" d="M362.2,-54.84C337.76,-45.81 300.1,-31.88 273.59,-22.07"/>
<polygon fill="#63b8ff" stroke="#63b8ff" points="274.99,-18.86 264.39,-18.68 272.56,-25.43 274.99,-18.86"/>
</a>
</g>
</g>
<!-- Node10 -->
<g id="Node000010" class="node">
<title>Node10</title>
<g id="a_Node000010"><a xlink:title=" ">
<polygon fill="#e0e0e0" stroke="#999999" points="414.5,-19.25 358.75,-19.25 358.75,0 414.5,0 414.5,-19.25"/>
<text xml:space="preserve" text-anchor="middle" x="386.62" y="-5.75" font-family="Helvetica,sans-Serif" font-size="10.00">stdbool.h</text>
</a>
</g>
</g>
<!-- Node8&#45;&gt;Node10 -->
<g id="edge9_Node000008_Node000010" class="edge">
<title>Node8&#45;&gt;Node10</title>
<g id="a_edge9_Node000008_Node000010"><a xlink:title=" ">
<path fill="none" stroke="#63b8ff" d="M386.62,-55.08C386.62,-48.57 386.62,-39.42 386.62,-31.12"/>
<polygon fill="#63b8ff" stroke="#63b8ff" points="390.13,-31.12 386.63,-21.12 383.13,-31.12 390.13,-31.12"/>
</a>
</g>
</g>
<!-- Node8&#45;&gt;Node11 -->
<g id="edge10_Node000008_Node000011" class="edge">
<title>Node8&#45;&gt;Node11</title>
<g id="a_edge10_Node000008_Node000011"><a xlink:title=" ">
<path fill="none" stroke="#63b8ff" d="M373.9,-54.84C362.91,-47.04 346.78,-35.59 333.69,-26.29"/>
<polygon fill="#63b8ff" stroke="#63b8ff" points="335.82,-23.51 325.64,-20.58 331.77,-29.22 335.82,-23.51"/>
</a>
</g>
</g>
<!-- Node8&#45;&gt;Node12 -->
<g id="edge11_Node000008_Node000012" class="edge">
<title>Node8&#45;&gt;Node12</title>
<g id="a_edge11_Node000008_Node000012"><a xlink:title=" ">
<path fill="none" stroke="#63b8ff" d="M398.67,-54.84C409.03,-47.07 424.23,-35.67 436.59,-26.4"/>
<polygon fill="#63b8ff" stroke="#63b8ff" points="438.65,-29.23 444.55,-20.43 434.45,-23.63 438.65,-29.23"/>
</a>
</g>
</g>
<!-- Node13&#45;&gt;Node2 -->
<g id="edge16_Node000013_Node000002" class="edge">
<title>Node13&#45;&gt;Node2</title>
<g id="a_edge16_Node000013_Node000002"><a xlink:title=" ">
<path fill="none" stroke="#63b8ff" d="M219.5,-115.03C186.12,-106.57 108.72,-86.95 62.45,-75.21"/>
<polygon fill="#63b8ff" stroke="#63b8ff" points="63.42,-71.85 52.87,-72.78 61.7,-78.63 63.42,-71.85"/>
</a>
</g>
</g>
<!-- Node13&#45;&gt;Node3 -->
<g id="edge17_Node000013_Node000003" class="edge">
<title>Node13&#45;&gt;Node3</title>
<g id="a_edge17_Node000013_Node000003"><a xlink:title=" ">
<path fill="none" stroke="#63b8ff" d="M219.44,-112.6C198.96,-104.33 163.18,-89.9 136.79,-79.25"/>
<polygon fill="#63b8ff" stroke="#63b8ff" points="138.12,-76.01 127.53,-75.52 135.5,-82.51 138.12,-76.01"/>
</a>
</g>
</g>
<!-- Node13&#45;&gt;Node4 -->
<g id="edge18_Node000013_Node000004" class="edge">
<title>Node13&#45;&gt;Node4</title>
<g id="a_edge18_Node000013_Node000004"><a xlink:title=" ">
<path fill="none" stroke="#63b8ff" d="M226.71,-110.33C219.17,-102.9 208.16,-92.04 198.9,-82.91"/>
<polygon fill="#63b8ff" stroke="#63b8ff" points="201.39,-80.45 191.81,-75.92 196.48,-85.44 201.39,-80.45"/>
</a>
</g>
</g>
<!-- Node13&#45;&gt;Node8 -->
<g id="edge19_Node000013_Node000008" class="edge">
<title>Node13&#45;&gt;Node8</title>
<g id="a_edge19_Node000013_Node000008"><a xlink:title=" ">
<path fill="none" stroke="#63b8ff" d="M251.78,-113.43C275.13,-105.19 318.92,-89.75 350.26,-78.7"/>
<polygon fill="#63b8ff" stroke="#63b8ff" points="351.09,-82.12 359.35,-75.49 348.76,-75.52 351.09,-82.12"/>
</a>
</g>
</g>
<!-- Node13&#45;&gt;Node9 -->
<g id="edge15_Node000013_Node000009" class="edge">
<title>Node13&#45;&gt;Node9</title>
<g id="a_edge15_Node000013_Node000009"><a xlink:title=" ">
<path fill="none" stroke="#63b8ff" d="M236.2,-110.25C237.31,-93 239.79,-54.58 241.32,-30.81"/>
<polygon fill="#63b8ff" stroke="#63b8ff" points="244.8,-31.34 241.95,-21.14 237.81,-30.89 244.8,-31.34"/>
</a>
</g>
</g>
<!-- Node13&#45;&gt;Node11 -->
<g id="edge20_Node000013_Node000011" class="edge">
<title>Node13&#45;&gt;Node11</title>
<g id="a_edge20_Node000013_Node000011"><a xlink:title=" ">
<path fill="none" stroke="#63b8ff" d="M241.84,-110.25C254.26,-92.52 282.33,-52.44 298.84,-28.88"/>
<polygon fill="#63b8ff" stroke="#63b8ff" points="301.58,-31.06 304.45,-20.87 295.85,-27.05 301.58,-31.06"/>
</a>
</g>
</g>
</g>
</svg>
