<?xml version="1.0" encoding="UTF-8" standalone="no"?>
<!DOCTYPE svg PUBLIC "-//W3C//DTD SVG 1.1//EN"
 "http://www.w3.org/Graphics/SVG/1.1/DTD/svg11.dtd">
<!-- Generated by graphviz version 14.0.0 (20250921.2048)
 -->
<!-- Title: src/common/numerical_func.c Pages: 1 -->
<svg width="628pt" height="149pt"
 viewBox="0.00 0.00 628.00 149.00" xmlns="http://www.w3.org/2000/svg" xmlns:xlink="http://www.w3.org/1999/xlink">
<g id="graph0" class="graph" transform="scale(1 1) rotate(0) translate(4 145)">
<title>src/common/numerical_func.c</title>
<!-- Node1 -->
<g id="Node000001" class="node">
<title>Node1</title>
<g id="a_Node000001"><a xlink:title=" ">
<polygon fill="#999999" stroke="#666666" points="325.38,-141 210.38,-141 210.38,-110.5 325.38,-110.5 325.38,-141"/>
<text xml:space="preserve" text-anchor="start" x="218.38" y="-127.5" font-family="Helvetica,sans-Serif" font-size="10.00">src/common/numerical</text>
<text xml:space="preserve" text-anchor="middle" x="267.88" y="-116.25" font-family="Helvetica,sans-Serif" font-size="10.00">_func.c</text>
</a>
</g>
</g>
<!-- Node2 -->
<g id="Node000002" class="node">
<title>Node2</title>
<g id="a_Node000002"><a xlink:href="../../df/def/numerical__func_8h.html" target="_top" xlink:title=" ">
<polygon fill="white" stroke="#666666" points="109,-74.5 18.75,-74.5 18.75,-55.25 109,-55.25 109,-74.5"/>
<text xml:space="preserve" text-anchor="middle" x="63.88" y="-61" font-family="Helvetica,sans-Serif" font-size="10.00">numerical_func.h</text>
</a>
</g>
</g>
<!-- Node1&#45;&gt;Node2 -->
<g id="edge1_Node000001_Node000002" class="edge">
<title>Node1&#45;&gt;Node2</title>
<g id="a_edge1_Node000001_Node000002"><a xlink:title=" ">
<path fill="none" stroke="#63b8ff" d="M216.92,-110.05C182.83,-100.2 138.47,-87.4 106.3,-78.12"/>
<polygon fill="#63b8ff" stroke="#63b8ff" points="107.49,-74.82 96.91,-75.41 105.55,-81.55 107.49,-74.82"/>
</a>
</g>
</g>
<!-- Node3 -->
<g id="Node000003" class="node">
<title>Node3</title>
<g id="a_Node000003"><a xlink:title=" ">
<polygon fill="#e0e0e0" stroke="#999999" points="55.75,-19.25 0,-19.25 0,0 55.75,0 55.75,-19.25"/>
<text xml:space="preserve" text-anchor="middle" x="27.88" y="-5.75" font-family="Helvetica,sans-Serif" font-size="10.00">stdbool.h</text>
</a>
</g>
</g>
<!-- Node1&#45;&gt;Node3 -->
<g id="edge6_Node000001_Node000003" class="edge">
<title>Node1&#45;&gt;Node3</title>
<g id="a_edge6_Node000001_Node000003"><a xlink:title=" ">
<path fill="none" stroke="#63b8ff" d="M209.94,-121.79C141.78,-116.95 34.72,-104.65 9.88,-74.5 -0.75,-61.6 6.44,-42.82 14.67,-28.96"/>
<polygon fill="#63b8ff" stroke="#63b8ff" points="17.49,-31.04 20.06,-20.76 11.64,-27.19 17.49,-31.04"/>
</a>
</g>
</g>
<!-- Node4 -->
<g id="Node000004" class="node">
<title>Node4</title>
<g id="a_Node000004"><a xlink:href="../../d4/d0a/elph_c_8h.html" target="_top" xlink:title="Core type definitions and configuration for LetzElPhC.">
<polygon fill="white" stroke="#666666" points="296.75,-19.25 247,-19.25 247,0 296.75,0 296.75,-19.25"/>
<text xml:space="preserve" text-anchor="middle" x="271.88" y="-5.75" font-family="Helvetica,sans-Serif" font-size="10.00">elphC.h</text>
</a>
</g>
</g>
<!-- Node1&#45;&gt;Node4 -->
<g id="edge10_Node000001_Node000004" class="edge">
<title>Node1&#45;&gt;Node4</title>
<g id="a_edge10_Node000001_Node000004"><a xlink:title=" ">
<path fill="none" stroke="#63b8ff" d="M210.08,-111.61C173.95,-100.49 137.48,-82.04 155.88,-55.25 173.64,-29.37 208.68,-18.5 235.61,-13.93"/>
<polygon fill="#63b8ff" stroke="#63b8ff" points="236.07,-17.4 245.46,-12.5 235.06,-10.47 236.07,-17.4"/>
</a>
</g>
</g>
<!-- Node5 -->
<g id="Node000005" class="node">
<title>Node5</title>
<g id="a_Node000005"><a xlink:title=" ">
<polygon fill="#e0e0e0" stroke="#999999" points="226.38,-74.5 165.38,-74.5 165.38,-55.25 226.38,-55.25 226.38,-74.5"/>
<text xml:space="preserve" text-anchor="middle" x="195.88" y="-61" font-family="Helvetica,sans-Serif" font-size="10.00">complex.h</text>
</a>
</g>
</g>
<!-- Node1&#45;&gt;Node5 -->
<g id="edge4_Node000001_Node000005" class="edge">
<title>Node1&#45;&gt;Node5</title>
<g id="a_edge4_Node000001_Node000005"><a xlink:title=" ">
<path fill="none" stroke="#63b8ff" d="M250.08,-110.2C239.64,-101.66 226.44,-90.87 215.67,-82.06"/>
<polygon fill="#63b8ff" stroke="#63b8ff" points="218.1,-79.53 208.15,-75.91 213.67,-84.95 218.1,-79.53"/>
</a>
</g>
</g>
<!-- Node6 -->
<g id="Node000006" class="node">
<title>Node6</title>
<g id="a_Node000006"><a xlink:title=" ">
<polygon fill="#e0e0e0" stroke="#999999" points="290.88,-74.5 244.88,-74.5 244.88,-55.25 290.88,-55.25 290.88,-74.5"/>
<text xml:space="preserve" text-anchor="middle" x="267.88" y="-61" font-family="Helvetica,sans-Serif" font-size="10.00">math.h</text>
</a>
</g>
</g>
<!-- Node1&#45;&gt;Node6 -->
<g id="edge5_Node000001_Node000006" class="edge">
<title>Node1&#45;&gt;Node6</title>
<g id="a_edge5_Node000001_Node000006"><a xlink:title=" ">
<path fill="none" stroke="#63b8ff" d="M267.88,-110.2C267.88,-102.96 267.88,-94.09 267.88,-86.19"/>
<polygon fill="#63b8ff" stroke="#63b8ff" points="271.38,-86.46 267.88,-76.46 264.38,-86.46 271.38,-86.46"/>
</a>
</g>
</g>
<!-- Node7 -->
<g id="Node000007" class="node">
<title>Node7</title>
<g id="a_Node000007"><a xlink:title=" ">
<polygon fill="#e0e0e0" stroke="#999999" points="356.62,-74.5 309.12,-74.5 309.12,-55.25 356.62,-55.25 356.62,-74.5"/>
<text xml:space="preserve" text-anchor="middle" x="332.88" y="-61" font-family="Helvetica,sans-Serif" font-size="10.00">stdlib.h</text>
</a>
</g>
</g>
<!-- Node1&#45;&gt;Node7 -->
<g id="edge7_Node000001_Node000007" class="edge">
<title>Node1&#45;&gt;Node7</title>
<g id="a_edge7_Node000001_Node000007"><a xlink:title=" ">
<path fill="none" stroke="#63b8ff" d="M283.94,-110.2C293.17,-101.84 304.8,-91.3 314.41,-82.6"/>
<polygon fill="#63b8ff" stroke="#63b8ff" points="316.67,-85.27 321.73,-75.97 311.97,-80.09 316.67,-85.27"/>
</a>
</g>
</g>
<!-- Node8 -->
<g id="Node000008" class="node">
<title>Node8</title>
<g id="a_Node000008"><a xlink:href="../../d2/d6f/constants_8h.html" target="_top" xlink:title=" ">
<polygon fill="white" stroke="#666666" points="441.38,-74.5 374.38,-74.5 374.38,-55.25 441.38,-55.25 441.38,-74.5"/>
<text xml:space="preserve" text-anchor="middle" x="407.88" y="-61" font-family="Helvetica,sans-Serif" font-size="10.00">constants.h</text>
</a>
</g>
</g>
<!-- Node1&#45;&gt;Node8 -->
<g id="edge8_Node000001_Node000008" class="edge">
<title>Node1&#45;&gt;Node8</title>
<g id="a_edge8_Node000001_Node000008"><a xlink:title=" ">
<path fill="none" stroke="#63b8ff" d="M302.84,-110.05C325.29,-100.6 354.21,-88.44 376.02,-79.27"/>
<polygon fill="#63b8ff" stroke="#63b8ff" points="377.15,-82.59 385.01,-75.49 374.43,-76.14 377.15,-82.59"/>
</a>
</g>
</g>
<!-- Node9 -->
<g id="Node000009" class="node">
<title>Node9</title>
<g id="a_Node000009"><a xlink:href="../../da/d41/error_8h.html" target="_top" xlink:title=" ">
<polygon fill="white" stroke="#666666" points="502.38,-74.5 459.38,-74.5 459.38,-55.25 502.38,-55.25 502.38,-74.5"/>
<text xml:space="preserve" text-anchor="middle" x="480.88" y="-61" font-family="Helvetica,sans-Serif" font-size="10.00">error.h</text>
</a>
</g>
</g>
<!-- Node1&#45;&gt;Node9 -->
<g id="edge11_Node000001_Node000009" class="edge">
<title>Node1&#45;&gt;Node9</title>
<g id="a_edge11_Node000001_Node000009"><a xlink:title=" ">
<path fill="none" stroke="#63b8ff" d="M321.97,-110.08C355.86,-100.84 400.73,-88.55 448.13,-75.25"/>
<polygon fill="#63b8ff" stroke="#63b8ff" points="448.79,-78.7 457.47,-72.63 446.9,-71.96 448.79,-78.7"/>
</a>
</g>
</g>
<!-- Node10 -->
<g id="Node000010" class="node">
<title>Node10</title>
<g id="a_Node000010"><a xlink:href="../../d2/d8d/omp__pragma__def_8h.html" target="_top" xlink:title=" ">
<polygon fill="white" stroke="#666666" points="619.5,-74.5 520.25,-74.5 520.25,-55.25 619.5,-55.25 619.5,-74.5"/>
<text xml:space="preserve" text-anchor="middle" x="569.88" y="-61" font-family="Helvetica,sans-Serif" font-size="10.00">omp_pragma_def.h</text>
</a>
</g>
</g>
<!-- Node1&#45;&gt;Node10 -->
<g id="edge12_Node000001_Node000010" class="edge">
<title>Node1&#45;&gt;Node10</title>
<g id="a_edge12_Node000001_Node000010"><a xlink:title=" ">
<path fill="none" stroke="#63b8ff" d="M325.75,-113.47C379.31,-103.03 458.53,-87.58 512.07,-77.14"/>
<polygon fill="#63b8ff" stroke="#63b8ff" points="512.46,-80.63 521.61,-75.29 511.12,-73.76 512.46,-80.63"/>
</a>
</g>
</g>
<!-- Node2&#45;&gt;Node3 -->
<g id="edge2_Node000002_Node000003" class="edge">
<title>Node2&#45;&gt;Node3</title>
<g id="a_edge2_Node000002_Node000003"><a xlink:title=" ">
<path fill="none" stroke="#63b8ff" d="M57.93,-55.08C53.16,-48.03 46.31,-37.9 40.35,-29.08"/>
<polygon fill="#63b8ff" stroke="#63b8ff" points="43.3,-27.19 34.8,-20.86 37.5,-31.11 43.3,-27.19"/>
</a>
</g>
</g>
<!-- Node2&#45;&gt;Node4 -->
<g id="edge3_Node000002_Node000004" class="edge">
<title>Node2&#45;&gt;Node4</title>
<g id="a_edge3_Node000002_Node000004"><a xlink:title=" ">
<path fill="none" stroke="#63b8ff" d="M99.16,-54.84C137.24,-45.09 197.57,-29.65 235.92,-19.83"/>
<polygon fill="#63b8ff" stroke="#63b8ff" points="236.3,-23.35 245.12,-17.47 234.56,-16.56 236.3,-23.35"/>
</a>
</g>
</g>
<!-- Node8&#45;&gt;Node4 -->
<g id="edge9_Node000008_Node000004" class="edge">
<title>Node8&#45;&gt;Node4</title>
<g id="a_edge9_Node000008_Node000004"><a xlink:title=" ">
<path fill="none" stroke="#63b8ff" d="M384.8,-54.84C363.12,-46.35 330.39,-33.54 305.75,-23.89"/>
<polygon fill="#63b8ff" stroke="#63b8ff" points="307.06,-20.64 296.47,-20.25 304.5,-27.16 307.06,-20.64"/>
</a>
</g>
</g>
<!-- Node10&#45;&gt;Node4 -->
<g id="edge13_Node000010_Node000004" class="edge">
<title>Node10&#45;&gt;Node4</title>
<g id="a_edge13_Node000010_Node000004"><a xlink:title=" ">
<path fill="none" stroke="#63b8ff" d="M520,-54.96C460.23,-44.28 361.52,-26.64 308.41,-17.15"/>
<polygon fill="#63b8ff" stroke="#63b8ff" points="309.12,-13.73 298.66,-15.41 307.89,-20.62 309.12,-13.73"/>
</a>
</g>
</g>
</g>
</svg>
