<?xml version="1.0" encoding="UTF-8" standalone="no"?>
<!DOCTYPE svg PUBLIC "-//W3C//DTD SVG 1.1//EN"
 "http://www.w3.org/Graphics/SVG/1.1/DTD/svg11.dtd">
<!-- Generated by graphviz version 14.0.0 (20250921.2048)
 -->
<!-- Title: src/common/progess_bar.h Pages: 1 -->
<svg width="398pt" height="105pt"
 viewBox="0.00 0.00 398.00 105.00" xmlns="http://www.w3.org/2000/svg" xmlns:xlink="http://www.w3.org/1999/xlink">
<g id="graph0" class="graph" transform="scale(1 1) rotate(0) translate(4 101)">
<title>src/common/progess_bar.h</title>
<!-- Node1 -->
<g id="Node000001" class="node">
<title>Node1</title>
<g id="a_Node000001"><a xlink:title=" ">
<polygon fill="#999999" stroke="#666666" points="245.5,-97 138,-97 138,-66.5 245.5,-66.5 245.5,-97"/>
<text xml:space="preserve" text-anchor="start" x="146" y="-83.5" font-family="Helvetica,sans-Serif" font-size="10.00">src/common/progess</text>
<text xml:space="preserve" text-anchor="middle" x="191.75" y="-72.25" font-family="Helvetica,sans-Serif" font-size="10.00">_bar.h</text>
</a>
</g>
</g>
<!-- Node2 -->
<g id="Node000002" class="node">
<title>Node2</title>
<g id="a_Node000002"><a xlink:href="../../df/dc3/progess__bar_8c.html" target="_top" xlink:title=" ">
<polygon fill="white" stroke="#666666" points="107.5,-30.5 0,-30.5 0,0 107.5,0 107.5,-30.5"/>
<text xml:space="preserve" text-anchor="start" x="8" y="-17" font-family="Helvetica,sans-Serif" font-size="10.00">src/common/progess</text>
<text xml:space="preserve" text-anchor="middle" x="53.75" y="-5.75" font-family="Helvetica,sans-Serif" font-size="10.00">_bar.c</text>
</a>
</g>
</g>
<!-- Node1&#45;&gt;Node2 -->
<g id="edge1_Node000001_Node000002" class="edge">
<title>Node1&#45;&gt;Node2</title>
<g id="a_edge1_Node000001_Node000002"><a xlink:title=" ">
<path fill="none" stroke="#63b8ff" d="M150.2,-61.33C129.24,-51.53 104.24,-39.85 84.94,-30.83"/>
<polygon fill="#63b8ff" stroke="#63b8ff" points="148.52,-64.41 159.06,-65.47 151.49,-58.07 148.52,-64.41"/>
</a>
</g>
</g>
<!-- Node3 -->
<g id="Node000003" class="node">
<title>Node3</title>
<g id="a_Node000003"><a xlink:href="../../d5/d9f/compute__dmats_8c.html" target="_top" xlink:title=" ">
<polygon fill="white" stroke="#666666" points="257.5,-24.88 126,-24.88 126,-5.63 257.5,-5.63 257.5,-24.88"/>
<text xml:space="preserve" text-anchor="middle" x="191.75" y="-11.38" font-family="Helvetica,sans-Serif" font-size="10.00">src/elph/compute_dmats.c</text>
</a>
</g>
</g>
<!-- Node1&#45;&gt;Node3 -->
<g id="edge2_Node000001_Node000003" class="edge">
<title>Node1&#45;&gt;Node3</title>
<g id="a_edge2_Node000001_Node000003"><a xlink:title=" ">
<path fill="none" stroke="#63b8ff" d="M191.75,-54.84C191.75,-44.26 191.75,-32.75 191.75,-25.07"/>
<polygon fill="#63b8ff" stroke="#63b8ff" points="188.25,-54.6 191.75,-64.6 195.25,-54.6 188.25,-54.6"/>
</a>
</g>
</g>
<!-- Node4 -->
<g id="Node000004" class="node">
<title>Node4</title>
<g id="a_Node000004"><a xlink:href="../../d5/dd2/compute__elph__matq_8c.html" target="_top" xlink:title=" ">
<polygon fill="white" stroke="#666666" points="389.88,-30.5 275.62,-30.5 275.62,0 389.88,0 389.88,-30.5"/>
<text xml:space="preserve" text-anchor="start" x="283.62" y="-17" font-family="Helvetica,sans-Serif" font-size="10.00">src/elph/compute_elph</text>
<text xml:space="preserve" text-anchor="middle" x="332.75" y="-5.75" font-family="Helvetica,sans-Serif" font-size="10.00">_matq.c</text>
</a>
</g>
</g>
<!-- Node1&#45;&gt;Node4 -->
<g id="edge3_Node000001_Node000004" class="edge">
<title>Node1&#45;&gt;Node4</title>
<g id="a_edge3_Node000001_Node000004"><a xlink:title=" ">
<path fill="none" stroke="#63b8ff" d="M234.2,-61.33C255.62,-51.53 281.17,-39.85 300.88,-30.83"/>
<polygon fill="#63b8ff" stroke="#63b8ff" points="232.76,-58.14 225.12,-65.48 235.67,-64.51 232.76,-58.14"/>
</a>
</g>
</g>
</g>
</svg>
