<?xml version="1.0" encoding="UTF-8" standalone="no"?>
<!DOCTYPE svg PUBLIC "-//W3C//DTD SVG 1.1//EN"
 "http://www.w3.org/Graphics/SVG/1.1/DTD/svg11.dtd">
<!-- Generated by graphviz version 14.0.0 (20250921.2048)
 -->
<!-- Title: src/dvloc/dVbare_loc.c Pages: 1 -->
<svg width="1049pt" height="193pt"
 viewBox="0.00 0.00 1049.00 193.00" xmlns="http://www.w3.org/2000/svg" xmlns:xlink="http://www.w3.org/1999/xlink">
<g id="graph0" class="graph" transform="scale(1 1) rotate(0) translate(4 189)">
<title>src/dvloc/dVbare_loc.c</title>
<!-- Node1 -->
<g id="Node000001" class="node">
<title>Node1</title>
<g id="a_Node000001"><a xlink:title=" ">
<polygon fill="#999999" stroke="#666666" points="607.34,-185 491.59,-185 491.59,-165.75 607.34,-165.75 607.34,-185"/>
<text xml:space="preserve" text-anchor="middle" x="549.47" y="-171.5" font-family="Helvetica,sans-Serif" font-size="10.00">src/dvloc/dVbare_loc.c</text>
</a>
</g>
</g>
<!-- Node2 -->
<g id="Node000002" class="node">
<title>Node2</title>
<g id="a_Node000002"><a xlink:title=" ">
<polygon fill="#e0e0e0" stroke="#999999" points="130.97,-19.25 69.97,-19.25 69.97,0 130.97,0 130.97,-19.25"/>
<text xml:space="preserve" text-anchor="middle" x="100.47" y="-5.75" font-family="Helvetica,sans-Serif" font-size="10.00">complex.h</text>
</a>
</g>
</g>
<!-- Node1&#45;&gt;Node2 -->
<g id="edge1_Node000001_Node000002" class="edge">
<title>Node1&#45;&gt;Node2</title>
<g id="a_edge1_Node000001_Node000002"><a xlink:title=" ">
<path fill="none" stroke="#63b8ff" d="M491.19,-173.29C380.84,-170.53 145.78,-161.06 71.47,-129.75 30.97,-112.69 -17.02,-92.39 6.47,-55.25 18.06,-36.91 39.46,-25.96 58.92,-19.5"/>
<polygon fill="#63b8ff" stroke="#63b8ff" points="59.72,-22.91 68.31,-16.7 57.73,-16.2 59.72,-22.91"/>
</a>
</g>
</g>
<!-- Node3 -->
<g id="Node000003" class="node">
<title>Node3</title>
<g id="a_Node000003"><a xlink:title=" ">
<polygon fill="#e0e0e0" stroke="#999999" points="834.47,-129.75 788.47,-129.75 788.47,-110.5 834.47,-110.5 834.47,-129.75"/>
<text xml:space="preserve" text-anchor="middle" x="811.47" y="-116.25" font-family="Helvetica,sans-Serif" font-size="10.00">math.h</text>
</a>
</g>
</g>
<!-- Node1&#45;&gt;Node3 -->
<g id="edge2_Node000001_Node000003" class="edge">
<title>Node1&#45;&gt;Node3</title>
<g id="a_edge2_Node000001_Node000003"><a xlink:title=" ">
<path fill="none" stroke="#63b8ff" d="M597.84,-165.26C643.47,-156.55 713.74,-142.85 774.47,-129.75 775.29,-129.57 776.12,-129.39 776.96,-129.21"/>
<polygon fill="#63b8ff" stroke="#63b8ff" points="777.54,-132.66 786.53,-127.05 776,-125.84 777.54,-132.66"/>
</a>
</g>
</g>
<!-- Node4 -->
<g id="Node000004" class="node">
<title>Node4</title>
<g id="a_Node000004"><a xlink:title=" ">
<polygon fill="#e0e0e0" stroke="#999999" points="900.22,-129.75 852.72,-129.75 852.72,-110.5 900.22,-110.5 900.22,-129.75"/>
<text xml:space="preserve" text-anchor="middle" x="876.47" y="-116.25" font-family="Helvetica,sans-Serif" font-size="10.00">stdlib.h</text>
</a>
</g>
</g>
<!-- Node1&#45;&gt;Node4 -->
<g id="edge3_Node000001_Node000004" class="edge">
<title>Node1&#45;&gt;Node4</title>
<g id="a_edge3_Node000001_Node000004"><a xlink:title=" ">
<path fill="none" stroke="#63b8ff" d="M607.8,-167.36C664.91,-160.07 754.58,-147.55 841.28,-130.01"/>
<polygon fill="#63b8ff" stroke="#63b8ff" points="841.81,-133.47 850.9,-128.04 840.4,-126.62 841.81,-133.47"/>
</a>
</g>
</g>
<!-- Node5 -->
<g id="Node000005" class="node">
<title>Node5</title>
<g id="a_Node000005"><a xlink:href="../../de/d83/_e_l_p_h__timers_8h.html" target="_top" xlink:title=" ">
<polygon fill="white" stroke="#666666" points="1041.09,-129.75 917.84,-129.75 917.84,-110.5 1041.09,-110.5 1041.09,-129.75"/>
<text xml:space="preserve" text-anchor="middle" x="979.47" y="-116.25" font-family="Helvetica,sans-Serif" font-size="10.00">common/ELPH_timers.h</text>
</a>
</g>
</g>
<!-- Node1&#45;&gt;Node5 -->
<g id="edge4_Node000001_Node000005" class="edge">
<title>Node1&#45;&gt;Node5</title>
<g id="a_edge4_Node000001_Node000005"><a xlink:title=" ">
<path fill="none" stroke="#63b8ff" d="M607.46,-167.19C684.82,-157.61 821.83,-140.65 906.24,-130.19"/>
<polygon fill="#63b8ff" stroke="#63b8ff" points="906.54,-133.68 916.03,-128.98 905.68,-126.74 906.54,-133.68"/>
</a>
</g>
</g>
<!-- Node6 -->
<g id="Node000006" class="node">
<title>Node6</title>
<g id="a_Node000006"><a xlink:href="../../d2/d6f/constants_8h.html" target="_top" xlink:title=" ">
<polygon fill="white" stroke="#666666" points="289.22,-74.5 181.72,-74.5 181.72,-55.25 289.22,-55.25 289.22,-74.5"/>
<text xml:space="preserve" text-anchor="middle" x="235.47" y="-61" font-family="Helvetica,sans-Serif" font-size="10.00">common/constants.h</text>
</a>
</g>
</g>
<!-- Node1&#45;&gt;Node6 -->
<g id="edge5_Node000001_Node000006" class="edge">
<title>Node1&#45;&gt;Node6</title>
<g id="a_edge5_Node000001_Node000006"><a xlink:title=" ">
<path fill="none" stroke="#63b8ff" d="M523.23,-165.31C467.48,-146.04 337.02,-100.97 272.69,-78.74"/>
<polygon fill="#63b8ff" stroke="#63b8ff" points="273.87,-75.44 263.27,-75.48 271.58,-82.06 273.87,-75.44"/>
</a>
</g>
</g>
<!-- Node7 -->
<g id="Node000007" class="node">
<title>Node7</title>
<g id="a_Node000007"><a xlink:href="../../d4/d0a/elph_c_8h.html" target="_top" xlink:title="Core type definitions and configuration for LetzElPhC.">
<polygon fill="white" stroke="#666666" points="405.34,-19.25 355.59,-19.25 355.59,0 405.34,0 405.34,-19.25"/>
<text xml:space="preserve" text-anchor="middle" x="380.47" y="-5.75" font-family="Helvetica,sans-Serif" font-size="10.00">elphC.h</text>
</a>
</g>
</g>
<!-- Node1&#45;&gt;Node7 -->
<g id="edge26_Node000001_Node000007" class="edge">
<title>Node1&#45;&gt;Node7</title>
<g id="a_edge26_Node000001_Node000007"><a xlink:title=" ">
<path fill="none" stroke="#63b8ff" d="M491.52,-172.58C365.75,-167.33 74.21,-147.39 14.47,-74.5 9.04,-67.88 8.75,-61.62 14.47,-55.25 61.9,-2.39 255.73,-29.78 344.06,-19.11"/>
<polygon fill="#63b8ff" stroke="#63b8ff" points="344.43,-22.59 353.8,-17.65 343.4,-15.67 344.43,-22.59"/>
</a>
</g>
</g>
<!-- Node8 -->
<g id="Node000008" class="node">
<title>Node8</title>
<g id="a_Node000008"><a xlink:href="../../d2/d02/dtypes_8h.html" target="_top" xlink:title=" ">
<polygon fill="white" stroke="#666666" points="726.47,-74.5 632.47,-74.5 632.47,-55.25 726.47,-55.25 726.47,-74.5"/>
<text xml:space="preserve" text-anchor="middle" x="679.47" y="-61" font-family="Helvetica,sans-Serif" font-size="10.00">common/dtypes.h</text>
</a>
</g>
</g>
<!-- Node1&#45;&gt;Node8 -->
<g id="edge7_Node000001_Node000008" class="edge">
<title>Node1&#45;&gt;Node8</title>
<g id="a_edge7_Node000001_Node000008"><a xlink:title=" ">
<path fill="none" stroke="#63b8ff" d="M607.83,-166.81C631.47,-160.7 656.82,-149.67 672.47,-129.75 682.07,-117.53 683.29,-99.69 682.41,-85.96"/>
<polygon fill="#63b8ff" stroke="#63b8ff" points="685.92,-85.86 681.36,-76.3 678.96,-86.62 685.92,-85.86"/>
</a>
</g>
</g>
<!-- Node11 -->
<g id="Node000011" class="node">
<title>Node11</title>
<g id="a_Node000011"><a xlink:href="../../da/d41/error_8h.html" target="_top" xlink:title=" ">
<polygon fill="white" stroke="#666666" points="778.97,-19.25 735.97,-19.25 735.97,0 778.97,0 778.97,-19.25"/>
<text xml:space="preserve" text-anchor="middle" x="757.47" y="-5.75" font-family="Helvetica,sans-Serif" font-size="10.00">error.h</text>
</a>
</g>
</g>
<!-- Node1&#45;&gt;Node11 -->
<g id="edge12_Node000001_Node000011" class="edge">
<title>Node1&#45;&gt;Node11</title>
<g id="a_edge12_Node000001_Node000011"><a xlink:title=" ">
<path fill="none" stroke="#63b8ff" d="M594.68,-165.3C623.4,-158.31 660.63,-146.88 690.47,-129.75 722.19,-111.54 735.09,-107.21 751.47,-74.5 758.27,-60.91 759.53,-43.67 759.21,-30.53"/>
<polygon fill="#63b8ff" stroke="#63b8ff" points="762.73,-30.72 758.66,-20.94 755.74,-31.13 762.73,-30.72"/>
</a>
</g>
</g>
<!-- Node12 -->
<g id="Node000012" class="node">
<title>Node12</title>
<g id="a_Node000012"><a xlink:href="../../df/def/numerical__func_8h.html" target="_top" xlink:title=" ">
<polygon fill="white" stroke="#666666" points="538.84,-74.5 408.09,-74.5 408.09,-55.25 538.84,-55.25 538.84,-74.5"/>
<text xml:space="preserve" text-anchor="middle" x="473.47" y="-61" font-family="Helvetica,sans-Serif" font-size="10.00">common/numerical_func.h</text>
</a>
</g>
</g>
<!-- Node1&#45;&gt;Node12 -->
<g id="edge13_Node000001_Node000012" class="edge">
<title>Node1&#45;&gt;Node12</title>
<g id="a_edge13_Node000001_Node000012"><a xlink:title=" ">
<path fill="none" stroke="#63b8ff" d="M532.92,-165.3C520.12,-157.47 502.86,-145.02 492.47,-129.75 483.58,-116.71 478.77,-99.43 476.22,-86.13"/>
<polygon fill="#63b8ff" stroke="#63b8ff" points="479.69,-85.68 474.64,-76.36 472.78,-86.79 479.69,-85.68"/>
</a>
</g>
</g>
<!-- Node13 -->
<g id="Node000013" class="node">
<title>Node13</title>
<g id="a_Node000013"><a xlink:href="../../d2/d8d/omp__pragma__def_8h.html" target="_top" xlink:title=" ">
<polygon fill="white" stroke="#666666" points="163.34,-74.5 23.59,-74.5 23.59,-55.25 163.34,-55.25 163.34,-74.5"/>
<text xml:space="preserve" text-anchor="middle" x="93.47" y="-61" font-family="Helvetica,sans-Serif" font-size="10.00">common/omp_pragma_def.h</text>
</a>
</g>
</g>
<!-- Node1&#45;&gt;Node13 -->
<g id="edge16_Node000001_Node000013" class="edge">
<title>Node1&#45;&gt;Node13</title>
<g id="a_edge16_Node000001_Node000013"><a xlink:title=" ">
<path fill="none" stroke="#63b8ff" d="M511.37,-165.31C429.06,-145.73 234.64,-99.47 142.96,-77.65"/>
<polygon fill="#63b8ff" stroke="#63b8ff" points="143.78,-74.25 133.24,-75.34 142.16,-81.06 143.78,-74.25"/>
</a>
</g>
</g>
<!-- Node14 -->
<g id="Node000014" class="node">
<title>Node14</title>
<g id="a_Node000014"><a xlink:href="../../df/d5c/parallel_8h.html" target="_top" xlink:title=" ">
<polygon fill="white" stroke="#666666" points="597.22,-129.75 501.72,-129.75 501.72,-110.5 597.22,-110.5 597.22,-129.75"/>
<text xml:space="preserve" text-anchor="middle" x="549.47" y="-116.25" font-family="Helvetica,sans-Serif" font-size="10.00">common/parallel.h</text>
</a>
</g>
</g>
<!-- Node1&#45;&gt;Node14 -->
<g id="edge18_Node000001_Node000014" class="edge">
<title>Node1&#45;&gt;Node14</title>
<g id="a_edge18_Node000001_Node000014"><a xlink:title=" ">
<path fill="none" stroke="#63b8ff" d="M549.47,-165.58C549.47,-159.07 549.47,-149.92 549.47,-141.62"/>
<polygon fill="#63b8ff" stroke="#63b8ff" points="552.97,-141.62 549.47,-131.62 545.97,-141.62 552.97,-141.62"/>
</a>
</g>
</g>
<!-- Node15 -->
<g id="Node000015" class="node">
<title>Node15</title>
<g id="a_Node000015"><a xlink:href="../../d8/dc9/dvloc_8h.html" target="_top" xlink:title=" ">
<polygon fill="white" stroke="#666666" points="663.22,-129.75 615.72,-129.75 615.72,-110.5 663.22,-110.5 663.22,-129.75"/>
<text xml:space="preserve" text-anchor="middle" x="639.47" y="-116.25" font-family="Helvetica,sans-Serif" font-size="10.00">dvloc.h</text>
</a>
</g>
</g>
<!-- Node1&#45;&gt;Node15 -->
<g id="edge22_Node000001_Node000015" class="edge">
<title>Node1&#45;&gt;Node15</title>
<g id="a_edge22_Node000001_Node000015"><a xlink:title=" ">
<path fill="none" stroke="#63b8ff" d="M564.73,-165.34C578.31,-157.31 598.42,-145.41 614.36,-135.98"/>
<polygon fill="#63b8ff" stroke="#63b8ff" points="616,-139.08 622.82,-130.97 612.43,-133.05 616,-139.08"/>
</a>
</g>
</g>
<!-- Node16 -->
<g id="Node000016" class="node">
<title>Node16</title>
<g id="a_Node000016"><a xlink:href="../../d7/d76/fft_8h.html" target="_top" xlink:title=" ">
<polygon fill="white" stroke="#666666" points="352.09,-74.5 306.84,-74.5 306.84,-55.25 352.09,-55.25 352.09,-74.5"/>
<text xml:space="preserve" text-anchor="middle" x="329.47" y="-61" font-family="Helvetica,sans-Serif" font-size="10.00">fft/fft.h</text>
</a>
</g>
</g>
<!-- Node1&#45;&gt;Node16 -->
<g id="edge27_Node000001_Node000016" class="edge">
<title>Node1&#45;&gt;Node16</title>
<g id="a_edge27_Node000001_Node000016"><a xlink:title=" ">
<path fill="none" stroke="#63b8ff" d="M531.09,-165.31C492.75,-146.4 404.01,-102.64 358.11,-80"/>
<polygon fill="#63b8ff" stroke="#63b8ff" points="359.82,-76.94 349.3,-75.66 356.72,-83.22 359.82,-76.94"/>
</a>
</g>
</g>
<!-- Node6&#45;&gt;Node7 -->
<g id="edge6_Node000006_Node000007" class="edge">
<title>Node6&#45;&gt;Node7</title>
<g id="a_edge6_Node000006_Node000007"><a xlink:title=" ">
<path fill="none" stroke="#63b8ff" d="M260.06,-54.84C283.39,-46.27 318.7,-33.31 345.06,-23.63"/>
<polygon fill="#63b8ff" stroke="#63b8ff" points="346.15,-26.96 354.33,-20.22 343.73,-20.39 346.15,-26.96"/>
</a>
</g>
</g>
<!-- Node8&#45;&gt;Node7 -->
<g id="edge10_Node000008_Node000007" class="edge">
<title>Node8&#45;&gt;Node7</title>
<g id="a_edge10_Node000008_Node000007"><a xlink:title=" ">
<path fill="none" stroke="#63b8ff" d="M632.09,-55.44C572.26,-44.78 470.63,-26.68 416.65,-17.07"/>
<polygon fill="#63b8ff" stroke="#63b8ff" points="417.53,-13.67 407.07,-15.36 416.3,-20.56 417.53,-13.67"/>
</a>
</g>
</g>
<!-- Node9 -->
<g id="Node000009" class="node">
<title>Node9</title>
<g id="a_Node000009"><a xlink:title=" ">
<polygon fill="#e0e0e0" stroke="#999999" points="586.47,-19.25 546.47,-19.25 546.47,0 586.47,0 586.47,-19.25"/>
<text xml:space="preserve" text-anchor="middle" x="566.47" y="-5.75" font-family="Helvetica,sans-Serif" font-size="10.00">mpi.h</text>
</a>
</g>
</g>
<!-- Node8&#45;&gt;Node9 -->
<g id="edge8_Node000008_Node000009" class="edge">
<title>Node8&#45;&gt;Node9</title>
<g id="a_edge8_Node000008_Node000009"><a xlink:title=" ">
<path fill="none" stroke="#63b8ff" d="M660.3,-54.84C642.68,-46.54 616.31,-34.11 596,-24.54"/>
<polygon fill="#63b8ff" stroke="#63b8ff" points="597.64,-21.44 587.1,-20.35 594.65,-27.78 597.64,-21.44"/>
</a>
</g>
</g>
<!-- Node10 -->
<g id="Node000010" class="node">
<title>Node10</title>
<g id="a_Node000010"><a xlink:title=" ">
<polygon fill="#e0e0e0" stroke="#999999" points="683.34,-19.25 627.59,-19.25 627.59,0 683.34,0 683.34,-19.25"/>
<text xml:space="preserve" text-anchor="middle" x="655.47" y="-5.75" font-family="Helvetica,sans-Serif" font-size="10.00">stdbool.h</text>
</a>
</g>
</g>
<!-- Node8&#45;&gt;Node10 -->
<g id="edge9_Node000008_Node000010" class="edge">
<title>Node8&#45;&gt;Node10</title>
<g id="a_edge9_Node000008_Node000010"><a xlink:title=" ">
<path fill="none" stroke="#63b8ff" d="M675.5,-55.08C672.43,-48.26 668.05,-38.56 664.18,-29.95"/>
<polygon fill="#63b8ff" stroke="#63b8ff" points="667.44,-28.67 660.14,-20.99 661.06,-31.54 667.44,-28.67"/>
</a>
</g>
</g>
<!-- Node8&#45;&gt;Node11 -->
<g id="edge11_Node000008_Node000011" class="edge">
<title>Node8&#45;&gt;Node11</title>
<g id="a_edge11_Node000008_Node000011"><a xlink:title=" ">
<path fill="none" stroke="#63b8ff" d="M692.7,-54.84C704.24,-46.96 721.23,-35.36 734.92,-26.02"/>
<polygon fill="#63b8ff" stroke="#63b8ff" points="736.63,-29.08 742.92,-20.56 732.69,-23.3 736.63,-29.08"/>
</a>
</g>
</g>
<!-- Node12&#45;&gt;Node7 -->
<g id="edge15_Node000012_Node000007" class="edge">
<title>Node12&#45;&gt;Node7</title>
<g id="a_edge15_Node000012_Node000007"><a xlink:title=" ">
<path fill="none" stroke="#63b8ff" d="M457.69,-54.84C443.53,-46.73 422.48,-34.68 405.94,-25.21"/>
<polygon fill="#63b8ff" stroke="#63b8ff" points="408.05,-22.39 397.63,-20.45 404.57,-28.46 408.05,-22.39"/>
</a>
</g>
</g>
<!-- Node12&#45;&gt;Node10 -->
<g id="edge14_Node000012_Node000010" class="edge">
<title>Node12&#45;&gt;Node10</title>
<g id="a_edge14_Node000012_Node000010"><a xlink:title=" ">
<path fill="none" stroke="#63b8ff" d="M504.34,-54.84C535.23,-45.8 582.85,-31.87 616.36,-22.07"/>
<polygon fill="#63b8ff" stroke="#63b8ff" points="617.07,-25.51 625.69,-19.34 615.11,-18.79 617.07,-25.51"/>
</a>
</g>
</g>
<!-- Node13&#45;&gt;Node7 -->
<g id="edge17_Node000013_Node000007" class="edge">
<title>Node13&#45;&gt;Node7</title>
<g id="a_edge17_Node000013_Node000007"><a xlink:title=" ">
<path fill="none" stroke="#63b8ff" d="M152.24,-54.77C201.16,-46.91 272.87,-34.72 344.27,-19.59"/>
<polygon fill="#63b8ff" stroke="#63b8ff" points="344.74,-23.07 353.78,-17.56 343.27,-16.23 344.74,-23.07"/>
</a>
</g>
</g>
<!-- Node14&#45;&gt;Node7 -->
<g id="edge21_Node000014_Node000007" class="edge">
<title>Node14&#45;&gt;Node7</title>
<g id="a_edge21_Node000014_Node000007"><a xlink:title=" ">
<path fill="none" stroke="#63b8ff" d="M501.55,-116.51C468.7,-112.22 426.36,-101.4 399.47,-74.5 387.94,-62.97 383.35,-44.79 381.55,-30.77"/>
<polygon fill="#63b8ff" stroke="#63b8ff" points="385.04,-30.54 380.69,-20.88 378.06,-31.14 385.04,-30.54"/>
</a>
</g>
</g>
<!-- Node14&#45;&gt;Node8 -->
<g id="edge20_Node000014_Node000008" class="edge">
<title>Node14&#45;&gt;Node8</title>
<g id="a_edge20_Node000014_Node000008"><a xlink:title=" ">
<path fill="none" stroke="#63b8ff" d="M571.52,-110.09C592.16,-101.64 623.25,-88.9 646.77,-79.27"/>
<polygon fill="#63b8ff" stroke="#63b8ff" points="647.98,-82.56 655.9,-75.53 645.32,-76.08 647.98,-82.56"/>
</a>
</g>
</g>
<!-- Node14&#45;&gt;Node9 -->
<g id="edge19_Node000014_Node000009" class="edge">
<title>Node14&#45;&gt;Node9</title>
<g id="a_edge19_Node000014_Node000009"><a xlink:title=" ">
<path fill="none" stroke="#63b8ff" d="M550.86,-110.25C553.56,-93 559.58,-54.58 563.3,-30.81"/>
<polygon fill="#63b8ff" stroke="#63b8ff" points="566.73,-31.54 564.82,-21.12 559.82,-30.46 566.73,-31.54"/>
</a>
</g>
</g>
<!-- Node15&#45;&gt;Node7 -->
<g id="edge25_Node000015_Node000007" class="edge">
<title>Node15&#45;&gt;Node7</title>
<g id="a_edge25_Node000015_Node000007"><a xlink:title=" ">
<path fill="none" stroke="#63b8ff" d="M629.17,-110.16C612.89,-96.42 579.75,-70.21 547.47,-55.25 504.66,-35.41 451.44,-23.11 416.75,-16.57"/>
<polygon fill="#63b8ff" stroke="#63b8ff" points="417.69,-13.18 407.22,-14.84 416.43,-20.07 417.69,-13.18"/>
</a>
</g>
</g>
<!-- Node15&#45;&gt;Node8 -->
<g id="edge24_Node000015_Node000008" class="edge">
<title>Node15&#45;&gt;Node8</title>
<g id="a_edge24_Node000015_Node000008"><a xlink:title=" ">
<path fill="none" stroke="#63b8ff" d="M646.07,-110.33C651.42,-103.21 659.15,-92.93 665.82,-84.05"/>
<polygon fill="#63b8ff" stroke="#63b8ff" points="668.6,-86.17 671.81,-76.07 663,-81.96 668.6,-86.17"/>
</a>
</g>
</g>
<!-- Node15&#45;&gt;Node10 -->
<g id="edge23_Node000015_Node000010" class="edge">
<title>Node15&#45;&gt;Node10</title>
<g id="a_edge23_Node000015_Node000010"><a xlink:title=" ">
<path fill="none" stroke="#63b8ff" d="M663.6,-115.37C686.52,-110.38 719.75,-99.14 735.47,-74.5 749.52,-52.48 721.06,-34.68 694.27,-23.53"/>
<polygon fill="#63b8ff" stroke="#63b8ff" points="695.8,-20.36 685.21,-19.99 693.25,-26.89 695.8,-20.36"/>
</a>
</g>
</g>
<!-- Node16&#45;&gt;Node2 -->
<g id="edge29_Node000016_Node000002" class="edge">
<title>Node16&#45;&gt;Node2</title>
<g id="a_edge29_Node000016_Node000002"><a xlink:title=" ">
<path fill="none" stroke="#63b8ff" d="M306.48,-57.34C303.78,-56.62 301.07,-55.9 298.47,-55.25 244.97,-41.79 182.86,-28.1 142.68,-19.5"/>
<polygon fill="#63b8ff" stroke="#63b8ff" points="143.44,-16.09 132.93,-17.42 141.98,-22.93 143.44,-16.09"/>
</a>
</g>
</g>
<!-- Node16&#45;&gt;Node7 -->
<g id="edge28_Node000016_Node000007" class="edge">
<title>Node16&#45;&gt;Node7</title>
<g id="a_edge28_Node000016_Node000007"><a xlink:title=" ">
<path fill="none" stroke="#63b8ff" d="M337.89,-55.08C345.01,-47.65 355.41,-36.79 364.15,-27.66"/>
<polygon fill="#63b8ff" stroke="#63b8ff" points="366.43,-30.35 370.81,-20.7 361.37,-25.5 366.43,-30.35"/>
</a>
</g>
</g>
<!-- Node16&#45;&gt;Node9 -->
<g id="edge31_Node000016_Node000009" class="edge">
<title>Node16&#45;&gt;Node9</title>
<g id="a_edge31_Node000016_Node000009"><a xlink:title=" ">
<path fill="none" stroke="#63b8ff" d="M352.19,-58.77C394.79,-49.2 486.71,-28.54 535.14,-17.66"/>
<polygon fill="#63b8ff" stroke="#63b8ff" points="535.72,-21.12 544.71,-15.51 534.19,-14.29 535.72,-21.12"/>
</a>
</g>
</g>
<!-- Node16&#45;&gt;Node10 -->
<g id="edge32_Node000016_Node000010" class="edge">
<title>Node16&#45;&gt;Node10</title>
<g id="a_edge32_Node000016_Node000010"><a xlink:title=" ">
<path fill="none" stroke="#63b8ff" d="M352.39,-60.13C407.33,-51.16 547.05,-28.33 615.9,-17.09"/>
<polygon fill="#63b8ff" stroke="#63b8ff" points="616.3,-20.57 625.61,-15.5 615.18,-13.66 616.3,-20.57"/>
</a>
</g>
</g>
<!-- Node17 -->
<g id="Node000017" class="node">
<title>Node17</title>
<g id="a_Node000017"><a xlink:title=" ">
<polygon fill="#e0e0e0" stroke="#999999" points="337.47,-19.25 291.47,-19.25 291.47,0 337.47,0 337.47,-19.25"/>
<text xml:space="preserve" text-anchor="middle" x="314.47" y="-5.75" font-family="Helvetica,sans-Serif" font-size="10.00">fftw3.h</text>
</a>
</g>
</g>
<!-- Node16&#45;&gt;Node17 -->
<g id="edge30_Node000016_Node000017" class="edge">
<title>Node16&#45;&gt;Node17</title>
<g id="a_edge30_Node000016_Node000017"><a xlink:title=" ">
<path fill="none" stroke="#63b8ff" d="M326.99,-55.08C325.11,-48.42 322.46,-38.99 320.07,-30.53"/>
<polygon fill="#63b8ff" stroke="#63b8ff" points="323.49,-29.74 317.41,-21.07 316.75,-31.64 323.49,-29.74"/>
</a>
</g>
</g>
</g>
</svg>
