<?xml version="1.0" encoding="UTF-8" standalone="no"?>
<!DOCTYPE svg PUBLIC "-//W3C//DTD SVG 1.1//EN"
 "http://www.w3.org/Graphics/SVG/1.1/DTD/svg11.dtd">
<!-- Generated by graphviz version 14.0.0 (20250921.2048)
 -->
<!-- Title: src/common/spline.c Pages: 1 -->
<svg width="264pt" height="138pt"
 viewBox="0.00 0.00 264.00 138.00" xmlns="http://www.w3.org/2000/svg" xmlns:xlink="http://www.w3.org/1999/xlink">
<g id="graph0" class="graph" transform="scale(1 1) rotate(0) translate(4 133.75)">
<title>src/common/spline.c</title>
<!-- Node1 -->
<g id="Node000001" class="node">
<title>Node1</title>
<g id="a_Node000001"><a xlink:title=" ">
<polygon fill="#999999" stroke="#666666" points="154.12,-129.75 47.38,-129.75 47.38,-110.5 154.12,-110.5 154.12,-129.75"/>
<text xml:space="preserve" text-anchor="middle" x="100.75" y="-116.25" font-family="Helvetica,sans-Serif" font-size="10.00">src/common/spline.c</text>
</a>
</g>
</g>
<!-- Node2 -->
<g id="Node000002" class="node">
<title>Node2</title>
<g id="a_Node000002"><a xlink:title=" ">
<polygon fill="#e0e0e0" stroke="#999999" points="47.5,-74.5 0,-74.5 0,-55.25 47.5,-55.25 47.5,-74.5"/>
<text xml:space="preserve" text-anchor="middle" x="23.75" y="-61" font-family="Helvetica,sans-Serif" font-size="10.00">stdlib.h</text>
</a>
</g>
</g>
<!-- Node1&#45;&gt;Node2 -->
<g id="edge1_Node000001_Node000002" class="edge">
<title>Node1&#45;&gt;Node2</title>
<g id="a_edge1_Node000001_Node000002"><a xlink:title=" ">
<path fill="none" stroke="#63b8ff" d="M87.69,-110.09C76.29,-102.21 59.52,-90.61 46.01,-81.27"/>
<polygon fill="#63b8ff" stroke="#63b8ff" points="48.34,-78.62 38.12,-75.81 44.35,-84.38 48.34,-78.62"/>
</a>
</g>
</g>
<!-- Node3 -->
<g id="Node000003" class="node">
<title>Node3</title>
<g id="a_Node000003"><a xlink:href="../../d4/d0a/elph_c_8h.html" target="_top" xlink:title="Core type definitions and configuration for LetzElPhC.">
<polygon fill="white" stroke="#666666" points="132.62,-19.25 82.88,-19.25 82.88,0 132.62,0 132.62,-19.25"/>
<text xml:space="preserve" text-anchor="middle" x="107.75" y="-5.75" font-family="Helvetica,sans-Serif" font-size="10.00">elphC.h</text>
</a>
</g>
</g>
<!-- Node1&#45;&gt;Node3 -->
<g id="edge2_Node000001_Node000003" class="edge">
<title>Node1&#45;&gt;Node3</title>
<g id="a_edge2_Node000001_Node000003"><a xlink:title=" ">
<path fill="none" stroke="#63b8ff" d="M98.92,-110.42C96.59,-98.09 93.16,-74.88 95.75,-55.25 96.84,-47 99.01,-38.12 101.22,-30.46"/>
<polygon fill="#63b8ff" stroke="#63b8ff" points="104.48,-31.75 104.1,-21.16 97.8,-29.67 104.48,-31.75"/>
</a>
</g>
</g>
<!-- Node4 -->
<g id="Node000004" class="node">
<title>Node4</title>
<g id="a_Node000004"><a xlink:href="../../da/d41/error_8h.html" target="_top" xlink:title=" ">
<polygon fill="white" stroke="#666666" points="147.25,-74.5 104.25,-74.5 104.25,-55.25 147.25,-55.25 147.25,-74.5"/>
<text xml:space="preserve" text-anchor="middle" x="125.75" y="-61" font-family="Helvetica,sans-Serif" font-size="10.00">error.h</text>
</a>
</g>
</g>
<!-- Node1&#45;&gt;Node4 -->
<g id="edge3_Node000001_Node000004" class="edge">
<title>Node1&#45;&gt;Node4</title>
<g id="a_edge3_Node000001_Node000004"><a xlink:title=" ">
<path fill="none" stroke="#63b8ff" d="M104.88,-110.33C108.08,-103.51 112.64,-93.81 116.68,-85.2"/>
<polygon fill="#63b8ff" stroke="#63b8ff" points="119.81,-86.77 120.89,-76.23 113.47,-83.79 119.81,-86.77"/>
</a>
</g>
</g>
<!-- Node5 -->
<g id="Node000005" class="node">
<title>Node5</title>
<g id="a_Node000005"><a xlink:href="../../df/def/numerical__func_8h.html" target="_top" xlink:title=" ">
<polygon fill="white" stroke="#666666" points="255.88,-74.5 165.62,-74.5 165.62,-55.25 255.88,-55.25 255.88,-74.5"/>
<text xml:space="preserve" text-anchor="middle" x="210.75" y="-61" font-family="Helvetica,sans-Serif" font-size="10.00">numerical_func.h</text>
</a>
</g>
</g>
<!-- Node1&#45;&gt;Node5 -->
<g id="edge4_Node000001_Node000005" class="edge">
<title>Node1&#45;&gt;Node5</title>
<g id="a_edge4_Node000001_Node000005"><a xlink:title=" ">
<path fill="none" stroke="#63b8ff" d="M119.41,-110.09C136.48,-101.83 161.99,-89.48 181.72,-79.93"/>
<polygon fill="#63b8ff" stroke="#63b8ff" points="183.16,-83.12 190.64,-75.61 180.11,-76.82 183.16,-83.12"/>
</a>
</g>
</g>
<!-- Node5&#45;&gt;Node3 -->
<g id="edge6_Node000005_Node000003" class="edge">
<title>Node5&#45;&gt;Node3</title>
<g id="a_edge6_Node000005_Node000003"><a xlink:title=" ">
<path fill="none" stroke="#63b8ff" d="M193.28,-54.84C177.44,-46.66 153.84,-34.46 135.44,-24.94"/>
<polygon fill="#63b8ff" stroke="#63b8ff" points="137.14,-21.88 126.65,-20.4 133.93,-28.1 137.14,-21.88"/>
</a>
</g>
</g>
<!-- Node6 -->
<g id="Node000006" class="node">
<title>Node6</title>
<g id="a_Node000006"><a xlink:title=" ">
<polygon fill="#e0e0e0" stroke="#999999" points="238.62,-19.25 182.88,-19.25 182.88,0 238.62,0 238.62,-19.25"/>
<text xml:space="preserve" text-anchor="middle" x="210.75" y="-5.75" font-family="Helvetica,sans-Serif" font-size="10.00">stdbool.h</text>
</a>
</g>
</g>
<!-- Node5&#45;&gt;Node6 -->
<g id="edge5_Node000005_Node000006" class="edge">
<title>Node5&#45;&gt;Node6</title>
<g id="a_edge5_Node000005_Node000006"><a xlink:title=" ">
<path fill="none" stroke="#63b8ff" d="M210.75,-55.08C210.75,-48.57 210.75,-39.42 210.75,-31.12"/>
<polygon fill="#63b8ff" stroke="#63b8ff" points="214.25,-31.12 210.75,-21.12 207.25,-31.12 214.25,-31.12"/>
</a>
</g>
</g>
</g>
</svg>
