<?xml version="1.0" encoding="UTF-8" standalone="no"?>
<!DOCTYPE svg PUBLIC "-//W3C//DTD SVG 1.1//EN"
 "http://www.w3.org/Graphics/SVG/1.1/DTD/svg11.dtd">
<!-- Generated by graphviz version 14.0.0 (20250921.2048)
 -->
<!-- Title: src/phonon/normalize_pol_vecs.c Pages: 1 -->
<svg width="398pt" height="204pt"
 viewBox="0.00 0.00 398.00 204.00" xmlns="http://www.w3.org/2000/svg" xmlns:xlink="http://www.w3.org/1999/xlink">

<svg id="main" version="1.1" xmlns="http://www.w3.org/2000/svg" xmlns:xlink="http://www.w3.org/1999/xlink" xml:space="preserve">

<style type="text/css"><![CDATA[
.node, .edge {opacity: 0.7;}
.node.selected, .edge.selected {opacity: 1;}
.edge:hover path { stroke: red; }
.edge:hover polygon { stroke: red; fill: red; }
]]></style>
<script type="application/ecmascript" xlink:href="../../svg.min.js"/>
<svg id="graph" class="graph">
<g id="graph0" class="graph" transform="scale(1 1) rotate(0) translate(4 200.25)">
<title>src/phonon/normalize_pol_vecs.c</title>
<!-- Node1 -->
<g id="Node000001" class="node">
<title>Node1</title>
<g id="a_Node000001"><a xlink:title=" ">
<polygon fill="#999999" stroke="#666666" points="182,-196.25 73,-196.25 73,-165.75 182,-165.75 182,-196.25"/>
<text xml:space="preserve" text-anchor="start" x="81" y="-182.75" font-family="Helvetica,sans-Serif" font-size="10.00">src/phonon/normalize</text>
<text xml:space="preserve" text-anchor="middle" x="127.5" y="-171.5" font-family="Helvetica,sans-Serif" font-size="10.00">_pol_vecs.c</text>
</a>
</g>
</g>
<!-- Node2 -->
<g id="Node000002" class="node">
<title>Node2</title>
<g id="a_Node000002"><a xlink:title=" ">
<polygon fill="#e0e0e0" stroke="#999999" points="61,-129.75 0,-129.75 0,-110.5 61,-110.5 61,-129.75"/>
<text xml:space="preserve" text-anchor="middle" x="30.5" y="-116.25" font-family="Helvetica,sans-Serif" font-size="10.00">complex.h</text>
</a>
</g>
</g>
<!-- Node1&#45;&gt;Node2 -->
<g id="edge1_Node000001_Node000002" class="edge">
<title>Node1&#45;&gt;Node2</title>
<g id="a_edge1_Node000001_Node000002"><a xlink:title=" ">
<path fill="none" stroke="#63b8ff" d="M103.52,-165.45C88.75,-156.48 69.87,-145.02 55,-136"/>
<polygon fill="#63b8ff" stroke="#63b8ff" points="57.11,-133.18 46.75,-130.99 53.48,-139.17 57.11,-133.18"/>
</a>
</g>
</g>
<!-- Node3 -->
<g id="Node000003" class="node">
<title>Node3</title>
<g id="a_Node000003"><a xlink:title=" ">
<polygon fill="#e0e0e0" stroke="#999999" points="125.5,-129.75 79.5,-129.75 79.5,-110.5 125.5,-110.5 125.5,-129.75"/>
<text xml:space="preserve" text-anchor="middle" x="102.5" y="-116.25" font-family="Helvetica,sans-Serif" font-size="10.00">math.h</text>
</a>
</g>
</g>
<!-- Node1&#45;&gt;Node3 -->
<g id="edge2_Node000001_Node000003" class="edge">
<title>Node1&#45;&gt;Node3</title>
<g id="a_edge2_Node000001_Node000003"><a xlink:title=" ">
<path fill="none" stroke="#63b8ff" d="M121.32,-165.45C118.14,-157.95 114.21,-148.7 110.77,-140.6"/>
<polygon fill="#63b8ff" stroke="#63b8ff" points="114.08,-139.43 106.95,-131.59 107.63,-142.17 114.08,-139.43"/>
</a>
</g>
</g>
<!-- Node4 -->
<g id="Node000004" class="node">
<title>Node4</title>
<g id="a_Node000004"><a xlink:href="../../d4/d0a/elph_c_8h.html" target="_top" xlink:title="Core type definitions and configuration for LetzElPhC.">
<polygon fill="white" stroke="#666666" points="197.38,-19.25 147.62,-19.25 147.62,0 197.38,0 197.38,-19.25"/>
<text xml:space="preserve" text-anchor="middle" x="172.5" y="-5.75" font-family="Helvetica,sans-Serif" font-size="10.00">elphC.h</text>
</a>
</g>
</g>
<!-- Node1&#45;&gt;Node4 -->
<g id="edge3_Node000001_Node000004" class="edge">
<title>Node1&#45;&gt;Node4</title>
<g id="a_edge3_Node000001_Node000004"><a xlink:title=" ">
<path fill="none" stroke="#63b8ff" d="M131.41,-165.27C139.49,-134.87 158,-65.19 167.16,-30.71"/>
<polygon fill="#63b8ff" stroke="#63b8ff" points="170.51,-31.76 169.69,-21.2 163.74,-29.96 170.51,-31.76"/>
</a>
</g>
</g>
<!-- Node5 -->
<g id="Node000005" class="node">
<title>Node5</title>
<g id="a_Node000005"><a xlink:href="../../d3/d34/phonon_8h.html" target="_top" xlink:title=" ">
<polygon fill="white" stroke="#666666" points="237.38,-129.75 181.62,-129.75 181.62,-110.5 237.38,-110.5 237.38,-129.75"/>
<text xml:space="preserve" text-anchor="middle" x="209.5" y="-116.25" font-family="Helvetica,sans-Serif" font-size="10.00">phonon.h</text>
</a>
</g>
</g>
<!-- Node1&#45;&gt;Node5 -->
<g id="edge4_Node000001_Node000005" class="edge">
<title>Node1&#45;&gt;Node5</title>
<g id="a_edge4_Node000001_Node000005"><a xlink:title=" ">
<path fill="none" stroke="#63b8ff" d="M147.77,-165.45C159.89,-156.74 175.3,-145.68 187.69,-136.78"/>
<polygon fill="#63b8ff" stroke="#63b8ff" points="189.55,-139.76 195.63,-131.08 185.46,-134.07 189.55,-139.76"/>
</a>
</g>
</g>
<!-- Node5&#45;&gt;Node4 -->
<g id="edge10_Node000005_Node000004" class="edge">
<title>Node5&#45;&gt;Node4</title>
<g id="a_edge10_Node000005_Node000004"><a xlink:title=" ">
<path fill="none" stroke="#63b8ff" d="M206.47,-110.25C200.56,-92.92 187.37,-54.23 179.27,-30.49"/>
<polygon fill="#63b8ff" stroke="#63b8ff" points="182.6,-29.39 176.06,-21.06 175.97,-31.65 182.6,-29.39"/>
</a>
</g>
</g>
<!-- Node6 -->
<g id="Node000006" class="node">
<title>Node6</title>
<g id="a_Node000006"><a xlink:href="../../d2/d02/dtypes_8h.html" target="_top" xlink:title=" ">
<polygon fill="white" stroke="#666666" points="313.5,-74.5 219.5,-74.5 219.5,-55.25 313.5,-55.25 313.5,-74.5"/>
<text xml:space="preserve" text-anchor="middle" x="266.5" y="-61" font-family="Helvetica,sans-Serif" font-size="10.00">common/dtypes.h</text>
</a>
</g>
</g>
<!-- Node5&#45;&gt;Node6 -->
<g id="edge5_Node000005_Node000006" class="edge">
<title>Node5&#45;&gt;Node6</title>
<g id="a_edge5_Node000005_Node000006"><a xlink:title=" ">
<path fill="none" stroke="#63b8ff" d="M219.17,-110.09C227.24,-102.55 238.97,-91.6 248.72,-82.48"/>
<polygon fill="#63b8ff" stroke="#63b8ff" points="250.95,-85.19 255.87,-75.81 246.17,-80.08 250.95,-85.19"/>
</a>
</g>
</g>
<!-- Node6&#45;&gt;Node4 -->
<g id="edge8_Node000006_Node000004" class="edge">
<title>Node6&#45;&gt;Node4</title>
<g id="a_edge8_Node000006_Node000004"><a xlink:title=" ">
<path fill="none" stroke="#63b8ff" d="M250.55,-54.84C236.24,-46.73 214.97,-34.68 198.25,-25.21"/>
<polygon fill="#63b8ff" stroke="#63b8ff" points="200.27,-22.33 189.84,-20.45 196.82,-28.42 200.27,-22.33"/>
</a>
</g>
</g>
<!-- Node7 -->
<g id="Node000007" class="node">
<title>Node7</title>
<g id="a_Node000007"><a xlink:title=" ">
<polygon fill="#e0e0e0" stroke="#999999" points="255.5,-19.25 215.5,-19.25 215.5,0 255.5,0 255.5,-19.25"/>
<text xml:space="preserve" text-anchor="middle" x="235.5" y="-5.75" font-family="Helvetica,sans-Serif" font-size="10.00">mpi.h</text>
</a>
</g>
</g>
<!-- Node6&#45;&gt;Node7 -->
<g id="edge6_Node000006_Node000007" class="edge">
<title>Node6&#45;&gt;Node7</title>
<g id="a_edge6_Node000006_Node000007"><a xlink:title=" ">
<path fill="none" stroke="#63b8ff" d="M261.38,-55.08C257.32,-48.11 251.51,-38.12 246.41,-29.37"/>
<polygon fill="#63b8ff" stroke="#63b8ff" points="249.55,-27.8 241.49,-20.92 243.5,-31.32 249.55,-27.8"/>
</a>
</g>
</g>
<!-- Node8 -->
<g id="Node000008" class="node">
<title>Node8</title>
<g id="a_Node000008"><a xlink:title=" ">
<polygon fill="#e0e0e0" stroke="#999999" points="329.38,-19.25 273.62,-19.25 273.62,0 329.38,0 329.38,-19.25"/>
<text xml:space="preserve" text-anchor="middle" x="301.5" y="-5.75" font-family="Helvetica,sans-Serif" font-size="10.00">stdbool.h</text>
</a>
</g>
</g>
<!-- Node6&#45;&gt;Node8 -->
<g id="edge7_Node000006_Node000008" class="edge">
<title>Node6&#45;&gt;Node8</title>
<g id="a_edge7_Node000006_Node000008"><a xlink:title=" ">
<path fill="none" stroke="#63b8ff" d="M272.28,-55.08C276.91,-48.03 283.57,-37.9 289.37,-29.08"/>
<polygon fill="#63b8ff" stroke="#63b8ff" points="292.2,-31.15 294.76,-20.87 286.35,-27.31 292.2,-31.15"/>
</a>
</g>
</g>
<!-- Node9 -->
<g id="Node000009" class="node">
<title>Node9</title>
<g id="a_Node000009"><a xlink:href="../../da/d41/error_8h.html" target="_top" xlink:title=" ">
<polygon fill="white" stroke="#666666" points="390,-19.25 347,-19.25 347,0 390,0 390,-19.25"/>
<text xml:space="preserve" text-anchor="middle" x="368.5" y="-5.75" font-family="Helvetica,sans-Serif" font-size="10.00">error.h</text>
</a>
</g>
</g>
<!-- Node6&#45;&gt;Node9 -->
<g id="edge9_Node000006_Node000009" class="edge">
<title>Node6&#45;&gt;Node9</title>
<g id="a_edge9_Node000006_Node000009"><a xlink:title=" ">
<path fill="none" stroke="#63b8ff" d="M283.8,-54.84C299.48,-46.66 322.85,-34.46 341.08,-24.94"/>
<polygon fill="#63b8ff" stroke="#63b8ff" points="342.53,-28.13 349.77,-20.4 339.29,-21.93 342.53,-28.13"/>
</a>
</g>
</g>
</g>
</svg>
</svg>

<style type='text/css'>
<![CDATA[
[data-mouse-over-selected='false'] { opacity: 0.7; }
[data-mouse-over-selected='true']  { opacity: 1.0; }
]]>
</style>
<script type="application/ecmascript"><![CDATA[
document.addEventListener('DOMContentLoaded', (event) => {
  highlightEdges();
  highlightAdjacentNodes();
});
]]></script>
</svg>
