<?xml version="1.0" encoding="UTF-8" standalone="no"?>
<!DOCTYPE svg PUBLIC "-//W3C//DTD SVG 1.1//EN"
 "http://www.w3.org/Graphics/SVG/1.1/DTD/svg11.dtd">
<!-- Generated by graphviz version 14.0.0 (20250921.2048)
 -->
<!-- Title: src/wfc/rotate_Gvecs.c Pages: 1 -->
<svg width="595pt" height="138pt"
 viewBox="0.00 0.00 595.00 138.00" xmlns="http://www.w3.org/2000/svg" xmlns:xlink="http://www.w3.org/1999/xlink">
<g id="graph0" class="graph" transform="scale(1 1) rotate(0) translate(4 133.75)">
<title>src/wfc/rotate_Gvecs.c</title>
<!-- Node1 -->
<g id="Node000001" class="node">
<title>Node1</title>
<g id="a_Node000001"><a xlink:title=" ">
<polygon fill="#999999" stroke="#666666" points="299,-129.75 181,-129.75 181,-110.5 299,-110.5 299,-129.75"/>
<text xml:space="preserve" text-anchor="middle" x="240" y="-116.25" font-family="Helvetica,sans-Serif" font-size="10.00">src/wfc/rotate_Gvecs.c</text>
</a>
</g>
</g>
<!-- Node2 -->
<g id="Node000002" class="node">
<title>Node2</title>
<g id="a_Node000002"><a xlink:title=" ">
<polygon fill="#e0e0e0" stroke="#999999" points="40,-19.25 0,-19.25 0,0 40,0 40,-19.25"/>
<text xml:space="preserve" text-anchor="middle" x="20" y="-5.75" font-family="Helvetica,sans-Serif" font-size="10.00">mpi.h</text>
</a>
</g>
</g>
<!-- Node1&#45;&gt;Node2 -->
<g id="edge1_Node000001_Node000002" class="edge">
<title>Node1&#45;&gt;Node2</title>
<g id="a_edge1_Node000001_Node000002"><a xlink:title=" ">
<path fill="none" stroke="#63b8ff" d="M180.66,-114.82C123.93,-109.36 44.14,-97.71 24,-74.5 13.85,-62.81 13.57,-44.92 15.41,-31.04"/>
<polygon fill="#63b8ff" stroke="#63b8ff" points="18.85,-31.68 17.21,-21.21 11.97,-30.42 18.85,-31.68"/>
</a>
</g>
</g>
<!-- Node3 -->
<g id="Node000003" class="node">
<title>Node3</title>
<g id="a_Node000003"><a xlink:title=" ">
<polygon fill="#e0e0e0" stroke="#999999" points="128.88,-19.25 73.12,-19.25 73.12,0 128.88,0 128.88,-19.25"/>
<text xml:space="preserve" text-anchor="middle" x="101" y="-5.75" font-family="Helvetica,sans-Serif" font-size="10.00">stdbool.h</text>
</a>
</g>
</g>
<!-- Node1&#45;&gt;Node3 -->
<g id="edge2_Node000001_Node000003" class="edge">
<title>Node1&#45;&gt;Node3</title>
<g id="a_edge2_Node000001_Node000003"><a xlink:title=" ">
<path fill="none" stroke="#63b8ff" d="M185.56,-110.08C162.55,-103.69 137.16,-92.84 120,-74.5 108.99,-62.73 104.33,-44.84 102.38,-30.99"/>
<polygon fill="#63b8ff" stroke="#63b8ff" points="105.88,-30.8 101.39,-21.2 98.91,-31.5 105.88,-30.8"/>
</a>
</g>
</g>
<!-- Node4 -->
<g id="Node000004" class="node">
<title>Node4</title>
<g id="a_Node000004"><a xlink:title=" ">
<polygon fill="#e0e0e0" stroke="#999999" points="520.75,-74.5 473.25,-74.5 473.25,-55.25 520.75,-55.25 520.75,-74.5"/>
<text xml:space="preserve" text-anchor="middle" x="497" y="-61" font-family="Helvetica,sans-Serif" font-size="10.00">stdlib.h</text>
</a>
</g>
</g>
<!-- Node1&#45;&gt;Node4 -->
<g id="edge3_Node000001_Node000004" class="edge">
<title>Node1&#45;&gt;Node4</title>
<g id="a_edge3_Node000001_Node000004"><a xlink:title=" ">
<path fill="none" stroke="#63b8ff" d="M290,-110.04C333.12,-102.01 397.28,-89.59 462.07,-74.84"/>
<polygon fill="#63b8ff" stroke="#63b8ff" points="462.45,-78.34 471.41,-72.69 460.89,-71.52 462.45,-78.34"/>
</a>
</g>
</g>
<!-- Node5 -->
<g id="Node000005" class="node">
<title>Node5</title>
<g id="a_Node000005"><a xlink:title=" ">
<polygon fill="#e0e0e0" stroke="#999999" points="587.12,-74.5 538.88,-74.5 538.88,-55.25 587.12,-55.25 587.12,-74.5"/>
<text xml:space="preserve" text-anchor="middle" x="563" y="-61" font-family="Helvetica,sans-Serif" font-size="10.00">string.h</text>
</a>
</g>
</g>
<!-- Node1&#45;&gt;Node5 -->
<g id="edge4_Node000001_Node000005" class="edge">
<title>Node1&#45;&gt;Node5</title>
<g id="a_edge4_Node000001_Node000005"><a xlink:title=" ">
<path fill="none" stroke="#63b8ff" d="M299.47,-111.8C355.85,-104.44 443.1,-92 527.48,-74.85"/>
<polygon fill="#63b8ff" stroke="#63b8ff" points="527.99,-78.31 537.08,-72.87 526.57,-71.46 527.99,-78.31"/>
</a>
</g>
</g>
<!-- Node6 -->
<g id="Node000006" class="node">
<title>Node6</title>
<g id="a_Node000006"><a xlink:href="../../df/def/numerical__func_8h.html" target="_top" xlink:title=" ">
<polygon fill="white" stroke="#666666" points="259.38,-74.5 128.62,-74.5 128.62,-55.25 259.38,-55.25 259.38,-74.5"/>
<text xml:space="preserve" text-anchor="middle" x="194" y="-61" font-family="Helvetica,sans-Serif" font-size="10.00">common/numerical_func.h</text>
</a>
</g>
</g>
<!-- Node1&#45;&gt;Node6 -->
<g id="edge5_Node000001_Node000006" class="edge">
<title>Node1&#45;&gt;Node6</title>
<g id="a_edge5_Node000001_Node000006"><a xlink:title=" ">
<path fill="none" stroke="#63b8ff" d="M232.4,-110.33C226.12,-103.05 216.99,-92.48 209.2,-83.48"/>
<polygon fill="#63b8ff" stroke="#63b8ff" points="211.94,-81.28 202.75,-76 206.64,-85.86 211.94,-81.28"/>
</a>
</g>
</g>
<!-- Node7 -->
<g id="Node000007" class="node">
<title>Node7</title>
<g id="a_Node000007"><a xlink:href="../../d4/d0a/elph_c_8h.html" target="_top" xlink:title="Core type definitions and configuration for LetzElPhC.">
<polygon fill="white" stroke="#666666" points="264.88,-19.25 215.12,-19.25 215.12,0 264.88,0 264.88,-19.25"/>
<text xml:space="preserve" text-anchor="middle" x="240" y="-5.75" font-family="Helvetica,sans-Serif" font-size="10.00">elphC.h</text>
</a>
</g>
</g>
<!-- Node1&#45;&gt;Node7 -->
<g id="edge10_Node000001_Node000007" class="edge">
<title>Node1&#45;&gt;Node7</title>
<g id="a_edge10_Node000001_Node000007"><a xlink:title=" ">
<path fill="none" stroke="#63b8ff" d="M247.67,-110.29C254.52,-101.78 264.05,-88.21 268,-74.5 272.65,-58.34 264.01,-40.92 255.14,-28.35"/>
<polygon fill="#63b8ff" stroke="#63b8ff" points="258.05,-26.39 249.15,-20.64 252.52,-30.68 258.05,-26.39"/>
</a>
</g>
</g>
<!-- Node8 -->
<g id="Node000008" class="node">
<title>Node8</title>
<g id="a_Node000008"><a xlink:href="../../d2/d8d/omp__pragma__def_8h.html" target="_top" xlink:title=" ">
<polygon fill="white" stroke="#666666" points="454.88,-74.5 315.12,-74.5 315.12,-55.25 454.88,-55.25 454.88,-74.5"/>
<text xml:space="preserve" text-anchor="middle" x="385" y="-61" font-family="Helvetica,sans-Serif" font-size="10.00">common/omp_pragma_def.h</text>
</a>
</g>
</g>
<!-- Node1&#45;&gt;Node8 -->
<g id="edge8_Node000001_Node000008" class="edge">
<title>Node1&#45;&gt;Node8</title>
<g id="a_edge8_Node000001_Node000008"><a xlink:title=" ">
<path fill="none" stroke="#63b8ff" d="M264.6,-110.09C287.93,-101.52 323.24,-88.56 349.6,-78.88"/>
<polygon fill="#63b8ff" stroke="#63b8ff" points="350.68,-82.21 358.86,-75.47 348.27,-75.64 350.68,-82.21"/>
</a>
</g>
</g>
<!-- Node9 -->
<g id="Node000009" class="node">
<title>Node9</title>
<g id="a_Node000009"><a xlink:href="../../d1/dea/wfc_8h.html" target="_top" xlink:title=" ">
<polygon fill="white" stroke="#666666" points="73,-74.5 33,-74.5 33,-55.25 73,-55.25 73,-74.5"/>
<text xml:space="preserve" text-anchor="middle" x="53" y="-61" font-family="Helvetica,sans-Serif" font-size="10.00">wfc.h</text>
</a>
</g>
</g>
<!-- Node1&#45;&gt;Node9 -->
<g id="edge11_Node000001_Node000009" class="edge">
<title>Node1&#45;&gt;Node9</title>
<g id="a_edge11_Node000001_Node000009"><a xlink:title=" ">
<path fill="none" stroke="#63b8ff" d="M208.28,-110.09C173.64,-100.23 118.52,-84.53 84.12,-74.74"/>
<polygon fill="#63b8ff" stroke="#63b8ff" points="85.34,-71.45 74.77,-72.07 83.42,-78.18 85.34,-71.45"/>
</a>
</g>
</g>
<!-- Node6&#45;&gt;Node3 -->
<g id="edge6_Node000006_Node000003" class="edge">
<title>Node6&#45;&gt;Node3</title>
<g id="a_edge6_Node000006_Node000003"><a xlink:title=" ">
<path fill="none" stroke="#63b8ff" d="M178.22,-54.84C164.06,-46.73 143.02,-34.68 126.47,-25.21"/>
<polygon fill="#63b8ff" stroke="#63b8ff" points="128.58,-22.39 118.17,-20.45 125.11,-28.46 128.58,-22.39"/>
</a>
</g>
</g>
<!-- Node6&#45;&gt;Node7 -->
<g id="edge7_Node000006_Node000007" class="edge">
<title>Node6&#45;&gt;Node7</title>
<g id="a_edge7_Node000006_Node000007"><a xlink:title=" ">
<path fill="none" stroke="#63b8ff" d="M201.6,-55.08C207.88,-47.8 217.01,-37.23 224.8,-28.23"/>
<polygon fill="#63b8ff" stroke="#63b8ff" points="227.36,-30.61 231.25,-20.75 222.06,-26.03 227.36,-30.61"/>
</a>
</g>
</g>
<!-- Node8&#45;&gt;Node7 -->
<g id="edge9_Node000008_Node000007" class="edge">
<title>Node8&#45;&gt;Node7</title>
<g id="a_edge9_Node000008_Node000007"><a xlink:title=" ">
<path fill="none" stroke="#63b8ff" d="M360.4,-54.84C337.07,-46.27 301.76,-33.31 275.4,-23.63"/>
<polygon fill="#63b8ff" stroke="#63b8ff" points="276.73,-20.39 266.14,-20.22 274.32,-26.96 276.73,-20.39"/>
</a>
</g>
</g>
<!-- Node9&#45;&gt;Node2 -->
<g id="edge12_Node000009_Node000002" class="edge">
<title>Node9&#45;&gt;Node2</title>
<g id="a_edge12_Node000009_Node000002"><a xlink:title=" ">
<path fill="none" stroke="#63b8ff" d="M47.55,-55.08C43.23,-48.11 37.04,-38.12 31.62,-29.37"/>
<polygon fill="#63b8ff" stroke="#63b8ff" points="34.61,-27.55 26.36,-20.9 28.66,-31.24 34.61,-27.55"/>
</a>
</g>
</g>
<!-- Node9&#45;&gt;Node3 -->
<g id="edge13_Node000009_Node000003" class="edge">
<title>Node9&#45;&gt;Node3</title>
<g id="a_edge13_Node000009_Node000003"><a xlink:title=" ">
<path fill="none" stroke="#63b8ff" d="M60.93,-55.08C67.56,-47.73 77.22,-37.01 85.39,-27.94"/>
<polygon fill="#63b8ff" stroke="#63b8ff" points="87.79,-30.5 91.89,-20.73 82.59,-25.82 87.79,-30.5"/>
</a>
</g>
</g>
<!-- Node9&#45;&gt;Node7 -->
<g id="edge14_Node000009_Node000007" class="edge">
<title>Node9&#45;&gt;Node7</title>
<g id="a_edge14_Node000009_Node000007"><a xlink:title=" ">
<path fill="none" stroke="#63b8ff" d="M73.37,-58.07C104.73,-49.14 165.27,-31.9 204.1,-20.85"/>
<polygon fill="#63b8ff" stroke="#63b8ff" points="204.8,-24.29 213.46,-18.18 202.88,-17.55 204.8,-24.29"/>
</a>
</g>
</g>
</g>
</svg>
