<?xml version="1.0" encoding="UTF-8" standalone="no"?>
<!DOCTYPE svg PUBLIC "-//W3C//DTD SVG 1.1//EN"
 "http://www.w3.org/Graphics/SVG/1.1/DTD/svg11.dtd">
<!-- Generated by graphviz version 14.0.0 (20250921.2048)
 -->
<!-- Title: ELPH_stop_clock Pages: 1 -->
<svg width="643pt" height="575pt"
 viewBox="0.00 0.00 643.00 575.00" xmlns="http://www.w3.org/2000/svg" xmlns:xlink="http://www.w3.org/1999/xlink">
<g id="graph0" class="graph" transform="scale(1 1) rotate(0) translate(4 571.09)">
<title>ELPH_stop_clock</title>
<!-- Node1 -->
<g id="Node000001" class="node">
<title>Node1</title>
<g id="a_Node000001"><a xlink:title=" ">
<polygon fill="#999999" stroke="#666666" points="635,-305.09 540.25,-305.09 540.25,-285.84 635,-285.84 635,-305.09"/>
<text xml:space="preserve" text-anchor="middle" x="587.62" y="-291.59" font-family="Helvetica,sans-Serif" font-size="10.00">ELPH_stop_clock</text>
</a>
</g>
</g>
<!-- Node2 -->
<g id="Node000002" class="node">
<title>Node2</title>
<g id="a_Node000002"><a xlink:href="../../d6/db8/_vbare__nloc_8c.html#abeb59b7a11cbc7ffec9b5bb2759ebbdd" target="_top" xlink:title=" ">
<polygon fill="white" stroke="#666666" points="491.88,-343.09 395.62,-343.09 395.62,-323.84 491.88,-323.84 491.88,-343.09"/>
<text xml:space="preserve" text-anchor="middle" x="443.75" y="-329.59" font-family="Helvetica,sans-Serif" font-size="10.00">add_elphNonLocal</text>
</a>
</g>
</g>
<!-- Node1&#45;&gt;Node2 -->
<g id="edge1_Node000001_Node000002" class="edge">
<title>Node1&#45;&gt;Node2</title>
<g id="a_edge1_Node000001_Node000002"><a xlink:title=" ">
<path fill="none" stroke="#63b8ff" d="M537.93,-308.51C519.65,-313.4 499.17,-318.89 482.08,-323.47"/>
<polygon fill="#63b8ff" stroke="#63b8ff" points="538.76,-311.91 547.52,-305.94 536.95,-305.15 538.76,-311.91"/>
</a>
</g>
</g>
<!-- Node6 -->
<g id="Node000006" class="node">
<title>Node6</title>
<g id="a_Node000006"><a xlink:href="../../db/d44/dyn__long__range_8c.html#a5c9bf2378b293980114e987a84c9df49" target="_top" xlink:title=" ">
<polygon fill="white" stroke="#666666" points="504.25,-191.71 383.25,-191.71 383.25,-161.21 504.25,-161.21 504.25,-191.71"/>
<text xml:space="preserve" text-anchor="start" x="391.25" y="-178.21" font-family="Helvetica,sans-Serif" font-size="10.00">add_ph_dyn_long_range</text>
<text xml:space="preserve" text-anchor="middle" x="443.75" y="-166.96" font-family="Helvetica,sans-Serif" font-size="10.00">_internal</text>
</a>
</g>
</g>
<!-- Node1&#45;&gt;Node6 -->
<g id="edge5_Node000001_Node000006" class="edge">
<title>Node1&#45;&gt;Node6</title>
<g id="a_edge5_Node000001_Node000006"><a xlink:title=" ">
<path fill="none" stroke="#63b8ff" d="M572.73,-276.48C557.6,-256.79 531.83,-226.07 504.25,-205.46 497.62,-200.51 490.01,-196.05 482.5,-192.2"/>
<polygon fill="#63b8ff" stroke="#63b8ff" points="569.73,-278.31 578.54,-284.2 575.33,-274.1 569.73,-278.31"/>
</a>
</g>
</g>
<!-- Node10 -->
<g id="Node000010" class="node">
<title>Node10</title>
<g id="a_Node000010"><a xlink:href="../../d2/d5f/wigner__seitz_8c.html#a065617971e0c965c1cd8024894403332" target="_top" xlink:title=" ">
<polygon fill="white" stroke="#666666" points="325.12,-68.71 228.88,-68.71 228.88,-38.21 325.12,-38.21 325.12,-68.71"/>
<text xml:space="preserve" text-anchor="start" x="236.88" y="-55.21" font-family="Helvetica,sans-Serif" font-size="10.00">build_wigner_seitz</text>
<text xml:space="preserve" text-anchor="middle" x="277" y="-43.96" font-family="Helvetica,sans-Serif" font-size="10.00">_vectors</text>
</a>
</g>
</g>
<!-- Node1&#45;&gt;Node10 -->
<g id="edge11_Node000001_Node000010" class="edge">
<title>Node1&#45;&gt;Node10</title>
<g id="a_edge11_Node000001_Node000010"><a xlink:title=" ">
<path fill="none" stroke="#63b8ff" d="M585.59,-274.17C582.18,-229.54 567.49,-126.31 504.25,-77.46 453.14,-37.99 375.02,-39.15 325.25,-45.14"/>
<polygon fill="#63b8ff" stroke="#63b8ff" points="582.09,-274.29 586.22,-284.05 589.08,-273.85 582.09,-274.29"/>
</a>
</g>
</g>
<!-- Node11 -->
<g id="Node000011" class="node">
<title>Node11</title>
<g id="a_Node000011"><a xlink:href="../../d9/db9/vlocg__table_8c.html#ab6914a7f3451d3d4c5e01f8c5cecd7a8" target="_top" xlink:title=" ">
<polygon fill="white" stroke="#666666" points="492.62,-567.09 394.88,-567.09 394.88,-547.84 492.62,-547.84 492.62,-567.09"/>
<text xml:space="preserve" text-anchor="middle" x="443.75" y="-553.59" font-family="Helvetica,sans-Serif" font-size="10.00">create_vlocg_table</text>
</a>
</g>
</g>
<!-- Node1&#45;&gt;Node11 -->
<g id="edge13_Node000001_Node000011" class="edge">
<title>Node1&#45;&gt;Node11</title>
<g id="a_edge13_Node000001_Node000011"><a xlink:title=" ">
<path fill="none" stroke="#63b8ff" d="M585.04,-316.97C580.55,-362.74 563.89,-470.75 504.25,-533.46 498.57,-539.44 491.2,-543.96 483.6,-547.38"/>
<polygon fill="#63b8ff" stroke="#63b8ff" points="588.52,-317.34 585.89,-307.07 581.55,-316.73 588.52,-317.34"/>
</a>
</g>
</g>
<!-- Node12 -->
<g id="Node000012" class="node">
<title>Node12</title>
<g id="a_Node000012"><a xlink:href="../../da/d77/get__save__data_8c.html#ab497305a989dd1713ba4c2b4d0f95bd0" target="_top" xlink:title=" ">
<polygon fill="white" stroke="#666666" points="342.75,-529.09 211.25,-529.09 211.25,-509.84 342.75,-509.84 342.75,-529.09"/>
<text xml:space="preserve" text-anchor="middle" x="277" y="-515.59" font-family="Helvetica,sans-Serif" font-size="10.00">read_and_alloc_save_data</text>
</a>
</g>
</g>
<!-- Node1&#45;&gt;Node12 -->
<g id="edge36_Node000001_Node000012" class="edge">
<title>Node1&#45;&gt;Node12</title>
<g id="a_edge36_Node000001_Node000012"><a xlink:title=" ">
<path fill="none" stroke="#63b8ff" d="M585.12,-316.77C580.84,-359.6 564.64,-455.85 504.25,-500.46 454.31,-537.35 380.18,-536.04 330.53,-529.57"/>
<polygon fill="#63b8ff" stroke="#63b8ff" points="588.61,-317.08 585.97,-306.82 581.63,-316.48 588.61,-317.08"/>
</a>
</g>
</g>
<!-- Node13 -->
<g id="Node000013" class="node">
<title>Node13</title>
<g id="a_Node000013"><a xlink:href="../../d1/d94/d_vpot__add__long__range_8c.html#a0923c770a93d2648a5d75b70fbb9c61c" target="_top" xlink:title=" ">
<polygon fill="white" stroke="#666666" points="325.12,-20.09 228.88,-20.09 228.88,-0.84 325.12,-0.84 325.12,-20.09"/>
<text xml:space="preserve" text-anchor="middle" x="277" y="-6.59" font-family="Helvetica,sans-Serif" font-size="10.00">dV_add_longrange</text>
</a>
</g>
</g>
<!-- Node1&#45;&gt;Node13 -->
<g id="edge16_Node000001_Node000013" class="edge">
<title>Node1&#45;&gt;Node13</title>
<g id="a_edge16_Node000001_Node000013"><a xlink:title=" ">
<path fill="none" stroke="#63b8ff" d="M586.91,-274.33C586.32,-224.43 577.27,-98.96 504.25,-38.46 454.27,2.95 375.47,2.79 325.29,-2.67"/>
<polygon fill="#63b8ff" stroke="#63b8ff" points="583.41,-274.03 586.91,-284.04 590.41,-274.04 583.41,-274.03"/>
</a>
</g>
</g>
<!-- Node14 -->
<g id="Node000014" class="node">
<title>Node14</title>
<g id="a_Node000014"><a xlink:href="../../d9/d90/d_vbare__loc_8c.html#a30f21b6035a8a10369610419e98fbe67" target="_top" xlink:title=" ">
<polygon fill="white" stroke="#666666" points="466.75,-491.09 420.75,-491.09 420.75,-471.84 466.75,-471.84 466.75,-491.09"/>
<text xml:space="preserve" text-anchor="middle" x="443.75" y="-477.59" font-family="Helvetica,sans-Serif" font-size="10.00">dVlocq</text>
</a>
</g>
</g>
<!-- Node1&#45;&gt;Node14 -->
<g id="edge18_Node000001_Node000014" class="edge">
<title>Node1&#45;&gt;Node14</title>
<g id="a_edge18_Node000001_Node000014"><a xlink:title=" ">
<path fill="none" stroke="#63b8ff" d="M582.11,-316.44C573.36,-351.97 550.75,-423.95 504.25,-463.46 493.89,-472.27 479.31,-476.77 467.18,-479.07"/>
<polygon fill="#63b8ff" stroke="#63b8ff" points="585.45,-317.52 584.3,-306.98 578.63,-315.94 585.45,-317.52"/>
</a>
</g>
</g>
<!-- Node15 -->
<g id="Node000015" class="node">
<title>Node15</title>
<g id="a_Node000015"><a xlink:href="../../dd/de7/elec__reps_8c.html#a9ad01d68a7d4f87c39a98bf13778cd64" target="_top" xlink:title=" ">
<polygon fill="white" stroke="#666666" points="484.75,-454.09 402.75,-454.09 402.75,-434.84 484.75,-434.84 484.75,-454.09"/>
<text xml:space="preserve" text-anchor="middle" x="443.75" y="-440.59" font-family="Helvetica,sans-Serif" font-size="10.00">electronic_reps</text>
</a>
</g>
</g>
<!-- Node1&#45;&gt;Node15 -->
<g id="edge20_Node000001_Node000015" class="edge">
<title>Node1&#45;&gt;Node15</title>
<g id="a_edge20_Node000001_Node000015"><a xlink:title=" ">
<path fill="none" stroke="#63b8ff" d="M579.19,-315.83C567.61,-344.7 542.55,-397.25 504.25,-426.46 498.59,-430.78 491.89,-434.07 485.07,-436.58"/>
<polygon fill="#63b8ff" stroke="#63b8ff" points="582.34,-317.37 582.66,-306.78 575.81,-314.86 582.34,-317.37"/>
</a>
</g>
</g>
<!-- Node17 -->
<g id="Node000017" class="node">
<title>Node17</title>
<g id="a_Node000017"><a xlink:href="../../dd/d37/elphq__expand_8c.html#a0ae24af3ba2534ff808508356e40f869" target="_top" xlink:title=" ">
<polygon fill="white" stroke="#666666" points="481,-417.09 406.5,-417.09 406.5,-397.84 481,-397.84 481,-417.09"/>
<text xml:space="preserve" text-anchor="middle" x="443.75" y="-403.59" font-family="Helvetica,sans-Serif" font-size="10.00">elph_q_rotate</text>
</a>
</g>
</g>
<!-- Node1&#45;&gt;Node17 -->
<g id="edge23_Node000001_Node000017" class="edge">
<title>Node1&#45;&gt;Node17</title>
<g id="a_edge23_Node000001_Node000017"><a xlink:title=" ">
<path fill="none" stroke="#63b8ff" d="M574.46,-314.93C560.16,-336.24 534.52,-369.96 504.25,-389.46 497.36,-393.91 489.31,-397.3 481.41,-399.87"/>
<polygon fill="#63b8ff" stroke="#63b8ff" points="577.36,-316.88 579.87,-306.59 571.49,-313.07 577.36,-316.88"/>
</a>
</g>
</g>
<!-- Node18 -->
<g id="Node000018" class="node">
<title>Node18</title>
<g id="a_Node000018"><a xlink:href="../../d1/d8e/compute___vbare__loc_8c.html#a5f1d51340a8457749225b05b612e4abe" target="_top" xlink:title=" ">
<polygon fill="white" stroke="#666666" points="472.38,-380.09 415.12,-380.09 415.12,-360.84 472.38,-360.84 472.38,-380.09"/>
<text xml:space="preserve" text-anchor="middle" x="443.75" y="-366.59" font-family="Helvetica,sans-Serif" font-size="10.00">elphLocal</text>
</a>
</g>
</g>
<!-- Node1&#45;&gt;Node18 -->
<g id="edge25_Node000001_Node000018" class="edge">
<title>Node1&#45;&gt;Node18</title>
<g id="a_edge25_Node000001_Node000018"><a xlink:title=" ">
<path fill="none" stroke="#63b8ff" d="M565.83,-312.59C549.81,-325.08 526.69,-341.64 504.25,-352.46 494.34,-357.25 482.88,-361.08 472.68,-363.95"/>
<polygon fill="#63b8ff" stroke="#63b8ff" points="567.99,-315.35 573.62,-306.38 563.62,-309.87 567.99,-315.35"/>
</a>
</g>
</g>
<!-- Node19 -->
<g id="Node000019" class="node">
<title>Node19</title>
<g id="a_Node000019"><a xlink:href="../../d9/d41/interpolation__utilities_8c.html#a7057b91c231575471dc5ebe174f3e217" target="_top" xlink:title=" ">
<polygon fill="white" stroke="#666666" points="301.12,-267.09 252.88,-267.09 252.88,-247.84 301.12,-247.84 301.12,-267.09"/>
<text xml:space="preserve" text-anchor="middle" x="277" y="-253.59" font-family="Helvetica,sans-Serif" font-size="10.00">fft_q2R</text>
</a>
</g>
</g>
<!-- Node1&#45;&gt;Node19 -->
<g id="edge27_Node000001_Node000019" class="edge">
<title>Node1&#45;&gt;Node19</title>
<g id="a_edge27_Node000001_Node000019"><a xlink:title=" ">
<path fill="none" stroke="#63b8ff" d="M542.03,-282.58C529.87,-279.49 516.63,-276.49 504.25,-274.46 430.98,-262.47 342.94,-258.92 301.61,-257.88"/>
<polygon fill="#63b8ff" stroke="#63b8ff" points="540.81,-285.88 551.38,-285.05 542.6,-279.12 540.81,-285.88"/>
</a>
</g>
</g>
<!-- Node20 -->
<g id="Node000020" class="node">
<title>Node20</title>
<g id="a_Node000020"><a xlink:href="../../d9/d41/interpolation__utilities_8c.html#adb86c42dd68a4cb0a0e01c7f07231b98" target="_top" xlink:title=" ">
<polygon fill="white" stroke="#666666" points="482.5,-143.09 405,-143.09 405,-123.84 482.5,-123.84 482.5,-143.09"/>
<text xml:space="preserve" text-anchor="middle" x="443.75" y="-129.59" font-family="Helvetica,sans-Serif" font-size="10.00">fft_R2q_dvscf</text>
</a>
</g>
</g>
<!-- Node1&#45;&gt;Node20 -->
<g id="edge29_Node000001_Node000020" class="edge">
<title>Node1&#45;&gt;Node20</title>
<g id="a_edge29_Node000001_Node000020"><a xlink:title=" ">
<path fill="none" stroke="#63b8ff" d="M580.11,-274.66C569.31,-243.57 544.81,-185.17 504.25,-152.46 498,-147.43 490.4,-143.71 482.74,-140.98"/>
<polygon fill="#63b8ff" stroke="#63b8ff" points="576.74,-275.64 583.21,-284.03 583.39,-273.44 576.74,-275.64"/>
</a>
</g>
</g>
<!-- Node21 -->
<g id="Node000021" class="node">
<title>Node21</title>
<g id="a_Node000021"><a xlink:href="../../d9/d41/interpolation__utilities_8c.html#a6996965c06846d1cb1ad4c84c333d3f5" target="_top" xlink:title=" ">
<polygon fill="white" stroke="#666666" points="478.38,-106.09 409.12,-106.09 409.12,-86.84 478.38,-86.84 478.38,-106.09"/>
<text xml:space="preserve" text-anchor="middle" x="443.75" y="-92.59" font-family="Helvetica,sans-Serif" font-size="10.00">fft_R2q_dyn</text>
</a>
</g>
</g>
<!-- Node1&#45;&gt;Node21 -->
<g id="edge31_Node000001_Node000021" class="edge">
<title>Node1&#45;&gt;Node21</title>
<g id="a_edge31_Node000001_Node000021"><a xlink:title=" ">
<path fill="none" stroke="#63b8ff" d="M582.92,-274.47C575.19,-236.83 553.74,-157.76 504.25,-114.46 497.1,-108.21 487.84,-104.13 478.76,-101.47"/>
<polygon fill="#63b8ff" stroke="#63b8ff" points="579.44,-274.88 584.76,-284.05 586.32,-273.57 579.44,-274.88"/>
</a>
</g>
</g>
<!-- Node22 -->
<g id="Node000022" class="node">
<title>Node22</title>
<g id="a_Node000022"><a xlink:href="../../da/d97/_e_l_p_h__timers_8c.html#a0620cd52a0bed2d201e93fa44d8b6e97" target="_top" xlink:title=" ">
<polygon fill="white" stroke="#666666" points="347.25,-304.09 206.75,-304.09 206.75,-284.84 347.25,-284.84 347.25,-304.09"/>
<text xml:space="preserve" text-anchor="middle" x="277" y="-290.59" font-family="Helvetica,sans-Serif" font-size="10.00">print_ELPH_clock_summary</text>
</a>
</g>
</g>
<!-- Node1&#45;&gt;Node22 -->
<g id="edge33_Node000001_Node000022" class="edge">
<title>Node1&#45;&gt;Node22</title>
<g id="a_edge33_Node000001_Node000022"><a xlink:title=" ">
<path fill="none" stroke="#63b8ff" d="M528.45,-284.33C520.35,-283.14 512.11,-282.13 504.25,-281.46 450.66,-276.94 436.93,-278.16 383.25,-281.46 371.67,-282.18 359.42,-283.33 347.52,-284.65"/>
<polygon fill="#63b8ff" stroke="#63b8ff" points="527.84,-287.77 538.26,-285.86 528.92,-280.86 527.84,-287.77"/>
</a>
</g>
</g>
<!-- Node23 -->
<g id="Node000023" class="node">
<title>Node23</title>
<g id="a_Node000023"><a xlink:href="../../dc/d55/rotate__eig__vecs_8c.html#a6c1073c89757bc422e6720d8348c426a" target="_top" xlink:title=" ">
<polygon fill="white" stroke="#666666" points="319.5,-341.09 234.5,-341.09 234.5,-321.84 319.5,-321.84 319.5,-341.09"/>
<text xml:space="preserve" text-anchor="middle" x="277" y="-327.59" font-family="Helvetica,sans-Serif" font-size="10.00">rotate_eig_vecs</text>
</a>
</g>
</g>
<!-- Node1&#45;&gt;Node23 -->
<g id="edge37_Node000001_Node000023" class="edge">
<title>Node1&#45;&gt;Node23</title>
<g id="a_edge37_Node000001_Node000023"><a xlink:title=" ">
<path fill="none" stroke="#63b8ff" d="M528.74,-299.83C487.98,-303.17 432.18,-308.23 383.25,-314.46 362.32,-317.13 339.16,-320.79 319.9,-324.04"/>
<polygon fill="#63b8ff" stroke="#63b8ff" points="528.89,-303.33 538.57,-299.04 528.33,-296.36 528.89,-303.33"/>
</a>
</g>
</g>
<!-- Node3 -->
<g id="Node000003" class="node">
<title>Node3</title>
<g id="a_Node000003"><a xlink:href="../../d5/dd2/compute__elph__matq_8c.html#ad32ab6f17a3745b7f82151d7f5b927f2" target="_top" xlink:title=" ">
<polygon fill="white" stroke="#666666" points="341.62,-380.09 212.38,-380.09 212.38,-360.84 341.62,-360.84 341.62,-380.09"/>
<text xml:space="preserve" text-anchor="middle" x="277" y="-366.59" font-family="Helvetica,sans-Serif" font-size="10.00">compute_and_write_elphq</text>
</a>
</g>
</g>
<!-- Node2&#45;&gt;Node3 -->
<g id="edge2_Node000002_Node000003" class="edge">
<title>Node2&#45;&gt;Node3</title>
<g id="a_edge2_Node000002_Node000003"><a xlink:title=" ">
<path fill="none" stroke="#63b8ff" d="M386.5,-346.1C365.77,-350.75 342.57,-355.96 322.96,-360.37"/>
<polygon fill="#63b8ff" stroke="#63b8ff" points="387.26,-349.51 396.25,-343.91 385.73,-342.68 387.26,-349.51"/>
</a>
</g>
</g>
<!-- Node4 -->
<g id="Node000004" class="node">
<title>Node4</title>
<g id="a_Node000004"><a xlink:href="../../da/d2e/elph__driver_8c.html#ad9f405d41cf090d652dbe1307700665f" target="_top" xlink:title=" ">
<polygon fill="white" stroke="#666666" points="153.5,-380.09 90.25,-380.09 90.25,-360.84 153.5,-360.84 153.5,-380.09"/>
<text xml:space="preserve" text-anchor="middle" x="121.88" y="-366.59" font-family="Helvetica,sans-Serif" font-size="10.00">elph_driver</text>
</a>
</g>
</g>
<!-- Node3&#45;&gt;Node4 -->
<g id="edge3_Node000003_Node000004" class="edge">
<title>Node3&#45;&gt;Node4</title>
<g id="a_edge3_Node000003_Node000004"><a xlink:title=" ">
<path fill="none" stroke="#63b8ff" d="M200.52,-370.46C183.94,-370.46 167.3,-370.46 153.7,-370.46"/>
<polygon fill="#63b8ff" stroke="#63b8ff" points="200.43,-373.96 210.43,-370.46 200.43,-366.96 200.43,-373.96"/>
</a>
</g>
</g>
<!-- Node5 -->
<g id="Node000005" class="node">
<title>Node5</title>
<g id="a_Node000005"><a xlink:href="../../d3/dd5/main__elph_c_8c.html#a0ddf1224851353fc92bfbff6f499fa97" target="_top" xlink:title="Main program entry point.">
<polygon fill="white" stroke="#666666" points="37,-284.09 0,-284.09 0,-264.84 37,-264.84 37,-284.09"/>
<text xml:space="preserve" text-anchor="middle" x="18.5" y="-270.59" font-family="Helvetica,sans-Serif" font-size="10.00">main</text>
</a>
</g>
</g>
<!-- Node4&#45;&gt;Node5 -->
<g id="edge4_Node000004_Node000005" class="edge">
<title>Node4&#45;&gt;Node5</title>
<g id="a_edge4_Node000004_Node000005"><a xlink:title=" ">
<path fill="none" stroke="#63b8ff" d="M102.18,-352.76C80.97,-332.67 47.12,-300.62 30.06,-284.47"/>
<polygon fill="#63b8ff" stroke="#63b8ff" points="99.64,-355.18 109.31,-359.51 104.45,-350.09 99.64,-355.18"/>
</a>
</g>
</g>
<!-- Node7 -->
<g id="Node000007" class="node">
<title>Node7</title>
<g id="a_Node000007"><a xlink:href="../../db/d44/dyn__long__range_8c.html#a8f542a339e339996795dd2eafe9ac1de" target="_top" xlink:title=" ">
<polygon fill="white" stroke="#666666" points="337.5,-230.09 216.5,-230.09 216.5,-210.84 337.5,-210.84 337.5,-230.09"/>
<text xml:space="preserve" text-anchor="middle" x="277" y="-216.59" font-family="Helvetica,sans-Serif" font-size="10.00">add_ph_dyn_long_range</text>
</a>
</g>
</g>
<!-- Node6&#45;&gt;Node7 -->
<g id="edge6_Node000006_Node000007" class="edge">
<title>Node6&#45;&gt;Node7</title>
<g id="a_edge6_Node000006_Node000007"><a xlink:title=" ">
<path fill="none" stroke="#63b8ff" d="M373.1,-195.07C353.44,-200.32 332.8,-205.83 315.79,-210.37"/>
<polygon fill="#63b8ff" stroke="#63b8ff" points="373.98,-198.45 382.74,-192.49 372.17,-191.69 373.98,-198.45"/>
</a>
</g>
</g>
<!-- Node9 -->
<g id="Node000009" class="node">
<title>Node9</title>
<g id="a_Node000009"><a xlink:href="../../db/d44/dyn__long__range_8c.html#a370223ca23cf3f439f2c4efea9e09c04" target="_top" xlink:title=" ">
<polygon fill="white" stroke="#666666" points="328.88,-192.71 225.12,-192.71 225.12,-162.21 328.88,-162.21 328.88,-192.71"/>
<text xml:space="preserve" text-anchor="start" x="233.12" y="-179.21" font-family="Helvetica,sans-Serif" font-size="10.00">compute_dyn_lr_asr</text>
<text xml:space="preserve" text-anchor="middle" x="277" y="-167.96" font-family="Helvetica,sans-Serif" font-size="10.00">_correction</text>
</a>
</g>
</g>
<!-- Node6&#45;&gt;Node9 -->
<g id="edge9_Node000006_Node000009" class="edge">
<title>Node6&#45;&gt;Node9</title>
<g id="a_edge9_Node000006_Node000009"><a xlink:title=" ">
<path fill="none" stroke="#63b8ff" d="M371.52,-176.9C357.29,-176.98 342.6,-177.07 329.21,-177.15"/>
<polygon fill="#63b8ff" stroke="#63b8ff" points="371.31,-180.4 381.29,-176.84 371.27,-173.4 371.31,-180.4"/>
</a>
</g>
</g>
<!-- Node8 -->
<g id="Node000008" class="node">
<title>Node8</title>
<g id="a_Node000008"><a xlink:href="../../da/dc2/interpolation__driver_8c.html#aecc42ae41d168b486807b337fcf5b3de" target="_top" xlink:title=" ">
<polygon fill="white" stroke="#666666" points="170.75,-209.09 73,-209.09 73,-189.84 170.75,-189.84 170.75,-209.09"/>
<text xml:space="preserve" text-anchor="middle" x="121.88" y="-195.59" font-family="Helvetica,sans-Serif" font-size="10.00">interpolation_driver</text>
</a>
</g>
</g>
<!-- Node7&#45;&gt;Node8 -->
<g id="edge7_Node000007_Node000008" class="edge">
<title>Node7&#45;&gt;Node8</title>
<g id="a_edge7_Node000007_Node000008"><a xlink:title=" ">
<path fill="none" stroke="#63b8ff" d="M205.02,-210.73C193.58,-209.16 181.98,-207.57 171.24,-206.1"/>
<polygon fill="#63b8ff" stroke="#63b8ff" points="204.48,-214.19 214.86,-212.08 205.43,-207.25 204.48,-214.19"/>
</a>
</g>
</g>
<!-- Node8&#45;&gt;Node5 -->
<g id="edge8_Node000008_Node000005" class="edge">
<title>Node8&#45;&gt;Node5</title>
<g id="a_edge8_Node000008_Node000005"><a xlink:title=" ">
<path fill="none" stroke="#63b8ff" d="M98.14,-216.29C78.09,-231.12 49.57,-252.22 32.96,-264.51"/>
<polygon fill="#63b8ff" stroke="#63b8ff" points="100.03,-219.24 105.99,-210.48 95.87,-213.61 100.03,-219.24"/>
</a>
</g>
</g>
<!-- Node9&#45;&gt;Node8 -->
<g id="edge10_Node000009_Node000008" class="edge">
<title>Node9&#45;&gt;Node8</title>
<g id="a_edge10_Node000009_Node000008"><a xlink:title=" ">
<path fill="none" stroke="#63b8ff" d="M213.77,-186.4C199.53,-188.45 184.6,-190.6 171.05,-192.54"/>
<polygon fill="#63b8ff" stroke="#63b8ff" points="214.11,-189.89 223.51,-185.01 213.12,-182.96 214.11,-189.89"/>
</a>
</g>
</g>
<!-- Node10&#45;&gt;Node8 -->
<g id="edge12_Node000010_Node000008" class="edge">
<title>Node10&#45;&gt;Node8</title>
<g id="a_edge12_Node000010_Node000008"><a xlink:title=" ">
<path fill="none" stroke="#63b8ff" d="M218.6,-74.43C214.43,-76.87 210.42,-79.54 206.75,-82.46 167.65,-113.61 138.45,-167.5 127.55,-189.59"/>
<polygon fill="#63b8ff" stroke="#63b8ff" points="220.03,-77.63 227.24,-69.87 216.76,-71.44 220.03,-77.63"/>
</a>
</g>
</g>
<!-- Node11&#45;&gt;Node12 -->
<g id="edge14_Node000011_Node000012" class="edge">
<title>Node11&#45;&gt;Node12</title>
<g id="a_edge14_Node000011_Node000012"><a xlink:title=" ">
<path fill="none" stroke="#63b8ff" d="M388.04,-544.85C366.46,-539.87 342,-534.23 321.64,-529.53"/>
<polygon fill="#63b8ff" stroke="#63b8ff" points="387.03,-548.2 397.56,-547.04 388.6,-541.38 387.03,-548.2"/>
</a>
</g>
</g>
<!-- Node12&#45;&gt;Node4 -->
<g id="edge15_Node000012_Node000004" class="edge">
<title>Node12&#45;&gt;Node4</title>
<g id="a_edge15_Node000012_Node000004"><a xlink:title=" ">
<path fill="none" stroke="#63b8ff" d="M245.19,-503.96C232.57,-496.82 218.26,-487.67 206.75,-477.46 172.14,-446.77 141.36,-400.35 128.83,-380.28"/>
<polygon fill="#63b8ff" stroke="#63b8ff" points="243.51,-507.03 253.97,-508.73 246.86,-500.88 243.51,-507.03"/>
</a>
</g>
</g>
<!-- Node13&#45;&gt;Node8 -->
<g id="edge17_Node000013_Node000008" class="edge">
<title>Node13&#45;&gt;Node8</title>
<g id="a_edge17_Node000013_Node000008"><a xlink:title=" ">
<path fill="none" stroke="#63b8ff" d="M218.17,-22.1C214.09,-24.17 210.22,-26.6 206.75,-29.46 153.2,-73.67 130.94,-160.49 124.77,-189.65"/>
<polygon fill="#63b8ff" stroke="#63b8ff" points="219.42,-25.37 227.28,-18.26 216.7,-18.92 219.42,-25.37"/>
</a>
</g>
</g>
<!-- Node14&#45;&gt;Node4 -->
<g id="edge19_Node000014_Node000004" class="edge">
<title>Node14&#45;&gt;Node4</title>
<g id="a_edge19_Node000014_Node000004"><a xlink:title=" ">
<path fill="none" stroke="#63b8ff" d="M409.22,-479.81C362.08,-476.41 274.42,-466.16 206.75,-435.46 176.22,-421.61 146.7,-394.6 132.19,-380.15"/>
<polygon fill="#63b8ff" stroke="#63b8ff" points="408.85,-483.29 419.06,-480.45 409.31,-476.3 408.85,-483.29"/>
</a>
</g>
</g>
<!-- Node16 -->
<g id="Node000016" class="node">
<title>Node16</title>
<g id="a_Node000016"><a xlink:href="../../d5/d9f/compute__dmats_8c.html#aceeb11551c1d6413e6d4b5cae9704493" target="_top" xlink:title=" ">
<polygon fill="white" stroke="#666666" points="343.5,-426.09 210.5,-426.09 210.5,-406.84 343.5,-406.84 343.5,-426.09"/>
<text xml:space="preserve" text-anchor="middle" x="277" y="-412.59" font-family="Helvetica,sans-Serif" font-size="10.00">compute_and_write_dmats</text>
</a>
</g>
</g>
<!-- Node15&#45;&gt;Node16 -->
<g id="edge21_Node000015_Node000016" class="edge">
<title>Node15&#45;&gt;Node16</title>
<g id="a_edge21_Node000015_Node000016"><a xlink:title=" ">
<path fill="none" stroke="#63b8ff" d="M391.54,-435.76C374.42,-432.85 355.2,-429.59 337.51,-426.58"/>
<polygon fill="#63b8ff" stroke="#63b8ff" points="390.51,-439.14 400.96,-437.36 391.68,-432.24 390.51,-439.14"/>
</a>
</g>
</g>
<!-- Node16&#45;&gt;Node4 -->
<g id="edge22_Node000016_Node000004" class="edge">
<title>Node16&#45;&gt;Node4</title>
<g id="a_edge22_Node000016_Node000004"><a xlink:title=" ">
<path fill="none" stroke="#63b8ff" d="M231.39,-403.06C206.48,-395.58 176.08,-386.45 153.8,-379.75"/>
<polygon fill="#63b8ff" stroke="#63b8ff" points="230.36,-406.41 240.95,-405.93 232.38,-399.71 230.36,-406.41"/>
</a>
</g>
</g>
<!-- Node17&#45;&gt;Node3 -->
<g id="edge24_Node000017_Node000003" class="edge">
<title>Node17&#45;&gt;Node3</title>
<g id="a_edge24_Node000017_Node000003"><a xlink:title=" ">
<path fill="none" stroke="#63b8ff" d="M395.09,-396.76C372.37,-391.66 345.34,-385.59 322.98,-380.57"/>
<polygon fill="#63b8ff" stroke="#63b8ff" points="394.19,-400.15 404.71,-398.92 395.72,-393.32 394.19,-400.15"/>
</a>
</g>
</g>
<!-- Node18&#45;&gt;Node3 -->
<g id="edge26_Node000018_Node000003" class="edge">
<title>Node18&#45;&gt;Node3</title>
<g id="a_edge26_Node000018_Node000003"><a xlink:title=" ">
<path fill="none" stroke="#63b8ff" d="M403.38,-370.46C385.04,-370.46 362.74,-370.46 342.07,-370.46"/>
<polygon fill="#63b8ff" stroke="#63b8ff" points="403.29,-373.96 413.29,-370.46 403.29,-366.96 403.29,-373.96"/>
</a>
</g>
</g>
<!-- Node19&#45;&gt;Node8 -->
<g id="edge28_Node000019_Node000008" class="edge">
<title>Node19&#45;&gt;Node8</title>
<g id="a_edge28_Node000019_Node000008"><a xlink:title=" ">
<path fill="none" stroke="#63b8ff" d="M241.44,-249.86C230.23,-247.03 217.84,-243.51 206.75,-239.46 183.56,-231.01 158.13,-218.37 141.42,-209.57"/>
<polygon fill="#63b8ff" stroke="#63b8ff" points="240.57,-253.25 251.11,-252.19 242.21,-246.44 240.57,-253.25"/>
</a>
</g>
</g>
<!-- Node20&#45;&gt;Node8 -->
<g id="edge30_Node000020_Node000008" class="edge">
<title>Node20&#45;&gt;Node8</title>
<g id="a_edge30_Node000020_Node000008"><a xlink:title=" ">
<path fill="none" stroke="#63b8ff" d="M393.22,-131.76C344.68,-131.46 269.12,-134.64 206.75,-153.46 180.36,-161.43 152.93,-178.41 136.9,-189.36"/>
<polygon fill="#63b8ff" stroke="#63b8ff" points="393.1,-135.26 403.14,-131.89 393.18,-128.26 393.1,-135.26"/>
</a>
</g>
</g>
<!-- Node21&#45;&gt;Node8 -->
<g id="edge32_Node000021_Node000008" class="edge">
<title>Node21&#45;&gt;Node8</title>
<g id="a_edge32_Node000021_Node000008"><a xlink:title=" ">
<path fill="none" stroke="#63b8ff" d="M397.2,-95.21C348.11,-95.52 268.7,-100.9 206.75,-128.46 174.5,-142.81 145.06,-173.5 131.21,-189.42"/>
<polygon fill="#63b8ff" stroke="#63b8ff" points="397.18,-98.71 407.19,-95.23 397.19,-91.71 397.18,-98.71"/>
</a>
</g>
</g>
<!-- Node22&#45;&gt;Node4 -->
<g id="edge34_Node000022_Node000004" class="edge">
<title>Node22&#45;&gt;Node4</title>
<g id="a_edge34_Node000022_Node000004"><a xlink:title=" ">
<path fill="none" stroke="#63b8ff" d="M217.64,-308.03C213.9,-309.39 210.24,-310.86 206.75,-312.46 178.74,-325.3 150.06,-347.48 134.56,-360.37"/>
<polygon fill="#63b8ff" stroke="#63b8ff" points="218.46,-311.44 226.86,-304.98 216.26,-304.8 218.46,-311.44"/>
</a>
</g>
</g>
<!-- Node22&#45;&gt;Node8 -->
<g id="edge35_Node000022_Node000008" class="edge">
<title>Node22&#45;&gt;Node8</title>
<g id="a_edge35_Node000022_Node000008"><a xlink:title=" ">
<path fill="none" stroke="#63b8ff" d="M214.63,-280.3C211.92,-279.12 209.28,-277.84 206.75,-276.46 174.28,-258.79 144.49,-225.85 130.79,-209.38"/>
<polygon fill="#63b8ff" stroke="#63b8ff" points="213.33,-283.55 223.92,-283.86 215.83,-277.01 213.33,-283.55"/>
</a>
</g>
</g>
<!-- Node23&#45;&gt;Node4 -->
<g id="edge38_Node000023_Node000004" class="edge">
<title>Node23&#45;&gt;Node4</title>
<g id="a_edge38_Node000023_Node000004"><a xlink:title=" ">
<path fill="none" stroke="#63b8ff" d="M225.66,-344.29C202,-350.31 174.55,-357.3 153.97,-362.55"/>
<polygon fill="#63b8ff" stroke="#63b8ff" points="226.27,-347.74 235.1,-341.88 224.55,-340.96 226.27,-347.74"/>
</a>
</g>
</g>
<!-- Node23&#45;&gt;Node8 -->
<g id="edge39_Node000023_Node000008" class="edge">
<title>Node23&#45;&gt;Node8</title>
<g id="a_edge39_Node000023_Node000008"><a xlink:title=" ">
<path fill="none" stroke="#63b8ff" d="M223.41,-321.94C217.52,-319.69 211.83,-316.9 206.75,-313.46 166.06,-285.9 137.76,-231.83 127.32,-209.49"/>
<polygon fill="#63b8ff" stroke="#63b8ff" points="222.08,-325.19 232.68,-324.97 224.26,-318.53 222.08,-325.19"/>
</a>
</g>
</g>
</g>
</svg>
