<?xml version="1.0" encoding="UTF-8" standalone="no"?>
<!DOCTYPE svg PUBLIC "-//W3C//DTD SVG 1.1//EN"
 "http://www.w3.org/Graphics/SVG/1.1/DTD/svg11.dtd">
<!-- Generated by graphviz version 14.0.0 (20250921.2048)
 -->
<!-- Title: src/preprocessor/preprocessor.h Pages: 1 -->
<svg width="477pt" height="94pt"
 viewBox="0.00 0.00 477.00 94.00" xmlns="http://www.w3.org/2000/svg" xmlns:xlink="http://www.w3.org/1999/xlink">

<svg id="main" version="1.1" xmlns="http://www.w3.org/2000/svg" xmlns:xlink="http://www.w3.org/1999/xlink" xml:space="preserve">

<style type="text/css"><![CDATA[
.node, .edge {opacity: 0.7;}
.node.selected, .edge.selected {opacity: 1;}
.edge:hover path { stroke: red; }
.edge:hover polygon { stroke: red; fill: red; }
]]></style>
<script type="application/ecmascript" xlink:href="../../svg.min.js"/>
<svg id="graph" class="graph">
<g id="graph0" class="graph" transform="scale(1 1) rotate(0) translate(4 89.75)">
<title>src/preprocessor/preprocessor.h</title>
<!-- Node1 -->
<g id="Node000001" class="node">
<title>Node1</title>
<g id="a_Node000001"><a xlink:title=" ">
<polygon fill="#999999" stroke="#666666" points="305,-85.75 149.5,-85.75 149.5,-66.5 305,-66.5 305,-85.75"/>
<text xml:space="preserve" text-anchor="middle" x="227.25" y="-72.25" font-family="Helvetica,sans-Serif" font-size="10.00">src/preprocessor/preprocessor.h</text>
</a>
</g>
</g>
<!-- Node2 -->
<g id="Node000002" class="node">
<title>Node2</title>
<g id="a_Node000002"><a xlink:href="../../d3/dd5/main__elph_c_8c.html" target="_top" xlink:title="Main program entry point for LetzElPhC.">
<polygon fill="white" stroke="#666666" points="92.5,-24.88 0,-24.88 0,-5.63 92.5,-5.63 92.5,-24.88"/>
<text xml:space="preserve" text-anchor="middle" x="46.25" y="-11.38" font-family="Helvetica,sans-Serif" font-size="10.00">src/main_elphC.c</text>
</a>
</g>
</g>
<!-- Node1&#45;&gt;Node2 -->
<g id="edge1_Node000001_Node000002" class="edge">
<title>Node1&#45;&gt;Node2</title>
<g id="a_edge1_Node000001_Node000002"><a xlink:title=" ">
<path fill="none" stroke="#63b8ff" d="M188.78,-62.61C154.41,-51.43 104.87,-35.32 74.17,-25.33"/>
<polygon fill="#63b8ff" stroke="#63b8ff" points="187.33,-65.82 197.93,-65.59 189.5,-59.16 187.33,-65.82"/>
</a>
</g>
</g>
<!-- Node3 -->
<g id="Node000003" class="node">
<title>Node3</title>
<g id="a_Node000003"><a xlink:href="../../dd/def/cli_8c.html" target="_top" xlink:title=" ">
<polygon fill="white" stroke="#666666" points="220.12,-24.88 110.38,-24.88 110.38,-5.63 220.12,-5.63 220.12,-24.88"/>
<text xml:space="preserve" text-anchor="middle" x="165.25" y="-11.38" font-family="Helvetica,sans-Serif" font-size="10.00">src/preprocessor/cli.c</text>
</a>
</g>
</g>
<!-- Node1&#45;&gt;Node3 -->
<g id="edge2_Node000001_Node000003" class="edge">
<title>Node1&#45;&gt;Node3</title>
<g id="a_edge2_Node000001_Node000003"><a xlink:title=" ">
<path fill="none" stroke="#63b8ff" d="M209.53,-58.3C198.21,-47.55 183.98,-34.04 174.76,-25.28"/>
<polygon fill="#63b8ff" stroke="#63b8ff" points="207.07,-60.79 216.74,-65.14 211.89,-55.72 207.07,-60.79"/>
</a>
</g>
</g>
<!-- Node4 -->
<g id="Node000004" class="node">
<title>Node4</title>
<g id="a_Node000004"><a xlink:href="../../d5/d0a/pp__ph__save_8c.html" target="_top" xlink:title=" ">
<polygon fill="white" stroke="#666666" points="340.38,-30.5 238.12,-30.5 238.12,0 340.38,0 340.38,-30.5"/>
<text xml:space="preserve" text-anchor="start" x="246.12" y="-17" font-family="Helvetica,sans-Serif" font-size="10.00">src/preprocessor/pp</text>
<text xml:space="preserve" text-anchor="middle" x="289.25" y="-5.75" font-family="Helvetica,sans-Serif" font-size="10.00">_ph_save.c</text>
</a>
</g>
</g>
<!-- Node1&#45;&gt;Node4 -->
<g id="edge3_Node000001_Node000004" class="edge">
<title>Node1&#45;&gt;Node4</title>
<g id="a_edge3_Node000001_Node000004"><a xlink:title=" ">
<path fill="none" stroke="#63b8ff" d="M244.74,-58.52C253.93,-49.79 265.1,-39.18 273.95,-30.78"/>
<polygon fill="#63b8ff" stroke="#63b8ff" points="242.61,-55.72 237.76,-65.14 247.43,-60.79 242.61,-55.72"/>
</a>
</g>
</g>
<!-- Node5 -->
<g id="Node000005" class="node">
<title>Node5</title>
<g id="a_Node000005"><a xlink:href="../../d9/d71/print__help__version_8c.html" target="_top" xlink:title=" ">
<polygon fill="white" stroke="#666666" points="468.5,-30.5 358,-30.5 358,0 468.5,0 468.5,-30.5"/>
<text xml:space="preserve" text-anchor="start" x="366" y="-17" font-family="Helvetica,sans-Serif" font-size="10.00">src/preprocessor/print</text>
<text xml:space="preserve" text-anchor="middle" x="413.25" y="-5.75" font-family="Helvetica,sans-Serif" font-size="10.00">_help_version.c</text>
</a>
</g>
</g>
<!-- Node1&#45;&gt;Node5 -->
<g id="edge4_Node000001_Node000005" class="edge">
<title>Node1&#45;&gt;Node5</title>
<g id="a_edge4_Node000001_Node000005"><a xlink:title=" ">
<path fill="none" stroke="#63b8ff" d="M266.56,-62.68C295.85,-53.41 335.95,-40.72 366.83,-30.94"/>
<polygon fill="#63b8ff" stroke="#63b8ff" points="265.83,-59.24 257.35,-65.6 267.94,-65.92 265.83,-59.24"/>
</a>
</g>
</g>
</g>
</svg>
</svg>

<style type='text/css'>
<![CDATA[
[data-mouse-over-selected='false'] { opacity: 0.7; }
[data-mouse-over-selected='true']  { opacity: 1.0; }
]]>
</style>
<script type="application/ecmascript"><![CDATA[
document.addEventListener('DOMContentLoaded', (event) => {
  highlightEdges();
  highlightAdjacentNodes();
});
]]></script>
</svg>
