<?xml version="1.0" encoding="UTF-8" standalone="no"?>
<!DOCTYPE svg PUBLIC "-//W3C//DTD SVG 1.1//EN"
 "http://www.w3.org/Graphics/SVG/1.1/DTD/svg11.dtd">
<!-- Generated by graphviz version 14.0.0 (20250921.2048)
 -->
<!-- Title: src/symmetries/gen_iBZ_kpts.c Pages: 1 -->
<svg width="614pt" height="204pt"
 viewBox="0.00 0.00 614.00 204.00" xmlns="http://www.w3.org/2000/svg" xmlns:xlink="http://www.w3.org/1999/xlink">
<g id="graph0" class="graph" transform="scale(1 1) rotate(0) translate(4 200.25)">
<title>src/symmetries/gen_iBZ_kpts.c</title>
<!-- Node1 -->
<g id="Node000001" class="node">
<title>Node1</title>
<g id="a_Node000001"><a xlink:title=" ">
<polygon fill="#999999" stroke="#666666" points="314.12,-196.25 211.88,-196.25 211.88,-165.75 314.12,-165.75 314.12,-196.25"/>
<text xml:space="preserve" text-anchor="start" x="219.88" y="-182.75" font-family="Helvetica,sans-Serif" font-size="10.00">src/symmetries/gen</text>
<text xml:space="preserve" text-anchor="middle" x="263" y="-171.5" font-family="Helvetica,sans-Serif" font-size="10.00">_iBZ_kpts.c</text>
</a>
</g>
</g>
<!-- Node2 -->
<g id="Node000002" class="node">
<title>Node2</title>
<g id="a_Node000002"><a xlink:title=" ">
<polygon fill="#e0e0e0" stroke="#999999" points="46,-129.75 0,-129.75 0,-110.5 46,-110.5 46,-129.75"/>
<text xml:space="preserve" text-anchor="middle" x="23" y="-116.25" font-family="Helvetica,sans-Serif" font-size="10.00">math.h</text>
</a>
</g>
</g>
<!-- Node1&#45;&gt;Node2 -->
<g id="edge1_Node000001_Node000002" class="edge">
<title>Node1&#45;&gt;Node2</title>
<g id="a_edge1_Node000001_Node000002"><a xlink:title=" ">
<path fill="none" stroke="#63b8ff" d="M211.51,-167.37C165.01,-155.96 97.85,-139.49 57.51,-129.59"/>
<polygon fill="#63b8ff" stroke="#63b8ff" points="58.41,-126.21 47.86,-127.22 56.74,-133.01 58.41,-126.21"/>
</a>
</g>
</g>
<!-- Node3 -->
<g id="Node000003" class="node">
<title>Node3</title>
<g id="a_Node000003"><a xlink:title=" ">
<polygon fill="#e0e0e0" stroke="#999999" points="431.88,-19.25 376.12,-19.25 376.12,0 431.88,0 431.88,-19.25"/>
<text xml:space="preserve" text-anchor="middle" x="404" y="-5.75" font-family="Helvetica,sans-Serif" font-size="10.00">stdbool.h</text>
</a>
</g>
</g>
<!-- Node1&#45;&gt;Node3 -->
<g id="edge2_Node000001_Node000003" class="edge">
<title>Node1&#45;&gt;Node3</title>
<g id="a_edge2_Node000001_Node000003"><a xlink:title=" ">
<path fill="none" stroke="#63b8ff" d="M275.27,-165.27C301.12,-134.21 361.14,-62.12 389.13,-28.49"/>
<polygon fill="#63b8ff" stroke="#63b8ff" points="391.74,-30.82 395.45,-20.9 386.36,-26.34 391.74,-30.82"/>
</a>
</g>
</g>
<!-- Node4 -->
<g id="Node000004" class="node">
<title>Node4</title>
<g id="a_Node000004"><a xlink:title=" ">
<polygon fill="#e0e0e0" stroke="#999999" points="149.75,-129.75 102.25,-129.75 102.25,-110.5 149.75,-110.5 149.75,-129.75"/>
<text xml:space="preserve" text-anchor="middle" x="126" y="-116.25" font-family="Helvetica,sans-Serif" font-size="10.00">stdlib.h</text>
</a>
</g>
</g>
<!-- Node1&#45;&gt;Node4 -->
<g id="edge3_Node000001_Node000004" class="edge">
<title>Node1&#45;&gt;Node4</title>
<g id="a_edge3_Node000001_Node000004"><a xlink:title=" ">
<path fill="none" stroke="#63b8ff" d="M228.78,-165.3C206.92,-155.9 178.77,-143.8 157.46,-134.64"/>
<polygon fill="#63b8ff" stroke="#63b8ff" points="158.97,-131.48 148.4,-130.75 156.21,-137.92 158.97,-131.48"/>
</a>
</g>
</g>
<!-- Node5 -->
<g id="Node000005" class="node">
<title>Node5</title>
<g id="a_Node000005"><a xlink:title=" ">
<polygon fill="#e0e0e0" stroke="#999999" points="216.12,-129.75 167.88,-129.75 167.88,-110.5 216.12,-110.5 216.12,-129.75"/>
<text xml:space="preserve" text-anchor="middle" x="192" y="-116.25" font-family="Helvetica,sans-Serif" font-size="10.00">string.h</text>
</a>
</g>
</g>
<!-- Node1&#45;&gt;Node5 -->
<g id="edge4_Node000001_Node000005" class="edge">
<title>Node1&#45;&gt;Node5</title>
<g id="a_edge4_Node000001_Node000005"><a xlink:title=" ">
<path fill="none" stroke="#63b8ff" d="M245.45,-165.45C235.16,-156.91 222.14,-146.12 211.52,-137.31"/>
<polygon fill="#63b8ff" stroke="#63b8ff" points="214.04,-134.86 204.11,-131.17 209.57,-140.24 214.04,-134.86"/>
</a>
</g>
</g>
<!-- Node6 -->
<g id="Node000006" class="node">
<title>Node6</title>
<g id="a_Node000006"><a xlink:href="../../d2/d6f/constants_8h.html" target="_top" xlink:title=" ">
<polygon fill="white" stroke="#666666" points="143.75,-74.5 36.25,-74.5 36.25,-55.25 143.75,-55.25 143.75,-74.5"/>
<text xml:space="preserve" text-anchor="middle" x="90" y="-61" font-family="Helvetica,sans-Serif" font-size="10.00">common/constants.h</text>
</a>
</g>
</g>
<!-- Node1&#45;&gt;Node6 -->
<g id="edge5_Node000001_Node000006" class="edge">
<title>Node1&#45;&gt;Node6</title>
<g id="a_edge5_Node000001_Node000006"><a xlink:title=" ">
<path fill="none" stroke="#63b8ff" d="M211.57,-179.76C172.48,-176.55 120.83,-165.23 93,-129.75 83.45,-117.58 83.41,-99.73 85.35,-86"/>
<polygon fill="#63b8ff" stroke="#63b8ff" points="88.77,-86.78 87.2,-76.3 81.89,-85.47 88.77,-86.78"/>
</a>
</g>
</g>
<!-- Node7 -->
<g id="Node000007" class="node">
<title>Node7</title>
<g id="a_Node000007"><a xlink:href="../../d4/d0a/elph_c_8h.html" target="_top" xlink:title="Core type definitions and configuration for LetzElPhC.">
<polygon fill="white" stroke="#666666" points="297.88,-19.25 248.12,-19.25 248.12,0 297.88,0 297.88,-19.25"/>
<text xml:space="preserve" text-anchor="middle" x="273" y="-5.75" font-family="Helvetica,sans-Serif" font-size="10.00">elphC.h</text>
</a>
</g>
</g>
<!-- Node1&#45;&gt;Node7 -->
<g id="edge16_Node000001_Node000007" class="edge">
<title>Node1&#45;&gt;Node7</title>
<g id="a_edge16_Node000001_Node000007"><a xlink:title=" ">
<path fill="none" stroke="#63b8ff" d="M255.66,-165.32C248.35,-151.04 236.6,-128.88 225,-110.5 214.47,-93.81 205.07,-93.28 199,-74.5 196.37,-66.36 194.79,-62.7 199,-55.25 207.37,-40.43 222.86,-29.98 237.51,-22.94"/>
<polygon fill="#63b8ff" stroke="#63b8ff" points="238.76,-26.21 246.53,-19 235.96,-19.79 238.76,-26.21"/>
</a>
</g>
</g>
<!-- Node8 -->
<g id="Node000008" class="node">
<title>Node8</title>
<g id="a_Node000008"><a xlink:href="../../d2/d02/dtypes_8h.html" target="_top" xlink:title=" ">
<polygon fill="white" stroke="#666666" points="564,-74.5 470,-74.5 470,-55.25 564,-55.25 564,-74.5"/>
<text xml:space="preserve" text-anchor="middle" x="517" y="-61" font-family="Helvetica,sans-Serif" font-size="10.00">common/dtypes.h</text>
</a>
</g>
</g>
<!-- Node1&#45;&gt;Node8 -->
<g id="edge7_Node000001_Node000008" class="edge">
<title>Node1&#45;&gt;Node8</title>
<g id="a_edge7_Node000001_Node000008"><a xlink:title=" ">
<path fill="none" stroke="#63b8ff" d="M314.21,-180.26C362.64,-177.96 435,-167.69 484,-129.75 498.19,-118.77 506.85,-99.98 511.71,-85.61"/>
<polygon fill="#63b8ff" stroke="#63b8ff" points="514.98,-86.89 514.51,-76.3 508.28,-84.87 514.98,-86.89"/>
</a>
</g>
</g>
<!-- Node10 -->
<g id="Node000010" class="node">
<title>Node10</title>
<g id="a_Node000010"><a xlink:href="../../da/d41/error_8h.html" target="_top" xlink:title=" ">
<polygon fill="white" stroke="#666666" points="605.5,-19.25 562.5,-19.25 562.5,0 605.5,0 605.5,-19.25"/>
<text xml:space="preserve" text-anchor="middle" x="584" y="-5.75" font-family="Helvetica,sans-Serif" font-size="10.00">error.h</text>
</a>
</g>
</g>
<!-- Node1&#45;&gt;Node10 -->
<g id="edge12_Node000001_Node000010" class="edge">
<title>Node1&#45;&gt;Node10</title>
<g id="a_edge12_Node000001_Node000010"><a xlink:title=" ">
<path fill="none" stroke="#63b8ff" d="M314.62,-176.57C365.45,-171.56 444.23,-159.34 506,-129.75 540.81,-113.07 553.63,-107.88 573,-74.5 580.7,-61.22 583.32,-43.96 584.09,-30.73"/>
<polygon fill="#63b8ff" stroke="#63b8ff" points="587.58,-31.13 584.32,-21.05 580.58,-30.97 587.58,-31.13"/>
</a>
</g>
</g>
<!-- Node11 -->
<g id="Node000011" class="node">
<title>Node11</title>
<g id="a_Node000011"><a xlink:href="../../df/def/numerical__func_8h.html" target="_top" xlink:title=" ">
<polygon fill="white" stroke="#666666" points="338.38,-74.5 207.62,-74.5 207.62,-55.25 338.38,-55.25 338.38,-74.5"/>
<text xml:space="preserve" text-anchor="middle" x="273" y="-61" font-family="Helvetica,sans-Serif" font-size="10.00">common/numerical_func.h</text>
</a>
</g>
</g>
<!-- Node1&#45;&gt;Node11 -->
<g id="edge13_Node000001_Node000011" class="edge">
<title>Node1&#45;&gt;Node11</title>
<g id="a_edge13_Node000001_Node000011"><a xlink:title=" ">
<path fill="none" stroke="#63b8ff" d="M264.27,-165.55C266.02,-145.5 269.21,-109.15 271.21,-86.32"/>
<polygon fill="#63b8ff" stroke="#63b8ff" points="274.69,-86.72 272.07,-76.46 267.71,-86.11 274.69,-86.72"/>
</a>
</g>
</g>
<!-- Node12 -->
<g id="Node000012" class="node">
<title>Node12</title>
<g id="a_Node000012"><a xlink:href="../../dc/dec/symmetries_8h.html" target="_top" xlink:title=" ">
<polygon fill="white" stroke="#666666" points="474.62,-129.75 399.38,-129.75 399.38,-110.5 474.62,-110.5 474.62,-129.75"/>
<text xml:space="preserve" text-anchor="middle" x="437" y="-116.25" font-family="Helvetica,sans-Serif" font-size="10.00">symmetries.h</text>
</a>
</g>
</g>
<!-- Node1&#45;&gt;Node12 -->
<g id="edge17_Node000001_Node000012" class="edge">
<title>Node1&#45;&gt;Node12</title>
<g id="a_edge17_Node000001_Node000012"><a xlink:title=" ">
<path fill="none" stroke="#63b8ff" d="M306.46,-165.3C335.03,-155.63 372.05,-143.1 399.37,-133.86"/>
<polygon fill="#63b8ff" stroke="#63b8ff" points="400.27,-137.25 408.63,-130.73 398.03,-130.62 400.27,-137.25"/>
</a>
</g>
</g>
<!-- Node6&#45;&gt;Node7 -->
<g id="edge6_Node000006_Node000007" class="edge">
<title>Node6&#45;&gt;Node7</title>
<g id="a_edge6_Node000006_Node000007"><a xlink:title=" ">
<path fill="none" stroke="#63b8ff" d="M121.04,-54.84C153.11,-45.51 203.11,-30.96 236.91,-21.13"/>
<polygon fill="#63b8ff" stroke="#63b8ff" points="237.63,-24.56 246.25,-18.41 235.67,-17.84 237.63,-24.56"/>
</a>
</g>
</g>
<!-- Node8&#45;&gt;Node3 -->
<g id="edge9_Node000008_Node000003" class="edge">
<title>Node8&#45;&gt;Node3</title>
<g id="a_edge9_Node000008_Node000003"><a xlink:title=" ">
<path fill="none" stroke="#63b8ff" d="M497.83,-54.84C480.22,-46.54 453.84,-34.11 433.54,-24.54"/>
<polygon fill="#63b8ff" stroke="#63b8ff" points="435.17,-21.44 424.63,-20.35 432.19,-27.78 435.17,-21.44"/>
</a>
</g>
</g>
<!-- Node8&#45;&gt;Node7 -->
<g id="edge10_Node000008_Node000007" class="edge">
<title>Node8&#45;&gt;Node7</title>
<g id="a_edge10_Node000008_Node000007"><a xlink:title=" ">
<path fill="none" stroke="#63b8ff" d="M475.33,-54.78C428.6,-44.58 353.57,-28.21 309.2,-18.52"/>
<polygon fill="#63b8ff" stroke="#63b8ff" points="310.07,-15.13 299.56,-16.42 308.58,-21.97 310.07,-15.13"/>
</a>
</g>
</g>
<!-- Node9 -->
<g id="Node000009" class="node">
<title>Node9</title>
<g id="a_Node000009"><a xlink:title=" ">
<polygon fill="#e0e0e0" stroke="#999999" points="537,-19.25 497,-19.25 497,0 537,0 537,-19.25"/>
<text xml:space="preserve" text-anchor="middle" x="517" y="-5.75" font-family="Helvetica,sans-Serif" font-size="10.00">mpi.h</text>
</a>
</g>
</g>
<!-- Node8&#45;&gt;Node9 -->
<g id="edge8_Node000008_Node000009" class="edge">
<title>Node8&#45;&gt;Node9</title>
<g id="a_edge8_Node000008_Node000009"><a xlink:title=" ">
<path fill="none" stroke="#63b8ff" d="M517,-55.08C517,-48.57 517,-39.42 517,-31.12"/>
<polygon fill="#63b8ff" stroke="#63b8ff" points="520.5,-31.12 517,-21.12 513.5,-31.12 520.5,-31.12"/>
</a>
</g>
</g>
<!-- Node8&#45;&gt;Node10 -->
<g id="edge11_Node000008_Node000010" class="edge">
<title>Node8&#45;&gt;Node10</title>
<g id="a_edge11_Node000008_Node000010"><a xlink:title=" ">
<path fill="none" stroke="#63b8ff" d="M528.37,-54.84C538.05,-47.15 552.2,-35.9 563.81,-26.68"/>
<polygon fill="#63b8ff" stroke="#63b8ff" points="565.97,-29.43 571.62,-20.47 561.61,-23.95 565.97,-29.43"/>
</a>
</g>
</g>
<!-- Node11&#45;&gt;Node3 -->
<g id="edge14_Node000011_Node000003" class="edge">
<title>Node11&#45;&gt;Node3</title>
<g id="a_edge14_Node000011_Node000003"><a xlink:title=" ">
<path fill="none" stroke="#63b8ff" d="M295.22,-54.84C316.02,-46.39 347.35,-33.65 371.05,-24.02"/>
<polygon fill="#63b8ff" stroke="#63b8ff" points="372.32,-27.28 380.27,-20.27 369.68,-20.8 372.32,-27.28"/>
</a>
</g>
</g>
<!-- Node11&#45;&gt;Node7 -->
<g id="edge15_Node000011_Node000007" class="edge">
<title>Node11&#45;&gt;Node7</title>
<g id="a_edge15_Node000011_Node000007"><a xlink:title=" ">
<path fill="none" stroke="#63b8ff" d="M273,-55.08C273,-48.57 273,-39.42 273,-31.12"/>
<polygon fill="#63b8ff" stroke="#63b8ff" points="276.5,-31.12 273,-21.12 269.5,-31.12 276.5,-31.12"/>
</a>
</g>
</g>
<!-- Node12&#45;&gt;Node3 -->
<g id="edge18_Node000012_Node000003" class="edge">
<title>Node12&#45;&gt;Node3</title>
<g id="a_edge18_Node000012_Node000003"><a xlink:title=" ">
<path fill="none" stroke="#63b8ff" d="M434.34,-110.02C430.7,-97.61 423.95,-74.72 418,-55.25 415.51,-47.1 412.71,-38.12 410.27,-30.38"/>
<polygon fill="#63b8ff" stroke="#63b8ff" points="413.64,-29.43 407.28,-20.95 406.96,-31.54 413.64,-29.43"/>
</a>
</g>
</g>
<!-- Node12&#45;&gt;Node7 -->
<g id="edge20_Node000012_Node000007" class="edge">
<title>Node12&#45;&gt;Node7</title>
<g id="a_edge20_Node000012_Node000007"><a xlink:title=" ">
<path fill="none" stroke="#63b8ff" d="M424.97,-110.15C407.9,-97.52 375.53,-73.94 347,-55.25 331.15,-44.86 312.92,-33.86 298.52,-25.38"/>
<polygon fill="#63b8ff" stroke="#63b8ff" points="300.51,-22.49 290.11,-20.46 296.97,-28.53 300.51,-22.49"/>
</a>
</g>
</g>
<!-- Node12&#45;&gt;Node8 -->
<g id="edge19_Node000012_Node000008" class="edge">
<title>Node12&#45;&gt;Node8</title>
<g id="a_edge19_Node000012_Node000008"><a xlink:title=" ">
<path fill="none" stroke="#63b8ff" d="M450.57,-110.09C462.41,-102.21 479.84,-90.61 493.87,-81.27"/>
<polygon fill="#63b8ff" stroke="#63b8ff" points="495.72,-84.25 502.1,-75.79 491.84,-78.42 495.72,-84.25"/>
</a>
</g>
</g>
</g>
</svg>
