<?xml version="1.0" encoding="UTF-8" standalone="no"?>
<!DOCTYPE svg PUBLIC "-//W3C//DTD SVG 1.1//EN"
 "http://www.w3.org/Graphics/SVG/1.1/DTD/svg11.dtd">
<!-- Generated by graphviz version 14.0.0 (20250921.2048)
 -->
<!-- Title: src/common/omp_pragma_def.h Pages: 1 -->
<svg width="1830pt" height="105pt"
 viewBox="0.00 0.00 1830.00 105.00" xmlns="http://www.w3.org/2000/svg" xmlns:xlink="http://www.w3.org/1999/xlink">
<g id="graph0" class="graph" transform="scale(1 1) rotate(0) translate(4 101)">
<title>src/common/omp_pragma_def.h</title>
<!-- Node1 -->
<g id="Node000001" class="node">
<title>Node1</title>
<g id="a_Node000001"><a xlink:title=" ">
<polygon fill="#999999" stroke="#666666" points="980.12,-97 850.88,-97 850.88,-66.5 980.12,-66.5 980.12,-97"/>
<text xml:space="preserve" text-anchor="start" x="858.88" y="-83.5" font-family="Helvetica,sans-Serif" font-size="10.00">src/common/omp_pragma</text>
<text xml:space="preserve" text-anchor="middle" x="915.5" y="-72.25" font-family="Helvetica,sans-Serif" font-size="10.00">_def.h</text>
</a>
</g>
</g>
<!-- Node2 -->
<g id="Node000002" class="node">
<title>Node2</title>
<g id="a_Node000002"><a xlink:href="../../de/d2d/numerical__func_8c.html" target="_top" xlink:title=" ">
<polygon fill="white" stroke="#666666" points="115,-30.5 0,-30.5 0,0 115,0 115,-30.5"/>
<text xml:space="preserve" text-anchor="start" x="8" y="-17" font-family="Helvetica,sans-Serif" font-size="10.00">src/common/numerical</text>
<text xml:space="preserve" text-anchor="middle" x="57.5" y="-5.75" font-family="Helvetica,sans-Serif" font-size="10.00">_func.c</text>
</a>
</g>
</g>
<!-- Node1&#45;&gt;Node2 -->
<g id="edge1_Node000001_Node000002" class="edge">
<title>Node1&#45;&gt;Node2</title>
<g id="a_edge1_Node000001_Node000002"><a xlink:title=" ">
<path fill="none" stroke="#63b8ff" d="M839.48,-79.61C698.08,-76.67 385.31,-66.32 124.5,-30.5 121.44,-30.08 118.3,-29.6 115.15,-29.07"/>
<polygon fill="#63b8ff" stroke="#63b8ff" points="839,-83.1 849.07,-79.8 839.14,-76.1 839,-83.1"/>
</a>
</g>
</g>
<!-- Node3 -->
<g id="Node000003" class="node">
<title>Node3</title>
<g id="a_Node000003"><a xlink:href="../../d5/d46/add__dvscf_8c.html" target="_top" xlink:title=" ">
<polygon fill="white" stroke="#666666" points="245.5,-24.88 133.5,-24.88 133.5,-5.63 245.5,-5.63 245.5,-24.88"/>
<text xml:space="preserve" text-anchor="middle" x="189.5" y="-11.38" font-family="Helvetica,sans-Serif" font-size="10.00">src/dvloc/add_dvscf.c</text>
</a>
</g>
</g>
<!-- Node1&#45;&gt;Node3 -->
<g id="edge2_Node000001_Node000003" class="edge">
<title>Node1&#45;&gt;Node3</title>
<g id="a_edge2_Node000001_Node000003"><a xlink:title=" ">
<path fill="none" stroke="#63b8ff" d="M839.25,-78.42C715.82,-73.87 464.85,-61.4 254.5,-30.5 245.47,-29.17 235.82,-27.31 226.8,-25.36"/>
<polygon fill="#63b8ff" stroke="#63b8ff" points="838.8,-81.9 848.92,-78.77 839.05,-74.91 838.8,-81.9"/>
</a>
</g>
</g>
<!-- Node4 -->
<g id="Node000004" class="node">
<title>Node4</title>
<g id="a_Node000004"><a xlink:href="../../d1/d8e/compute___vbare__loc_8c.html" target="_top" xlink:title=" ">
<polygon fill="white" stroke="#666666" points="391,-30.5 264,-30.5 264,0 391,0 391,-30.5"/>
<text xml:space="preserve" text-anchor="start" x="272" y="-17" font-family="Helvetica,sans-Serif" font-size="10.00">src/dvloc/compute_Vbare</text>
<text xml:space="preserve" text-anchor="middle" x="327.5" y="-5.75" font-family="Helvetica,sans-Serif" font-size="10.00">_loc.c</text>
</a>
</g>
</g>
<!-- Node1&#45;&gt;Node4 -->
<g id="edge3_Node000001_Node000004" class="edge">
<title>Node1&#45;&gt;Node4</title>
<g id="a_edge3_Node000001_Node000004"><a xlink:title=" ">
<path fill="none" stroke="#63b8ff" d="M839.19,-75.68C738.24,-68.42 554.91,-53.39 399.5,-30.5 396.85,-30.11 394.16,-29.69 391.43,-29.24"/>
<polygon fill="#63b8ff" stroke="#63b8ff" points="838.76,-79.15 848.98,-76.37 839.26,-72.17 838.76,-79.15"/>
</a>
</g>
</g>
<!-- Node5 -->
<g id="Node000005" class="node">
<title>Node5</title>
<g id="a_Node000005"><a xlink:href="../../d9/d90/d_vbare__loc_8c.html" target="_top" xlink:title=" ">
<polygon fill="white" stroke="#666666" points="524.38,-24.88 408.62,-24.88 408.62,-5.63 524.38,-5.63 524.38,-24.88"/>
<text xml:space="preserve" text-anchor="middle" x="466.5" y="-11.38" font-family="Helvetica,sans-Serif" font-size="10.00">src/dvloc/dVbare_loc.c</text>
</a>
</g>
</g>
<!-- Node1&#45;&gt;Node5 -->
<g id="edge4_Node000001_Node000005" class="edge">
<title>Node1&#45;&gt;Node5</title>
<g id="a_edge4_Node000001_Node000005"><a xlink:title=" ">
<path fill="none" stroke="#63b8ff" d="M839.31,-72.52C762.02,-63.75 639.06,-48.64 533.5,-30.5 524.83,-29.01 515.57,-27.19 506.79,-25.36"/>
<polygon fill="#63b8ff" stroke="#63b8ff" points="838.54,-75.95 848.87,-73.6 839.33,-69 838.54,-75.95"/>
</a>
</g>
</g>
<!-- Node6 -->
<g id="Node000006" class="node">
<title>Node6</title>
<g id="a_Node000006"><a xlink:href="../../d9/def/d_vlong__range__kernel_8c.html" target="_top" xlink:title=" ">
<polygon fill="white" stroke="#666666" points="660.5,-30.5 542.5,-30.5 542.5,0 660.5,0 660.5,-30.5"/>
<text xml:space="preserve" text-anchor="start" x="550.5" y="-17" font-family="Helvetica,sans-Serif" font-size="10.00">src/dvloc/dVlong_range</text>
<text xml:space="preserve" text-anchor="middle" x="601.5" y="-5.75" font-family="Helvetica,sans-Serif" font-size="10.00">_kernel.c</text>
</a>
</g>
</g>
<!-- Node1&#45;&gt;Node6 -->
<g id="edge5_Node000001_Node000006" class="edge">
<title>Node1&#45;&gt;Node6</title>
<g id="a_edge5_Node000001_Node000006"><a xlink:title=" ">
<path fill="none" stroke="#63b8ff" d="M839.42,-65.31C790.8,-55.42 726.43,-42.28 669.5,-30.5 666.67,-29.91 663.76,-29.31 660.83,-28.7"/>
<polygon fill="#63b8ff" stroke="#63b8ff" points="838.5,-68.7 849,-67.26 839.89,-61.84 838.5,-68.7"/>
</a>
</g>
</g>
<!-- Node7 -->
<g id="Node000007" class="node">
<title>Node7</title>
<g id="a_Node000007"><a xlink:href="../../d1/d94/d_vpot__add__long__range_8c.html" target="_top" xlink:title=" ">
<polygon fill="white" stroke="#666666" points="784.12,-30.5 678.88,-30.5 678.88,0 784.12,0 784.12,-30.5"/>
<text xml:space="preserve" text-anchor="start" x="686.88" y="-17" font-family="Helvetica,sans-Serif" font-size="10.00">src/dvloc/dVpot_add</text>
<text xml:space="preserve" text-anchor="middle" x="731.5" y="-5.75" font-family="Helvetica,sans-Serif" font-size="10.00">_long_range.c</text>
</a>
</g>
</g>
<!-- Node1&#45;&gt;Node7 -->
<g id="edge6_Node000001_Node000007" class="edge">
<title>Node1&#45;&gt;Node7</title>
<g id="a_edge6_Node000001_Node000007"><a xlink:title=" ">
<path fill="none" stroke="#63b8ff" d="M863.18,-62.41C834.74,-52.44 800.04,-40.28 773.41,-30.94"/>
<polygon fill="#63b8ff" stroke="#63b8ff" points="861.72,-65.61 872.32,-65.61 864.04,-59 861.72,-65.61"/>
</a>
</g>
</g>
<!-- Node8 -->
<g id="Node000008" class="node">
<title>Node8</title>
<g id="a_Node000008"><a xlink:href="../../d4/dd4/multiply__eikr_8c.html" target="_top" xlink:title=" ">
<polygon fill="white" stroke="#666666" points="894.75,-30.5 802.25,-30.5 802.25,0 894.75,0 894.75,-30.5"/>
<text xml:space="preserve" text-anchor="start" x="810.25" y="-17" font-family="Helvetica,sans-Serif" font-size="10.00">src/dvloc/multiply</text>
<text xml:space="preserve" text-anchor="middle" x="848.5" y="-5.75" font-family="Helvetica,sans-Serif" font-size="10.00">_eikr.c</text>
</a>
</g>
</g>
<!-- Node1&#45;&gt;Node8 -->
<g id="edge7_Node000001_Node000008" class="edge">
<title>Node1&#45;&gt;Node8</title>
<g id="a_edge7_Node000001_Node000008"><a xlink:title=" ">
<path fill="none" stroke="#63b8ff" d="M892.06,-58.19C882.63,-49.11 872.03,-38.9 863.64,-30.83"/>
<polygon fill="#63b8ff" stroke="#63b8ff" points="889.57,-60.65 899.21,-65.06 894.43,-55.61 889.57,-60.65"/>
</a>
</g>
</g>
<!-- Node9 -->
<g id="Node000009" class="node">
<title>Node9</title>
<g id="a_Node000009"><a xlink:href="../../d9/d41/interpolation__utilities_8c.html" target="_top" xlink:title=" ">
<polygon fill="white" stroke="#666666" points="1053.75,-30.5 913.25,-30.5 913.25,0 1053.75,0 1053.75,-30.5"/>
<text xml:space="preserve" text-anchor="start" x="921.25" y="-17" font-family="Helvetica,sans-Serif" font-size="10.00">src/interpolation/interpolation</text>
<text xml:space="preserve" text-anchor="middle" x="983.5" y="-5.75" font-family="Helvetica,sans-Serif" font-size="10.00">_utilities.c</text>
</a>
</g>
</g>
<!-- Node1&#45;&gt;Node9 -->
<g id="edge8_Node000001_Node000009" class="edge">
<title>Node1&#45;&gt;Node9</title>
<g id="a_edge8_Node000001_Node000009"><a xlink:title=" ">
<path fill="none" stroke="#63b8ff" d="M938.99,-58.46C948.64,-49.32 959.53,-38.98 968.13,-30.83"/>
<polygon fill="#63b8ff" stroke="#63b8ff" points="936.88,-55.65 932.03,-65.07 941.69,-60.73 936.88,-55.65"/>
</a>
</g>
</g>
<!-- Node10 -->
<g id="Node000010" class="node">
<title>Node10</title>
<g id="a_Node000010"><a xlink:href="../../d6/db8/_vbare__nloc_8c.html" target="_top" xlink:title=" ">
<polygon fill="white" stroke="#666666" points="1193,-24.88 1072,-24.88 1072,-5.63 1193,-5.63 1193,-24.88"/>
<text xml:space="preserve" text-anchor="middle" x="1132.5" y="-11.38" font-family="Helvetica,sans-Serif" font-size="10.00">src/nonloc/Vbare_nloc.c</text>
</a>
</g>
</g>
<!-- Node1&#45;&gt;Node10 -->
<g id="edge9_Node000001_Node000010" class="edge">
<title>Node1&#45;&gt;Node10</title>
<g id="a_edge9_Node000001_Node000010"><a xlink:title=" ">
<path fill="none" stroke="#63b8ff" d="M975.97,-62.78C1016.95,-50.6 1069.38,-35.01 1101.95,-25.33"/>
<polygon fill="#63b8ff" stroke="#63b8ff" points="975.05,-59.4 966.46,-65.6 977.05,-66.11 975.05,-59.4"/>
</a>
</g>
</g>
<!-- Node11 -->
<g id="Node000011" class="node">
<title>Node11</title>
<g id="a_Node000011"><a xlink:href="../../db/d44/dyn__long__range_8c.html" target="_top" xlink:title=" ">
<polygon fill="white" stroke="#666666" points="1317.5,-30.5 1211.5,-30.5 1211.5,0 1317.5,0 1317.5,-30.5"/>
<text xml:space="preserve" text-anchor="start" x="1219.5" y="-17" font-family="Helvetica,sans-Serif" font-size="10.00">src/phonon/dyn_long</text>
<text xml:space="preserve" text-anchor="middle" x="1264.5" y="-5.75" font-family="Helvetica,sans-Serif" font-size="10.00">_range.c</text>
</a>
</g>
</g>
<!-- Node1&#45;&gt;Node11 -->
<g id="edge10_Node000001_Node000011" class="edge">
<title>Node1&#45;&gt;Node11</title>
<g id="a_edge10_Node000001_Node000011"><a xlink:title=" ">
<path fill="none" stroke="#63b8ff" d="M991.63,-68.54C1049.59,-58.97 1131.27,-44.91 1202.5,-30.5 1205.31,-29.93 1208.2,-29.33 1211.1,-28.71"/>
<polygon fill="#63b8ff" stroke="#63b8ff" points="991.16,-65.07 981.86,-70.15 992.3,-71.98 991.16,-65.07"/>
</a>
</g>
</g>
<!-- Node12 -->
<g id="Node000012" class="node">
<title>Node12</title>
<g id="a_Node000012"><a xlink:href="../../d7/db8/rotate__dvscf_8c.html" target="_top" xlink:title=" ">
<polygon fill="white" stroke="#666666" points="1447.12,-30.5 1335.88,-30.5 1335.88,0 1447.12,0 1447.12,-30.5"/>
<text xml:space="preserve" text-anchor="start" x="1343.88" y="-17" font-family="Helvetica,sans-Serif" font-size="10.00">src/symmetries/rotate</text>
<text xml:space="preserve" text-anchor="middle" x="1391.5" y="-5.75" font-family="Helvetica,sans-Serif" font-size="10.00">_dvscf.c</text>
</a>
</g>
</g>
<!-- Node1&#45;&gt;Node12 -->
<g id="edge11_Node000001_Node000012" class="edge">
<title>Node1&#45;&gt;Node12</title>
<g id="a_edge11_Node000001_Node000012"><a xlink:title=" ">
<path fill="none" stroke="#63b8ff" d="M991.87,-73.59C1074.63,-65.32 1210.43,-50.27 1326.5,-30.5 1329.46,-30 1332.49,-29.45 1335.55,-28.87"/>
<polygon fill="#63b8ff" stroke="#63b8ff" points="991.66,-70.09 982.06,-74.56 992.36,-77.05 991.66,-70.09"/>
</a>
</g>
</g>
<!-- Node13 -->
<g id="Node000013" class="node">
<title>Node13</title>
<g id="a_Node000013"><a xlink:href="../../d7/dd7/rotate___gvecs_8c.html" target="_top" xlink:title=" ">
<polygon fill="white" stroke="#666666" points="1583.5,-24.88 1465.5,-24.88 1465.5,-5.63 1583.5,-5.63 1583.5,-24.88"/>
<text xml:space="preserve" text-anchor="middle" x="1524.5" y="-11.38" font-family="Helvetica,sans-Serif" font-size="10.00">src/wfc/rotate_Gvecs.c</text>
</a>
</g>
</g>
<!-- Node1&#45;&gt;Node13 -->
<g id="edge12_Node000001_Node000013" class="edge">
<title>Node1&#45;&gt;Node13</title>
<g id="a_edge12_Node000001_Node000013"><a xlink:title=" ">
<path fill="none" stroke="#63b8ff" d="M991.76,-76.41C1096.8,-69.82 1291.75,-55.33 1456.5,-30.5 1465.8,-29.1 1475.75,-27.23 1485.08,-25.3"/>
<polygon fill="#63b8ff" stroke="#63b8ff" points="991.6,-72.92 981.84,-77.03 992.04,-79.9 991.6,-72.92"/>
</a>
</g>
</g>
<!-- Node14 -->
<g id="Node000014" class="node">
<title>Node14</title>
<g id="a_Node000014"><a xlink:href="../../dd/d51/su2rotate_8c.html" target="_top" xlink:title=" ">
<polygon fill="white" stroke="#666666" points="1701.5,-24.88 1601.5,-24.88 1601.5,-5.63 1701.5,-5.63 1701.5,-24.88"/>
<text xml:space="preserve" text-anchor="middle" x="1651.5" y="-11.38" font-family="Helvetica,sans-Serif" font-size="10.00">src/wfc/su2rotate.c</text>
</a>
</g>
</g>
<!-- Node1&#45;&gt;Node14 -->
<g id="edge13_Node000001_Node000014" class="edge">
<title>Node1&#45;&gt;Node14</title>
<g id="a_edge13_Node000001_Node000014"><a xlink:title=" ">
<path fill="none" stroke="#63b8ff" d="M991.7,-79.13C1117.51,-75.56 1376.28,-64.4 1592.5,-30.5 1600.83,-29.19 1609.71,-27.31 1617.99,-25.34"/>
<polygon fill="#63b8ff" stroke="#63b8ff" points="991.72,-75.63 981.82,-79.4 991.91,-82.63 991.72,-75.63"/>
</a>
</g>
</g>
<!-- Node15 -->
<g id="Node000015" class="node">
<title>Node15</title>
<g id="a_Node000015"><a xlink:href="../../db/d7a/trans__wfc_8c.html" target="_top" xlink:title=" ">
<polygon fill="white" stroke="#666666" points="1821.62,-24.88 1719.38,-24.88 1719.38,-5.63 1821.62,-5.63 1821.62,-24.88"/>
<text xml:space="preserve" text-anchor="middle" x="1770.5" y="-11.38" font-family="Helvetica,sans-Serif" font-size="10.00">src/wfc/trans_wfc.c</text>
</a>
</g>
</g>
<!-- Node1&#45;&gt;Node15 -->
<g id="edge14_Node000001_Node000015" class="edge">
<title>Node1&#45;&gt;Node15</title>
<g id="a_edge14_Node000001_Node000015"><a xlink:title=" ">
<path fill="none" stroke="#63b8ff" d="M991.72,-80.23C1133.84,-78.31 1448.65,-69.58 1710.5,-30.5 1719.08,-29.22 1728.23,-27.32 1736.74,-25.33"/>
<polygon fill="#63b8ff" stroke="#63b8ff" points="992.03,-76.73 982.07,-80.35 992.11,-83.73 992.03,-76.73"/>
</a>
</g>
</g>
</g>
</svg>
