<?xml version="1.0" encoding="UTF-8" standalone="no"?>
<!DOCTYPE svg PUBLIC "-//W3C//DTD SVG 1.1//EN"
 "http://www.w3.org/Graphics/SVG/1.1/DTD/svg11.dtd">
<!-- Generated by graphviz version 14.0.0 (20250921.2048)
 -->
<!-- Title: src/symmetries/symmetries.h Pages: 1 -->
<svg width="251pt" height="138pt"
 viewBox="0.00 0.00 251.00 138.00" xmlns="http://www.w3.org/2000/svg" xmlns:xlink="http://www.w3.org/1999/xlink">
<g id="graph0" class="graph" transform="scale(1 1) rotate(0) translate(4 133.75)">
<title>src/symmetries/symmetries.h</title>
<!-- Node1 -->
<g id="Node000001" class="node">
<title>Node1</title>
<g id="a_Node000001"><a xlink:title=" ">
<polygon fill="#999999" stroke="#666666" points="205.75,-129.75 60,-129.75 60,-110.5 205.75,-110.5 205.75,-129.75"/>
<text xml:space="preserve" text-anchor="middle" x="132.88" y="-116.25" font-family="Helvetica,sans-Serif" font-size="10.00">src/symmetries/symmetries.h</text>
</a>
</g>
</g>
<!-- Node2 -->
<g id="Node000002" class="node">
<title>Node2</title>
<g id="a_Node000002"><a xlink:title=" ">
<polygon fill="#e0e0e0" stroke="#999999" points="55.75,-19.25 0,-19.25 0,0 55.75,0 55.75,-19.25"/>
<text xml:space="preserve" text-anchor="middle" x="27.88" y="-5.75" font-family="Helvetica,sans-Serif" font-size="10.00">stdbool.h</text>
</a>
</g>
</g>
<!-- Node1&#45;&gt;Node2 -->
<g id="edge1_Node000001_Node000002" class="edge">
<title>Node1&#45;&gt;Node2</title>
<g id="a_edge1_Node000001_Node000002"><a xlink:title=" ">
<path fill="none" stroke="#63b8ff" d="M119.68,-110.02C107.83,-101.54 90.29,-88.16 76.88,-74.5 62.97,-60.33 49.41,-42.23 40.09,-28.91"/>
<polygon fill="#63b8ff" stroke="#63b8ff" points="43,-26.95 34.46,-20.67 37.22,-30.9 43,-26.95"/>
</a>
</g>
</g>
<!-- Node3 -->
<g id="Node000003" class="node">
<title>Node3</title>
<g id="a_Node000003"><a xlink:href="../../d2/d02/dtypes_8h.html" target="_top" xlink:title=" ">
<polygon fill="white" stroke="#666666" points="179.88,-74.5 85.88,-74.5 85.88,-55.25 179.88,-55.25 179.88,-74.5"/>
<text xml:space="preserve" text-anchor="middle" x="132.88" y="-61" font-family="Helvetica,sans-Serif" font-size="10.00">common/dtypes.h</text>
</a>
</g>
</g>
<!-- Node1&#45;&gt;Node3 -->
<g id="edge2_Node000001_Node000003" class="edge">
<title>Node1&#45;&gt;Node3</title>
<g id="a_edge2_Node000001_Node000003"><a xlink:title=" ">
<path fill="none" stroke="#63b8ff" d="M132.88,-110.33C132.88,-103.82 132.88,-94.67 132.88,-86.37"/>
<polygon fill="#63b8ff" stroke="#63b8ff" points="136.38,-86.37 132.88,-76.37 129.38,-86.37 136.38,-86.37"/>
</a>
</g>
</g>
<!-- Node5 -->
<g id="Node000005" class="node">
<title>Node5</title>
<g id="a_Node000005"><a xlink:href="../../d4/d0a/elph_c_8h.html" target="_top" xlink:title="Core type definitions and configuration for LetzElPhC.">
<polygon fill="white" stroke="#666666" points="242.75,-19.25 193,-19.25 193,0 242.75,0 242.75,-19.25"/>
<text xml:space="preserve" text-anchor="middle" x="217.88" y="-5.75" font-family="Helvetica,sans-Serif" font-size="10.00">elphC.h</text>
</a>
</g>
</g>
<!-- Node1&#45;&gt;Node5 -->
<g id="edge7_Node000001_Node000005" class="edge">
<title>Node1&#45;&gt;Node5</title>
<g id="a_edge7_Node000001_Node000005"><a xlink:title=" ">
<path fill="none" stroke="#63b8ff" d="M147.83,-110.07C160.16,-102 177.41,-89.21 188.88,-74.5 199.19,-61.26 206.81,-43.77 211.64,-30.43"/>
<polygon fill="#63b8ff" stroke="#63b8ff" points="214.93,-31.63 214.8,-21.03 208.29,-29.39 214.93,-31.63"/>
</a>
</g>
</g>
<!-- Node3&#45;&gt;Node2 -->
<g id="edge4_Node000003_Node000002" class="edge">
<title>Node3&#45;&gt;Node2</title>
<g id="a_edge4_Node000003_Node000002"><a xlink:title=" ">
<path fill="none" stroke="#63b8ff" d="M115.06,-54.84C98.85,-46.62 74.64,-34.34 55.84,-24.81"/>
<polygon fill="#63b8ff" stroke="#63b8ff" points="57.63,-21.79 47.12,-20.39 54.46,-28.03 57.63,-21.79"/>
</a>
</g>
</g>
<!-- Node4 -->
<g id="Node000004" class="node">
<title>Node4</title>
<g id="a_Node000004"><a xlink:title=" ">
<polygon fill="#e0e0e0" stroke="#999999" points="113.88,-19.25 73.88,-19.25 73.88,0 113.88,0 113.88,-19.25"/>
<text xml:space="preserve" text-anchor="middle" x="93.88" y="-5.75" font-family="Helvetica,sans-Serif" font-size="10.00">mpi.h</text>
</a>
</g>
</g>
<!-- Node3&#45;&gt;Node4 -->
<g id="edge3_Node000003_Node000004" class="edge">
<title>Node3&#45;&gt;Node4</title>
<g id="a_edge3_Node000003_Node000004"><a xlink:title=" ">
<path fill="none" stroke="#63b8ff" d="M126.43,-55.08C121.22,-47.96 113.69,-37.68 107.18,-28.8"/>
<polygon fill="#63b8ff" stroke="#63b8ff" points="110.08,-26.83 101.35,-20.83 104.43,-30.97 110.08,-26.83"/>
</a>
</g>
</g>
<!-- Node3&#45;&gt;Node5 -->
<g id="edge5_Node000003_Node000005" class="edge">
<title>Node3&#45;&gt;Node5</title>
<g id="a_edge5_Node000003_Node000005"><a xlink:title=" ">
<path fill="none" stroke="#63b8ff" d="M147.29,-54.84C159.99,-46.89 178.75,-35.14 193.73,-25.75"/>
<polygon fill="#63b8ff" stroke="#63b8ff" points="195.49,-28.78 202.1,-20.51 191.77,-22.85 195.49,-28.78"/>
</a>
</g>
</g>
<!-- Node6 -->
<g id="Node000006" class="node">
<title>Node6</title>
<g id="a_Node000006"><a xlink:href="../../da/d41/error_8h.html" target="_top" xlink:title=" ">
<polygon fill="white" stroke="#666666" points="175.38,-19.25 132.38,-19.25 132.38,0 175.38,0 175.38,-19.25"/>
<text xml:space="preserve" text-anchor="middle" x="153.88" y="-5.75" font-family="Helvetica,sans-Serif" font-size="10.00">error.h</text>
</a>
</g>
</g>
<!-- Node3&#45;&gt;Node6 -->
<g id="edge6_Node000003_Node000006" class="edge">
<title>Node3&#45;&gt;Node6</title>
<g id="a_edge6_Node000003_Node000006"><a xlink:title=" ">
<path fill="none" stroke="#63b8ff" d="M136.34,-55.08C139,-48.34 142.77,-38.77 146.14,-30.24"/>
<polygon fill="#63b8ff" stroke="#63b8ff" points="149.36,-31.6 149.78,-21.02 142.85,-29.04 149.36,-31.6"/>
</a>
</g>
</g>
</g>
</svg>
