<?xml version="1.0" encoding="UTF-8" standalone="no"?>
<!DOCTYPE svg PUBLIC "-//W3C//DTD SVG 1.1//EN"
 "http://www.w3.org/Graphics/SVG/1.1/DTD/svg11.dtd">
<!-- Generated by graphviz version 14.0.0 (20250921.2048)
 -->
<!-- Title: fft_q2R Pages: 1 -->
<svg width="188pt" height="64pt"
 viewBox="0.00 0.00 188.00 64.00" xmlns="http://www.w3.org/2000/svg" xmlns:xlink="http://www.w3.org/1999/xlink">
<g id="graph0" class="graph" transform="scale(1 1) rotate(0) translate(4 60.25)">
<title>fft_q2R</title>
<!-- Node1 -->
<g id="Node000001" class="node">
<title>Node1</title>
<g id="a_Node000001"><a xlink:title=" ">
<polygon fill="#999999" stroke="#666666" points="48.25,-37.25 0,-37.25 0,-18 48.25,-18 48.25,-37.25"/>
<text xml:space="preserve" text-anchor="middle" x="24.12" y="-23.75" font-family="Helvetica,sans-Serif" font-size="10.00">fft_q2R</text>
</a>
</g>
</g>
<!-- Node2 -->
<g id="Node000002" class="node">
<title>Node2</title>
<g id="a_Node000002"><a xlink:href="../../da/d97/_e_l_p_h__timers_8c.html#a4846a0dbe6a17751878baf1315af43aa" target="_top" xlink:title=" ">
<polygon fill="white" stroke="#666666" points="179.75,-56.25 84.25,-56.25 84.25,-37 179.75,-37 179.75,-56.25"/>
<text xml:space="preserve" text-anchor="middle" x="132" y="-42.75" font-family="Helvetica,sans-Serif" font-size="10.00">ELPH_start_clock</text>
</a>
</g>
</g>
<!-- Node1&#45;&gt;Node2 -->
<g id="edge1_Node000001_Node000002" class="edge">
<title>Node1&#45;&gt;Node2</title>
<g id="a_edge1_Node000001_Node000002"><a xlink:title=" ">
<path fill="none" stroke="#63b8ff" d="M48.62,-31.84C55.91,-33.15 64.28,-34.65 72.85,-36.19"/>
<polygon fill="#63b8ff" stroke="#63b8ff" points="72.18,-39.62 82.64,-37.95 73.41,-32.73 72.18,-39.62"/>
</a>
</g>
</g>
<!-- Node3 -->
<g id="Node000003" class="node">
<title>Node3</title>
<g id="a_Node000003"><a xlink:href="../../da/d97/_e_l_p_h__timers_8c.html#adcc3002449fe62895b6e89571d00ba48" target="_top" xlink:title=" ">
<polygon fill="white" stroke="#666666" points="179.38,-19.25 84.62,-19.25 84.62,0 179.38,0 179.38,-19.25"/>
<text xml:space="preserve" text-anchor="middle" x="132" y="-5.75" font-family="Helvetica,sans-Serif" font-size="10.00">ELPH_stop_clock</text>
</a>
</g>
</g>
<!-- Node1&#45;&gt;Node3 -->
<g id="edge2_Node000001_Node000003" class="edge">
<title>Node1&#45;&gt;Node3</title>
<g id="a_edge2_Node000001_Node000003"><a xlink:title=" ">
<path fill="none" stroke="#63b8ff" d="M48.62,-23.63C55.91,-22.39 64.28,-20.97 72.85,-19.51"/>
<polygon fill="#63b8ff" stroke="#63b8ff" points="73.36,-22.97 82.64,-17.85 72.19,-16.07 73.36,-22.97"/>
</a>
</g>
</g>
</g>
</svg>
