<?xml version="1.0" encoding="UTF-8" standalone="no"?>
<!DOCTYPE svg PUBLIC "-//W3C//DTD SVG 1.1//EN"
 "http://www.w3.org/Graphics/SVG/1.1/DTD/svg11.dtd">
<!-- Generated by graphviz version 14.0.0 (20250921.2048)
 -->
<!-- Title: fft_R2q_dyn Pages: 1 -->
<svg width="209pt" height="101pt"
 viewBox="0.00 0.00 209.00 101.00" xmlns="http://www.w3.org/2000/svg" xmlns:xlink="http://www.w3.org/1999/xlink">
<g id="graph0" class="graph" transform="scale(1 1) rotate(0) translate(4 97.25)">
<title>fft_R2q_dyn</title>
<!-- Node1 -->
<g id="Node000001" class="node">
<title>Node1</title>
<g id="a_Node000001"><a xlink:title=" ">
<polygon fill="#999999" stroke="#666666" points="69.25,-56.25 0,-56.25 0,-37 69.25,-37 69.25,-56.25"/>
<text xml:space="preserve" text-anchor="middle" x="34.62" y="-42.75" font-family="Helvetica,sans-Serif" font-size="10.00">fft_R2q_dyn</text>
</a>
</g>
</g>
<!-- Node2 -->
<g id="Node000002" class="node">
<title>Node2</title>
<g id="a_Node000002"><a xlink:href="../../da/d97/_e_l_p_h__timers_8c.html#a4846a0dbe6a17751878baf1315af43aa" target="_top" xlink:title=" ">
<polygon fill="white" stroke="#666666" points="200.75,-93.25 105.25,-93.25 105.25,-74 200.75,-74 200.75,-93.25"/>
<text xml:space="preserve" text-anchor="middle" x="153" y="-79.75" font-family="Helvetica,sans-Serif" font-size="10.00">ELPH_start_clock</text>
</a>
</g>
</g>
<!-- Node1&#45;&gt;Node2 -->
<g id="edge1_Node000001_Node000002" class="edge">
<title>Node1&#45;&gt;Node2</title>
<g id="a_edge1_Node000001_Node000002"><a xlink:title=" ">
<path fill="none" stroke="#63b8ff" d="M67.42,-56.74C80.38,-60.85 95.55,-65.68 109.44,-70.09"/>
<polygon fill="#63b8ff" stroke="#63b8ff" points="108.21,-73.37 118.8,-73.07 110.33,-66.7 108.21,-73.37"/>
</a>
</g>
</g>
<!-- Node3 -->
<g id="Node000003" class="node">
<title>Node3</title>
<g id="a_Node000003"><a xlink:href="../../da/d97/_e_l_p_h__timers_8c.html#adcc3002449fe62895b6e89571d00ba48" target="_top" xlink:title=" ">
<polygon fill="white" stroke="#666666" points="200.38,-56.25 105.62,-56.25 105.62,-37 200.38,-37 200.38,-56.25"/>
<text xml:space="preserve" text-anchor="middle" x="153" y="-42.75" font-family="Helvetica,sans-Serif" font-size="10.00">ELPH_stop_clock</text>
</a>
</g>
</g>
<!-- Node1&#45;&gt;Node3 -->
<g id="edge2_Node000001_Node000003" class="edge">
<title>Node1&#45;&gt;Node3</title>
<g id="a_edge2_Node000001_Node000003"><a xlink:title=" ">
<path fill="none" stroke="#63b8ff" d="M69.6,-46.62C77.25,-46.62 85.59,-46.62 93.93,-46.62"/>
<polygon fill="#63b8ff" stroke="#63b8ff" points="93.71,-50.13 103.71,-46.63 93.71,-43.13 93.71,-50.13"/>
</a>
</g>
</g>
<!-- Node4 -->
<g id="Node000004" class="node">
<title>Node4</title>
<g id="a_Node000004"><a xlink:href="../../de/d2d/numerical__func_8c.html#a33dc7889eeb05a7ee40327581d51a3d7" target="_top" xlink:title=" ">
<polygon fill="white" stroke="#666666" points="191,-19.25 115,-19.25 115,0 191,0 191,-19.25"/>
<text xml:space="preserve" text-anchor="middle" x="153" y="-5.75" font-family="Helvetica,sans-Serif" font-size="10.00">get_miller_idx</text>
</a>
</g>
</g>
<!-- Node1&#45;&gt;Node4 -->
<g id="edge3_Node000001_Node000004" class="edge">
<title>Node1&#45;&gt;Node4</title>
<g id="a_edge3_Node000001_Node000004"><a xlink:title=" ">
<path fill="none" stroke="#63b8ff" d="M67.42,-36.51C80.38,-32.4 95.55,-27.57 109.44,-23.16"/>
<polygon fill="#63b8ff" stroke="#63b8ff" points="110.33,-26.55 118.8,-20.18 108.21,-19.88 110.33,-26.55"/>
</a>
</g>
</g>
</g>
</svg>
