<?xml version="1.0" encoding="UTF-8" standalone="no"?>
<!DOCTYPE svg PUBLIC "-//W3C//DTD SVG 1.1//EN"
 "http://www.w3.org/Graphics/SVG/1.1/DTD/svg11.dtd">
<!-- Generated by graphviz version 14.0.0 (20250921.2048)
 -->
<!-- Title: src/dvloc/VlocG_atom.c Pages: 1 -->
<!--zoomable 193 -->

<svg id="main" version="1.1" xmlns="http://www.w3.org/2000/svg" xmlns:xlink="http://www.w3.org/1999/xlink" xml:space="preserve" onload="init(evt)">

<style type="text/css"><![CDATA[
.node, .edge {opacity: 0.7;}
.node.selected, .edge.selected {opacity: 1;}
.edge:hover path { stroke: red; }
.edge:hover polygon { stroke: red; fill: red; }
]]></style>

<defs>
  <circle id="rim" cx="0" cy="0" r="7"/>
  <circle id="rim2" cx="0" cy="0" r="3.5"/>
  <g id="zoomPlus">
    <use xlink:href="#rim" fill="#404040"><set attributeName="fill" to="#808080" begin="zoomplus.mouseover" end="zoomplus.mouseout"/></use>
    <path d="M-4,0h8M0,-4v8" fill="none" stroke="white" stroke-width="1.5" pointer-events="none"/>
  </g>
  <g id="zoomMin">
    <use xlink:href="#rim" fill="#404040"><set attributeName="fill" to="#808080" begin="zoomminus.mouseover" end="zoomminus.mouseout"/></use>
    <path d="M-4,0h8" fill="none" stroke="white" stroke-width="1.5" pointer-events="none"/>
  </g>
  <g id="arrowUp" transform="translate(30 24)">
    <use xlink:href="#rim"/>
    <path pointer-events="none" fill="none" stroke="white" stroke-width="1.5" d="M0,-3.0v7 M-2.5,-0.5L0,-3.0L2.5,-0.5"/>
  </g>
  <g id="arrowRight" transform="rotate(90) translate(36 -43)">
    <use xlink:href="#rim"/>
    <path pointer-events="none" fill="none" stroke="white" stroke-width="1.5" d="M0,-3.0v7 M-2.5,-0.5L0,-3.0L2.5,-0.5"/>
  </g>
  <g id="arrowDown" transform="rotate(180) translate(-30 -48)">
    <use xlink:href="#rim"/>
    <path pointer-events="none" fill="none" stroke="white" stroke-width="1.5" d="M0,-3.0v7 M-2.5,-0.5L0,-3.0L2.5,-0.5"/>
  </g>
  <g id="arrowLeft" transform="rotate(270) translate(-36 17)">
    <use xlink:href="#rim"/>
    <path pointer-events="none" fill="none" stroke="white" stroke-width="1.5" d="M0,-3.0v7 M-2.5,-0.5L0,-3.0L2.5,-0.5"/>
  </g>
  <g id="resetDef">
    <use xlink:href="#rim2" fill="#404040"><set attributeName="fill" to="#808080" begin="reset.mouseover" end="reset.mouseout"/></use>
  </g>
</defs>
<script type="application/ecmascript">
var viewWidth = 519;
var viewHeight = 193;
var sectionId = 'dynsection-0';
</script>
<script type="application/ecmascript" xlink:href="../../svg.min.js"/>
<svg id="graph" class="graph">
<g id="viewport">
<title>src/dvloc/VlocG_atom.c</title>
<!-- Node1 -->
<g id="Node000001" class="node">
<title>Node1</title>
<g id="a_Node000001"><a xlink:title=" ">
<polygon fill="#999999" stroke="#666666" points="196.25,-185 75.25,-185 75.25,-165.75 196.25,-165.75 196.25,-185"/>
<text xml:space="preserve" text-anchor="middle" x="135.75" y="-171.5" font-family="Helvetica,sans-Serif" font-size="10.00">src/dvloc/VlocG_atom.c</text>
</a>
</g>
</g>
<!-- Node2 -->
<g id="Node000002" class="node">
<title>Node2</title>
<g id="a_Node000002"><a xlink:title=" ">
<polygon fill="#e0e0e0" stroke="#999999" points="69.75,-129.75 23.75,-129.75 23.75,-110.5 69.75,-110.5 69.75,-129.75"/>
<text xml:space="preserve" text-anchor="middle" x="46.75" y="-116.25" font-family="Helvetica,sans-Serif" font-size="10.00">math.h</text>
</a>
</g>
</g>
<!-- Node1&#45;&gt;Node2 -->
<g id="edge1_Node000001_Node000002" class="edge">
<title>Node1&#45;&gt;Node2</title>
<g id="a_edge1_Node000001_Node000002"><a xlink:title=" ">
<path fill="none" stroke="#63b8ff" d="M120.65,-165.34C107.23,-157.31 87.34,-145.41 71.58,-135.98"/>
<polygon fill="#63b8ff" stroke="#63b8ff" points="73.6,-133.11 63.22,-130.98 70,-139.12 73.6,-133.11"/>
</a>
</g>
</g>
<!-- Node3 -->
<g id="Node000003" class="node">
<title>Node3</title>
<g id="a_Node000003"><a xlink:href="../../d2/d6f/constants_8h.html" target="_top" xlink:title=" ">
<polygon fill="white" stroke="#666666" points="107.5,-74.5 0,-74.5 0,-55.25 107.5,-55.25 107.5,-74.5"/>
<text xml:space="preserve" text-anchor="middle" x="53.75" y="-61" font-family="Helvetica,sans-Serif" font-size="10.00">common/constants.h</text>
</a>
</g>
</g>
<!-- Node1&#45;&gt;Node3 -->
<g id="edge2_Node000001_Node000003" class="edge">
<title>Node1&#45;&gt;Node3</title>
<g id="a_edge2_Node000001_Node000003"><a xlink:title=" ">
<path fill="none" stroke="#63b8ff" d="M129.04,-165.5C115.59,-147.69 85.08,-107.33 67.31,-83.81"/>
<polygon fill="#63b8ff" stroke="#63b8ff" points="70.29,-81.95 61.47,-76.08 64.7,-86.17 70.29,-81.95"/>
</a>
</g>
</g>
<!-- Node4 -->
<g id="Node000004" class="node">
<title>Node4</title>
<g id="a_Node000004"><a xlink:href="../../d4/d0a/elph_c_8h.html" target="_top" xlink:title="Core type definitions and configuration for LetzElPhC.">
<polygon fill="white" stroke="#666666" points="253.62,-19.25 203.88,-19.25 203.88,0 253.62,0 253.62,-19.25"/>
<text xml:space="preserve" text-anchor="middle" x="228.75" y="-5.75" font-family="Helvetica,sans-Serif" font-size="10.00">elphC.h</text>
</a>
</g>
</g>
<!-- Node1&#45;&gt;Node4 -->
<g id="edge15_Node000001_Node000004" class="edge">
<title>Node1&#45;&gt;Node4</title>
<g id="a_edge15_Node000001_Node000004"><a xlink:title=" ">
<path fill="none" stroke="#63b8ff" d="M134.77,-165.39C132.94,-144.22 131.1,-90.33 154.75,-55.25 164.06,-41.44 179.22,-31.21 193.4,-24.06"/>
<polygon fill="#63b8ff" stroke="#63b8ff" points="194.49,-27.41 202.08,-20.02 191.54,-21.06 194.49,-27.41"/>
</a>
</g>
</g>
<!-- Node5 -->
<g id="Node000005" class="node">
<title>Node5</title>
<g id="a_Node000005"><a xlink:href="../../df/def/numerical__func_8h.html" target="_top" xlink:title=" ">
<polygon fill="white" stroke="#666666" points="294.12,-74.5 163.38,-74.5 163.38,-55.25 294.12,-55.25 294.12,-74.5"/>
<text xml:space="preserve" text-anchor="middle" x="228.75" y="-61" font-family="Helvetica,sans-Serif" font-size="10.00">common/numerical_func.h</text>
</a>
</g>
</g>
<!-- Node1&#45;&gt;Node5 -->
<g id="edge4_Node000001_Node000005" class="edge">
<title>Node1&#45;&gt;Node5</title>
<g id="a_edge4_Node000001_Node000005"><a xlink:title=" ">
<path fill="none" stroke="#63b8ff" d="M143.36,-165.5C158.69,-147.61 193.52,-106.97 213.65,-83.5"/>
<polygon fill="#63b8ff" stroke="#63b8ff" points="216.2,-85.9 220.05,-76.03 210.88,-81.34 216.2,-85.9"/>
</a>
</g>
</g>
<!-- Node7 -->
<g id="Node000007" class="node">
<title>Node7</title>
<g id="a_Node000007"><a xlink:href="../../d8/dc9/dvloc_8h.html" target="_top" xlink:title=" ">
<polygon fill="white" stroke="#666666" points="364.5,-129.75 317,-129.75 317,-110.5 364.5,-110.5 364.5,-129.75"/>
<text xml:space="preserve" text-anchor="middle" x="340.75" y="-116.25" font-family="Helvetica,sans-Serif" font-size="10.00">dvloc.h</text>
</a>
</g>
</g>
<!-- Node1&#45;&gt;Node7 -->
<g id="edge7_Node000001_Node000007" class="edge">
<title>Node1&#45;&gt;Node7</title>
<g id="a_edge7_Node000001_Node000007"><a xlink:title=" ">
<path fill="none" stroke="#63b8ff" d="M170.53,-165.34C208.21,-155.55 268,-140.02 305.76,-130.21"/>
<polygon fill="#63b8ff" stroke="#63b8ff" points="306.46,-133.65 315.26,-127.75 304.7,-126.87 306.46,-133.65"/>
</a>
</g>
</g>
<!-- Node3&#45;&gt;Node4 -->
<g id="edge3_Node000003_Node000004" class="edge">
<title>Node3&#45;&gt;Node4</title>
<g id="a_edge3_Node000003_Node000004"><a xlink:title=" ">
<path fill="none" stroke="#63b8ff" d="M83.44,-54.84C113.62,-45.66 160.41,-31.42 192.7,-21.59"/>
<polygon fill="#63b8ff" stroke="#63b8ff" points="193.47,-25.02 202.02,-18.76 191.44,-18.32 193.47,-25.02"/>
</a>
</g>
</g>
<!-- Node5&#45;&gt;Node4 -->
<g id="edge6_Node000005_Node000004" class="edge">
<title>Node5&#45;&gt;Node4</title>
<g id="a_edge6_Node000005_Node000004"><a xlink:title=" ">
<path fill="none" stroke="#63b8ff" d="M228.75,-55.08C228.75,-48.57 228.75,-39.42 228.75,-31.12"/>
<polygon fill="#63b8ff" stroke="#63b8ff" points="232.25,-31.12 228.75,-21.12 225.25,-31.12 232.25,-31.12"/>
</a>
</g>
</g>
<!-- Node6 -->
<g id="Node000006" class="node">
<title>Node6</title>
<g id="a_Node000006"><a xlink:title=" ">
<polygon fill="#e0e0e0" stroke="#999999" points="387.62,-19.25 331.88,-19.25 331.88,0 387.62,0 387.62,-19.25"/>
<text xml:space="preserve" text-anchor="middle" x="359.75" y="-5.75" font-family="Helvetica,sans-Serif" font-size="10.00">stdbool.h</text>
</a>
</g>
</g>
<!-- Node5&#45;&gt;Node6 -->
<g id="edge5_Node000005_Node000006" class="edge">
<title>Node5&#45;&gt;Node6</title>
<g id="a_edge5_Node000005_Node000006"><a xlink:title=" ">
<path fill="none" stroke="#63b8ff" d="M250.97,-54.84C271.77,-46.39 303.1,-33.65 326.8,-24.02"/>
<polygon fill="#63b8ff" stroke="#63b8ff" points="328.07,-27.28 336.02,-20.27 325.43,-20.8 328.07,-27.28"/>
</a>
</g>
</g>
<!-- Node7&#45;&gt;Node4 -->
<g id="edge14_Node000007_Node000004" class="edge">
<title>Node7&#45;&gt;Node4</title>
<g id="a_edge14_Node000007_Node000004"><a xlink:title=" ">
<path fill="none" stroke="#63b8ff" d="M337.21,-110.37C331.53,-97.16 319.31,-71.91 302.75,-55.25 290.32,-42.75 273.72,-32.32 259.39,-24.7"/>
<polygon fill="#63b8ff" stroke="#63b8ff" points="261.29,-21.75 250.79,-20.34 258.13,-27.99 261.29,-21.75"/>
</a>
</g>
</g>
<!-- Node7&#45;&gt;Node6 -->
<g id="edge8_Node000007_Node000006" class="edge">
<title>Node7&#45;&gt;Node6</title>
<g id="a_edge8_Node000007_Node000006"><a xlink:title=" ">
<path fill="none" stroke="#63b8ff" d="M342.3,-110.25C345.32,-93 352.05,-54.58 356.21,-30.81"/>
<polygon fill="#63b8ff" stroke="#63b8ff" points="359.64,-31.57 357.91,-21.12 352.74,-30.36 359.64,-31.57"/>
</a>
</g>
</g>
<!-- Node8 -->
<g id="Node000008" class="node">
<title>Node8</title>
<g id="a_Node000008"><a xlink:href="../../d2/d02/dtypes_8h.html" target="_top" xlink:title=" ">
<polygon fill="white" stroke="#666666" points="481.75,-74.5 387.75,-74.5 387.75,-55.25 481.75,-55.25 481.75,-74.5"/>
<text xml:space="preserve" text-anchor="middle" x="434.75" y="-61" font-family="Helvetica,sans-Serif" font-size="10.00">common/dtypes.h</text>
</a>
</g>
</g>
<!-- Node7&#45;&gt;Node8 -->
<g id="edge9_Node000007_Node000008" class="edge">
<title>Node7&#45;&gt;Node8</title>
<g id="a_edge9_Node000007_Node000008"><a xlink:title=" ">
<path fill="none" stroke="#63b8ff" d="M356.7,-110.09C371.01,-101.98 392.28,-89.93 409,-80.46"/>
<polygon fill="#63b8ff" stroke="#63b8ff" points="410.43,-83.67 417.41,-75.7 406.98,-77.58 410.43,-83.67"/>
</a>
</g>
</g>
<!-- Node8&#45;&gt;Node4 -->
<g id="edge12_Node000008_Node000004" class="edge">
<title>Node8&#45;&gt;Node4</title>
<g id="a_edge12_Node000008_Node000004"><a xlink:title=" ">
<path fill="none" stroke="#63b8ff" d="M399.8,-54.84C362.35,-45.16 303.18,-29.86 265.17,-20.04"/>
<polygon fill="#63b8ff" stroke="#63b8ff" points="266.12,-16.67 255.57,-17.56 264.37,-23.45 266.12,-16.67"/>
</a>
</g>
</g>
<!-- Node8&#45;&gt;Node6 -->
<g id="edge11_Node000008_Node000006" class="edge">
<title>Node8&#45;&gt;Node6</title>
<g id="a_edge11_Node000008_Node000006"><a xlink:title=" ">
<path fill="none" stroke="#63b8ff" d="M422.03,-54.84C411.04,-47.04 394.91,-35.59 381.82,-26.29"/>
<polygon fill="#63b8ff" stroke="#63b8ff" points="383.95,-23.51 373.77,-20.58 379.9,-29.22 383.95,-23.51"/>
</a>
</g>
</g>
<!-- Node9 -->
<g id="Node000009" class="node">
<title>Node9</title>
<g id="a_Node000009"><a xlink:title=" ">
<polygon fill="#e0e0e0" stroke="#999999" points="449.75,-19.25 409.75,-19.25 409.75,0 449.75,0 449.75,-19.25"/>
<text xml:space="preserve" text-anchor="middle" x="429.75" y="-5.75" font-family="Helvetica,sans-Serif" font-size="10.00">mpi.h</text>
</a>
</g>
</g>
<!-- Node8&#45;&gt;Node9 -->
<g id="edge10_Node000008_Node000009" class="edge">
<title>Node8&#45;&gt;Node9</title>
<g id="a_edge10_Node000008_Node000009"><a xlink:title=" ">
<path fill="none" stroke="#63b8ff" d="M433.92,-55.08C433.31,-48.49 432.43,-39.21 431.65,-30.82"/>
<polygon fill="#63b8ff" stroke="#63b8ff" points="435.15,-30.75 430.74,-21.12 428.19,-31.4 435.15,-30.75"/>
</a>
</g>
</g>
<!-- Node10 -->
<g id="Node000010" class="node">
<title>Node10</title>
<g id="a_Node000010"><a xlink:href="../../da/d41/error_8h.html" target="_top" xlink:title=" ">
<polygon fill="white" stroke="#666666" points="511.25,-19.25 468.25,-19.25 468.25,0 511.25,0 511.25,-19.25"/>
<text xml:space="preserve" text-anchor="middle" x="489.75" y="-5.75" font-family="Helvetica,sans-Serif" font-size="10.00">error.h</text>
</a>
</g>
</g>
<!-- Node8&#45;&gt;Node10 -->
<g id="edge13_Node000008_Node000010" class="edge">
<title>Node8&#45;&gt;Node10</title>
<g id="a_edge13_Node000008_Node000010"><a xlink:title=" ">
<path fill="none" stroke="#63b8ff" d="M443.83,-55.08C451.59,-47.57 462.96,-36.56 472.45,-27.38"/>
<polygon fill="#63b8ff" stroke="#63b8ff" points="474.63,-30.13 479.38,-20.66 469.76,-25.1 474.63,-30.13"/>
</a>
</g>
</g>
</g>
</svg>

<g id="navigator" transform="translate(0 0)" fill="#404254">
  <rect fill="#f2f5e9" fill-opacity="0.5" stroke="#606060" stroke-width=".5" x="0" y="0" width="60" height="60"/>
  <use id="zoomplus" xlink:href="#zoomPlus" x="17" y="9" onmousedown="handleZoom(evt,'in')"/>
  <use id="zoomminus" xlink:href="#zoomMin" x="42" y="9" onmousedown="handleZoom(evt,'out')"/>
  <use id="reset" xlink:href="#resetDef" x="30" y="36" onmousedown="handleReset()"/>
   <use id="arrowup" xlink:href="#arrowUp" x="0" y="0" onmousedown="handlePan(0,-1)"/>
  <use id="arrowright" xlink:href="#arrowRight" x="0" y="0" onmousedown="handlePan(1,0)"/>
  <use id="arrowdown" xlink:href="#arrowDown" x="0" y="0" onmousedown="handlePan(0,1)"/>
  <use id="arrowleft" xlink:href="#arrowLeft" x="0" y="0" onmousedown="handlePan(-1,0)"/>
</g>
<svg viewBox="0 0 15 15" width="100%" height="30px" preserveAspectRatio="xMaxYMin meet">
 <g id="arrow_out" transform="scale(0.3 0.3)">
  <a xlink:href="_vloc_g__atom_8c__incl_org.svg" target="_base">
   <rect id="button" ry="5" rx="5" y="6" x="6" height="38" width="38"
        fill="#f2f5e9" fill-opacity="0.5" stroke="#606060" stroke-width="1.0"/>
   <path id="arrow"
     d="M 11.500037,31.436501 C 11.940474,20.09759 22.043105,11.32322 32.158766,21.979434 L 37.068811,17.246167 C 37.068811,17.246167 37.088388,32 37.088388,32 L 22.160133,31.978069 C 22.160133,31.978069 26.997745,27.140456 26.997745,27.140456 C 18.528582,18.264221 13.291696,25.230495 11.500037,31.436501 z"
     style="fill:#404040;"/>
  </a>
 </g>
</svg>

<style type='text/css'>
<![CDATA[
[data-mouse-over-selected='false'] { opacity: 0.7; }
[data-mouse-over-selected='true']  { opacity: 1.0; }
]]>
</style>
<script type="application/ecmascript"><![CDATA[
document.addEventListener('DOMContentLoaded', (event) => {
  highlightEdges();
  highlightAdjacentNodes();
});
]]></script>
</svg>
