<?xml version="1.0" encoding="UTF-8" standalone="no"?>
<!DOCTYPE svg PUBLIC "-//W3C//DTD SVG 1.1//EN"
 "http://www.w3.org/Graphics/SVG/1.1/DTD/svg11.dtd">
<!-- Generated by graphviz version 14.0.0 (20250921.2048)
 -->
<!-- Title: wfc_destroy_plan Pages: 1 -->
<svg width="605pt" height="103pt"
 viewBox="0.00 0.00 605.00 103.00" xmlns="http://www.w3.org/2000/svg" xmlns:xlink="http://www.w3.org/1999/xlink">
<g id="graph0" class="graph" transform="scale(1 1) rotate(0) translate(4 99.25)">
<title>wfc_destroy_plan</title>
<!-- Node1 -->
<g id="Node000001" class="node">
<title>Node1</title>
<g id="a_Node000001"><a xlink:title=" ">
<polygon fill="#999999" stroke="#666666" points="596.75,-57.25 504.25,-57.25 504.25,-38 596.75,-38 596.75,-57.25"/>
<text xml:space="preserve" text-anchor="middle" x="550.5" y="-43.75" font-family="Helvetica,sans-Serif" font-size="10.00">wfc_destroy_plan</text>
</a>
</g>
</g>
<!-- Node2 -->
<g id="Node000002" class="node">
<title>Node2</title>
<g id="a_Node000002"><a xlink:href="../../d1/d94/d_vpot__add__long__range_8c.html#a0923c770a93d2648a5d75b70fbb9c61c" target="_top" xlink:title=" ">
<polygon fill="white" stroke="#666666" points="468.25,-95.25 372,-95.25 372,-76 468.25,-76 468.25,-95.25"/>
<text xml:space="preserve" text-anchor="middle" x="420.12" y="-81.75" font-family="Helvetica,sans-Serif" font-size="10.00">dV_add_longrange</text>
</a>
</g>
</g>
<!-- Node1&#45;&gt;Node2 -->
<g id="edge1_Node000001_Node000002" class="edge">
<title>Node1&#45;&gt;Node2</title>
<g id="a_edge1_Node000001_Node000002"><a xlink:title=" ">
<path fill="none" stroke="#63b8ff" d="M504.5,-60.95C488.2,-65.77 470.08,-71.14 454.9,-75.63"/>
<polygon fill="#63b8ff" stroke="#63b8ff" points="505.39,-64.33 513.98,-58.14 503.4,-57.62 505.39,-64.33"/>
</a>
</g>
</g>
<!-- Node5 -->
<g id="Node000005" class="node">
<title>Node5</title>
<g id="a_Node000005"><a xlink:href="../../d9/d90/d_vbare__loc_8c.html#a30f21b6035a8a10369610419e98fbe67" target="_top" xlink:title=" ">
<polygon fill="white" stroke="#666666" points="294.38,-57.25 248.38,-57.25 248.38,-38 294.38,-38 294.38,-57.25"/>
<text xml:space="preserve" text-anchor="middle" x="271.38" y="-43.75" font-family="Helvetica,sans-Serif" font-size="10.00">dVlocq</text>
</a>
</g>
</g>
<!-- Node1&#45;&gt;Node5 -->
<g id="edge4_Node000001_Node000005" class="edge">
<title>Node1&#45;&gt;Node5</title>
<g id="a_edge4_Node000001_Node000005"><a xlink:title=" ">
<path fill="none" stroke="#63b8ff" d="M492.66,-47.62C431.5,-47.62 337.28,-47.62 294.67,-47.62"/>
<polygon fill="#63b8ff" stroke="#63b8ff" points="492.54,-51.13 502.54,-47.63 492.54,-44.13 492.54,-51.13"/>
</a>
</g>
</g>
<!-- Node7 -->
<g id="Node000007" class="node">
<title>Node7</title>
<g id="a_Node000007"><a xlink:href="../../d1/d8e/compute___vbare__loc_8c.html#a5f1d51340a8457749225b05b612e4abe" target="_top" xlink:title=" ">
<polygon fill="white" stroke="#666666" points="448.75,-19.25 391.5,-19.25 391.5,0 448.75,0 448.75,-19.25"/>
<text xml:space="preserve" text-anchor="middle" x="420.12" y="-5.75" font-family="Helvetica,sans-Serif" font-size="10.00">elphLocal</text>
</a>
</g>
</g>
<!-- Node1&#45;&gt;Node7 -->
<g id="edge7_Node000001_Node000007" class="edge">
<title>Node1&#45;&gt;Node7</title>
<g id="a_edge7_Node000001_Node000007"><a xlink:title=" ">
<path fill="none" stroke="#63b8ff" d="M504.55,-34.32C486.01,-28.83 465.1,-22.64 448.86,-17.83"/>
<polygon fill="#63b8ff" stroke="#63b8ff" points="503.4,-37.63 513.98,-37.11 505.39,-30.92 503.4,-37.63"/>
</a>
</g>
</g>
<!-- Node3 -->
<g id="Node000003" class="node">
<title>Node3</title>
<g id="a_Node000003"><a xlink:href="../../da/dc2/interpolation__driver_8c.html#aecc42ae41d168b486807b337fcf5b3de" target="_top" xlink:title=" ">
<polygon fill="white" stroke="#666666" points="170.75,-94.25 73,-94.25 73,-75 170.75,-75 170.75,-94.25"/>
<text xml:space="preserve" text-anchor="middle" x="121.88" y="-80.75" font-family="Helvetica,sans-Serif" font-size="10.00">interpolation_driver</text>
</a>
</g>
</g>
<!-- Node2&#45;&gt;Node3 -->
<g id="edge2_Node000002_Node000003" class="edge">
<title>Node2&#45;&gt;Node3</title>
<g id="a_edge2_Node000002_Node000003"><a xlink:title=" ">
<path fill="none" stroke="#63b8ff" d="M360.1,-85.43C304.57,-85.24 222.45,-84.96 170.85,-84.79"/>
<polygon fill="#63b8ff" stroke="#63b8ff" points="360,-88.93 370.01,-85.46 360.03,-81.93 360,-88.93"/>
</a>
</g>
</g>
<!-- Node4 -->
<g id="Node000004" class="node">
<title>Node4</title>
<g id="a_Node000004"><a xlink:href="../../d3/dd5/main__elph_c_8c.html#a0ddf1224851353fc92bfbff6f499fa97" target="_top" xlink:title="Main program entry point.">
<polygon fill="white" stroke="#666666" points="37,-75.25 0,-75.25 0,-56 37,-56 37,-75.25"/>
<text xml:space="preserve" text-anchor="middle" x="18.5" y="-61.75" font-family="Helvetica,sans-Serif" font-size="10.00">main</text>
</a>
</g>
</g>
<!-- Node3&#45;&gt;Node4 -->
<g id="edge3_Node000003_Node000004" class="edge">
<title>Node3&#45;&gt;Node4</title>
<g id="a_edge3_Node000003_Node000004"><a xlink:title=" ">
<path fill="none" stroke="#63b8ff" d="M61.33,-73.46C52.55,-71.82 44.14,-70.24 37.19,-68.94"/>
<polygon fill="#63b8ff" stroke="#63b8ff" points="60.6,-76.89 71.08,-75.29 61.89,-70.01 60.6,-76.89"/>
</a>
</g>
</g>
<!-- Node6 -->
<g id="Node000006" class="node">
<title>Node6</title>
<g id="a_Node000006"><a xlink:href="../../da/d2e/elph__driver_8c.html#ad9f405d41cf090d652dbe1307700665f" target="_top" xlink:title=" ">
<polygon fill="white" stroke="#666666" points="153.5,-57.25 90.25,-57.25 90.25,-38 153.5,-38 153.5,-57.25"/>
<text xml:space="preserve" text-anchor="middle" x="121.88" y="-43.75" font-family="Helvetica,sans-Serif" font-size="10.00">elph_driver</text>
</a>
</g>
</g>
<!-- Node5&#45;&gt;Node6 -->
<g id="edge5_Node000005_Node000006" class="edge">
<title>Node5&#45;&gt;Node6</title>
<g id="a_edge5_Node000005_Node000006"><a xlink:title=" ">
<path fill="none" stroke="#63b8ff" d="M236.55,-47.62C211.69,-47.62 178.18,-47.62 153.99,-47.62"/>
<polygon fill="#63b8ff" stroke="#63b8ff" points="236.46,-51.13 246.46,-47.63 236.46,-44.13 236.46,-51.13"/>
</a>
</g>
</g>
<!-- Node6&#45;&gt;Node4 -->
<g id="edge6_Node000006_Node000004" class="edge">
<title>Node6&#45;&gt;Node4</title>
<g id="a_edge6_Node000006_Node000004"><a xlink:title=" ">
<path fill="none" stroke="#63b8ff" d="M78.61,-55.13C64.16,-57.69 48.77,-60.43 37.32,-62.46"/>
<polygon fill="#63b8ff" stroke="#63b8ff" points="79.18,-58.58 88.42,-53.39 77.96,-51.69 79.18,-58.58"/>
</a>
</g>
</g>
<!-- Node8 -->
<g id="Node000008" class="node">
<title>Node8</title>
<g id="a_Node000008"><a xlink:href="../../d5/dd2/compute__elph__matq_8c.html#ad32ab6f17a3745b7f82151d7f5b927f2" target="_top" xlink:title=" ">
<polygon fill="white" stroke="#666666" points="336,-20.25 206.75,-20.25 206.75,-1 336,-1 336,-20.25"/>
<text xml:space="preserve" text-anchor="middle" x="271.38" y="-6.75" font-family="Helvetica,sans-Serif" font-size="10.00">compute_and_write_elphq</text>
</a>
</g>
</g>
<!-- Node7&#45;&gt;Node8 -->
<g id="edge8_Node000007_Node000008" class="edge">
<title>Node7&#45;&gt;Node8</title>
<g id="a_edge8_Node000007_Node000008"><a xlink:title=" ">
<path fill="none" stroke="#63b8ff" d="M379.98,-9.89C366.59,-9.98 351.24,-10.09 336.41,-10.19"/>
<polygon fill="#63b8ff" stroke="#63b8ff" points="379.69,-13.39 389.66,-9.83 379.64,-6.39 379.69,-13.39"/>
</a>
</g>
</g>
<!-- Node8&#45;&gt;Node6 -->
<g id="edge9_Node000008_Node000006" class="edge">
<title>Node8&#45;&gt;Node6</title>
<g id="a_edge9_Node000008_Node000006"><a xlink:title=" ">
<path fill="none" stroke="#63b8ff" d="M219.01,-23.51C197.26,-28.97 172.65,-35.14 153.77,-39.87"/>
<polygon fill="#63b8ff" stroke="#63b8ff" points="219.75,-26.93 228.6,-21.1 218.05,-20.14 219.75,-26.93"/>
</a>
</g>
</g>
</g>
</svg>
