<?xml version="1.0" encoding="UTF-8" standalone="no"?>
<!DOCTYPE svg PUBLIC "-//W3C//DTD SVG 1.1//EN"
 "http://www.w3.org/Graphics/SVG/1.1/DTD/svg11.dtd">
<!-- Generated by graphviz version 14.0.0 (20250921.2048)
 -->
<!-- Title: src/elph/set_kernel.c Pages: 1 -->
<svg width="469pt" height="193pt"
 viewBox="0.00 0.00 469.00 193.00" xmlns="http://www.w3.org/2000/svg" xmlns:xlink="http://www.w3.org/1999/xlink">
<g id="graph0" class="graph" transform="scale(1 1) rotate(0) translate(4 189)">
<title>src/elph/set_kernel.c</title>
<!-- Node1 -->
<g id="Node000001" class="node">
<title>Node1</title>
<g id="a_Node000001"><a xlink:title=" ">
<polygon fill="#999999" stroke="#666666" points="316.25,-185 209.5,-185 209.5,-165.75 316.25,-165.75 316.25,-185"/>
<text xml:space="preserve" text-anchor="middle" x="262.88" y="-171.5" font-family="Helvetica,sans-Serif" font-size="10.00">src/elph/set_kernel.c</text>
</a>
</g>
</g>
<!-- Node2 -->
<g id="Node000002" class="node">
<title>Node2</title>
<g id="a_Node000002"><a xlink:title=" ">
<polygon fill="#e0e0e0" stroke="#999999" points="55.75,-19.25 0,-19.25 0,0 55.75,0 55.75,-19.25"/>
<text xml:space="preserve" text-anchor="middle" x="27.88" y="-5.75" font-family="Helvetica,sans-Serif" font-size="10.00">stdbool.h</text>
</a>
</g>
</g>
<!-- Node1&#45;&gt;Node2 -->
<g id="edge1_Node000001_Node000002" class="edge">
<title>Node1&#45;&gt;Node2</title>
<g id="a_edge1_Node000001_Node000002"><a xlink:title=" ">
<path fill="none" stroke="#63b8ff" d="M209.26,-170.49C174.25,-165.58 129.2,-154.54 96.88,-129.75 63.32,-104.02 43.19,-56.96 33.96,-30.34"/>
<polygon fill="#63b8ff" stroke="#63b8ff" points="37.38,-29.55 30.94,-21.14 30.73,-31.73 37.38,-29.55"/>
</a>
</g>
</g>
<!-- Node3 -->
<g id="Node000003" class="node">
<title>Node3</title>
<g id="a_Node000003"><a xlink:title=" ">
<polygon fill="#e0e0e0" stroke="#999999" points="356.5,-74.5 305.25,-74.5 305.25,-55.25 356.5,-55.25 356.5,-74.5"/>
<text xml:space="preserve" text-anchor="middle" x="330.88" y="-61" font-family="Helvetica,sans-Serif" font-size="10.00">stddef.h</text>
</a>
</g>
</g>
<!-- Node1&#45;&gt;Node3 -->
<g id="edge2_Node000001_Node000003" class="edge">
<title>Node1&#45;&gt;Node3</title>
<g id="a_edge2_Node000001_Node000003"><a xlink:title=" ">
<path fill="none" stroke="#63b8ff" d="M285.4,-165.35C300.25,-158.1 318.62,-146.37 327.88,-129.75 335.24,-116.52 335.61,-99.25 334.35,-86.01"/>
<polygon fill="#63b8ff" stroke="#63b8ff" points="337.84,-85.74 333.01,-76.3 330.91,-86.69 337.84,-85.74"/>
</a>
</g>
</g>
<!-- Node4 -->
<g id="Node000004" class="node">
<title>Node4</title>
<g id="a_Node000004"><a xlink:title=" ">
<polygon fill="#e0e0e0" stroke="#999999" points="461,-129.75 412.75,-129.75 412.75,-110.5 461,-110.5 461,-129.75"/>
<text xml:space="preserve" text-anchor="middle" x="436.88" y="-116.25" font-family="Helvetica,sans-Serif" font-size="10.00">string.h</text>
</a>
</g>
</g>
<!-- Node1&#45;&gt;Node4 -->
<g id="edge3_Node000001_Node000004" class="edge">
<title>Node1&#45;&gt;Node4</title>
<g id="a_edge3_Node000001_Node000004"><a xlink:title=" ">
<path fill="none" stroke="#63b8ff" d="M292.39,-165.34C322.57,-156.1 369.47,-141.75 401.59,-131.92"/>
<polygon fill="#63b8ff" stroke="#63b8ff" points="402.3,-135.37 410.84,-129.09 400.25,-128.67 402.3,-135.37"/>
</a>
</g>
</g>
<!-- Node5 -->
<g id="Node000005" class="node">
<title>Node5</title>
<g id="a_Node000005"><a xlink:href="../../d2/d02/dtypes_8h.html" target="_top" xlink:title=" ">
<polygon fill="white" stroke="#666666" points="248.88,-74.5 154.88,-74.5 154.88,-55.25 248.88,-55.25 248.88,-74.5"/>
<text xml:space="preserve" text-anchor="middle" x="201.88" y="-61" font-family="Helvetica,sans-Serif" font-size="10.00">common/dtypes.h</text>
</a>
</g>
</g>
<!-- Node1&#45;&gt;Node5 -->
<g id="edge4_Node000001_Node000005" class="edge">
<title>Node1&#45;&gt;Node5</title>
<g id="a_edge4_Node000001_Node000005"><a xlink:title=" ">
<path fill="none" stroke="#63b8ff" d="M239.78,-165.33C224.88,-158.13 206.67,-146.46 197.88,-129.75 190.74,-116.2 192.45,-98.73 195.54,-85.48"/>
<polygon fill="#63b8ff" stroke="#63b8ff" points="198.82,-86.77 198.15,-76.2 192.08,-84.88 198.82,-86.77"/>
</a>
</g>
</g>
<!-- Node8 -->
<g id="Node000008" class="node">
<title>Node8</title>
<g id="a_Node000008"><a xlink:href="../../da/d41/error_8h.html" target="_top" xlink:title=" ">
<polygon fill="white" stroke="#666666" points="346.38,-19.25 303.38,-19.25 303.38,0 346.38,0 346.38,-19.25"/>
<text xml:space="preserve" text-anchor="middle" x="324.88" y="-5.75" font-family="Helvetica,sans-Serif" font-size="10.00">error.h</text>
</a>
</g>
</g>
<!-- Node1&#45;&gt;Node8 -->
<g id="edge9_Node000001_Node000008" class="edge">
<title>Node1&#45;&gt;Node8</title>
<g id="a_edge9_Node000001_Node000008"><a xlink:title=" ">
<path fill="none" stroke="#63b8ff" d="M290.09,-165.25C307.81,-158.08 330.27,-146.48 344.88,-129.75 367.5,-103.84 378.36,-87.3 365.88,-55.25 361.71,-44.57 353.66,-34.89 345.79,-27.3"/>
<polygon fill="#63b8ff" stroke="#63b8ff" points="348.13,-24.7 338.33,-20.68 343.49,-29.94 348.13,-24.7"/>
</a>
</g>
</g>
<!-- Node9 -->
<g id="Node000009" class="node">
<title>Node9</title>
<g id="a_Node000009"><a xlink:href="../../d3/d10/string__func_8h.html" target="_top" xlink:title=" ">
<polygon fill="white" stroke="#666666" points="319.25,-129.75 206.5,-129.75 206.5,-110.5 319.25,-110.5 319.25,-129.75"/>
<text xml:space="preserve" text-anchor="middle" x="262.88" y="-116.25" font-family="Helvetica,sans-Serif" font-size="10.00">common/string_func.h</text>
</a>
</g>
</g>
<!-- Node1&#45;&gt;Node9 -->
<g id="edge10_Node000001_Node000009" class="edge">
<title>Node1&#45;&gt;Node9</title>
<g id="a_edge10_Node000001_Node000009"><a xlink:title=" ">
<path fill="none" stroke="#63b8ff" d="M262.88,-165.58C262.88,-159.07 262.88,-149.92 262.88,-141.62"/>
<polygon fill="#63b8ff" stroke="#63b8ff" points="266.38,-141.62 262.88,-131.62 259.38,-141.62 266.38,-141.62"/>
</a>
</g>
</g>
<!-- Node10 -->
<g id="Node000010" class="node">
<title>Node10</title>
<g id="a_Node000010"><a xlink:href="../../dc/d69/elph_8h.html" target="_top" xlink:title=" ">
<polygon fill="white" stroke="#666666" points="148,-129.75 105.75,-129.75 105.75,-110.5 148,-110.5 148,-129.75"/>
<text xml:space="preserve" text-anchor="middle" x="126.88" y="-116.25" font-family="Helvetica,sans-Serif" font-size="10.00">elph.h</text>
</a>
</g>
</g>
<!-- Node1&#45;&gt;Node10 -->
<g id="edge14_Node000001_Node000010" class="edge">
<title>Node1&#45;&gt;Node10</title>
<g id="a_edge14_Node000001_Node000010"><a xlink:title=" ">
<path fill="none" stroke="#63b8ff" d="M239.8,-165.34C217.59,-156.64 183.8,-143.41 158.97,-133.69"/>
<polygon fill="#63b8ff" stroke="#63b8ff" points="160.26,-130.44 149.67,-130.05 157.71,-136.96 160.26,-130.44"/>
</a>
</g>
</g>
<!-- Node5&#45;&gt;Node2 -->
<g id="edge6_Node000005_Node000002" class="edge">
<title>Node5&#45;&gt;Node2</title>
<g id="a_edge6_Node000005_Node000002"><a xlink:title=" ">
<path fill="none" stroke="#63b8ff" d="M172.36,-54.84C143.3,-45.95 98.76,-32.32 66.82,-22.54"/>
<polygon fill="#63b8ff" stroke="#63b8ff" points="68.13,-19.28 57.54,-19.7 66.08,-25.98 68.13,-19.28"/>
</a>
</g>
</g>
<!-- Node6 -->
<g id="Node000006" class="node">
<title>Node6</title>
<g id="a_Node000006"><a xlink:title=" ">
<polygon fill="#e0e0e0" stroke="#999999" points="143.88,-19.25 103.88,-19.25 103.88,0 143.88,0 143.88,-19.25"/>
<text xml:space="preserve" text-anchor="middle" x="123.88" y="-5.75" font-family="Helvetica,sans-Serif" font-size="10.00">mpi.h</text>
</a>
</g>
</g>
<!-- Node5&#45;&gt;Node6 -->
<g id="edge5_Node000005_Node000006" class="edge">
<title>Node5&#45;&gt;Node6</title>
<g id="a_edge5_Node000005_Node000006"><a xlink:title=" ">
<path fill="none" stroke="#63b8ff" d="M188.64,-54.84C177.1,-46.96 160.11,-35.36 146.43,-26.02"/>
<polygon fill="#63b8ff" stroke="#63b8ff" points="148.65,-23.3 138.42,-20.56 144.71,-29.08 148.65,-23.3"/>
</a>
</g>
</g>
<!-- Node7 -->
<g id="Node000007" class="node">
<title>Node7</title>
<g id="a_Node000007"><a xlink:href="../../d4/d0a/elph_c_8h.html" target="_top" xlink:title="Core type definitions and configuration for LetzElPhC.">
<polygon fill="white" stroke="#666666" points="226.75,-19.25 177,-19.25 177,0 226.75,0 226.75,-19.25"/>
<text xml:space="preserve" text-anchor="middle" x="201.88" y="-5.75" font-family="Helvetica,sans-Serif" font-size="10.00">elphC.h</text>
</a>
</g>
</g>
<!-- Node5&#45;&gt;Node7 -->
<g id="edge7_Node000005_Node000007" class="edge">
<title>Node5&#45;&gt;Node7</title>
<g id="a_edge7_Node000005_Node000007"><a xlink:title=" ">
<path fill="none" stroke="#63b8ff" d="M201.88,-55.08C201.88,-48.57 201.88,-39.42 201.88,-31.12"/>
<polygon fill="#63b8ff" stroke="#63b8ff" points="205.38,-31.12 201.88,-21.12 198.38,-31.12 205.38,-31.12"/>
</a>
</g>
</g>
<!-- Node5&#45;&gt;Node8 -->
<g id="edge8_Node000005_Node000008" class="edge">
<title>Node5&#45;&gt;Node8</title>
<g id="a_edge8_Node000005_Node000008"><a xlink:title=" ">
<path fill="none" stroke="#63b8ff" d="M222.74,-54.84C242.18,-46.43 271.42,-33.77 293.64,-24.15"/>
<polygon fill="#63b8ff" stroke="#63b8ff" points="294.73,-27.49 302.52,-20.3 291.95,-21.06 294.73,-27.49"/>
</a>
</g>
</g>
<!-- Node9&#45;&gt;Node2 -->
<g id="edge11_Node000009_Node000002" class="edge">
<title>Node9&#45;&gt;Node2</title>
<g id="a_edge11_Node000009_Node000002"><a xlink:title=" ">
<path fill="none" stroke="#63b8ff" d="M235.98,-110C211.99,-101.6 176.11,-88.37 145.88,-74.5 112.83,-59.33 76.21,-38.91 52.66,-25.29"/>
<polygon fill="#63b8ff" stroke="#63b8ff" points="54.53,-22.33 44.13,-20.31 51,-28.37 54.53,-22.33"/>
</a>
</g>
</g>
<!-- Node9&#45;&gt;Node3 -->
<g id="edge12_Node000009_Node000003" class="edge">
<title>Node9&#45;&gt;Node3</title>
<g id="a_edge12_Node000009_Node000003"><a xlink:title=" ">
<path fill="none" stroke="#63b8ff" d="M274.41,-110.09C284.34,-102.32 298.89,-90.92 310.73,-81.65"/>
<polygon fill="#63b8ff" stroke="#63b8ff" points="312.6,-84.63 318.32,-75.71 308.29,-79.12 312.6,-84.63"/>
</a>
</g>
</g>
<!-- Node9&#45;&gt;Node7 -->
<g id="edge13_Node000009_Node000007" class="edge">
<title>Node9&#45;&gt;Node7</title>
<g id="a_edge13_Node000009_Node000007"><a xlink:title=" ">
<path fill="none" stroke="#63b8ff" d="M264.3,-110.25C265.92,-97.33 267.26,-72.93 257.88,-55.25 251.45,-43.14 240.17,-33.19 229.41,-25.78"/>
<polygon fill="#63b8ff" stroke="#63b8ff" points="231.43,-22.91 221.11,-20.51 227.68,-28.82 231.43,-22.91"/>
</a>
</g>
</g>
<!-- Node10&#45;&gt;Node2 -->
<g id="edge16_Node000010_Node000002" class="edge">
<title>Node10&#45;&gt;Node2</title>
<g id="a_edge16_Node000010_Node000002"><a xlink:title=" ">
<path fill="none" stroke="#63b8ff" d="M118.77,-110.25C102.38,-92.28 65.04,-51.36 43.67,-27.94"/>
<polygon fill="#63b8ff" stroke="#63b8ff" points="46.43,-25.77 37.11,-20.74 41.26,-30.49 46.43,-25.77"/>
</a>
</g>
</g>
<!-- Node10&#45;&gt;Node5 -->
<g id="edge17_Node000010_Node000005" class="edge">
<title>Node10&#45;&gt;Node5</title>
<g id="a_edge17_Node000010_Node000005"><a xlink:title=" ">
<path fill="none" stroke="#63b8ff" d="M139.6,-110.09C150.59,-102.29 166.72,-90.84 179.81,-81.54"/>
<polygon fill="#63b8ff" stroke="#63b8ff" points="181.73,-84.47 187.86,-75.83 177.68,-78.76 181.73,-84.47"/>
</a>
</g>
</g>
<!-- Node10&#45;&gt;Node6 -->
<g id="edge15_Node000010_Node000006" class="edge">
<title>Node10&#45;&gt;Node6</title>
<g id="a_edge15_Node000010_Node000006"><a xlink:title=" ">
<path fill="none" stroke="#63b8ff" d="M123.14,-110.09C119.7,-101.21 114.82,-87.18 112.88,-74.5 110.6,-59.66 113.68,-42.95 117.16,-30.34"/>
<polygon fill="#63b8ff" stroke="#63b8ff" points="120.39,-31.74 120,-21.15 113.7,-29.67 120.39,-31.74"/>
</a>
</g>
</g>
<!-- Node10&#45;&gt;Node7 -->
<g id="edge18_Node000010_Node000007" class="edge">
<title>Node10&#45;&gt;Node7</title>
<g id="a_edge18_Node000010_Node000007"><a xlink:title=" ">
<path fill="none" stroke="#63b8ff" d="M127.82,-110.14C129.57,-97.08 134.23,-72.51 145.88,-55.25 153.75,-43.57 165.63,-33.49 176.42,-25.88"/>
<polygon fill="#63b8ff" stroke="#63b8ff" points="178.22,-28.89 184.62,-20.44 174.35,-23.05 178.22,-28.89"/>
</a>
</g>
</g>
</g>
</svg>
