<?xml version="1.0" encoding="UTF-8" standalone="no"?>
<!DOCTYPE svg PUBLIC "-//W3C//DTD SVG 1.1//EN"
 "http://www.w3.org/Graphics/SVG/1.1/DTD/svg11.dtd">
<!-- Generated by graphviz version 14.0.0 (20250921.2048)
 -->
<!-- Title: src/preprocessor/ELPH_getopt_long.c Pages: 1 -->
<svg width="249pt" height="149pt"
 viewBox="0.00 0.00 249.00 149.00" xmlns="http://www.w3.org/2000/svg" xmlns:xlink="http://www.w3.org/1999/xlink">

<svg id="main" version="1.1" xmlns="http://www.w3.org/2000/svg" xmlns:xlink="http://www.w3.org/1999/xlink" xml:space="preserve">

<style type="text/css"><![CDATA[
.node, .edge {opacity: 0.7;}
.node.selected, .edge.selected {opacity: 1;}
.edge:hover path { stroke: red; }
.edge:hover polygon { stroke: red; fill: red; }
]]></style>
<script type="application/ecmascript" xlink:href="../../svg.min.js"/>
<svg id="graph" class="graph">
<g id="graph0" class="graph" transform="scale(1 1) rotate(0) translate(4 145)">
<title>src/preprocessor/ELPH_getopt_long.c</title>
<!-- Node1 -->
<g id="Node000001" class="node">
<title>Node1</title>
<g id="a_Node000001"><a xlink:title=" ">
<polygon fill="#999999" stroke="#666666" points="178,-141 60,-141 60,-110.5 178,-110.5 178,-141"/>
<text xml:space="preserve" text-anchor="start" x="68" y="-127.5" font-family="Helvetica,sans-Serif" font-size="10.00">src/preprocessor/ELPH</text>
<text xml:space="preserve" text-anchor="middle" x="119" y="-116.25" font-family="Helvetica,sans-Serif" font-size="10.00">_getopt_long.c</text>
</a>
</g>
</g>
<!-- Node2 -->
<g id="Node000002" class="node">
<title>Node2</title>
<g id="a_Node000002"><a xlink:href="../../d9/d43/_e_l_p_h__getopt_8h.html" target="_top" xlink:title=" ">
<polygon fill="white" stroke="#666666" points="160.38,-74.5 77.62,-74.5 77.62,-55.25 160.38,-55.25 160.38,-74.5"/>
<text xml:space="preserve" text-anchor="middle" x="119" y="-61" font-family="Helvetica,sans-Serif" font-size="10.00">ELPH_getopt.h</text>
</a>
</g>
</g>
<!-- Node1&#45;&gt;Node2 -->
<g id="edge1_Node000001_Node000002" class="edge">
<title>Node1&#45;&gt;Node2</title>
<g id="a_edge1_Node000001_Node000002"><a xlink:title=" ">
<path fill="none" stroke="#63b8ff" d="M119,-110.2C119,-102.96 119,-94.09 119,-86.19"/>
<polygon fill="#63b8ff" stroke="#63b8ff" points="122.5,-86.46 119,-76.46 115.5,-86.46 122.5,-86.46"/>
</a>
</g>
</g>
<!-- Node3 -->
<g id="Node000003" class="node">
<title>Node3</title>
<g id="a_Node000003"><a xlink:title=" ">
<polygon fill="#e0e0e0" stroke="#999999" points="46,-19.25 0,-19.25 0,0 46,0 46,-19.25"/>
<text xml:space="preserve" text-anchor="middle" x="23" y="-5.75" font-family="Helvetica,sans-Serif" font-size="10.00">errno.h</text>
</a>
</g>
</g>
<!-- Node2&#45;&gt;Node3 -->
<g id="edge2_Node000002_Node000003" class="edge">
<title>Node2&#45;&gt;Node3</title>
<g id="a_edge2_Node000002_Node000003"><a xlink:title=" ">
<path fill="none" stroke="#63b8ff" d="M102.71,-54.84C88.1,-46.73 66.37,-34.68 49.29,-25.21"/>
<polygon fill="#63b8ff" stroke="#63b8ff" points="51.13,-22.23 40.69,-20.44 47.74,-28.35 51.13,-22.23"/>
</a>
</g>
</g>
<!-- Node4 -->
<g id="Node000004" class="node">
<title>Node4</title>
<g id="a_Node000004"><a xlink:title=" ">
<polygon fill="#e0e0e0" stroke="#999999" points="109.62,-19.25 64.38,-19.25 64.38,0 109.62,0 109.62,-19.25"/>
<text xml:space="preserve" text-anchor="middle" x="87" y="-5.75" font-family="Helvetica,sans-Serif" font-size="10.00">stdio.h</text>
</a>
</g>
</g>
<!-- Node2&#45;&gt;Node4 -->
<g id="edge3_Node000002_Node000004" class="edge">
<title>Node2&#45;&gt;Node4</title>
<g id="a_edge3_Node000002_Node000004"><a xlink:title=" ">
<path fill="none" stroke="#63b8ff" d="M113.72,-55.08C109.53,-48.11 103.52,-38.12 98.27,-29.37"/>
<polygon fill="#63b8ff" stroke="#63b8ff" points="101.33,-27.68 93.18,-20.91 95.33,-31.28 101.33,-27.68"/>
</a>
</g>
</g>
<!-- Node5 -->
<g id="Node000005" class="node">
<title>Node5</title>
<g id="a_Node000005"><a xlink:title=" ">
<polygon fill="#e0e0e0" stroke="#999999" points="174.75,-19.25 127.25,-19.25 127.25,0 174.75,0 174.75,-19.25"/>
<text xml:space="preserve" text-anchor="middle" x="151" y="-5.75" font-family="Helvetica,sans-Serif" font-size="10.00">stdlib.h</text>
</a>
</g>
</g>
<!-- Node2&#45;&gt;Node5 -->
<g id="edge4_Node000002_Node000005" class="edge">
<title>Node2&#45;&gt;Node5</title>
<g id="a_edge4_Node000002_Node000005"><a xlink:title=" ">
<path fill="none" stroke="#63b8ff" d="M124.28,-55.08C128.47,-48.11 134.48,-38.12 139.73,-29.37"/>
<polygon fill="#63b8ff" stroke="#63b8ff" points="142.67,-31.28 144.82,-20.91 136.67,-27.68 142.67,-31.28"/>
</a>
</g>
</g>
<!-- Node6 -->
<g id="Node000006" class="node">
<title>Node6</title>
<g id="a_Node000006"><a xlink:title=" ">
<polygon fill="#e0e0e0" stroke="#999999" points="241.12,-19.25 192.88,-19.25 192.88,0 241.12,0 241.12,-19.25"/>
<text xml:space="preserve" text-anchor="middle" x="217" y="-5.75" font-family="Helvetica,sans-Serif" font-size="10.00">string.h</text>
</a>
</g>
</g>
<!-- Node2&#45;&gt;Node6 -->
<g id="edge5_Node000002_Node000006" class="edge">
<title>Node2&#45;&gt;Node6</title>
<g id="a_edge5_Node000002_Node000006"><a xlink:title=" ">
<path fill="none" stroke="#63b8ff" d="M135.62,-54.84C150.69,-46.66 173.14,-34.46 190.65,-24.94"/>
<polygon fill="#63b8ff" stroke="#63b8ff" points="191.85,-28.27 198.96,-20.43 188.51,-22.12 191.85,-28.27"/>
</a>
</g>
</g>
</g>
</svg>
</svg>

<style type='text/css'>
<![CDATA[
[data-mouse-over-selected='false'] { opacity: 0.7; }
[data-mouse-over-selected='true']  { opacity: 1.0; }
]]>
</style>
<script type="application/ecmascript"><![CDATA[
document.addEventListener('DOMContentLoaded', (event) => {
  highlightEdges();
  highlightAdjacentNodes();
});
]]></script>
</svg>
