<?xml version="1.0" encoding="UTF-8" standalone="no"?>
<!DOCTYPE svg PUBLIC "-//W3C//DTD SVG 1.1//EN"
 "http://www.w3.org/Graphics/SVG/1.1/DTD/svg11.dtd">
<!-- Generated by graphviz version 14.0.0 (20250921.2048)
 -->
<!-- Title: src/interpolation/interpolation_utilities.c Pages: 1 -->
<!--zoomable 149 -->

<svg id="main" version="1.1" xmlns="http://www.w3.org/2000/svg" xmlns:xlink="http://www.w3.org/1999/xlink" xml:space="preserve" onload="init(evt)">

<style type="text/css"><![CDATA[
.node, .edge {opacity: 0.7;}
.node.selected, .edge.selected {opacity: 1;}
.edge:hover path { stroke: red; }
.edge:hover polygon { stroke: red; fill: red; }
]]></style>

<defs>
  <circle id="rim" cx="0" cy="0" r="7"/>
  <circle id="rim2" cx="0" cy="0" r="3.5"/>
  <g id="zoomPlus">
    <use xlink:href="#rim" fill="#404040"><set attributeName="fill" to="#808080" begin="zoomplus.mouseover" end="zoomplus.mouseout"/></use>
    <path d="M-4,0h8M0,-4v8" fill="none" stroke="white" stroke-width="1.5" pointer-events="none"/>
  </g>
  <g id="zoomMin">
    <use xlink:href="#rim" fill="#404040"><set attributeName="fill" to="#808080" begin="zoomminus.mouseover" end="zoomminus.mouseout"/></use>
    <path d="M-4,0h8" fill="none" stroke="white" stroke-width="1.5" pointer-events="none"/>
  </g>
  <g id="arrowUp" transform="translate(30 24)">
    <use xlink:href="#rim"/>
    <path pointer-events="none" fill="none" stroke="white" stroke-width="1.5" d="M0,-3.0v7 M-2.5,-0.5L0,-3.0L2.5,-0.5"/>
  </g>
  <g id="arrowRight" transform="rotate(90) translate(36 -43)">
    <use xlink:href="#rim"/>
    <path pointer-events="none" fill="none" stroke="white" stroke-width="1.5" d="M0,-3.0v7 M-2.5,-0.5L0,-3.0L2.5,-0.5"/>
  </g>
  <g id="arrowDown" transform="rotate(180) translate(-30 -48)">
    <use xlink:href="#rim"/>
    <path pointer-events="none" fill="none" stroke="white" stroke-width="1.5" d="M0,-3.0v7 M-2.5,-0.5L0,-3.0L2.5,-0.5"/>
  </g>
  <g id="arrowLeft" transform="rotate(270) translate(-36 17)">
    <use xlink:href="#rim"/>
    <path pointer-events="none" fill="none" stroke="white" stroke-width="1.5" d="M0,-3.0v7 M-2.5,-0.5L0,-3.0L2.5,-0.5"/>
  </g>
  <g id="resetDef">
    <use xlink:href="#rim2" fill="#404040"><set attributeName="fill" to="#808080" begin="reset.mouseover" end="reset.mouseout"/></use>
  </g>
</defs>
<script type="application/ecmascript">
var viewWidth = 1169;
var viewHeight = 149;
var sectionId = 'dynsection-0';
</script>
<script type="application/ecmascript" xlink:href="../../svg.min.js"/>
<svg id="graph" class="graph">
<g id="viewport">
<title>src/interpolation/interpolation_utilities.c</title>
<!-- Node1 -->
<g id="Node000001" class="node">
<title>Node1</title>
<g id="a_Node000001"><a xlink:title=" ">
<polygon fill="#999999" stroke="#666666" points="744.12,-141 603.62,-141 603.62,-110.5 744.12,-110.5 744.12,-141"/>
<text xml:space="preserve" text-anchor="start" x="611.62" y="-127.5" font-family="Helvetica,sans-Serif" font-size="10.00">src/interpolation/interpolation</text>
<text xml:space="preserve" text-anchor="middle" x="673.88" y="-116.25" font-family="Helvetica,sans-Serif" font-size="10.00">_utilities.c</text>
</a>
</g>
</g>
<!-- Node2 -->
<g id="Node000002" class="node">
<title>Node2</title>
<g id="a_Node000002"><a xlink:href="../../dd/def/interpolation__utilities_8h.html" target="_top" xlink:title=" ">
<polygon fill="white" stroke="#666666" points="308.25,-74.5 195.5,-74.5 195.5,-55.25 308.25,-55.25 308.25,-74.5"/>
<text xml:space="preserve" text-anchor="middle" x="251.88" y="-61" font-family="Helvetica,sans-Serif" font-size="10.00">interpolation_utilities.h</text>
</a>
</g>
</g>
<!-- Node1&#45;&gt;Node2 -->
<g id="edge1_Node000001_Node000002" class="edge">
<title>Node1&#45;&gt;Node2</title>
<g id="a_edge1_Node000001_Node000002"><a xlink:title=" ">
<path fill="none" stroke="#63b8ff" d="M603.24,-114.9C524.3,-103.88 397.38,-86.17 319.63,-75.33"/>
<polygon fill="#63b8ff" stroke="#63b8ff" points="320.41,-71.9 310.02,-73.99 319.44,-78.84 320.41,-71.9"/>
</a>
</g>
</g>
<!-- Node3 -->
<g id="Node000003" class="node">
<title>Node3</title>
<g id="a_Node000003"><a xlink:href="../../d4/d0a/elph_c_8h.html" target="_top" xlink:title="Core type definitions and configuration for LetzElPhC.">
<polygon fill="white" stroke="#666666" points="340.75,-19.25 291,-19.25 291,0 340.75,0 340.75,-19.25"/>
<text xml:space="preserve" text-anchor="middle" x="315.88" y="-5.75" font-family="Helvetica,sans-Serif" font-size="10.00">elphC.h</text>
</a>
</g>
</g>
<!-- Node1&#45;&gt;Node3 -->
<g id="edge3_Node000001_Node000003" class="edge">
<title>Node1&#45;&gt;Node3</title>
<g id="a_edge3_Node000001_Node000003"><a xlink:title=" ">
<path fill="none" stroke="#63b8ff" d="M603.41,-122.6C475.15,-117.95 214.24,-104.83 186.88,-74.5 156.95,-41.33 231.72,-23.34 279.56,-15.5"/>
<polygon fill="#63b8ff" stroke="#63b8ff" points="279.93,-18.99 289.27,-14 278.86,-12.07 279.93,-18.99"/>
</a>
</g>
</g>
<!-- Node4 -->
<g id="Node000004" class="node">
<title>Node4</title>
<g id="a_Node000004"><a xlink:href="../../d7/d76/fft_8h.html" target="_top" xlink:title=" ">
<polygon fill="white" stroke="#666666" points="645.5,-74.5 600.25,-74.5 600.25,-55.25 645.5,-55.25 645.5,-74.5"/>
<text xml:space="preserve" text-anchor="middle" x="622.88" y="-61" font-family="Helvetica,sans-Serif" font-size="10.00">fft/fft.h</text>
</a>
</g>
</g>
<!-- Node1&#45;&gt;Node4 -->
<g id="edge4_Node000001_Node000004" class="edge">
<title>Node1&#45;&gt;Node4</title>
<g id="a_edge4_Node000001_Node000004"><a xlink:title=" ">
<path fill="none" stroke="#63b8ff" d="M661.27,-110.2C654.25,-102.09 645.46,-91.95 638.07,-83.41"/>
<polygon fill="#63b8ff" stroke="#63b8ff" points="640.92,-81.36 631.73,-76.1 635.63,-85.95 640.92,-81.36"/>
</a>
</g>
</g>
<!-- Node5 -->
<g id="Node000005" class="node">
<title>Node5</title>
<g id="a_Node000005"><a xlink:title=" ">
<polygon fill="#e0e0e0" stroke="#999999" points="682.38,-19.25 621.38,-19.25 621.38,0 682.38,0 682.38,-19.25"/>
<text xml:space="preserve" text-anchor="middle" x="651.88" y="-5.75" font-family="Helvetica,sans-Serif" font-size="10.00">complex.h</text>
</a>
</g>
</g>
<!-- Node1&#45;&gt;Node5 -->
<g id="edge10_Node000001_Node000005" class="edge">
<title>Node1&#45;&gt;Node5</title>
<g id="a_edge10_Node000001_Node000005"><a xlink:title=" ">
<path fill="none" stroke="#63b8ff" d="M671.09,-110.3C667.21,-90.15 660.15,-53.56 655.76,-30.75"/>
<polygon fill="#63b8ff" stroke="#63b8ff" points="659.24,-30.34 653.91,-21.18 652.37,-31.67 659.24,-30.34"/>
</a>
</g>
</g>
<!-- Node6 -->
<g id="Node000006" class="node">
<title>Node6</title>
<g id="a_Node000006"><a xlink:title=" ">
<polygon fill="#e0e0e0" stroke="#999999" points="746.88,-19.25 700.88,-19.25 700.88,0 746.88,0 746.88,-19.25"/>
<text xml:space="preserve" text-anchor="middle" x="723.88" y="-5.75" font-family="Helvetica,sans-Serif" font-size="10.00">fftw3.h</text>
</a>
</g>
</g>
<!-- Node1&#45;&gt;Node6 -->
<g id="edge11_Node000001_Node000006" class="edge">
<title>Node1&#45;&gt;Node6</title>
<g id="a_edge11_Node000001_Node000006"><a xlink:title=" ">
<path fill="none" stroke="#63b8ff" d="M680.21,-110.3C689.11,-89.97 705.36,-52.88 715.33,-30.12"/>
<polygon fill="#63b8ff" stroke="#63b8ff" points="718.49,-31.65 719.29,-21.08 712.07,-28.84 718.49,-31.65"/>
</a>
</g>
</g>
<!-- Node9 -->
<g id="Node000009" class="node">
<title>Node9</title>
<g id="a_Node000009"><a xlink:title=" ">
<polygon fill="#e0e0e0" stroke="#999999" points="785.88,-74.5 739.88,-74.5 739.88,-55.25 785.88,-55.25 785.88,-74.5"/>
<text xml:space="preserve" text-anchor="middle" x="762.88" y="-61" font-family="Helvetica,sans-Serif" font-size="10.00">math.h</text>
</a>
</g>
</g>
<!-- Node1&#45;&gt;Node9 -->
<g id="edge12_Node000001_Node000009" class="edge">
<title>Node1&#45;&gt;Node9</title>
<g id="a_edge12_Node000001_Node000009"><a xlink:title=" ">
<path fill="none" stroke="#63b8ff" d="M695.88,-110.2C709.17,-101.4 726.09,-90.21 739.6,-81.27"/>
<polygon fill="#63b8ff" stroke="#63b8ff" points="741.48,-84.22 747.89,-75.79 737.62,-78.38 741.48,-84.22"/>
</a>
</g>
</g>
<!-- Node10 -->
<g id="Node000010" class="node">
<title>Node10</title>
<g id="a_Node000010"><a xlink:title=" ">
<polygon fill="#e0e0e0" stroke="#999999" points="851.62,-74.5 804.12,-74.5 804.12,-55.25 851.62,-55.25 851.62,-74.5"/>
<text xml:space="preserve" text-anchor="middle" x="827.88" y="-61" font-family="Helvetica,sans-Serif" font-size="10.00">stdlib.h</text>
</a>
</g>
</g>
<!-- Node1&#45;&gt;Node10 -->
<g id="edge13_Node000001_Node000010" class="edge">
<title>Node1&#45;&gt;Node10</title>
<g id="a_edge13_Node000001_Node000010"><a xlink:title=" ">
<path fill="none" stroke="#63b8ff" d="M712.34,-110.05C737.37,-100.48 769.72,-88.11 793.82,-78.89"/>
<polygon fill="#63b8ff" stroke="#63b8ff" points="794.75,-82.28 802.84,-75.44 792.25,-75.75 794.75,-82.28"/>
</a>
</g>
</g>
<!-- Node11 -->
<g id="Node000011" class="node">
<title>Node11</title>
<g id="a_Node000011"><a xlink:title=" ">
<polygon fill="#e0e0e0" stroke="#999999" points="918,-74.5 869.75,-74.5 869.75,-55.25 918,-55.25 918,-74.5"/>
<text xml:space="preserve" text-anchor="middle" x="893.88" y="-61" font-family="Helvetica,sans-Serif" font-size="10.00">string.h</text>
</a>
</g>
</g>
<!-- Node1&#45;&gt;Node11 -->
<g id="edge14_Node000001_Node000011" class="edge">
<title>Node1&#45;&gt;Node11</title>
<g id="a_edge14_Node000001_Node000011"><a xlink:title=" ">
<path fill="none" stroke="#63b8ff" d="M728.82,-110.05C769.3,-99.21 823.18,-84.79 858.19,-75.42"/>
<polygon fill="#63b8ff" stroke="#63b8ff" points="859.08,-78.81 867.83,-72.84 857.27,-72.05 859.08,-78.81"/>
</a>
</g>
</g>
<!-- Node12 -->
<g id="Node000012" class="node">
<title>Node12</title>
<g id="a_Node000012"><a xlink:href="../../de/d83/_e_l_p_h__timers_8h.html" target="_top" xlink:title=" ">
<polygon fill="white" stroke="#666666" points="1059.5,-74.5 936.25,-74.5 936.25,-55.25 1059.5,-55.25 1059.5,-74.5"/>
<text xml:space="preserve" text-anchor="middle" x="997.88" y="-61" font-family="Helvetica,sans-Serif" font-size="10.00">common/ELPH_timers.h</text>
</a>
</g>
</g>
<!-- Node1&#45;&gt;Node12 -->
<g id="edge15_Node000001_Node000012" class="edge">
<title>Node1&#45;&gt;Node12</title>
<g id="a_edge15_Node000001_Node000012"><a xlink:title=" ">
<path fill="none" stroke="#63b8ff" d="M744.58,-111.9C801.94,-101.48 881.99,-86.93 936.64,-77"/>
<polygon fill="#63b8ff" stroke="#63b8ff" points="937.2,-80.46 946.41,-75.23 935.95,-73.57 937.2,-80.46"/>
</a>
</g>
</g>
<!-- Node13 -->
<g id="Node000013" class="node">
<title>Node13</title>
<g id="a_Node000013"><a xlink:href="../../d2/d6f/constants_8h.html" target="_top" xlink:title=" ">
<polygon fill="white" stroke="#666666" points="433.62,-74.5 326.12,-74.5 326.12,-55.25 433.62,-55.25 433.62,-74.5"/>
<text xml:space="preserve" text-anchor="middle" x="379.88" y="-61" font-family="Helvetica,sans-Serif" font-size="10.00">common/constants.h</text>
</a>
</g>
</g>
<!-- Node1&#45;&gt;Node13 -->
<g id="edge16_Node000001_Node000013" class="edge">
<title>Node1&#45;&gt;Node13</title>
<g id="a_edge16_Node000001_Node000013"><a xlink:title=" ">
<path fill="none" stroke="#63b8ff" d="M603.45,-110.65C552.18,-100.38 483.67,-86.66 436.06,-77.13"/>
<polygon fill="#63b8ff" stroke="#63b8ff" points="437.01,-73.75 426.51,-75.21 435.63,-80.61 437.01,-73.75"/>
</a>
</g>
</g>
<!-- Node14 -->
<g id="Node000014" class="node">
<title>Node14</title>
<g id="a_Node000014"><a xlink:href="../../da/d41/error_8h.html" target="_top" xlink:title=" ">
<polygon fill="white" stroke="#666666" points="1160.62,-74.5 1077.12,-74.5 1077.12,-55.25 1160.62,-55.25 1160.62,-74.5"/>
<text xml:space="preserve" text-anchor="middle" x="1118.88" y="-61" font-family="Helvetica,sans-Serif" font-size="10.00">common/error.h</text>
</a>
</g>
</g>
<!-- Node1&#45;&gt;Node14 -->
<g id="edge18_Node000001_Node000014" class="edge">
<title>Node1&#45;&gt;Node14</title>
<g id="a_edge18_Node000001_Node000014"><a xlink:title=" ">
<path fill="none" stroke="#63b8ff" d="M744.29,-116.75C821,-107.81 947.6,-92.44 1065.84,-74.91"/>
<polygon fill="#63b8ff" stroke="#63b8ff" points="1066.01,-78.42 1075.39,-73.48 1064.98,-71.49 1066.01,-78.42"/>
</a>
</g>
</g>
<!-- Node15 -->
<g id="Node000015" class="node">
<title>Node15</title>
<g id="a_Node000015"><a xlink:href="../../df/def/numerical__func_8h.html" target="_top" xlink:title=" ">
<polygon fill="white" stroke="#666666" points="582.25,-74.5 451.5,-74.5 451.5,-55.25 582.25,-55.25 582.25,-74.5"/>
<text xml:space="preserve" text-anchor="middle" x="516.88" y="-61" font-family="Helvetica,sans-Serif" font-size="10.00">common/numerical_func.h</text>
</a>
</g>
</g>
<!-- Node1&#45;&gt;Node15 -->
<g id="edge19_Node000001_Node000015" class="edge">
<title>Node1&#45;&gt;Node15</title>
<g id="a_edge19_Node000001_Node000015"><a xlink:title=" ">
<path fill="none" stroke="#63b8ff" d="M634.66,-110.05C609.14,-100.48 576.16,-88.11 551.59,-78.89"/>
<polygon fill="#63b8ff" stroke="#63b8ff" points="552.96,-75.67 542.37,-75.44 550.5,-82.22 552.96,-75.67"/>
</a>
</g>
</g>
<!-- Node16 -->
<g id="Node000016" class="node">
<title>Node16</title>
<g id="a_Node000016"><a xlink:href="../../d2/d8d/omp__pragma__def_8h.html" target="_top" xlink:title=" ">
<polygon fill="white" stroke="#666666" points="139.75,-74.5 0,-74.5 0,-55.25 139.75,-55.25 139.75,-74.5"/>
<text xml:space="preserve" text-anchor="middle" x="69.88" y="-61" font-family="Helvetica,sans-Serif" font-size="10.00">common/omp_pragma_def.h</text>
</a>
</g>
</g>
<!-- Node1&#45;&gt;Node16 -->
<g id="edge22_Node000001_Node000016" class="edge">
<title>Node1&#45;&gt;Node16</title>
<g id="a_edge22_Node000001_Node000016"><a xlink:title=" ">
<path fill="none" stroke="#63b8ff" d="M603.21,-118.06C503.17,-108.55 314.52,-90.51 153.88,-74.5 153.03,-74.42 152.17,-74.33 151.32,-74.24"/>
<polygon fill="#63b8ff" stroke="#63b8ff" points="151.8,-70.78 141.5,-73.26 151.1,-77.74 151.8,-70.78"/>
</a>
</g>
</g>
<!-- Node2&#45;&gt;Node3 -->
<g id="edge2_Node000002_Node000003" class="edge">
<title>Node2&#45;&gt;Node3</title>
<g id="a_edge2_Node000002_Node000003"><a xlink:title=" ">
<path fill="none" stroke="#63b8ff" d="M262.73,-54.84C271.98,-47.15 285.5,-35.9 296.58,-26.68"/>
<polygon fill="#63b8ff" stroke="#63b8ff" points="298.57,-29.58 304.02,-20.49 294.09,-24.2 298.57,-29.58"/>
</a>
</g>
</g>
<!-- Node4&#45;&gt;Node3 -->
<g id="edge5_Node000004_Node000003" class="edge">
<title>Node4&#45;&gt;Node3</title>
<g id="a_edge5_Node000004_Node000003"><a xlink:title=" ">
<path fill="none" stroke="#63b8ff" d="M599.87,-57.37C596.86,-56.61 593.8,-55.88 590.88,-55.25 506.03,-36.98 405.03,-22.4 352.19,-15.31"/>
<polygon fill="#63b8ff" stroke="#63b8ff" points="352.94,-11.88 342.56,-14.03 352.01,-18.82 352.94,-11.88"/>
</a>
</g>
</g>
<!-- Node4&#45;&gt;Node5 -->
<g id="edge6_Node000004_Node000005" class="edge">
<title>Node4&#45;&gt;Node5</title>
<g id="a_edge6_Node000004_Node000005"><a xlink:title=" ">
<path fill="none" stroke="#63b8ff" d="M627.66,-55.08C631.42,-48.19 636.78,-38.34 641.51,-29.66"/>
<polygon fill="#63b8ff" stroke="#63b8ff" points="644.55,-31.39 646.26,-20.94 638.4,-28.05 644.55,-31.39"/>
</a>
</g>
</g>
<!-- Node4&#45;&gt;Node6 -->
<g id="edge7_Node000004_Node000006" class="edge">
<title>Node4&#45;&gt;Node6</title>
<g id="a_edge7_Node000004_Node000006"><a xlink:title=" ">
<path fill="none" stroke="#63b8ff" d="M640.01,-54.84C655.53,-46.66 678.68,-34.46 696.72,-24.94"/>
<polygon fill="#63b8ff" stroke="#63b8ff" points="698.11,-28.17 705.32,-20.41 694.84,-21.98 698.11,-28.17"/>
</a>
</g>
</g>
<!-- Node7 -->
<g id="Node000007" class="node">
<title>Node7</title>
<g id="a_Node000007"><a xlink:title=" ">
<polygon fill="#e0e0e0" stroke="#999999" points="602.88,-19.25 562.88,-19.25 562.88,0 602.88,0 602.88,-19.25"/>
<text xml:space="preserve" text-anchor="middle" x="582.88" y="-5.75" font-family="Helvetica,sans-Serif" font-size="10.00">mpi.h</text>
</a>
</g>
</g>
<!-- Node4&#45;&gt;Node7 -->
<g id="edge8_Node000004_Node000007" class="edge">
<title>Node4&#45;&gt;Node7</title>
<g id="a_edge8_Node000004_Node000007"><a xlink:title=" ">
<path fill="none" stroke="#63b8ff" d="M616.27,-55.08C610.92,-47.96 603.2,-37.68 596.53,-28.8"/>
<polygon fill="#63b8ff" stroke="#63b8ff" points="599.34,-26.71 590.53,-20.82 593.74,-30.92 599.34,-26.71"/>
</a>
</g>
</g>
<!-- Node8 -->
<g id="Node000008" class="node">
<title>Node8</title>
<g id="a_Node000008"><a xlink:title=" ">
<polygon fill="#e0e0e0" stroke="#999999" points="544.75,-19.25 489,-19.25 489,0 544.75,0 544.75,-19.25"/>
<text xml:space="preserve" text-anchor="middle" x="516.88" y="-5.75" font-family="Helvetica,sans-Serif" font-size="10.00">stdbool.h</text>
</a>
</g>
</g>
<!-- Node4&#45;&gt;Node8 -->
<g id="edge9_Node000004_Node000008" class="edge">
<title>Node4&#45;&gt;Node8</title>
<g id="a_edge9_Node000004_Node000008"><a xlink:title=" ">
<path fill="none" stroke="#63b8ff" d="M604.89,-54.84C588.52,-46.62 564.09,-34.34 545.11,-24.81"/>
<polygon fill="#63b8ff" stroke="#63b8ff" points="546.8,-21.74 536.3,-20.38 543.66,-28 546.8,-21.74"/>
</a>
</g>
</g>
<!-- Node13&#45;&gt;Node3 -->
<g id="edge17_Node000013_Node000003" class="edge">
<title>Node13&#45;&gt;Node3</title>
<g id="a_edge17_Node000013_Node000003"><a xlink:title=" ">
<path fill="none" stroke="#63b8ff" d="M369.02,-54.84C359.77,-47.15 346.25,-35.9 335.17,-26.68"/>
<polygon fill="#63b8ff" stroke="#63b8ff" points="337.66,-24.2 327.73,-20.49 333.18,-29.58 337.66,-24.2"/>
</a>
</g>
</g>
<!-- Node15&#45;&gt;Node3 -->
<g id="edge21_Node000015_Node000003" class="edge">
<title>Node15&#45;&gt;Node3</title>
<g id="a_edge21_Node000015_Node000003"><a xlink:title=" ">
<path fill="none" stroke="#63b8ff" d="M482.78,-54.84C446.44,-45.21 389.14,-30.03 352.03,-20.2"/>
<polygon fill="#63b8ff" stroke="#63b8ff" points="353.23,-16.9 342.67,-17.72 351.44,-23.67 353.23,-16.9"/>
</a>
</g>
</g>
<!-- Node15&#45;&gt;Node8 -->
<g id="edge20_Node000015_Node000008" class="edge">
<title>Node15&#45;&gt;Node8</title>
<g id="a_edge20_Node000015_Node000008"><a xlink:title=" ">
<path fill="none" stroke="#63b8ff" d="M516.88,-55.08C516.88,-48.57 516.88,-39.42 516.88,-31.12"/>
<polygon fill="#63b8ff" stroke="#63b8ff" points="520.38,-31.12 516.88,-21.12 513.38,-31.12 520.38,-31.12"/>
</a>
</g>
</g>
<!-- Node16&#45;&gt;Node3 -->
<g id="edge23_Node000016_Node000003" class="edge">
<title>Node16&#45;&gt;Node3</title>
<g id="a_edge23_Node000016_Node000003"><a xlink:title=" ">
<path fill="none" stroke="#63b8ff" d="M111.88,-54.78C159,-44.58 234.65,-28.21 279.38,-18.52"/>
<polygon fill="#63b8ff" stroke="#63b8ff" points="280.08,-21.95 289.11,-16.42 278.6,-15.11 280.08,-21.95"/>
</a>
</g>
</g>
</g>
</svg>

<g id="navigator" transform="translate(0 0)" fill="#404254">
  <rect fill="#f2f5e9" fill-opacity="0.5" stroke="#606060" stroke-width=".5" x="0" y="0" width="60" height="60"/>
  <use id="zoomplus" xlink:href="#zoomPlus" x="17" y="9" onmousedown="handleZoom(evt,'in')"/>
  <use id="zoomminus" xlink:href="#zoomMin" x="42" y="9" onmousedown="handleZoom(evt,'out')"/>
  <use id="reset" xlink:href="#resetDef" x="30" y="36" onmousedown="handleReset()"/>
   <use id="arrowup" xlink:href="#arrowUp" x="0" y="0" onmousedown="handlePan(0,-1)"/>
  <use id="arrowright" xlink:href="#arrowRight" x="0" y="0" onmousedown="handlePan(1,0)"/>
  <use id="arrowdown" xlink:href="#arrowDown" x="0" y="0" onmousedown="handlePan(0,1)"/>
  <use id="arrowleft" xlink:href="#arrowLeft" x="0" y="0" onmousedown="handlePan(-1,0)"/>
</g>
<svg viewBox="0 0 15 15" width="100%" height="30px" preserveAspectRatio="xMaxYMin meet">
 <g id="arrow_out" transform="scale(0.3 0.3)">
  <a xlink:href="interpolation__utilities_8c__incl_org.svg" target="_base">
   <rect id="button" ry="5" rx="5" y="6" x="6" height="38" width="38"
        fill="#f2f5e9" fill-opacity="0.5" stroke="#606060" stroke-width="1.0"/>
   <path id="arrow"
     d="M 11.500037,31.436501 C 11.940474,20.09759 22.043105,11.32322 32.158766,21.979434 L 37.068811,17.246167 C 37.068811,17.246167 37.088388,32 37.088388,32 L 22.160133,31.978069 C 22.160133,31.978069 26.997745,27.140456 26.997745,27.140456 C 18.528582,18.264221 13.291696,25.230495 11.500037,31.436501 z"
     style="fill:#404040;"/>
  </a>
 </g>
</svg>

<style type='text/css'>
<![CDATA[
[data-mouse-over-selected='false'] { opacity: 0.7; }
[data-mouse-over-selected='true']  { opacity: 1.0; }
]]>
</style>
<script type="application/ecmascript"><![CDATA[
document.addEventListener('DOMContentLoaded', (event) => {
  highlightEdges();
  highlightAdjacentNodes();
});
]]></script>
</svg>
