<?xml version="1.0" encoding="UTF-8" standalone="no"?>
<!DOCTYPE svg PUBLIC "-//W3C//DTD SVG 1.1//EN"
 "http://www.w3.org/Graphics/SVG/1.1/DTD/svg11.dtd">
<!-- Generated by graphviz version 14.0.0 (20250921.2048)
 -->
<!-- Title: dV_add_longrange Pages: 1 -->
<svg width="494pt" height="401pt"
 viewBox="0.00 0.00 494.00 401.00" xmlns="http://www.w3.org/2000/svg" xmlns:xlink="http://www.w3.org/1999/xlink">

<svg id="main" version="1.1" xmlns="http://www.w3.org/2000/svg" xmlns:xlink="http://www.w3.org/1999/xlink" xml:space="preserve">

<style type="text/css"><![CDATA[
.node, .edge {opacity: 0.7;}
.node.selected, .edge.selected {opacity: 1;}
.edge:hover path { stroke: red; }
.edge:hover polygon { stroke: red; fill: red; }
]]></style>
<script type="application/ecmascript" xlink:href="../../svg.min.js"/>
<svg id="graph" class="graph">
<g id="graph0" class="graph" transform="scale(1 1) rotate(0) translate(4 397.17)">
<title>dV_add_longrange</title>
<!-- Node1 -->
<g id="Node000001" class="node">
<title>Node1</title>
<g id="a_Node000001"><a xlink:title=" ">
<polygon fill="#999999" stroke="#666666" points="96.25,-206.25 0,-206.25 0,-187 96.25,-187 96.25,-206.25"/>
<text xml:space="preserve" text-anchor="middle" x="48.12" y="-192.75" font-family="Helvetica,sans-Serif" font-size="10.00">dV_add_longrange</text>
</a>
</g>
</g>
<!-- Node2 -->
<g id="Node000002" class="node">
<title>Node2</title>
<g id="a_Node000002"><a xlink:href="../../d9/def/d_vlong__range__kernel_8c.html#a3d05ed4699169237a06a20f305c67c8d" target="_top" xlink:title=" ">
<polygon fill="white" stroke="#666666" points="239,-354.25 132.25,-354.25 132.25,-335 239,-335 239,-354.25"/>
<text xml:space="preserve" text-anchor="middle" x="185.62" y="-340.75" font-family="Helvetica,sans-Serif" font-size="10.00">dVlong_range_kernel</text>
</a>
</g>
</g>
<!-- Node1&#45;&gt;Node2 -->
<g id="edge1_Node000001_Node000002" class="edge">
<title>Node1&#45;&gt;Node2</title>
<g id="a_edge1_Node000001_Node000002"><a xlink:title=" ">
<path fill="none" stroke="#63b8ff" d="M52.84,-206.71C62.28,-230.96 89.51,-293.01 132.25,-326.62 133.38,-327.51 134.55,-328.35 135.76,-329.16"/>
<polygon fill="#63b8ff" stroke="#63b8ff" points="133.83,-332.09 144.28,-333.83 137.2,-325.96 133.83,-332.09"/>
</a>
</g>
</g>
<!-- Node4 -->
<g id="Node000004" class="node">
<title>Node4</title>
<g id="a_Node000004"><a xlink:href="../../de/d2d/numerical__func_8c.html#adeeb2c0049b8e3663d2d2cc9f7a1cd23" target="_top" xlink:title=" ">
<polygon fill="white" stroke="#666666" points="486.25,-354.25 428.25,-354.25 428.25,-335 486.25,-335 486.25,-354.25"/>
<text xml:space="preserve" text-anchor="middle" x="457.25" y="-340.75" font-family="Helvetica,sans-Serif" font-size="10.00">MatVec3f</text>
</a>
</g>
</g>
<!-- Node1&#45;&gt;Node4 -->
<g id="edge15_Node000001_Node000004" class="edge">
<title>Node1&#45;&gt;Node4</title>
<g id="a_edge15_Node000001_Node000004"><a xlink:title=" ">
<path fill="none" stroke="#63b8ff" d="M50.47,-206.53C55.18,-236.67 73.88,-327.48 132.25,-363.62 223.76,-420.3 359.11,-381.81 421.92,-358.63"/>
<polygon fill="#63b8ff" stroke="#63b8ff" points="422.9,-362 431.01,-355.18 420.42,-355.45 422.9,-362"/>
</a>
</g>
</g>
<!-- Node6 -->
<g id="Node000006" class="node">
<title>Node6</title>
<g id="a_Node000006"><a xlink:href="../../da/d97/_e_l_p_h__timers_8c.html#a4846a0dbe6a17751878baf1315af43aa" target="_top" xlink:title=" ">
<polygon fill="white" stroke="#666666" points="233.38,-317.25 137.88,-317.25 137.88,-298 233.38,-298 233.38,-317.25"/>
<text xml:space="preserve" text-anchor="middle" x="185.62" y="-303.75" font-family="Helvetica,sans-Serif" font-size="10.00">ELPH_start_clock</text>
</a>
</g>
</g>
<!-- Node1&#45;&gt;Node6 -->
<g id="edge6_Node000001_Node000006" class="edge">
<title>Node1&#45;&gt;Node6</title>
<g id="a_edge6_Node000001_Node000006"><a xlink:title=" ">
<path fill="none" stroke="#63b8ff" d="M55.42,-206.55C67.87,-225.39 97.43,-266.5 132.25,-289.62 133.85,-290.69 135.51,-291.69 137.23,-292.64"/>
<polygon fill="#63b8ff" stroke="#63b8ff" points="135.54,-295.71 146.07,-296.86 138.55,-289.4 135.54,-295.71"/>
</a>
</g>
</g>
<!-- Node7 -->
<g id="Node000007" class="node">
<title>Node7</title>
<g id="a_Node000007"><a xlink:href="../../da/d97/_e_l_p_h__timers_8c.html#adcc3002449fe62895b6e89571d00ba48" target="_top" xlink:title=" ">
<polygon fill="white" stroke="#666666" points="233,-280.25 138.25,-280.25 138.25,-261 233,-261 233,-280.25"/>
<text xml:space="preserve" text-anchor="middle" x="185.62" y="-266.75" font-family="Helvetica,sans-Serif" font-size="10.00">ELPH_stop_clock</text>
</a>
</g>
</g>
<!-- Node1&#45;&gt;Node7 -->
<g id="edge7_Node000001_Node000007" class="edge">
<title>Node1&#45;&gt;Node7</title>
<g id="a_edge7_Node000001_Node000007"><a xlink:title=" ">
<path fill="none" stroke="#63b8ff" d="M61.72,-206.66C77.47,-218.83 105.61,-239.36 132.25,-252.62 134.94,-253.96 137.76,-255.25 140.62,-256.46"/>
<polygon fill="#63b8ff" stroke="#63b8ff" points="139.12,-259.63 149.71,-260.02 141.68,-253.12 139.12,-259.63"/>
</a>
</g>
</g>
<!-- Node8 -->
<g id="Node000008" class="node">
<title>Node8</title>
<g id="a_Node000008"><a xlink:href="../../d8/dc1/gen__fftbox_8c.html#a177abf9025f086dfc69af140504c0251" target="_top" xlink:title=" ">
<polygon fill="white" stroke="#666666" points="218,-243.25 153.25,-243.25 153.25,-224 218,-224 218,-243.25"/>
<text xml:space="preserve" text-anchor="middle" x="185.62" y="-229.75" font-family="Helvetica,sans-Serif" font-size="10.00">get_fft_box</text>
</a>
</g>
</g>
<!-- Node1&#45;&gt;Node8 -->
<g id="edge8_Node000001_Node000008" class="edge">
<title>Node1&#45;&gt;Node8</title>
<g id="a_edge8_Node000001_Node000008"><a xlink:title=" ">
<path fill="none" stroke="#63b8ff" d="M86.15,-206.74C103.46,-211.46 124.16,-217.11 142.11,-222.02"/>
<polygon fill="#63b8ff" stroke="#63b8ff" points="141.13,-225.38 151.7,-224.63 142.97,-218.62 141.13,-225.38"/>
</a>
</g>
</g>
<!-- Node9 -->
<g id="Node000009" class="node">
<title>Node9</title>
<g id="a_Node000009"><a xlink:href="../../de/d2d/numerical__func_8c.html#a33dc7889eeb05a7ee40327581d51a3d7" target="_top" xlink:title=" ">
<polygon fill="white" stroke="#666666" points="223.62,-206.25 147.62,-206.25 147.62,-187 223.62,-187 223.62,-206.25"/>
<text xml:space="preserve" text-anchor="middle" x="185.62" y="-192.75" font-family="Helvetica,sans-Serif" font-size="10.00">get_miller_idx</text>
</a>
</g>
</g>
<!-- Node1&#45;&gt;Node9 -->
<g id="edge9_Node000001_Node000009" class="edge">
<title>Node1&#45;&gt;Node9</title>
<g id="a_edge9_Node000001_Node000009"><a xlink:title=" ">
<path fill="none" stroke="#63b8ff" d="M96.52,-196.62C109.25,-196.62 123.05,-196.62 135.86,-196.62"/>
<polygon fill="#63b8ff" stroke="#63b8ff" points="135.78,-200.13 145.78,-196.63 135.78,-193.13 135.78,-200.13"/>
</a>
</g>
</g>
<!-- Node10 -->
<g id="Node000010" class="node">
<title>Node10</title>
<g id="a_Node000010"><a xlink:href="../../d9/d54/parallel_8c.html#a772905c8b6c33d03f3c8eb15bafdb129" target="_top" xlink:title=" ">
<polygon fill="white" stroke="#666666" points="392.25,-131.25 275,-131.25 275,-112 392.25,-112 392.25,-131.25"/>
<text xml:space="preserve" text-anchor="middle" x="333.62" y="-117.75" font-family="Helvetica,sans-Serif" font-size="10.00">get_mpi_local_size_idx</text>
</a>
</g>
</g>
<!-- Node1&#45;&gt;Node10 -->
<g id="edge10_Node000001_Node000010" class="edge">
<title>Node1&#45;&gt;Node10</title>
<g id="a_edge10_Node000001_Node000010"><a xlink:title=" ">
<path fill="none" stroke="#63b8ff" d="M59.96,-186.66C74.94,-173.54 103.42,-150.94 132.25,-140.62 174.17,-125.62 224,-120.85 263.48,-119.83"/>
<polygon fill="#63b8ff" stroke="#63b8ff" points="263.4,-123.34 273.34,-119.67 263.28,-116.34 263.4,-123.34"/>
</a>
</g>
</g>
<!-- Node11 -->
<g id="Node000011" class="node">
<title>Node11</title>
<g id="a_Node000011"><a xlink:href="../../dd/dc9/bwdfft_8c.html#ad3a34c33ba91c3026025fdc4ffe3f97b" target="_top" xlink:title=" ">
<polygon fill="white" stroke="#666666" points="210.88,-169.25 160.38,-169.25 160.38,-150 210.88,-150 210.88,-169.25"/>
<text xml:space="preserve" text-anchor="middle" x="185.62" y="-155.75" font-family="Helvetica,sans-Serif" font-size="10.00">invfft3D</text>
</a>
</g>
</g>
<!-- Node1&#45;&gt;Node11 -->
<g id="edge11_Node000001_Node000011" class="edge">
<title>Node1&#45;&gt;Node11</title>
<g id="a_edge11_Node000001_Node000011"><a xlink:title=" ">
<path fill="none" stroke="#63b8ff" d="M86.15,-186.51C105.71,-181.17 129.6,-174.65 148.96,-169.37"/>
<polygon fill="#63b8ff" stroke="#63b8ff" points="149.86,-172.75 158.59,-166.73 148.02,-165.99 149.86,-172.75"/>
</a>
</g>
</g>
<!-- Node13 -->
<g id="Node000013" class="node">
<title>Node13</title>
<g id="a_Node000013"><a xlink:href="../../dc/d50/blas_8c.html#a93d327b9e3c8bd925ff76d32df39809c" target="_top" xlink:title=" ">
<polygon fill="white" stroke="#666666" points="225.5,-19.25 145.75,-19.25 145.75,0 225.5,0 225.5,-19.25"/>
<text xml:space="preserve" text-anchor="middle" x="185.62" y="-5.75" font-family="Helvetica,sans-Serif" font-size="10.00">matmul_cmplx</text>
</a>
</g>
</g>
<!-- Node1&#45;&gt;Node13 -->
<g id="edge13_Node000001_Node000013" class="edge">
<title>Node1&#45;&gt;Node13</title>
<g id="a_edge13_Node000001_Node000013"><a xlink:title=" ">
<path fill="none" stroke="#63b8ff" d="M51.22,-186.61C57.8,-157.66 80.73,-73.02 132.25,-27.62 133.33,-26.68 134.45,-25.78 135.62,-24.93"/>
<polygon fill="#63b8ff" stroke="#63b8ff" points="137.1,-28.12 143.96,-20.04 133.56,-22.08 137.1,-28.12"/>
</a>
</g>
</g>
<!-- Node15 -->
<g id="Node000015" class="node">
<title>Node15</title>
<g id="a_Node000015"><a xlink:href="../../d7/d1a/planner_8c.html#ab24a0c92cd3342721b1c491ac85116e6" target="_top" xlink:title=" ">
<polygon fill="white" stroke="#666666" points="231.88,-56.25 139.38,-56.25 139.38,-37 231.88,-37 231.88,-56.25"/>
<text xml:space="preserve" text-anchor="middle" x="185.62" y="-42.75" font-family="Helvetica,sans-Serif" font-size="10.00">wfc_destroy_plan</text>
</a>
</g>
</g>
<!-- Node1&#45;&gt;Node15 -->
<g id="edge16_Node000001_Node000015" class="edge">
<title>Node1&#45;&gt;Node15</title>
<g id="a_edge16_Node000001_Node000015"><a xlink:title=" ">
<path fill="none" stroke="#63b8ff" d="M52.66,-186.74C61.87,-162.38 88.94,-98.93 132.25,-64.62 133.37,-63.74 134.54,-62.89 135.75,-62.08"/>
<polygon fill="#63b8ff" stroke="#63b8ff" points="137.19,-65.28 144.26,-57.39 133.82,-59.15 137.19,-65.28"/>
</a>
</g>
</g>
<!-- Node16 -->
<g id="Node000016" class="node">
<title>Node16</title>
<g id="a_Node000016"><a xlink:href="../../d7/d1a/planner_8c.html#a08f76b4b182067a8a93997877decdb27" target="_top" xlink:title=" ">
<polygon fill="white" stroke="#666666" points="213.12,-93.25 158.12,-93.25 158.12,-74 213.12,-74 213.12,-93.25"/>
<text xml:space="preserve" text-anchor="middle" x="185.62" y="-79.75" font-family="Helvetica,sans-Serif" font-size="10.00">wfc_plan</text>
</a>
</g>
</g>
<!-- Node1&#45;&gt;Node16 -->
<g id="edge17_Node000001_Node000016" class="edge">
<title>Node1&#45;&gt;Node16</title>
<g id="a_edge17_Node000001_Node000016"><a xlink:title=" ">
<path fill="none" stroke="#63b8ff" d="M56.35,-186.61C69.66,-168.76 99.66,-131.12 132.25,-107.62 136.95,-104.24 142.2,-101.16 147.51,-98.41"/>
<polygon fill="#63b8ff" stroke="#63b8ff" points="148.79,-101.68 156.31,-94.22 145.78,-95.36 148.79,-101.68"/>
</a>
</g>
</g>
<!-- Node3 -->
<g id="Node000003" class="node">
<title>Node3</title>
<g id="a_Node000003"><a xlink:href="../../d9/def/d_vlong__range__kernel_8c.html#ab6fc4d219e176d7ee3b31281533f20b0" target="_top" xlink:title=" ">
<polygon fill="white" stroke="#666666" points="390,-317.25 277.25,-317.25 277.25,-298 390,-298 390,-317.25"/>
<text xml:space="preserve" text-anchor="middle" x="333.62" y="-303.75" font-family="Helvetica,sans-Serif" font-size="10.00">long_range_2D_kernel</text>
</a>
</g>
</g>
<!-- Node2&#45;&gt;Node3 -->
<g id="edge2_Node000002_Node000003" class="edge">
<title>Node2&#45;&gt;Node3</title>
<g id="a_edge2_Node000002_Node000003"><a xlink:title=" ">
<path fill="none" stroke="#63b8ff" d="M226.52,-334.51C243.58,-330.19 263.7,-325.09 281.81,-320.5"/>
<polygon fill="#63b8ff" stroke="#63b8ff" points="282.48,-323.94 291.31,-318.1 280.76,-317.16 282.48,-323.94"/>
</a>
</g>
</g>
<!-- Node5 -->
<g id="Node000005" class="node">
<title>Node5</title>
<g id="a_Node000005"><a xlink:href="../../d9/def/d_vlong__range__kernel_8c.html#a13191f35714f8bd3cbfbedc8d37090f9" target="_top" xlink:title=" ">
<polygon fill="white" stroke="#666666" points="390,-354.25 277.25,-354.25 277.25,-335 390,-335 390,-354.25"/>
<text xml:space="preserve" text-anchor="middle" x="333.62" y="-340.75" font-family="Helvetica,sans-Serif" font-size="10.00">long_range_3D_kernel</text>
</a>
</g>
</g>
<!-- Node2&#45;&gt;Node5 -->
<g id="edge4_Node000002_Node000005" class="edge">
<title>Node2&#45;&gt;Node5</title>
<g id="a_edge4_Node000002_Node000005"><a xlink:title=" ">
<path fill="none" stroke="#63b8ff" d="M239.33,-344.62C247.85,-344.62 256.77,-344.62 265.58,-344.62"/>
<polygon fill="#63b8ff" stroke="#63b8ff" points="265.52,-348.13 275.52,-344.63 265.52,-341.13 265.52,-348.13"/>
</a>
</g>
</g>
<!-- Node3&#45;&gt;Node4 -->
<g id="edge3_Node000003_Node000004" class="edge">
<title>Node3&#45;&gt;Node4</title>
<g id="a_edge3_Node000003_Node000004"><a xlink:title=" ">
<path fill="none" stroke="#63b8ff" d="M367.86,-317.74C383.17,-322.39 401.45,-327.95 417.4,-332.81"/>
<polygon fill="#63b8ff" stroke="#63b8ff" points="415.97,-336.03 426.55,-335.59 418.01,-329.33 415.97,-336.03"/>
</a>
</g>
</g>
<!-- Node5&#45;&gt;Node4 -->
<g id="edge5_Node000005_Node000004" class="edge">
<title>Node5&#45;&gt;Node4</title>
<g id="a_edge5_Node000005_Node000004"><a xlink:title=" ">
<path fill="none" stroke="#63b8ff" d="M390.45,-344.62C399.28,-344.62 408.25,-344.62 416.61,-344.62"/>
<polygon fill="#63b8ff" stroke="#63b8ff" points="416.43,-348.13 426.43,-344.63 416.43,-341.13 416.43,-348.13"/>
</a>
</g>
</g>
<!-- Node12 -->
<g id="Node000012" class="node">
<title>Node12</title>
<g id="a_Node000012"><a xlink:href="../../d6/d7a/transpose_8c.html#ab4226b652ad962cca615394112f6d5b6" target="_top" xlink:title=" ">
<polygon fill="white" stroke="#666666" points="374.62,-169.25 292.62,-169.25 292.62,-150 374.62,-150 374.62,-169.25"/>
<text xml:space="preserve" text-anchor="middle" x="333.62" y="-155.75" font-family="Helvetica,sans-Serif" font-size="10.00">bwd_transpose</text>
</a>
</g>
</g>
<!-- Node11&#45;&gt;Node12 -->
<g id="edge12_Node000011_Node000012" class="edge">
<title>Node11&#45;&gt;Node12</title>
<g id="a_edge12_Node000011_Node000012"><a xlink:title=" ">
<path fill="none" stroke="#63b8ff" d="M211.06,-159.62C230.11,-159.62 257.22,-159.62 281.01,-159.62"/>
<polygon fill="#63b8ff" stroke="#63b8ff" points="280.86,-163.13 290.86,-159.63 280.86,-156.13 280.86,-163.13"/>
</a>
</g>
</g>
<!-- Node14 -->
<g id="Node000014" class="node">
<title>Node14</title>
<g id="a_Node000014"><a xlink:href="../../dc/d50/blas_8c.html#a913bafabc05e83b2aeed88da231a461f" target="_top" xlink:title=" ">
<polygon fill="white" stroke="#666666" points="372.75,-19.25 294.5,-19.25 294.5,0 372.75,0 372.75,-19.25"/>
<text xml:space="preserve" text-anchor="middle" x="333.62" y="-5.75" font-family="Helvetica,sans-Serif" font-size="10.00">get_gemmn_T</text>
</a>
</g>
</g>
<!-- Node13&#45;&gt;Node14 -->
<g id="edge14_Node000013_Node000014" class="edge">
<title>Node13&#45;&gt;Node14</title>
<g id="a_edge14_Node000013_Node000014"><a xlink:title=" ">
<path fill="none" stroke="#63b8ff" d="M225.75,-9.62C243.31,-9.62 264.22,-9.62 282.88,-9.62"/>
<polygon fill="#63b8ff" stroke="#63b8ff" points="282.64,-13.13 292.64,-9.63 282.64,-6.13 282.64,-13.13"/>
</a>
</g>
</g>
<!-- Node16&#45;&gt;Node10 -->
<g id="edge19_Node000016_Node000010" class="edge">
<title>Node16&#45;&gt;Node10</title>
<g id="a_edge19_Node000016_Node000010"><a xlink:title=" ">
<path fill="none" stroke="#63b8ff" d="M213.4,-90.59C232.79,-95.64 259.56,-102.61 282.82,-108.66"/>
<polygon fill="#63b8ff" stroke="#63b8ff" points="281.89,-112.04 292.45,-111.17 283.65,-105.26 281.89,-112.04"/>
</a>
</g>
</g>
<!-- Node17 -->
<g id="Node000017" class="node">
<title>Node17</title>
<g id="a_Node000017"><a xlink:href="../../d7/d8e/align_8c.html#a00208b13e41d5ba8f2dfbea6dd749ba3" target="_top" xlink:title=" ">
<polygon fill="white" stroke="#666666" points="371.62,-93.25 295.62,-93.25 295.62,-74 371.62,-74 371.62,-93.25"/>
<text xml:space="preserve" text-anchor="middle" x="333.62" y="-79.75" font-family="Helvetica,sans-Serif" font-size="10.00">alignment_len</text>
</a>
</g>
</g>
<!-- Node16&#45;&gt;Node17 -->
<g id="edge18_Node000016_Node000017" class="edge">
<title>Node16&#45;&gt;Node17</title>
<g id="a_edge18_Node000016_Node000017"><a xlink:title=" ">
<path fill="none" stroke="#63b8ff" d="M213.4,-83.62C233.14,-83.62 260.54,-83.62 284.09,-83.62"/>
<polygon fill="#63b8ff" stroke="#63b8ff" points="283.78,-87.13 293.78,-83.63 283.78,-80.13 283.78,-87.13"/>
</a>
</g>
</g>
</g>
</svg>
</svg>

<style type='text/css'>
<![CDATA[
[data-mouse-over-selected='false'] { opacity: 0.7; }
[data-mouse-over-selected='true']  { opacity: 1.0; }
]]>
</style>
<script type="application/ecmascript"><![CDATA[
document.addEventListener('DOMContentLoaded', (event) => {
  highlightEdges();
  highlightAdjacentNodes();
});
]]></script>
</svg>
