<?xml version="1.0" encoding="UTF-8" standalone="no"?>
<!DOCTYPE svg PUBLIC "-//W3C//DTD SVG 1.1//EN"
 "http://www.w3.org/Graphics/SVG/1.1/DTD/svg11.dtd">
<!-- Generated by graphviz version 14.0.0 (20250921.2048)
 -->
<!-- Title: src/fft/fft.h Pages: 1 -->
<svg width="1298pt" height="94pt"
 viewBox="0.00 0.00 1298.00 94.00" xmlns="http://www.w3.org/2000/svg" xmlns:xlink="http://www.w3.org/1999/xlink">
<g id="graph0" class="graph" transform="scale(1 1) rotate(0) translate(4 89.75)">
<title>src/fft/fft.h</title>
<!-- Node1 -->
<g id="Node000001" class="node">
<title>Node1</title>
<g id="a_Node000001"><a xlink:title=" ">
<polygon fill="#999999" stroke="#666666" points="690.38,-85.75 628.62,-85.75 628.62,-66.5 690.38,-66.5 690.38,-85.75"/>
<text xml:space="preserve" text-anchor="middle" x="659.5" y="-72.25" font-family="Helvetica,sans-Serif" font-size="10.00">src/fft/fft.h</text>
</a>
</g>
</g>
<!-- Node2 -->
<g id="Node000002" class="node">
<title>Node2</title>
<g id="a_Node000002"><a xlink:href="../../d1/d8e/compute___vbare__loc_8c.html" target="_top" xlink:title=" ">
<polygon fill="white" stroke="#666666" points="127,-30.5 0,-30.5 0,0 127,0 127,-30.5"/>
<text xml:space="preserve" text-anchor="start" x="8" y="-17" font-family="Helvetica,sans-Serif" font-size="10.00">src/dvloc/compute_Vbare</text>
<text xml:space="preserve" text-anchor="middle" x="63.5" y="-5.75" font-family="Helvetica,sans-Serif" font-size="10.00">_loc.c</text>
</a>
</g>
</g>
<!-- Node1&#45;&gt;Node2 -->
<g id="edge1_Node000001_Node000002" class="edge">
<title>Node1&#45;&gt;Node2</title>
<g id="a_edge1_Node000001_Node000002"><a xlink:title=" ">
<path fill="none" stroke="#63b8ff" d="M617.09,-73.1C527.7,-68.5 313.52,-55.62 135.5,-30.5 132.85,-30.13 130.15,-29.72 127.43,-29.28"/>
<polygon fill="#63b8ff" stroke="#63b8ff" points="616.68,-76.59 626.85,-73.6 617.04,-69.6 616.68,-76.59"/>
</a>
</g>
</g>
<!-- Node3 -->
<g id="Node000003" class="node">
<title>Node3</title>
<g id="a_Node000003"><a xlink:href="../../d9/d90/d_vbare__loc_8c.html" target="_top" xlink:title=" ">
<polygon fill="white" stroke="#666666" points="260.38,-24.88 144.62,-24.88 144.62,-5.63 260.38,-5.63 260.38,-24.88"/>
<text xml:space="preserve" text-anchor="middle" x="202.5" y="-11.38" font-family="Helvetica,sans-Serif" font-size="10.00">src/dvloc/dVbare_loc.c</text>
</a>
</g>
</g>
<!-- Node1&#45;&gt;Node3 -->
<g id="edge2_Node000001_Node000003" class="edge">
<title>Node1&#45;&gt;Node3</title>
<g id="a_edge2_Node000001_Node000003"><a xlink:title=" ">
<path fill="none" stroke="#63b8ff" d="M617.01,-71.6C545.16,-65.35 395.18,-51.01 269.5,-30.5 260.58,-29.04 251.05,-27.2 242.06,-25.32"/>
<polygon fill="#63b8ff" stroke="#63b8ff" points="616.5,-75.07 626.76,-72.44 617.1,-68.1 616.5,-75.07"/>
</a>
</g>
</g>
<!-- Node4 -->
<g id="Node000004" class="node">
<title>Node4</title>
<g id="a_Node000004"><a xlink:href="../../d1/d94/d_vpot__add__long__range_8c.html" target="_top" xlink:title=" ">
<polygon fill="white" stroke="#666666" points="384.12,-30.5 278.88,-30.5 278.88,0 384.12,0 384.12,-30.5"/>
<text xml:space="preserve" text-anchor="start" x="286.88" y="-17" font-family="Helvetica,sans-Serif" font-size="10.00">src/dvloc/dVpot_add</text>
<text xml:space="preserve" text-anchor="middle" x="331.5" y="-5.75" font-family="Helvetica,sans-Serif" font-size="10.00">_long_range.c</text>
</a>
</g>
</g>
<!-- Node1&#45;&gt;Node4 -->
<g id="edge3_Node000001_Node000004" class="edge">
<title>Node1&#45;&gt;Node4</title>
<g id="a_edge3_Node000001_Node000004"><a xlink:title=" ">
<path fill="none" stroke="#63b8ff" d="M617.03,-68.8C564.41,-60.78 472.07,-46.1 393.5,-30.5 390.58,-29.92 387.58,-29.3 384.56,-28.66"/>
<polygon fill="#63b8ff" stroke="#63b8ff" points="616.36,-72.24 626.77,-70.28 617.41,-65.32 616.36,-72.24"/>
</a>
</g>
</g>
<!-- Node5 -->
<g id="Node000005" class="node">
<title>Node5</title>
<g id="a_Node000005"><a xlink:href="../../da/d2e/elph__driver_8c.html" target="_top" xlink:title=" ">
<polygon fill="white" stroke="#666666" points="510.62,-24.88 402.38,-24.88 402.38,-5.63 510.62,-5.63 510.62,-24.88"/>
<text xml:space="preserve" text-anchor="middle" x="456.5" y="-11.38" font-family="Helvetica,sans-Serif" font-size="10.00">src/elph/elph_driver.c</text>
</a>
</g>
</g>
<!-- Node1&#45;&gt;Node5 -->
<g id="edge4_Node000001_Node000005" class="edge">
<title>Node1&#45;&gt;Node5</title>
<g id="a_edge4_Node000001_Node000005"><a xlink:title=" ">
<path fill="none" stroke="#63b8ff" d="M617.35,-62.9C578.77,-51.71 522.54,-35.4 487.81,-25.33"/>
<polygon fill="#63b8ff" stroke="#63b8ff" points="616.19,-66.21 626.77,-65.63 618.14,-59.49 616.19,-66.21"/>
</a>
</g>
</g>
<!-- Node6 -->
<g id="Node000006" class="node">
<title>Node6</title>
<g id="a_Node000006"><a xlink:href="../../d7/d8e/align_8c.html" target="_top" xlink:title=" ">
<polygon fill="white" stroke="#666666" points="602,-24.88 529,-24.88 529,-5.63 602,-5.63 602,-24.88"/>
<text xml:space="preserve" text-anchor="middle" x="565.5" y="-11.38" font-family="Helvetica,sans-Serif" font-size="10.00">src/fft/align.c</text>
</a>
</g>
</g>
<!-- Node1&#45;&gt;Node6 -->
<g id="edge5_Node000001_Node000006" class="edge">
<title>Node1&#45;&gt;Node6</title>
<g id="a_edge5_Node000001_Node000006"><a xlink:title=" ">
<path fill="none" stroke="#63b8ff" d="M635.65,-60.18C618.07,-49.17 594.73,-34.56 579.91,-25.28"/>
<polygon fill="#63b8ff" stroke="#63b8ff" points="633.61,-63.04 643.94,-65.38 637.32,-57.11 633.61,-63.04"/>
</a>
</g>
</g>
<!-- Node7 -->
<g id="Node000007" class="node">
<title>Node7</title>
<g id="a_Node000007"><a xlink:href="../../dd/dc9/bwdfft_8c.html" target="_top" xlink:title=" ">
<polygon fill="white" stroke="#666666" points="699.38,-24.88 619.62,-24.88 619.62,-5.63 699.38,-5.63 699.38,-24.88"/>
<text xml:space="preserve" text-anchor="middle" x="659.5" y="-11.38" font-family="Helvetica,sans-Serif" font-size="10.00">src/fft/bwdfft.c</text>
</a>
</g>
</g>
<!-- Node1&#45;&gt;Node7 -->
<g id="edge6_Node000001_Node000007" class="edge">
<title>Node1&#45;&gt;Node7</title>
<g id="a_edge6_Node000001_Node000007"><a xlink:title=" ">
<path fill="none" stroke="#63b8ff" d="M659.5,-54.7C659.5,-44.67 659.5,-33.08 659.5,-25.28"/>
<polygon fill="#63b8ff" stroke="#63b8ff" points="656,-54.67 659.5,-64.67 663,-54.67 656,-54.67"/>
</a>
</g>
</g>
<!-- Node8 -->
<g id="Node000008" class="node">
<title>Node8</title>
<g id="a_Node000008"><a xlink:href="../../d1/d31/convolution_8c.html" target="_top" xlink:title=" ">
<polygon fill="white" stroke="#666666" points="819.62,-24.88 717.38,-24.88 717.38,-5.63 819.62,-5.63 819.62,-24.88"/>
<text xml:space="preserve" text-anchor="middle" x="768.5" y="-11.38" font-family="Helvetica,sans-Serif" font-size="10.00">src/fft/convolution.c</text>
</a>
</g>
</g>
<!-- Node1&#45;&gt;Node8 -->
<g id="edge7_Node000001_Node000008" class="edge">
<title>Node1&#45;&gt;Node8</title>
<g id="a_edge7_Node000001_Node000008"><a xlink:title=" ">
<path fill="none" stroke="#63b8ff" d="M686.02,-60.8C706.53,-49.72 734.28,-34.73 751.79,-25.28"/>
<polygon fill="#63b8ff" stroke="#63b8ff" points="684.52,-57.63 677.39,-65.46 687.85,-63.79 684.52,-57.63"/>
</a>
</g>
</g>
<!-- Node9 -->
<g id="Node000009" class="node">
<title>Node9</title>
<g id="a_Node000009"><a xlink:href="../../d9/dfc/fwdfft_8c.html" target="_top" xlink:title=" ">
<polygon fill="white" stroke="#666666" points="915.25,-24.88 837.75,-24.88 837.75,-5.63 915.25,-5.63 915.25,-24.88"/>
<text xml:space="preserve" text-anchor="middle" x="876.5" y="-11.38" font-family="Helvetica,sans-Serif" font-size="10.00">src/fft/fwdfft.c</text>
</a>
</g>
</g>
<!-- Node1&#45;&gt;Node9 -->
<g id="edge8_Node000001_Node000009" class="edge">
<title>Node1&#45;&gt;Node9</title>
<g id="a_edge8_Node000001_Node000009"><a xlink:title=" ">
<path fill="none" stroke="#63b8ff" d="M701.72,-64.36C735.97,-55.53 785.45,-42.57 828.5,-30.5 834.28,-28.88 840.42,-27.1 846.33,-25.36"/>
<polygon fill="#63b8ff" stroke="#63b8ff" points="701,-60.93 692.19,-66.81 702.75,-67.71 701,-60.93"/>
</a>
</g>
</g>
<!-- Node10 -->
<g id="Node000010" class="node">
<title>Node10</title>
<g id="a_Node000010"><a xlink:href="../../d7/d1a/planner_8c.html" target="_top" xlink:title=" ">
<polygon fill="white" stroke="#666666" points="1017.25,-24.88 933.75,-24.88 933.75,-5.63 1017.25,-5.63 1017.25,-24.88"/>
<text xml:space="preserve" text-anchor="middle" x="975.5" y="-11.38" font-family="Helvetica,sans-Serif" font-size="10.00">src/fft/planner.c</text>
</a>
</g>
</g>
<!-- Node1&#45;&gt;Node10 -->
<g id="edge9_Node000001_Node000010" class="edge">
<title>Node1&#45;&gt;Node10</title>
<g id="a_edge9_Node000001_Node000010"><a xlink:title=" ">
<path fill="none" stroke="#63b8ff" d="M701.93,-69.39C754.49,-61.96 846.61,-47.89 924.5,-30.5 931.14,-29.02 938.2,-27.2 944.89,-25.37"/>
<polygon fill="#63b8ff" stroke="#63b8ff" points="701.63,-65.9 692.21,-70.75 702.6,-72.83 701.63,-65.9"/>
</a>
</g>
</g>
<!-- Node11 -->
<g id="Node000011" class="node">
<title>Node11</title>
<g id="a_Node000011"><a xlink:href="../../d6/d7a/transpose_8c.html" target="_top" xlink:title=" ">
<polygon fill="white" stroke="#666666" points="1131.25,-24.88 1035.75,-24.88 1035.75,-5.63 1131.25,-5.63 1131.25,-24.88"/>
<text xml:space="preserve" text-anchor="middle" x="1083.5" y="-11.38" font-family="Helvetica,sans-Serif" font-size="10.00">src/fft/transpose.c</text>
</a>
</g>
</g>
<!-- Node1&#45;&gt;Node11 -->
<g id="edge10_Node000001_Node000011" class="edge">
<title>Node1&#45;&gt;Node11</title>
<g id="a_edge10_Node000001_Node000011"><a xlink:title=" ">
<path fill="none" stroke="#63b8ff" d="M701.8,-71.7C770.37,-65.76 909.86,-52.09 1026.5,-30.5 1034.22,-29.07 1042.46,-27.21 1050.2,-25.31"/>
<polygon fill="#63b8ff" stroke="#63b8ff" points="701.8,-68.19 692.14,-72.52 702.4,-75.16 701.8,-68.19"/>
</a>
</g>
</g>
<!-- Node12 -->
<g id="Node000012" class="node">
<title>Node12</title>
<g id="a_Node000012"><a xlink:href="../../d9/d41/interpolation__utilities_8c.html" target="_top" xlink:title=" ">
<polygon fill="white" stroke="#666666" points="1289.75,-30.5 1149.25,-30.5 1149.25,0 1289.75,0 1289.75,-30.5"/>
<text xml:space="preserve" text-anchor="start" x="1157.25" y="-17" font-family="Helvetica,sans-Serif" font-size="10.00">src/interpolation/interpolation</text>
<text xml:space="preserve" text-anchor="middle" x="1219.5" y="-5.75" font-family="Helvetica,sans-Serif" font-size="10.00">_utilities.c</text>
</a>
</g>
</g>
<!-- Node1&#45;&gt;Node12 -->
<g id="edge11_Node000001_Node000012" class="edge">
<title>Node1&#45;&gt;Node12</title>
<g id="a_edge11_Node000001_Node000012"><a xlink:title=" ">
<path fill="none" stroke="#63b8ff" d="M702.21,-72.4C786.34,-66.76 979.36,-52.47 1140.5,-30.5 1143.26,-30.12 1146.07,-29.72 1148.91,-29.29"/>
<polygon fill="#63b8ff" stroke="#63b8ff" points="702.1,-68.9 692.35,-73.05 702.56,-75.88 702.1,-68.9"/>
</a>
</g>
</g>
</g>
</svg>
