<?xml version="1.0" encoding="UTF-8" standalone="no"?>
<!DOCTYPE svg PUBLIC "-//W3C//DTD SVG 1.1//EN"
 "http://www.w3.org/Graphics/SVG/1.1/DTD/svg11.dtd">
<!-- Generated by graphviz version 14.0.0 (20250921.2048)
 -->
<!-- Title: src/fft/fft.h Pages: 1 -->
<!--zoomable 94 -->

<svg id="main" version="1.1" xmlns="http://www.w3.org/2000/svg" xmlns:xlink="http://www.w3.org/1999/xlink" xml:space="preserve" onload="init(evt)">

<style type="text/css"><![CDATA[
.node, .edge {opacity: 0.7;}
.node.selected, .edge.selected {opacity: 1;}
.edge:hover path { stroke: red; }
.edge:hover polygon { stroke: red; fill: red; }
]]></style>

<defs>
  <circle id="rim" cx="0" cy="0" r="7"/>
  <circle id="rim2" cx="0" cy="0" r="3.5"/>
  <g id="zoomPlus">
    <use xlink:href="#rim" fill="#404040"><set attributeName="fill" to="#808080" begin="zoomplus.mouseover" end="zoomplus.mouseout"/></use>
    <path d="M-4,0h8M0,-4v8" fill="none" stroke="white" stroke-width="1.5" pointer-events="none"/>
  </g>
  <g id="zoomMin">
    <use xlink:href="#rim" fill="#404040"><set attributeName="fill" to="#808080" begin="zoomminus.mouseover" end="zoomminus.mouseout"/></use>
    <path d="M-4,0h8" fill="none" stroke="white" stroke-width="1.5" pointer-events="none"/>
  </g>
  <g id="arrowUp" transform="translate(30 24)">
    <use xlink:href="#rim"/>
    <path pointer-events="none" fill="none" stroke="white" stroke-width="1.5" d="M0,-3.0v7 M-2.5,-0.5L0,-3.0L2.5,-0.5"/>
  </g>
  <g id="arrowRight" transform="rotate(90) translate(36 -43)">
    <use xlink:href="#rim"/>
    <path pointer-events="none" fill="none" stroke="white" stroke-width="1.5" d="M0,-3.0v7 M-2.5,-0.5L0,-3.0L2.5,-0.5"/>
  </g>
  <g id="arrowDown" transform="rotate(180) translate(-30 -48)">
    <use xlink:href="#rim"/>
    <path pointer-events="none" fill="none" stroke="white" stroke-width="1.5" d="M0,-3.0v7 M-2.5,-0.5L0,-3.0L2.5,-0.5"/>
  </g>
  <g id="arrowLeft" transform="rotate(270) translate(-36 17)">
    <use xlink:href="#rim"/>
    <path pointer-events="none" fill="none" stroke="white" stroke-width="1.5" d="M0,-3.0v7 M-2.5,-0.5L0,-3.0L2.5,-0.5"/>
  </g>
  <g id="resetDef">
    <use xlink:href="#rim2" fill="#404040"><set attributeName="fill" to="#808080" begin="reset.mouseover" end="reset.mouseout"/></use>
  </g>
</defs>
<script type="application/ecmascript">
var viewWidth = 1298;
var viewHeight = 94;
var sectionId = 'dynsection-1';
</script>
<script type="application/ecmascript" xlink:href="../../svg.min.js"/>
<svg id="graph" class="graph">
<g id="viewport">
<title>src/fft/fft.h</title>
<!-- Node1 -->
<g id="Node000001" class="node">
<title>Node1</title>
<g id="a_Node000001"><a xlink:title=" ">
<polygon fill="#999999" stroke="#666666" points="690.38,-85.75 628.62,-85.75 628.62,-66.5 690.38,-66.5 690.38,-85.75"/>
<text xml:space="preserve" text-anchor="middle" x="659.5" y="-72.25" font-family="Helvetica,sans-Serif" font-size="10.00">src/fft/fft.h</text>
</a>
</g>
</g>
<!-- Node2 -->
<g id="Node000002" class="node">
<title>Node2</title>
<g id="a_Node000002"><a xlink:href="../../d1/d8e/compute___vbare__loc_8c.html" target="_top" xlink:title=" ">
<polygon fill="white" stroke="#666666" points="127,-30.5 0,-30.5 0,0 127,0 127,-30.5"/>
<text xml:space="preserve" text-anchor="start" x="8" y="-17" font-family="Helvetica,sans-Serif" font-size="10.00">src/dvloc/compute_Vbare</text>
<text xml:space="preserve" text-anchor="middle" x="63.5" y="-5.75" font-family="Helvetica,sans-Serif" font-size="10.00">_loc.c</text>
</a>
</g>
</g>
<!-- Node1&#45;&gt;Node2 -->
<g id="edge1_Node000001_Node000002" class="edge">
<title>Node1&#45;&gt;Node2</title>
<g id="a_edge1_Node000001_Node000002"><a xlink:title=" ">
<path fill="none" stroke="#63b8ff" d="M617.09,-73.1C527.7,-68.5 313.52,-55.62 135.5,-30.5 132.85,-30.13 130.15,-29.72 127.43,-29.28"/>
<polygon fill="#63b8ff" stroke="#63b8ff" points="616.68,-76.59 626.85,-73.6 617.04,-69.6 616.68,-76.59"/>
</a>
</g>
</g>
<!-- Node3 -->
<g id="Node000003" class="node">
<title>Node3</title>
<g id="a_Node000003"><a xlink:href="../../d9/d90/d_vbare__loc_8c.html" target="_top" xlink:title=" ">
<polygon fill="white" stroke="#666666" points="260.38,-24.88 144.62,-24.88 144.62,-5.63 260.38,-5.63 260.38,-24.88"/>
<text xml:space="preserve" text-anchor="middle" x="202.5" y="-11.38" font-family="Helvetica,sans-Serif" font-size="10.00">src/dvloc/dVbare_loc.c</text>
</a>
</g>
</g>
<!-- Node1&#45;&gt;Node3 -->
<g id="edge2_Node000001_Node000003" class="edge">
<title>Node1&#45;&gt;Node3</title>
<g id="a_edge2_Node000001_Node000003"><a xlink:title=" ">
<path fill="none" stroke="#63b8ff" d="M617.01,-71.6C545.16,-65.35 395.18,-51.01 269.5,-30.5 260.58,-29.04 251.05,-27.2 242.06,-25.32"/>
<polygon fill="#63b8ff" stroke="#63b8ff" points="616.5,-75.07 626.76,-72.44 617.1,-68.1 616.5,-75.07"/>
</a>
</g>
</g>
<!-- Node4 -->
<g id="Node000004" class="node">
<title>Node4</title>
<g id="a_Node000004"><a xlink:href="../../d1/d94/d_vpot__add__long__range_8c.html" target="_top" xlink:title=" ">
<polygon fill="white" stroke="#666666" points="384.12,-30.5 278.88,-30.5 278.88,0 384.12,0 384.12,-30.5"/>
<text xml:space="preserve" text-anchor="start" x="286.88" y="-17" font-family="Helvetica,sans-Serif" font-size="10.00">src/dvloc/dVpot_add</text>
<text xml:space="preserve" text-anchor="middle" x="331.5" y="-5.75" font-family="Helvetica,sans-Serif" font-size="10.00">_long_range.c</text>
</a>
</g>
</g>
<!-- Node1&#45;&gt;Node4 -->
<g id="edge3_Node000001_Node000004" class="edge">
<title>Node1&#45;&gt;Node4</title>
<g id="a_edge3_Node000001_Node000004"><a xlink:title=" ">
<path fill="none" stroke="#63b8ff" d="M617.03,-68.8C564.41,-60.78 472.07,-46.1 393.5,-30.5 390.58,-29.92 387.58,-29.3 384.56,-28.66"/>
<polygon fill="#63b8ff" stroke="#63b8ff" points="616.36,-72.24 626.77,-70.28 617.41,-65.32 616.36,-72.24"/>
</a>
</g>
</g>
<!-- Node5 -->
<g id="Node000005" class="node">
<title>Node5</title>
<g id="a_Node000005"><a xlink:href="../../da/d2e/elph__driver_8c.html" target="_top" xlink:title=" ">
<polygon fill="white" stroke="#666666" points="510.62,-24.88 402.38,-24.88 402.38,-5.63 510.62,-5.63 510.62,-24.88"/>
<text xml:space="preserve" text-anchor="middle" x="456.5" y="-11.38" font-family="Helvetica,sans-Serif" font-size="10.00">src/elph/elph_driver.c</text>
</a>
</g>
</g>
<!-- Node1&#45;&gt;Node5 -->
<g id="edge4_Node000001_Node000005" class="edge">
<title>Node1&#45;&gt;Node5</title>
<g id="a_edge4_Node000001_Node000005"><a xlink:title=" ">
<path fill="none" stroke="#63b8ff" d="M617.35,-62.9C578.77,-51.71 522.54,-35.4 487.81,-25.33"/>
<polygon fill="#63b8ff" stroke="#63b8ff" points="616.19,-66.21 626.77,-65.63 618.14,-59.49 616.19,-66.21"/>
</a>
</g>
</g>
<!-- Node6 -->
<g id="Node000006" class="node">
<title>Node6</title>
<g id="a_Node000006"><a xlink:href="../../d7/d8e/align_8c.html" target="_top" xlink:title=" ">
<polygon fill="white" stroke="#666666" points="602,-24.88 529,-24.88 529,-5.63 602,-5.63 602,-24.88"/>
<text xml:space="preserve" text-anchor="middle" x="565.5" y="-11.38" font-family="Helvetica,sans-Serif" font-size="10.00">src/fft/align.c</text>
</a>
</g>
</g>
<!-- Node1&#45;&gt;Node6 -->
<g id="edge5_Node000001_Node000006" class="edge">
<title>Node1&#45;&gt;Node6</title>
<g id="a_edge5_Node000001_Node000006"><a xlink:title=" ">
<path fill="none" stroke="#63b8ff" d="M635.65,-60.18C618.07,-49.17 594.73,-34.56 579.91,-25.28"/>
<polygon fill="#63b8ff" stroke="#63b8ff" points="633.61,-63.04 643.94,-65.38 637.32,-57.11 633.61,-63.04"/>
</a>
</g>
</g>
<!-- Node7 -->
<g id="Node000007" class="node">
<title>Node7</title>
<g id="a_Node000007"><a xlink:href="../../dd/dc9/bwdfft_8c.html" target="_top" xlink:title=" ">
<polygon fill="white" stroke="#666666" points="699.38,-24.88 619.62,-24.88 619.62,-5.63 699.38,-5.63 699.38,-24.88"/>
<text xml:space="preserve" text-anchor="middle" x="659.5" y="-11.38" font-family="Helvetica,sans-Serif" font-size="10.00">src/fft/bwdfft.c</text>
</a>
</g>
</g>
<!-- Node1&#45;&gt;Node7 -->
<g id="edge6_Node000001_Node000007" class="edge">
<title>Node1&#45;&gt;Node7</title>
<g id="a_edge6_Node000001_Node000007"><a xlink:title=" ">
<path fill="none" stroke="#63b8ff" d="M659.5,-54.7C659.5,-44.67 659.5,-33.08 659.5,-25.28"/>
<polygon fill="#63b8ff" stroke="#63b8ff" points="656,-54.67 659.5,-64.67 663,-54.67 656,-54.67"/>
</a>
</g>
</g>
<!-- Node8 -->
<g id="Node000008" class="node">
<title>Node8</title>
<g id="a_Node000008"><a xlink:href="../../d1/d31/convolution_8c.html" target="_top" xlink:title=" ">
<polygon fill="white" stroke="#666666" points="819.62,-24.88 717.38,-24.88 717.38,-5.63 819.62,-5.63 819.62,-24.88"/>
<text xml:space="preserve" text-anchor="middle" x="768.5" y="-11.38" font-family="Helvetica,sans-Serif" font-size="10.00">src/fft/convolution.c</text>
</a>
</g>
</g>
<!-- Node1&#45;&gt;Node8 -->
<g id="edge7_Node000001_Node000008" class="edge">
<title>Node1&#45;&gt;Node8</title>
<g id="a_edge7_Node000001_Node000008"><a xlink:title=" ">
<path fill="none" stroke="#63b8ff" d="M686.02,-60.8C706.53,-49.72 734.28,-34.73 751.79,-25.28"/>
<polygon fill="#63b8ff" stroke="#63b8ff" points="684.52,-57.63 677.39,-65.46 687.85,-63.79 684.52,-57.63"/>
</a>
</g>
</g>
<!-- Node9 -->
<g id="Node000009" class="node">
<title>Node9</title>
<g id="a_Node000009"><a xlink:href="../../d9/dfc/fwdfft_8c.html" target="_top" xlink:title=" ">
<polygon fill="white" stroke="#666666" points="915.25,-24.88 837.75,-24.88 837.75,-5.63 915.25,-5.63 915.25,-24.88"/>
<text xml:space="preserve" text-anchor="middle" x="876.5" y="-11.38" font-family="Helvetica,sans-Serif" font-size="10.00">src/fft/fwdfft.c</text>
</a>
</g>
</g>
<!-- Node1&#45;&gt;Node9 -->
<g id="edge8_Node000001_Node000009" class="edge">
<title>Node1&#45;&gt;Node9</title>
<g id="a_edge8_Node000001_Node000009"><a xlink:title=" ">
<path fill="none" stroke="#63b8ff" d="M701.72,-64.36C735.97,-55.53 785.45,-42.57 828.5,-30.5 834.28,-28.88 840.42,-27.1 846.33,-25.36"/>
<polygon fill="#63b8ff" stroke="#63b8ff" points="701,-60.93 692.19,-66.81 702.75,-67.71 701,-60.93"/>
</a>
</g>
</g>
<!-- Node10 -->
<g id="Node000010" class="node">
<title>Node10</title>
<g id="a_Node000010"><a xlink:href="../../d7/d1a/planner_8c.html" target="_top" xlink:title=" ">
<polygon fill="white" stroke="#666666" points="1017.25,-24.88 933.75,-24.88 933.75,-5.63 1017.25,-5.63 1017.25,-24.88"/>
<text xml:space="preserve" text-anchor="middle" x="975.5" y="-11.38" font-family="Helvetica,sans-Serif" font-size="10.00">src/fft/planner.c</text>
</a>
</g>
</g>
<!-- Node1&#45;&gt;Node10 -->
<g id="edge9_Node000001_Node000010" class="edge">
<title>Node1&#45;&gt;Node10</title>
<g id="a_edge9_Node000001_Node000010"><a xlink:title=" ">
<path fill="none" stroke="#63b8ff" d="M701.93,-69.39C754.49,-61.96 846.61,-47.89 924.5,-30.5 931.14,-29.02 938.2,-27.2 944.89,-25.37"/>
<polygon fill="#63b8ff" stroke="#63b8ff" points="701.63,-65.9 692.21,-70.75 702.6,-72.83 701.63,-65.9"/>
</a>
</g>
</g>
<!-- Node11 -->
<g id="Node000011" class="node">
<title>Node11</title>
<g id="a_Node000011"><a xlink:href="../../d6/d7a/transpose_8c.html" target="_top" xlink:title=" ">
<polygon fill="white" stroke="#666666" points="1131.25,-24.88 1035.75,-24.88 1035.75,-5.63 1131.25,-5.63 1131.25,-24.88"/>
<text xml:space="preserve" text-anchor="middle" x="1083.5" y="-11.38" font-family="Helvetica,sans-Serif" font-size="10.00">src/fft/transpose.c</text>
</a>
</g>
</g>
<!-- Node1&#45;&gt;Node11 -->
<g id="edge10_Node000001_Node000011" class="edge">
<title>Node1&#45;&gt;Node11</title>
<g id="a_edge10_Node000001_Node000011"><a xlink:title=" ">
<path fill="none" stroke="#63b8ff" d="M701.8,-71.7C770.37,-65.76 909.86,-52.09 1026.5,-30.5 1034.22,-29.07 1042.46,-27.21 1050.2,-25.31"/>
<polygon fill="#63b8ff" stroke="#63b8ff" points="701.8,-68.19 692.14,-72.52 702.4,-75.16 701.8,-68.19"/>
</a>
</g>
</g>
<!-- Node12 -->
<g id="Node000012" class="node">
<title>Node12</title>
<g id="a_Node000012"><a xlink:href="../../d9/d41/interpolation__utilities_8c.html" target="_top" xlink:title=" ">
<polygon fill="white" stroke="#666666" points="1289.75,-30.5 1149.25,-30.5 1149.25,0 1289.75,0 1289.75,-30.5"/>
<text xml:space="preserve" text-anchor="start" x="1157.25" y="-17" font-family="Helvetica,sans-Serif" font-size="10.00">src/interpolation/interpolation</text>
<text xml:space="preserve" text-anchor="middle" x="1219.5" y="-5.75" font-family="Helvetica,sans-Serif" font-size="10.00">_utilities.c</text>
</a>
</g>
</g>
<!-- Node1&#45;&gt;Node12 -->
<g id="edge11_Node000001_Node000012" class="edge">
<title>Node1&#45;&gt;Node12</title>
<g id="a_edge11_Node000001_Node000012"><a xlink:title=" ">
<path fill="none" stroke="#63b8ff" d="M702.21,-72.4C786.34,-66.76 979.36,-52.47 1140.5,-30.5 1143.26,-30.12 1146.07,-29.72 1148.91,-29.29"/>
<polygon fill="#63b8ff" stroke="#63b8ff" points="702.1,-68.9 692.35,-73.05 702.56,-75.88 702.1,-68.9"/>
</a>
</g>
</g>
</g>
</svg>

<g id="navigator" transform="translate(0 0)" fill="#404254">
  <rect fill="#f2f5e9" fill-opacity="0.5" stroke="#606060" stroke-width=".5" x="0" y="0" width="60" height="60"/>
  <use id="zoomplus" xlink:href="#zoomPlus" x="17" y="9" onmousedown="handleZoom(evt,'in')"/>
  <use id="zoomminus" xlink:href="#zoomMin" x="42" y="9" onmousedown="handleZoom(evt,'out')"/>
  <use id="reset" xlink:href="#resetDef" x="30" y="36" onmousedown="handleReset()"/>
   <use id="arrowup" xlink:href="#arrowUp" x="0" y="0" onmousedown="handlePan(0,-1)"/>
  <use id="arrowright" xlink:href="#arrowRight" x="0" y="0" onmousedown="handlePan(1,0)"/>
  <use id="arrowdown" xlink:href="#arrowDown" x="0" y="0" onmousedown="handlePan(0,1)"/>
  <use id="arrowleft" xlink:href="#arrowLeft" x="0" y="0" onmousedown="handlePan(-1,0)"/>
</g>
<svg viewBox="0 0 15 15" width="100%" height="30px" preserveAspectRatio="xMaxYMin meet">
 <g id="arrow_out" transform="scale(0.3 0.3)">
  <a xlink:href="fft_8h__dep__incl_org.svg" target="_base">
   <rect id="button" ry="5" rx="5" y="6" x="6" height="38" width="38"
        fill="#f2f5e9" fill-opacity="0.5" stroke="#606060" stroke-width="1.0"/>
   <path id="arrow"
     d="M 11.500037,31.436501 C 11.940474,20.09759 22.043105,11.32322 32.158766,21.979434 L 37.068811,17.246167 C 37.068811,17.246167 37.088388,32 37.088388,32 L 22.160133,31.978069 C 22.160133,31.978069 26.997745,27.140456 26.997745,27.140456 C 18.528582,18.264221 13.291696,25.230495 11.500037,31.436501 z"
     style="fill:#404040;"/>
  </a>
 </g>
</svg>

<style type='text/css'>
<![CDATA[
[data-mouse-over-selected='false'] { opacity: 0.7; }
[data-mouse-over-selected='true']  { opacity: 1.0; }
]]>
</style>
<script type="application/ecmascript"><![CDATA[
document.addEventListener('DOMContentLoaded', (event) => {
  highlightEdges();
  highlightAdjacentNodes();
});
]]></script>
</svg>
