<?xml version="1.0" encoding="UTF-8" standalone="no"?>
<!DOCTYPE svg PUBLIC "-//W3C//DTD SVG 1.1//EN"
 "http://www.w3.org/Graphics/SVG/1.1/DTD/svg11.dtd">
<!-- Generated by graphviz version 14.0.0 (20250921.2048)
 -->
<!-- Title: get_upf_element Pages: 1 -->
<svg width="225pt" height="101pt"
 viewBox="0.00 0.00 225.00 101.00" xmlns="http://www.w3.org/2000/svg" xmlns:xlink="http://www.w3.org/1999/xlink">
<g id="graph0" class="graph" transform="scale(1 1) rotate(0) translate(4 97.25)">
<title>get_upf_element</title>
<!-- Node1 -->
<g id="Node000001" class="node">
<title>Node1</title>
<g id="a_Node000001"><a xlink:title=" ">
<polygon fill="#999999" stroke="#666666" points="88,-56.25 0,-56.25 0,-37 88,-37 88,-56.25"/>
<text xml:space="preserve" text-anchor="middle" x="44" y="-42.75" font-family="Helvetica,sans-Serif" font-size="10.00">get_upf_element</text>
</a>
</g>
</g>
<!-- Node2 -->
<g id="Node000002" class="node">
<title>Node2</title>
<g id="a_Node000002"><a xlink:href="../../de/d8e/parse__upf_8c.html#ab1d9b0701dff67e02393ea8a89ef90c8" target="_top" xlink:title=" ">
<polygon fill="white" stroke="#666666" points="217.25,-93.25 124,-93.25 124,-74 217.25,-74 217.25,-93.25"/>
<text xml:space="preserve" text-anchor="middle" x="170.62" y="-79.75" font-family="Helvetica,sans-Serif" font-size="10.00">get_upf1_element</text>
</a>
</g>
</g>
<!-- Node1&#45;&gt;Node2 -->
<g id="edge1_Node000001_Node000002" class="edge">
<title>Node1&#45;&gt;Node2</title>
<g id="a_edge1_Node000001_Node000002"><a xlink:title=" ">
<path fill="none" stroke="#63b8ff" d="M79.05,-56.74C93.2,-60.94 109.82,-65.87 124.93,-70.36"/>
<polygon fill="#63b8ff" stroke="#63b8ff" points="123.58,-73.61 134.16,-73.1 125.57,-66.89 123.58,-73.61"/>
</a>
</g>
</g>
<!-- Node3 -->
<g id="Node000003" class="node">
<title>Node3</title>
<g id="a_Node000003"><a xlink:href="../../de/d8e/parse__upf_8c.html#ab862826dd80312be338f4144653828ac" target="_top" xlink:title=" ">
<polygon fill="white" stroke="#666666" points="217.25,-56.25 124,-56.25 124,-37 217.25,-37 217.25,-56.25"/>
<text xml:space="preserve" text-anchor="middle" x="170.62" y="-42.75" font-family="Helvetica,sans-Serif" font-size="10.00">get_upf2_element</text>
</a>
</g>
</g>
<!-- Node1&#45;&gt;Node3 -->
<g id="edge2_Node000001_Node000003" class="edge">
<title>Node1&#45;&gt;Node3</title>
<g id="a_edge2_Node000001_Node000003"><a xlink:title=" ">
<path fill="none" stroke="#63b8ff" d="M88.24,-46.62C96.07,-46.62 104.36,-46.62 112.52,-46.62"/>
<polygon fill="#63b8ff" stroke="#63b8ff" points="112.41,-50.13 122.41,-46.63 112.41,-43.13 112.41,-50.13"/>
</a>
</g>
</g>
<!-- Node4 -->
<g id="Node000004" class="node">
<title>Node4</title>
<g id="a_Node000004"><a xlink:href="../../de/d8e/parse__upf_8c.html#a7af3ed3bbdb8a640d1d0dfa1cba76a1e" target="_top" xlink:title=" ">
<polygon fill="white" stroke="#666666" points="213.12,-19.25 128.12,-19.25 128.12,0 213.12,0 213.12,-19.25"/>
<text xml:space="preserve" text-anchor="middle" x="170.62" y="-5.75" font-family="Helvetica,sans-Serif" font-size="10.00">get_upf_version</text>
</a>
</g>
</g>
<!-- Node1&#45;&gt;Node4 -->
<g id="edge3_Node000001_Node000004" class="edge">
<title>Node1&#45;&gt;Node4</title>
<g id="a_edge3_Node000001_Node000004"><a xlink:title=" ">
<path fill="none" stroke="#63b8ff" d="M79.05,-36.51C93.2,-32.31 109.82,-27.38 124.93,-22.89"/>
<polygon fill="#63b8ff" stroke="#63b8ff" points="125.57,-26.36 134.16,-20.15 123.58,-19.64 125.57,-26.36"/>
</a>
</g>
</g>
</g>
</svg>
