<?xml version="1.0" encoding="UTF-8" standalone="no"?>
<!DOCTYPE svg PUBLIC "-//W3C//DTD SVG 1.1//EN"
 "http://www.w3.org/Graphics/SVG/1.1/DTD/svg11.dtd">
<!-- Generated by graphviz version 14.0.0 (20250921.2048)
 -->
<!-- Title: src/phonon/phonon.h Pages: 1 -->
<svg width="250pt" height="138pt"
 viewBox="0.00 0.00 250.00 138.00" xmlns="http://www.w3.org/2000/svg" xmlns:xlink="http://www.w3.org/1999/xlink">
<g id="graph0" class="graph" transform="scale(1 1) rotate(0) translate(4 133.75)">
<title>src/phonon/phonon.h</title>
<!-- Node1 -->
<g id="Node000001" class="node">
<title>Node1</title>
<g id="a_Node000001"><a xlink:title=" ">
<polygon fill="#999999" stroke="#666666" points="232.38,-129.75 125.62,-129.75 125.62,-110.5 232.38,-110.5 232.38,-129.75"/>
<text xml:space="preserve" text-anchor="middle" x="179" y="-116.25" font-family="Helvetica,sans-Serif" font-size="10.00">src/phonon/phonon.h</text>
</a>
</g>
</g>
<!-- Node2 -->
<g id="Node000002" class="node">
<title>Node2</title>
<g id="a_Node000002"><a xlink:href="../../d2/d02/dtypes_8h.html" target="_top" xlink:title=" ">
<polygon fill="white" stroke="#666666" points="189,-74.5 95,-74.5 95,-55.25 189,-55.25 189,-74.5"/>
<text xml:space="preserve" text-anchor="middle" x="142" y="-61" font-family="Helvetica,sans-Serif" font-size="10.00">common/dtypes.h</text>
</a>
</g>
</g>
<!-- Node1&#45;&gt;Node2 -->
<g id="edge1_Node000001_Node000002" class="edge">
<title>Node1&#45;&gt;Node2</title>
<g id="a_edge1_Node000001_Node000002"><a xlink:title=" ">
<path fill="none" stroke="#63b8ff" d="M172.89,-110.33C167.94,-103.21 160.8,-92.93 154.63,-84.05"/>
<polygon fill="#63b8ff" stroke="#63b8ff" points="157.69,-82.32 149.11,-76.1 151.94,-86.31 157.69,-82.32"/>
</a>
</g>
</g>
<!-- Node5 -->
<g id="Node000005" class="node">
<title>Node5</title>
<g id="a_Node000005"><a xlink:href="../../d4/d0a/elph_c_8h.html" target="_top" xlink:title="Core type definitions and configuration for LetzElPhC.">
<polygon fill="white" stroke="#666666" points="241.88,-19.25 192.12,-19.25 192.12,0 241.88,0 241.88,-19.25"/>
<text xml:space="preserve" text-anchor="middle" x="217" y="-5.75" font-family="Helvetica,sans-Serif" font-size="10.00">elphC.h</text>
</a>
</g>
</g>
<!-- Node1&#45;&gt;Node5 -->
<g id="edge6_Node000001_Node000005" class="edge">
<title>Node1&#45;&gt;Node5</title>
<g id="a_edge6_Node000001_Node000005"><a xlink:title=" ">
<path fill="none" stroke="#63b8ff" d="M183.24,-110.02C187.31,-101.08 193.49,-87.02 198,-74.5 203.29,-59.82 208.28,-42.87 211.82,-30.13"/>
<polygon fill="#63b8ff" stroke="#63b8ff" points="215.09,-31.43 214.33,-20.87 208.33,-29.6 215.09,-31.43"/>
</a>
</g>
</g>
<!-- Node3 -->
<g id="Node000003" class="node">
<title>Node3</title>
<g id="a_Node000003"><a xlink:title=" ">
<polygon fill="#e0e0e0" stroke="#999999" points="40,-19.25 0,-19.25 0,0 40,0 40,-19.25"/>
<text xml:space="preserve" text-anchor="middle" x="20" y="-5.75" font-family="Helvetica,sans-Serif" font-size="10.00">mpi.h</text>
</a>
</g>
</g>
<!-- Node2&#45;&gt;Node3 -->
<g id="edge2_Node000002_Node000003" class="edge">
<title>Node2&#45;&gt;Node3</title>
<g id="a_edge2_Node000002_Node000003"><a xlink:title=" ">
<path fill="none" stroke="#63b8ff" d="M121.3,-54.84C102,-46.41 72.94,-33.73 50.89,-24.11"/>
<polygon fill="#63b8ff" stroke="#63b8ff" points="52.34,-20.92 41.78,-20.13 49.54,-27.34 52.34,-20.92"/>
</a>
</g>
</g>
<!-- Node4 -->
<g id="Node000004" class="node">
<title>Node4</title>
<g id="a_Node000004"><a xlink:title=" ">
<polygon fill="#e0e0e0" stroke="#999999" points="113.88,-19.25 58.12,-19.25 58.12,0 113.88,0 113.88,-19.25"/>
<text xml:space="preserve" text-anchor="middle" x="86" y="-5.75" font-family="Helvetica,sans-Serif" font-size="10.00">stdbool.h</text>
</a>
</g>
</g>
<!-- Node2&#45;&gt;Node4 -->
<g id="edge3_Node000002_Node000004" class="edge">
<title>Node2&#45;&gt;Node4</title>
<g id="a_edge3_Node000002_Node000004"><a xlink:title=" ">
<path fill="none" stroke="#63b8ff" d="M132.5,-54.84C124.57,-47.3 113.05,-36.35 103.46,-27.23"/>
<polygon fill="#63b8ff" stroke="#63b8ff" points="106.11,-24.92 96.46,-20.57 101.29,-29.99 106.11,-24.92"/>
</a>
</g>
</g>
<!-- Node2&#45;&gt;Node5 -->
<g id="edge4_Node000002_Node000005" class="edge">
<title>Node2&#45;&gt;Node5</title>
<g id="a_edge4_Node000002_Node000005"><a xlink:title=" ">
<path fill="none" stroke="#63b8ff" d="M154.72,-54.84C165.71,-47.04 181.84,-35.59 194.93,-26.29"/>
<polygon fill="#63b8ff" stroke="#63b8ff" points="196.85,-29.22 202.98,-20.58 192.8,-23.51 196.85,-29.22"/>
</a>
</g>
</g>
<!-- Node6 -->
<g id="Node000006" class="node">
<title>Node6</title>
<g id="a_Node000006"><a xlink:href="../../da/d41/error_8h.html" target="_top" xlink:title=" ">
<polygon fill="white" stroke="#666666" points="174.5,-19.25 131.5,-19.25 131.5,0 174.5,0 174.5,-19.25"/>
<text xml:space="preserve" text-anchor="middle" x="153" y="-5.75" font-family="Helvetica,sans-Serif" font-size="10.00">error.h</text>
</a>
</g>
</g>
<!-- Node2&#45;&gt;Node6 -->
<g id="edge5_Node000002_Node000006" class="edge">
<title>Node2&#45;&gt;Node6</title>
<g id="a_edge5_Node000002_Node000006"><a xlink:title=" ">
<path fill="none" stroke="#63b8ff" d="M143.82,-55.08C145.18,-48.49 147.1,-39.21 148.83,-30.82"/>
<polygon fill="#63b8ff" stroke="#63b8ff" points="152.24,-31.59 150.84,-21.09 145.39,-30.18 152.24,-31.59"/>
</a>
</g>
</g>
</g>
</svg>
